<?xml version="1.0" encoding="UTF-8"?>
<svg id="_レイヤー_2" data-name="レイヤー 2" xmlns="http://www.w3.org/2000/svg" xmlns:xlink="http://www.w3.org/1999/xlink" viewBox="0 0 500 328.43">
  <defs>
    <style>
      .cls-1 {
        fill: #3d3a40;
      }

      .cls-1, .cls-2, .cls-3, .cls-4, .cls-5, .cls-6, .cls-7, .cls-8, .cls-9, .cls-10, .cls-11, .cls-12, .cls-13, .cls-14, .cls-15, .cls-16, .cls-17, .cls-18, .cls-19, .cls-20, .cls-21, .cls-22, .cls-23, .cls-24, .cls-25, .cls-26, .cls-27, .cls-28, .cls-29, .cls-30, .cls-31, .cls-32, .cls-33, .cls-34, .cls-35, .cls-36, .cls-37, .cls-38, .cls-39, .cls-40, .cls-41, .cls-42, .cls-43, .cls-44, .cls-45, .cls-46, .cls-47, .cls-48, .cls-49, .cls-50, .cls-51, .cls-52, .cls-53, .cls-54, .cls-55, .cls-56, .cls-57, .cls-58, .cls-59, .cls-60, .cls-61, .cls-62, .cls-63, .cls-64, .cls-65, .cls-66, .cls-67, .cls-68, .cls-69, .cls-70, .cls-71, .cls-72, .cls-73, .cls-74, .cls-75, .cls-76, .cls-77, .cls-78, .cls-79, .cls-80, .cls-81, .cls-82, .cls-83, .cls-84, .cls-85, .cls-86, .cls-87, .cls-88, .cls-89, .cls-90, .cls-91, .cls-92, .cls-93 {
        stroke-width: 0px;
      }

      .cls-2 {
        fill: #545359;
      }

      .cls-3 {
        fill: #b49a87;
      }

      .cls-3, .cls-54 {
        opacity: .3;
      }

      .cls-4 {
        fill: #165678;
      }

      .cls-5 {
        fill: #f4b379;
      }

      .cls-6 {
        fill: #363c55;
      }

      .cls-7, .cls-18 {
        fill: #f4b284;
      }

      .cls-8, .cls-53 {
        opacity: .2;
      }

      .cls-8, .cls-80 {
        fill: #fff;
      }

      .cls-9 {
        fill: #f6f6f6;
      }

      .cls-10 {
        fill: #bd2825;
      }

      .cls-11 {
        fill: #221f20;
      }

      .cls-12 {
        fill: #222b3f;
      }

      .cls-13 {
        fill: #38529b;
      }

      .cls-14 {
        fill: #eaeaee;
      }

      .cls-15 {
        fill: #2e506c;
      }

      .cls-16 {
        fill: #2b282f;
      }

      .cls-16, .cls-18, .cls-56, .cls-90 {
        fill-rule: evenodd;
      }

      .cls-17 {
        fill: #736d79;
      }

      .cls-19 {
        fill: #7b87a1;
      }

      .cls-20 {
        fill: #8f74b2;
      }

      .cls-21 {
        fill: #303033;
      }

      .cls-22 {
        fill: #243657;
      }

      .cls-23 {
        fill: #2e2b30;
      }

      .cls-24 {
        fill: #ccc;
      }

      .cls-25 {
        fill: #ce4341;
      }

      .cls-26 {
        fill: #bbac82;
      }

      .cls-27 {
        fill: #e0dbec;
      }

      .cls-28, .cls-90 {
        fill: #eac29d;
      }

      .cls-29 {
        fill: #1c3c52;
      }

      .cls-30 {
        fill: #51a3d3;
      }

      .cls-31 {
        fill: #575857;
      }

      .cls-32 {
        fill: #19b1c6;
      }

      .cls-33 {
        fill: #f5a22e;
      }

      .cls-34 {
        fill: #f7bfb0;
      }

      .cls-35 {
        fill: url(#Super_Soft_Black_Vignette);
      }

      .cls-36 {
        fill: #939498;
      }

      .cls-37, .cls-53 {
        fill: #040000;
      }

      .cls-38 {
        fill: #f29318;
      }

      .cls-39 {
        fill: #41617a;
      }

      .cls-40 {
        fill: #e94f73;
      }

      .cls-41 {
        fill: #d52527;
      }

      .cls-42 {
        fill: #ea7912;
      }

      .cls-43 {
        fill: #635e69;
      }

      .cls-44 {
        fill: #b36020;
      }

      .cls-45 {
        fill: #c4a295;
      }

      .cls-46 {
        fill: #070407;
      }

      .cls-47 {
        fill: #e8444a;
      }

      .cls-48 {
        fill: #9c9c9c;
      }

      .cls-49 {
        fill: #97c464;
      }

      .cls-50 {
        fill: #962623;
      }

      .cls-51 {
        fill: #f2eff6;
      }

      .cls-52 {
        fill: #bcbdbf;
      }

      .cls-54, .cls-78 {
        fill: #121213;
      }

      .cls-55 {
        fill: #666464;
      }

      .cls-56 {
        fill: #734b23;
      }

      .cls-57 {
        fill: #2d89b8;
      }

      .cls-58 {
        fill: #ee7800;
      }

      .cls-59 {
        fill: #df7000;
      }

      .cls-60 {
        fill: #f8c3a8;
      }

      .cls-61 {
        fill: #1a191c;
      }

      .cls-62 {
        fill: #0e2034;
      }

      .cls-63 {
        fill: #79ac44;
      }

      .cls-64 {
        fill: #5f391a;
      }

      .cls-65 {
        fill: #ecc3b2;
      }

      .cls-66 {
        fill: #54237c;
      }

      .cls-67 {
        fill: #5a6469;
      }

      .cls-68 {
        fill: #526c78;
      }

      .cls-69 {
        fill: url(#Super_Soft_Black_Vignette-2);
      }

      .cls-70 {
        fill: #f0811a;
      }

      .cls-71 {
        fill: #445963;
      }

      .cls-72 {
        fill: #ededec;
      }

      .cls-73 {
        fill: #1c364d;
      }

      .cls-74 {
        fill: #b3302d;
      }

      .cls-75 {
        fill: #dcdddd;
      }

      .cls-76 {
        fill: #f3af93;
      }

      .cls-77 {
        fill: #505b79;
      }

      .cls-79 {
        fill: #e3d7ae;
      }

      .cls-81 {
        fill: #2e495a;
      }

      .cls-82 {
        fill: #504c54;
      }

      .cls-83 {
        fill: #606060;
      }

      .cls-84 {
        fill: #424142;
      }

      .cls-85 {
        fill: #2a5b81;
      }

      .cls-86 {
        fill: #f29039;
      }

      .cls-87 {
        fill: #757577;
      }

      .cls-88 {
        fill: #31bacc;
      }

      .cls-89 {
        fill: #2ea0d2;
      }

      .cls-91 {
        fill: #c33f3d;
      }

      .cls-92 {
        fill: #f6bba9;
      }

      .cls-93 {
        fill: #edcbb3;
      }
    </style>
    <radialGradient id="Super_Soft_Black_Vignette" data-name="Super Soft Black Vignette" cx="267.65" cy="80.27" fx="267.65" fy="80.27" r="5.74" gradientUnits="userSpaceOnUse">
      <stop offset=".57" stop-color="#130c0e"/>
      <stop offset=".8" stop-color="#130c0e"/>
      <stop offset="1" stop-color="#130c0e"/>
    </radialGradient>
    <radialGradient id="Super_Soft_Black_Vignette-2" data-name="Super Soft Black Vignette" cx="265.23" cy="81.56" fx="265.23" fy="81.56" r="1.11" xlink:href="#Super_Soft_Black_Vignette"/>
  </defs>
  <g id="MV">
    <g>
      <path class="cls-55" d="M343.54,327.92c-37.9-2.78-76.64-16.9-115.4-42.08-3.53-2.29-11.05-6.88-20.57-12.68-127.84-77.93-143.21-94.44-146.14-111.36-2.95-16.98-3.31-58.95,56.72-81.86,49.05-18.72,93.48,19.99,112.45,36.52,22.29,19.43,12.03,41.46,8.16,49.76-.2.44-.44.95-.68,1.46.26.19.55.39.87.6,6.63,4.44,12.46,8.79,17.6,12.62,18.47,13.78,27.74,20.69,52.45,18.2,48.28-4.87,68.47,6.76,95.99,26.48,19.08,13.67,27.13,38.03,20.03,60.62-9.61,30.61-39.92,41.88-65.08,42.22-5.45.07-10.93-.09-16.41-.49ZM103.22,151.34c10.06,11.46,52.62,40.11,126.65,85.24,10.2,6.22,17.56,10.71,21.6,13.33h0c37.14,24.13,73.44,36.13,107.9,35.67,13.17-.18,22.44-4.74,24.78-12.21,1.28-4.07.5-9.66-4.12-12.96-22.11-15.84-32.44-22.13-66.74-18.68-41.27,4.16-61.23-10.73-82.36-26.48-4.96-3.7-10.09-7.52-15.82-11.36-31.38-21.01-19.2-47.16-15.2-55.76.16-.34.33-.72.51-1.11-21.29-18.31-45.64-35.2-67.02-27.04-28.47,10.86-30.74,24.27-30.21,31.37Z"/>
      <g>
        <path class="cls-6" d="M378.53,271.09v-3.31l-6.27-1.39-7.41-4.25c-1.75-1.01-4.61-1.01-6.36,0l-9.6,5.55-2.86-.63v3.36h0v.08h0c.03.64.47,1.27,1.3,1.75l12.37,7.11c1.75,1.01,4.61,1.01,6.36,0,3.91-1.97,7.58-4.18,11.15-6.44.87-.51,1.31-1.17,1.31-1.84Z"/>
        <path class="cls-19" d="M358.5,258.84c1.75-1.01,4.61-1.01,6.36,0l12.36,7.11c1.75,1.01,1.75,2.66,0,3.67-3.71,2.15-7.35,4.36-11.15,6.44-1.75,1.01-4.61,1.01-6.36,0l-12.37-7.11c-1.75-1.01-1.75-2.66,0-3.67l11.15-6.44Z"/>
        <path class="cls-40" d="M351.73,266.07s7.12-21.86,8.6-24.56c1.47-2.7,4.91-3.19,6.88,2.46,1.96,5.65,6.14,19.65,6.88,21.86.74,2.21-3.19,6.14-10.56,6.88s-12.77-3.68-11.79-6.63Z"/>
      </g>
      <g>
        <path class="cls-65" d="M170.8,13.69c-4.34-.12-7.13,2.19-10.48,3.59-.48.05-2.47,0-3.28.74-.43.4-.19,1.52-.19,1.52,0,0-2,.85-1.98,1.27.02.41,2.88-.49,2.88-.49,0,0,.28.65.74.74.46.1,1.17.02,1.84-.24.67-.26,1.3-1.92,1.3-1.92,0,0,8.83-.96,9.93-1.99.61-.05,1.65-.07,1.65-.07l-.97-3.57s-.71.42-1.42.42Z"/>
        <path class="cls-44" d="M171.54,13.18c.97,1.61,1.31,4.35,1.31,4.35,0,0,4.3-1.24,6.74-.36.5.48,1.28-5.7.92-6.32-2.04-.61-6.32,1.69-8.98,2.33Z"/>
        <path class="cls-45" d="M185.26,10.36s-4.71-1.75-4.58-.85c.04.96.22,1.52.22,1.52l-.62,1.32.98,3.01,2.21.74,2.43-.48,1.05-2.01-.74-1.47-.96-1.79Z"/>
        <path class="cls-65" d="M195.59,24.3s-3.85.41-3.43,1.42c.43,1.02.8,1.92.8,1.92l.79,2.41,3.13-1.29s.37-1.28,0-2.18c-.22-.52-1.29-2.27-1.29-2.27Z"/>
        <path class="cls-53" d="M193.14,26.87c.73-.47,2.99-.47,2.99-.47,0,0-2.68-1.02-2.99.47Z"/>
        <path class="cls-65" d="M191.96,54.29c-1.24-1.3-.92-.58-1.01-.58-.09,0-3.28.18-3.28.18,0,0-.62.53-.74.93.66,1.12,2.6,6.89,2.09,10.75.16.77.51.74.51.74h1.12l1.71-.74s.48.3.08-1.05c-.61-3.31.65-7.93-.49-10.23Z"/>
        <path class="cls-65" d="M180.88,53.2c-.37-.66-4.86-1.64-5.02-.92-.36.79,2.61,11.29,2,13.95.3.65,1.36.9,1.36.9l2.16-.37s.24-.56.49-1.19c-1.11-3.44.93-8.57-1-12.37Z"/>
        <path class="cls-62" d="M176.76,32.72s-2.12,15.35-2.08,19.18c2.42,2.27,6.18,1.98,7.32,1.34.77-5.48,1.6-10.04,2.96-13.4.71-.94-8.2-7.12-8.2-7.12Z"/>
        <path class="cls-73" d="M184.08,31.57h-4.48s-2.95.51-2.86,1.3c.23,6.45,5.63,8.67,5.63,8.67,0,0,1.33,3.87,2.9,12.4,1.06,1.98,6.37,1.66,7.33-.41-.64-4.15-1.1-16.78-3.45-19.16-.92-.86-5.06-2.79-5.06-2.79Z"/>
        <path class="cls-70" d="M190.83,15.74c-2.28-1.72-3.24-1.86-4.61-3.59.25.47.35,1.44-.15,2.05-.53.62-2.86,1.23-3.94.57-1.49-.91-1.23-3.73-1.23-3.73-.31-.1-.39-.19-.39-.19,0,0-3.18,1.69-3.46,6.32-.27,4.63-.98,17.14-.98,17.14,0,0,9.01,7.81,15.01,2.45-2.62-7.79-.04-14.68-.04-14.68,0,0,.17-5.33-.22-6.34Z"/>
        <path class="cls-65" d="M186.87,2.78l-1.94-.48-4.03,1.07s-.86,1.59-1.21,2.21c-.8,2.49.81,3.22.81,3.22,0,0,.36,2.51,2.62,3.9.62.37,1.81.28,2.24.05,1.78-.94,2.88-3.28,2.89-5.7.19-.95.08-2.28,0-2.88-.21-.4-1.4-1.39-1.4-1.39Z"/>
        <path class="cls-65" d="M199.65,26.57c-2.03.37-5.93,4.02-9.77,6.14,0,0-.86.16-1.16.37.04.58.62,3.57.85,3.49,1-.33,1.75-1.31,1.75-1.31,5.12-1.54,8.09-2.62,9.28-3.55,1.17-.92.48-3.64.48-3.64,0,0-1.01-1.53-1.43-1.5Z"/>
        <path class="cls-53" d="M195.1,34.08s1.97-.54,2.24-1.76c.44-1.86-1.06-3.94-1.06-3.94l-1.18,5.7Z"/>
        <path class="cls-50" d="M200.25,16.78s-1.05,7.89-1.29,9.58c1.86,1.6,5.12,1.25,5.12,1.25,0,0,1.01-15.7.43-15.68-4.16,0-4.26,4.85-4.26,4.85Z"/>
        <path class="cls-45" d="M213.11,10.62c.05-1.56-1.2-.2-1.2-.2l-5.03.97s-2.86,4.33-3.13,4.52c-.27.18,1.1,2.81,1.1,2.81l2.72.55,3.46-.65,3.23-2.11-.2-2.35s-1-1.98-.96-3.53Z"/>
        <path class="cls-78" d="M203.27,74.71c-.79,1.2-4.81,2.17-5.33,3.03-.26.42-.26,1.86.02,1.95,2.63.97,7.65-1.13,7.65-1.13.81.15,3.67.18,4.41-.65.59-.68,0-3.69,0-3.69,0,0-6.16.6-6.76.48Z"/>
        <path class="cls-26" d="M209.52,44.67s-8.23-3.62-8.82-2.12c-.68,6.15,2.3,16.23,2.3,16.23,0,0,.96,10.63,0,16.16.58.99,5.69,2.29,7.35-.57.37-2.62.54-10.05-.84-15.5-.34-1.45,0-14.21,0-14.21Z"/>
        <path class="cls-78" d="M217.42,82.07c-.67,1.51-2.36,3.69-2.97,4.43-.59.74-.9,1.86-.47,2.31,1.84,1.96,4.49,1.05,5.69-.22,1.28-1.37,2.71-4.48,2.79-4.8.09-.33-.12-2.2-.12-2.2,0,0-4.33.27-4.92.48Z"/>
        <path class="cls-79" d="M216.62,43.05l-1.84-2.34h-7.21s-2.59,3.81-2.17,5.34c.44,1.55,6.14,11.34,7.77,16.6,1.63,5.26,3.62,12.35,3.45,19.61.33,1.23,4.42,2.98,6.91-.52.04-11.9-1.61-17.2-3.22-21.12-.93-9.78-3.69-17.58-3.69-17.58Z"/>
        <path class="cls-41" d="M205.43,13.11c.14-.96-5.36,3.56-5.73,8.73-.31,4.14,1,10.64.05,19.6.33,3.94,2.64,7.6,2.64,7.6,0,0,.82-3.35,1.38-4.37.66-.4,2.59-26.09,2.59-26.09,0,0-1.35-2.77-.92-5.46Z"/>
        <path class="cls-41" d="M206.35,18.57c-3.51,7.16-2.4,21.02-2.53,30.98,5.9-1.23,8.12-5.9,10.25-5.97,2.11-.05,2.73.93,3.95,2.95-.12-4.42-2.15-10.63-2.15-10.63l2.88-9.05.94-7.75-5.62-5.27s-2.93,3.75-7.72,4.73Z"/>
        <path class="cls-54" d="M203.82,44.56s-.55-15.19,2.53-25.99c-4.15,7.12-2.53,25.99-2.53,25.99Z"/>
        <path class="cls-65" d="M211.48,2.5h-3.32s-2.21.62-2.5.75c-1.49.96-2.16,3.76-2.17,4.12,0,.5.55.86.55.86,0,0-.15.15-.27.53-.31.95.52,5.6.52,5.6,0,0,.95.99,1.54,1.04,3.69.31,6.02-3.91,6.02-3.91,0,0,1.45-.58,1.77-1.78.2-.74.45-2.06.45-2.06l-.71-2.43-1.88-2.73Z"/>
        <path class="cls-64" d="M212.69,1.92c-4.09-3.45-8.06,1.62-7.11,2.46,1.82,1.6,4.51-1.41,5.73-.16.66.74-.78,2.16-.86,2.92-.16,1.42.64,2.9.64,2.9,0,0,1.26-1.8,2.03-1.84.77-.04.51,1.53.51,1.53,0,0,3.14-4.33-.94-7.81Z"/>
        <g>
          <g>
            <path class="cls-21" d="M198.68,13.29c-.17-.1-.32-.1-.43-.03l-.39.22,2.73,3.99.4-.22h0s0,0,0,0c.1-.06.17-.19.17-.37v-1.48c0-.37-.26-.83-.58-1l-1.91-1.1Z"/>
            <path class="cls-78" d="M198.28,13.51c-.32-.18-.58-.03-.58.34v1.48c0,.37.26.82.58,1l1.91,1.1c.32.19.58.04.58-.33v-1.48c0-.37-.25-.82-.58-1.01l-1.91-1.1Z"/>
          </g>
          <g>
            <path class="cls-2" d="M205.33,12.7c-.25-.15-.48-.15-.64-.04l-5.75,3.32,1.92,4.79,5.77-3.34s0,0,0,0h0c.16-.09.25-.29.25-.56v-2.26c0-.56-.39-1.24-.88-1.52l-.68-.39Z"/>
            <path class="cls-21" d="M199.57,16.03c-.49-.28-.88-.05-.88.51v2.26c0,.56.39,1.24.88,1.52l.67.39c.48.28.88.05.88-.51v-2.26c0-.56-.39-1.24-.88-1.52l-.67-.39Z"/>
          </g>
          <g>
            <path class="cls-2" d="M199.27,16.79l-.52.3.27.44c.07.53.43,1.12.88,1.37l.2.31s.45-.26.47-.28c.14-.1.22-.29.22-.56,0-.56-.39-1.25-.89-1.53-.25-.14-.47-.16-.63-.06Z"/>
            <path class="cls-78" d="M198.55,17.63c0,.57.4,1.25.89,1.55.49.29.89.05.89-.51s-.39-1.26-.89-1.55c-.49-.28-.89-.04-.89.52Z"/>
            <path class="cls-21" d="M199.01,17.63c0-.14.03-.26.1-.34-.2.02-.33.18-.33.46,0,.42.31.94.67,1.15.24.14.45.11.56-.05-.1.01-.21-.02-.33-.09-.37-.2-.67-.72-.67-1.14Z"/>
            <path class="cls-85" d="M199.1,17.3c-.06.07-.1.19-.1.34,0,.42.3.94.67,1.14.12.07.23.1.33.09.06-.07.1-.19.1-.33,0-.43-.29-.94-.66-1.15-.13-.07-.24-.09-.34-.09Z"/>
          </g>
        </g>
        <path class="cls-47" d="M210.64,25.22l-1.12.41s-1.94,1.42-.33,4.25c1.77,3.09,3.97,1.83,3.97,1.83l1.51-2.37-1.33-4.13h-2.7Z"/>
        <path class="cls-65" d="M210.36,25.41s-1.12,1.21-2.35,2.48c-.92-2.52-2.33-4.83-2.85-7.44-.1-.49,1.04-3.9,1.04-3.9,0,0-.17-2.28-.31-2.65-.37-.21-1.44-1.57-2.64-1.55-1.2.01-2.03,1.55-2.17,2.31-.1.36.88,2.62.88,2.62,0,0-.58,1.51-.37,2.67.1.53.47,1.09.65,1.25.65,3.03.95,10.37,1.81,11.58,1.35,1.87,3.1,2.7,4.32,2.19.58-.24,5.71-5.02,5.71-5.02l-.22-3.86-3.5-.67Z"/>
        <path class="cls-53" d="M208.01,27.89c1.82,1.11,2.28,3.68,2.28,3.68,0,0,.59-3.15-2.28-3.68Z"/>
        <path class="cls-50" d="M219.94,19.32c-2.39-1.52-10.42,6.32-10.42,6.32,3.87.83,3.64,6.08,3.64,6.08,0,0,3.61-3.43,5.4-4.71,2.26-1.59,4.21-5.9,1.38-7.69Z"/>
        <path class="cls-50" d="M207.58,17.59s-.39.55-1.23.98c1.86-.04,2.8-.66,2.8-.66l-.37-.74-1.2.42Z"/>
        <path class="cls-47" d="M213.5,12.76s-2.75,3.18-5.92,4.83c1.57.06,2.12,1.5,2.25,1.67,2.43-1.46,4.96-5.14,4.96-5.14-.73-.51-1.29-1.36-1.29-1.36Z"/>
        <path class="cls-53" d="M194.24,34.37c.22-.07-2.01-3.11-2.01-3.11,0,0-1.14,3.37,2.01,3.11Z"/>
        <path class="cls-65" d="M193.93,26.57c-1.17.04-1.32,1.31-1.32,1.31,0,0-.51,2.53-.36,3.91.19,1.7.83,2.58,1.99,2.58.71-.05,2.46-1.06,2.5-1.93,0-.98-.01-2.37-.38-3.78-.36-1.4-1.25-2.13-2.43-2.09Z"/>
        <g>
          <g>
            <path class="cls-36" d="M189.63,37.18c-.62-.36-1.64-.36-2.27,0-.24.15-.39.32-.44.51h-.02v.14c0,.25.16.48.46.66.63.36,1.65.36,2.27,0,.31-.18.47-.41.47-.66v-.14h-.02c-.06-.19-.2-.36-.44-.51Z"/>
            <path class="cls-24" d="M189.63,37.03c-.62-.37-1.64-.37-2.27,0-.62.36-.62.95,0,1.31.63.36,1.65.36,2.27,0,.63-.36.63-.95,0-1.31Z"/>
            <path class="cls-80" d="M189.63,38.34c.24-.14.36-.31.42-.5-.05.15-.17.31-.42.5Z"/>
            <path class="cls-80" d="M189.63,37.03s.55.34.42.79c.01-.04.04-.09.04-.13,0-.25-.16-.48-.47-.66Z"/>
            <path class="cls-80" d="M190.05,37.84s0-.02,0-.02c0,0,0,.01,0,.02Z"/>
          </g>
          <g>
            <path class="cls-41" d="M186.59,37.5c0,.29.19.57.56.78.75.44,1.95.44,2.7,0,.37-.21.56-.49.56-.78v-4.23l-3.82-.08v4.31Z"/>
            <path class="cls-80" d="M188.3,34.37s-.45-.05-.45-.05c.03,1.46-.9,3.07-.44,4.1.15.05.64.2.82.18-.67-.78.36-2.92.08-4.22Z"/>
            <path class="cls-8" d="M189.96,36.54c0,.75.03,1.36.07,1.36.03,0,.07-.61.07-1.36s-.03-2.56-.07-2.56c-.04,0-.07,1.8-.07,2.56Z"/>
            <path class="cls-47" d="M189.73,32.28c-.69-.4-1.78-.4-2.46,0-.33.19-.67.66-.68.91,0,.02,0,.02,0,.04-.03.29.17.59.55.82.75.43,1.95.43,2.7,0,.41-.24.59-.56.55-.87h0v-.02c-.03-.25-.36-.7-.67-.89Z"/>
            <path class="cls-80" d="M190.2,33.73c-.09.11-.19.22-.35.32.16-.11.26-.21.35-.32Z"/>
            <path class="cls-80" d="M190.32,33.54c-.03.06-.07.13-.12.19.05-.06.09-.13.12-.19Z"/>
            <path class="cls-80" d="M190.39,33.25c0,.1-.02.2-.07.29.05-.1.07-.2.07-.29Z"/>
            <path class="cls-80" d="M189.94,32.48c.1.1.2.21.29.33-.08-.12-.17-.22-.29-.33Z"/>
            <path class="cls-80" d="M189.73,32.28c.08.04.14.13.21.2-.07-.07-.15-.14-.21-.2Z"/>
            <path class="cls-80" d="M190.39,33.25s.02-.05.02-.07h0v-.02s-.04-.08-.06-.11c.02.06.04.13.04.2Z"/>
            <path class="cls-80" d="M190.35,33.05c-.03-.09-.07-.17-.12-.25.06.09.1.17.12.25Z"/>
          </g>
          <g>
            <path class="cls-36" d="M189.63,32.22c-.62-.37-1.64-.37-2.27,0-.24.14-.39.31-.44.5h-.02v.15c0,.24.16.48.46.66.63.36,1.65.36,2.27,0,.31-.18.47-.42.47-.66v-.15h-.02c-.06-.19-.2-.36-.44-.5Z"/>
            <path class="cls-52" d="M189.63,32.06c-.62-.36-1.64-.36-2.27,0-.62.36-.62.95,0,1.31.63.36,1.65.36,2.27,0,.63-.36.63-.95,0-1.31Z"/>
            <path class="cls-80" d="M190.05,32.88s0-.02,0-.03c0,0,0,.02,0,.03Z"/>
            <path class="cls-80" d="M189.63,33.37c.24-.14.36-.31.41-.49-.05.15-.17.31-.41.49Z"/>
            <path class="cls-80" d="M189.63,32.06s.55.34.42.79c.01-.04.04-.09.04-.13,0-.24-.16-.48-.47-.66Z"/>
            <path class="cls-2" d="M189.49,32.13c-.54-.32-1.46-.32-2.03,0-.31.18-.44.4-.42.64.02-.2.16-.39.42-.54.57-.33,1.48-.33,2.03,0,.27.15.41.34.43.54.03-.23-.12-.46-.43-.64Z"/>
            <path class="cls-36" d="M189.49,32.23c-.54-.33-1.46-.33-2.03,0-.26.15-.4.34-.42.54.02.2.16.39.42.54.57.33,1.48.33,2.03,0,.27-.15.41-.34.43-.54-.02-.2-.16-.39-.43-.54Z"/>
          </g>
          <g>
            <path class="cls-2" d="M188.75,32.66l-.45-.36c-.09-.08-.28-.09-.38-.02l-.28.16s-.03.03-.05.05h-.01v.05s0,.07.11.12l.65.26c.09.04.22.03.31-.02l.08-.05c.07-.05.07-.1.07-.1v-.06h-.03s0-.01,0-.02Z"/>
            <path class="cls-52" d="M187.92,32.21l-.28.16c-.1.07-.09.16.04.22l.65.26c.09.04.22.03.31-.02l.08-.04c.08-.05.1-.13.03-.18l-.45-.37c-.09-.07-.28-.09-.38-.01Z"/>
            <path class="cls-2" d="M188.42,32.66s-.04.05-.02.08c0,0,.02-.01.02-.02.06-.02.13-.02.16,0,.02.01.03.01.03.02.02-.02,0-.05-.03-.08-.03-.01-.1-.01-.16,0Z"/>
            <path class="cls-48" d="M188.42,32.71s-.01.01-.02.02c0,0,.02.01.02.02.06.02.13.02.16,0,.02-.01.03-.02.03-.02,0,0-.01-.01-.03-.02-.03-.02-.1-.02-.16,0Z"/>
            <path class="cls-2" d="M188.31,32.38c-.09-.07-.27-.08-.38-.01h-.01c-.05.04-.08.09-.07.14.01-.03.03-.05.07-.09h.01c.11-.07.3-.06.38.02l.02.02s.03.04.04.06c.01-.03,0-.07-.04-.1l-.02-.02Z"/>
            <path class="cls-48" d="M188.31,32.43c-.09-.07-.27-.08-.38-.02h-.01s-.05.06-.07.09c.01.03.05.07.1.09h.04c.09.05.23.05.32,0,.04-.02.06-.05.07-.08h0s-.02-.04-.04-.06l-.02-.02Z"/>
          </g>
        </g>
        <path class="cls-65" d="M190.49,33.6c-.31,0-.56.58-.56,1.29s.25,1.3.56,1.3.56-.58.56-1.3-.24-1.29-.56-1.29Z"/>
        <path class="cls-65" d="M186.59,34.41v-.62s-.6.18-.82.77c-.11.31-.05,2.4.21,2.72.24.31.59.72.96.61.38-.1.8-1.16.88-1.57.08-.42-.18-1.1-.39-1.36-.2-.26-.84-.55-.84-.55Z"/>
        <path class="cls-64" d="M181.53.73c-2.54-.07-1.84,4.84-1.84,4.84,0,0,.76.39,1.12,1.61.36-.69,0-1.92.16-2.21.17-.29.73-.38,1.53-1.53.49.03.32,1.1.32,1.1,0,0,1.84-.11,2.63-1.01.62.5-.28,1.44-.28,1.44,0,0,3.36.4,3.38-1.71,0-1.11-1.63-4.82-7.02-2.54Z"/>
        <path class="cls-53" d="M181.53.73s.69,1.27,1.15.92c.33-.53-1.15-.92-1.15-.92Z"/>
        <path class="cls-44" d="M189.92,15.68c-.75-.12-1.93,2.95-.67,4.86,1.28,1.91,2.59,5.47,2.59,5.47,0,0,2.83,0,4.08-1.71-.34-.63-3.28-9.41-6-8.62Z"/>
        <path class="cls-41" d="M177.86,66.23c-1.97,1.72-4.89,2.45-5.23,3.06-.34.62-.29,1.88,0,2.06,1.14.71,2.83.48,3.81.06.99-.42,2.22-1.44,2.22-1.44,0,0,3.16-.21,3.47-.95.31-.74.03-3.19-.25-3.45-.61,1.33-3.29.94-4.02.66Z"/>
        <path class="cls-41" d="M189.02,65.57c-.1.65-1.02,2.43-2.65,4.21-.43.48,0,1.58.39,1.89,3.72,1.65,4.75-1.03,4.75-1.03,0,0,1.28-2.7,1.6-3.51.28-1.32-.65-2.62-.65-2.62,0,0-.46,1.85-3.43,1.05Z"/>
        <path class="cls-36" d="M201.27,18.07s-.02,1.3,0,1.36c.38.06.91.06.91.06l.16-1.42s-.56.1-1.07,0Z"/>
        <path class="cls-78" d="M202.34,17.87c-.2-.06-.44,1.41-.27,1.78,2.39.21,3.71-.78,3.71-.78,0,0,1.25-.79.57-2-.38-.37-1.47.67-4.01,1.01Z"/>
      </g>
      <g>
        <path class="cls-6" d="M314.31,300.14l.45-6.14-11.45-3.43-45.35-30.82c-3.11-2.11-8.42-2.5-11.8-.87l-18.59,8.99-5.22-1.56-.46,6.24h0s-.01.15-.01.15h.01c-.02,1.19.69,2.42,2.18,3.44l54.16,36.81c3.11,2.11,8.42,2.5,11.8.87,7.54-3.13,14.64-6.74,21.58-10.43,1.69-.82,2.6-1.99,2.69-3.23Z"/>
        <path class="cls-19" d="M246.61,252.73c3.38-1.64,8.69-1.25,11.8.87l54.16,36.81c3.11,2.11,2.88,5.18-.5,6.82-7.19,3.49-14.25,7.1-21.58,10.43-3.38,1.64-8.7,1.25-11.8-.87l-54.16-36.8c-3.11-2.11-2.88-5.18.5-6.82l21.58-10.43Z"/>
        <path class="cls-31" d="M305.12,277.72c-2.25-4.66-5.38-8.35-8.62-10.55l-11.27-7.66-.9,12.22-21.43-14.57.9-12.22-6.47-4.4c-1.57-1.07-3.2-1.42-4.51-.78-1.31.63-2.05,2.12-2.19,4.02l-.87,11.81,57.99,39.41.29-3.98c.29-3.9-.66-8.65-2.91-13.31Z"/>
        <polygon class="cls-6" points="242.18 255.4 263.8 244.95 262.94 256.68 241.29 267.62 242.18 255.4"/>
        <polygon class="cls-77" points="262.94 256.68 268.23 260.27 246.58 271.22 241.29 267.62 262.94 256.68"/>
        <polygon class="cls-4" points="267.68 267.77 274.1 272.03 274.64 264.63 268.23 260.27 267.68 267.77"/>
        <path class="cls-30" d="M242.18,255.4l21.61-10.45-6.47-4.4s-1.73-1.26-3.37-1.09c0,0-.67-.02-1.58.56l-21.13,10.17s1.17-.69,3.09.06c0,0,.77.33,1.84,1.06l6.01,4.08Z"/>
        <polygon class="cls-6" points="268.23 260.27 267.68 267.77 252.38 275.15 246.57 271.21 268.23 260.27"/>
        <path class="cls-86" d="M253.71,260.73s-.55,1.99,1.13,4.01,6.53,2.37,7.64,2.86c1.11.49,3.08,7.87,3.08,7.87l4.66-3.58s-1.83-3.59-2.4-5.12c-.56-1.53-2.85-2.71-2.85-2.71,0,0,2.58-.08,4.49,1.48,1.92,1.56,2.48,3.97,2.48,3.97l4.27-1.99s-3.99-6.45-5.72-7.86-7.35-2.16-7.35-2.16l-9.44,3.23Z"/>
        <g>
          <g>
            <path class="cls-93" d="M265.02,232.09l-.99-.77-1.1-1.47.28-.25,1.58,1.25.04-1.91.61-1.68,1.3-.08.97,2.25-.51,2.63c-.43-.26-1.58-.46-2.18.03Z"/>
            <path class="cls-63" d="M260.95,241.88c-.13-.14-.34-.25-.54-.36.12-.45-.54-.46-.48-.95,1.77-1.04,5.15-2.5,5.15-2.5,0,0-.09-4.66-.3-5.79.05-.1.17-.13.25-.19.6-.5,1.75-.29,2.18-.03.04.02.11.04.13.06.34.31,1.33,6.54.87,7.7-.1.25-.4.75-.79,1.34-.41.63-.93,1.35-1.49,2.09-.29.38-.58.74-.88,1.09-.92,1.08-1.76,1.87-2.22,1.85,0,0,0,0-.01,0-.64-1.93-1.5-4.06-1.85-4.31Z"/>
            <path class="cls-49" d="M258.3,261.89c-1.23.3-2.4.62-3.35.42-.4-.08-.73-.33-1-.63-.12-.14-.26-.26-.34-.44-.88-1.9-1.96-4.68-3.09-9.34.72-.14,1.23-.31,1.4-.47.56-.53,1.62-4.66-.44-6.37.83-.59,1.73-.96,2.09-1.2,0,0,.01,0,.01,0-.16.11-.32.2-.47.32.8.83,2.7,1.32,4.2.92.32-.08.63-.21.9-.38.49-.3.75-.75.74-1.26,0-.03-.01-.05-.02-.08.32-.04.58-.11.75-.21.21-.13.52-.8.75-1.63.2.11.41.21.54.36.36.25,1.21,2.37,1.85,4.31.25.76.47,1.49.61,2.06.47,1.95.57,2.86,1.2,7.81.01.08-.01.16-.02.23-.06.5.12,1.54-.28,1.93-.57.56-.94,1.24-2.41,1.92-1.03.48-2.3,1.42-3.61,1.74Z"/>
            <path class="cls-93" d="M238.31,243.34l-2.32-2.05-.67-2.6,1.17-.8,1.65,1.04,1.32,1.62.53-2.13.41.03.03,2.01-.35,1.4c-.35.23-1.22.84-1.76,1.47Z"/>
            <path class="cls-63" d="M237.16,244.6c.05-.08,1.09-1.18,1.15-1.25.54-.63,1.41-1.25,1.76-1.47.08-.05.18-.12.18-.12.53.56,2.77,4.9,4.1,5.31.46.14,1.2-.05,2.05-.35,0,0,.01,0,.02,0,1.6-.57,3.61-1.55,5.04-1.65,0,0,0,0,0,0,2.06,1.71,1,5.84.44,6.37-.16.16-.68.33-1.4.47-1.71.33-4.68.38-7.56-.89-.65-.43-1.28-1.04-1.9-1.71,0,0,0,0,0,0-2.47-2.69-3.9-4.7-3.9-4.7Z"/>
          </g>
          <polygon class="cls-80" points="253.18 241.83 252.67 244.62 257.82 246.49 258.2 244.71 260.98 245.77 259.76 242.17 253.18 241.83"/>
          <path class="cls-93" d="M260.86,242.27c-.23.83-.65,1.42-.87,1.55-.16.1-.52.43-.84.47-.14.02-1.1.1-1.27.08-1.65-.15-2.8-.46-4.47-1.62-.05-.03-.09-.06-.14-.1,0,0,0,0,0,0-.38-.27-.7-.59-1-.95.28-.37-.25-1.77.46-3.03.36-.64,1.96.39,1.74,1.11.13.29-.06.22.25.29.23-.94.26-2.4,1-3.48,1.45.27,3.62.01,4.52-.74.01.01.02.02.03.03.24.32.39.81.49,1.7.03.29-.37,2.27-.29,2.58.01.04.02.09.02.13.32.52.43.48.54,1.03.06.28-.05.48-.17.93Z"/>
          <path class="cls-84" d="M251.59,241.25c-2.91-1.91-2.2-6.88.52-8.66-.32.48-.48.98-.43,1.29.11.61,1.13,1.68,4.17,2.85.25.1.05,0,.29.05-.74,1.08-1.07,2.52-1.3,3.46-.31-.07-.25-.15-.38-.44.21-.71-1.28-1.26-1.64-.62-.7,1.25.12,2.26-.16,2.63-.18.24-.56-.21-1.08-.55Z"/>
          <path class="cls-83" d="M256.35,235.97c-.24-.05-.48-.08-.73-.17-3.04-1.17-4.06-2.24-4.17-2.85-.05-.31.1-.81.43-1.29.77-1.14,2.58-2.11,5.37-.3.2.13.38.21.6.37,2.09,1.59,2.94,1.58,3.47,1.29-.01.49-.52,1.27-1.31,1.92-.91.75-2.2,1.3-3.66,1.03Z"/>
          <path class="cls-30" d="M249.83,236.65s5.89,2.8,9.06,2.02c3.17-.78,4.02-2.21,3.09-4.24-.93-2.03-3.37-4.78-7.67-4.29-4.3.5-6.61,3.44-4.47,6.51Z"/>
        </g>
        <g>
          <path class="cls-22" d="M279.57,267.42l-2.74-1.83c.68-1.16,1.12-2.44,1.21-3.65.16-2.16-.87-3.64-2.63-3.77-.68-.05-1.42.11-2.2.49-2.6,1.26-4.79,4.49-5.01,7.36-.16,2.16.88,3.64,2.63,3.77.68.05,1.42-.11,2.2-.49,1.07-.52,2.06-1.37,2.89-2.39l2.76,1.85c.12.08.25.12.39.13.28.02.56-.11.73-.35.25-.37.15-.87-.22-1.11ZM274.33,263.15l2.31-2.82c.17.4.25.91.2,1.52-.07,1-.45,2.07-1.01,3.06l-1.59-1.07c.05-.15.09-.3.1-.45,0-.09,0-.17,0-.25ZM273.74,259.74c.57-.28,1.12-.41,1.58-.37.32.02.59.13.81.3l-2.35,2.86c-.17-.02-.36,0-.57.11-.22.11-.43.28-.62.48l-1.53-1.08c.75-.99,1.68-1.82,2.66-2.3ZM272.51,268.22c-.57.28-1.12.41-1.58.37-1.06-.08-1.63-1-1.52-2.48.08-1.12.54-2.32,1.22-3.41l1.52,1.08c-.13.26-.21.53-.23.78-.05.74.44,1.08,1.11.75.09-.04.18-.1.27-.16l1.62,1.08c-.7.85-1.53,1.56-2.4,1.98Z"/>
          <g>
            <path class="cls-57" d="M283.51,288.17c-2.25-4.66-5.38-8.35-8.62-10.55l-11.27-7.66-.9,12.22-21.43-14.57.9-12.22-6.47-4.4c-1.57-1.07-3.2-1.42-4.51-.78-1.31.63-2.05,2.12-2.19,4.02l-.87,11.81,57.99,39.41.29-3.98c.29-3.9-.66-8.65-2.91-13.31Z"/>
            <path class="cls-30" d="M307.86,286.5c-.53-3.6-1.85-6.78-1.85-6.78-3.6-8.68-9.12-12.28-9.12-12.28l-1.39-.95-3.39-2.3-6.87-4.67-21.62,10.45,11.27,7.66c1.72,1.17,3.77,3.31,3.77,3.31,2.75,2.9,4.78,7.11,4.78,7.11,1.67,3.44,2.33,6.46,2.33,6.46.96,3.9.67,6.63.67,6.63l-.31,4.33c1.52-.65,4.22-1.92,7.21-3.36l.1-1.36,10.55-5.1-.1,1.3c1.83-.91,3.23-1.61,3.84-1.94l.31-4.26c.11-2.39-.2-4.25-.2-4.25Z"/>
            <g>
              <path class="cls-9" d="M305.33,292.68c-.94.45-1.63-.02-1.56-1.06.08-1.04.9-2.24,1.83-2.7.94-.45,1.63.02,1.56,1.06-.08,1.04-.9,2.24-1.83,2.7Z"/>
              <path class="cls-13" d="M305.38,291.88c-.81.39-1.44.09-1.55-.68-.03.14-.06.28-.07.42-.08,1.04.62,1.51,1.56,1.06.94-.45,1.76-1.66,1.83-2.7,0-.14,0-.26,0-.38-.23.93-.95,1.89-1.76,2.28Z"/>
            </g>
            <g>
              <path class="cls-9" d="M288.8,300.66c-.94.45-1.63-.02-1.56-1.06.08-1.04.9-2.24,1.83-2.7.94-.45,1.63.02,1.56,1.06-.08,1.04-.9,2.24-1.83,2.7Z"/>
              <path class="cls-13" d="M288.85,299.87c-.81.39-1.44.09-1.55-.68-.03.14-.06.28-.07.42-.08,1.04.62,1.51,1.56,1.06.94-.45,1.76-1.66,1.83-2.7,0-.14,0-.26-.01-.38-.23.93-.95,1.89-1.76,2.28Z"/>
            </g>
            <polygon class="cls-27" points="263.62 269.96 269.13 293.9 273.75 297.04 268.25 273.11 263.62 269.96"/>
            <polygon class="cls-51" points="263.62 269.96 285.24 259.51 289.86 262.65 284.33 271.73 268.25 273.11 263.62 269.96"/>
            <polygon class="cls-27" points="270.86 291.36 228.4 262.51 228.14 266.05 270.6 294.9 270.86 291.36"/>
          </g>
        </g>
        <path class="cls-81" d="M261.41,301.22c.39,5.2,4.28,9.93,8.41,9.24,4.6-.77,7.1-2.93,6.71-8.13-.39-5.2-4.09-9.66-8.26-9.97-4.18-.31-7.25,3.66-6.86,8.86Z"/>
        <path class="cls-75" d="M262.99,302.3c.37,3.08,2.34,5.84,4.41,6.16,2.07.32,3.45-1.92,3.08-5-.37-3.08-2.34-5.84-4.41-6.16-2.07-.32-3.45,1.92-3.08,5Z"/>
        <path class="cls-81" d="M225.62,274.95c.39,5.2,4.28,9.93,8.41,9.24,4.6-.77,7.1-2.93,6.71-8.13-.39-5.2-4.09-9.66-8.26-9.97-4.18-.31-7.25,3.66-6.86,8.86Z"/>
        <path class="cls-75" d="M227.2,276.03c.37,3.08,2.34,5.84,4.41,6.16s3.45-1.92,3.08-5c-.37-3.08-2.34-5.84-4.41-6.16-2.07-.32-3.45,1.92-3.08,5Z"/>
      </g>
      <g>
        <path class="cls-6" d="M148.57,206.59l.45-6.14-11.45-3.43-45.35-30.82c-3.11-2.11-8.42-2.5-11.8-.87l-18.59,8.99-5.22-1.56-.46,6.24h0s-.01.15-.01.15h.01c-.02,1.19.69,2.42,2.18,3.44l54.16,36.81c3.11,2.11,8.42,2.5,11.8.87,7.54-3.13,14.64-6.74,21.58-10.43,1.69-.82,2.6-1.99,2.69-3.23Z"/>
        <path class="cls-19" d="M80.87,159.19c3.38-1.64,8.69-1.25,11.8.87l54.16,36.81c3.11,2.11,2.88,5.18-.5,6.82-7.19,3.49-14.25,7.1-21.58,10.43-3.38,1.64-8.7,1.25-11.8-.87l-54.16-36.8c-3.11-2.11-2.88-5.18.5-6.82l21.58-10.43Z"/>
        <path class="cls-31" d="M139.38,184.18c-2.25-4.66-5.38-8.35-8.62-10.55l-11.27-7.66-.9,12.22-21.43-14.57.9-12.22-6.47-4.4c-1.57-1.07-3.2-1.42-4.51-.78-1.31.63-2.05,2.12-2.19,4.02l-.87,11.81,57.99,39.41.29-3.98c.29-3.9-.66-8.65-2.91-13.31Z"/>
        <polygon class="cls-6" points="76.44 161.85 98.06 151.4 97.2 163.13 75.55 174.07 76.44 161.85"/>
        <polygon class="cls-77" points="97.2 163.13 102.49 166.73 80.84 177.68 75.55 174.07 97.2 163.13"/>
        <polygon class="cls-4" points="101.94 174.23 108.36 178.48 108.9 171.09 102.49 166.73 101.94 174.23"/>
        <path class="cls-30" d="M76.44,161.85l21.61-10.45-6.47-4.4s-1.73-1.26-3.37-1.09c0,0-.67-.02-1.58.56l-21.13,10.17s1.17-.69,3.09.06c0,0,.77.33,1.84,1.06l6.01,4.08Z"/>
        <polygon class="cls-6" points="102.49 166.73 101.94 174.23 86.64 181.61 80.83 177.67 102.49 166.73"/>
        <path class="cls-86" d="M87.97,167.18s-.55,1.99,1.13,4.01,6.53,2.37,7.64,2.86c1.11.49,3.08,7.87,3.08,7.87l4.66-3.58s-1.83-3.59-2.4-5.12c-.56-1.53-2.85-2.71-2.85-2.71,0,0,2.58-.08,4.49,1.48,1.92,1.56,2.48,3.97,2.48,3.97l4.27-1.99s-3.99-6.45-5.72-7.86c-1.72-1.41-7.35-2.16-7.35-2.16l-9.44,3.23Z"/>
        <g>
          <g>
            <path class="cls-93" d="M99.28,138.54l-.99-.77-1.1-1.47.28-.25,1.58,1.25.04-1.91.61-1.68,1.3-.08.97,2.25-.51,2.63c-.43-.26-1.58-.46-2.18.03Z"/>
            <path class="cls-63" d="M95.21,148.34c-.13-.14-.34-.25-.54-.36.12-.45-.54-.46-.48-.95,1.77-1.04,5.15-2.5,5.15-2.5,0,0-.09-4.66-.3-5.79.05-.1.17-.13.25-.19.6-.5,1.75-.29,2.18-.03.04.02.11.04.13.06.34.31,1.33,6.54.87,7.7-.1.25-.4.75-.79,1.34-.41.63-.93,1.35-1.49,2.09-.29.38-.58.74-.88,1.09-.92,1.08-1.76,1.87-2.22,1.85,0,0,0,0-.01,0-.64-1.93-1.5-4.06-1.85-4.31Z"/>
            <path class="cls-49" d="M92.56,168.34c-1.23.3-2.4.62-3.35.42-.4-.08-.73-.33-1-.63-.12-.14-.26-.26-.34-.44-.88-1.9-1.96-4.68-3.09-9.34.72-.14,1.23-.31,1.4-.47.56-.53,1.62-4.66-.44-6.37.83-.59,1.73-.96,2.09-1.2,0,0,.01,0,.01,0-.16.11-.32.2-.47.32.8.83,2.7,1.32,4.2.92.32-.08.63-.21.9-.38.49-.3.75-.75.74-1.26,0-.03-.01-.05-.02-.08.32-.04.58-.11.75-.21.21-.13.52-.8.75-1.63.2.11.41.21.54.36.36.25,1.21,2.37,1.85,4.31.25.76.47,1.49.61,2.06.47,1.95.57,2.86,1.2,7.81.01.08-.01.16-.02.23-.06.5.12,1.54-.28,1.93-.57.56-.94,1.24-2.41,1.92-1.03.48-2.3,1.42-3.61,1.74Z"/>
            <path class="cls-93" d="M72.57,149.8l-2.32-2.05-.67-2.6,1.17-.8,1.65,1.04,1.32,1.62.53-2.13.41.03.03,2.01-.35,1.4c-.35.23-1.22.84-1.76,1.47Z"/>
            <path class="cls-63" d="M71.42,151.05c.05-.08,1.09-1.18,1.15-1.25.54-.63,1.41-1.25,1.76-1.47.08-.05.18-.12.18-.12.53.56,2.77,4.9,4.1,5.31.46.14,1.2-.05,2.05-.35,0,0,.01,0,.02,0,1.6-.57,3.61-1.55,5.04-1.65,0,0,0,0,0,0,2.06,1.71,1,5.84.44,6.37-.16.16-.68.33-1.4.47-1.71.33-4.68.38-7.56-.89-.65-.43-1.28-1.04-1.9-1.71,0,0,0,0,0,0-2.47-2.69-3.9-4.7-3.9-4.7Z"/>
          </g>
          <polygon class="cls-80" points="87.44 148.29 86.93 151.08 92.08 152.94 92.46 151.16 95.24 152.23 94.02 148.62 87.44 148.29"/>
          <path class="cls-93" d="M95.12,148.73c-.23.83-.65,1.42-.87,1.55-.16.1-.52.43-.84.47-.14.02-1.1.1-1.27.08-1.65-.15-2.8-.46-4.47-1.62-.05-.03-.09-.06-.14-.1,0,0,0,0,0,0-.38-.27-.7-.59-1-.95.28-.37-.25-1.77.46-3.03.36-.64,1.96.39,1.74,1.11.13.29-.06.22.25.29.23-.94.26-2.4,1-3.48,1.45.27,3.62.01,4.52-.74.01.01.02.02.03.03.24.32.39.81.49,1.7.03.29-.37,2.27-.29,2.58.01.04.02.09.02.13.32.52.43.48.54,1.03.06.28-.05.48-.17.93Z"/>
          <path class="cls-84" d="M85.85,147.7c-2.91-1.91-2.2-6.88.52-8.66-.32.48-.48.98-.43,1.29.11.61,1.13,1.68,4.17,2.85.25.1.05,0,.29.05-.74,1.08-1.07,2.52-1.3,3.46-.31-.07-.25-.15-.38-.44.21-.71-1.28-1.26-1.64-.62-.7,1.25.12,2.26-.16,2.63-.18.24-.56-.21-1.08-.55Z"/>
          <path class="cls-83" d="M90.61,142.42c-.24-.05-.48-.08-.73-.17-3.04-1.17-4.06-2.24-4.17-2.85-.05-.31.1-.81.43-1.29.77-1.14,2.58-2.11,5.37-.3.2.13.38.21.6.37,2.09,1.59,2.94,1.58,3.47,1.29-.01.49-.52,1.27-1.31,1.92-.91.75-2.2,1.3-3.66,1.03Z"/>
          <path class="cls-30" d="M84.09,143.1s5.89,2.8,9.06,2.02,4.02-2.21,3.09-4.24c-.93-2.03-3.37-4.78-7.67-4.29-4.3.5-6.61,3.44-4.47,6.51Z"/>
        </g>
        <g>
          <path class="cls-22" d="M113.83,173.87l-2.74-1.83c.68-1.16,1.12-2.44,1.21-3.65.16-2.16-.87-3.64-2.63-3.77-.68-.05-1.42.11-2.2.49-2.6,1.26-4.79,4.49-5.01,7.36-.16,2.16.88,3.64,2.63,3.77.68.05,1.42-.11,2.2-.49,1.07-.52,2.06-1.37,2.89-2.39l2.76,1.85c.12.08.25.12.39.13.28.02.56-.11.73-.35.25-.37.15-.87-.22-1.11ZM108.59,169.6l2.31-2.82c.17.4.25.91.2,1.52-.07,1-.45,2.07-1.01,3.06l-1.59-1.07c.05-.15.09-.3.1-.45,0-.09,0-.17,0-.25ZM108,166.2c.57-.28,1.12-.41,1.58-.37.32.02.59.13.81.3l-2.35,2.86c-.17-.02-.36,0-.57.11-.22.11-.43.28-.62.48l-1.53-1.08c.75-.99,1.68-1.82,2.66-2.3ZM106.77,174.67c-.57.28-1.12.41-1.58.37-1.06-.08-1.63-1-1.52-2.48.08-1.12.54-2.32,1.22-3.41l1.52,1.08c-.13.26-.21.53-.23.78-.05.74.44,1.08,1.11.75.09-.04.18-.1.27-.16l1.62,1.08c-.7.85-1.53,1.56-2.4,1.98Z"/>
          <g>
            <path class="cls-57" d="M117.77,194.63c-2.25-4.66-5.38-8.35-8.62-10.55l-11.27-7.66-.9,12.22-21.43-14.57.9-12.22-6.47-4.4c-1.57-1.07-3.2-1.42-4.51-.78-1.31.63-2.05,2.12-2.19,4.02l-.87,11.81,57.99,39.41.29-3.98c.29-3.9-.66-8.65-2.91-13.31Z"/>
            <path class="cls-30" d="M142.12,192.95c-.53-3.6-1.85-6.78-1.85-6.78-3.6-8.68-9.12-12.28-9.12-12.28l-1.39-.95-3.39-2.3-6.87-4.67-21.62,10.45,11.27,7.66c1.72,1.17,3.77,3.31,3.77,3.31,2.75,2.9,4.78,7.11,4.78,7.11,1.67,3.44,2.33,6.46,2.33,6.46.96,3.9.67,6.63.67,6.63l-.31,4.33c1.52-.65,4.22-1.92,7.21-3.36l.1-1.36,10.55-5.1-.1,1.3c1.83-.91,3.23-1.61,3.84-1.94l.31-4.26c.11-2.39-.2-4.25-.2-4.25Z"/>
            <g>
              <path class="cls-9" d="M139.59,199.13c-.94.45-1.63-.02-1.56-1.06s.9-2.24,1.83-2.7c.94-.45,1.63.02,1.56,1.06-.08,1.04-.9,2.24-1.83,2.7Z"/>
              <path class="cls-13" d="M139.64,198.34c-.81.39-1.44.09-1.55-.68-.03.14-.06.28-.07.42-.08,1.04.62,1.51,1.56,1.06.94-.45,1.76-1.66,1.83-2.7,0-.14,0-.26,0-.38-.23.93-.95,1.89-1.76,2.28Z"/>
            </g>
            <g>
              <path class="cls-9" d="M123.06,207.12c-.94.45-1.63-.02-1.56-1.06.08-1.04.9-2.24,1.83-2.7.94-.45,1.63.02,1.56,1.06-.08,1.04-.9,2.24-1.83,2.7Z"/>
              <path class="cls-13" d="M123.11,206.33c-.81.39-1.44.09-1.55-.68-.03.14-.06.28-.07.42-.08,1.04.62,1.51,1.56,1.06.94-.45,1.76-1.66,1.83-2.7,0-.14,0-.26-.01-.38-.23.93-.95,1.89-1.76,2.28Z"/>
            </g>
            <polygon class="cls-27" points="97.88 176.42 103.39 200.36 108.01 203.5 102.51 179.57 97.88 176.42"/>
            <polygon class="cls-51" points="97.88 176.42 119.5 165.97 124.12 169.11 118.59 178.19 102.51 179.57 97.88 176.42"/>
            <polygon class="cls-27" points="105.12 197.81 62.66 168.96 62.4 172.51 104.86 201.36 105.12 197.81"/>
          </g>
        </g>
        <path class="cls-81" d="M95.67,207.68c.39,5.2,4.28,9.93,8.41,9.24,4.6-.77,7.1-2.93,6.71-8.13-.39-5.2-4.09-9.66-8.26-9.97-4.18-.31-7.25,3.66-6.86,8.86Z"/>
        <path class="cls-75" d="M97.25,208.75c.37,3.08,2.34,5.84,4.41,6.16,2.07.32,3.45-1.92,3.08-5-.37-3.08-2.34-5.84-4.41-6.16s-3.45,1.92-3.08,5Z"/>
        <path class="cls-81" d="M59.88,181.41c.39,5.2,4.28,9.93,8.41,9.24,4.6-.77,7.1-2.93,6.71-8.13-.39-5.2-4.09-9.66-8.26-9.97s-7.25,3.66-6.86,8.86Z"/>
        <path class="cls-75" d="M61.46,182.48c.37,3.08,2.34,5.84,4.41,6.16,2.07.32,3.45-1.92,3.08-5-.37-3.08-2.34-5.84-4.41-6.16s-3.45,1.92-3.08,5Z"/>
      </g>
      <g>
        <g>
          <g>
            <path class="cls-6" d="M72.11,111.19l.43-5.89,11.34-1.65,47.34-22.88c3.24-1.57,8.34-1.19,11.32.83l16.38,11.13,5.17-.75-.44,5.98h0s-.01.15-.01.15h-.01c-.14,1.13-1,2.2-2.55,2.95l-56.53,27.33c-3.24,1.57-8.34,1.2-11.32-.83-6.71-4.03-12.94-8.44-19.01-12.92-1.49-1.01-2.18-2.25-2.09-3.44Z"/>
            <path class="cls-19" d="M142.97,75.71c-2.98-2.03-8.08-2.4-11.32-.83l-56.53,27.33c-3.24,1.57-3.46,4.51-.48,6.54,6.33,4.32,12.52,8.73,19.01,12.92,2.98,2.03,8.08,2.4,11.32.83l56.53-27.33c3.25-1.57,3.46-4.51.48-6.54l-19.01-12.92Z"/>
            <path class="cls-31" d="M83.96,91.22c2.79-4.1,6.27-7.17,9.65-8.8l11.77-5.69-.86,11.72,22.37-10.82.86-11.72,6.76-3.27c1.64-.79,3.24-.9,4.39-.11,1.15.78,1.65,2.3,1.51,4.12l-.83,11.33-60.53,29.26.28-3.81c.27-3.75,1.84-8.11,4.63-12.22Z"/>
            <polygon class="cls-6" points="146.79 78.85 127.75 65.91 126.92 77.16 145.93 90.57 146.79 78.85"/>
            <polygon class="cls-77" points="126.92 77.16 121.4 79.83 140.41 93.25 145.93 90.57 126.92 77.16"/>
            <polygon class="cls-91" points="120.87 87.02 114.18 90.16 114.7 83.07 121.4 79.83 120.87 87.02"/>
            <path class="cls-40" d="M146.79,78.85l-19.04-12.94,6.76-3.27s1.82-.96,3.35-.56c0,0,.63.07,1.42.75l18.62,12.61s-1.02-.82-2.94-.37c0,0-.78.21-1.9.75l-6.27,3.03Z"/>
            <polygon class="cls-6" points="121.4 79.83 120.87 87.02 134.35 96.17 140.41 93.24 121.4 79.83"/>
          </g>
          <g>
            <path class="cls-59" d="M129.66,69.33s-3.33,2.37-6.53,3.6c-3.09,1.2-6.06,1.25-6.22,1.6,0,0,.27,1.82,1.09,3.01,0,0,2.99.32,6.04-.59,2.61-.78,5.3-2.8,5.82-3.09,1.13-.64,1.06-4.61-.21-4.53Z"/>
            <path class="cls-86" d="M137.96,88.15s.26,2.05-1.7,3.8-6.8,1.4-7.98,1.72c-1.17.32-4.19,7.34-4.19,7.34l-4.09-4.23s2.34-3.28,3.12-4.71c.78-1.43,3.21-2.27,3.21-2.27,0,0-2.54-.46-4.66.81-2.12,1.27-3.04,3.57-3.04,3.57l-3.94-2.59s4.89-5.8,6.8-6.95,7.59-1.07,7.59-1.07l8.87,4.58Z"/>
            <path class="cls-58" d="M133.69,88.7c1.26.13,2.46.28,3.38-.05.39-.14.68-.43.9-.76.1-.15.22-.3.28-.48.61-2,1.29-4.91,1.77-9.68.29-.85-.03-2.4,0-2.63.17-1.33.33-2.74-1.89-4.02-.91-.46-1.85-.71-2.23-.9,0,0-.01,0-.01,0,.17.09.34.16.51.25-.68.93-2.49,1.68-4.03,1.49-.33-.04-.65-.12-.94-.25-.53-.23-.85-.64-.9-1.15,0-.03,0-.05,0-.08-.32,0-.59-.03-.77-.11-.23-.1-.62-.72-.96-1.51-.18.14-.38.27-.49.43-.32.29.8,7.84-1.66,14.55-.03.08.03.15.05.23.12.49.1,1.54.54,1.87.64.47,1.1,1.1,2.65,1.57,1.09.33,2.48,1.09,3.81,1.23Z"/>
            <path class="cls-59" d="M132.59,72.43s6.57.3,7.31-1.18c.74-1.48-.7-3.93-4.04-3.91-3.34.03-5.77,1.75-5.97,3s.28,2.09,2.71,2.09Z"/>
            <path class="cls-93" d="M128.58,69.64c.34.79.84,1.31,1.07,1.42.18.08.57.35.9.35.14,0,1.1-.05,1.26-.09,1.61-.38,2.71-.84,4.21-2.22.04-.04.08-.07.12-.11,0,0,0,0,0,0,.33-.32.62-.69.86-1.08-.33-.33,0-1.79-.87-2.93-.44-.58-1.88.66-1.57,1.34-.09.3.09.21-.21.33-.36-.89-.59-2.34-1.47-3.31-1.4.47-3.58.51-4.58-.11,0,.01-.02.02-.03.04-.2.35-.28.85-.25,1.75,0,.29.68,2.2.65,2.51,0,.05,0,.09,0,.14-.25.56-.36.54-.39,1.1-.02.29.11.47.3.9Z"/>
            <path class="cls-84" d="M137.62,67.33c2.61-2.29,1.23-7.11-1.72-8.51.39.43.61.9.6,1.22-.02.62-.88,1.82-3.73,3.4-.23.13-.05.01-.28.09.88.97,1.41,2.35,1.77,3.24.3-.11.23-.19.31-.49-.31-.68,1.09-1.43,1.54-.85.87,1.14.19,2.25.52,2.58.22.22.52-.29.99-.7Z"/>
            <path class="cls-83" d="M132.17,62.77c.23-.08.47-.14.7-.27,2.85-1.58,3.71-2.78,3.73-3.4,0-.32-.22-.79-.6-1.22-.92-1.02-2.85-1.74-5.36.44-.18.16-.35.26-.54.45-1.85,1.87-2.69,1.98-3.26,1.76.08.48.69,1.18,1.56,1.72,1,.62,2.36.98,3.76.51Z"/>
            <path class="cls-30" d="M138.72,62.54s-5.44,3.59-8.69,3.25c-3.25-.34-4.29-1.63-3.64-3.77.64-2.14,2.68-5.2,7-5.31,4.33-.1,7.03,2.49,5.33,5.83Z"/>
          </g>
          <path class="cls-22" d="M109.27,86.05c.12.26.37.42.64.44.13,0,.26-.01.39-.07l2.87-1.36c.64,1.08,1.46,2.03,2.4,2.67.68.46,1.36.72,2.01.77,1.69.12,2.87-1.14,3.03-3.21.2-2.76-1.43-6.13-3.72-7.69-.68-.46-1.36-.72-2.02-.77-1.69-.12-2.87,1.14-3.02,3.21-.09,1.16.16,2.43.64,3.63l-2.86,1.36c-.38.18-.55.64-.36,1.03ZM115.18,81.94c-.01.14,0,.29.03.44l-1.66.79c-.4-1.02-.6-2.09-.53-3.05.04-.58.19-1.05.41-1.41l1.8,3c-.02.07-.03.15-.04.23ZM118.45,81.11l-1.6.81c-.15-.22-.32-.41-.52-.54-.19-.13-.36-.18-.52-.18l-1.82-3.04c.24-.13.51-.2.81-.17.44.03.95.23,1.45.57.87.59,1.63,1.51,2.2,2.55ZM114.22,84.55l1.69-.8c.07.07.15.14.23.19.59.4,1.1.15,1.16-.56.02-.24-.02-.51-.11-.77l1.6-.81c.49,1.12.75,2.33.68,3.4-.1,1.41-.77,2.21-1.79,2.14-.44-.03-.94-.23-1.45-.57-.77-.52-1.46-1.31-2-2.22Z"/>
          <g>
            <path class="cls-74" d="M103,104.16c2.79-4.1,6.27-7.17,9.65-8.8l11.77-5.69-.86,11.72,22.37-10.82.86-11.72,6.76-3.27c1.64-.8,3.24-.9,4.39-.11,1.15.78,1.65,2.3,1.51,4.12l-.83,11.33-60.53,29.26.28-3.81c.27-3.74,1.84-8.11,4.63-12.22Z"/>
            <path class="cls-40" d="M80.13,99.16c1-3.35,2.71-6.18,2.71-6.18,4.63-7.73,10.38-10.37,10.38-10.37l1.45-.71,3.54-1.71,7.17-3.47,19.04,12.94-11.77,5.69c-1.8.87-4.04,2.61-4.04,2.61-3.02,2.37-5.53,6.07-5.53,6.07-2.07,3.03-3.12,5.8-3.12,5.8-1.45,3.56-1.56,6.19-1.56,6.19l-.31,4.15c-1.35-.83-3.73-2.41-6.37-4.19l.1-1.3-9.3-6.32-.09,1.25c-1.6-1.12-2.84-1.98-3.37-2.38l.3-4.08c.23-2.28.78-4,.78-4Z"/>
            <g>
              <path class="cls-9" d="M81.67,105.38c.82.56,1.55.21,1.62-.79.07-.99-.54-2.25-1.36-2.81-.82-.56-1.55-.21-1.63.79-.07.99.54,2.25,1.36,2.81Z"/>
              <path class="cls-91" d="M81.73,104.62c.72.49,1.36.28,1.56-.43.01.14.02.27,0,.4-.07.99-.8,1.35-1.62.79-.82-.56-1.43-1.82-1.36-2.81,0-.13.03-.25.06-.36.08.91.64,1.92,1.35,2.41Z"/>
            </g>
            <g>
              <path class="cls-9" d="M96.24,115.27c.82.56,1.55.21,1.62-.79.07-.99-.54-2.25-1.36-2.81-.83-.56-1.55-.21-1.63.79s.54,2.25,1.36,2.81Z"/>
              <path class="cls-91" d="M96.29,114.51c.72.49,1.36.28,1.56-.43.01.14.02.27,0,.4-.07.99-.8,1.35-1.62.79-.83-.56-1.44-1.82-1.36-2.81,0-.13.03-.25.06-.36.09.91.64,1.92,1.35,2.41Z"/>
            </g>
            <polygon class="cls-27" points="124.42 89.67 115.84 111.61 111.01 113.94 119.58 92.01 124.42 89.67"/>
            <polygon class="cls-51" points="124.42 89.67 105.37 76.73 100.55 79.06 104.52 88.45 119.58 92.01 124.42 89.67"/>
            <polygon class="cls-27" points="114.55 108.96 158.87 87.54 158.62 90.94 114.3 112.37 114.55 108.96"/>
          </g>
          <path class="cls-93" d="M121.52,79.43s-2.17-.57-2.92-.17-1.01.92-.96,1.46c.05.55.6.45.6.45,0,0-.28.07-.04.54.24.47.68.55.68.55,0,0-.65.27,0,.54.66.27,3.23-1.03,3.23-1.03l-.59-2.34Z"/>
          <path class="cls-93" d="M116.9,77.6s-.22-.47-.94-.43-.73.76-.94,1.15c-.21.39-.63,0-.63,0,0,0,.1.41-.35.43-.45.01-.62-.03-.62-.03,0,0-.52-1-.43-1.67s.39-1.6,1.54-1.87,1.89.05,1.89.05l.9-.02.85,2-1.27.4Z"/>
          <path class="cls-59" d="M136.73,72.6s-3.25,2.57-7.77,4.39c-3.2,1.29-7.47,1.77-7.85,1.82l.83,3.4s4.78-.58,8.61-1.67c3.19-.91,4.69-2.39,6.73-3.3,4.62-2.05,1.54-5.03-.56-4.64Z"/>
        </g>
        <path class="cls-81" d="M118.96,119.82c-1.14,5.09-5.68,9.2-9.67,7.91-4.44-1.44-6.6-3.93-5.45-9.02,1.14-5.09,5.45-8.96,9.63-8.65s6.63,4.68,5.49,9.76Z"/>
        <path class="cls-75" d="M117.24,120.66c-.81,2.99-3.17,5.44-5.26,5.45-2.09.02-3.13-2.4-2.32-5.39.81-2.99,3.17-5.44,5.26-5.45,2.09-.02,3.13,2.4,2.32,5.39Z"/>
        <path class="cls-81" d="M160.48,99.95c-1.14,5.09-5.68,9.2-9.67,7.91-4.44-1.44-6.6-3.93-5.45-9.02,1.14-5.09,5.45-8.96,9.63-8.65,4.18.31,6.63,4.68,5.49,9.76Z"/>
        <path class="cls-75" d="M158.76,100.79c-.81,2.99-3.17,5.44-5.26,5.45s-3.13-2.4-2.32-5.39c.81-2.99,3.17-5.44,5.26-5.45,2.09-.02,3.13,2.4,2.32,5.39Z"/>
      </g>
      <g>
        <path class="cls-6" d="M149.21,134.9l.24-3.3-6.15-1.84-7.08-4.78c-1.67-1.13-4.52-1.34-6.34-.47l-9.98,4.83-2.8-.84-.25,3.35h0s0,.08,0,.08h0c-.01.64.37,1.3,1.17,1.85l11.81,7.99c1.67,1.14,4.52,1.34,6.34.47,4.05-1.68,7.86-3.62,11.59-5.6.91-.44,1.39-1.07,1.44-1.73Z"/>
        <path class="cls-19" d="M130.13,121.21c1.82-.88,4.67-.67,6.34.47l11.81,8c1.67,1.13,1.55,2.78-.27,3.66-3.86,1.88-7.65,3.81-11.59,5.6-1.82.88-4.67.67-6.34-.47l-11.81-7.99c-1.67-1.13-1.55-2.78.27-3.66l11.59-5.6Z"/>
        <path class="cls-40" d="M122.85,127.92s8.7-21.28,10.37-23.86c1.67-2.59,5.13-2.82,6.68,2.95,1.55,5.78,4.68,20.04,5.26,22.3.57,2.26-3.63,5.89-11.04,6.08s-12.47-4.61-11.27-7.48Z"/>
      </g>
      <g>
        <path class="cls-93" d="M480.77,214.33s-.05.05-.08.05c-.18.04-.97.61-1.71.87.13.26.29.54.48.83.35-.31.77-.54,1.15-.6-.03-.23.08-.71.16-1.14Z"/>
        <path class="cls-71" d="M499.63,248.56c-.23-.41-.66-.7-1.06-.9.2.24-.61,1.9-1.39,1.9-.03,0-.1-.03-.16-.05-.23.42-.43.93-.53,1.56-.14.87-.24,1.89.03,2.33.02.03.03.05.05.07.03.03.06.06.09.08h0c.06.11.37.32.75.1.38-.23.89-.75,1.1-1.33.21-.57.22-.86.46-1.16.24-.3,1.29-1.32.96-2.33-.06-.18-.17-.25-.3-.28Z"/>
        <path class="cls-71" d="M491.76,256.48c-.07-.04-.18-.23-.3-.53-.42.17-.88.42-1.33.81-.67.58-1.4,1.29-1.48,1.8,0,.03,0,.06,0,.09,0,.04,0,.08.02.12h0c-.02.12.09.48.52.55.43.07,1.17,0,1.7-.31.53-.31.72-.51,1.1-.59.38-.08,1.84-.17,2.23-1.16.07-.18.03-.3-.05-.41.09-.46-.05-.96-.22-1.37h0s0,0,0,.01c.06.31-1.46,1.35-2.15.97Z"/>
        <path class="cls-38" d="M489.49,235.8c-1.49-.8-2.5-.81-2.9-2.13-.12-.4-.22-.82-.31-1.24.27,1.65,1.1,6.79,1.79,9.25.37-1.88,1.01-4.42,1.41-5.87h0Z"/>
        <path class="cls-38" d="M498.58,247.66h0c-1.13-1.31-3-3.3-4.42-4.6-.49-.45-1.01-.91-1.53-1.33-.1.16-.19.33-.29.49-.45.75-.5,1.67-.14,2.46.22.49.41,1.06.56,1.61,1.84,1.52,3.67,2.97,4.28,3.21.06.02.12.05.16.05.78,0,1.59-1.67,1.39-1.9Z"/>
        <path class="cls-33" d="M492.33,242.23c.09-.16.19-.33.29-.49,1.44-2.44,3.04-5.65,3.16-7.09.01-.15,0-.3,0-.45-.07.05-.13.1-.21.14-.2.1-.42.2-.66.28-.36.71-.69,1.25-.93,1.52l-.2,1.34h0c0,.33,0,.52,0,.52-.17,0-.32-.03-.47-.06l-.34.33-1.47-.43v-.62c-.8-.51-1.45-1.14-2-1.44-.4,1.45-1.04,3.99-1.41,5.87-.05.23-.09.46-.13.67-.1.59-.08,1.19.07,1.77.64,2.46,2.57,9.79,3.44,11.84.13.3.23.49.3.53.68.38,2.21-.66,2.15-.97,0,0,0,0,0,0-.33-1.71-.49-5.86-.83-7.76-.07-.41-.18-.92-.33-1.45-.15-.55-.34-1.11-.56-1.61-.36-.79-.32-1.72.14-2.46Z"/>
        <path class="cls-33" d="M489.49,235.8h0c.55.3,1.2.92,2,1.44v-.97l.62-.57c-.1-.16-.16-.33-.16-.51,0-.11.04-.33.12-.61-2.19-.79-4.18-1.73-5.27-2.35-.22-.12-.43-.24-.62-.38.03.19.07.38.11.58.09.42.19.85.31,1.24.4,1.33,1.41,1.34,2.9,2.13Z"/>
        <path class="cls-33" d="M493.78,238s0-.19,0-.51l-.46.45c.16.02.31.05.47.06Z"/>
        <path class="cls-88" d="M485.75,215.02c-1.01,1.17-1.72,3.05-1.77,5.14-.87-1.24-2.58-4.1-3.05-4.71-.1-.01-.21,0-.32.03-.38.07-.8.3-1.15.6-.08.07-.16.13-.23.21-.08.96,2.8,7.55,5.97,8.86-.06-1.77-.04-3.21-.06-4.13-.04-1.76.27-5.22.6-6Z"/>
        <path class="cls-93" d="M492.77,212.53s0,.05-.01.07c0-.02,0-.05.01-.07Z"/>
        <path class="cls-93" d="M492.85,212.13s-.01.06-.02.08c0-.03.01-.06.02-.08Z"/>
        <path class="cls-93" d="M489.15,213.83h0c-.35.32-1.53,2.05-.14,2.46,1.38.4,3.24-.41,3.72-1.39,0,0,0,0,0,0-.17-.54-.14-1.25-.04-1.92,0,0,0,.01,0,.02-.75.55-2.73.89-3.56.65,0-.07-.02-.15-.03-.23h0c.01.14.03.29.04.4,0,0,0,0,0,0h0Z"/>
        <path class="cls-32" d="M495.95,216.49s-.07-.06-.1-.09c.04.03.07.08.11.12,0-.01,0-.03,0-.03Z"/>
        <path class="cls-32" d="M494.91,234.62c.24-.09.46-.18.66-.28.08-.04.14-.09.21-.14.37-.26.64-.65.72-1.1.09-.5.12-1.45.12-2.66-.49,1.49-1.14,3.05-1.71,4.19Z"/>
        <path class="cls-32" d="M486.79,232.23c1.09.62,3.08,1.56,5.27,2.35.46-1.78,2.2-6.44,2.2-7.51,0-1.25-1.41-5.47-1.47-8.13-.06-2.66,1.38-2.76,2.12-2.86.32-.04.6.06.85.25-.5-.37-1.76-.92-2.57-1.25-.52.9-2.05,1.76-3.44,1.76-.3,0-.59-.04-.87-.12-.5-.15-.83-.48-.94-.93-.16-.69.26-1.55.62-2.07.18.03.37.06.57.11-.89-.25-1.58-.24-1.96-.06-.55.27-1.13.67-1.36,1.12-.02.03-.05.07-.07.13-.33.79-.64,4.24-.6,6,.02.92,0,2.35.06,4.13.05,1.73.18,3.77.47,5.98.04.33.24.54.49.72.19.14.4.25.62.38Z"/>
        <path class="cls-32" d="M489.15,213.83h0c-.35.32-1.53,2.05-.14,2.46-1.38-.4-.21-2.14.14-2.46Z"/>
        <path class="cls-88" d="M487.95,215.79c.1.46.44.79.94.93.28.08.57.12.87.12,1.39,0,2.92-.86,3.44-1.76,0,0,0-.01.01-.02-.16-.06-.32-.1-.48-.16,0,0,0,0,0,0-.47.98-2.33,1.8-3.72,1.39-1.38-.4-.21-2.14.14-2.46h0s0,0,0,0c0,0,0,0,0,0-.2-.04-.39-.08-.57-.11-.36.52-.78,1.38-.62,2.07Z"/>
        <path class="cls-3" d="M492.85,212.13c.02-.08.04-.16.06-.23,0,0,0,0,0,0-.02.07-.04.15-.05.23Z"/>
        <path class="cls-3" d="M492.75,212.6c-.02.12-.04.25-.06.38.02-.13.04-.25.06-.38Z"/>
        <path class="cls-3" d="M492.83,212.22c-.02.1-.04.2-.06.31.02-.11.04-.21.06-.31Z"/>
        <path class="cls-93" d="M489.1,213.42c0,.07.02.16.03.23.83.23,2.81-.11,3.56-.65,0,0,0-.01,0-.02.02-.13.04-.25.06-.38,0-.02,0-.05.01-.07.02-.11.04-.21.06-.31,0-.03.01-.06.02-.08.02-.08.04-.16.05-.23-1.06.95-2.58,1.4-3.8,1.52Z"/>
        <path class="cls-3" d="M489.1,213.42c0,.07.02.16.03.23.83.23,2.81-.11,3.56-.65,0,0,0-.01,0-.02.02-.13.04-.25.06-.38,0-.02,0-.05.01-.07.02-.11.04-.21.06-.31,0-.03.01-.06.02-.08.02-.08.04-.16.05-.23-1.06.95-2.58,1.4-3.8,1.52Z"/>
        <path class="cls-93" d="M493.76,236.32c-.62.22-1.34-.1-1.65-.62l-.62.57v1.58l1.47.43.34-.33.46-.45h0s.2-1.35.2-1.35c-.08.09-.16.15-.22.17Z"/>
        <path class="cls-88" d="M492.79,218.93c.06,2.66,1.47,6.88,1.47,8.13,0,1.08-1.74,5.74-2.2,7.51-.07.29-.12.51-.12.61,0,.18.07.35.16.51.31.51,1.02.83,1.65.62.06-.02.14-.09.22-.17.25-.26.58-.8.93-1.52.57-1.14,1.21-2.7,1.71-4.19.4-1.21.71-2.38.8-3.22.24-2.3.18-8.93-1.46-10.7-.04-.04-.07-.09-.11-.12-.03-.02-.05-.05-.08-.07-.25-.2-.53-.29-.85-.25-.74.1-2.19.2-2.12,2.86Z"/>
        <path class="cls-93" d="M492.9,211.91h0c.12-.11.24-.22.35-.34-.22-.27-.36-1.11-.9-2.14-.27-.51-.95-.01-.8.55-.11.22-.32.47-.56.51-.16-.73-.48-1.97-1.03-2.83-1.14.18-2.15-.27-2.84-.88,0,.01-.02.02-.02.03-.2.25-.32.62-.42,1.32-.03.22.15.65.08.88,0,.03-.01.07-.02.1-.7,1.06.07,3.83.47,4.1.3.2,1.02.28,1.89.2h0c1.22-.12,2.74-.57,3.8-1.52Z"/>
        <path class="cls-84" d="M493.85,205.41c-.1.48-.92,1.29-3.32,2.14-.19.07-.38.09-.57.12.55.86.87,2.09,1.03,2.83.25-.05.46-.29.56-.51-.15-.56.53-1.06.8-.55.54,1.03.68,1.87.9,2.14.14.16.3.12.61-.22,1.08-1.18,1.8-5.55-.33-6.99.26.39.37.8.32,1.05Z"/>
        <path class="cls-83" d="M489.97,207.67c.19-.03.38-.05.57-.12,2.4-.85,3.22-1.66,3.32-2.14.05-.25-.06-.66-.32-1.05-.63-.96-2.17-1.82-4.65-.04-1.67,1.2-2.33,1.17-2.74.94,0,.38.38,1,.98,1.53.69.61,1.7,1.07,2.84.88Z"/>
        <path class="cls-93" d="M452.38,208.34c.23.88.25,1.76.72,1.89.47.13.31-1.74.42-2.18.08-.33.23-1.06.44-1.33l-1.22-.67c-.32.82-.51,1.7-.35,2.29Z"/>
        <path class="cls-93" d="M453.25,204.96c-.19.33-.37.7-.53,1.09l1.22.67c.07-.09.16-.13.25-.08.03.02.04.06.06.1.05.08.07.19.07.33,0,.42-.11,1.01.23,1.2.26.14.5-.62.79-1.52.01-.04.02-.07.03-.1.19-.61.41-1.26.66-1.73-.47-.44-.98-1.27-1.16-2.03-.67.71-1.3,1.52-1.63,2.08Z"/>
        <path class="cls-38" d="M460.83,190.2c-.06-3,.37-9.18.93-9.84h0c.16-.32.47-.6.83-.86-.45.13-1.66.71-2.22,3.12-.69,2.99-.39,8.15-.39,9.56,0,1.41-4.88,8.7-5.15,9.87-.05.24-.02.53.05.82.18.76.69,1.59,1.16,2.03.26.24.51.37.68.28.39-.22,2.77-2.07,4.58-4.21-.44-4.88-.43-8.52-.47-10.78Z"/>
        <path class="cls-93" d="M467.17,178.46s0,0,0,0c0,0,0,0,0,0,0,.1.02.2.03.29,0,0,0,0,0,0l-.03-.28Z"/>
        <path class="cls-93" d="M472.95,176.68s-.02.08-.02.11c0-.04.02-.08.02-.11Z"/>
        <path class="cls-93" d="M472.91,180.54s0,0,.01,0c0-.01,0-.02-.01-.03v.03s0,0,0,0Z"/>
        <path class="cls-93" d="M473.08,176.06s-.02.08-.03.13c0-.04.02-.08.03-.13Z"/>
        <path class="cls-83" d="M466.61,246l-.38.13-.45.16c-.96.34-1.94-.19-2.27-1.08-.67.26-1.22.53-1.5.8-1.28,1.25-2.85,2.65-2.6,3.57h-.02c-.03.22.15.86.92.98.77.12,2.07,0,3-.55.93-.54,1.27-.91,1.95-1.05.67-.14,3.25-.31,3.95-2.05.12-.29.06-.5-.06-.67.16-.78-.1-1.62-.39-2.34-.38.96-1.15,1.74-2.16,2.09Z"/>
        <path class="cls-83" d="M474.83,249.89l-.38.13-.45.16c-1.02.36-2.08-.26-2.32-1.26-.59.24-1.07.49-1.32.73-1.28,1.25-2.85,2.65-2.6,3.57h-.02c-.03.22.15.86.92.98.77.12,2.07,0,3-.55.93-.54,1.27-.91,1.95-1.05.67-.14,3.25-.31,3.95-2.05.12-.29.06-.5-.06-.67.17-.79-.11-1.65-.4-2.38-.32,1.09-1.15,1.99-2.26,2.38Z"/>
        <path class="cls-71" d="M462.35,211.41l1.04,33.25c0,.2.05.38.12.56.32.89,1.31,1.42,2.27,1.08l.45-.16.38-.13c1.01-.36,1.78-1.14,2.16-2.09.16-.42.26-.86.26-1.33,0,0,.51-17.21.51-17.57,0-1.8.1-4.73.24-7.83-1.57-.44-2.87-1.02-3.87-1.56-2.14-1.15-3.21-2.44-3.56-4.2Z"/>
        <path class="cls-68" d="M476.94,213.83c-.8-.92.7-2.28,1.34-2.81,0-.43.01-.83.02-1.19-.21.22-.46.41-.79.57-1.25.63-3.1,1.25-4.82.65-3.79-1.31-7.28-2.96-9.15-4.02-.51-.29-1.01-.56-1.36-.94-.03,1.2,0,2.58.02,4.03,0,.46.06.88.14,1.28.35,1.76,1.42,3.06,3.56,4.2,1,.53,2.3,1.12,3.87,1.56.19.05.37.11.56.16l1.26,31.21c0,.13.03.26.06.38.24,1,1.31,1.62,2.32,1.26l.45-.16.38-.13c1.11-.39,1.94-1.29,2.26-2.38.1-.33.16-.68.15-1.04,0,0,.76-18.53.77-18.99.03-2.53.12-7.68.2-12.12-.47-.15-1.06-1.29-1.27-1.53Z"/>
        <path class="cls-42" d="M463.55,207.04c1.87,1.05,5.36,2.71,9.15,4.02,1.72.59,3.56-.03,4.82-.65.33-.16.58-.35.79-.57.07-.07.14-.15.19-.24.01-.3.23-1.06.55-2.06.48-3.3.82-7.97.88-11.12-.34-.48-.65-.91-.85-1.17-.87-1.18-3.43-5.16-4.56-7.2-1.66-2.99.62-4.61,1.41-5.16.4-.28.91-.31,1.47-.15-.45-.41-1.01-.81-1.37-.96-.9-.37-1.98-.8-3.12-1.23,0,0,0,0-.01,0l-2.35,5.04-7.81-.76,1.35-4.84,3.09-1.23s0,0,0,0c-1.38-.3-2.51-.39-3.12-.09-.49.24-1.02.52-1.47.85-.36.26-.67.54-.83.86h0c-.56.66-1,6.84-.93,9.84.05,2.26.03,5.9.47,10.78.12,1.35.27,2.77.48,4.31.04.34.21.59.41.81.35.38.85.66,1.36.94Z"/>
        <path class="cls-3" d="M467.14,178.21h0s0-.02,0-.02h0c0,.09.02.19.03.27,0-.08-.02-.16-.02-.24h0Z"/>
        <path class="cls-3" d="M473.05,176.19c-.04.16-.07.32-.1.49.03-.17.07-.33.1-.49Z"/>
        <path class="cls-3" d="M472.89,177.03c.01-.08.02-.15.04-.23-.01.07-.03.14-.04.22h0Z"/>
        <path class="cls-3" d="M473.08,176.06c.03-.12.06-.24.08-.35,0,0,0,0,0,0-.03.11-.05.23-.08.35Z"/>
        <path class="cls-93" d="M467.14,178.19s0,.02,0,.02c0,0,3.16.82,5.75-1.2h0c.01-.07.03-.14.04-.21,0-.04.02-.08.02-.11.03-.17.07-.33.1-.49,0-.04.02-.08.03-.13.03-.12.05-.24.08-.35-1.6,1.65-4.13,2.36-6.03,2.47Z"/>
        <path class="cls-3" d="M467.14,178.19s0,.02,0,.02c0,0,3.16.82,5.75-1.2h0c.01-.07.03-.14.04-.21,0-.04.02-.08.02-.11.03-.17.07-.33.1-.49,0-.04.02-.08.03-.13.03-.12.05-.24.08-.35-1.6,1.65-4.13,2.36-6.03,2.47Z"/>
        <path class="cls-93" d="M467.17,178.46l-.03-.25c0,.09.02.16.02.24,0,0,0,0,0,0,0,0,0,0,0,0Z"/>
        <path class="cls-3" d="M467.17,178.46l-.03-.25c0,.09.02.16.02.24,0,0,0,0,0,0,0,0,0,0,0,0Z"/>
        <path class="cls-93" d="M473.16,175.71s0,0,0,0c.33-.34.61-.72.85-1.14-1.45.83-1.82-5.15-3.97-1.43-.24-1.06-.42-2.15-1.15-3.08-1.7.36-3.2-.34-4.23-1.23,0,0-.01.02-.02.03-.28.35-.46.88-.59,1.86-.04.31.21.91.12,1.24-.01.05-.02.1-.03.15-.99,1.5.09,5.41.67,5.79.38.25,1.26.37,2.33.31h0c1.9-.11,4.43-.83,6.03-2.47Z"/>
        <path class="cls-84" d="M474.17,166.87c-.13.67-1.29,1.82-4.68,3.02-.2.07-.4.13-.6.17.72.94.91,2.02,1.15,3.08,2.15-3.72,2.53,2.27,3.97,1.43.09-.05.18-.12.28-.23,1.53-1.67,2.46-7.14-.59-9,.39.57.55,1.17.48,1.53Z"/>
        <path class="cls-83" d="M468.89,170.05c.2-.04.4-.1.6-.17,3.39-1.2,4.55-2.34,4.68-3.02.07-.36-.09-.96-.48-1.53-.91-1.34-3.08-2.5-6.54-.01-2.36,1.69-3.29,1.66-3.86,1.32,0,.54.52,1.43,1.37,2.17,1.02.9,2.53,1.59,4.23,1.23Z"/>
        <path class="cls-42" d="M472.89,177.01c-2.59,2.03-5.75,1.2-5.75,1.2h0,0s.03.25.03.25l.03.28-3.09,1.23-1.35,4.84,7.81.76,2.35-5.04h0s0-.03,0-.03l-.02-3.49h0v-.02Z"/>
        <path class="cls-93" d="M480.77,214.33c.34-.25.68-1.5-.29-2.56,0,0,.14-.23.36-.59-.59-.27-1.59-.75-2.07-1.16-.08.28-.15.55-.2.78,0,0-.11.08-.28.21-.65.52-2.15,1.89-1.34,2.81.2.23.8,1.37,1.27,1.53.03.01.06.03.09.03.21,0,.44-.05.68-.13.74-.26,1.54-.83,1.71-.87.03,0,.05-.03.08-.05Z"/>
        <path class="cls-38" d="M475.94,182.87c-.79.56-3.08,2.17-1.41,5.16,1.14,2.04,3.69,6.02,4.56,7.2.2.27.51.7.85,1.17.92,1.29,2.09,2.95,2.09,2.95,0,0-1.97,5.12-2.97,8.17-.33,1-.54,1.76-.55,2.06,0,.05,0,.1,0,.13.04.09.14.2.26.31.48.41,1.48.89,2.07,1.16.27.12.46.2.46.2,0,0,5.08-8.53,5.49-11.55.41-3.02-1.35-6.46-2.17-8.49-1.52-3.77-4.87-7.93-7.21-8.62-.56-.17-1.06-.14-1.47.15Z"/>
      </g>
      <g>
        <polygon class="cls-18" points="248.72 70.57 246.51 68.12 247.85 66.6 251.46 69.28 248.72 70.57"/>
        <path class="cls-7" d="M244.46,66.83l.05-.1c-.63-.49-1.84-.98-1.85-1.9.14-.35,1.24.39,1.66.65.17.09.34.18.5.26h0c-.55-.61-1.65-1.3-1.62-1.93.12-.29.66-.03,1.25.38-.48-.69.42-.59.9-.3.54.33.7.55,1.19.83h0c.46.35,1.5,1.04,1.57,1.03,0-.08.11-.19.08-.41-.03-.21.39-1.43.78-1.4.86.06.45.49.34.95-.12.64.49,2.23.03,2.86-.95.2-.88,1.17-1.68,1.71-.05-.03-.62.11-1.39-.26-.08-.06-.4-.32-.47-.38-.3-.24-.56-.51-.87-.74-.13-.07-.33-.18-.55-.31-.67-.41-1.52-1.03-1.31-1.37.13-.23.84.14,1.39.41Z"/>
        <path class="cls-87" d="M249.35,69.98c-.29.41-.61.87-.67,1.22-.15-.2-.48-.52-.65-.69-.09-.09-.19-.17-.28-.25.01-.03.02-.07.03-.11.28-.82,1.25-1.89,2.05-2.24.07-.04.14-.06.21-.09l.07.06c.24.14.48.37.65.63l.02.04c-.62.19-.99.83-1.43,1.43Z"/>
        <path class="cls-36" d="M262.21,58.54c-1.13.35-1.85.65-2.78,1.58-.93.94-2.49,8.73-3.12,10.08l-.62,1.35s-1.77-1.35-3.01-2.29c-1.25-.94-2.08-.94-2.39-.52-.31.42-2.29,1.87-1.56,2.7.73.83,6.75,5.61,6.75,5.61,0,0,2.7,1.14,3.95-1.77,1.25-2.91,2.49-7.69,3.64-10.39,1.14-2.7.62-5.61.62-5.61,0,0-.38-1.09-1.48-.75Z"/>
        <g>
          <path class="cls-28" d="M270.54,50.85l.18,5.1s4.53,5.55-3.63,6.18c-1.17.09-4.07-1.24-4.27-2.49-.1-.62,2.26-1.71,2.3-2.42.1-2.27.66-3.81.66-3.81l-.16-2.22,4.93-.35Z"/>
          <g>
            <path class="cls-90" d="M266.2,46.72c3.23-.18,5.42,1.84,5.74,4.36.32,2.51-3.38,5.59-5.57,5.75-2.19.15-3.26-1.74-3.37-4.36-.1-2.62-.03-5.57,3.2-5.75Z"/>
            <path class="cls-16" d="M262.63,47.02c-.84,1.02-.96,2.46,1.74,3.1,2.7.64,4.77-.16,5.28-.41.5-.25.34,1.67.34,2.32,0,.65.65,1.17.86.46.21-.71,1.17-1.96,1.13-1.21-.04.7-.37,1.59-.37,1.59,0,0,.72.34,1.25-1.39.53-1.73.51-5.25-1.23-6.43-2.86-1.95-6.95-.5-9,1.97Z"/>
          </g>
        </g>
        <path class="cls-46" d="M263.56,119.38c-.49.52-1.56.41-2.15.37-.69-.04-1.51-.07-2.17-.4,0,0,0,.01,0,.02-.09.11-.05.08-.17.14-.02,0-.03,0-.04-.01-.83.58-1.75.92-2.64,1.35-.45.21-.91.44-1.3.76-.33.27-.8.67-.82,1.18-.02.79.86,1.19,1.43,1.35.73.2,1.49.2,2.19-.11.77-.34,1.41-.94,2.17-1.32.65-.33,1.3-.36,1.98-.51.59-.13,1.28-.31,1.73-.79.6-.65.26-1.44-.2-2.06,0,.01,0,.03-.02.04Z"/>
        <path class="cls-46" d="M278.11,112.14c-.46.57-1,.95-1.66,1.12.1,1.27-.08,2.78.94,3.72.98.9,2.34.34,2.98-.69,1.24-2.01-.04-4.48-.63-6.5-.03-.02-.06-.04-.08-.06,0,.01,0,.02,0,.03-.31.88-.96,1.65-1.54,2.37Z"/>
        <path class="cls-89" d="M280.3,106.77c-.92-1.78-2.16-3.35-3.14-5.09-.43-.76-.84-1.59-.98-2.46-.18-1.1,0-2.23.23-3.31.28-1.27-.69-10.71-.68-10.72h0s0-.03,0-.03c.22-1.42.06-2.85-.61-4.13,0,0-.01,0-.02,0-.07-.09-.12-.18-.17-.27-.34.24-.74.38-1.18.45-.54.09-1.09.11-1.63.2-.64.1-1.28.24-1.93.31-2.9.34-5.87.08-8.63-.91-.62-.22-1.35-.52-1.69-1.13-.01.02-.03.05-.05.07,0,0,0,0,0,0-.16.85-.69,1.51-1.08,2.26-.49.93-.52,1.97-.58,3-.13,2.12-.41,4.22-.48,6.35-.19,6.22.94,12.39.94,18.61,0,3.07.05,3.82-.08,6.88-.05,1.11-.21,2.78,1.1,3.22,1.18.39,2.66.49,3.88.3.37-.06.88-.12,1-.55.13-.45.09-.96.07-1.42-.04-1.34,0-2.69.17-4.02.19-1.43.44-2.82.49-4.26.05-1.47.04-.61-.02-2.08-.06-1.46-.15-2.93-.11-4.39.04-1.51.22-3.01.44-4.51.19-1.25.3-2.47.37-3.73.05-.91.57-4.17.6-4.15.66.42.99,2.57,1.2,3.29.32,1.08.64,2.11,1.1,3.14.24.54.52,1.08.66,1.66.15.6.22,1.21.37,1.8.31,1.2,1.03,2.27,1.66,3.32,1.36,2.27,2.4,4.72,3.44,7.15.32.74.65,1.79,1.61,1.83.31.01,2.14-.64,2.57-1.19.57-.73,2.71-2.53,1.17-5.49Z"/>
        <path class="cls-87" d="M276.28,58.38c-1.3-.17-3.69-1.33-3.74-1.37-1.73-1.27-3.28,1.55-4.07,2.74-.36.54-.87,1.52-1.56,1.71-.64.17-2.13-.12-2.4-.61-.39-.71-.07-2.06.16-2.91-.38-.51-2.39.51-3,.77-1.17.49-2.1,9.5-1.91,10.19.38,1.34.21,2.76.14,4.13-.08,1.52.06,3.06-.12,4.57-.11.93-.21,1.97.67,2.57.96.65,2.27.94,3.39,1.18,1.54.33,3.12.47,4.69.4,1.43-.06,2.81-.38,4.22-.53,1.27-.13,2.41-.3,2.91-1.63.27-.7.54-1.45.55-2.22,0-.52-.11-1.03-.06-1.55.07-.66.99-.82,1.5-.92.87-.16,2.28-1.92,2.25-2.49-.08-1.43-.5-13.65-3.61-14.04Z"/>
        <g>
          <path class="cls-80" d="M265.06,62.99c-.59.73-1.29,12.42-1.37,13.82-.08,1.4,1.01,2.73,1.01,2.73,0,0,1.25-1.09,1.09-3.27-.16-2.18.8-12.41.44-13.12-.36-.71-.58-.89-1.17-.16Z"/>
          <path class="cls-80" d="M266.84,61.98s-.09.56-.47.89c-.38.33-1.07.15-1.26-.07-.45-.54-.21-1.2-.21-1.2l.52-.38.31.09c.14.02.52.09.66.07l.2.22.26.38Z"/>
          <path class="cls-14" d="M270.28,57.3l-1.98,6.27-1.96-2.18c1.96-1.03,2.84-3.21,3.93-4.1Z"/>
          <path class="cls-14" d="M265.46,61.23l-.05.09-2.07,1.31s.15-3.95,1.44-4.92l-.12,1.08c-.14,1.46.44,2.16.79,2.44Z"/>
        </g>
        <g>
          <path class="cls-35" d="M275.55,79.96c-.01-.15-.03-.3-.05-.44-.57.97-1.59,1.12-2.72,1.24-1.42.15-2.79.46-4.22.52-1.57.07-3.15-.08-4.69-.4-1.12-.24-2.42-.53-3.39-1.18-.48-.32-.67-.77-.72-1.27-.07.79-.01,1.59.72,2.09.96.65,2.27.94,3.39,1.18,1.54.33,3.12.47,4.69.4,1.43-.06,2.81-.38,4.22-.52,1.17-.12,2.23-.28,2.79-1.36,0-.08,0-.17-.01-.26Z"/>
          <path class="cls-69" d="M263.98,80.93c0-.16.13-.28.28-.28l2,.03c.15,0,.26.13.26.29l-.05,1.23c0,.16-.13.27-.28.26l-1.99-.21c-.15-.02-.26-.16-.26-.31l.04-1Z"/>
        </g>
        <polygon class="cls-18" points="277.48 82.49 276.27 85.62 274.14 84.85 275.27 80.55 277.48 82.49"/>
        <path class="cls-7" d="M272.19,87.36c.2.27,1.01-.02,1.4-.22.05-.05.19-.18.24-.24.05.04.2,1.12.23,1.64.02.12.03.21.04.3.03.32.01.56.07,1,.07.48.5,1.16.69.43.05.65.18,1.16.44,1.07.43-.35.28-1.5.37-2.23.04.16.08.33.11.49.07.44.18,1.63.49,1.51.59-.56.25-1.67.22-2.37l.08-.03c.14.54.28,1.23.51,1.19.37-.07.26-1.21.14-1.9-.03-.14-.05-.25-.07-.35,0,0,0-.01,0-.02-.02-.39.02-.76,0-1.15-.01-.23-.06-.47-.15-.72v-.13s-.02,0-.02,0c-.01-.25-.54-1.17-.57-1.34,0,0-.48.05-1.12-.11-.43-.11-.64,0-.89-.16.11.35-.27.87-.39,1.08,0,0,0,0,0,0-.51.41-.99,1.24-1.35,1.46-.36.21-.87.18-.44.8Z"/>
        <path class="cls-87" d="M276.4,83.01c.53.09.94.3,1.3.2-.11.23-.2.47-.27.72-.04.13-.07.25-.09.37-.04,0-.07,0-.12.02-.9.11-2.38-.32-3.12-.91-.07-.05-.13-.11-.19-.16l.02-.09c.01-.29.11-.61.26-.89l.11-.24c.48.49,1.31.85,2.09.99Z"/>
        <path class="cls-36" d="M277.76,59.6c1.04,2.29,3.74,12.36,3.32,13.61-.42,1.25-2.49,9.77-3.12,10.08-.62.31-3.12-.41-3.74-1.25-.62-.83.21-4.05.42-5.71.21-1.66.93-3.1,1.03-4.26.05-.6-1.34-4.16-1.75-5.71-.42-1.56-1.25-2.39-.93-3.53.31-1.14,3.74-5.51,4.78-3.22Z"/>
      </g>
      <g>
        <path class="cls-46" d="M409.91,192.64c-.47.58-1.03.98-1.71,1.15.11,1.31-.08,2.86.97,3.82,1.01.92,2.41.35,3.06-.71,1.27-2.06-.04-4.6-.65-6.68-.04-.03-.06-.05-.08-.06,0,.01,0,.02,0,.03-.32.91-.99,1.7-1.58,2.44Z"/>
        <path class="cls-5" d="M391.99,147.71l-3.02-.58-1.4,5.64.4,6.72h.01c-.03.15-.05.23-.05.23,0,0-.78.94-.94,1.63-.16.69-.97,3.5-.24,3.85.73.35,2.12.29,2.12.29l.9-2.53s.15.88.38.99c.23.11.78-.94.68-1.6-.1-.65-.38-2.5-.38-2.5l.49-1.82-.17-5.04,1.24-5.29Z"/>
        <path class="cls-12" d="M411.52,187.13c-.95-1.83-2.22-3.44-3.22-5.23-.44-.78-.86-1.63-1-2.53-.18-1.13,0-2.29.24-3.4.29-1.31-.71-11.01-.7-11.01h0s0-.03,0-.03c.22-1.46.06-2.93-.63-4.25,0,0-.01,0-.02,0-.07-.09-.12-.18-.17-.27-.35.24-.77.39-1.21.46-.56.09-1.12.12-1.68.21-.66.11-1.32.24-1.99.32-2.98.35-6.03.08-8.86-.94-.64-.23-1.39-.53-1.74-1.16-.01.02-.03.05-.05.07,0,0,0,0,0,0-.16.87-.71,1.55-1.11,2.32-.5.96-.53,2.02-.6,3.08-.13,2.18-.42,4.34-.49,6.52-.2,6.39.96,12.73.96,19.11,0,3.15.05,3.93-.08,7.07-.05,1.14-.22,2.86,1.12,3.31,1.21.4,2.73.5,3.99.3.38-.06.9-.12,1.03-.56.14-.46.09-.98.08-1.46-.04-1.38,0-2.76.18-4.13.19-1.46.46-2.9.51-4.38.05-1.51.04-.62-.02-2.13-.06-1.5-.15-3.01-.11-4.51.04-1.55.22-3.09.45-4.63.19-1.29.31-2.53.38-3.83.05-.94.08-2,.58-2.83.01-.02.04-.03.07-.02.67.43.98,1.22,1.2,1.96.33,1.11.66,2.17,1.13,3.23.25.55.54,1.11.68,1.7.15.61.22,1.24.38,1.85.32,1.23,1.05,2.33,1.7,3.41,1.4,2.33,2.46,4.85,3.53,7.35.33.76.67,1.84,1.65,1.88.32.01,2.19-.65,2.64-1.22.58-.75,2.78-2.6,1.2-5.64Z"/>
        <path class="cls-5" d="M413.08,150.21l-.83,9.72-4.81,5.18s-.57,3.35-.8,3.36c-1.81-3.03-.94-5.24-.94-5.24l3.53-5.3.04-7.74,3.81.02Z"/>
        <g>
          <path class="cls-28" d="M401.56,129.4l.19,5.48s4.86,5.96-3.91,6.65c-1.26.1-4.37-1.33-4.59-2.67-.11-.66,2.43-1.84,2.47-2.6.1-2.44.71-4.09.71-4.09l-.17-2.39,5.3-.37Z"/>
          <g>
            <path class="cls-90" d="M396.89,124.97c3.47-.2,5.82,1.98,6.17,4.68.34,2.7-3.63,6.01-5.98,6.18-2.35.17-3.51-1.86-3.62-4.68-.11-2.82-.04-5.98,3.43-6.18Z"/>
            <path class="cls-56" d="M393.05,125.28c-.9,1.09-1.03,2.64,1.87,3.33,2.9.68,5.13-.17,5.67-.45.54-.27.36,1.8.36,2.5,0,.7.7,1.26.92.5.23-.76,1.26-2.1,1.22-1.3-.04.75-.39,1.71-.39,1.71,0,0,.77.37,1.34-1.5.57-1.86.55-5.64-1.32-6.91-3.08-2.1-7.47-.54-9.67,2.12Z"/>
          </g>
        </g>
        <path class="cls-80" d="M413.14,147.91c-.5-1.35-1.08-2.67-1.54-4.03-.45-1.34-.93-2.59-1.8-3.73-.46-.61-.98-1.15-1.48-1.72-.37-.42-.75-.83-1.23-1.11-1.16-.69-2.54-1.04-3.78-1.56.09.05.19.1.29.17.05.04,0,.12-.05.09-1.78-1.31-3.37,1.59-4.18,2.82-.37.56-.9,1.57-1.6,1.76-.65.18-1.11-.42-1.39-.93-.4-.73-.61-1.59-1.11-2.27-.39-.52-.81-.36-1.39-.3-.67.07-1.4.1-2.03.36-1.21.5-1.92,1.62-2.28,2.84-.4,1.38-.73,2.83-.99,4.25-.12.62-.25,1.29-.25,1.92,0,.27.01.56.18.79.07.1.28.06.39.1.61.18,1.32.17,1.52.87.39,1.38.22,2.84.15,4.25-.08,1.56.06,3.14-.12,4.7-.11.96-.22,2.02.69,2.64.99.67,2.33.97,3.48,1.21,1.58.34,3.2.48,4.82.41,1.47-.06,2.88-.39,4.33-.54,1.3-.14,2.47-.31,2.99-1.68.27-.72.55-1.49.56-2.28,0-.53-.12-1.06-.06-1.6.07-.68,1.01-.84,1.54-.94.9-.17,1.82-.21,2.71-.41.09-.02.19-.04.28-.06.02-.02.03-.02.05-.01.58-.12,1.17-.21,1.69-.51.52-.3.65-.64.61-1.22-.08-1.47-.49-2.9-1-4.27Z"/>
        <path class="cls-11" d="M406.64,159.75c0-.15-.03-.3-.05-.45-.58.99-1.64,1.15-2.79,1.27-1.45.15-2.87.47-4.33.54-1.62.07-3.23-.08-4.82-.41-1.15-.24-2.49-.54-3.48-1.21-.49-.33-.68-.79-.74-1.3-.07.81-.01,1.63.74,2.14.99.67,2.33.97,3.48,1.21,1.58.34,3.2.48,4.82.41,1.47-.06,2.88-.39,4.33-.54,1.2-.13,2.3-.29,2.86-1.39,0-.09,0-.18-.01-.26Z"/>
        <path class="cls-46" d="M395.21,200.65c-.58.55-1.82.43-2.53.39-.81-.04-1.77-.07-2.55-.42,0,0,0,0,0,.02-.1.12-.06.09-.2.15-.02,0-.03,0-.04-.01-.97.61-2.05.97-3.09,1.42-.52.23-1.06.46-1.52.8-.39.28-.94.71-.96,1.24-.03.84,1.01,1.25,1.68,1.42.85.21,1.75.21,2.57-.11.9-.36,1.66-.99,2.54-1.4.76-.35,1.52-.38,2.32-.54.69-.13,1.5-.33,2.03-.83.7-.68.3-1.52-.23-2.17-.01.01-.01.03-.02.04Z"/>
        <path class="cls-11" d="M394.75,160.75c0-.16.13-.29.29-.29l2.06.03c.15,0,.27.13.26.3l-.05,1.27c0,.16-.13.28-.28.26l-2.05-.22c-.15-.02-.27-.16-.26-.32l.04-1.02Z"/>
      </g>
      <g>
        <g>
          <path class="cls-34" d="M458.87,245.31s4.06,4.65,4.47,5.29c.41.63-2.14,9.99-2.14,9.99l-1.92-.12s-.24-2.19.04-5.46c.27-3.26.39-3.26.39-3.26l-4.08-4.55,3.23-1.89Z"/>
          <path class="cls-34" d="M443.32,252.69s-3.76,4.91-4.3,5.43c-.54.53-11.66-.19-11.66-.19l.24-1.97s3.04-.53,6.29-.91c3.25-.38,3.28-.26,3.28-.26l3.65-4.9,2.49,2.8Z"/>
          <path class="cls-29" d="M449.92,242.2s1.12,1.93,2.53,3.12c1.4,1.19,3.93,3.16,3.93,3.16,0,0,2.29-.7,3.21-2.89,0,0-3.3-4.56-5.65-5.62-2.35-1.05-3.82.5-4.01,2.22Z"/>
          <path class="cls-15" d="M438.56,288.8s-.13,1.52-.34,1.82c-.2.29-.56.37-1.67.12-1.1-.25-4.45-2.19-4.97-2.6-.52-.41-.45-1.23-.42-1.62.03-.39,1.47-.65,2.18-.4,1.06.37,3.38.74,3.99,1.17.61.43,1.23,1.52,1.23,1.52Z"/>
          <path class="cls-15" d="M468.41,287.49s1.43.54,1.61.85c.18.31.35.77-.36,1.66-.71.88-4.3,3.19-4.9,3.48s-1.3-.13-1.64-.33c-.34-.2.06-1.6.59-2.13.8-.79,2.15-2.72,2.8-3.08.66-.36,1.9-.44,1.9-.44Z"/>
          <path class="cls-34" d="M445.16,266.29s-7.38,7.12-7.76,8.08c-.33.83-1.26,10.91-1.49,13.46-.03.38.17.75.53.91.37.17.87.32,1.37.24.2-.03.38-.16.46-.35.47-1.06,2.21-5.03,2.51-6.18.35-1.34.63-6.61.63-6.61,0,0,6.93-2.32,9.83-4.9,2.89-2.57,2.45-4.26,2.32-4.96-.13-.7-4.58-.48-4.58-.48l-3.81.79Z"/>
          <path class="cls-34" d="M456.36,261.93s.59.95.82,2.72c.23,1.77,0,2.76,0,2.76l2.57,10.2s1.89.79,3.2,2.69c1.31,1.9,6.11,7.81,6.11,7.81h0c.2.85-.33,1.69-1.18,1.88l-.13.03s-9.68-7.64-11.08-10c-1.41-2.36-5.24-8.84-6.38-11.65-1.13-2.81,1.54-5.3,1.54-5.3l4.53-1.13Z"/>
          <polygon class="cls-67" points="450.39 261.39 449.44 262.07 449.11 261.92 450.06 261.24 450.39 261.39"/>
          <path class="cls-10" d="M456.39,260.02s.69,2.21.97,3.75c.27,1.54.06,2.84.12,3.99s2.48,8.7,2.48,8.7c0,0,.15.94-2.39,1.9-2.54.97-3.38.27-3.38.27,0,0-4.29-7.31-4.99-9.49-.69-2.18.45-4.08.45-4.08l6.74-5.05Z"/>
          <path class="cls-25" d="M445.79,263.98l-8.31,9s.6,1.39,1.54,2.42c.94,1.03,2.78,1.24,2.78,1.24,0,0,8.16-3.11,9.73-4.74,1.57-1.63,3.23-3.78,2.93-6.5-.3-2.72-2.08-1.09-2.08-1.09l-6.59-.33Z"/>
          <path class="cls-15" d="M454.87,241.85c.7,4.2,1.81,11.39,1.95,18.54.02.84-.23,1.66-.7,2.36-.91,1.34-3.18,2.43-6.01,4.31-2.62,1.75-5.72.25-6.13-2.87-.68-5.1-1.52-10.13-1.79-11.46-.13-.64-.31-1.28-.5-1.85-.51-1.58-.16-3.32.91-4.59l2.39-2.86c1.02-1.22,2.36-2.13,3.86-2.63l2.74-.91c1.47-.49,3.03.45,3.29,1.98Z"/>
          <path class="cls-34" d="M441.75,230.22c2.07-2.08,5.28-1.37,6.71-.7,1.43.67,3.64,3.06,3.19,5.78-.32,1.94-1.33,3.57-1.34,3.63s-.41,1.31-.19,2.15c.18.65-.19,1.33-.84,1.54l-1.6.51c-.77.25-1.6-.1-1.98-.81-.16-.3-.32-.54-.42-.63-.34-.3-1.4-.26-1.79-.36-.39-.11-1.28-1.08-1.63-1.6-.35-.52-.89-2.2-1.1-2.91-.21-.71-1.08-4.52.99-6.61Z"/>
          <path class="cls-37" d="M439.53,234.77s.24-1.63.66-3.39c.42-1.76,3.38-3.84,6.09-3.45,2.2.31,4.08,1.06,5.33,2.7,1.25,1.64.74,4.7.38,5.48-.36.79-1.5,2.64-1.5,2.64,0,0-.92,1.08-1.7,1.43-.78.35-2.15.23-2.49.03-.34-.2-1.88-1.46-2.34-2.24-.45-.79-.81-1.54-1.31-1.47-.51.07-.71-.76-.71-.76l-.99-.4.2-1.33-.45,1.23-.59-.24.24-1.55-.42,1.47-.39-.16Z"/>
          <path class="cls-39" d="M443.05,246.19s-1.77,1.36-2.76,2.91c-1,1.55-2.62,4.31-2.62,4.31,0,0,1,2.17,3.28,2.8,0,0,4.09-3.87,4.83-6.34.74-2.47-1-3.72-2.73-3.69Z"/>
        </g>
        <path class="cls-34" d="M429.59,256.71c.03-.33-.15-.65-.44-.79-.12-.06-.25-.13-.36-.19-.34-.19-.54-.84-.86-1.11-.24-.2-1.16-.45-1.61-.56-.16-.04-.31.08-.32.24,0,.15.03.32.19.44.33.24.77.2.92.41.15.21,0,.25-.19.22s-1.43-.05-1.75-.18c-.21-.09-.81-.61-1.19-.94-.22-.19-.55.08-.39.33h0c.2.29.11.45.25.72.14.27.04.95.2,1.26.16.31.66,1.05.98,1.21.33.16,1.42.51,1.74.5.32-.01.93-.24,1.15-.26.07,0,.23,0,.43.03.61.05,1.15-.4,1.21-1.01l.03-.31Z"/>
        <path class="cls-34" d="M459.99,259.3c-.31,0-.58.2-.68.49-.04.12-.09.24-.14.35-.14.33-.71.58-.93.9-.16.24-.29,1.11-.35,1.53-.02.15.1.28.25.27.14-.01.29-.06.38-.22.19-.32.1-.73.28-.88.18-.16.23-.03.22.15-.01.18.11,1.32.01,1.62-.06.2-.47.8-.74,1.19-.16.22.13.5.34.32,0,0,0,0,0,0,.24-.21.39-.15.63-.3s.86-.13,1.13-.32.9-.71,1.01-1.03c.11-.31.32-1.35.28-1.65-.04-.29-.32-.83-.35-1.03-.01-.06-.02-.21-.02-.4-.01-.57-.48-1.01-1.05-1h-.28Z"/>
      </g>
      <g>
        <g>
          <path class="cls-6" d="M258.26,154.32v-4.97l9.42-2.09,38.33-22.13c2.63-1.52,6.93-1.52,9.56,0l14.44,8.33,4.29-.95v5.05h0v.12h-.01c-.05.96-.7,1.91-1.96,2.64l-45.78,26.43c-2.63,1.52-6.93,1.52-9.56,0-5.88-2.97-11.39-6.29-16.76-9.67-1.31-.76-1.97-1.76-1.97-2.76Z"/>
          <path class="cls-19" d="M315.57,120.16c-2.63-1.52-6.93-1.52-9.56,0l-45.78,26.43c-2.63,1.52-2.63,4,0,5.52,5.58,3.24,11.05,6.56,16.76,9.67,2.63,1.52,6.93,1.52,9.56,0l45.78-26.43c2.63-1.52,2.63-4,0-5.52l-16.76-9.67Z"/>
          <path class="cls-66" d="M283.76,146.51c2.09-3.62,4.83-6.4,7.56-7.98l9.53-5.5v9.89l18.12-10.46v-9.89l5.47-3.16c1.33-.77,2.66-.95,3.68-.36,1.02.59,1.52,1.83,1.52,3.37v9.56l-49.02,28.3v-3.22c0-3.16,1.04-6.93,3.13-10.54Z"/>
          <path class="cls-31" d="M266.98,136.82c2.09-3.62,4.83-6.4,7.56-7.98l9.53-5.5v9.89l18.12-10.46v-9.89l5.47-3.16c1.33-.77,2.66-.95,3.68-.36,1.02.59,1.52,1.83,1.52,3.37v9.56s-49.02,28.3-49.02,28.3v-3.22c0-3.16,1.04-6.93,3.13-10.54Z"/>
          <path class="cls-20" d="M264.26,143.72c.64-2.87,1.89-5.35,1.89-5.35,3.41-6.77,8.07-9.35,8.07-9.35l1.18-.68,2.86-1.65,5.81-3.35,16.79,9.69-9.53,5.5c-1.46.84-3.23,2.44-3.23,2.44-2.39,2.17-4.27,5.44-4.27,5.44-1.55,2.67-2.26,5.06-2.26,5.06-1,3.08-.93,5.3-.93,5.3v3.5c-1.19-.61-3.28-1.79-5.61-3.13v-1.1l-8.2-4.73v1.05c-1.41-.84-2.5-1.49-2.98-1.79v-3.45c.05-1.93.41-3.41.41-3.41Z"/>
          <polygon class="cls-6" points="318.97 122.57 302.19 112.87 302.19 122.37 318.97 132.46 318.97 122.57"/>
          <polygon class="cls-77" points="302.19 122.37 297.72 124.95 314.5 135.05 318.97 132.46 302.19 122.37"/>
          <polygon class="cls-66" points="297.72 131.02 292.29 134.07 292.29 128.08 297.72 124.95 297.72 131.02"/>
          <path class="cls-20" d="M318.97,122.57l-16.78-9.69,5.47-3.16s1.47-.92,2.78-.68c0,0,.54.02,1.24.55l16.41,9.44s-.9-.62-2.49-.13c0,0-.64.22-1.55.74l-5.08,2.93Z"/>
          <path class="cls-72" d="M314.5,115.99c.54,0,.97-.44.97-.97v-32.92c0-.54-.44-.97-.97-.97s-.97.44-.97.97v32.92c0,.54.43.97.97.97Z"/>
          <g>
            <path class="cls-9" d="M265.93,148.85c.73.42,1.32.08,1.32-.76s-.59-1.86-1.32-2.28c-.73-.42-1.32-.08-1.32.76s.59,1.86,1.32,2.28Z"/>
            <path class="cls-66" d="M265.93,148.21c.63.36,1.16.15,1.28-.46.02.11.03.23.03.34,0,.84-.59,1.18-1.32.76-.73-.42-1.32-1.44-1.32-2.28,0-.11.01-.21.03-.3.13.76.65,1.58,1.29,1.94Z"/>
          </g>
          <g>
            <path class="cls-9" d="M278.77,156.26c.73.42,1.32.08,1.32-.76s-.59-1.86-1.32-2.28c-.73-.42-1.32-.08-1.32.76s.59,1.86,1.32,2.28Z"/>
            <path class="cls-66" d="M278.77,155.61c.63.36,1.16.15,1.28-.46.02.11.03.23.03.34,0,.84-.59,1.18-1.32.76-.73-.42-1.32-1.44-1.32-2.28,0-.11.01-.21.03-.3.13.76.65,1.57,1.29,1.94Z"/>
          </g>
          <polygon class="cls-27" points="300.85 133.03 295 151.97 291.09 154.23 296.94 135.29 300.85 133.03"/>
          <polygon class="cls-6" points="297.72 124.95 297.72 131.02 309.59 137.87 314.5 135.04 297.72 124.95"/>
          <path class="cls-22" d="M287.91,130.92c.12.21.34.33.56.33.11,0,.22-.03.32-.08l2.33-1.32c.6.87,1.36,1.62,2.18,2.1.6.35,1.19.52,1.74.52,1.42,0,2.34-1.13,2.34-2.88,0-2.33-1.58-5.06-3.59-6.22-.6-.35-1.19-.52-1.74-.52-1.42,0-2.34,1.13-2.34,2.88,0,.98.28,2.03.76,3.01l-2.32,1.32c-.31.18-.42.57-.24.88ZM292.62,127.1c0,.12.02.24.05.37l-1.35.77c-.4-.83-.63-1.71-.63-2.53,0-.49.09-.9.25-1.21l1.69,2.4c-.01.06-.02.13-.02.2ZM295.31,126.2l-1.29.78c-.14-.17-.3-.32-.47-.42-.16-.09-.31-.13-.45-.12l-1.72-2.44c.19-.12.42-.2.67-.2.38,0,.81.14,1.25.39.77.44,1.46,1.17,2,2.01ZM291.98,129.36l1.37-.78c.07.06.13.11.21.15.52.3.94.06.94-.54,0-.21-.05-.43-.14-.64l1.29-.78c.48.91.78,1.91.78,2.81,0,1.19-.51,1.91-1.37,1.91-.37,0-.81-.14-1.25-.39-.68-.39-1.31-1.01-1.82-1.74Z"/>
          <polygon class="cls-51" points="300.85 133.03 284.06 123.33 280.16 125.59 284.07 133.23 296.94 135.29 300.85 133.03"/>
        </g>
        <polygon class="cls-27" points="293.76 149.83 329.65 129.12 329.65 131.99 293.76 152.71 293.76 149.83"/>
      </g>
      <g>
        <g>
          <path class="cls-6" d="M292.6,173.43v-4.97l9.42-2.09,38.33-22.13c2.63-1.52,6.93-1.52,9.56,0l14.44,8.33,4.29-.95v5.05h0v.12h-.01c-.05.96-.7,1.91-1.96,2.64l-45.78,26.43c-2.63,1.52-6.93,1.52-9.56,0-5.88-2.97-11.39-6.29-16.76-9.67-1.31-.76-1.97-1.76-1.97-2.76Z"/>
          <path class="cls-19" d="M349.91,139.27c-2.63-1.52-6.93-1.52-9.56,0l-45.78,26.43c-2.63,1.52-2.63,4,0,5.52,5.58,3.24,11.05,6.56,16.76,9.67,2.63,1.52,6.93,1.52,9.56,0l45.78-26.43c2.63-1.52,2.63-4,0-5.52l-16.76-9.67Z"/>
          <path class="cls-66" d="M318.1,165.62c2.09-3.62,4.83-6.4,7.56-7.98l9.53-5.5v9.89l18.12-10.46v-9.89l5.47-3.16c1.33-.77,2.66-.95,3.68-.36,1.02.59,1.52,1.83,1.52,3.37v9.56l-49.02,28.3v-3.22c0-3.16,1.04-6.93,3.13-10.54Z"/>
          <path class="cls-31" d="M301.32,155.93c2.09-3.62,4.83-6.4,7.56-7.98l9.53-5.5v9.89l18.12-10.46v-9.89l5.47-3.16c1.33-.77,2.66-.95,3.68-.36,1.02.59,1.52,1.83,1.52,3.37v9.56s-49.02,28.3-49.02,28.3v-3.22c0-3.16,1.04-6.93,3.13-10.54Z"/>
          <path class="cls-20" d="M298.6,162.83c.64-2.87,1.89-5.35,1.89-5.35,3.41-6.77,8.07-9.35,8.07-9.35l1.18-.68,2.86-1.65,5.81-3.35,16.79,9.69-9.53,5.5c-1.46.84-3.23,2.44-3.23,2.44-2.39,2.17-4.27,5.44-4.27,5.44-1.55,2.67-2.26,5.06-2.26,5.06-1,3.08-.93,5.3-.93,5.3v3.5c-1.19-.61-3.28-1.79-5.61-3.13v-1.1l-8.2-4.73v1.05c-1.41-.84-2.5-1.49-2.98-1.79v-3.45c.05-1.93.41-3.41.41-3.41Z"/>
          <polygon class="cls-6" points="353.31 141.67 336.53 131.98 336.53 141.48 353.31 151.57 353.31 141.67"/>
          <polygon class="cls-77" points="336.53 141.48 332.06 144.06 348.84 154.15 353.31 151.57 336.53 141.48"/>
          <polygon class="cls-66" points="332.06 150.13 326.63 153.18 326.63 147.19 332.06 144.06 332.06 150.13"/>
          <path class="cls-20" d="M353.31,141.67l-16.78-9.69,5.47-3.16s1.47-.92,2.78-.68c0,0,.54.02,1.24.55l16.41,9.44s-.9-.62-2.49-.13c0,0-.64.22-1.55.74l-5.08,2.93Z"/>
          <path class="cls-72" d="M348.84,135.1c.54,0,.97-.44.97-.97v-32.92c0-.54-.44-.97-.97-.97s-.97.44-.97.97v32.92c0,.54.43.97.97.97Z"/>
          <g>
            <path class="cls-9" d="M300.27,167.96c.73.42,1.32.08,1.32-.76s-.59-1.86-1.32-2.28c-.73-.42-1.32-.08-1.32.76s.59,1.86,1.32,2.28Z"/>
            <path class="cls-66" d="M300.27,167.31c.63.36,1.16.15,1.28-.46.02.11.03.23.03.34,0,.84-.59,1.18-1.32.76-.73-.42-1.32-1.44-1.32-2.28,0-.11.01-.21.03-.3.13.76.65,1.58,1.29,1.94Z"/>
          </g>
          <g>
            <path class="cls-9" d="M313.11,175.36c.73.42,1.32.08,1.32-.76s-.59-1.86-1.32-2.28c-.73-.42-1.32-.08-1.32.76s.59,1.86,1.32,2.28Z"/>
            <path class="cls-66" d="M313.11,174.72c.63.36,1.16.15,1.28-.46.02.11.03.23.03.34,0,.84-.59,1.18-1.32.76-.73-.42-1.32-1.44-1.32-2.28,0-.11.01-.21.03-.3.13.76.65,1.57,1.29,1.94Z"/>
          </g>
          <polygon class="cls-27" points="335.19 152.13 329.34 171.08 325.43 173.34 331.28 154.4 335.19 152.13"/>
          <polygon class="cls-6" points="332.06 144.06 332.06 150.13 343.93 156.98 348.84 154.15 332.06 144.06"/>
          <path class="cls-22" d="M322.26,150.03c.12.21.34.33.56.33.11,0,.22-.03.32-.08l2.33-1.32c.6.87,1.36,1.62,2.18,2.1.6.35,1.19.52,1.74.52,1.42,0,2.34-1.13,2.34-2.88,0-2.33-1.58-5.06-3.59-6.22-.6-.35-1.19-.52-1.74-.52-1.42,0-2.34,1.13-2.34,2.88,0,.98.28,2.03.76,3.01l-2.32,1.32c-.31.18-.42.57-.24.88ZM326.96,146.21c0,.12.02.24.05.37l-1.35.77c-.4-.83-.63-1.71-.63-2.53,0-.49.09-.9.25-1.21l1.69,2.4c-.01.06-.02.13-.02.2ZM329.65,145.31l-1.29.78c-.14-.17-.3-.32-.47-.42-.16-.09-.31-.13-.45-.12l-1.72-2.44c.19-.12.42-.2.67-.2.38,0,.81.14,1.25.39.77.44,1.46,1.17,2,2.01ZM326.32,148.46l1.37-.78c.07.06.13.11.21.15.52.3.94.06.94-.54,0-.21-.05-.43-.14-.64l1.29-.78c.48.91.78,1.91.78,2.81,0,1.19-.51,1.91-1.37,1.91-.37,0-.81-.14-1.25-.39-.68-.39-1.31-1.01-1.82-1.74Z"/>
          <polygon class="cls-51" points="335.19 152.13 318.4 142.44 314.5 144.7 318.41 152.33 331.28 154.4 335.19 152.13"/>
        </g>
        <polygon class="cls-27" points="328.1 168.94 363.99 148.22 363.99 151.09 328.1 171.81 328.1 168.94"/>
      </g>
      <g>
        <path class="cls-60" d="M46.67,100.54s.35.02.71-.13c.36-.14.59-.75.85-.92.26-.17,2.02-.48,2.02-.48,0,0,.13.38-.16.55-.3.18-.55.17-.84.32-.29.16-.38.28-.35.35.03.07.45,0,.71-.05.26-.05,1.16-.16,1.41-.27.25-.11,1.51-.81,1.51-.81,0,0,.19.39.1.55-.09.16-.09.6-.14.75-.06.16-.16.68-.45,1.05-.29.37-.65.69-1.26.81-.61.12-1.51.35-1.67.33-.16-.02-.83-.22-1.06-.21-.23,0-1.12.15-1.12.15l-.24-2.01Z"/>
        <path class="cls-60" d="M30.38,97.54s6.05,3.76,8.58,3.67c2.52-.09,8.06-.7,8.06-.7l.65,1.94s-5.67,1.47-8.1,1.94c-2.43.47-9.5-1.59-9.5-1.59l.32-5.25Z"/>
        <path class="cls-60" d="M3.11,115.97s4.32-3.69,5.39-4.69,1.91-2.01,3.41-3.18c1.49-1.17,8.31-5.91,8.31-5.91l1.49,3.48s-7.38,5.14-8.06,5.72c-.68.58-7.78,5.49-8.22,5.91-.44.42-.54.96-.54.96l-1.52-1.17-.28-1.12Z"/>
        <g>
          <path class="cls-61" d="M18.22,151.94l.08,1.48s1.16,2.09,2.01,3.45c.85,1.36,2.31,2.29,3.47,2.15,1.16-.14,1.9-.45,2.17-.81.29-.38.18-1.12.05-1.52-.14-.4-2.37-2.6-2.95-3.81-.58-1.22-1.9-1.6-1.9-1.6,0,0-2.55-.07-2.93.66Z"/>
          <path class="cls-23" d="M24,158.38c-1.16.14-2.62-.79-3.47-2.15s-2.01-3.45-2.01-3.45l-.06-1.08c-.11.07-.19.15-.24.24l.08,1.48s1.16,2.09,2.01,3.45c.85,1.36,2.31,2.29,3.47,2.15,1.16-.14,1.9-.45,2.17-.81.12-.16.17-.37.18-.6-.29.34-1.02.63-2.14.77Z"/>
        </g>
        <path class="cls-60" d="M20.34,140.28s-.95,1.51-1.26,3.26c-.32,1.75,0,7.78,0,8.37s.74.91,1.3.95c.56.04,1.05-.18,1.19-.46s1.09-6.48,1.61-8.06c.53-1.58,1.86-4.8,1.68-6.3-.18-1.51-2.38-1.4-3.01-1.02-.63.39-1.51,3.26-1.51,3.26Z"/>
        <path class="cls-61" d="M28.32,146.89s-.18.76-.03,1.1c.15.33,1.02.47,2.1,1.31,1.08.84,2.39,2.19,3.91,2.8,1.52.61,3.17-.27,3.38-.73s.21-1.03-.05-1.54c-.26-.5-.91-1.13-1.98-1.67-1.07-.55-2.88-2.74-2.88-2.74,0,0-4.05.68-4.46,1.48Z"/>
        <path class="cls-23" d="M37.71,150.74c-.21.46-1.86,1.34-3.38.73-1.52-.61-2.83-1.96-3.91-2.8-1.08-.84-1.95-.97-2.1-1.31-.03-.06-.04-.13-.05-.21-.04.25-.07.62.02.83.15.33,1.02.47,2.1,1.31,1.08.84,2.39,2.19,3.91,2.8,1.52.61,3.17-.27,3.38-.73.13-.28.18-.61.14-.94-.03.11-.06.22-.11.32Z"/>
        <path class="cls-17" d="M31.13,135.86c2.68-.19,3.55-.96,3.83-1.94-.24-1.55-.94-3.19-1.39-4.72-.59-2.01-2.54-9.01-2.54-9.01,0,0-6.66.93-7.04,1.22-.39.28.04,2.62.55,4.53.51,1.91,3.96,7.24,3.88,8.99,0,.17-.03.41-.05.7.47.2,1.29.35,2.77.24Z"/>
        <path class="cls-60" d="M30.16,134.88s-.88,1.55-1.12,3.31c-.24,1.76.34,7.77.37,8.36.03.59.77.88,1.34.89.56.01,1.04-.22,1.17-.51.13-.29.8-6.52,1.26-8.12.46-1.6,1.64-4.88,1.4-6.37-.24-1.5-2.44-1.3-3.05-.88-.61.41-1.36,3.32-1.36,3.32Z"/>
        <path class="cls-43" d="M31.13,135.86c2.68-.19,3.55-.96,3.83-1.94-.24-1.55-.94-3.19-1.39-4.72-.59-2.01-2.54-9.01-2.54-9.01,0,0-6.66.93-7.04,1.22-.39.28.04,2.62.55,4.53.51,1.91,3.96,7.24,3.88,8.99,0,.17-.03.41-.05.7.47.2,1.29.35,2.77.24Z"/>
        <path class="cls-17" d="M18.29,120.87s-.84,5.65-.42,9.43c.42,3.78.79,7.75.79,7.75,0,0,1.17,1.4,3.92,1.54,2.76.14,3.18-.56,3.18-.56,0,0-.09-8.41.19-9.39.28-.98,1.33-1.51,1.74-3.11.41-1.6.22-5.06.22-5.06l-9.62-.61Z"/>
        <path class="cls-1" d="M30.17,97.31s.48.16,1.32.55c.84.39,4.71,2.51,4.71,2.51,0,0,.42,1.42.26,2.31-.16.89-.79,1.56-.79,1.56l-4.72-.96-.77-5.98Z"/>
        <path class="cls-1" d="M21.04,100.33l-.44.02s-2.05.91-3.11,2.63c-1.05,1.73-.09,3.83.05,4.81.15,1.07-.09,3.3.13,4.35.21,1.05.44,3.43.17,4.8-.27,1.37.06,3.47.06,3.47,0,0,.17,2.96,5.54,2.75,5.37-.21,6.77-1.79,7.35-2.57.49-.66.58-1.67.58-1.67,0,0,.1-5.32.45-6.98.36-1.66-.06-3.72.1-6.35.17-2.63.06-6.37-.63-7.36-.69-.99-1.98-1.38-2.8-1.4-.82-.02-7.45,3.49-7.45,3.49Z"/>
        <path class="cls-76" d="M23.39,95.91s.51,1.44-1.24,3.36c-.6.66-1.27,1.11-1.55,1.08,0,0,1.6,2.78,4.08,3.39,2.48.61,4.27-1.24,4.08-2.69-.19-1.45-2.92-3.37-2.99-3.43s-2.38-1.71-2.38-1.71Z"/>
        <path class="cls-1" d="M21.95,99.45l3.59,2.55c.71.51,1.71.05,1.78-.82l.21-2.45,2.8,1.98s-.14,3.41-.4,3.63c-.26.21-2.59,1.37-2.64,1.37s-2.24-.25-2.85-.25-3.41-.4-3.41-.4l-.46-1.35-.77-1.63.8-1.72,1.36-.91Z"/>
        <g>
          <path class="cls-60" d="M25.1,99.05s1.68,1.38,3.08,1.71c1.4.33,2.23-.11,2.44-.81.21-.7-.06-1.17.12-2.35.18-1.17.31-1.87.31-2.39s.02-.7.14-1.07c.12-.36-.14-2.24-.6-3.42-.46-1.17-1.68-2.89-3.68-3.45-2-.56-4.15.61-5.02,2.3-.87,1.69-.26,4.99.25,5.86.51.87,1.32,2.11,1.6,2.41.28.29,1.36,1.2,1.36,1.2Z"/>
          <path class="cls-92" d="M23.8,95.53s-.99-1.63-1.53-.97c-.54.66.18,2.27.56,2.72.37.45.95.28,1.09.05s-.12-.54-.19-.78c-.07-.24.11-.88.06-1.03Z"/>
        </g>
        <path class="cls-60" d="M5.87,116.99s-.62.56-.82.94c-.2.38-.09,1.09-.22,1.54-.14.45-1.38,1.72-1.38,1.72,0,0-.5-.35-.33-.77.16-.42.6-.65.62-.94.01-.29-.15-.24-.31-.09-.16.15-1.32.91-1.53,1.23-.21.32-.68,2.08-.68,2.08,0,0-.45-.16-.43-.55.02-.39-.16-.48-.2-.82-.04-.34-.54-.91-.57-1.31-.04-.39-.02-1.39.19-1.73.21-.34,1.03-1.34,1.33-1.53.31-.18,1.02-.34,1.24-.46.21-.12,1.64-1.41,1.64-1.41l1.45,2.1Z"/>
        <path class="cls-82" d="M11.54,108.65c.21.44.44.86.71,1.26.3.34.62.66.97.95.38.27.78.52,1.19.75,1.72-1.08,4.64-2.59,5.97-4.17,1.51-1.79.24-4.81-1.37-5.89,0,0-.56.03-2.44,1.52-1.46,1.15-4.03,3.12-5.42,4.27.1.45.23.89.39,1.32Z"/>
        <path class="cls-1" d="M26.44,91.5s.51.14,2.06.24c1.55.1,3.7-.9,3.7-.9,0,0-1.03-.7-1.68-1.93-.65-1.23-1.93-2.08-3.85-2.35-1.93-.28-3.8.63-4.93,1.75-1.13,1.13-.78,3.93-.58,5.1.2,1.18,1.05,2.88,1.05,2.88,0,0-.2-.6.08-1.3.28-.7.6-.83.85-.65s.58.7.58.7l.06.23.66-.08s-.14.03.21-1c.35-1.03.63-1.27.8-1.9.15-.57.57-.97.99-.79Z"/>
      </g>
    </g>
  </g>
</svg>