<?xml version="1.0" encoding="UTF-8"?>
<svg xmlns="http://www.w3.org/2000/svg" viewBox="0 0 500 323.43">
  <defs>
    <style>
      .cls-1 {
        fill: #e9c189;
      }

      .cls-1, .cls-2, .cls-3, .cls-4, .cls-5, .cls-6, .cls-7, .cls-8, .cls-9, .cls-10, .cls-11, .cls-12, .cls-13, .cls-14, .cls-15, .cls-16, .cls-17, .cls-18, .cls-19, .cls-20, .cls-21, .cls-22, .cls-23, .cls-24, .cls-25, .cls-26, .cls-27, .cls-28, .cls-29, .cls-30, .cls-31, .cls-32, .cls-33, .cls-34, .cls-35, .cls-36, .cls-37, .cls-38, .cls-39, .cls-40, .cls-41, .cls-42, .cls-43, .cls-44, .cls-45, .cls-46, .cls-47, .cls-48, .cls-49, .cls-50, .cls-51, .cls-52, .cls-53, .cls-54, .cls-55, .cls-56, .cls-57, .cls-58, .cls-59, .cls-60, .cls-61, .cls-62, .cls-63, .cls-64, .cls-65, .cls-66, .cls-67, .cls-68, .cls-69, .cls-70, .cls-71, .cls-72, .cls-73, .cls-74, .cls-75, .cls-76, .cls-77, .cls-78, .cls-79, .cls-80, .cls-81, .cls-82, .cls-83, .cls-84, .cls-85, .cls-86, .cls-87, .cls-88, .cls-89, .cls-90, .cls-91, .cls-92, .cls-93, .cls-94, .cls-95, .cls-96, .cls-97, .cls-98, .cls-99, .cls-100, .cls-101, .cls-102, .cls-103, .cls-104, .cls-105, .cls-106, .cls-107, .cls-108 {
        stroke-width: 0px;
      }

      .cls-109 {
        stroke: #3e3f51;
        stroke-width: 1.92px;
      }

      .cls-109, .cls-19, .cls-110 {
        fill: none;
      }

      .cls-109, .cls-110 {
        stroke-linecap: round;
        stroke-linejoin: round;
      }

      .cls-2 {
        fill: #d12720;
      }

      .cls-3 {
        fill: #898989;
      }

      .cls-4 {
        fill: #322b29;
      }

      .cls-5 {
        fill: #362c29;
      }

      .cls-6 {
        fill: #c4a294;
      }

      .cls-7 {
        fill: #238bba;
      }

      .cls-8 {
        fill: #545359;
      }

      .cls-9 {
        fill: #b49a87;
        opacity: .3;
      }

      .cls-10 {
        fill: #3e3a39;
      }

      .cls-11 {
        fill: #e72d25;
      }

      .cls-12 {
        fill: #6aaebc;
      }

      .cls-13 {
        fill: #615f5f;
      }

      .cls-14 {
        fill: #f4eee8;
      }

      .cls-15 {
        fill: #c1c2c2;
      }

      .cls-16 {
        fill: #ea5b51;
      }

      .cls-16, .cls-103 {
        opacity: .4;
      }

      .cls-17 {
        fill: #f6f6f6;
      }

      .cls-18 {
        fill: #aaafc9;
      }

      .cls-20 {
        fill: #c6a4ca;
      }

      .cls-21 {
        fill: #2f2725;
      }

      .cls-22 {
        fill: #cbcccc;
      }

      .cls-23, .cls-75 {
        fill: #d7d7d8;
      }

      .cls-24 {
        fill: #629a66;
      }

      .cls-25 {
        fill: #f5f2e9;
      }

      .cls-26 {
        fill: #bf4030;
      }

      .cls-27, .cls-106 {
        fill: #e9eaea;
      }

      .cls-28 {
        fill: #303033;
      }

      .cls-29 {
        fill: #e83b42;
      }

      .cls-30 {
        fill: #e60012;
      }

      .cls-31 {
        fill: #9bae65;
      }

      .cls-32 {
        fill: #a57a48;
      }

      .cls-33 {
        fill: #aaabab;
      }

      .cls-34 {
        fill: #a32a24;
      }

      .cls-111, .cls-75, .cls-106 {
        mix-blend-mode: multiply;
      }

      .cls-35 {
        fill: #ec696b;
      }

      .cls-36 {
        fill: #8fb095;
      }

      .cls-37 {
        fill: #b7b8b8;
      }

      .cls-38 {
        fill: #9f170e;
      }

      .cls-39 {
        fill: #d5d5d6;
      }

      .cls-40 {
        fill: #7ccad9;
      }

      .cls-41 {
        fill: #f3e100;
      }

      .cls-42 {
        fill: #dccd00;
      }

      .cls-43 {
        fill: #b48d59;
      }

      .cls-44 {
        fill: #19b1c6;
      }

      .cls-45 {
        fill: #b1b1b2;
      }

      .cls-46 {
        fill: #f5a22e;
      }

      .cls-47 {
        fill: #b01d16;
      }

      .cls-48 {
        fill: #b21e16;
      }

      .cls-49 {
        fill: #24546d;
      }

      .cls-110 {
        stroke: #3e3a39;
        stroke-width: 2.01px;
      }

      .cls-50 {
        fill: #487d4b;
      }

      .cls-51 {
        fill: #f39800;
      }

      .cls-52 {
        fill: #60668f;
      }

      .cls-53 {
        fill: #c5b800;
      }

      .cls-54 {
        fill: #20552a;
      }

      .cls-55 {
        fill: #aebc46;
      }

      .cls-56 {
        fill: #f29318;
      }

      .cls-57 {
        fill: #d52527;
      }

      .cls-58 {
        fill: #ea7912;
      }

      .cls-59 {
        fill: #295e79;
      }

      .cls-60 {
        fill: #2b2b2b;
      }

      .cls-61 {
        fill: #96a646;
      }

      .cls-62 {
        fill: #c4a295;
      }

      .cls-63 {
        fill: #a2a2a2;
      }

      .cls-64 {
        fill: #e6e6e6;
      }

      .cls-65 {
        fill: #962623;
      }

      .cls-66 {
        fill: #955b42;
      }

      .cls-67 {
        fill: #bcbdbf;
      }

      .cls-68 {
        fill: #0c1113;
      }

      .cls-69 {
        fill: #545251;
      }

      .cls-70 {
        fill: #73a078;
      }

      .cls-112 {
        opacity: .95;
      }

      .cls-71 {
        fill: #3c6b3f;
      }

      .cls-72 {
        fill: #326485;
      }

      .cls-73 {
        fill: #bfb200;
      }

      .cls-74 {
        fill: #5f391a;
      }

      .cls-76 {
        fill: #c8d476;
      }

      .cls-77 {
        fill: #c3c4c4;
      }

      .cls-78 {
        fill: #ecc3b2;
      }

      .cls-79 {
        fill: #2c5876;
      }

      .cls-80 {
        fill: #c9caca;
      }

      .cls-81 {
        fill: #5f906d;
      }

      .cls-82 {
        fill: #526c78;
      }

      .cls-83 {
        fill: #f0811a;
      }

      .cls-84 {
        fill: #445963;
      }

      .cls-113 {
        isolation: isolate;
      }

      .cls-85 {
        fill: #494645;
      }

      .cls-86 {
        fill: #dcdddd;
      }

      .cls-87 {
        fill: #b9baba;
      }

      .cls-88 {
        fill: #0b0808;
      }

      .cls-89 {
        fill: #164563;
      }

      .cls-90 {
        fill: #574943;
      }

      .cls-91 {
        fill: #7a7fa7;
      }

      .cls-92 {
        fill: #121213;
      }

      .cls-93 {
        fill: #316181;
      }

      .cls-94 {
        fill: #759f5f;
      }

      .cls-95 {
        fill: #fff;
      }

      .cls-96 {
        fill: #2e495a;
      }

      .cls-97 {
        fill: #606060;
      }

      .cls-98 {
        fill: #424142;
      }

      .cls-99 {
        fill: #2a5b81;
      }

      .cls-100 {
        fill: #c5c6c6;
      }

      .cls-101 {
        fill: #31bacc;
      }

      .cls-102 {
        fill: #cfd0d0;
      }

      .cls-103 {
        fill: #d5de5f;
      }

      .cls-104 {
        fill: #5d99a7;
      }

      .cls-105 {
        fill: #3c2415;
      }

      .cls-107 {
        fill: #edcbb3;
      }

      .cls-108 {
        fill: #e83828;
      }
    </style>
  </defs>
  <g class="cls-113">
    <g id="_レイヤー_2" data-name="レイヤー 2">
      <g id="MV">
        <g>
          <g>
            <path class="cls-95" d="M77.74,311.16c-.66.4-1.67,1.41-1.95,1.68-.1.89-1.12,2.43-.7,3.45.23.56.78.91,1.22.85.67,0,1.28-1.36,2.09-2.4.65-.9,1.54-1.15,1.97-1.99.36-.55.21-1.48-.05-1.66-.26-.16-1.9-.32-2.57.08Z"/>
            <path class="cls-78" d="M74.24,304.88s-.16.61-.15,1.6c.01,1,.29,1.97,1.15,3.43.45.87.59,3.97.59,3.97,0,0,.46-.17.86.25.3.35.34.44.84.24,1.02-.78.84-1.59.84-1.59,0,0-.27-3.4.14-6.94.23-.26-4.27-.95-4.27-.95Z"/>
            <path class="cls-7" d="M75.08,301.9c-.86,1.8-.98,3.36-.98,3.36,0,0,.57.96,2.51,1.32,1.89.36,3.1-.45,3.1-.45,0,0,.17-4.8,2.56-11.38.63-.77,1.15-3.38,1.15-3.38,0,0-6.45-1.36-6.8-1.43-1.14,4.77-1.1,10.49-1.54,11.96Z"/>
            <path class="cls-95" d="M87.69,318.41c-.16-.02-2.99.05-3.5.11-.14,1.69-1.04,3.93.3,4.75.89.61,6.86-.62,6.86-.62,0,0,3.83-.77,1.58-3.5-.52-.59-4.53.45-5.25-.74Z"/>
            <path class="cls-78" d="M87.14,309.41c.24-.63-4.33-.91-4.33-.91,0,0-.39,1.95-.22,3.3.13,1.91,1.56,4.25,1.61,7.15.02.97.69,1.64,1.99,1.64,1.63-.13,1.68-1.64,1.68-1.64,0,0-1.04-3.82-.74-9.54Z"/>
            <path class="cls-7" d="M90.09,286.56c-.24-1.41-.58-1.56-.58-1.56,0,0-10.47-1.7-11.12-1.53-.2,1.51-2.16,4.83-1.73,6.77.29,1.65,4.26,2.05,4.74,1.91.75,1.96,1.06,12.18,1,13.71-.06,1.53-.03,1.12-.2,2.75.06,1.42,4.42,3.04,6.32.04-.93-3.44,2.37-18.54,1.57-22.1Z"/>
            <path class="cls-68" d="M82.26,283.47l-3.48-1.49-.4,1.49s.12,1.3,3.38,2.17c6.12,1.82,7.74-.64,7.74-.64l-.17-1.53h-7.08Z"/>
            <path class="cls-78" d="M77.62,280.12c-3.09-2.92-3.9-4.72-5.16-6.16,1.46-.81,2.62-2.08,2.62-2.08,0,0-1.88-2.68-2.2-2.71-1.96,1.82-3.71,2.42-4.4,3.2-.59,1.48-.01,2.17.53,3.06,1.01,2.19,5.51,4.39,6.27,5.06.38.33.89,1.12,1.5,1.48.61.35,2.37.13,2.37.13l-.45-2.46s-.8.51-1.08.47Z"/>
            <path class="cls-27" d="M72.57,269.34c-.55,1.27,1.36,3.24,2.51,2.8.38-.17,3.92-4.83,3.6-5.01-4.15-1.46-5.53,1.4-6.11,2.21Z"/>
            <path class="cls-78" d="M86.22,260.92c0-.12.11-.39.12-.71.02-.3-.12-.69-.12-.69,0,0-.34-1.32-1.06-1.08-2.68.8-1.82,5.68-2.49,6.62-.69.96-3.07.28-3.07.28,0,0,.09.5-.05.78-.11.25-.46.66-.46.66l3.46,1.54s2.25.18,2.19.12c-.18-1.71-.03-3.19-.03-3.19,0,0,1.24-.4,1.52-.93.11-.25.41-2.38.26-2.97-.06-.18-.26-.31-.26-.43Z"/>
            <path class="cls-27" d="M88.32,271.08s-2.43-1.08-3.56-2.77c-.81.17-4.95-2.03-5.81-1.47-.87.57-2.24.35-3.34,2.37-1.1,2.02-.47,3.56.31,5.75.85,1.87,1.88,2.7,2.77,5.79.04.38.12,1.44.12,1.44.2,1.41,4.37,3.06,6.92,2.77,2.55-.31,3.34-1.03,3.61-1.49.1-5.14.56-5.13.29-6.3-.28-1.16-1.31-6.08-1.31-6.08Z"/>
            <path class="cls-78" d="M93.86,267.83c-.43-.45-1.36-1.06-2.53-1.8-.8-.35-1.23-.43-2.12-.43s-2.42.41-2.31.8c.11.4,2.9.31,3.03,2.09-.07.3-1.56-.03-1.56.38s1.69.83,1.69.83c0,0,1.06.25,2.08,0,.76,1.37.84,3.08,1.34,4.85-.17.23-1.86-1.11-1.86-1.11,0,0-2.29,4.43-2.09,4.49,1.05.78,4.22,1.59,6.31,2.88.91.38,2.39-1.27,2.28-3.05-.24-3.34-1.69-5.05-2.84-7.09-.66-1.18-.73-2.05-1.4-2.84Z"/>
            <path class="cls-27" d="M88.32,271.08c-1.04-.13-1.86.61-2.29,1.61-.43.99-.52,2.39.64,3.68.74,1,3.16,1.65,3.16,1.65,0,0,2.69-1.43,1.86-4.42-.47-1.04-2.34-2.39-3.37-2.52Z"/>
            <path class="cls-78" d="M77.91,281.86c.09.24,1.04,1.09,1.38.72.35-.37-.59-1.28-.59-1.28,0,0-.72-.39-.79.56Z"/>
            <path class="cls-62" d="M93.47,274.55s1.91,1.43,2.98,2.91c-.41-1.88-2.98-2.91-2.98-2.91Z"/>
            <path class="cls-13" d="M85.01,256.97s.13-.27.47-.32c-1.36-.85-3.56-.26-3.56-.26,0,0-.05-.19-.03-.46-1.31.22-2.33,1.7-2.33,1.7l-.12-.37c-1.54,1.47-1.3,3.32-1.3,3.32,0,0-.3,0-.54-.12.05.48.51.76.51.76,0,0-.68.03-.86.77.15-.07.81-.12.81-.12,0,0-.21.27-.15.86q.15-.18.23-.29c.2,1.56,1.55,2.03,1.43,2.96,0,0,1.37,1.15,3.11.83.43-.23,1.34-1.12,1.22-1.98,0-.49-.14-1.17.36-1.52.74-.5,1.06.52,1.06.52l.24-.46s-.42-.51-.58-1.1c-.11-1.3.76-2.04.76-2.04,0,0,.23-.26.86.37-.24-2.08-1.6-3.04-1.6-3.04Z"/>
          </g>
          <g>
            <path class="cls-10" d="M258.49,267.39c-.99,6.65-6.43,12.36-11.66,11.08-5.83-1.43-8.84-4.43-7.85-11.08.99-6.65,6.16-12.03,11.55-12.03s8.96,5.39,7.97,12.03Z"/>
            <path class="cls-77" d="M256.36,268.62c-.76,3.93-3.55,7.28-6.24,7.5-2.68.22-4.25-2.79-3.49-6.71.76-3.93,3.55-7.28,6.24-7.5,2.68-.22,4.25,2.79,3.49,6.71Z"/>
            <path class="cls-63" d="M214.98,292.31s1.67,1.17,3.34.5c1.67-.67,1.67.5,4.18-1.17,2.51-1.67,9.02-6.69,13.2-10.87s4.01-3.18,5.68-5.69c1.67-2.51,1.34-4.35,1.17-6.52-.17-2.17-.84-3.01-3.51-5.02s-4.34-1.51-7.85-1.51-11.03,5.35-11.03,5.35l-11.36,15.55,6.18,9.37Z"/>
            <path class="cls-64" d="M240.71,266.55s-3.51-3.35-6.68-4.85c-3.17-1.51-3.51-2.34-3.34-3.68.17-1.34-.33-5.02,5.35-8.7,5.68-3.68,5.51-4.52,9.36-3.68s8.35,2.34,9.19,5.35c.84,3.01,2.17,5.69.17,7.69-2,2.01-4.68,4.68-5.68,7.36-1,2.68-3.01,5.02-5.01,4.18-2-.84-3.01-1.67-3.34-3.68Z"/>
            <path class="cls-23" d="M244.51,262.12c-.31.52,0,4.56.44,6.61.44,2.06,1.03,2.65,2.35,2.79s3.08.29,3.96.15,4.11-2.35,5.87-4.85c1.76-2.5,1.61-4.41,1.61-6.17s0-2.2-2.94-3.67c-2.94-1.47-3.23-.59-4.84-.29s-6.02,4.7-6.46,5.44Z"/>
            <path class="cls-10" d="M225.01,265.38s3.84,2.51,4.51,4.18c.67,1.67,7.18-3.68,8.85-5.18,1.67-1.51,2-3.01-2.67-5.18-4.68-2.17-5.68-1.84-7.02-1-1.34.84-5.01,5.18-5.01,5.18l1.34,2.01Z"/>
            <path class="cls-87" d="M217.49,285.11s1.5,7.19-1.17,7.53-4.84-.84-6.01-3.51c-1.17-2.68-2.34-6.86-2.34-6.86,0,0,9.02,1,9.52,2.84Z"/>
            <path class="cls-64" d="M211.14,274.24s-2.17-5.69,5.01-10.2c7.18-4.52,10.19-2.17,11.19,1,1,3.18-2.34,11.54-7.52,13.05-5.18,1.51-8.69-3.85-8.69-3.85Z"/>
            <path class="cls-10" d="M213.22,298.16c-.99,6.65-6.43,12.36-11.66,11.08-5.83-1.43-8.84-4.43-7.85-11.08.99-6.65,6.16-12.03,11.55-12.03s8.96,5.39,7.97,12.03Z"/>
            <path class="cls-77" d="M211.09,299.4c-.76,3.93-3.55,7.28-6.24,7.5-2.68.22-4.25-2.79-3.49-6.71s3.55-7.28,6.24-7.5c2.68-.22,4.25,2.79,3.49,6.71Z"/>
            <path class="cls-64" d="M208.3,290.97s-6.68,1.51-8.19,4.18c-1.5,2.68-4.51,1.84-5.85.84-1.34-1-.17-5.18,3.68-8.86,3.84-3.68,6.35-4.52,10.36-3.01,4.01,1.51,5.85,6.02,5.68,7.86-.17,1.84-3.17,8.03-4.34,6.36-1.17-1.67-1.67-3.68-1.34-7.36Z"/>
            <path class="cls-23" d="M199.45,266.88s-3.34,11.21-1.5,14.38c1.84,3.18,7.18,4.68,10.86,3.51,3.68-1.17,6.68,1.17,8.85,4.18,2.17,3.01,8.52-3.51,9.86-4.68,1.34-1.17,1.5-3.68.5-5.35-1-1.67-7.68-2.01-10.19-3.85-2.51-1.84-2.84-2.51-2.84-5.52s-8.52,1-15.54-2.68Z"/>
            <path class="cls-72" d="M213.31,268.22s-7.52,7.86-11.36,7.02-2.51-6.52-2.51-8.36,2.67-5.69,5.18-6.52c2.51-.84,5.18-.33,6.68,1,1.5,1.34,2.34,5.69,2,6.86Z"/>
            <path class="cls-10" d="M239.88,248.15s-.84-8.86-.33-9.37c.5-.5,1.34-.17,1.5.33s.33,7.53.33,8.03-1.5,1.51-1.5,1Z"/>
            <path class="cls-108" d="M242.72,238.62c-.45,1.36-4.84,3.51-5.35,2.17-.5-1.34-.67-4.52,1.5-5.69,2.17-1.17,4.34,2.01,3.84,3.51Z"/>
            <path class="cls-63" d="M199.62,276.42s3.17,1.17,6.68,1c3.51-.17-4.68,6.19-6.01,4.35-1.34-1.84-1.67-5.52-.67-5.35Z"/>
            <path class="cls-10" d="M231.19,284.95c-1.89-.22-2.84-1.84-.84-4.18,2-2.34,9.36-9.03,10.69-10.04,1.34-1,2.34-1,2.17.5-.17,1.51-9.19,14.05-12.03,13.71Z"/>
            <path class="cls-10" d="M215.15,273.07s0-2.01,1.67-2.51,2.67-.5,3.01.5-.33,1.51.33,2.01,3.84,1,3.68,1.67c-.17.67-1.17.67-2.34.33s-1.67-1.17-2.34-.84c-.67.33-2.17,1.51-3.34.67-1.17-.84-.67-1.84-.67-1.84Z"/>
          </g>
          <g>
            <g>
              <g>
                <path class="cls-78" d="M84.13,81.62s.85-.11,1.67,0c.82.11,1.36.12,1.51.79-.05.45-1.14,2.65-1.14,2.65,0,0-.51-.04-1.81-.63-.48-.22-.77-.66-.77-.66l-.35-.41.12-1.46.76-.28Z"/>
                <path class="cls-78" d="M76.38,75.11s.45,2.86.47,3.04c2.61.85,5.51,2.8,7.28,3.47-.59,1.02-.53,2.15-.53,2.15,0,0-6-1.7-6.93-2.09-1.01-.42-1.89-1.3-1.89-1.3l-.4-4.71,2-.56Z"/>
                <path class="cls-35" d="M73.34,67.91c.59.05,1.87.32,2.31,2.44.23,1.08.63,3.58.74,4.47.2,1.59-3.49,1.94-3.7.82-.21-1.11-.82-3.02-1.05-3.99-.86-3.7,1.3-3.78,1.69-3.75Z"/>
                <path class="cls-6" d="M67.55,67.61c-.15.6-.65,1.18-.65,1.18l-.31,1.93,2.12,2.17,3.32-.32.59-2.52-1.26-2.87s-3.65.41-3.81.43Z"/>
                <path class="cls-95" d="M62.9,117.95c.22.29.2,1.01.03,1.45-.11.29-.56.51-1.93.61-2.17.16-2.89-1.33-2.89-1.33,0,0-1.17-2.27-1.38-3.35-.22-1.08-.21-1.77-.08-2.33.13-.56,1.11-.99,1.11-.99,0,0-.02,8.21,5.14,5.94Z"/>
                <path class="cls-35" d="M60.74,114.02s.19,1.32.67,2.13c.48.81,1.4,1.2,1.62,1.49.22.28.2,1.01.03,1.45-.11.28-.56.51-1.93.61-2.17.16-2.89-1.33-2.89-1.33,0,0-1.17-2.28-1.39-3.35-.22-1.08-.12-1.73.01-2.3.13-.56,1.02-1.02,1.02-1.02l2.85,2.32Z"/>
                <path class="cls-78" d="M61.84,101.56s-.13,1.33-.52,2.1c-.39.77-1.44,1.4-1.91,2.48-.47,1.09-.11,3.25-1.51,5.56-.19.32-.89,1.77.16,2.55,2.05,1.52,2.7.09,2.69-.22,0-.32-.05-1.22.26-1.93.31-.71.94-2.5,2.91-4.61.9-.97,2.36-4.44,2.36-4.44l-1.92-1.36-2.51-.13Z"/>
                <path class="cls-95" d="M80.41,120.65c.28.26.23.69,0,.96-.61.75-1.26.89-2.5.64-1.24-.25-1.67-.46-2.53-.57-.86-.1-2.2.08-2.93-.1-.73-.19-.93-.76-.92-1.49.02-.92,8.6.3,8.87.56Z"/>
                <path class="cls-35" d="M75.16,117.52s1.49,1.25,2.43,1.7c.93.45,2.55.88,2.82,1.13.28.26.23.69,0,.97-.61.75-1.26.89-2.5.64-1.24-.25-1.67-.46-2.53-.57-.86-.11-2.2.08-2.93-.11-.73-.19-.93-.76-.92-1.49.02-.92.16-1.81.16-1.81l3.46-.47Z"/>
                <path class="cls-78" d="M70.41,102.58s.35.9.35,2.18-.46,2.17-.35,4.29c.11,2.13,1.33,5.26,1.29,8.94,1.57.81,3.09-.12,3.46-.47-.63-5.08.08-10.67-.24-12.84-.31-2.16-.07-3.89-.07-3.89l-2.25-.86-2.2,2.65Z"/>
                <path class="cls-35" d="M64.35,86.15s-1.74,2.39-2.1,4.73c-.27,1.72-1.11,9.43-1.11,9.43,0,0-.21,1.41,2.2,2.27,4.22,1.51,12.53-.96,12.42-3.15-.31-6.17-.36-7.65-.49-9.11-.13-1.46-1.14-4.39-1.14-4.39l-9.79.21Z"/>
                <path class="cls-95" d="M63.65,72.06s2.52-2.14,3.25-3.26c.42,3.23,4.45,3.01,4.45,3.01,0,0,.91-1.08.36-3.76,1.44.57,2.48,2.18,2.89,3.62.41,1.44.46,2.57.38,5.44-.07,2.87-.38,7.13.03,10.9.04.37-.39,1.27-3.26,2.4-3,1.18-5.76,1.27-6.99.45-1.23-.82-2.02-1.73-1.76-2.59.26-.86.9-1.79.96-4.12.03-1.12-.01-2.39-.01-2.39l-.29-9.7Z"/>
                <path class="cls-78" d="M58.36,96.06s.42.72.91.83c.49.11.77-.22.77-.22l-.34-1.88-1.2.32-.15.95Z"/>
                <path class="cls-6" d="M59.54,96.91c-.28.07-.97-.95-.42-1.43.18-.16.42.53.42.53,0,0,.18.86,0,.9Z"/>
                <path class="cls-78" d="M59.36,94.95c-.23.34-.46.97-.06,1.6.63.99,1.07,1.16,1.5,1.15.73-.02.93-.23.98-.45.05-.21-.63-2.14-.63-2.14l-1.17-.49s-.39-.02-.62.32Z"/>
                <path class="cls-6" d="M59.12,95.49s1.58.72,2.31,2.06c.1.2.41-.67.41-.67l-2.72-2.18v.79Z"/>
                <path class="cls-78" d="M65.58,64.51c.41,1.92,1,1.75,1,1.75,0,0,1.65,2.84,3.66,3.42.68.2,1.55.05,1.88-.37,1.57-1.97,1.5-5.68,1.5-5.68l-.14-2.43-2.13-1.06-6.15,2.91s.3,1.04.39,1.46Z"/>
                <g>
                  <path class="cls-5" d="M85.47,98.31h0s-.08-.04-.07-.08c.78-9.04.36-14.47-.05-19.72-.42-5.44-.83-10.58.05-19.34,0-.04.04-.08.09-.07.04,0,.08.04.07.09-.87,8.74-.47,13.87-.05,19.31.41,5.26.83,10.69.05,19.74,0,.04-.04.07-.08.07Z"/>
                  <path class="cls-61" d="M86.44,59.59c0,.55-.44.76-.97.76s-.97-.21-.97-.76.97-1.59.97-1.59c0,0,.97,1.04.97,1.59Z"/>
                  <g class="cls-112">
                    <path class="cls-55" d="M92.94,48.84c0,5.43-3.35,9.83-7.48,9.83s-7.48-4.4-7.48-9.83,3.35-9.82,7.48-9.82,7.48,4.4,7.48,9.82Z"/>
                    <path class="cls-103" d="M88.5,47.6c-.45,3.61-3.04,6.25-5.78,5.91-2.75-.34-4.6-3.55-4.15-7.15.45-3.61,3.04-6.25,5.78-5.91,2.75.34,4.61,3.55,4.15,7.15Z"/>
                    <path class="cls-95" d="M82.13,44.08c-.22.75-.86,1.23-1.43,1.06-.57-.17-.86-.91-.64-1.66.22-.75.86-1.22,1.43-1.06.57.16.86.91.64,1.66Z"/>
                  </g>
                </g>
                <path class="cls-90" d="M76.79,59.75c-.28.98-1.3,1.55-2.28,1.27-.98-.28-1.55-1.31-1.26-2.29.28-.98,1.3-1.55,2.28-1.27.98.28,1.55,1.31,1.26,2.29Z"/>
                <path class="cls-31" d="M74.26,60.55c-.12.26-.73.55-1.06.38-.29-.15-.71-1.03-.52-1.47.15-.32.67-.48.93-.44.43.08.91.99.66,1.52Z"/>
                <path class="cls-90" d="M63.52,62.97c-.85.56-2,.33-2.56-.52-.57-.85-.33-2,.51-2.56.85-.56,2-.33,2.56.52.56.85.33,2-.52,2.56Z"/>
                <path class="cls-31" d="M63.97,60.76c.23-.17.9-.14,1.12.17.19.27.14,1.25-.23,1.54-.28.22-.7.13-.91-.04-.35-.27-.45-1.31.02-1.67Z"/>
                <path class="cls-90" d="M68.69,57.91c.92-.88,2.81-.26,3.85.76.95.93,1.3,1.68,1.37,2.55.1,1.29-.28,3.22-.38,2.06-.62-2.73-2.56-.84-3.35-1.88-.6,1.35-3.68.35-3.63,3.26,0,.2-.19.34-.28.19-.17-.27-.46-1.04-.64-.53-.04.12.04.21-.04.2-.21-.02-.52-.53-.72-1.09-1.17-3.27,2.07-5.93,3.82-5.51Z"/>
                <path class="cls-5" d="M68.71,58.03c1.27.79,1.41,3.27,1.41,3.27,0,0-.74-2.39-1.41-3.27Z"/>
                <path class="cls-78" d="M59.4,93.12c.39-1.37.91-1.85.91-1.85l1.64.5s.1.82.13,1.47c.03.65-.16,1.26-.16,1.26,0,0-2.63-1.01-2.53-1.38Z"/>
                <path class="cls-6" d="M60.14,91.48s1.51.59,1.89,2.56c-.51.3-1.54-.81-1.54-.81l-.36-1.76Z"/>
                <path class="cls-78" d="M61.26,80.37s-.33,1.97-.58,2.64c-.25.67-.44,1.89-.41,2.86.03.97.04,4.88.05,5.4.01.52,1.52.87,1.64.5.12-.36,1.29-4.03,1.51-5.57.22-1.55.21-2.33.22-2.68.02-.35.65-2.74.65-2.74l-3.1-.41Z"/>
                <path class="cls-35" d="M64.7,71.81c-.59,0-1.87.18-2.48,2.26-.61,2.11-.9,3.94-1.2,5.51-.29,1.58,3.41,1.86,3.7.77.29-1.09,1.1-3.74,1.4-4.69,1.13-3.63-1.02-3.86-1.42-3.86Z"/>
                <path class="cls-6" d="M61.22,83.57s.96.84,1.77.21c-.69.14-1.77-.21-1.77-.21Z"/>
                <path class="cls-6" d="M76.67,78.43s-1.24.3-1.16,1.35c.27-.67,1.16-1.35,1.16-1.35Z"/>
                <path class="cls-78" d="M85.91,81.85s-.48.11-.6.95c-.08.57.12,2.2.32,2.54.12.21.3.37.73.3.44-.08.82-.62.87-.85.37-1.65.08-2.37.08-2.37l-1.41-.56Z"/>
              </g>
              <g>
                <path class="cls-78" d="M57.92,92.38s-.07,1.94,0,2.48c.06.53.44,1.2.44,1.2l.89-.67s1.17.45,1.53.93c.36.48.62,1,.65,1.24,0,0-.59.38-.45.71.14.33.83-.01,1.19-.33.63-.56.48-2.72.21-3.28-.64-1.32-2.35-3.31-2.35-3.31l-2.11,1.04Z"/>
                <path class="cls-91" d="M54.03,69.57s1.47.45,1.56,2.86c.24,5.99,1,8.67,1,8.67,0,0,.43.9,1.22,2.75.24.56,1.47,5.74,2.21,7.49.19.46-1.21,1.73-2.11,1.04-1.84-3.94-2.96-4.94-4.03-7.23-1.07-2.29-1.54-15.29-1.54-15.29l1.69-.29Z"/>
                <path class="cls-5" d="M60.72,133.64c.2.19.39.54.45.77.04.14,0,.25,0,.25,0,0-.26.88-1.54,1.25-1.28.37-2.37.33-3.04.09-.67-.24-1.12-.79-1.79-.93-.67-.14-1.13.07-1.94-.13-.8-.2-1.46-.45-1.52-1.1-.06-.65.53-1.09.53-1.09,0,0,4.61,2.28,8.84.89Z"/>
                <path class="cls-95" d="M56.14,131.36s1.12.93,1.87,1.28c.75.36,2.4.45,2.71.75.31.3.45,1.02.45,1.02,0,0-.26.88-1.54,1.25-1.28.37-2.37.33-3.04.09-.67-.24-1.12-.79-1.79-.93-.67-.14-1.13.07-1.94-.13-.8-.2-1.46-.45-1.52-1.1-.06-.65-.14-1.52-.14-1.52l4.92-.71Z"/>
                <path class="cls-49" d="M53.8,92.96c1.61,13.3.85,18.08.85,19.92s.22,2.21.29,5.02c.21,8.18.71,11.84,1.18,13.18.47,1.34-4.59,2.86-5,.71-.41-2.15-1.74-8.9-1.95-11.37-.21-2.47.16-4.07.03-5.96-.13-1.89-3.47-15.36-3.47-15.36l3.07-4.72s4.89-2.29,5-1.41Z"/>
                <path class="cls-5" d="M37.76,130.16c.17.21.24.71.27,1.04.01.24,0,.36,0,.36,0,0-.1.53-2.81.76-1.38.12-2.33-.43-3.17-1.73-.72-1.11-.65-2.04-.95-2.99-.4-1.28-1.06-1.26-1.26-2.46s-.12-2.18.19-2.46c.1-.08.26-.21.26-.21,0,0,3.24,10.05,7.48,7.69Z"/>
                <path class="cls-95" d="M35.51,125.89s.39,2.04.79,2.58c.39.54,1.18.97,1.47,1.34.29.37.27,1.39.27,1.39,0,0-.1.53-2.81.76-1.38.12-2.15-.42-2.99-1.72-.72-1.11-.77-2.08-1.05-3.03-.28-.96-.92-1.01-1.13-2.21-.21-1.19-.01-2.4.29-2.59,1.09-.67,1.97-1.01,1.97-1.01l3.2,4.48Z"/>
                <path class="cls-59" d="M38.9,93.39c-1.23,3.96-1.94,16.96-2.29,18.22-.36,1.26-2.48,2.16-3.13,4.23-.8,2.52-2.14,6.17-2.14,6.17,0,0-.74,2.07.58,3.28,2.65,2.44,3.48.84,3.71.38.31-.63.64-3.95,3.13-7.37,1.03-1.41,2.71-2.31,3.51-4.57.8-2.26,4.5-12.68,4.5-12.68,0,0,5.84-1.36,6.85-7.67.18-.45-14.31-.7-14.72,0Z"/>
                <path class="cls-78" d="M45.73,67.56c-.29,1.28-.79,2.28-.79,2.28l-.62,2.2,2.45,2.29h3.03l2.55-2.23-.65-4.73-5.11-1.05s-.56,1.08-.85,1.24Z"/>
                <path class="cls-6" d="M48.97,67.79s.2.61.81.56c-.22,1.76,1.29,2.5,1.29,2.5l.27-1.97-2.07-1.64-.3.55Z"/>
                <path class="cls-18" d="M39.57,73.6s3.12-2.53,5.36-3.76c.41,3.94,4.6,3.76,4.6,3.76,0,0,1.03-1.22,1.37-3.32.12-.76,1.47-.71,1.47-.71,0,0,1.19.98,1.63,4.28.12.92.65,2.28.65,5.3,0,4.31-1.55,5.7-.81,13.39.05.47-.24,1.84-3.83,3.73-1.54.81-5.6,2.15-8.53.12-2.93-2.03-2.57-3-2.57-3,0,0,1.44-2.5,1.44-4.45s-.32-3-.32-3l-.45-12.35Z"/>
                <path class="cls-78" d="M55.05,62.01s.29,1.87.26,2.71c-.01.3-.37.6-.37.6,0,0,.67,1.21.66,1.55-.02.35-1.05.76-1.05.76,0,0-.61,3.19-1.4,3.22-3.48.12-3.09-2.71-3.09-2.71,0,0-.67-.04-.79-.43-.17-.58-1.14-.55-1.14-.55l.14-6.04,6.58-.37.19,1.26Z"/>
                <path class="cls-90" d="M49.12,68c.59-.83-.13-1.28.52-2.24.2-.3,1.12-.89,1.63-.16.12.17.16.76.22,1.02.07.26.64-.04.62-.26-.03-.22.12-1.08.34-1.15.6-.21,1.99-1.57,2.1-3.22,0,0,1.57.87,1.24-1.23-.1-.66-.67-1.68-3.7-2.35-4.43-.98-5.58.65-5.41.88,0,0-1.39.17-1.39,3.05,0,1.67.04,4.45.32,5.01.7,1.42,2.79,1.69,3.51.65Z"/>
                <path class="cls-5" d="M48.13,59.38s4.65.05,6.41,2.31c-1.96-1.62-6.41-2.31-6.41-2.31Z"/>
                <path class="cls-78" d="M45.64,95.57s.49.29.76.86c.23.48.1,1.3.1,1.3l-1.06-.19-.12-1.49.32-.49Z"/>
                <g>
                  <path class="cls-5" d="M45.29,109.22h0s-.07-.04-.07-.09c.78-9.04.36-14.46-.05-19.71-.42-5.44-.82-10.59.05-19.34,0-.04.04-.07.09-.07.04,0,.08.04.07.08-.87,8.74-.47,13.87-.05,19.31.41,5.26.83,10.69.05,19.74,0,.04-.04.07-.08.07Z"/>
                  <path class="cls-34" d="M46.26,70.5c0,.55-.43.76-.97.76s-.97-.21-.97-.76.97-1.59.97-1.59c0,0,.97,1.04.97,1.59Z"/>
                  <g class="cls-112">
                    <path class="cls-26" d="M52.76,59.75c0,5.43-3.35,9.82-7.48,9.82s-7.48-4.4-7.48-9.82,3.35-9.82,7.48-9.82,7.48,4.4,7.48,9.82Z"/>
                    <path class="cls-16" d="M48.32,58.51c-.45,3.61-3.04,6.25-5.78,5.91-2.75-.34-4.61-3.55-4.16-7.15.45-3.61,3.04-6.25,5.78-5.91,2.75.34,4.61,3.55,4.16,7.15Z"/>
                    <path class="cls-95" d="M41.95,54.99c-.22.75-.86,1.23-1.43,1.06-.57-.17-.86-.91-.64-1.66.22-.75.86-1.23,1.43-1.06.57.16.86.91.64,1.66Z"/>
                  </g>
                </g>
                <path class="cls-78" d="M43.03,95.28s.83,0,1.47,0c.64,0,1.05.25,1.05.25l.07,1.6s1.77.38,1.74,1.28c-.05,1.35-1.18,2.16-2.27,2.21-.73.03-1.25-.25-2.06-1.13-.76-.82-1.74-1.75-1.74-1.75l-.75-1.24,1.79-1.65.7.45Z"/>
                <path class="cls-91" d="M41.59,74.22c-2.07-2.07-4.19.87-4.58,2.87-.55,2.8-2.13,7.79-2.24,12.2-.11,4.41,4.9,6.26,6.52,8.44-.23-.5.22-2.4,1.74-2.45-2.36-2.54-2.31-4.09-4.51-6.62,2.44-3.73,3.93-9.19,3.93-9.19,0,0,1.21-3.18-.87-5.25Z"/>
                <path class="cls-52" d="M35.72,89.42c1.28-.75,2.8-.75,2.8-.75,0,0-1.52-.76-2.8.75Z"/>
              </g>
            </g>
            <g>
              <path class="cls-95" d="M13.82,140.87s-2.3.49-3.19-1.73c-.43-1.08-.89-2.28-1.26-2.95-.37-.67-1.28-1.66-1.36-2.5-.08-.85.38-1.24.61-1.3.93-.25,5.19,8.49,5.19,8.49Z"/>
              <path class="cls-20" d="M13.07,135.26l1.2,1.42-.22,3.9s-2.3.49-3.19-1.73c-.43-1.09-.89-2.28-1.25-2.95-.37-.67-1.28-1.65-1.37-2.5-.08-.85.38-1.24.61-1.3.93-.24,1.52-.18,1.52-.18l2.69,3.35Z"/>
              <path class="cls-95" d="M13.69,132.63c-.87,1.58-.64,2.57-.62,2.63.1.26-1.3,1.08-2.83-.91-.29-.38-1.06-1.84-.29-2.38.44-.31.89-.87,1.32-1.53l2.43,2.18Z"/>
              <path class="cls-78" d="M11.26,130.45c1.19-1.83,2.18-4.4,2.18-4.4l3.42-3.27,2.33.79,1.61,2.08s-.11.94-1.13,1.54c-3.52,2.12-5.2,4.02-5.98,5.44,0,0-.57.53-1.72-.28-1.15-.82-.71-1.9-.71-1.9Z"/>
              <path class="cls-95" d="M37.94,144.99c.21.27.32.86.09,1.07-.99.85-1.93.64-2.59.57-1.24-.12-1.7-.52-2.65-.64-.95-.12-1.34.1-2.22-.1-.56-.12-1.17-.45-1.28-1.08-.1-.63.41-1.76.41-1.76,0,0,8.03,1.68,8.24,1.95Z"/>
              <path class="cls-20" d="M32.46,141.45s1.14,1.38,2.18,1.92c1.04.54,3.1.99,3.3,1.26.21.27.32.86.09,1.06-.99.85-1.93.63-2.59.57-1.24-.12-1.7-.52-2.65-.64-.95-.12-1.34.1-2.22-.1-.56-.12-1.17-.45-1.28-1.08-.1-.63,0-2.62,0-2.62l3.19-.37Z"/>
              <path class="cls-95" d="M28.77,139.66c.28,1.09.48,1.93.51,2.21.21,2.15,1.99-.08,3.18-.43-.09-.28-.42-1.05-.7-2.5l-2.99.72Z"/>
              <path class="cls-78" d="M31.76,138.94c-.43-2.19-.76-5.92-.08-11.79.09-.81-.16-1.15-.16-1.15l-2.63-.66s-1.6-.09-1.62,1.24c-.05,3.26-.66,3.52-.51,4.72.22,1.65,1.33,5.75,2,8.37,0,0,.14.52,1.55.17,1.54-.39,1.43-.89,1.43-.89Z"/>
              <path class="cls-14" d="M24.8,115.99c.79,2.38,1.46,8.13,1.52,9.78.05,1.65,5.94.88,5.9-.63-.07-2.67,1.08-9.89-1.08-19.03-.39-1.1-7.91,4.71-7.91,4.71,0,0,1.11,3.77,1.58,5.17Z"/>
              <path class="cls-95" d="M31.08,106.11s-.41,4.32-5.49,6.72c-.68,4.16-2.5,7.87-4.26,12.47-.44,1.14-5.51-.47-4.99-2.82.4-3.08-.17-15.78-.17-15.78l14.91-.59Z"/>
              <path class="cls-31" d="M30.1,84.71s.72.16,1.19,1.24c.47,1.08,1.09,5.23,3.93,12.39-.38.28-1.3.93-1.3.93,0,0-1.35-.32-1.97-1.14-.62-.82-3.18-3.48-3.18-3.48l-1.39-11.13,2.7,1.19Z"/>
              <rect class="cls-6" x="21.06" y="83.82" width="6.53" height="5.97"/>
              <path class="cls-76" d="M18.66,89.11s2.4-2.15,2.94-2.83c.77,2.65,4.96,2.47,4.96,2.47,0,0,.8-2.01,0-3.67-.14-.63.77-.84,1.54-.71,1.63.55,1.69,3.21,1.69,3.21,0,0,3.37,4.71,3.3,6.42-.07,1.71-1.59,2.63-1.65,3.31-.32,3.74-.32,7.39-.32,8.2,0,1.39-.75,2.86-3.34,3.81-4.25,1.55-6.63.9-8.38-.01-1.53-.8-1.31-1.35-1.31-1.88,0-1.63,1.98-2.2,2.36-4.66.37-2.47-.59-4.07-.59-4.07l-1.2-9.59Z"/>
              <path class="cls-31" d="M23.09,97.29c1.26,2.36,4.28,1.24,4.28,1.24,0,0-3.39,2.3-4.28-1.24Z"/>
              <path class="cls-31" d="M20.8,105.64l-1.14-6.12s.76-3.02,1.68-6.3c.92-3.28-.76-3.79-1.2-3.95-2.65-.93-3.09,1.56-3.58,2.87-.49,1.31-.37,6.6-.37,6.6l1.34,8.11.85.75,1.85-.35.57-1.62Z"/>
              <path class="cls-12" d="M18.36,104.07c1.22,1.03,2.44,1.58,2.44,1.58l1.09,3.13,2.47-.19s.16-3.05-.13-3.94c-.29-.89-3.78-4.13-5.15-5.79-1.37-1.66-3.01-.78-3.01-.78l.32,4.57s1.67,1.41,1.99,1.42Z"/>
              <path class="cls-5" d="M28.52,78.4s1.57,3.61,1.64,5.32c.06,1.71-.76,2.82-.76,2.82,0,0,.26-1.17-1.36-1.91-.57-.26-.65-6.23-.65-6.23h1.13Z"/>
              <path class="cls-1" d="M24.14,150.83c.18.3.13.7.07,1.03-.07.34-.98.74-2.4.83-1.41.09-1.27-.57-2.74-.77-1.46-.2-1.33.13-2.29.08-1.04-.05-1.59-.31-1.62-1.04-.03-.74.54-1.36.54-1.36,0,0,8.26.93,8.44,1.23Z"/>
              <path class="cls-66" d="M19.19,147.95s1.7,1.36,2.56,1.81c.86.45,2.21.5,2.39.8.18.3.13.69.07,1.03-.07.33-.98.74-2.4.83-1.41.08-1.27-.57-2.74-.77-1.46-.2-1.33.13-2.29.08-1.04-.05-1.59-.31-1.62-1.05-.03-.74-.08-1.71-.08-1.71l4.1-1.03Z"/>
              <path class="cls-32" d="M11.93,126.41s1.66,6.52,1.66,7.89-.03,3.3,0,5.7c.03,2.4,1.11,7.22,1.34,8.66.24,1.44,4.45.46,4.25-.71-.81-4.75-.81-8.6-.81-14.76,0-8.6-.65-15.6-.65-15.6l-7.04,3.05,1.24,5.77Z"/>
              <path class="cls-1" d="M6.54,148.37c.14.41.07.8-.06.99-.52.75-1.6,1.01-2.42,1.01-1.63,0-2.28-1.01-2.45-1.55-.3-.96-.71-1.92-.71-1.92,0,0-.84-.97-.9-1.84-.06-.87.75-1.79.75-1.79,0,0,1.42,7.35,5.79,5.09Z"/>
              <path class="cls-66" d="M4.42,144.56s.17,1.17.6,1.81c.43.64,1.38,1.26,1.52,1.67.14.41.07.8-.06,1-.52.75-1.6,1.01-2.42,1.01-1.63,0-2.17-1.04-2.34-1.58-.3-.96-.77-1.83-.77-1.83,0,0-.82-.98-.88-1.85-.06-.88.62-2.43.62-2.43l3.72,2.19Z"/>
              <path class="cls-43" d="M6.12,117.92s-1.43,13.02-1.71,14.47c-.27,1.46-1.26,2.21-1.93,3.82-.67,1.61-.95,3.54-1.73,5.93-.78,2.38,3.34,3.71,3.66,2.42,1.02-4.1,1.42-5.24,3.9-9.02,1.44-2.19,4.12-10.7,4.12-10.7,0,0,4.94-1.24,5.3-7.25-.37-.24-11.61.33-11.61.33Z"/>
              <polygon class="cls-6" points="10.01 97.28 9.85 98.05 9.28 99.62 10.62 101.72 13.58 102.06 15.61 100.86 15.83 98.18 14.06 95.93 10.42 96.05 10.01 97.28"/>
              <path class="cls-40" d="M14.97,98.5c.28,1.55-.51,2.55-.51,2.55,0,0-2.83.45-3.65-.6-.81-1.05-.97-2.39-.97-2.39,0,0-1.36,1.15-3.07,3.33-.21.48.23,7.87.26,10.12.05,3.57-.92,6.42-.92,6.42,0,0-.15.91,1.91,1.72,2.67,1.05,5.22.81,7.03.18,1.29-.45,2.62-1.31,2.66-2.23.03-.92.4-10.71.61-12.73.21-2.03-.67-3.32-.9-4.13-.69-2.52-1.49-2.83-1.49-2.83,0,0-1.25-.95-.97.6Z"/>
              <path class="cls-78" d="M18.38,112.92s-1.41-.07-2.01.12c-.6.19-1.23.93-1.75,1.26-.52.33-.25.85.31.66.55-.19,1.37-.62,1.37-.62,0,0-.32.8-.68,1.07-.36.28-.65.34-1.42.59-.77.25-.68.87-.41,1.16.23.25,1.81,1.46,3.58.2,1.77-1.26,2.57-2.97,2.57-2.97l.2-1.3-1.14-.69-.62.52Z"/>
              <path class="cls-12" d="M20.6,107.95s-1.66,4.14-2.23,4.96c1.4.15,1.55,1.47,1.55,1.47l3.29-4.22-2.62-2.21Z"/>
              <path class="cls-78" d="M17.5,89.97s.3.78.32,1.27c.07,1.38-.32,2.25-.32,2.25,0,0,1.15,1.48,1.16,1.77.02.28-.56.58-.56.58,0,0-.28,2.2-.42,2.46-.14.26-2.57.34-3.57.07-1.59-.43-1.67-1.45-1.67-1.45-.76.18-1.22-.27-1.22-.27l-.91.05-1.34-2.64,2.2-3.49,3.58-1.1,2.74.49Z"/>
              <path class="cls-90" d="M17.03,90.42s.2.42,0,1.04c-.21.66.29,1.09.29,1.09,0,0-.57.28-1.23-.32-.48-.45-.76,1.69-2.58,2.15-.88.22-.52,1.01-.5,1.21-.62.05-.75-1.48-1.98-.81-.72.39-.14,1.77.2,1.88-.42.41-.8.74-1.17.65-2.08-.53-3.21-7.87-.02-8.24,2.14-3.33,10.21-.4,7.51,2.53.13-.8-.17-1.13-.52-1.18Z"/>
              <path class="cls-5" d="M11.03,88.93s3.17-.76,5.53.86c-2.35-.95-5.53-.86-5.53-.86Z"/>
              <path class="cls-78" d="M9.38,118.96s-.13,3.11,0,3.64c.13.53.76,1.7,1.1,1.85.34.14,1.93.57,2.37.33.44-.24,1.15-1.84,1.04-2.23-.12-.39-1.14-1.12-1.14-1.12,0,0-.51-2.4-.73-2.98-.22-.58-.67-.79-.67-.79l-1.06-.67-1.41,1.14.51.83Z"/>
              <path class="cls-12" d="M7.64,101.55c-1.75-.85-2.64,1.64-2.64,1.64,0,0-3.11,9.9-2.04,11.79,1.06,1.89,4.17,2.13,6.42,3.98.39-1.58,1.96-1.3,1.96-1.3l-4.56-4.26s1.95-7.59,2.2-8.57c.26-.99.41-2.42-1.34-3.27Z"/>
              <path class="cls-104" d="M4.42,114.25c1.3-.85,2.36-.86,2.36-.86,0,0-1.51-.62-2.36.86Z"/>
              <path class="cls-78" d="M23.24,108.28s.92-.46,1.25-.24c1.09.71.81,1.45.81,1.45,0,0,.63.49.74.97.11.49-.16.85-.94,1.33-.79.47-2.01.38-2.23.21-.69-.52-.97-1.83-.97-1.83l1.35-1.88Z"/>
              <path class="cls-31" d="M18.38,107.61s2.95,2.07,3.51,2.55c.56.48,2.07-.88,1.6-1.73-.34-.35-2.69-2.8-2.69-2.8l-2.42,1.97Z"/>
              <path class="cls-78" d="M28.07,79.31s.93,3.14.05,6.69c-.14.54-1.03,1.07-2.07.84-1.93-.42-3.51-2.32-3.51-2.32l-.78-2.77.75-3.27,4.56-1,.99,1.82Z"/>
              <path class="cls-5" d="M28.52,78.4l-.12.75-.33.17c-.13-.59-1.95-1.17-2.82.15-2.79-.2-2.05,2.48-2.54,4.39-.64,2.54-.73,3.82.02,5.18-1.55-.02-2.29-1.11-2.44-2.23-.32.34-.27.77-.27.77-.47-.24-1.14-2.72-.93-4.37.51-3.88-.79-6.66,2.09-7.8.73-1.58,3.56-1.71,5.45.35,1.11,1.21,1.56,1.97,1.9,2.63Z"/>
              <path class="cls-88" d="M21.43,75.77s2.13.93,3.45,3.17c-1.85-1.56-3.45-3.17-3.45-3.17Z"/>
              <path class="cls-31" d="M26.32,102.53s2.47-1.68,4.29-3.52c.53-.54,1.35-.88,1.35-.88l3.27.21s.59,1.64-1.93,3.21c-1.41.88-6.09,3.04-6.09,3.04l-.89-2.05Z"/>
              <path class="cls-78" d="M26.17,102.55c-.38.09-1.12-.32-1.85-.35-.73-.03-1.23,1.1-1.23,1.1,0,0-.83.43-1.14.67-.31.25-1.02.97-.32,2.01.69,1.04,2.86.77,3.79.25.93-.52,1.29-1.27,1.78-1.65.49-.38-.17-2.24-1.03-2.03Z"/>
            </g>
          </g>
          <g>
            <g>
              <path class="cls-78" d="M331.66,236.99c-1.06,1.99-1.79,5.14-1.79,5.14l3.02.6,1.15-3.34s-2.2-2.93-2.38-2.4Z"/>
              <path class="cls-95" d="M335.06,228.94s-1.55-.04-2.25,2.44c-.7,2.48-1.15,5.53-1.15,5.53l2.73-.18,2.41-6.43-.49-1.59-1.26.22Z"/>
              <path class="cls-67" d="M331.75,236.37s4.28-4.5,3.32-5.18c-1.64.62-3.32,5.18-3.32,5.18Z"/>
              <path class="cls-92" d="M335.26,281.79c-1.5,1.64-3.25,2.55-4.35,3.6-.52.52-.47,1.36.31,1.62.6.2,1.24.33,2.61-.26,1.25-.54,2.4-1.89,2.4-1.89,0,0,2.35-.52,2.6-1.17.25-.65-.31-2.42-.31-2.42,0,0-2.91.35-3.27.52Z"/>
              <path class="cls-62" d="M338.26,266.74s-4.05-1.24-4.06.23c0,1.47.74,3.13.74,3.13,0,0,.91,4.62.32,11.69-6.51,5.77,2.81,1.49,3.28-.63,0-2.21.92-6.4.92-6.4l.54-2.8-.63-3.12-1.1-2.1Z"/>
              <path class="cls-92" d="M340.39,282.78s-1.12.56-1.79.58c-1.23,1.53-3.89,4.03-4.15,4.45-.26.42,0,.91.4,1.16.51.33,1.56.61,3.18-.07,1.85-.77,3.39-2.87,3.7-3.51.31-.64-.16-2-.16-2l-1.17-.61Z"/>
              <path class="cls-78" d="M341.76,266.35h-2.16s-.76,1.64-.78,2.31c-.04,1.63.46,1.95.61,2.99.17,1.06-.11,9.7-.84,11.69-4.65,5.27,1.08,3.37,2.96.04.31-5.11,2.44-8.93,2.26-10.93-.19-2-.98-1.87-.95-4.9-.13-1.03-1.1-1.21-1.1-1.21Z"/>
              <path class="cls-92" d="M341.49,247.81h-2.5s-4.79,1.7-6.25,1.56c-1.46-.14-.42,6-.45,5.76-.03-.23,1.2,9.44,1.47,11.14.27,1.71,7.06,3.83,9.31,1.07.83-1.03,2-9.51,2.26-12.21.25-2.69-1.13-5.1-1.13-5.1l-2.71-2.23Z"/>
              <path class="cls-62" d="M341.11,227.98c.08-.4.07-1.16.07-1.16l-.72-.53-2.97.81-1.21,1.45.28,1.82-.28,3.47,2.11.44,2.44-.55.92-2.5-.38-1.35s-.36-.87-.27-1.92Z"/>
              <path class="cls-95" d="M345.77,234.37c-2.07-2.1-4.39-4.47-4.39-4.47,0,0-.29,1.32-.92,2-.63.69-3.01,1.58-3.01,1.58l-.22-3-.42-1s-.11-.55-.42-.55c-1.68,3.2-5.4,7.82-5.36,9.29.02,1.47,1.79,2.5,1.89,2.85.29,3.13-.41,8.85-.41,8.85,0,0,.48,3,2.63,3.84.4-.7.67-1.84.67-1.84,0,0,.3.99.34,2.14,2.79.35,3.96-3.73,5.24-4.27,1.37-.57,2.82.23,2.82.23,0,0-1.73-1.89-1.84-3.15-.12-1.26,1.03-2.87,1.14-3.3.1-.43,2.14-8.2,2.26-9.22Z"/>
              <path class="cls-67" d="M332.92,241.07s5.68,3.68,6.04,2.99c.37-.68-6.04-2.99-6.04-2.99Z"/>
              <path class="cls-67" d="M342.12,244.03c.27.47,1,.36,1,.36l.78-1.15.27-4.66-1.53-1.07-.51,6.52Z"/>
              <path class="cls-78" d="M335.07,221.12c-1.03,1.53-.89,3.36-.89,3.36,0,0-1.01,1.54-1.03,1.77-.02.24.68.5.68.5,0,0-.04,2.77.51,2.83,4.26.4,4.52-1.68,4.52-1.68,0,0,1.63.04,1.48-1.41.19-.54.11-2,.11-2,0,0-5-3.76-5.38-3.36Z"/>
              <path class="cls-105" d="M344.7,220.73s-.66,2.01-.37,2.35c.51,1.34-.46,4.7,0,5.83.45,1.13,1.37,2.03,1.37,2.03,0,0,2.9-3.28,2.6-6.11-.3-2.83-3.6-4.09-3.6-4.09Z"/>
              <path class="cls-83" d="M343.23,220.78v1.88l.62.27.48.13s1.28-1.2.53-2.29c-.12-.17-1.63,0-1.63,0Z"/>
              <path class="cls-74" d="M343.51,220.84s-1.48-1.82-3.73-1.82-4.78,1.19-4.71,2.22c.07,1.02,1.66,1.89,1.66,1.89,0,0-.08,1.23.36,1.89.64,1.01.91,1.85.91,1.85,0,0,.66-1.12,1.83-.86.2.04.56.19.52.46-.2,1.51.53,1.51.53,1.51,0,0,2.99,0,3.63-2.25.34-1.19-.63-2.81-.63-2.81l-.35-2.1Z"/>
              <path class="cls-78" d="M351.15,251.83c-.09-.17,1.2-.51.95-1.02-.25-.51-2.56.6-2.56.6l-1.36.03-.23,1.32s1.21,1.56,2.12,1.73c.9.17,3.72-1.36,3.38-1.92-.32-.57-1.7.26-2.31-.74Z"/>
              <path class="cls-78" d="M346.24,242.89l-1.28-.44-1.89,1.4s.35,4.06.47,4.45c.53,1.75,3.42,3.51,4.41,4.46.24-.21,1.66-1.02,1.59-1.35-1.36-1.49-1.79-2.75-2.97-3.97.07-1.63-.32-4.56-.32-4.56Z"/>
              <path class="cls-95" d="M344.57,234.12c-2.06.23-1.93,3.08-1.93,3.08v6.36c0,1.02,4.19,1.07,4.19-.32-.02-.99,0-6.79,0-6.79,0,0-.2-2.57-2.26-2.33Z"/>
              <path class="cls-78" d="M334.57,253.23c-.49-.45-1.6-1.02-1.8-1.3-.62-1.3.39-6.41.12-9.2-.55-1.42-2.25-1.65-3.02-.6-.21,2.66,1.03,7.19,1.16,9.81.04.89.78,2.99,1.11,3.52.33.53,2.13,2.48,3.28,2.16.06-.32-.83-2.66-.83-2.66,0,0,.08-.17.15-.41.45.19,1.39.54,1.4.26,0-.3-1.56-1.57-1.56-1.57Z"/>
              <polygon class="cls-83" points="336.81 240.41 338.7 241.51 338.84 240.44 336.95 239.34 336.81 240.41"/>
            </g>
            <path class="cls-65" d="M337.23,230.48l-.42-1c-.52.09-.93.13-.93.13-.57,1.91,1.3,3.76,1.3,3.76l.25-.28s-.62-1.43-.2-2.61Z"/>
            <path class="cls-65" d="M336,236.91c1.74-3.23,1.43-3.54,1.43-3.54,0,0-1.91.14-1.43,3.54Z"/>
            <path class="cls-57" d="M337.43,232.94c-.24,0-.43.19-.43.42,0,.24.19.43.43.43s.43-.19.43-.43c0-.23-.19-.42-.43-.42Z"/>
            <path class="cls-57" d="M337.43,233.37s-1.21,1.05.43,4.07c.51-3.64-.43-4.07-.43-4.07Z"/>
            <path class="cls-57" d="M341.24,229.42c-1.44,3.11-4.08,3.45-3.71,3.98.36.52,3.96-.08,4.87-2.48-.59-.89-.86-1.83-1.16-1.51Z"/>
            <g>
              <path class="cls-92" d="M316.25,283.33c-.98-.47-4.6-1.97-4.95-2.71-.23-.36-3.66-.67-3.66-.67l-2.15,1.34s-.61,2.12,0,2.58c.6.45,4.21.19,4.21.19,0,0,4.66,2.01,6.17,1.29.6-.28,1.36-1.54.38-2.01Z"/>
              <path class="cls-89" d="M306.91,249.54l-2.52,4.92s2.26,9.11,2.05,12.11c-.63,2.63-1.3,12.42-1.16,14.22.14,1.78,6.2,1.5,6.18-.43-.22-3.2.7-13.59.7-13.59,0,0,1.7-12.43.22-20.38-.42-.9-5.47,3.14-5.47,3.14Z"/>
              <path class="cls-92" d="M301.41,284.79c-.05-1.01-4.19-.97-4.19-.97,0,0-.04,2.82,0,4.07.12,3.45,4.93,2.91,5.2,2.33.13-.26.53-1.16-.13-2.53-.24-.5-.82-1.9-.88-2.91Z"/>
              <path class="cls-99" d="M299.16,248.4c-1.25,2.21-.58,15.8-.87,19.74-2,6.17-1.35,15.21-1.31,15.54.26,2.37,5.16,2.42,5.26-.58.53-13.12,3.1-18.75,4.26-27.86,0,0,3-1.63,5.89-8.85-.37-.32-12.39,1.11-13.22,2Z"/>
              <path class="cls-105" d="M312.32,245.11l-12.87,1.63-.28,1.66s3.12,5.42,13.22-2c-.08-.35-.06-1.28-.06-1.28Z"/>
              <path class="cls-8" d="M316.01,229.65c-1.31-4.1-6.2-4.54-6.2-4.54l-.71,1.82,2.88,8.69s1.99,2.38,2.91,3.47c.92,1.09,3.29,1.47,4.31.12,1.02-1.33-.19-4.49-2.43-9.34-.19-.41-.55.12-.77-.22Z"/>
              <path class="cls-28" d="M316.01,238.81s-.47-2.48-.55-7.04c-.84,4.77.55,7.04.55,7.04Z"/>
              <path class="cls-62" d="M305.62,223.6s-2.63.39-3.04.66c-.34,2.04-1.17,2.76-1.17,2.76l1.17,2.94,3.81,1.81,2.76-.78.67-2.06-1.22-3.12-2.97-2.21Z"/>
              <path class="cls-28" d="M312.64,229.17c-.59-2.06-3.14-3.1-3.14-3.1l-1.48.73s1.38,2.1-.41,3.34c-.96.67-2.94.09-4.13-1.21-1.04-1.14-1.37-2.99-1.37-2.99,0,0-2.28,2.55-5.1,4.47-.4,1.5,3.39,17.14,3.39,17.14,0,0,1.7,4.49,11.93-2.44-.42-2.1,1.75-10.99.32-15.94Z"/>
              <path class="cls-78" d="M307.33,217.62l-3.08.55-2.26,1.98v2.47s.19.78.48,1.5c.3.51.96.63.96.63,0,0,.19.87.82,1.4.63.53,1.62,2.01,3.85,2.31,1.06.14,1.68-.55,1.88-1.06.19-.49.8-6.57,0-8.27-.3-.34-2.65-1.52-2.65-1.52Z"/>
              <path class="cls-105" d="M305.04,216.25c-3.64.52-3.73,3.56-3.6,5.32.08,1.05,1.04,2.56,1.04,2.56,0,0-.47-1.98,0-2.1,1.15-.28,1.12,1.12,1.46.99.35-.13,1.4-2.21,2.13-2.49.74-.27,2.27.2,2.8,0,.54-.2,1.11-1.39,1.11-1.39,0,0-.9-3.48-4.94-2.89Z"/>
              <path class="cls-78" d="M313.96,226.6c-.56-.75-3.13-.63-3.58.03-.45.65-.26,2.19,0,2.58.61.89,2.16,1.02,2.16,1.02.94,1.08,2.92,1.55,2.92,1.55,0,0,1.52-.74,1.4-1.6-.19-1.28-1.88-2.2-2.9-3.58Z"/>
              <path class="cls-78" d="M311.39,240.83c-.95.21-.78,1.73-.78,1.73l1.22,2.55s1.82-.43,2.32-1.01c.5-.57.81-2.98.23-3.71-.57-.74-2.05.24-2.99.44Z"/>
              <path class="cls-8" d="M310.61,242.57c-1.88.63-7.69,1.54-7.69,1.54l-1.51-8.29s-.31-5.96-3.39-5.64c-4.33.44-2.05,6.55-2.05,6.55,0,0,1.98,11.17,4.07,12.08,3.14,1.39,10.37-3.08,11.54-3.53,1.16-.46.51-3.2-.96-2.71Z"/>
            </g>
          </g>
          <g>
            <path class="cls-95" d="M414.9,4.58s-11.36,5.94-12.55,18.34v45.56l13.23-8.15-.68-55.75Z"/>
            <polygon class="cls-36" points="400.21 84.65 389.86 78.66 389.86 83.02 400.21 89 400.21 84.65"/>
            <polygon class="cls-81" points="409.77 79.16 400.21 84.65 400.21 89 409.77 83.52 409.77 79.16"/>
            <polygon class="cls-25" points="400.21 84.65 389.86 78.66 399.41 73.18 409.77 79.16 400.21 84.65"/>
            <g>
              <path class="cls-30" d="M412.55,17.64l-1.31.78-.18.8-1.18.7,1.4-5.05,1.26-.75,1.4,3.38-1.21.72-.19-.58ZM412.31,16.88l-.41-1.27-.41,1.76.82-.49Z"/>
              <path class="cls-30" d="M411.02,20.15l1.15-.69v3.18l1.8-1.08v1.04l-2.95,1.77v-4.22Z"/>
              <path class="cls-30" d="M411.15,25.27l1.15-.69v3.18l1.8-1.08v1.04l-2.95,1.77v-4.22Z"/>
              <path class="cls-30" d="M403.62,18.17l5.43-3.25v1.61l-1.82,1.09v4.91l-1.79,1.07v-4.91l-1.82,1.09v-1.61Z"/>
              <path class="cls-30" d="M403.76,28.98c0-1.07.26-2.05.79-2.96.53-.91,1.26-1.64,2.2-2.2s1.7-.73,2.22-.46.78.93.78,1.98c0,.76-.11,1.46-.34,2.08-.23.62-.56,1.2-.99,1.73s-.96.98-1.61,1.37-1.19.6-1.62.62-.77-.14-1.04-.49-.4-.9-.4-1.67ZM405.55,27.92c0,.66.11,1.07.33,1.23s.51.13.88-.1.68-.55.89-.96.32-.98.32-1.71c0-.61-.11-1-.33-1.15s-.52-.12-.89.11-.65.53-.87.95-.33.96-.33,1.62Z"/>
              <path class="cls-30" d="M403.49,33.39l1.98-1.19,1.16,1.51,1.17-2.9,1.97-1.18-2.25,5.14v2.73l-1.79,1.07v-2.73l-2.25-2.45Z"/>
              <path class="cls-30" d="M403.74,43.91c0-1.07.26-2.05.79-2.96.53-.91,1.26-1.64,2.2-2.2s1.7-.73,2.22-.46.78.93.78,1.98c0,.76-.11,1.46-.34,2.08-.23.62-.56,1.2-.99,1.73-.43.53-.96.98-1.61,1.37-.65.39-1.19.6-1.62.62s-.77-.14-1.04-.49-.4-.9-.4-1.67ZM405.53,42.85c0,.66.11,1.07.33,1.23s.51.13.88-.1.68-.55.89-.96c.21-.41.32-.98.32-1.71,0-.61-.11-1-.33-1.15s-.52-.12-.89.11-.65.53-.87.95-.33.96-.33,1.62Z"/>
              <path class="cls-30" d="M403.99,47.95l5.43-3.25v1.61l-1.82,1.09v4.91l-1.79,1.07v-4.91l-1.82,1.09v-1.61Z"/>
              <path class="cls-30" d="M407.74,58.59l-2.03,1.21-.28,1.25-1.82,1.09,2.17-7.83,1.95-1.17,2.17,5.23-1.87,1.12-.29-.9ZM407.37,57.4l-.64-1.96-.63,2.72,1.27-.76Z"/>
            </g>
            <path class="cls-109" d="M399.63,79.52s-.52-47.78,0-56.37c.9-14.94,14.47-22.19,14.47-22.19"/>
          </g>
          <g>
            <polygon class="cls-47" points="292.89 95.06 292.56 22.72 246.22 49.64 246.55 121.97 292.89 95.06"/>
            <polygon class="cls-11" points="246.71 49.58 292.82 22.94 274.77 11.21 228.66 37.85 246.71 49.58"/>
            <polygon class="cls-39" points="246.41 121.71 246.71 49.58 228.72 37.88 229.04 111.1 246.41 121.71"/>
            <polygon class="cls-27" points="246.96 43.25 290.23 18.24 273.29 7.24 230.01 32.24 246.96 43.25"/>
            <polygon class="cls-22" points="247 41.18 287.08 18.23 273.23 8.91 233.15 31.86 247 41.18"/>
            <polygon class="cls-86" points="247.2 48.02 246.96 43.25 230.01 32.24 230.26 37.01 247.2 48.02"/>
            <polygon class="cls-86" points="290.52 22.99 290.28 18.22 246.96 43.25 247.2 48.02 290.52 22.99"/>
            <polygon class="cls-47" points="280.31 143 307.89 130.95 277.69 107.99 280.31 143"/>
            <g>
              <path class="cls-10" d="M249.59,120.69c1.45,9.77,9.29,18.18,16.79,16.29,8.35-2.1,12.65-6.52,11.19-16.29-1.45-9.77-8.89-17.69-16.62-17.69-7.73,0-12.81,7.92-11.36,17.69Z"/>
              <path class="cls-86" d="M254.27,121.36c.81,4.22,3.75,7.82,6.56,8.06,2.81.23,4.44-2.99,3.62-7.21-.81-4.22-3.75-7.82-6.56-8.06s-4.44,2.99-3.62,7.21Z"/>
            </g>
            <polygon class="cls-2" points="257.27 94.51 251.01 97.84 251.33 104.81 267.53 116.02 271.15 137.3 280.31 143 280.22 112.99 257.27 94.51"/>
            <polygon class="cls-85" points="280.22 112.99 280.32 140.55 306.08 157.1 328.19 147.79 327.84 136.63 280.22 112.99"/>
            <g>
              <polygon class="cls-100" points="322.87 146.46 306.17 153.37 306.15 150 322.85 143.1 322.87 146.46"/>
              <polygon class="cls-86" points="306.17 153.37 284.74 139.25 284.73 135.88 306.15 150 306.17 153.37"/>
              <polygon class="cls-100" points="322.83 137.98 306.13 144.88 306.12 141.52 322.82 134.61 322.83 137.98"/>
              <polygon class="cls-86" points="306.13 144.88 284.71 130.76 284.7 127.4 306.12 141.52 306.13 144.88"/>
            </g>
            <path class="cls-11" d="M312.5,138.04l-60.88-39.46s-1.59-34.53.75-40.59c1.17-3.03.92-6.28,8.21-10.54,3.64-2.13,25.18-14.03,29.52-15.67,4.72-1.77,8.92,3.92,10.92,4.43,3.55.91,63.47,40.49,63.47,40.49l-33.43,53.56-18.56,7.77Z"/>
            <path class="cls-47" d="M312.5,140.27s-.73-37.88,1.61-43.34c2.34-5.46,10.32-11.45,14.96-13.72,4.39-2.15,24.8-13.01,24.8-13.01l5.63,8.24-24,54.25-23,7.58Z"/>
            <polygon class="cls-86" points="311.35 74.83 275.56 51.77 275.53 46.02 311.33 69.07 311.35 74.83"/>
            <polygon class="cls-86" points="308.73 113.83 251.59 77.54 251.57 71.78 308.71 108.07 308.73 113.83"/>
            <polygon class="cls-27" points="311.33 69.07 275.53 46.02 302.97 30.96 338.77 54.02 311.33 69.07"/>
            <polygon class="cls-22" points="311.79 66.74 279.32 45.84 302.67 32.93 335.14 53.84 311.79 66.74"/>
            <polygon class="cls-48" points="315.78 167.77 336.12 160.5 319.04 151.63 315.78 167.77"/>
            <g>
              <path class="cls-10" d="M318.1,169.93c1.45,9.77,9.29,18.18,16.79,16.29,8.35-2.1,12.65-6.52,11.19-16.29-1.45-9.77-8.89-17.69-16.62-17.69-7.73,0-12.81,7.92-11.36,17.69Z"/>
              <path class="cls-86" d="M322.78,170.6c.81,4.22,3.75,7.82,6.56,8.06s4.44-2.99,3.62-7.21-3.75-7.82-6.56-8.06-4.44,2.99-3.62,7.21Z"/>
            </g>
            <polygon class="cls-86" points="338.79 59.77 311.35 74.83 311.33 69.07 338.77 54.02 338.79 59.77"/>
            <polygon class="cls-2" points="317.68 143.91 314.44 166.18 315.78 167.77 319.05 154.13 341.47 169.36 341.2 156.63 317.68 143.91"/>
            <polyline class="cls-110" points="404.53 119.36 402.5 129.66 397.18 127.24"/>
            <polyline class="cls-110" points="405.44 107.08 405.42 102.31 395.44 96.97"/>
            <polygon class="cls-11" points="316.5 143.6 316.6 92.84 357.7 69.17 395.64 90.18 399.38 122.49 399.04 155.33 347.7 184.87 341.36 180.54 338.4 159.74 316.5 143.6"/>
            <polygon class="cls-72" points="396.81 122.75 393.37 91.65 351.52 115.19 353.93 147.05 396.81 122.75"/>
            <polygon class="cls-72" points="349.2 146.33 347.39 116.33 323.77 101.25 325.21 124.74 349.2 146.33"/>
            <path class="cls-10" d="M347.41,149.71s4.49-1.54,4.86-2.12.69-11.57.37-12.94c-.24-1.01-1.08-1.06-1.64-1.06s-6.27,1.88-6.27,1.88c0,0-.79.63-.79,1.35s-.1,11.97-.09,12.7c0,.72.71.87,1.41.72.7-.14,2.15-.53,2.15-.53Z"/>
            <path class="cls-51" d="M351.26,166.3l-.26-12.47s4.94-1.08,5.59-.94,5.19,7.3,5.19,7.3l-10.51,6.11Z"/>
            <polygon class="cls-51" points="392.82 140.45 394.72 131.11 399.22 127.36 399.04 137.08 392.82 140.45"/>
            <polygon class="cls-10" points="391.76 135.89 362.18 153.32 362.18 151.5 391.75 134.07 391.76 135.89"/>
            <polygon class="cls-10" points="391.67 140.44 362.09 157.88 362.09 156.06 391.66 138.63 391.67 140.44"/>
            <path class="cls-51" d="M357.36,97.57s-15.68,5.46-17.13,6.52c-1.45,1.06,1.34,5.04,6.16,4.33s15.01-6.23,16.95-6.88c1.94-.65-3.82-4.64-5.98-3.97Z"/>
            <path class="cls-51" d="M372.46,90.8s11.34-8.68,12.84-9.28c1.5-.61,3.45,1.02,4,2.11.56,1.09-10.78,9.76-12.08,10.12s-5.45-1.05-4.76-2.95Z"/>
            <path class="cls-10" d="M357.54,97.25s4.42,3.18,5.01,4.67c.2.51,2.27-.3,3.54-.89s11.17-6.07,12-6.61-2.8-3.8-5.68-4c-.9-.06-12.37,5.89-14.87,6.82Z"/>
            <path class="cls-10" d="M404.2,121.56s4.49-1.54,4.86-2.12.69-11.57.37-12.94c-.24-1.01-1.08-1.06-1.64-1.06s-6.27,1.88-6.27,1.88c0,0-.79.63-.79,1.35s-.1,11.97-.09,12.7c0,.72.71.87,1.41.72.7-.14,2.15-.53,2.15-.53Z"/>
            <polygon class="cls-106" points="248.29 54.39 315.28 93.9 347.39 116.33 347.7 184.87 341.36 180.54 338.4 159.74 312.5 140.27 306.16 141.86 306 159.13 272.47 132.31 267.96 112.77 248.65 98.45 248.29 54.39"/>
          </g>
          <g>
            <polyline class="cls-110" points="309.77 165.07 307.74 175.37 302.42 172.95"/>
            <polyline class="cls-110" points="310.68 152.79 310.66 148.02 300.68 142.68"/>
            <path class="cls-10" d="M309.44,167.27s4.49-1.54,4.86-2.12.69-11.57.37-12.94c-.24-1.01-1.08-1.06-1.64-1.06s-6.27,1.88-6.27,1.88c0,0-.79.63-.79,1.35s-.1,11.97-.09,12.7.71.87,1.41.72c.7-.14,2.15-.53,2.15-.53Z"/>
            <g>
              <polygon class="cls-4" points="136.18 163.93 159.17 153.85 135.92 135.37 136.18 163.93"/>
              <g>
                <path class="cls-10" d="M142.4,163.21c1.45,9.77,9.29,18.18,16.79,16.29,8.35-2.1,12.65-6.52,11.19-16.29-1.45-9.77-8.89-17.69-16.62-17.69-7.73,0-12.81,7.92-11.36,17.69Z"/>
                <path class="cls-86" d="M147.08,163.88c.81,4.22,3.75,7.82,6.56,8.06s4.44-2.99,3.62-7.21c-.81-4.22-3.75-7.82-6.56-8.06-2.81-.23-4.44,2.99-3.62,7.21Z"/>
              </g>
              <polygon class="cls-38" points="169.82 181.28 159.02 154.69 128.53 137.63 128.5 125.74 172.13 109.23 196.99 124.68 200.39 165.9 169.82 181.28"/>
              <polygon class="cls-38" points="145.84 143.4 136.18 164.01 128.92 159.44 128.53 133.32 145.84 143.4"/>
              <polygon class="cls-33" points="171.77 169.91 161.05 144.46 128.5 125.74 156.92 107.64 175.61 126.08 171.77 169.91"/>
              <polygon class="cls-64" points="166.49 119.91 190.79 106.76 171.75 94.34 146.92 108.75 166.49 119.91"/>
              <polygon class="cls-39" points="166.63 143.15 166.49 119.91 146.92 108.75 147.06 132.25 166.63 143.15"/>
              <polygon class="cls-37" points="187.63 129.15 187.49 105.91 166.49 119.91 166.63 143.15 187.63 129.15"/>
              <polygon class="cls-100" points="170.39 116.88 153.67 105.36 153.62 93.54 170.35 105.06 170.39 116.88"/>
              <polygon class="cls-45" points="170.35 105.06 153.62 93.54 164.83 89.6 181.55 101.12 170.35 105.06"/>
              <polygon class="cls-4" points="214.43 208.02 237.42 197.95 205.01 176.05 204 201.28 214.43 208.02"/>
              <polygon class="cls-2" points="262.58 118.13 208.13 85.7 166.81 105.74 167.83 181.28 208.22 205.6 208.22 186.51 215.33 191.05 215.34 138.09 262.58 118.13"/>
              <g>
                <path class="cls-10" d="M222.45,214.43c1.45,9.77,9.29,18.18,16.79,16.29,8.35-2.1,12.65-6.52,11.19-16.29-1.45-9.77-8.89-17.69-16.62-17.69-7.73,0-12.81,7.92-11.36,17.69Z"/>
                <path class="cls-86" d="M227.14,215.1c.81,4.22,3.75,7.82,6.56,8.06s4.44-2.99,3.62-7.21c-.81-4.22-3.75-7.82-6.56-8.06s-4.44,2.99-3.62,7.21Z"/>
              </g>
              <polygon class="cls-2" points="214.05 186.41 214.15 134 258.79 112.64 301.11 139.91 304.85 172.23 304.51 199.64 252.05 229.37 245.71 225.04 242.76 204.24 214.05 186.41"/>
              <polygon class="cls-39" points="196.46 182.42 196.18 121.39 176.37 108.34 176.65 170.82 196.46 182.42"/>
              <polygon class="cls-11" points="304.51 199.64 258.77 225.42 256.73 191.92 254.21 159.23 301.11 137.05 304.85 172.23 304.51 199.64"/>
              <polygon class="cls-72" points="302.96 171.07 299.54 138.46 255.87 163.11 258.26 196.58 302.96 171.07"/>
              <polygon class="cls-72" points="253.55 196.15 251.74 161.71 228.81 148.07 229.56 174.55 253.55 196.15"/>
              <polygon class="cls-72" points="213.8 164.55 226.23 173.42 226.15 147.39 213.72 139.71 213.8 164.55"/>
              <polygon class="cls-11" points="301.11 137.05 254.21 159.46 166.66 106.09 210.5 80.6 301.11 137.05"/>
              <polygon class="cls-39" points="237.62 112.72 153.63 96.05 153.58 82.22 237.57 98.89 237.62 112.72"/>
              <polygon class="cls-17" points="237.57 98.89 153.58 82.22 162.63 78.24 246.62 94.9 237.57 98.89"/>
              <g>
                <polygon class="cls-41" points="258.73 114.57 284.03 100.23 255.22 84.57 229.92 98.9 258.73 114.57"/>
                <polygon class="cls-73" points="258.37 112.25 280.24 99.86 255.34 86.68 233.48 99.07 258.37 112.25"/>
                <polygon class="cls-42" points="259.78 140.71 258.73 114.57 229.92 98.9 230.97 125.05 259.78 140.71"/>
                <polygon class="cls-53" points="284.81 126.15 283.76 100.01 258.73 114.57 259.78 140.71 284.81 126.15"/>
              </g>
              <path class="cls-10" d="M250.87,193.62s4.49-1.54,4.86-2.12.69-11.57.37-12.94c-.24-1.01-1.08-1.06-1.64-1.06s-6.27,1.88-6.27,1.88c0,0-.79.63-.79,1.35,0,.72-.1,11.97-.09,12.7s.71.87,1.41.72c.7-.14,2.15-.53,2.15-.53Z"/>
              <path class="cls-51" d="M255.62,215.53l-.27-12.48s5.06-.95,5.72-.78,5.31,7.44,5.31,7.44l-10.77,5.82Z"/>
              <polygon class="cls-51" points="298.19 190.88 300.14 181.59 304.75 177.96 304.56 187.26 298.19 190.88"/>
              <polygon class="cls-10" points="297.1 185.05 266.81 202.85 266.8 201.03 297.09 183.24 297.1 185.05"/>
              <polygon class="cls-10" points="297.01 189.61 266.71 207.4 266.71 205.59 297 187.79 297.01 189.61"/>
              <path class="cls-51" d="M255.11,153.55c-2.51.32-5.32-1.52-5.77-2.88-.45-1.36-.62-7.73,2.18-8.03s5.63,5.76,5.93,7.88c.3,2.12-1.17,2.88-2.35,3.03Z"/>
            </g>
          </g>
          <g>
            <path class="cls-107" d="M21.26,193.91c-.1.19-.22.4-.35.61-.25-.23-.57-.39-.85-.44.02-.17-.06-.52-.12-.84.02.01.04.03.06.04.13.03.71.44,1.26.64Z"/>
            <path class="cls-84" d="M7.89,219.13s.07-.02.12-.04c.17.31.32.68.39,1.14.1.64.18,1.39-.02,1.72-.01.02-.02.04-.04.05-.02.02-.04.04-.07.06h0c-.05.08-.28.24-.55.07-.28-.17-.65-.55-.81-.98-.15-.42-.16-.63-.34-.85-.18-.22-.95-.97-.71-1.71.04-.14.13-.18.22-.2.17-.3.48-.51.78-.67-.15.18.45,1.4,1.02,1.4Z"/>
            <path class="cls-84" d="M11.87,224.22c.05-.03.13-.17.22-.39.31.13.64.31.98.6.49.42,1.03.94,1.09,1.33,0,.02,0,.04,0,.07,0,.03,0,.06-.01.09h0c.01.09-.06.36-.38.41-.32.05-.86,0-1.25-.23-.39-.22-.53-.38-.81-.43-.28-.06-1.35-.13-1.64-.85-.05-.13-.02-.22.04-.3-.06-.34.04-.7.16-1.01h0s0,0,0,0c-.04.23,1.08.99,1.58.71Z"/>
            <path class="cls-56" d="M13.54,209.01c1.09-.58,1.83-.59,2.13-1.57.09-.29.16-.6.23-.91-.2,1.21-.8,4.99-1.32,6.8-.27-1.38-.74-3.25-1.04-4.32h0Z"/>
            <path class="cls-56" d="M11.56,215.55c-.16.36-.3.78-.41,1.18-1.35,1.12-2.7,2.18-3.14,2.36-.04.02-.09.04-.12.04-.58,0-1.17-1.22-1.02-1.4h0c.83-.97,2.2-2.43,3.25-3.38.36-.33.74-.67,1.13-.98.07.12.14.25.21.36.33.55.37,1.23.1,1.81Z"/>
            <path class="cls-46" d="M9.56,208.15c.26.52.5.92.69,1.12l.15.99h0c0,.24,0,.38,0,.38.12,0,.23-.02.35-.04l.25.24,1.08-.31v-.45c.59-.38,1.06-.84,1.47-1.06.3,1.07.77,2.93,1.04,4.32.03.17.07.34.09.49.08.43.06.88-.05,1.3-.47,1.81-1.89,7.2-2.52,8.71-.09.22-.17.36-.22.39-.5.28-1.62-.49-1.58-.71,0,0,0,0,0,0,.24-1.25.36-4.31.61-5.7.05-.3.13-.68.24-1.07.11-.4.25-.82.41-1.18.26-.58.23-1.26-.1-1.81-.07-.11-.14-.24-.21-.36-1.06-1.79-2.24-4.16-2.32-5.21,0-.11,0-.22,0-.33.05.04.1.07.15.1.15.07.31.15.48.21Z"/>
            <path class="cls-46" d="M13.54,209.01h0c-.41.22-.88.68-1.47,1.06v-.71s-.45-.42-.45-.42c.07-.11.12-.24.12-.37,0-.08-.03-.24-.08-.45,1.61-.58,3.07-1.28,3.87-1.73.16-.09.32-.18.46-.28-.02.14-.05.28-.08.42-.07.31-.14.62-.23.91-.29.98-1.03.98-2.13,1.57Z"/>
            <path class="cls-46" d="M10.39,210.64s0-.14,0-.38l.34.33c-.11.02-.23.04-.35.04Z"/>
            <path class="cls-101" d="M21.07,194.67c.06.71-2.06,5.55-4.38,6.52.04-1.3.03-2.36.04-3.03.03-1.3-.2-3.84-.44-4.42.74.86,1.26,2.24,1.3,3.78.64-.91,1.89-3.01,2.24-3.47.07,0,.15,0,.23.02.28.05.59.22.85.44.06.05.12.1.17.15Z"/>
            <path class="cls-107" d="M13.79,192.86h0c.26.23,1.12,1.51.1,1.81-1.02.3-2.38-.3-2.73-1.02,0,0,0,0,0,0,.12-.4.1-.92.03-1.41,0,0,0,0,0,.01.55.4,2,.65,2.61.48,0-.05.01-.11.02-.17h0c-.01.1-.02.21-.03.3,0,0,0,0,0,0h0Z"/>
            <path class="cls-107" d="M11.14,191.9s0,.03.01.05c0-.02,0-.03-.01-.05Z"/>
            <path class="cls-107" d="M11.07,191.61s0,.04.01.06c0-.02,0-.04-.01-.06Z"/>
            <path class="cls-44" d="M8.8,194.82s.05-.05.08-.07c-.03.03-.05.06-.08.09,0,0,0-.02,0-.02Z"/>
            <path class="cls-44" d="M9.56,208.15c-.17-.06-.34-.14-.48-.21-.06-.03-.1-.07-.15-.1-.27-.19-.47-.48-.53-.81-.06-.37-.09-1.07-.09-1.96.36,1.09.83,2.24,1.25,3.08Z"/>
            <path class="cls-44" d="M16.73,198.15c-.01.68,0,1.73-.04,3.03-.04,1.27-.13,2.77-.35,4.39-.03.24-.18.4-.36.53-.14.1-.3.19-.46.28-.8.45-2.26,1.15-3.87,1.73-.34-1.31-1.61-4.73-1.61-5.52,0-.92,1.03-4.02,1.08-5.98.05-1.95-1.01-2.03-1.56-2.1-.24-.03-.44.04-.63.19.37-.28,1.29-.68,1.89-.92.38.66,1.51,1.29,2.53,1.29.22,0,.44-.03.64-.09.37-.11.61-.35.69-.69.12-.51-.19-1.14-.46-1.52-.13.02-.27.05-.42.08.65-.18,1.16-.18,1.44-.04.4.2.83.5,1,.83.02.02.03.05.05.09.24.58.47,3.12.44,4.42Z"/>
            <path class="cls-44" d="M13.79,192.86h0c.26.23,1.12,1.51.1,1.81,1.02-.3.16-1.57-.1-1.81Z"/>
            <path class="cls-101" d="M14.68,194.3c-.08.33-.32.58-.69.69-.21.06-.42.09-.64.09-1.02,0-2.15-.63-2.53-1.29,0,0,0,0,0-.01.12-.05.23-.08.35-.12,0,0,0,0,0,0,.35.72,1.71,1.32,2.73,1.02,1.02-.3.16-1.57-.1-1.81h0s0,0,0,0c0,0,0,0,0,0,.15-.03.29-.06.42-.08.27.38.57,1.01.46,1.52Z"/>
            <path class="cls-9" d="M11.09,191.68c.02.07.03.15.05.23-.02-.08-.03-.15-.05-.23Z"/>
            <path class="cls-9" d="M11.07,191.61c-.01-.06-.03-.11-.04-.17,0,0,0,0,0,0,.01.05.03.11.04.17Z"/>
            <path class="cls-9" d="M11.15,191.96c.02.09.03.18.05.28-.01-.09-.03-.19-.05-.28Z"/>
            <path class="cls-107" d="M13.82,192.56c0,.05-.01.12-.02.17-.61.17-2.06-.08-2.61-.48,0,0,0,0,0-.01-.01-.09-.03-.19-.05-.28,0-.02,0-.03-.01-.05-.02-.08-.03-.15-.05-.23,0-.02,0-.04-.01-.06-.01-.06-.03-.11-.04-.17.78.7,1.89,1.03,2.79,1.11Z"/>
            <path class="cls-9" d="M13.82,192.56c0,.05-.01.12-.02.17-.61.17-2.06-.08-2.61-.48,0,0,0,0,0-.01-.01-.09-.03-.19-.05-.28,0-.02,0-.03-.01-.05-.02-.08-.03-.15-.05-.23,0-.02,0-.04-.01-.06-.01-.06-.03-.11-.04-.17.78.7,1.89,1.03,2.79,1.11Z"/>
            <path class="cls-107" d="M12.07,210.07v.45l-1.08.31-.25-.24-.34-.33h0s-.15-.99-.15-.99c.06.06.12.11.16.13.46.16.98-.08,1.21-.45l.45.42v.71Z"/>
            <path class="cls-101" d="M11.12,196.61c-.05,1.95-1.08,5.06-1.08,5.98,0,.79,1.27,4.22,1.61,5.52.05.21.09.37.08.45,0,.13-.05.26-.12.37-.23.38-.75.61-1.21.45-.05-.02-.1-.06-.16-.13-.18-.19-.42-.59-.69-1.12-.42-.84-.89-1.99-1.25-3.08-.3-.89-.52-1.75-.58-2.36-.18-1.69-.13-6.57,1.07-7.87.03-.03.05-.06.08-.09.02-.02.04-.04.06-.05.18-.15.39-.22.63-.19.55.07,1.6.15,1.56,2.1Z"/>
            <path class="cls-107" d="M11.03,191.45s0,0,0,0c-.09-.08-.18-.16-.25-.25.16-.2.26-.82.66-1.57.2-.37.7,0,.59.41.08.16.23.34.41.38.12-.54.35-1.44.75-2.08.84.14,1.58-.2,2.09-.65,0,0,.01.01.02.02.15.18.24.46.31.97.02.16-.11.47-.06.65,0,.03.01.05.02.08.52.78-.05,2.82-.35,3.01-.22.15-.75.21-1.39.15h0c-.9-.08-2.01-.42-2.79-1.11Z"/>
            <path class="cls-98" d="M10.34,186.67c.07.35.67.95,2.44,1.57.14.05.28.06.42.09-.41.63-.64,1.54-.75,2.08-.18-.04-.33-.22-.41-.38.11-.41-.39-.78-.59-.41-.4.76-.5,1.37-.66,1.57-.1.12-.22.09-.45-.16-.79-.87-1.32-4.08.24-5.14-.19.29-.27.59-.23.77Z"/>
            <path class="cls-97" d="M13.19,188.33c-.14-.02-.28-.04-.42-.09-1.76-.62-2.37-1.22-2.44-1.57-.04-.18.04-.49.23-.77.46-.71,1.6-1.34,3.42-.03,1.23.88,1.71.86,2.01.69,0,.28-.28.74-.72,1.13-.51.45-1.25.78-2.09.65Z"/>
            <path class="cls-107" d="M40.15,186.34c.14.24.27.52.39.8l-.9.49c-.06-.07-.12-.1-.18-.06-.02.01-.03.05-.05.07-.03.06-.05.14-.05.24,0,.31.08.74-.17.88-.19.1-.37-.46-.58-1.12,0-.03-.02-.05-.02-.08-.14-.45-.3-.93-.49-1.27.35-.32.72-.93.85-1.49.49.52.96,1.12,1.2,1.53Z"/>
            <path class="cls-56" d="M34.59,175.49c.05-2.21-.27-6.75-.68-7.23h0c-.12-.24-.35-.44-.61-.63.33.1,1.22.52,1.63,2.3.51,2.2.28,5.99.29,7.03,0,1.04,3.59,6.39,3.78,7.26.04.17.01.39-.04.61-.14.56-.51,1.17-.85,1.49-.19.18-.37.27-.5.2-.28-.16-2.03-1.52-3.36-3.09.33-3.59.31-6.27.35-7.93Z"/>
            <path class="cls-107" d="M29.94,166.86h0s0,0,0,0c0,.07-.02.15-.02.21,0,0,0,0,0,0l.02-.21Z"/>
            <path class="cls-107" d="M25.59,165.09s.01.06.02.09c0-.03-.01-.06-.02-.09Z"/>
            <path class="cls-107" d="M25.72,168.39s0,0,0,0c0,0,0-.02,0-.02v.02s0,0,0,0Z"/>
            <path class="cls-107" d="M25.69,165.55s.01.06.02.09c0-.03-.01-.06-.02-.09Z"/>
            <path class="cls-97" d="M30.34,216.52l.28.1.33.12c.7.25,1.43-.14,1.66-.79.49.19.9.39,1.1.59.94.92,2.09,1.95,1.91,2.62h.01c.02.16-.11.63-.67.72-.56.09-1.52,0-2.2-.4-.69-.4-.93-.67-1.43-.77-.49-.1-2.39-.23-2.9-1.51-.09-.22-.04-.37.04-.49-.12-.57.07-1.19.28-1.72.28.7.84,1.28,1.58,1.54Z"/>
            <path class="cls-97" d="M24.31,219.37l.28.1.33.12c.75.26,1.53-.19,1.71-.93.43.17.79.36.97.54.94.92,2.09,1.95,1.91,2.62h.01c.02.16-.11.63-.67.72-.56.09-1.52,0-2.2-.4-.69-.4-.93-.67-1.43-.77-.5-.1-2.39-.23-2.9-1.51-.09-.22-.04-.37.04-.49-.12-.58.08-1.21.29-1.75.24.8.84,1.46,1.66,1.75Z"/>
            <path class="cls-84" d="M33.47,191.08l-.77,24.44c0,.15-.04.28-.08.41-.24.65-.96,1.04-1.66.79l-.33-.12-.28-.1c-.74-.26-1.31-.83-1.58-1.54-.12-.31-.19-.63-.19-.98,0,0-.38-12.65-.38-12.92,0-1.32-.08-3.48-.18-5.76,1.16-.32,2.11-.75,2.84-1.15,1.57-.84,2.36-1.8,2.62-3.09Z"/>
            <path class="cls-82" d="M22.76,192.86c.59-.68-.51-1.68-.99-2.06,0-.32-.01-.61-.02-.88.15.16.34.3.58.42.92.46,2.27.92,3.54.48,2.79-.96,5.35-2.18,6.72-2.95.37-.21.74-.41,1-.69.02.88,0,1.89-.01,2.96,0,.34-.04.64-.1.94-.26,1.3-1.04,2.25-2.62,3.09-.73.39-1.69.83-2.84,1.15-.14.04-.27.08-.41.12l-.93,22.95c0,.1-.02.19-.04.28-.18.73-.96,1.19-1.71.93l-.33-.12-.28-.1c-.82-.29-1.42-.95-1.66-1.75-.07-.24-.11-.5-.11-.77,0,0-.56-13.63-.56-13.96-.02-1.86-.09-5.65-.15-8.91.34-.11.78-.95.93-1.12Z"/>
            <path class="cls-58" d="M27.44,172.09l5.73-.56-.99-3.56-2.27-.91s0,0,0,0c1.01-.22,1.85-.29,2.29-.07.36.17.75.38,1.08.62.26.19.49.4.61.63h0c.41.49.73,5.03.68,7.23-.04,1.66-.02,4.34-.35,7.93-.09.99-.2,2.04-.35,3.17-.03.25-.15.43-.3.59-.26.28-.63.48-1,.69-1.37.77-3.93,1.99-6.72,2.95-1.26.44-2.62-.02-3.54-.48-.24-.12-.43-.26-.58-.42-.05-.05-.1-.11-.14-.17,0-.22-.17-.78-.41-1.51-.35-2.43-.6-5.86-.65-8.18.25-.35.48-.67.62-.86.64-.87,2.52-3.8,3.35-5.3,1.22-2.2-.46-3.39-1.04-3.8-.3-.21-.67-.23-1.08-.11.33-.3.74-.59,1-.7.66-.27,1.46-.59,2.29-.9,0,0,0,0,0,0l1.73,3.7Z"/>
            <path class="cls-9" d="M25.73,165.8c0-.06-.02-.11-.03-.17,0,.05.02.1.03.16h0Z"/>
            <path class="cls-9" d="M25.61,165.19c.03.12.05.24.07.36-.02-.12-.05-.24-.07-.36Z"/>
            <path class="cls-9" d="M29.95,166.67h0s0-.01,0-.02c0,0,0,0,0,0,0,.06-.02.14-.02.2,0-.06.01-.12.02-.18h0Z"/>
            <path class="cls-9" d="M25.59,165.09c-.02-.09-.04-.17-.06-.26h0c.02.08.04.17.06.26Z"/>
            <path class="cls-107" d="M29.96,166.65s0,.01,0,.02c0,0-2.32.6-4.22-.88h0s-.02-.1-.03-.15c0-.03-.01-.06-.02-.09-.02-.12-.05-.24-.07-.36,0-.03-.01-.06-.02-.09-.02-.09-.04-.17-.06-.26,1.17,1.21,3.03,1.73,4.43,1.82Z"/>
            <path class="cls-9" d="M29.96,166.65s0,.01,0,.02c0,0-2.32.6-4.22-.88h0s-.02-.1-.03-.15c0-.03-.01-.06-.02-.09-.02-.12-.05-.24-.07-.36,0-.03-.01-.06-.02-.09-.02-.09-.04-.17-.06-.26,1.17,1.21,3.03,1.73,4.43,1.82Z"/>
            <path class="cls-107" d="M29.94,166.86l.02-.18c0,.06-.01.12-.02.18,0,0,0,0,0,0h0Z"/>
            <path class="cls-9" d="M29.94,166.86l.02-.18c0,.06-.01.12-.02.18,0,0,0,0,0,0h0Z"/>
            <path class="cls-107" d="M27.83,162.94c.17-.78.31-1.58.84-2.27,1.25.26,2.35-.25,3.1-.91,0,0,.01.01.02.02.21.25.33.64.43,1.37.03.23-.15.67-.09.91,0,.04.01.07.02.11.73,1.1-.07,3.98-.49,4.25-.28.19-.92.27-1.71.23,0,0,0,0,0,0-1.4-.08-3.25-.61-4.43-1.82h0c-.24-.25-.45-.53-.62-.84,1.06.61,1.34-3.79,2.92-1.05Z"/>
            <path class="cls-98" d="M24.79,158.33c.1.5.95,1.34,3.44,2.22.15.05.3.09.44.12-.53.69-.67,1.49-.84,2.27-1.58-2.73-1.86,1.67-2.92,1.05-.07-.04-.13-.09-.21-.17-1.13-1.23-1.81-5.25.44-6.62-.28.42-.4.86-.35,1.13Z"/>
            <path class="cls-97" d="M31.77,159.77c-.75.66-1.86,1.17-3.1.91-.15-.03-.29-.07-.44-.12-2.49-.88-3.34-1.72-3.44-2.22-.05-.27.07-.71.35-1.13.67-.98,2.26-1.84,4.8,0,1.73,1.25,2.41,1.22,2.84.97,0,.39-.38,1.05-1.01,1.6Z"/>
            <path class="cls-58" d="M25.73,165.79c1.9,1.49,4.22.88,4.22.88h0,0s-.02.19-.02.19l-.02.21,2.27.91.99,3.56-5.73.56-1.73-3.7h0s0-.02,0-.02l.02-2.57h0Z"/>
            <path class="cls-107" d="M21.56,190.64s.08.06.2.16c.47.38,1.58,1.39.99,2.06-.15.17-.59,1.01-.93,1.12-.02,0-.05.02-.07.02-.15,0-.32-.04-.5-.1-.55-.19-1.13-.61-1.26-.64-.02,0-.04-.02-.06-.04-.25-.18-.5-1.1.21-1.88,0,0-.1-.17-.26-.43.44-.2,1.17-.55,1.52-.85.06.21.11.4.15.58Z"/>
            <path class="cls-56" d="M23.49,170.1c.58.41,2.26,1.6,1.04,3.8-.83,1.5-2.71,4.43-3.35,5.3-.15.2-.37.51-.62.86-.67.95-1.53,2.17-1.53,2.17,0,0,1.45,3.77,2.18,6.01.24.74.4,1.3.41,1.51,0,.03,0,.08,0,.09-.03.07-.1.15-.19.22-.35.3-1.09.66-1.52.85-.2.09-.34.15-.34.15,0,0-3.73-6.27-4.03-8.49-.3-2.22.99-4.75,1.59-6.24,1.11-2.77,3.58-5.83,5.3-6.34.41-.12.78-.1,1.08.11Z"/>
          </g>
          <g>
            <path class="cls-71" d="M363.11,229.34s-2.85-1.56-2.76-5.2c.1-3.65,1.62-3.68,2.76-4.21s4.47-1.26,5.04-1.04,2,.95,2.47,2.41l-7.51,8.05Z"/>
            <path class="cls-80" d="M366.04,224.93c.17,1.76-.74,3.15-2.03,3.09s-2.49-1.52-2.67-3.28c-.17-1.76.74-3.15,2.03-3.09,1.3.05,2.49,1.52,2.67,3.28Z"/>
            <polygon class="cls-21" points="414.54 252.19 416.06 259.07 434.02 256.91 445 259.48 445.89 253.84 440.19 241.7 414.54 252.19"/>
            <polygon class="cls-21" points="468 219.52 469.52 226.4 487.48 224.25 498.89 227.52 499.35 221.18 493.65 209.04 468 219.52"/>
            <g>
              <path class="cls-10" d="M497.29,239.55c-1.66,11.18-10.78,20.5-19.56,17.97-9.78-2.82-14.82-8.11-13.17-19.29,1.66-11.18,10.33-19.95,19.36-19.59,9.04.37,15.02,9.73,13.37,20.92Z"/>
              <path class="cls-86" d="M491.82,240.1c-.93,4.82-4.35,8.83-7.64,8.97s-5.2-3.66-4.27-8.48c.93-4.82,4.35-8.83,7.64-8.97,3.29-.14,5.2,3.66,4.27,8.48Z"/>
            </g>
            <g>
              <path class="cls-10" d="M444.46,271.98c-1.66,11.18-10.78,20.5-19.56,17.97-9.78-2.82-14.82-8.11-13.17-19.29,1.66-11.18,10.33-19.95,19.36-19.59,9.04.37,15.02,9.73,13.37,20.92Z"/>
              <path class="cls-86" d="M438.99,272.53c-.93,4.82-4.35,8.83-7.64,8.97s-5.2-3.66-4.27-8.48c.93-4.82,4.35-8.83,7.64-8.97,3.29-.14,5.2,3.66,4.27,8.48Z"/>
            </g>
            <path class="cls-10" d="M401.52,248.38c-1.66,11.18-10.78,20.5-19.56,17.97-9.78-2.82-14.82-8.11-13.17-19.29,1.66-11.18,10.33-19.95,19.36-19.59,9.04.37,15.02,9.73,13.37,20.92Z"/>
            <path class="cls-10" d="M387.43,211.26s-3.04-1.15-3.29-1.54-.5-7.72-.29-8.62c.16-.67.73-.67,1.11-.66s4.24,1.42,4.24,1.42c0,0,.54.44.54.92s.1,7.98.1,8.46-.48.56-.95.44-1.46-.41-1.46-.41Z"/>
            <polygon class="cls-50" points="492.53 210.19 498.92 227.67 499.67 227.21 500 195.79 466.79 215.12 465.84 184.26 438.86 199.58 397.67 176.4 385.72 210.98 366.95 221.77 364.8 223.48 363.14 226.71 363.34 245.08 413.59 276.65 419.02 254.39 438.56 243.56 445 259.48 472.79 243.55 476.23 220.5 492.53 210.19"/>
            <polygon class="cls-72" points="389.7 207.69 398.36 179.81 436.71 202.31 429.36 230.7 389.7 207.69"/>
            <polygon class="cls-93" points="435.19 233.43 434.68 225.47 440.76 203.69 450.64 198.59 450.64 224.84 435.19 233.43"/>
            <polygon class="cls-93" points="463.82 216.86 452.67 223.07 452.67 198.03 463.82 191.82 463.82 216.86"/>
            <path class="cls-94" d="M465.46,184.82l-26.79,15.91-40.86-23.84s-.38-.59.57-1.71,56.95-31.11,58.09-31.83c1.14-.72,37.53,23.73,39.62,24.77s3.92,28.53,3.92,28.53l-33.97,19.79-.57-31.61Z"/>
            <path class="cls-80" d="M373.25,232.68c.3,3-1.25,5.36-3.46,5.27-2.21-.09-4.24-2.59-4.54-5.59-.3-3,1.25-5.36,3.46-5.27s4.24,2.59,4.54,5.59Z"/>
            <path class="cls-80" d="M367.04,238.72c.1,1.03-.43,1.84-1.19,1.8s-1.45-.89-1.55-1.92c-.1-1.03.43-1.84,1.19-1.8s1.45.89,1.55,1.92Z"/>
            <path class="cls-80" d="M408.03,261.9c.12,1.18-.49,2.11-1.37,2.08s-1.67-1.02-1.79-2.21c-.12-1.18.49-2.11,1.37-2.08s1.67,1.02,1.79,2.21Z"/>
            <path class="cls-80" d="M407.29,252.46c.3,3-1.25,5.36-3.46,5.27s-4.24-2.59-4.54-5.59c-.3-3,1.25-5.36,3.46-5.27,2.21.09,4.24,2.59,4.54,5.59Z"/>
            <g>
              <polygon class="cls-10" points="379.1 244.15 375.67 241.95 375.67 231.19 379.1 233.4 379.1 244.15"/>
              <polygon class="cls-10" points="384.88 247.87 381.45 245.66 381.45 234.91 384.88 237.11 384.88 247.87"/>
              <polygon class="cls-10" points="390.66 251.58 387.23 249.38 387.23 238.62 390.66 240.83 390.66 251.58"/>
              <polygon class="cls-10" points="396.45 255.3 393.01 253.09 393.01 242.34 396.45 244.54 396.45 255.3"/>
            </g>
            <polygon class="cls-10" points="395.76 233.69 398.58 231.56 406.46 235.66 407.22 239.53 395.76 233.69"/>
            <polygon class="cls-70" points="408.11 239.18 407.35 235.44 417.83 232.73 408.11 239.18"/>
            <polygon class="cls-24" points="473.57 220.39 470.41 242.42 445.65 256.86 439.87 242.59 435.57 241 415.55 252.1 409.75 274.71 413.59 276.65 419.02 254.39 438.56 243.56 445 259.48 472.79 243.55 476.23 220.5 492.53 210.19 498.92 227.67 499.65 227.23 492.58 208.67 473.57 220.39"/>
            <g>
              <polygon class="cls-19" points="497.28 199.83 496.25 173.68 465.93 188.66 466.79 215.12 497.28 199.83"/>
              <path class="cls-75" d="M496.33,171.46c-.04-.91-1-1.51-1.79-1.12l-28.89,16.28-23.36,13.71c-1.09.54-1.89,1.52-2.22,2.7l-9.55,34.42-15.13,8.77-3.11,2.52-.97,3.8-.14,22.85,2.45,1.23,5.43-22.26,19.54-10.83,6.44,15.93,27.79-15.93,3.44-23.05,16.29-8.3,5.78,13.98.97-27.16-2.95-27.56Z"/>
            </g>
            <polygon class="cls-10" points="372.37 247.31 372.37 243.27 397.79 258.88 398.07 263.02 372.37 247.31"/>
            <polygon class="cls-69" points="363.17 246.02 362.78 241.21 368.75 246.92 397.12 264.23 414.54 272.8 414.54 277.8 396.85 268.94 368.64 251.48 363.17 246.02"/>
            <polygon class="cls-3" points="362.78 241.21 368.75 246.92 397.12 264.23 414.54 272.8 362.78 241.21"/>
            <polygon class="cls-54" points="470.66 216.38 468.76 217.19 468.76 210.45 470.66 209.64 470.66 216.38"/>
            <polygon class="cls-54" points="481.68 211.19 479.78 212 479.78 205.26 481.68 204.46 481.68 211.19"/>
            <polygon class="cls-54" points="493.21 205.39 491.31 206.19 491.31 199.46 493.21 198.65 493.21 205.39"/>
            <path class="cls-10" d="M440.44,231.47s-3.04-1.15-3.29-1.54-.5-7.72-.29-8.62c.16-.67.73-.67,1.11-.66s4.24,1.42,4.24,1.42c0,0,.54.44.54.92s.1,7.98.1,8.46-.48.56-.95.44-1.46-.41-1.46-.41Z"/>
            <polygon class="cls-54" points="398.9 185.37 397.76 184.94 398.52 181.8 399.76 182.21 398.9 185.37"/>
            <polygon class="cls-54" points="435.54 202.42 434.4 201.99 435.16 198.86 436.39 199.27 435.54 202.42"/>
          </g>
          <g>
            <path class="cls-10" d="M49.64,222.5c.99,6.65,6.43,12.36,11.66,11.08,5.83-1.43,8.84-4.43,7.85-11.08-.99-6.65-6.16-12.03-11.55-12.03-5.39,0-8.96,5.39-7.97,12.03Z"/>
            <path class="cls-86" d="M51.77,223.74c.76,3.93,3.55,7.28,6.24,7.5,2.68.22,4.25-2.79,3.49-6.71s-3.55-7.28-6.24-7.5-4.25,2.79-3.49,6.71Z"/>
            <polygon class="cls-96" points="117.59 259.08 114.7 261.05 113.67 255.62 118.19 251.93 119.38 255.62 117.59 259.08"/>
            <path class="cls-10" d="M115.87,262.71c.99,6.65,6.43,12.36,11.66,11.08,5.83-1.43,8.84-4.43,7.85-11.08-.99-6.65-6.16-12.03-11.55-12.03s-8.96,5.39-7.97,12.03Z"/>
            <path class="cls-86" d="M118,263.94c.76,3.93,3.55,7.28,6.24,7.5,2.68.22,4.25-2.79,3.49-6.71-.76-3.93-3.55-7.28-6.24-7.5-2.68-.22-4.25,2.79-3.49,6.71Z"/>
            <path class="cls-64" d="M103.51,168.13s5.87,3.5,15.87,9.45c10,5.96,16.18,11.08,22.37,17.99,6.19,6.91,9.44,15.19,15.59,19.3,12.49,8.34,17.13,14.53,20.64,20.79,3.51,6.26,3.75,13.64,1.37,17.46-2.38,3.81-6.19,6.31-13.57,10.84-7.38,4.53-18.54,8.3-23.43,9.21-4.89.91-9.57-2.67-9.57-2.67,0,0-.93-10.25-8.72-15.49-7.79-5.24-9.38,6.03-9.38,6.03l-48.75-27.66s-1.09-12.97-8.58-17.35c-7.49-4.38-8.95,3.68-8.95,3.68,0,0-7.87-6.24-9.29-8.38-1.43-2.14,2.59-21.51,4.81-23.5,7.97-7.15,26.82-18.98,32.24-19.7,3.1-.41,6.59,1.19,9.49.68,4.05-.71,13.5-.95,17.85-.68Z"/>
            <path class="cls-60" d="M133.18,250.23l14.46-19.3,25.85-2.04c1.84,2.31,3.25,4.54,4.5,6.77,3.51,6.26,3.75,13.64,1.37,17.46-2.38,3.81-6.19,6.31-13.57,10.84-7.38,4.53-18.54,8.3-23.43,9.21-4.89.91-9.57-2.67-9.57-2.67,0,0-.93-10.25-8.72-15.49-7.79-5.24-9.38,6.03-9.38,6.03l-48.75-27.66s-1.09-12.97-8.58-17.35c-7.49-4.38-8.95,3.68-8.95,3.68,0,0-7.87-6.24-9.29-8.38-.79-1.19-.29-8.03.69-14.25l93.36,53.15Z"/>
            <path class="cls-10" d="M154.72,213.57s2.38-3.69,1.9-6.2c-.48-2.5-2.86-3.34-4.16-2.74-1.31.6-2.86,2.98-2.86,2.98l5.12,5.96Z"/>
            <g class="cls-111">
              <path class="cls-80" d="M41.77,188.35c1.41-.69,3.04,1.33,5.32,1.98,2.5.71,3.39,1.61,10.17,1.25,6.78-.36,16.24-2.14,25.7,1.97,9.46,4.11,17.14,15.37,21.6,21.27,4.46,5.9,10.97,21.75,20.53,30.2,11.74,10.39,14.81,22.95,15.6,28.29-4.24,0-7.9-2.8-7.9-2.8,0,0-.93-10.25-8.72-15.49-7.79-5.23-9.38,6.03-9.38,6.03l-48.75-27.66s-1.09-12.97-8.58-17.35c-7.49-4.38-8.95,3.68-8.95,3.68,0,0-7.87-6.24-9.29-8.38-1.23-1.85.67-17.44,2.64-22.98Z"/>
            </g>
            <path class="cls-72" d="M156.74,214.52s-17.37,14.3-39.98,18.82c-8.09-15.73-16.42-26.93-16.42-26.93,0,0,14.99-3.1,27.37-9.53,7.08-3.68,9.04-6.91,9.04-6.91,0,0,10.11,10.6,19.99,24.54Z"/>
            <path class="cls-10" d="M178.04,255.03s.42-2.6-.12-4.17c-.46-1.35-1.84-1.69-2.5-1.91-1.43-.48-1.43-.24-3.33.95-1.54.96-13.57,8.34-17.02,9.53-1.85.64-4.7,4.98-4.64,7.51.05,2.19,2.92,2.64,2.97,2.86.12.48,15.83-5.6,24.63-14.77Z"/>
            <polygon class="cls-95" points="169.06 249.6 169.65 254.37 162.04 258.54 161.8 253.77 169.06 249.6"/>
            <path class="cls-72" d="M112.71,230.96s-12.29-19.78-15.65-23.65c-2.66-3.06-11.25-12.57-21.24-13.76-10-1.19-20.94,1.19-20.94,1.19,0,0,1.13,3.82,4.88,6.31,13.89,9.25,47.87,28.81,48.43,29.19.71.48,4.52.71,4.52.71Z"/>
            <path class="cls-72" d="M102.38,167.9s-14.77,2.59-34.41,15.82c-2.57,1.73-15.35,2.32-15.35,2.32,0,0,10.91-7.39,29.65-16.33,6.83-3.25,20.1-1.81,20.1-1.81Z"/>
            <path class="cls-79" d="M87.43,198.55l-2.86,18.05-6.25-3.75,5.53-16.44s3.03,1.07,3.57,2.14Z"/>
            <path class="cls-10" d="M112.24,230.36c-.04-.8-1.7-4.56-3.75-6.17-2.05-1.61-9.01-.36-9.1,1.61-.09,1.97.89,4.29,3.93,4.47s4.14-.6,4.88-.03c.74.57,4.14,2.08,4.05.12Z"/>
            <path class="cls-64" d="M178.35,236.81s-1.66-4.82-3.46-6.48c-1.81-1.66-4.52,9.8-4.52,10.55,0,.75,0,2.26,2.26,1.21s5.72-5.28,5.72-5.28Z"/>
            <path class="cls-64" d="M146.58,249.93s-10.99-1.81-13.4-1.36c-2.41.45,2.11,6.18,3.76,7.09,1.66.9,12.2-2.41,12.95-2.86s-1.81-2.41-3.31-2.86Z"/>
            <path class="cls-64" d="M170.07,236.96s-.45,6.94-.75,7.69-13.4,8.29-14.76,8.29-6.17-3.47-6.48-4.07c-.3-.6,10.69-5.13,12.8-6.03,2.11-.9,9.19-5.88,9.19-5.88Z"/>
            <path class="cls-102" d="M101.4,204.85s16.26-4.07,22.89-7.84c6.63-3.77,11.29-7.39,11.29-7.39,0,0-7.23-10.25-8.73-11.91-1.51-1.66-5.72-4.22-6.78-4.22s-24.85,12.51-26.35,13.87-1.51,6.48-1.2,7.84,8.58,10.4,8.89,9.65Z"/>
            <path class="cls-29" d="M119.77,178.16c.95-1.33,2.71-4.67,2.11-6.63-.6-1.96-3.46-1.66-4.37-1.36s-4.37,8.44-6.93,9.65c-2.56,1.21-17.62,3.02-19.88,3.62s-.9,3.02,3.31,3.17c4.22.15,17.32-1.36,20.18-2.56,2.86-1.21,4.07-3.77,5.57-5.88Z"/>
            <path class="cls-15" d="M102.15,203.79s-3.01-12.97-4.37-14.63c-1.36-1.66-2.56-2.26-4.07-1.81s-1.96,6.03-1.2,7.84,9.19,12.67,9.64,8.59Z"/>
          </g>
        </g>
      </g>
    </g>
  </g>
</svg>