<?xml version="1.0" encoding="utf-8"?>
<!-- Generator: Adobe Illustrator 26.0.1, SVG Export Plug-In . SVG Version: 6.00 Build 0)  -->
<svg version="1.1" xmlns="http://www.w3.org/2000/svg" xmlns:xlink="http://www.w3.org/1999/xlink" x="0px" y="0px"
	 viewBox="0 0 200 76" style="enable-background:new 0 0 200 76;" xml:space="preserve">
<style type="text/css">
	.st0{opacity:0.88;fill:#FFFFFF;}
	.st1{opacity:0.1;fill:url(#);}
	.st2{opacity:0.75;fill:#FFFFFF;}
	.st3{fill:none;stroke:#808080;stroke-miterlimit:10;}
	.st4{clip-path:url(#SVGID_00000159429248244532998540000013204142380366678952_);}
	.st5{clip-path:url(#SVGID_00000008134915097530627720000005559935780513456776_);}
	.st6{clip-path:url(#SVGID_00000168798002918326803190000009641677661401635231_);}
	.st7{clip-path:url(#SVGID_00000029728753241932962460000007322163708197049521_);}
	.st8{opacity:0.8;fill:#FFFFFF;stroke:#808080;stroke-width:0.5;stroke-miterlimit:10;}
	.st9{fill:#1D2975;}
	.st10{fill:#FF0000;}
	.st11{fill:#FFFFFF;}
	.st12{opacity:0.65;fill:#F4F4F4;stroke:#808080;stroke-width:0.5;stroke-miterlimit:10;}
	.st13{fill:#666666;}
	.st14{fill:#4D4D4D;}
	.st15{fill:#CCCCCC;}
	.st16{clip-path:url(#SVGID_00000164492134266577034740000003538399908999422398_);}
	.st17{clip-path:url(#SVGID_00000129922166264518535240000004328348264872234937_);}
	.st18{fill:none;stroke:#333333;stroke-width:0.285;stroke-miterlimit:10;}
	.st19{clip-path:url(#SVGID_00000105402004190738776250000005122978716197710476_);}
	.st20{fill:#D62817;}
	.st21{clip-path:url(#SVGID_00000052067979228837751710000003424717068020192948_);}
	.st22{clip-path:url(#SVGID_00000069389517812890930130000001523080818332721562_);}
	.st23{clip-path:url(#SVGID_00000056387822354477440600000007166381036992720546_);}
	.st24{clip-path:url(#SVGID_00000035509733450228208720000004973494326218098080_);}
	.st25{fill:#EDECEA;stroke:#000000;stroke-width:0.579;stroke-linecap:round;stroke-linejoin:round;}
	.st26{fill:#F3DB24;stroke:#000000;stroke-width:0.6188;stroke-linecap:round;stroke-linejoin:round;}
	.st27{fill:#EDECEA;stroke:#000000;stroke-width:0.5777;stroke-linecap:round;stroke-linejoin:round;}
	.st28{fill:none;stroke:#000000;stroke-width:0.5777;stroke-linecap:round;stroke-linejoin:round;}
	.st29{fill:none;stroke:#000000;stroke-width:0.579;stroke-linecap:round;stroke-linejoin:round;}
	.st30{fill:#E2BCA9;}
	.st31{fill:#E2BCA9;stroke:#221714;stroke-width:0.5041;}
	.st32{fill:#FFFFFF;stroke:#000000;stroke-width:0.6188;stroke-linecap:round;stroke-linejoin:round;}
	.st33{fill:#FFFFFF;stroke:#000000;stroke-width:0.579;stroke-linecap:round;stroke-linejoin:round;}
	.st34{stroke:#000000;stroke-width:0.2794;stroke-linecap:round;stroke-linejoin:round;}
	.st35{fill:#555454;stroke:#000000;stroke-width:0.6188;stroke-linecap:round;stroke-linejoin:round;}
	.st36{fill:#EDECEA;stroke:#000000;stroke-width:0.5961;stroke-linecap:round;stroke-linejoin:round;}
	.st37{fill:#B81D46;stroke:#000000;stroke-width:0.637;stroke-linecap:round;stroke-linejoin:round;}
	.st38{fill:#EDECEA;stroke:#000000;stroke-width:0.5948;stroke-linecap:round;stroke-linejoin:round;}
	.st39{fill:none;stroke:#000000;stroke-width:0.5948;stroke-linecap:round;stroke-linejoin:round;}
	.st40{fill:none;stroke:#000000;stroke-width:0.5961;stroke-linecap:round;stroke-linejoin:round;}
	.st41{fill:#FFFFFF;stroke:#000000;stroke-width:0.5961;stroke-linecap:round;stroke-linejoin:round;}
	.st42{stroke:#000000;stroke-width:0.2877;stroke-linecap:round;stroke-linejoin:round;}
	.st43{fill:#FED597;stroke:#040000;stroke-width:0.2696;}
	.st44{fill:#FFECD0;stroke:#040000;stroke-width:0.2696;}
	.st45{fill:#231815;}
	.st46{fill:#040000;}
	.st47{fill:#DE2A2B;}
	.st48{fill:#037FB9;}
	.st49{fill:#E9940D;}
	.st50{fill:#924E41;}
	.st51{fill:#006862;}
	.st52{fill:#4C5256;}
	.st53{fill:none;stroke:#D2ECFA;stroke-width:10.4444;stroke-miterlimit:10;}
	.st54{clip-path:url(#SVGID_00000009553918640442251950000001733865035586281657_);}
	.st55{clip-path:url(#SVGID_00000098903179836670380490000017821786048780146305_);}
	.st56{fill:none;stroke:#00A971;stroke-width:6.0026;stroke-miterlimit:10;}
	.st57{fill:none;stroke:#888888;stroke-width:4.0017;stroke-miterlimit:10;}
	.st58{fill:none;stroke:#0098D8;stroke-width:6.0026;stroke-miterlimit:10;}
	.st59{fill:none;stroke:#95C4CA;stroke-width:1.8116;stroke-miterlimit:10;}
	.st60{fill:none;stroke:#95C4CA;stroke-width:1.8116;stroke-miterlimit:10;stroke-dasharray:5.4133,1.8044;}
	.st61{fill:none;stroke:#95C4CA;stroke-width:1.8116;stroke-miterlimit:10;stroke-dasharray:5.4363,1.8121;}
	.st62{fill:none;stroke:#595757;stroke-width:1.8116;stroke-miterlimit:10;}
	.st63{fill:none;stroke:#595757;stroke-width:1.8116;stroke-miterlimit:10;stroke-dasharray:5.4514,1.8171;}
	.st64{fill:none;stroke:#595757;stroke-width:1.8116;stroke-miterlimit:10;stroke-dasharray:5.3001,1.7667;}
	.st65{fill:none;stroke:#595757;stroke-width:1.8116;stroke-miterlimit:10;stroke-dasharray:5.4632,1.8211;}
	.st66{fill:none;stroke:#595757;stroke-width:1.8116;stroke-miterlimit:10;stroke-dasharray:5.4349,1.8116;}
	.st67{fill:#595757;}
	.st68{fill:#00A971;}
	.st69{fill:#717071;}
	.st70{fill:#FFFFFF;stroke:#FFFFFF;stroke-width:0.6326;stroke-miterlimit:10;}
	.st71{fill:none;stroke:#717071;stroke-width:1.0004;stroke-miterlimit:10;}
	.st72{fill:#0098D8;}
	.st73{fill:#95C4CA;}
	.st74{fill:#888888;}
	.st75{fill:#E5002D;}
	.st76{fill:none;stroke:#717071;stroke-width:0.5222;stroke-miterlimit:10;}
	.st77{clip-path:url(#SVGID_00000036932470327227310090000009186175631447203230_);}
	.st78{fill:#004097;}
	.st79{fill:#0068B6;}
	.st80{clip-path:url(#SVGID_00000173156880731167392380000015418111955353169056_);fill:#0068B6;}
	.st81{clip-path:url(#SVGID_00000173156880731167392380000015418111955353169056_);fill:#00AEEB;}
	.st82{fill:#EF8200;}
	.st83{fill:none;stroke:#0068B6;stroke-width:1.3814;stroke-linejoin:round;}
	.st84{clip-path:url(#SVGID_00000127015140453180547970000000409889181594508455_);}
	.st85{fill:#1B94D3;stroke:#000000;stroke-width:0.6188;stroke-linecap:round;stroke-linejoin:round;}
	.st86{fill:#28A13A;stroke:#000000;stroke-width:0.6188;stroke-linecap:round;stroke-linejoin:round;}
	.st87{fill:none;stroke:#221714;stroke-width:0.5041;stroke-linecap:round;stroke-linejoin:round;}
	.st88{fill:none;stroke:#FF0000;stroke-width:4;stroke-miterlimit:10;}
	.st89{clip-path:url(#SVGID_00000023998980502198801770000001278111201042503306_);}
	.st90{clip-path:url(#SVGID_00000178907287177687191120000007653646634301170572_);}
	.st91{clip-path:url(#SVGID_00000034782062961723007670000010111935308525586817_);}
	.st92{clip-path:url(#SVGID_00000158739658864346335870000008667581653512408456_);fill:#0068B6;}
	.st93{clip-path:url(#SVGID_00000158739658864346335870000008667581653512408456_);fill:#00AEEB;}
	.st94{clip-path:url(#SVGID_00000000908683172614343730000002670669525394436788_);}
	.st95{clip-path:url(#SVGID_00000045584891452157709330000017322419379079898512_);}
	.st96{clip-path:url(#SVGID_00000008117954116549445700000011493260415426462594_);}
	.st97{clip-path:url(#SVGID_00000056425665847086242120000013853006663603623859_);}
	.st98{clip-path:url(#SVGID_00000064320823649719976880000014778330529605341092_);fill:#0068B6;}
	.st99{clip-path:url(#SVGID_00000064320823649719976880000014778330529605341092_);fill:#00AEEB;}
	.st100{clip-path:url(#SVGID_00000121979447506118591220000003366185782488594336_);}
	.st101{clip-path:url(#SVGID_00000003822927000889452770000007622982420818292874_);}
	.st102{clip-path:url(#SVGID_00000154410675317406822610000002224642250521555638_);}
	.st103{fill:#9E9E9F;}
	.st104{fill:#9F9FA0;}
	.st105{fill:#A0A0A1;}
	.st106{fill:#A1A1A2;}
	.st107{fill:#A2A2A3;}
	.st108{fill:#A3A3A4;}
	.st109{fill:#A4A4A5;}
	.st110{fill:#A5A5A6;}
	.st111{fill:#A6A6A7;}
	.st112{fill:#A7A7A8;}
	.st113{fill:#A8A8A9;}
	.st114{fill:#A9A9AA;}
	.st115{fill:#AAAAAB;}
	.st116{fill:#ABABAC;}
	.st117{fill:#ACACAD;}
	.st118{fill:#ADADAE;}
	.st119{fill:#AEAEAF;}
	.st120{fill:#AFAFB0;}
	.st121{fill:#B0B0B1;}
	.st122{fill:#B1B1B2;}
	.st123{fill:#B2B2B3;}
	.st124{fill:#B3B3B4;}
	.st125{fill:#B4B4B5;}
	.st126{fill:#B5B5B6;}
	.st127{fill:#B6B6B7;}
	.st128{fill:#B7B7B7;}
	.st129{fill:#B8B8B8;}
	.st130{fill:#B9B9B9;}
	.st131{fill:#BABABA;}
	.st132{fill:#BBBBBB;}
	.st133{fill:#BCBCBC;}
	.st134{fill:#BDBDBD;}
	.st135{fill:#BEBEBE;}
	.st136{fill:#BFBFBF;}
	.st137{fill:#C0C0C0;}
	.st138{fill:#C1C1C1;}
	.st139{fill:#C2C2C2;}
	.st140{fill:#C3C3C3;}
	.st141{fill:#C4C4C4;}
	.st142{fill:#C5C5C5;}
	.st143{fill:#C6C6C6;}
	.st144{fill:#C7C7C7;}
	.st145{fill:#C8C8C8;}
	.st146{fill:#C9C9C9;}
	.st147{fill:#CACACA;}
	.st148{fill:#CBCBCB;}
	.st149{fill:#CDCDCD;}
	.st150{fill:#CECECE;}
	.st151{fill:#CFCFCF;}
	.st152{fill:#CFCFD0;}
	.st153{fill:#D0D0D1;}
	.st154{fill:#D1D1D2;}
	.st155{fill:#D2D2D3;}
	.st156{fill:#D3D3D4;}
	.st157{fill:#D4D4D5;}
	.st158{fill:#D5D5D6;}
	.st159{fill:#D6D6D7;}
	.st160{fill:#D7D7D8;}
	.st161{fill:#D8D8D9;}
	.st162{fill:#D9D9DA;}
	.st163{fill:#DADADB;}
	.st164{fill:#DBDBDC;}
	.st165{fill:#DCDCDD;}
	.st166{fill:#DDDDDE;}
	.st167{fill:#DEDEDF;}
	.st168{fill:#DFDFE0;}
	.st169{fill:#E0E0E1;}
	.st170{fill:#E1E1E2;}
	.st171{fill:#E2E2E3;}
	.st172{fill:#E3E3E4;}
	.st173{fill:#E4E4E5;}
	.st174{fill:#E5E5E6;}
	.st175{fill:#E6E6E7;}
	.st176{fill:#E7E7E7;}
	.st177{fill:#E8E8E8;}
	.st178{fill:#E9E9E9;}
	.st179{fill:#EAEAEA;}
	.st180{fill:#EBEBEB;}
	.st181{fill:#ECECEC;}
	.st182{fill:#EDEDED;}
	.st183{fill:#EEEEEE;}
	.st184{fill:#EFEFEF;}
	.st185{fill:#F0F0F0;}
	.st186{fill:#F1F1F1;}
	.st187{fill:#F2F2F2;}
	.st188{fill:#F3F3F3;}
	.st189{fill:#F4F4F4;}
	.st190{fill:#F5F5F5;}
	.st191{fill:#F6F6F6;}
	.st192{fill:#F7F7F7;}
	.st193{fill:#F8F8F8;}
	.st194{fill:#F9F9F9;}
	.st195{fill:#FAFAFA;}
	.st196{fill:#FBFBFB;}
	.st197{fill:#FCFCFC;}
	.st198{fill:#FDFDFD;}
	.st199{fill:#FEFEFE;}
	.st200{fill:#E50012;}
	.st201{fill:#009FE8;}
	.st202{fill:#C8231D;}
	.st203{fill-rule:evenodd;clip-rule:evenodd;fill:#231815;}
	.st204{fill:#E60020;}
	.st205{fill:#00A040;}
	.st206{fill:none;stroke:#000000;stroke-miterlimit:10;}
</style>
<g id="レイヤー_5">
</g>
<g id="レイヤー_3">
</g>
<g id="レイヤー_4">
</g>
<g id="レイヤー_1">
	<g>
		<path class="st46" d="M92.6,6.5h10.7v-4H82.9v4h4.9v3.3h-5.9v4.1h5.9v4.1c0,3.5,1.8,5.2,5.6,5.2h9.9V19h-8.1
			c-2.3,0-2.7-0.8-2.7-2.5v-2.8h11.7V9.7H92.6V6.5z"/>
		<rect x="121.4" y="1.6" class="st46" width="2.7" height="3.4"/>
		<rect x="125.1" y="1.6" class="st46" width="2.7" height="3.4"/>
		<path class="st46" d="M112.2,16.7v-6.1h15V6.5h-15V2h-4.6v15.5c0,4.1,1.9,5.5,6.3,5.5l13.7,0V19h-12.6
			C113,19,112.2,18.5,112.2,16.7"/>
		<rect x="107.3" y="39.2" class="st46" width="15.6" height="4.6"/>
		<rect x="130.4" y="2.2" class="st46" width="4.7" height="12.9"/>
		<path class="st46" d="M145.2,12c0,2.4-0.8,7.2-12,7.2v4.1c13.8,0,16.8-5.9,16.8-11.7V2.2h-4.8V12z"/>
		<rect x="154.2" y="2.4" class="st46" width="19.2" height="4.1"/>
		<path class="st46" d="M152.7,13h9.6V14c0,2.9-2.4,5.3-7.4,5.3v4.2c7.9-0.4,12.3-3.9,12.3-10.1V13h7.5v-4h-21.9V13z"/>
		<polygon class="st46" points="176.9,16 184.7,13.4 184.7,23.3 189.2,23.3 189.2,11.7 195.4,9.6 195.4,5.5 176.9,12 		"/>
		<path class="st46" d="M109.4,33.6c0-1.8-1.5-3.3-3.3-3.3c-1.8,0-3.3,1.5-3.3,3.3s1.5,3.3,3.3,3.3c0,0,0,0,0,0
			C107.9,36.8,109.4,35.4,109.4,33.6 M106.1,34.7c-0.6,0-1.2-0.5-1.2-1.1c0-0.6,0.5-1.1,1.1-1.1c0.6,0,1.2,0.5,1.2,1.1v0
			C107.2,34.2,106.7,34.7,106.1,34.7"/>
		<rect x="133" y="31.1" class="st46" width="4.7" height="8.7"/>
		<rect x="125.9" y="31.1" class="st46" width="4.7" height="8.7"/>
		<path class="st46" d="M142,40.9c0,2.4-0.8,7.2-12,7.2v4.1c13.8,0,16.8-5.9,16.8-11.7v-9.4H142V40.9z"/>
		<polygon class="st46" points="86.2,30.9 82.5,52 87.2,52 91,30.9 		"/>
		<polygon class="st46" points="96.2,30.9 100,52 104.8,52 101,30.9 		"/>
		<polygon class="st47" points="91.1,59.9 81.7,59.9 81.7,62 85.2,62 85.2,70.6 87.6,70.6 87.6,62 91.1,62 		"/>
		<path class="st47" d="M100.2,67c-0.4,0.9-1.2,1.6-2.3,1.8c-0.2,0-0.4,0-0.6,0c-0.2,0-0.4,0-0.6,0c-1-0.2-1.9-0.9-2.3-1.8
			c-0.4-1.1-0.4-2.3,0-3.4c0.4-0.9,1.2-1.6,2.3-1.8c0.2,0,0.4,0,0.6,0c0.2,0,0.4,0,0.6,0c1,0.2,1.9,0.9,2.3,1.8
			C100.6,64.6,100.6,65.9,100.2,67 M97.4,59.6c-3.2,0-5.8,2.5-5.8,5.6c0,3.1,2.6,5.6,5.8,5.6c3.2,0,5.8-2.5,5.8-5.6
			C103.1,62.1,100.5,59.6,97.4,59.6"/>
		<polygon class="st47" points="103.1,59.9 106,59.9 108.7,64.5 111.4,59.9 114.3,59.9 109.9,66.6 109.9,70.6 107.5,70.6 
			107.5,66.6 		"/>
		<path class="st47" d="M120.1,68.8c0.2,0,0.4,0,0.6,0c1-0.2,1.9-0.9,2.3-1.8c0.4-1.1,0.4-2.3,0-3.4c-0.4-0.9-1.2-1.6-2.3-1.8
			c-0.2,0-0.4,0-0.6,0c-0.2,0-0.4,0-0.6,0c-1,0.2-1.9,0.9-2.3,1.8c-0.4,1.1-0.4,2.3,0,3.4c0.4,0.9,1.2,1.6,2.3,1.8
			C119.7,68.8,119.9,68.8,120.1,68.8 M114.3,65.3c0-3.1,2.6-5.6,5.8-5.6c3.2,0,5.8,2.5,5.8,5.6c0,3.1-2.6,5.6-5.8,5.6
			C116.9,70.9,114.3,68.4,114.3,65.3"/>
		<path class="st47" d="M142.4,65.7l-1.6-4.2l-1.6,4.2H142.4z M143.2,68.2h-4.6l-0.9,2.3H135l4.4-10.6h3l4.4,10.6h-2.7L143.2,68.2z"
			/>
		<polygon class="st47" points="135.7,59.9 126.4,59.9 126.4,62 129.8,62 129.8,70.6 132.2,70.6 132.2,62 135.7,62 		"/>
		<path class="st47" d="M47.5,70.6H34v3.8h-8V53.3h21.4V70.6z M4.6,2.4v19.2H26v7.7h21.4v-7.7h21.4V2.4H4.6z M38.5,31.8l-1.8,3.5
			l-1.8-3.5H26v19.2h6.6v-4.7l2.5,4.7h3.2l2.4-4.7v4.7h6.7V31.8L38.5,31.8"/>
	</g>
</g>
<g id="レイヤー_2">
</g>
</svg>
