<?xml version="1.0" encoding="utf-8"?>
<!-- Generator: Adobe Illustrator 26.0.1, SVG Export Plug-In . SVG Version: 6.00 Build 0)  -->
<svg version="1.1" xmlns="http://www.w3.org/2000/svg" xmlns:xlink="http://www.w3.org/1999/xlink" x="0px" y="0px"
	 viewBox="0 0 200 27.7" style="enable-background:new 0 0 200 27.7;" xml:space="preserve">
<style type="text/css">
	.st0{opacity:0.88;fill:#FFFFFF;}
	.st1{opacity:0.1;fill:url(#);}
	.st2{opacity:0.75;fill:#FFFFFF;}
	.st3{fill:none;stroke:#808080;stroke-miterlimit:10;}
	.st4{clip-path:url(#SVGID_00000117663226079123723290000010725817366030711206_);}
	.st5{clip-path:url(#SVGID_00000164486168946210315950000011661153908098025874_);}
	.st6{clip-path:url(#SVGID_00000169547172573103394040000014499477742085038480_);}
	.st7{clip-path:url(#SVGID_00000012445988342095662780000007953698211108248251_);}
	.st8{opacity:0.8;fill:#FFFFFF;stroke:#808080;stroke-width:0.5;stroke-miterlimit:10;}
	.st9{fill:#1D2975;}
	.st10{fill:#FF0000;}
	.st11{fill:#FFFFFF;}
	.st12{opacity:0.65;fill:#F4F4F4;stroke:#808080;stroke-width:0.5;stroke-miterlimit:10;}
	.st13{fill:#666666;}
	.st14{fill:#4D4D4D;}
	.st15{fill:#CCCCCC;}
	.st16{clip-path:url(#SVGID_00000033371293633823876790000015681219218851484314_);}
	.st17{clip-path:url(#SVGID_00000125577100404103158150000002839433678323992971_);}
	.st18{fill:none;stroke:#333333;stroke-width:0.285;stroke-miterlimit:10;}
	.st19{clip-path:url(#SVGID_00000076578688758879975900000004079339026043718789_);}
	.st20{fill:#D62817;}
	.st21{clip-path:url(#SVGID_00000036958815748028992770000007525765899217137343_);}
	.st22{clip-path:url(#SVGID_00000049924754448327937900000000905436433655934620_);}
	.st23{clip-path:url(#SVGID_00000151524880731081957770000008237422354422928560_);}
	.st24{clip-path:url(#SVGID_00000059997094610925130930000016810318250786364831_);}
	.st25{fill:#EDECEA;stroke:#000000;stroke-width:0.579;stroke-linecap:round;stroke-linejoin:round;}
	.st26{fill:#F3DB24;stroke:#000000;stroke-width:0.6188;stroke-linecap:round;stroke-linejoin:round;}
	.st27{fill:#EDECEA;stroke:#000000;stroke-width:0.5777;stroke-linecap:round;stroke-linejoin:round;}
	.st28{fill:none;stroke:#000000;stroke-width:0.5777;stroke-linecap:round;stroke-linejoin:round;}
	.st29{fill:none;stroke:#000000;stroke-width:0.579;stroke-linecap:round;stroke-linejoin:round;}
	.st30{fill:#E2BCA9;}
	.st31{fill:#E2BCA9;stroke:#221714;stroke-width:0.5041;}
	.st32{fill:#FFFFFF;stroke:#000000;stroke-width:0.6188;stroke-linecap:round;stroke-linejoin:round;}
	.st33{fill:#FFFFFF;stroke:#000000;stroke-width:0.579;stroke-linecap:round;stroke-linejoin:round;}
	.st34{stroke:#000000;stroke-width:0.2794;stroke-linecap:round;stroke-linejoin:round;}
	.st35{fill:#555454;stroke:#000000;stroke-width:0.6188;stroke-linecap:round;stroke-linejoin:round;}
	.st36{fill:#EDECEA;stroke:#000000;stroke-width:0.5961;stroke-linecap:round;stroke-linejoin:round;}
	.st37{fill:#B81D46;stroke:#000000;stroke-width:0.637;stroke-linecap:round;stroke-linejoin:round;}
	.st38{fill:#EDECEA;stroke:#000000;stroke-width:0.5948;stroke-linecap:round;stroke-linejoin:round;}
	.st39{fill:none;stroke:#000000;stroke-width:0.5948;stroke-linecap:round;stroke-linejoin:round;}
	.st40{fill:none;stroke:#000000;stroke-width:0.5961;stroke-linecap:round;stroke-linejoin:round;}
	.st41{fill:#FFFFFF;stroke:#000000;stroke-width:0.5961;stroke-linecap:round;stroke-linejoin:round;}
	.st42{stroke:#000000;stroke-width:0.2877;stroke-linecap:round;stroke-linejoin:round;}
	.st43{fill:#FED597;stroke:#040000;stroke-width:0.2696;}
	.st44{fill:#FFECD0;stroke:#040000;stroke-width:0.2696;}
	.st45{fill:#231815;}
	.st46{fill:#040000;}
	.st47{fill:#DE2A2B;}
	.st48{fill:#037FB9;}
	.st49{fill:#E9940D;}
	.st50{fill:#924E41;}
	.st51{fill:#006862;}
	.st52{fill:#4C5256;}
	.st53{fill:none;stroke:#D2ECFA;stroke-width:10.4444;stroke-miterlimit:10;}
	.st54{clip-path:url(#SVGID_00000181085113591974319560000007169737386007429556_);}
	.st55{clip-path:url(#SVGID_00000162348256933647828900000018197426182271010966_);}
	.st56{fill:none;stroke:#00A971;stroke-width:6.0026;stroke-miterlimit:10;}
	.st57{fill:none;stroke:#888888;stroke-width:4.0017;stroke-miterlimit:10;}
	.st58{fill:none;stroke:#0098D8;stroke-width:6.0026;stroke-miterlimit:10;}
	.st59{fill:none;stroke:#95C4CA;stroke-width:1.8116;stroke-miterlimit:10;}
	.st60{fill:none;stroke:#95C4CA;stroke-width:1.8116;stroke-miterlimit:10;stroke-dasharray:5.4133,1.8044;}
	.st61{fill:none;stroke:#95C4CA;stroke-width:1.8116;stroke-miterlimit:10;stroke-dasharray:5.4363,1.8121;}
	.st62{fill:none;stroke:#595757;stroke-width:1.8116;stroke-miterlimit:10;}
	.st63{fill:none;stroke:#595757;stroke-width:1.8116;stroke-miterlimit:10;stroke-dasharray:5.4514,1.8171;}
	.st64{fill:none;stroke:#595757;stroke-width:1.8116;stroke-miterlimit:10;stroke-dasharray:5.3001,1.7667;}
	.st65{fill:none;stroke:#595757;stroke-width:1.8116;stroke-miterlimit:10;stroke-dasharray:5.4632,1.8211;}
	.st66{fill:none;stroke:#595757;stroke-width:1.8116;stroke-miterlimit:10;stroke-dasharray:5.4349,1.8116;}
	.st67{fill:#595757;}
	.st68{fill:#00A971;}
	.st69{fill:#717071;}
	.st70{fill:#FFFFFF;stroke:#FFFFFF;stroke-width:0.6326;stroke-miterlimit:10;}
	.st71{fill:none;stroke:#717071;stroke-width:1.0004;stroke-miterlimit:10;}
	.st72{fill:#0098D8;}
	.st73{fill:#95C4CA;}
	.st74{fill:#888888;}
	.st75{fill:#E5002D;}
	.st76{fill:none;stroke:#717071;stroke-width:0.5222;stroke-miterlimit:10;}
	.st77{clip-path:url(#SVGID_00000172415752335110398680000014263993754298149296_);}
	.st78{fill:#004097;}
	.st79{fill:#0068B6;}
	.st80{clip-path:url(#SVGID_00000026874918610083792050000012541722288340670611_);fill:#0068B6;}
	.st81{clip-path:url(#SVGID_00000026874918610083792050000012541722288340670611_);fill:#00AEEB;}
	.st82{fill:#EF8200;}
	.st83{fill:none;stroke:#0068B6;stroke-width:1.3814;stroke-linejoin:round;}
	.st84{clip-path:url(#SVGID_00000019660646242976634450000012880752530194826904_);}
	.st85{fill:#1B94D3;stroke:#000000;stroke-width:0.6188;stroke-linecap:round;stroke-linejoin:round;}
	.st86{fill:#28A13A;stroke:#000000;stroke-width:0.6188;stroke-linecap:round;stroke-linejoin:round;}
	.st87{fill:none;stroke:#221714;stroke-width:0.5041;stroke-linecap:round;stroke-linejoin:round;}
	.st88{fill:none;stroke:#FF0000;stroke-width:4;stroke-miterlimit:10;}
	.st89{clip-path:url(#SVGID_00000153665774676833532470000002758693196516882576_);}
	.st90{clip-path:url(#SVGID_00000094579274995575344430000017813537295554538892_);}
	.st91{clip-path:url(#SVGID_00000046326366839268245360000003594269056043325569_);}
	.st92{clip-path:url(#SVGID_00000086673705026570863130000000282306006502991788_);fill:#0068B6;}
	.st93{clip-path:url(#SVGID_00000086673705026570863130000000282306006502991788_);fill:#00AEEB;}
	.st94{clip-path:url(#SVGID_00000074424902211436309250000008596143275457950634_);}
	.st95{clip-path:url(#SVGID_00000142891377622833976010000004644634469006757563_);}
	.st96{clip-path:url(#SVGID_00000125586921918289877990000017176184466747632303_);}
	.st97{clip-path:url(#SVGID_00000068637518535430472530000001005658567347943580_);}
	.st98{clip-path:url(#SVGID_00000137827620155690418390000012148395776208820649_);fill:#0068B6;}
	.st99{clip-path:url(#SVGID_00000137827620155690418390000012148395776208820649_);fill:#00AEEB;}
	.st100{clip-path:url(#SVGID_00000121243543629561835020000012017922407458947216_);}
	.st101{clip-path:url(#SVGID_00000152223991079820931850000009232669009224332968_);}
	.st102{clip-path:url(#SVGID_00000005227268789676133000000000582872865082163087_);}
	.st103{fill:#9E9E9F;}
	.st104{fill:#9F9FA0;}
	.st105{fill:#A0A0A1;}
	.st106{fill:#A1A1A2;}
	.st107{fill:#A2A2A3;}
	.st108{fill:#A3A3A4;}
	.st109{fill:#A4A4A5;}
	.st110{fill:#A5A5A6;}
	.st111{fill:#A6A6A7;}
	.st112{fill:#A7A7A8;}
	.st113{fill:#A8A8A9;}
	.st114{fill:#A9A9AA;}
	.st115{fill:#AAAAAB;}
	.st116{fill:#ABABAC;}
	.st117{fill:#ACACAD;}
	.st118{fill:#ADADAE;}
	.st119{fill:#AEAEAF;}
	.st120{fill:#AFAFB0;}
	.st121{fill:#B0B0B1;}
	.st122{fill:#B1B1B2;}
	.st123{fill:#B2B2B3;}
	.st124{fill:#B3B3B4;}
	.st125{fill:#B4B4B5;}
	.st126{fill:#B5B5B6;}
	.st127{fill:#B6B6B7;}
	.st128{fill:#B7B7B7;}
	.st129{fill:#B8B8B8;}
	.st130{fill:#B9B9B9;}
	.st131{fill:#BABABA;}
	.st132{fill:#BBBBBB;}
	.st133{fill:#BCBCBC;}
	.st134{fill:#BDBDBD;}
	.st135{fill:#BEBEBE;}
	.st136{fill:#BFBFBF;}
	.st137{fill:#C0C0C0;}
	.st138{fill:#C1C1C1;}
	.st139{fill:#C2C2C2;}
	.st140{fill:#C3C3C3;}
	.st141{fill:#C4C4C4;}
	.st142{fill:#C5C5C5;}
	.st143{fill:#C6C6C6;}
	.st144{fill:#C7C7C7;}
	.st145{fill:#C8C8C8;}
	.st146{fill:#C9C9C9;}
	.st147{fill:#CACACA;}
	.st148{fill:#CBCBCB;}
	.st149{fill:#CDCDCD;}
	.st150{fill:#CECECE;}
	.st151{fill:#CFCFCF;}
	.st152{fill:#CFCFD0;}
	.st153{fill:#D0D0D1;}
	.st154{fill:#D1D1D2;}
	.st155{fill:#D2D2D3;}
	.st156{fill:#D3D3D4;}
	.st157{fill:#D4D4D5;}
	.st158{fill:#D5D5D6;}
	.st159{fill:#D6D6D7;}
	.st160{fill:#D7D7D8;}
	.st161{fill:#D8D8D9;}
	.st162{fill:#D9D9DA;}
	.st163{fill:#DADADB;}
	.st164{fill:#DBDBDC;}
	.st165{fill:#DCDCDD;}
	.st166{fill:#DDDDDE;}
	.st167{fill:#DEDEDF;}
	.st168{fill:#DFDFE0;}
	.st169{fill:#E0E0E1;}
	.st170{fill:#E1E1E2;}
	.st171{fill:#E2E2E3;}
	.st172{fill:#E3E3E4;}
	.st173{fill:#E4E4E5;}
	.st174{fill:#E5E5E6;}
	.st175{fill:#E6E6E7;}
	.st176{fill:#E7E7E7;}
	.st177{fill:#E8E8E8;}
	.st178{fill:#E9E9E9;}
	.st179{fill:#EAEAEA;}
	.st180{fill:#EBEBEB;}
	.st181{fill:#ECECEC;}
	.st182{fill:#EDEDED;}
	.st183{fill:#EEEEEE;}
	.st184{fill:#EFEFEF;}
	.st185{fill:#F0F0F0;}
	.st186{fill:#F1F1F1;}
	.st187{fill:#F2F2F2;}
	.st188{fill:#F3F3F3;}
	.st189{fill:#F4F4F4;}
	.st190{fill:#F5F5F5;}
	.st191{fill:#F6F6F6;}
	.st192{fill:#F7F7F7;}
	.st193{fill:#F8F8F8;}
	.st194{fill:#F9F9F9;}
	.st195{fill:#FAFAFA;}
	.st196{fill:#FBFBFB;}
	.st197{fill:#FCFCFC;}
	.st198{fill:#FDFDFD;}
	.st199{fill:#FEFEFE;}
	.st200{fill:#E50012;}
	.st201{fill:#009FE8;}
	.st202{fill:#C8231D;}
	.st203{fill-rule:evenodd;clip-rule:evenodd;fill:#231815;}
	.st204{fill:#E60020;}
	.st205{fill:#00A040;}
	.st206{fill:none;stroke:#000000;stroke-miterlimit:10;}
</style>
<g id="レイヤー_5">
</g>
<g id="レイヤー_3">
</g>
<g id="レイヤー_4">
</g>
<g id="レイヤー_1">
	<g>
		<path class="st51" d="M34.2,25.6h25.3c1,0,2-0.8,2.2-1.9l4.4-20.4H38.9L34.2,25.6z M44.2,7h15.3l-3.2,15.1H41L44.2,7z"/>
		<path class="st51" d="M24,23.2h-5.3l4.6-22h-6.1l-4.6,22H7.4l3.5-17h-6L0.6,26.5h26.8c1,0,2-0.8,2.2-1.9l3.9-18.4h-5.9L24,23.2z"
			/>
		<path class="st51" d="M99.1,2.6c-1,0-1.5,0.1-2.1,0.9c-0.7,1-1.7,2.3-1.7,2.3h15.5c-0.3,1.1-0.6,2.8-1.1,4.9H98.4
			c-1,0-1.4,0.1-2,0.9c-0.9,1.1-2.2,2.9-2.2,2.9h14.7c-0.6,2.4-1,4.4-1.2,5.2c-0.3,1-0.9,1.4-1.6,1.4c-5.5,0-10.1,0-10.7,0
			c-1,0-1.7,0.6-2.4,1.4c-0.7,0.8-1.9,2.3-1.9,2.3h19.4c2.6,0,2.9-0.9,3.1-1.6c0.2-0.6,4.9-20.5,4.9-20.5H99.1z"/>
		<path class="st51" d="M92.1,12.6c0.9-1.2,1.4-2,1.4-2s-0.7,0.1-2.4,0.1c-3.1,0-11.9,0-13.7,0l2-8.7h-8.7c0,0,1.2,0.9,1,2.3
			l-4.7,21.8h3.2c3.4,0,4-2.4,4-2.4L76,17c0.8-2.3,2.6-2.1,3.2-2.1h8.3C89.7,14.8,91.1,13.9,92.1,12.6"/>
		<path class="st51" d="M197,10.7c-3.1,0-11.9,0-13.7,0l2-8.7h-8.6c0,0,1.2,0.9,1,2.3l-4.7,21.8h3.2c3.4,0,4-2.4,4-2.4l1.6-6.8
			c0.8-2.3,2.6-2.1,3.2-2.1h8.3c2.2,0,3.6-0.9,4.6-2.2c0.9-1.2,1.4-2,1.4-2S198.7,10.7,197,10.7"/>
		<path class="st51" d="M161.4,14.6c0.2-0.9,1.3-6.5,1.3-6.5h-3c-0.7,0-1.6,0.6-1.8,1.5c-0.2,0.9-1.4,6.5-1.4,6.5h3.1
			C160.2,16.2,161.2,15.5,161.4,14.6"/>
		<path class="st51" d="M151,9.8c-0.2,0.9-1.4,6.4-1.4,6.4h3.2c0.8,0,1.5-0.6,1.7-1.5c0.2-0.9,1.3-6.5,1.3-6.5H153
			C152.1,8.2,151.2,8.9,151,9.8"/>
		<path class="st51" d="M168.3,8.2c-0.3,0-0.8,0-1.1,0.5c-6.1,9.8-10.7,15.7-10.7,15.7h2.7c2.3,0,3.3-0.7,4-1.5
			c5.9-6.9,11.2-14.7,11.2-14.7H168.3z"/>
		<path class="st51" d="M138,5.9c-1.3-1.7-1.8-2-3.2-2h-5.8c-0.7,0-1.6,0.3-2.2,1c-0.6,0.7-9.3,12-9.3,12h2.8c2.3,0,3.4-0.8,4.6-2.4
			c0.8-1,2.8-3.6,4.8-6.4c0.9-1.1,2-1.5,3.1,0.3c3.3,5.3,7.9,13,8.3,13.6c0.5,0.9,2,2.1,3.9,2.1h5.5c0,0-1.4-2-2.6-3.9
			C143.6,14,138.5,6.5,138,5.9"/>
		<path class="st51" d="M144.3,8.5c2.3,0,4.6-1.5,5.1-3.3c0.4-1.8-1.1-3.3-3.5-3.3c-2.3,0-4.6,1.5-5.1,3.3
			C140.3,7,141.9,8.5,144.3,8.5 M143.5,5.2c0.3-1,1.2-1.8,2-1.8c0.9,0,1.3,0.8,1.1,1.8c-0.3,1-1.2,1.8-2,1.8
			C143.7,6.9,143.2,6.1,143.5,5.2"/>
	</g>
</g>
<g id="レイヤー_2">
</g>
</svg>
