<?xml version="1.0" encoding="utf-8"?>
<!-- Generator: Adobe Illustrator 26.0.1, SVG Export Plug-In . SVG Version: 6.00 Build 0)  -->
<svg version="1.1" id="レイヤー_1" xmlns="http://www.w3.org/2000/svg" xmlns:xlink="http://www.w3.org/1999/xlink" x="0px"
	 y="0px" viewBox="0 0 155.6 136.8" style="enable-background:new 0 0 155.6 136.8;" xml:space="preserve">
<style type="text/css">
	.st0{fill:#FFFFFF;}
	.st1{fill:none;stroke:#7DCCF3;stroke-width:0.8422;stroke-linecap:round;stroke-linejoin:round;}
	.st2{fill:none;stroke:#7DCCF3;stroke-width:0.8422;stroke-linecap:round;stroke-linejoin:round;stroke-dasharray:0.8389,3.3558;}
	.st3{fill:#7DCCF3;}
	.st4{fill:#515151;}
	.st5{fill:#009FE8;}
	.st6{fill:#231815;}
</style>
<g>
	<path class="st0" d="M135.9,117.1c-5.1,5.1-12.7,6.7-18.9,9.9c-6.4,3.2-12.2,8.4-19.1,9.5c-7,1.1-14.1-2-21.1-3.1
		c-6.9-1.1-14.6-0.3-21-3.5c-6.1-3.2-10-9.9-15.1-15s-11.8-9.1-14.9-15.2c-3.2-6.4-2.4-14.1-3.5-21c-1.1-7-4.2-14.1-3.1-21.1
		c1.1-6.9,6.2-12.7,9.5-19.1c3.1-6.1,4.7-13.7,9.9-18.9s12.7-6.7,18.9-9.9c6.4-3.2,12.2-8.4,19.1-9.5c7-1.1,14.1,2,21.1,3.1
		c6.9,1.1,14.6,0.3,21,3.5c6.1,3.1,10.1,9.8,15.2,14.9c5.1,5.1,11.8,9.1,14.9,15.2c3.2,6.4,2.4,14.1,3.5,21c1.1,7,4.2,14.1,3.1,21.1
		c-1.1,6.9-6.2,12.7-9.5,19.1C142.7,104.4,141.1,112,135.9,117.1"/>
	<g>
		<g>
			<path class="st1" d="M131.1,112.3c-0.1,0.1-0.2,0.2-0.3,0.3"/>
			<path class="st2" d="M128.1,114.6c-4.3,2.9-9.6,4.2-14.1,6.5c-5.7,2.9-11,7.5-17.2,8.5c-6.3,1-12.7-1.8-19-2.8
				c-6.2-1-13.2-0.3-18.9-3.2c-5.5-2.8-9.1-8.8-13.7-13.4S34.6,102,31.8,96.5c-2.9-5.7-2.1-12.6-3.1-18.9s-3.8-12.7-2.8-19
				c1-6.2,5.6-11.5,8.5-17.2c2.8-5.5,4.3-12.4,8.9-17s11.5-6.1,17-8.9C66,12.6,71.3,8,77.5,7c6.3-1,12.7,1.8,19,2.8
				c6.2,1,13.2,0.3,18.9,3.2c5.5,2.8,9.1,8.8,13.7,13.4c4.6,4.6,10.6,8.2,13.4,13.7c2.9,5.8,2.2,12.8,3.2,19c1,6.3,3.8,12.7,2.8,19
				c-1,6.2-5.6,11.5-8.5,17.2c-2.5,4.9-3.9,10.9-7.5,15.4"/>
			<path class="st1" d="M131.4,112c-0.1,0.1-0.2,0.2-0.3,0.3"/>
		</g>
	</g>
	<g>
		<path class="st3" d="M60.6,49.5c0-10.1,2.8-18.4,6.2-18.4c3.4,0,6.2,8.2,6.2,18.4c0,6.4-0.5,13.7-2.2,17c-1,1.9-2.8,1.8-4.1,1.8
			c-1.3,0-2.8,0-3.8-1.9C61.4,63.1,60.6,55.9,60.6,49.5"/>
		<path class="st3" d="M96.3,50.8L96.3,50.8c0-1.5-0.3-3.6-1.9-4.6c-3.2-2.2-5.1-1.1-8-1.1c-0.2,0-0.4,0-0.6,0
			C83.1,45,80.9,44,78.4,46c-1.5,1.1-1.9,3.3-1.9,4.8l0,0l0,0l0,0c0,1.5,0.2,3,1.7,4.1c3.2,2.2,5.2,1.6,8.2,1.6c0.2,0,0.4,0,0.6,0
			c2.7,0.1,5.1,0.5,7.5-1.4C96,53.9,96.3,52.3,96.3,50.8L96.3,50.8L96.3,50.8z"/>
		<path class="st3" d="M111.5,39.5c0,4.6-1.6,8.4-6.2,8.4c-4.6,0-7.6-3.4-7.6-8.1c0-4.6,2.4-8.7,7-8.7
			C109.4,31.1,111.5,34.8,111.5,39.5"/>
		<path class="st0" d="M71.8,37c0,1.1-0.1,2.1-0.4,3c-0.1,0.4-0.4,0.9-0.9,1.3c-0.4,0.4-1.4,0.6-2,0.6s-1.4-0.1-1.9-0.5
			s-0.6-0.6-0.8-1.2c-0.4-0.8-0.6-2.2-0.6-3.2c0-1.8,0.5-3.7,1.6-4.6c0.6-0.5,1.2-0.7,2-0.7c0.7,0,1.1,0.2,1.7,0.5
			C71.6,33.1,71.8,35,71.8,37"/>
		<path class="st4" d="M71.8,36c0,0.6-0.1,2.2-0.7,2.9c-0.3,0.3-1.3,0.9-1.8,0.9s-1.7,0-2-0.4c-0.9-1-1.2-1.6-1.2-3
			c0-1.3,0.1-2.3,1.5-3.8c0.4-0.4,1.1-0.6,1.7-0.6c0.5,0,1,0.2,1.4,0.5C71.6,33.1,71.8,34.6,71.8,36"/>
		<path class="st5" d="M111.2,62.3c0,3.3-2.7,5.9-5.9,5.9s-5.9-2.7-5.9-5.9c0-3.3,2.7-5.9,5.9-5.9S111.2,59,111.2,62.3"/>
		<path class="st0" d="M105.1,37c0,1.1-0.1,2.1-0.4,3c-0.1,0.4-0.4,0.9-0.9,1.3c-0.4,0.4-1.4,0.6-2,0.6s-1.4-0.1-1.9-0.5
			s-0.6-0.6-0.8-1.2c-0.4-0.8-0.6-2.2-0.6-3.2c0-1.8,0.5-3.7,1.6-4.6c0.6-0.5,1.2-0.7,2-0.7c0.7,0,1.1,0.2,1.7,0.5
			C104.8,33.1,105.1,35,105.1,37"/>
		<path class="st4" d="M105,36c0,0.6-0.1,2.2-0.7,2.9c-0.3,0.3-1.3,0.9-1.8,0.9s-1.7,0-2-0.4c-0.9-1-1.2-1.6-1.2-3
			c0-1.3,0.1-2.3,1.5-3.8c0.4-0.4,1.1-0.6,1.7-0.6c0.5,0,1,0.2,1.4,0.5C104.9,33.1,105.1,34.6,105,36"/>
	</g>
	<g>
		<path class="st6" d="M49.5,80.9c0.2,0,0.3,0,0.3-0.1c0.1,0,0.1-0.1,0.2-0.1s0.3,0.1,0.6,0.4c0.4,0.4,0.5,0.5,0.5,0.6
			s0,0.2-0.1,0.3c-0.1,0.1-0.2,0.2-0.3,0.5c-0.7,2.1-1.9,4.1-3.8,5.7c-0.2,0.1-0.2,0.2-0.3,0.2c-0.1,0-0.2-0.1-0.3-0.3
			c-0.2-0.4-0.5-0.7-0.8-0.9c1.9-1.4,3.1-3,3.7-5.1h-1.6c-1.1,0-1.4,0-1.5,0s-0.2,0-0.2-0.2v-1.1c0-0.1,0-0.2,0.2-0.2
			c0.1,0,0.4,0,1.5,0h1.9V80.9z M52.8,79.4c0.2,1,0.6,2,1.1,3c0.8-0.7,1.3-1.3,2-2.1c0.2-0.3,0.3-0.5,0.5-0.8
			c0.5,0.3,0.9,0.6,1.2,0.8c0.2,0.1,0.2,0.2,0.2,0.3c0,0.1-0.1,0.2-0.2,0.2c-0.2,0.1-0.4,0.3-0.8,0.6c-0.5,0.6-1.2,1.3-2.2,2
			c1.1,1.5,2.5,2.8,4,3.5c-0.3,0.3-0.6,0.6-0.8,1c-0.1,0.2-0.2,0.3-0.3,0.3c-0.1,0-0.2-0.1-0.3-0.2c-2-1.4-3.7-3.5-4.5-5.8
			c0,2.1,0.1,4.4,0.1,5.8c0,0.6-0.1,1-0.6,1.3c-0.3,0.2-1,0.3-2.1,0.3c-0.4,0-0.4,0-0.6-0.4c-0.1-0.5-0.3-0.9-0.5-1.1
			c0.4,0,0.9,0.1,1.4,0c0.5,0,0.7-0.1,0.7-0.5v-9.2c0-0.7,0-1.1-0.1-1.6c0.5,0,1.1,0,1.6,0.1c0.1,0,0.2,0.1,0.2,0.2
			s-0.1,0.3-0.1,0.4c-0.1,0.2-0.1,0.5-0.1,1v0.9H52.8z"/>
		<path class="st6" d="M70.1,84.4c0.2-0.1,0.2-0.1,0.3,0c0.8,0.7,1.5,1.5,2.1,2.3c0.1,0.1,0.1,0.2-0.1,0.3l-0.8,0.5
			c-0.2,0.1-0.2,0.1-0.3,0c-0.2-0.3-0.4-0.6-0.6-0.9c-1.2,0.1-2.5,0.2-3.8,0.3v1.6c0,0.9,0,1.3,0,1.4s0,0.2-0.2,0.2h-1.2
			c-0.1,0-0.2,0-0.2-0.2c0-0.1,0-0.5,0-1.4V87c-1.4,0.1-2.8,0.1-4.1,0.2c-0.3,0-0.5,0-0.5,0.1c-0.1,0-0.1,0.1-0.2,0.1
			s-0.2-0.1-0.2-0.2c-0.1-0.4-0.2-0.9-0.3-1.3c0.6,0,1.1,0.1,1.5,0.1c0.8,0,1.7,0,2.5-0.1c-0.7-0.5-1.4-1-2.2-1.4
			c-0.1,0-0.1-0.1-0.1-0.1s0-0.1,0.1-0.1l0.7-0.6c0.1-0.1,0.2-0.1,0.3,0l0.9,0.5c0.3-0.2,0.6-0.5,0.8-0.8c0.1-0.1,0.2-0.3,0.3-0.4
			h-2.9c-1.3,0-1.7,0-1.8,0c-0.1,0-0.2,0-0.2-0.2v-0.9c0-0.2,0-0.2,0.2-0.2c0.1,0,0.5,0,1.8,0h3.5V81h-1.7c-1.4,0-1.8,0-1.9,0
			c-0.2,0-0.2,0-0.2-0.2V80c0-0.1,0-0.2,0.2-0.2c0.1,0,0.6,0,1.9,0h1.7v-0.7h-2.5c-1.4,0-1.8,0-1.9,0s-0.2,0-0.2-0.2V78
			c0-0.1,0-0.2,0.2-0.2c0.1,0,0.5,0,1.9,0h2.5c0-0.6,0-0.9-0.1-1.3c0.5,0,1,0,1.5,0.1c0.1,0,0.2,0.1,0.2,0.1c0,0.1,0,0.2-0.1,0.3
			c-0.1,0.1-0.1,0.3-0.1,0.8h2.8c1.4,0,1.8,0,1.9,0s0.2,0,0.2,0.2v0.9c0,0.1,0,0.2-0.2,0.2c-0.1,0-0.6,0-1.9,0h-2.8v0.7h2
			c1.4,0,1.8,0,1.9,0c0.2,0,0.2,0,0.2,0.2v0.8c0,0.1,0,0.2-0.2,0.2c-0.1,0-0.6,0-1.9,0h-2v0.9h3.8c1.3,0,1.7,0,1.8,0
			c0.1,0,0.2,0,0.2,0.2v0.8c0,0.1,0,0.2-0.2,0.2c-0.1,0-0.5,0-1.8,0h-5.1c0.2,0.1,0.5,0.2,0.7,0.3c0.1,0.1,0.2,0.1,0.2,0.2
			s-0.1,0.1-0.2,0.2c-0.1,0-0.2,0.1-0.4,0.3c-0.3,0.3-0.6,0.6-1,0.8c0.3,0.2,0.5,0.4,0.8,0.6c0.7-0.5,1.3-1.1,1.8-1.6
			c0.3-0.3,0.4-0.5,0.5-0.7c0.4,0.2,0.8,0.4,1.2,0.7c0.1,0.1,0.2,0.1,0.2,0.2s-0.1,0.2-0.2,0.2s-0.3,0.1-0.5,0.3
			c-0.5,0.5-1,0.9-1.5,1.2c1,0,2-0.1,2.8-0.2l-0.5-0.5c-0.1-0.1-0.1-0.2,0.1-0.3L70.1,84.4z M64.3,87.8c0.1,0.1,0.1,0.1,0.1,0.2
			s-0.1,0.1-0.2,0.2c-0.1,0-0.3,0.2-0.5,0.3c-0.6,0.5-1.4,1-2.3,1.4C61.2,90,61.1,90,61.1,90c-0.1,0-0.2-0.1-0.3-0.3
			c-0.2-0.3-0.4-0.6-0.7-0.7c1-0.3,1.8-0.7,2.5-1.2c0.2-0.2,0.4-0.3,0.6-0.6C63.6,87.4,64,87.6,64.3,87.8 M68.8,87.2
			c0.2-0.1,0.2-0.1,0.3,0c0.8,0.7,1.8,1.2,3.1,1.6c-0.2,0.2-0.5,0.5-0.7,0.8c-0.2,0.2-0.2,0.3-0.3,0.3c-0.1,0-0.2,0-0.3-0.1
			c-1.1-0.5-2-1.1-2.9-1.9c-0.1-0.1-0.1-0.1,0.1-0.2L68.8,87.2z"/>
		<path class="st6" d="M77.5,82c0,0.5,0,1.2,0,1.7c0,0.2,0,0.2-0.3,0.3c-0.4,0-0.9,0-1.3,0c-0.2,0-0.3,0-0.3-0.2
			c0-0.6,0.1-1.2,0.1-1.8v-1.3c0-0.8,0-1.3-0.1-1.8c0-0.1,0.1-0.1,0.2-0.1c0.6,0,1.5,0.1,2.4,0.1H83c0.5,0,0.7-0.1,0.9-0.2
			c0.1-0.1,0.1-0.1,0.2-0.1s0.2,0,0.3,0.1c0.4,0.3,0.9,0.7,1.1,0.9c0.1,0.1,0.1,0.2,0.1,0.3c0,0.1,0,0.2-0.1,0.3
			c-0.2,0.2-0.3,0.6-0.4,0.8c-0.4,1.6-1,3-1.7,4.4c-0.8,1.4-1.8,2.8-3.2,3.9c-0.1,0.1-0.2,0.2-0.3,0.2c-0.1,0-0.2,0-0.3-0.1
			c-0.4-0.3-0.8-0.4-1.4-0.5c1.7-1.3,2.7-2.5,3.6-4.1c0.8-1.4,1.2-2.6,1.6-4.4h-5.9L77.5,82L77.5,82z"/>
		<path class="st6" d="M97.3,79.8c0.4,0,0.6-0.1,0.7-0.2c0.1,0,0.1-0.1,0.2-0.1c0.1,0,0.1,0,0.2,0.1c0.4,0.2,0.7,0.5,1,0.8
			c0.1,0.1,0.2,0.2,0.2,0.3c0,0.1-0.1,0.2-0.2,0.3c-0.2,0.2-0.3,0.4-0.5,0.6c-1,1.9-1.9,3.3-2.8,4.4c-1.2,1.4-2.9,2.8-4.3,3.5
			c-0.1,0.1-0.2,0.1-0.2,0.1c-0.1,0-0.2-0.1-0.3-0.2c-0.4-0.3-0.8-0.5-1.4-0.7c2.2-1.2,3.3-2.1,4.7-3.6c1.1-1.3,1.8-2.2,2.6-4
			l-3.4,0.1c-1.2,1.4-1.9,2.2-2.7,2.9c-0.1,0.1-0.2,0.2-0.3,0.2c-0.1,0-0.1,0-0.2-0.1c-0.4-0.3-0.9-0.5-1.4-0.6
			c1.8-1.5,2.9-2.8,3.8-4.2c0.5-0.8,0.7-1.2,0.8-1.9c0.8,0.3,1.3,0.5,1.7,0.8c0.1,0.1,0.1,0.2,0.1,0.2c0,0.1,0,0.2-0.2,0.2
			c-0.1,0.1-0.2,0.2-0.4,0.4c-0.2,0.2-0.3,0.5-0.5,0.7L97.3,79.8z"/>
		<path class="st6" d="M105.9,82c0,0.5,0,1.2,0,1.7c0,0.2,0,0.2-0.3,0.3c-0.4,0-0.9,0-1.3,0c-0.2,0-0.3,0-0.3-0.2
			c0-0.6,0.1-1.2,0.1-1.8v-1.3c0-0.8,0-1.3-0.1-1.8c0-0.1,0.1-0.1,0.2-0.1c0.6,0,1.5,0.1,2.4,0.1h4.8c0.5,0,0.7-0.1,0.9-0.2
			c0.1-0.1,0.1-0.1,0.2-0.1c0.1,0,0.2,0,0.3,0.1c0.4,0.3,0.9,0.7,1.1,0.9c0.1,0.1,0.1,0.2,0.1,0.3c0,0.1,0,0.2-0.1,0.3
			c-0.2,0.2-0.3,0.6-0.4,0.8c-0.4,1.6-1,3-1.7,4.4c-0.8,1.4-1.8,2.8-3.2,3.9c-0.1,0.1-0.2,0.2-0.3,0.2s-0.2,0-0.3-0.1
			c-0.4-0.3-0.8-0.4-1.4-0.5c1.7-1.3,2.7-2.5,3.6-4.1c0.8-1.4,1.2-2.6,1.6-4.4h-5.9L105.9,82L105.9,82z"/>
		<path class="st6" d="M125.7,79.8c0.4,0,0.6-0.1,0.7-0.2c0.1,0,0.1-0.1,0.2-0.1c0.1,0,0.1,0,0.2,0.1c0.4,0.2,0.7,0.5,1,0.8
			c0.1,0.1,0.2,0.2,0.2,0.3c0,0.1-0.1,0.2-0.2,0.3c-0.2,0.2-0.3,0.4-0.5,0.6c-1,1.9-1.9,3.3-2.8,4.4c-1.2,1.4-2.9,2.8-4.3,3.5
			c-0.1,0.1-0.2,0.1-0.2,0.1c-0.1,0-0.2-0.1-0.3-0.2c-0.4-0.3-0.8-0.5-1.4-0.7c2.2-1.2,3.3-2.1,4.7-3.6c1.1-1.3,1.8-2.2,2.6-4
			l-3.4,0.1c-1.2,1.4-1.9,2.2-2.7,2.9c-0.1,0.1-0.2,0.2-0.3,0.2s-0.1,0-0.2-0.1c-0.4-0.3-0.9-0.5-1.4-0.6c1.8-1.5,2.9-2.8,3.8-4.2
			c0.5-0.8,0.7-1.2,0.8-1.9c0.8,0.3,1.3,0.5,1.7,0.8c0.1,0.1,0.1,0.2,0.1,0.2c0,0.1,0,0.2-0.2,0.2c-0.1,0.1-0.2,0.2-0.4,0.4
			c-0.2,0.2-0.3,0.5-0.5,0.7L125.7,79.8z"/>
		<path class="st6" d="M68.3,98.7c0-0.3,0-0.6,0-1c0.7,0.2,1.3,0.4,1.6,0.6c0.1,0.1,0.2,0.3,0.1,0.4c-0.1,0.2-0.2,0.3-0.2,0.6
			c-0.1,0.6-0.3,1.2-0.4,1.8c0.8,0.4,1.7,1,2.2,1.4c0.1,0.1,0.1,0.2,0.1,0.3c-0.1,0.3-0.4,0.9-0.6,1.2c0,0.1-0.1,0.1-0.1,0.1
			c-0.1,0-0.1,0-0.2-0.1c-0.6-0.5-1.2-1-1.9-1.3c-0.7,1.6-1.5,2.7-2.9,3.7c-0.1,0.1-0.2,0.2-0.3,0.2c-0.1,0-0.1,0-0.2-0.1
			c-0.4-0.3-0.7-0.5-1.2-0.6c1.8-1.2,2.6-2.4,3.2-3.9c-0.8-0.4-1.8-0.7-2.8-0.9c-0.8,1.6-1.2,2.3-1.7,2.8c-0.5,0.6-1.1,0.8-1.8,0.8
			c-0.8,0-1.7-0.6-1.7-1.9c0-1.8,1.8-3.1,4.2-3.1c0.5-1.2,0.8-2.2,1.2-3.4c-0.8,0.1-1.5,0.2-2,0.2c-0.2,0-0.4,0.1-0.6,0.2
			c-0.1,0-0.2,0.1-0.3,0.1c-0.1,0-0.2-0.1-0.2-0.2c-0.1-0.3-0.3-0.8-0.4-1.5c0.4,0.1,0.8,0.1,1.3,0.1c0.7,0,1.4-0.1,2.2-0.2
			c0.4-0.1,0.5-0.1,0.7-0.2c0.1,0,0.1-0.1,0.2-0.1s0.1,0,0.2,0.1c0.4,0.2,0.7,0.5,1,0.8c0.1,0.1,0.1,0.2,0.1,0.2
			c0,0.1-0.1,0.2-0.1,0.2c-0.2,0.2-0.3,0.5-0.4,0.7c-0.4,1-0.8,2.1-1.2,3.1c0.9,0.1,1.7,0.3,2.8,0.7C68.1,99.9,68.2,99.3,68.3,98.7
			 M60.8,102.6c0,0.5,0.2,0.7,0.5,0.7s0.5-0.2,0.8-0.5c0.3-0.4,0.7-1,1-1.7C61.7,101.1,60.8,101.8,60.8,102.6"/>
		<path class="st6" d="M77.3,97.8c0.2,0.1,0.2,0.2,0.2,0.3c0,0.1,0,0.1-0.1,0.2c-0.1,0.2-0.2,0.5-0.3,0.8c-0.1,0.7-0.3,1.8-0.3,2.6
			c1.3-1.3,3-2.2,4.7-2.2c2.1,0,3.3,1.2,3.3,3c0,1.5-0.9,2.6-2.1,3.2c-1,0.5-2.4,0.8-3.6,1c-0.3,0-0.4,0-0.6-0.2
			c-0.3-0.5-0.5-0.9-1-1.2c1.6-0.1,3-0.4,3.9-0.8c1.2-0.5,1.7-1.2,1.7-2.1c0-0.8-0.5-1.5-1.7-1.5c-1.3,0-2.8,0.8-4.1,2.2
			c-0.3,0.3-0.4,0.5-0.6,0.8c-0.1,0.1-0.1,0.1-0.3,0.1c-0.3-0.1-0.7-0.2-1-0.4c-0.1-0.1-0.2-0.1-0.2-0.3c0.1-1.6,0.3-3.3,0.4-4.6
			c0.1-0.4,0.1-0.8,0.1-1.3C76.3,97.5,76.9,97.7,77.3,97.8 M77.6,94.2c0.1-0.1,0.2-0.1,0.3-0.1c1.1,0.4,1.9,1,2.8,1.7
			c0.1,0.1,0.1,0.1,0.1,0.2c0,0,0,0.1-0.1,0.2c-0.2,0.3-0.5,0.7-0.7,1c-0.1,0.1-0.1,0.1-0.2,0.1s-0.1,0-0.2-0.1
			c-0.8-0.7-1.7-1.3-2.9-1.8C77.1,94.8,77.4,94.5,77.6,94.2"/>
		<path class="st6" d="M90.3,96.4c0.1,0.1,0.2,0.2,0.2,0.3c0,0.1,0,0.2-0.1,0.4c-0.1,0.2-0.1,0.8-0.1,1.4c0,0.9,0,1.9,0.3,3.2
			c0.2,1.1,0.6,2.1,1.2,2.1c0.5,0,0.8-0.5,1.4-2c0.3,0.5,0.6,0.8,0.9,1.1c0.2,0.2,0.2,0.3,0.1,0.5c-0.5,1.4-1.4,2.2-2.4,2.2
			c-1.1,0-2.3-1.3-2.7-3.7c-0.2-1.4-0.3-2.8-0.3-4.1c0-0.8,0-1.2-0.2-1.9C89.1,96,89.8,96.2,90.3,96.4 M96.8,97.3
			c0.1,0,0.1-0.1,0.2-0.1s0.1,0,0.2,0.1c1.3,1.1,2.4,3.1,2.8,4.9c0,0.2,0,0.2-0.2,0.3c-0.4,0.2-0.7,0.4-1.1,0.6
			c-0.2,0.1-0.3,0-0.3-0.2c-0.5-2-1.2-3.5-2.7-5C96.3,97.6,96.6,97.4,96.8,97.3"/>
		<path class="st6" d="M102.9,96.1c0-1,0-1.4-0.1-2.1c0.5,0,1,0,1.4,0.1c0.1,0,0.2,0.1,0.2,0.1c0,0.1,0,0.2-0.1,0.3
			c-0.1,0.2-0.1,0.5-0.1,1.6v1.7c0.6,0,0.8,0,0.9,0c0.1,0,0.2,0,0.2,0.2v1c0,0.1,0,0.2-0.2,0.2c-0.1,0-0.3,0-0.9,0v5.3
			c0,1.6,0,2.4,0,2.5s0,0.2-0.2,0.2h-1.1c-0.1,0-0.2,0-0.2-0.2c0-0.1,0-0.9,0-2.5v-5.3l0,0c-0.8,0-1.1,0-1.2,0c-0.1,0-0.2,0-0.2-0.2
			v-1c0-0.1,0-0.2,0.2-0.2c0.1,0,0.3,0,1.2,0l0,0v-1.7H102.9z M112.6,104c0,0.5,0,0.8,0,1.3s0,0.9-0.4,1.2c-0.3,0.2-0.7,0.3-1.7,0.3
			c-0.4,0-0.4,0-0.6-0.4c-0.1-0.3-0.2-0.7-0.4-0.9c0.4,0,0.8,0.1,1.3,0c0.3,0,0.5-0.1,0.5-0.4v-1.4h-4.1c-1.4,0-1.9,0-2,0
			c-0.2,0-0.2,0-0.2-0.2v-0.9c0-0.1,0-0.2,0.2-0.2c0.1,0,0.6,0,2,0h4c0-0.2,0-0.4-0.1-0.7c0.5,0,1,0,1.4,0.1c0.1,0,0.2,0.1,0.2,0.2
			s0,0.2-0.1,0.2c0,0.1,0,0.1-0.1,0.2c1.3,0,1.8,0,1.8,0c0.1,0,0.2,0.1,0.2,0.2v0.9c0,0.1,0,0.2-0.2,0.2c-0.1,0-0.6,0-1.9,0v0.3
			 M112,93.9c0.2-0.1,0.2,0,0.3,0c0.3,0.2,0.7,0.5,1,0.8c0.1,0.1,0.1,0.1-0.1,0.2l-0.6,0.4c1.1,0,1.6,0,1.6,0c0.2,0,0.2,0,0.2,0.1
			v0.9c0,0.1,0,0.2-0.2,0.2c-0.1,0-0.6,0-1.9,0h-1.9v0.8h1.2c1.3,0,1.8,0,1.9,0c0.1,0,0.2,0,0.2,0.2c0,0.1,0,0.4,0,1.2v1.7
			c0,0.8,0,1.1,0,1.2s0,0.2-0.2,0.2c-0.1,0-0.6,0-1.9,0H108c-1.3,0-1.8,0-1.9,0c-0.1,0-0.2,0-0.2-0.2c0-0.1,0-0.4,0-1.2v-1.7
			c0-0.8,0-1.1,0-1.2s0-0.2,0.2-0.2c0.1,0,0.6,0,1.9,0h1.1v-0.8h-1.6c-1.4,0-1.9,0-1.9,0c-0.1,0-0.2,0-0.2-0.2v-0.9
			c0-0.1,0-0.1,0.2-0.1c0.1,0,0.6,0,1.9,0h1.6c0-0.7,0-1-0.1-1.5c0.5,0,0.9,0,1.4,0.1c0.1,0,0.2,0.1,0.2,0.1c0,0.1,0,0.2-0.1,0.3
			c-0.1,0.1-0.1,0.4-0.1,1h1.8c-0.2-0.3-0.6-0.6-0.9-0.9c-0.1-0.1-0.1-0.1,0-0.2L112,93.9 M107.4,103.9c0.1-0.1,0.2-0.1,0.3,0
			c0.5,0.4,0.9,0.9,1.3,1.5c0.1,0.1,0.1,0.2-0.1,0.3l-0.8,0.6c-0.1,0.1-0.1,0.1-0.2,0.1c0,0-0.1,0-0.1-0.1c-0.4-0.6-0.8-1.2-1.2-1.6
			c-0.1-0.1-0.1-0.2,0.1-0.3L107.4,103.9 M109.1,98.2h-1.7V99h1.7V98.2z M109.1,99.9h-1.7v0.8h1.7V99.9z M110.4,99h1.8v-0.8h-1.8V99
			z M112.2,99.9h-1.8v0.8h1.8V99.9z"/>
	</g>
	<g>
		<path class="st5" d="M39.3,44c-1.7,1.7-4.3,2.2-6.4,3.3c-2.1,1.1-4.1,2.8-6.4,3.1c-2.3,0.4-4.8-0.7-7.1-1
			c-2.3-0.4-4.9-0.1-7.1-1.2c-2.1-1-3.4-3.3-5.1-5c-1.7-1.7-4-3-5-5.1c-1.1-2.1-0.8-4.8-1.2-7.1c-0.4-2.3-1.4-4.8-1-7.1
			s2.1-4.2,3.1-6.4c1-2.1,1.6-4.6,3.3-6.4s4.3-2.2,6.4-3.3C15,6.9,17,5.2,19.4,4.9c2.3-0.4,4.8,0.7,7.1,1C28.7,6.3,31.4,6,33.5,7
			c2.1,1,3.4,3.3,5.1,5c1.7,1.7,4,3,5,5.1c1.1,2.1,0.8,4.8,1.2,7.1c0.4,2.3,1.4,4.8,1,7.1c-0.4,2.3-2.1,4.2-3.1,6.4
			C41.5,39.8,41,42.4,39.3,44"/>
		<g>
			<g>
				<path class="st0" d="M17.4,16.5c1.3-0.3,1.9,0.2,2.1,1.3l1.2,6.8c0.2,1.2-0.3,1.8-1.3,2c-0.4,0.1-0.7,0.1-1,0.1
					c-0.4,0-0.6-0.3-0.7-0.6c-0.1-0.3,0.1-0.7,0.5-0.8c0.1,0,0.1,0,0.1,0c0.2,0,0.4,0,0.6-0.1s0.4-0.2,0.3-0.5l-1.2-6.4
					c-0.1-0.4-0.3-0.6-0.8-0.5l-5.5,1c-0.6,0.1-0.7,0.3-0.6,0.8l1.4,7.8c0.1,0.3-0.3,0.6-0.6,0.6c-0.3,0.1-0.7-0.1-0.8-0.4l-1.5-8.1
					c-0.2-1.1,0.2-1.7,1.5-1.9L17.4,16.5z M17.2,18.7c0.3-0.1,0.5,0.2,0.6,0.4c0.1,0.3-0.1,0.6-0.4,0.6l-4.8,0.8
					c-0.3,0.1-0.5-0.2-0.6-0.5c-0.1-0.3,0.1-0.6,0.4-0.6L17.2,18.7z M14.9,25.1c-1,0.2-1.4-0.1-1.5-1l-0.3-1.4
					c-0.1-0.8,0.2-1.3,1.1-1.4l1.8-0.3c1-0.2,1.4,0.1,1.5,1l0.3,1.4c0.2,1-0.3,1.3-1.1,1.4L14.9,25.1z M16.3,23.7
					c0.3-0.1,0.3-0.1,0.3-0.4l-0.2-1.1C16.3,22.1,16.3,22,16,22l-1.3,0.3c-0.3,0.1-0.3,0.1-0.3,0.4l0.2,1.1c0.1,0.3,0.2,0.3,0.4,0.3
					L16.3,23.7z"/>
				<path class="st0" d="M24.1,24c-0.8,0.1-1.2-0.1-1.4-1l-1-5.9c-0.1-0.8,0.1-1.3,1-1.4l1.1-0.2c0.8-0.1,1.3,0.1,1.4,1l1,5.9
					c0.1,0.8-0.1,1.3-1,1.4L24.1,24z M24,17c-0.1-0.3-0.1-0.3-0.4-0.3l-0.5,0.1c-0.3,0.1-0.3,0.1-0.2,0.4l0.3,1.9l1.1-0.2L24,17z
					 M24.7,22.7c0.3-0.1,0.3-0.1,0.3-0.4l-0.4-2.2l-1.1,0.2l0.4,2.2c0.1,0.2,0.1,0.3,0.3,0.3L24.7,22.7z M28.1,16.6l-1.5,0.3
					c-0.3,0.1-0.6-0.2-0.6-0.4c-0.1-0.3,0.1-0.6,0.4-0.6l1.5-0.3l-0.2-1c-0.1-0.4,0.2-0.6,0.5-0.6c0.3-0.1,0.6,0.1,0.7,0.4l0.2,1
					l1.6-0.3c0.3-0.1,0.6,0.2,0.6,0.4s-0.1,0.6-0.4,0.6l-1.6,0.3l0.2,1L32,17c0.3-0.1,0.6,0.2,0.6,0.4c0.1,0.3-0.1,0.6-0.4,0.6
					l-5.8,1c-0.3,0.1-0.6-0.2-0.6-0.4c-0.1-0.3,0.1-0.6,0.4-0.6l2.1-0.4L28.1,16.6z M27,21.5c-0.3,0.1-0.6-0.2-0.6-0.5
					c-0.1-0.3,0.1-0.6,0.4-0.6l3.1-0.6l-0.1-0.5c-0.1-0.4,0.2-0.6,0.5-0.6c0.3-0.1,0.6,0.1,0.7,0.4l0.1,0.5l1.1-0.2
					c0.3-0.1,0.6,0.2,0.6,0.5c0.1,0.3-0.1,0.6-0.4,0.6l-1.1,0.2l0.4,2.3c0.2,1-0.2,1.5-1.1,1.6c-0.4,0.1-0.6,0.1-1,0.1
					c-0.3,0-0.5-0.3-0.6-0.5c-0.1-0.3,0.1-0.6,0.4-0.7c0.1,0,0.1,0,0.1,0c0.2,0,0.3,0,0.5-0.1c0.2-0.1,0.3-0.1,0.3-0.3l-0.4-2.2
					L27,21.5z M29.1,22.4c0.1,0.1,0.2,0.2,0.2,0.3c0.1,0.3-0.2,0.7-0.6,0.8c-0.2,0-0.3,0-0.5-0.2c-0.3-0.3-0.4-0.4-0.7-0.6
					c-0.1-0.1-0.2-0.2-0.2-0.3c-0.1-0.3,0.2-0.6,0.5-0.7c0.1,0,0.3,0,0.4,0.1C28.6,21.9,28.9,22.1,29.1,22.4z"/>
				<path class="st0" d="M14.1,34.5l1.1,6.1c0.1,0.3-0.3,0.6-0.6,0.6s-0.6-0.1-0.7-0.4l-1.6-8.8c-0.1-0.8,0.1-1.3,1.3-1.5l1.3-0.3
					c1.2-0.2,1.6,0.1,1.7,1l0.4,1.5c0.1,0.4,0.1,0.8-0.2,1c-0.3,0.3-0.7,0.4-1.2,0.4L14.1,34.5z M15.5,31.4
					c-0.1-0.2-0.1-0.3-0.4-0.2l-1.2,0.2c-0.3,0.1-0.4,0.1-0.3,0.3l0.1,0.3l1.9-0.3V31.4z M15.4,33.3c0.3-0.1,0.4-0.1,0.3-0.3
					l-0.1-0.3L13.8,33l0.1,0.6L15.4,33.3z M19.9,36l1.1-0.2c0.3-0.1,0.4,0.2,0.5,0.4c0.1,0.3-0.1,0.5-0.3,0.6L20.1,37l0.3,1.9
					c0.1,0.3-0.2,0.5-0.5,0.6c-0.3,0.1-0.6-0.1-0.6-0.4L19,37.2l-1.2,0.2c0,1-0.3,1.9-0.8,2.6c-0.1,0.1-0.3,0.3-0.4,0.3
					c-0.3,0.1-0.6-0.2-0.7-0.4c0-0.1,0-0.3,0.1-0.4c0.4-0.5,0.6-1,0.6-1.7l-1,0.2c-0.3,0.1-0.4-0.2-0.5-0.4
					c-0.1-0.3,0.1-0.5,0.3-0.6l1.1-0.2c0-0.1-0.1-0.3-0.1-0.4l-0.1-0.5l-0.6,0.1c-0.3,0.1-0.4-0.2-0.5-0.4c-0.1-0.3,0.1-0.5,0.3-0.6
					l4.8-0.8c0.3-0.1,0.4,0.2,0.5,0.4c0.1,0.3-0.1,0.5-0.3,0.6l-0.7,0.1L19.9,36z M17.5,35.6l0.1,0.6c0,0.1,0.1,0.2,0.1,0.3l1.1-0.2
					l-0.1-1L17.5,35.6z M19.8,33.5c-1.2,0.2-1.6-0.1-1.7-1L17.8,31c-0.1-0.8,0.1-1.3,1.3-1.5l1.5-0.3c1.2-0.2,1.6,0.2,1.7,1l1.4,7.6
					c0.2,1.1-0.2,1.6-1.2,1.8c-0.4,0.1-0.6,0.1-1,0.1c-0.4,0-0.6-0.3-0.6-0.5c-0.1-0.3,0.1-0.7,0.5-0.8c0.1,0,0.1,0,0.1,0
					c0.2,0,0.3,0,0.5-0.1c0.3-0.1,0.3-0.1,0.3-0.4l-0.9-4.8L19.8,33.5z M21,30.4c-0.1-0.2-0.1-0.3-0.4-0.2l-1.3,0.3
					c-0.3,0.1-0.4,0.1-0.3,0.3l0.1,0.3l2-0.4L21,30.4z M21.2,31.6l-2,0.4l0.1,0.3c0.1,0.2,0.1,0.3,0.4,0.2l1.6-0.3L21.2,31.6z"/>
				<path class="st0" d="M26.2,33.2c-0.1,0.2-0.1,0.3-0.2,0.5c-0.1,0.3-0.3,0.4-0.5,0.4c-0.3,0.1-0.6-0.1-0.7-0.4
					c0-0.1,0-0.3,0.1-0.4c0.6-1.3,1-3.1,1-4.8c0-0.3,0.3-0.5,0.6-0.6c0.3-0.1,0.7,0.1,0.8,0.4c0,0.1,0,0.1,0,0.2
					c-0.1,1-0.3,2.1-0.5,3.1c0.3,0,0.6,0.1,0.6,0.4l1.2,6.4c0.1,0.3-0.3,0.5-0.6,0.6c-0.3,0.1-0.6-0.1-0.7-0.4L26.2,33.2z
					 M31.2,37.8c0.1,0.3-0.2,0.5-0.5,0.5C30.3,38.4,30,38.2,30,38l-0.7-3.9c-0.1,0.1-0.1,0.3-0.2,0.4c-0.1,0.2-0.3,0.3-0.4,0.3
					c-0.3,0.1-0.6-0.1-0.6-0.4c0-0.1,0-0.3,0.1-0.4c0.5-0.8,1-1.9,1.3-2.9c0.1-0.3,0.3-0.4,0.5-0.4c0.3-0.1,0.6,0.1,0.7,0.4
					c0,0.1,0,0.2,0,0.3c0,0.1-0.1,0.2-0.1,0.3l1.2-0.2c0.1-0.3,0.1-0.5,0.1-0.8c0.1-0.3,0.3-0.4,0.5-0.4c0.3-0.1,0.6,0.1,0.7,0.3
					c0,0.1,0,0.1,0,0.2C33,30.9,33,31,33,31.1l2.2-0.4c0.3-0.1,0.4,0.2,0.5,0.4c0.1,0.3-0.1,0.5-0.3,0.6l-2.2,0.4l0.1,0.6l1.7-0.3
					c0.3-0.1,0.4,0.2,0.4,0.4c0,0.2-0.1,0.5-0.3,0.5l-1.7,0.3l0.1,0.6l1.7-0.3c0.3-0.1,0.4,0.2,0.4,0.4c0,0.2-0.1,0.5-0.3,0.5
					l-1.9,0.4l0.1,0.6l2.4-0.4c0.3-0.1,0.4,0.2,0.4,0.4c0.1,0.3,0,0.5-0.3,0.6l-5.1,0.9L31.2,37.8z M30.5,27.5
					c-0.1-0.3,0.2-0.5,0.5-0.6c0.3-0.1,0.6,0.1,0.7,0.4l0.3,1.7l1.2-0.2c0.2-0.1,0.3-0.1,0.2-0.3l-0.1-0.8c-0.1-0.3,0.2-0.5,0.5-0.6
					c0.3-0.1,0.6,0.1,0.7,0.4l0.2,1c0.1,0.7-0.1,1.1-0.9,1.2l-4.2,0.8c-0.8,0.1-1.2-0.1-1.3-0.8l-0.2-1c-0.1-0.3,0.2-0.5,0.5-0.6
					c0.3-0.1,0.6,0.1,0.7,0.4l0.1,0.8c0.1,0.2,0.1,0.3,0.3,0.3l1.1-0.2L30.5,27.5z M31.8,33l-0.1-0.6l-1.2,0.3
					c-0.3,0.1-0.3,0.1-0.3,0.3l0.1,0.4L31.8,33z M32.1,34.6L32,33.9l-1.5,0.3l0.1,0.6L32.1,34.6z M32.4,36.2l-0.1-0.6l-1.5,0.3
					l0.1,0.6L32.4,36.2z"/>
			</g>
		</g>
	</g>
</g>
</svg>
