<?xml version="1.0" encoding="utf-8"?>
<!-- Generator: Adobe Illustrator 26.0.1, SVG Export Plug-In . SVG Version: 6.00 Build 0)  -->
<svg version="1.1" id="レイヤー_1" xmlns="http://www.w3.org/2000/svg" xmlns:xlink="http://www.w3.org/1999/xlink" x="0px"
	 y="0px" viewBox="0 0 46 45.7" style="enable-background:new 0 0 46 45.7;" xml:space="preserve">
<style type="text/css">
	.st0{fill:#FFFFFF;}
	.st1{fill:none;stroke:#7DCCF3;stroke-width:0.8422;stroke-linecap:round;stroke-linejoin:round;}
	.st2{fill:none;stroke:#7DCCF3;stroke-width:0.8422;stroke-linecap:round;stroke-linejoin:round;stroke-dasharray:0.8389,3.3558;}
	.st3{fill:#7DCCF3;}
	.st4{fill:#515151;}
	.st5{fill:#009FE8;}
	.st6{fill:#231815;}
</style>
<g>
	<path class="st5" d="M39.4,39.2c-1.7,1.7-4.3,2.2-6.4,3.3s-4.1,2.8-6.4,3.1c-2.3,0.4-4.8-0.7-7.1-1c-2.3-0.4-4.9-0.1-7.1-1.2
		c-2.1-1-3.4-3.3-5.1-5s-4-3-5-5.1c-1.1-2.1-0.8-4.8-1.2-7.1s-1.4-4.8-1-7.1s2.1-4.2,3.1-6.4c1-2.1,1.6-4.6,3.3-6.4s4.3-2.2,6.4-3.3
		c2.2-0.9,4.2-2.6,6.6-2.9c2.3-0.4,4.8,0.7,7.1,1c2.2,0.4,4.9,0.1,7,1.1s3.4,3.3,5.1,5c1.7,1.7,4,3,5,5.1c1.1,2.1,0.8,4.8,1.2,7.1
		s1.4,4.8,1,7.1s-2.1,4.2-3.1,6.4C41.6,35,41.1,37.6,39.4,39.2"/>
	<g>
		<g>
			<path class="st0" d="M17.5,11.7c1.3-0.3,1.9,0.2,2.1,1.3l1.2,6.8c0.2,1.2-0.3,1.8-1.3,2c-0.4,0.1-0.7,0.1-1,0.1
				c-0.4,0-0.6-0.3-0.7-0.6c-0.1-0.3,0.1-0.7,0.5-0.8c0.1,0,0.1,0,0.1,0c0.2,0,0.4,0,0.6-0.1s0.4-0.2,0.3-0.5l-1.2-6.4
				c-0.1-0.4-0.3-0.6-0.8-0.5l-5.5,1c-0.6,0.1-0.7,0.3-0.6,0.8l1.4,7.8c0.1,0.3-0.3,0.6-0.6,0.6c-0.3,0.1-0.7-0.1-0.8-0.4l-1.5-8.1
				c-0.2-1.1,0.2-1.7,1.5-1.9L17.5,11.7z M17.3,13.9c0.3-0.1,0.5,0.2,0.6,0.4c0.1,0.3-0.1,0.6-0.4,0.6l-4.8,0.8
				c-0.3,0.1-0.5-0.2-0.6-0.5s0.1-0.6,0.4-0.6L17.3,13.9z M15,20.3c-1,0.2-1.4-0.1-1.5-1l-0.3-1.4c-0.1-0.8,0.2-1.3,1.1-1.4l1.8-0.3
				c1-0.2,1.4,0.1,1.5,1l0.3,1.4c0.2,1-0.3,1.3-1.1,1.4L15,20.3z M16.4,18.9c0.3-0.1,0.3-0.1,0.3-0.4l-0.2-1.1
				c-0.1-0.1-0.1-0.2-0.4-0.2l-1.3,0.3c-0.3,0.1-0.3,0.1-0.3,0.4l0.2,1.1c0.1,0.3,0.2,0.3,0.4,0.3L16.4,18.9z"/>
			<path class="st0" d="M24.2,19.2c-0.8,0.1-1.2-0.1-1.4-1l-1-5.9c-0.1-0.8,0.1-1.3,1-1.4l1.1-0.2c0.8-0.1,1.3,0.1,1.4,1l1,5.9
				c0.1,0.8-0.1,1.3-1,1.4L24.2,19.2z M24.1,12.2c-0.1-0.3-0.1-0.3-0.4-0.3L23.2,12c-0.3,0.1-0.3,0.1-0.2,0.4l0.3,1.9l1.1-0.2
				L24.1,12.2z M24.8,17.9c0.3-0.1,0.3-0.1,0.3-0.4l-0.4-2.2l-1.1,0.2l0.4,2.2c0.1,0.2,0.1,0.3,0.3,0.3L24.8,17.9z M28.2,11.8
				l-1.5,0.3c-0.3,0.1-0.6-0.2-0.6-0.4c-0.1-0.3,0.1-0.6,0.4-0.6l1.5-0.3l-0.2-1c-0.1-0.4,0.2-0.6,0.5-0.6c0.3-0.1,0.6,0.1,0.7,0.4
				l0.2,1l1.6-0.3c0.3-0.1,0.6,0.2,0.6,0.4s-0.1,0.6-0.4,0.6l-1.6,0.3l0.2,1l2.5-0.4c0.3-0.1,0.6,0.2,0.6,0.4
				c0.1,0.3-0.1,0.6-0.4,0.6l-5.8,1c-0.3,0.1-0.6-0.2-0.6-0.4c-0.1-0.3,0.1-0.6,0.4-0.6l2.1-0.4L28.2,11.8z M27.1,16.7
				c-0.3,0.1-0.6-0.2-0.6-0.5c-0.1-0.3,0.1-0.6,0.4-0.6L30,15l-0.1-0.5c-0.1-0.4,0.2-0.6,0.5-0.6c0.3-0.1,0.6,0.1,0.7,0.4l0.1,0.5
				l1.1-0.2c0.3-0.1,0.6,0.2,0.6,0.5c0.1,0.3-0.1,0.6-0.4,0.6l-1.1,0.2l0.4,2.3c0.2,1-0.2,1.5-1.1,1.6c-0.4,0.1-0.6,0.1-1,0.1
				c-0.3,0-0.5-0.3-0.6-0.5c-0.1-0.3,0.1-0.6,0.4-0.7c0.1,0,0.1,0,0.1,0c0.2,0,0.3,0,0.5-0.1s0.3-0.1,0.3-0.3L30,16.1L27.1,16.7z
				 M29.2,17.6c0.1,0.1,0.2,0.2,0.2,0.3c0.1,0.3-0.2,0.7-0.6,0.8c-0.2,0-0.3,0-0.5-0.2c-0.3-0.3-0.4-0.4-0.7-0.6
				c-0.1-0.1-0.2-0.2-0.2-0.3c-0.1-0.3,0.2-0.6,0.5-0.7c0.1,0,0.3,0,0.4,0.1C28.7,17.1,29,17.3,29.2,17.6z"/>
			<path class="st0" d="M14.2,29.7l1.1,6.1c0.1,0.3-0.3,0.6-0.6,0.6S14.1,36.3,14,36l-1.6-8.8c-0.1-0.8,0.1-1.3,1.3-1.5l1.3-0.3
				c1.2-0.2,1.6,0.1,1.7,1l0.4,1.5c0.1,0.4,0.1,0.8-0.2,1c-0.3,0.3-0.7,0.4-1.2,0.4L14.2,29.7z M15.6,26.6c-0.1-0.2-0.1-0.3-0.4-0.2
				L14,26.6c-0.3,0.1-0.4,0.1-0.3,0.3l0.1,0.3l1.9-0.3v-0.3H15.6z M15.5,28.5c0.3-0.1,0.4-0.1,0.3-0.3l-0.1-0.3l-1.8,0.3l0.1,0.6
				L15.5,28.5z M20,31.2l1.1-0.2c0.3-0.1,0.4,0.2,0.5,0.4c0.1,0.3-0.1,0.5-0.3,0.6l-1.1,0.2l0.3,1.9c0.1,0.3-0.2,0.5-0.5,0.6
				s-0.6-0.1-0.6-0.4l-0.3-1.9l-1.2,0.2c0,1-0.3,1.9-0.8,2.6c-0.1,0.1-0.3,0.3-0.4,0.3c-0.3,0.1-0.6-0.2-0.7-0.4
				c0-0.1,0-0.3,0.1-0.4c0.4-0.5,0.6-1,0.6-1.7l-1,0.2c-0.3,0.1-0.4-0.2-0.5-0.4c-0.1-0.3,0.1-0.5,0.3-0.6l1.1-0.2
				c0-0.1-0.1-0.3-0.1-0.4l-0.1-0.5l-0.6,0.1c-0.3,0.1-0.4-0.2-0.5-0.4c-0.1-0.3,0.1-0.5,0.3-0.6l4.8-0.8c0.3-0.1,0.4,0.2,0.5,0.4
				c0.1,0.3-0.1,0.5-0.3,0.6l-0.7,0.1L20,31.2z M17.6,30.8l0.1,0.6c0,0.1,0.1,0.2,0.1,0.3l1.1-0.2l-0.1-1L17.6,30.8z M19.9,28.7
				c-1.2,0.2-1.6-0.1-1.7-1l-0.3-1.5c-0.1-0.8,0.1-1.3,1.3-1.5l1.5-0.3c1.2-0.2,1.6,0.2,1.7,1l1.4,7.6c0.2,1.1-0.2,1.6-1.2,1.8
				c-0.4,0.1-0.6,0.1-1,0.1S21,34.6,21,34.4c-0.1-0.3,0.1-0.7,0.5-0.8c0.1,0,0.1,0,0.1,0c0.2,0,0.3,0,0.5-0.1
				c0.3-0.1,0.3-0.1,0.3-0.4l-0.9-4.8L19.9,28.7z M21.1,25.6c-0.1-0.2-0.1-0.3-0.4-0.2l-1.3,0.3c-0.3,0.1-0.4,0.1-0.3,0.3l0.1,0.3
				l2-0.4L21.1,25.6z M21.3,26.8l-2,0.4l0.1,0.3c0.1,0.2,0.1,0.3,0.4,0.2l1.6-0.3L21.3,26.8z"/>
			<path class="st0" d="M26.3,28.4c-0.1,0.2-0.1,0.3-0.2,0.5c-0.1,0.3-0.3,0.4-0.5,0.4c-0.3,0.1-0.6-0.1-0.7-0.4
				c0-0.1,0-0.3,0.1-0.4c0.6-1.3,1-3.1,1-4.8c0-0.3,0.3-0.5,0.6-0.6c0.3-0.1,0.7,0.1,0.8,0.4c0,0.1,0,0.1,0,0.2
				c-0.1,1-0.3,2.1-0.5,3.1c0.3,0,0.6,0.1,0.6,0.4l1.2,6.4c0.1,0.3-0.3,0.5-0.6,0.6c-0.3,0.1-0.6-0.1-0.7-0.4L26.3,28.4z M31.3,33
				c0.1,0.3-0.2,0.5-0.5,0.5c-0.4,0.1-0.7-0.1-0.7-0.3l-0.7-3.9c-0.1,0.1-0.1,0.3-0.2,0.4c-0.1,0.2-0.3,0.3-0.4,0.3
				c-0.3,0.1-0.6-0.1-0.6-0.4c0-0.1,0-0.3,0.1-0.4c0.5-0.8,1-1.9,1.3-2.9c0.1-0.3,0.3-0.4,0.5-0.4c0.3-0.1,0.6,0.1,0.7,0.4
				c0,0.1,0,0.2,0,0.3c0,0.1-0.1,0.2-0.1,0.3l1.2-0.2c0.1-0.3,0.1-0.5,0.1-0.8c0.1-0.3,0.3-0.4,0.5-0.4c0.3-0.1,0.6,0.1,0.7,0.3
				c0,0.1,0,0.1,0,0.2c-0.1,0.1-0.1,0.2-0.1,0.3l2.2-0.4c0.3-0.1,0.4,0.2,0.5,0.4c0.1,0.3-0.1,0.5-0.3,0.6l-2.2,0.4l0.1,0.6l1.7-0.3
				c0.3-0.1,0.4,0.2,0.4,0.4s-0.1,0.5-0.3,0.5l-1.7,0.3l0.1,0.6l1.7-0.3c0.3-0.1,0.4,0.2,0.4,0.4S35.6,30,35.4,30l-1.9,0.4l0.1,0.6
				l2.4-0.4c0.3-0.1,0.4,0.2,0.4,0.4c0.1,0.3,0,0.5-0.3,0.6L31,32.5L31.3,33z M30.6,22.7c-0.1-0.3,0.2-0.5,0.5-0.6s0.6,0.1,0.7,0.4
				l0.3,1.7l1.2-0.2c0.2-0.1,0.3-0.1,0.2-0.3l-0.1-0.8c-0.1-0.3,0.2-0.5,0.5-0.6s0.6,0.1,0.7,0.4l0.2,1c0.1,0.7-0.1,1.1-0.9,1.2
				l-4.2,0.8c-0.8,0.1-1.2-0.1-1.3-0.8l-0.2-1c-0.1-0.3,0.2-0.5,0.5-0.6s0.6,0.1,0.7,0.4l0.1,0.8c0.1,0.2,0.1,0.3,0.3,0.3l1.1-0.2
				L30.6,22.7z M31.9,28.2l-0.1-0.6l-1.2,0.3c-0.3,0.1-0.3,0.1-0.3,0.3l0.1,0.4L31.9,28.2z M32.2,29.8l-0.1-0.7l-1.5,0.3l0.1,0.6
				L32.2,29.8z M32.5,31.4l-0.1-0.6l-1.5,0.3l0.1,0.6L32.5,31.4z"/>
		</g>
	</g>
</g>
</svg>
