<svg width="112" height="155" viewBox="0 0 112 155" fill="none" xmlns="http://www.w3.org/2000/svg">
<path d="M56.4623 28.7592C56.4623 28.7592 56.3899 29.1692 56.5588 29.2898C56.7036 29.3862 57.2826 29.3621 57.4997 29.338C57.6203 29.338 57.7409 29.338 57.8374 29.338C57.2584 27.2159 57.9581 24.708 59.0919 22.8753C61.0461 19.7404 66.0883 18.8722 69.4899 19.4992C77.1376 20.922 80.9011 32.3282 73.6394 36.5242C73.5671 36.5724 73.3017 36.4036 73.4223 36.7894C74.9422 39.2009 76.5586 41.5883 77.5236 44.3132C80.9735 53.9109 81.263 68.7173 72.8674 75.8793C71.9748 76.651 70.9615 77.3262 69.9 77.8567C69.8759 78.0497 70.0448 77.9773 70.1895 77.9773C70.7444 78.0014 71.2028 78.0255 71.7577 78.0979C73.2534 78.2908 74.1219 78.4596 75.473 79.1348C76.1243 79.4724 77.596 80.2682 78.0785 80.7746C78.7299 81.4498 79.1882 82.969 79.0676 83.9095C79.0194 84.3195 78.5127 85.0429 78.1991 85.3082C77.2341 86.1763 75.0146 86.3692 74.0737 85.3564C73.2534 84.4642 73.7842 83.8854 72.1678 84.0301C71.1063 84.1266 70.0689 84.6571 69.2004 85.2358C68.8144 85.5011 67.198 86.8274 67.0533 87.1409C66.812 87.6955 67.4634 89.2148 67.6805 89.8176C67.7288 89.9864 67.7046 90.1793 67.9218 90.2758C67.9218 90.324 67.9218 90.3481 67.9218 90.3964C68.3078 91.9397 69.128 93.3866 69.6347 94.9058C70.6238 97.896 70.9857 101.031 71.4199 104.166C71.6129 105.589 71.8783 106.987 72.1196 108.41C72.3367 108.338 72.5779 108.241 72.8192 108.169C80.5151 105.878 86.6188 95.5569 88.4764 88.2261C89.8757 82.6797 90.5512 76.2652 94.3147 71.6593C96.486 69.0308 100.756 68.1144 103.193 70.9117C106.474 74.6736 107.294 78.7731 107.318 83.6925L107.198 83.7407L107.318 83.789C107.318 83.789 107.318 84.0301 107.318 84.1266C107.125 84.7053 107.149 85.4046 107.053 86.0075C105.292 96.4009 96.6066 103.322 88.1146 108.41C84.8335 110.387 81.4801 112.485 77.6925 113.45C75.8107 113.932 73.7842 114.198 71.8301 114.342C71.5406 114.439 71.6853 114.776 71.637 114.897C71.3475 115.644 70.6238 117.26 70.5032 118.008C70.1654 120.057 70.3102 121.577 68.6214 123.144C67.6323 124.06 66.6673 124.181 65.3162 124.06C64.9061 124.012 63.8446 123.602 63.6999 123.626C62.9037 123.699 61.2391 124.519 60.2741 124.736C58.8989 125.049 56.6553 125.531 55.3043 125.676C54.4117 125.773 53.5673 125.483 52.6988 125.58C52.5299 125.58 52.3369 125.58 52.1921 125.7C51.8303 125.966 51.7338 127.846 51.5649 128.425C51.4925 128.69 51.2271 129.414 51.0824 129.631C50.0933 131.247 46.3297 131.126 45.8955 129.293C45.8231 128.956 45.8955 128.642 45.8231 128.329C45.4371 126.593 44.7616 125.869 43.9413 124.422C43.7966 124.181 43.7966 123.868 43.6518 123.651C43.4347 123.337 41.4323 122.18 40.9257 121.745C38.8268 119.961 35.6181 115.355 34.8461 112.727C34.0741 110.098 33.4227 105.661 33.3021 102.767C33.2056 100.766 33.2539 98.6195 33.5434 96.6662C32.6507 97.0038 31.7581 97.4861 30.7931 97.5826C29.3697 97.7272 26.3058 97.7996 25.0996 97.1485C24.2311 96.6903 23.8209 95.7498 23.5797 94.8335C23.266 93.6036 23.9174 91.5298 25.1478 90.9992C25.4373 90.8787 26.5712 90.5169 26.8607 90.5169C27.6568 90.5169 28.7183 91.2886 29.3456 91.0234C29.611 90.9269 31.0102 89.6971 31.3239 89.4077C32.0717 88.7566 33.1091 87.792 33.7605 87.0927C33.9294 86.8997 35.1115 85.477 34.9185 85.2841C33.664 85.2841 32.3854 85.2841 31.155 85.1635C22.7353 84.4642 16.0044 80.5817 12.6992 72.6238C11.1552 68.8861 10.5038 61.8446 10.7692 57.8174C10.8898 55.9365 11.3723 53.8867 11.686 52.0299C11.6136 51.8129 10.8898 51.7888 10.6244 51.6923C8.04305 50.8483 6.01653 50.2695 4.59314 47.7375C3.45926 45.736 3.38689 41.6365 4.20714 39.5385C5.09977 37.2235 8.06717 34.3297 10.6003 34.0886C14.8705 33.7028 16.3904 35.6319 18.7788 38.6704C19.1889 39.1768 19.6473 39.7073 19.8403 40.3584C19.9368 40.4308 21.1672 39.3938 21.4325 39.225C21.8668 38.9356 22.3493 38.6463 22.8559 38.5016C21.915 37.8264 21.0707 37.4646 21.2154 36.1142C21.336 35.0049 22.9765 34.4985 23.0489 34.1368C23.073 33.9921 22.6388 32.497 22.6147 32.063C22.3493 28.6869 22.9765 26.1549 24.8824 23.4058C27.6568 19.4269 29.804 17.7147 34.6049 16.509C37.6929 15.7373 39.2369 15.8097 42.3491 16.509C46.7881 17.5218 51.4925 21.3078 53.0606 25.6726C53.1813 26.0102 53.3743 27.1194 53.4708 27.24C53.6638 27.4812 54.9665 27.4571 55.4732 27.6741C55.9798 27.8911 56.2452 28.2287 56.4382 28.7351L56.4623 28.7592ZM37.4034 18.0764C38.7062 20.922 39.3334 24.3221 39.7435 27.4088C39.8159 27.9635 40.6121 30.3267 39.1404 29.6274C38.5373 29.338 38.5373 26.8301 38.4167 26.179C38.1513 24.708 37.6929 22.827 37.2828 21.4043C37.1139 20.8255 36.3419 18.5346 36.0041 18.197C35.787 17.98 34.4119 18.2694 34.0983 18.414C33.9294 18.4864 34.05 18.6552 34.0259 18.7758C33.7846 19.6439 34.1224 21.766 34.2913 22.7547C34.5084 24.0328 34.8703 25.5761 35.1839 26.8542C35.3769 27.5776 36.3178 29.6997 36.0524 30.2785C35.8594 30.7125 35.1839 30.7849 34.9668 30.3267C34.7979 29.3139 34.3154 28.3734 34.05 27.4088C33.3745 24.8527 32.892 22.2242 32.7472 19.5957C32.7472 19.5233 32.6266 19.4992 32.6266 19.4751C32.6266 19.4269 32.6266 19.4027 32.6266 19.3545C32.6266 19.2822 32.8196 19.0651 32.7472 18.8963C31.2756 19.4992 29.5145 20.3915 28.453 21.6213C25.5338 25.0215 23.8692 27.6982 24.3758 32.4247C24.5206 33.7028 25.4373 34.2815 24.2069 35.5114C23.9657 35.7525 23.0248 36.2589 22.9765 36.3313C22.7835 36.6206 23.5073 36.8136 23.7244 36.8136C23.8692 36.8136 23.9898 36.693 24.0139 36.693C25.3891 36.5724 26.6918 36.2348 28.0428 36.0178C35.6423 34.7638 44.0378 33.4616 51.3236 30.9537C52.4575 30.5678 53.5673 29.9167 54.7012 29.5068C55.063 29.121 53.5673 29.1692 53.4949 29.1451C51.7096 28.8075 51.9026 27.5776 51.4201 26.2272C50.8411 24.6115 48.7181 21.9348 47.3671 20.8737C44.6892 18.7758 42.3491 18.2211 39.0198 17.7871C38.7544 17.7388 37.0657 17.4253 37.1622 17.9559C37.1622 18.0282 37.3793 18.1006 37.4034 18.1247V18.0764ZM75.0387 26.0825C75.1111 25.9137 74.9663 25.769 74.9181 25.8414C74.8457 26.0102 74.9904 26.1549 75.0387 26.0825ZM75.4971 31.653C76.0278 30.0856 75.9555 28.494 75.4247 26.9265C75.3523 26.7336 75.2558 26.2995 75.0387 26.2031C75.1352 27.0953 75.4488 28.0117 75.4971 28.928C75.5453 29.6515 75.4247 30.2061 75.3764 30.9055C75.3764 31.0501 75.3041 31.6289 75.4971 31.653ZM68.6455 26.7818V30.4473C68.6455 30.4473 68.3801 31.0984 68.7662 30.7366C69.1039 30.4232 68.9592 27.7947 68.8385 27.24C68.8144 27.1194 68.8385 26.7818 68.6455 26.806V26.7818ZM67.1498 31.8942L67.1015 28.6387C66.7638 29.1451 66.8844 29.7721 66.7879 30.3026C66.7396 30.5678 66.426 31.5083 66.4501 31.5807C66.4501 31.653 67.1015 31.9424 67.1498 31.87V31.8942ZM70.1654 33.8716C70.1172 32.7864 70.4308 31.7012 70.2137 30.6161C70.3102 31.3154 69.6588 33.1481 69.8277 33.6786C69.8759 33.8233 69.9965 33.8957 70.1654 33.8716ZM27.874 37.8264C27.1984 37.8987 27.1019 37.9952 26.5229 38.2604C20.757 41.0577 17.6449 44.6508 14.4121 50.0766C11.5653 54.8996 12.3132 65.4136 13.8331 70.6947C15.0635 74.8665 18.9235 79.6895 22.9765 81.3534C31.155 84.7053 39.5988 83.8131 48.0909 82.3662C53.6155 81.4257 59.1885 80.5094 64.496 78.5802C74.0013 75.1318 77.3788 69.2719 78.0302 59.3608C78.5127 52.054 76.3897 43.5898 71.9748 37.6576C70.7444 36.0178 66.6431 33.4857 64.7131 32.497C62.7831 31.5083 59.3091 31.2672 57.0172 31.0743C56.4623 31.026 55.835 30.8572 55.2319 30.9778C54.9665 31.026 54.5082 31.4119 54.1945 31.5565C46.8846 34.5709 38.1754 35.9454 30.3588 37.2235L27.8498 37.8023L27.874 37.8264ZM75.3764 32.0147C75.4488 31.8459 75.3041 31.7012 75.2558 31.7736C75.1834 31.9424 75.3282 32.0871 75.3764 32.0147ZM72.6021 35.0291L73.1811 34.6191C72.8916 34.2092 72.6262 34.6915 72.6021 35.0291ZM17.5484 42.9387C17.7896 42.7216 17.283 40.8166 16.8487 40.6237C16.9211 41.2507 17.0176 42.1429 17.2589 42.7216C17.3071 42.8181 17.3554 43.1316 17.5484 42.9628V42.9387ZM15.7872 42.9387C15.7872 42.9387 15.546 42.8422 15.5942 43.0834C15.6907 43.6621 15.8114 44.2168 15.8596 44.7955C16.4145 44.7232 15.8596 43.011 15.8114 42.9387H15.7872ZM14.4603 46.6041L14.195 45.8324C13.9778 46.2906 13.9778 47.9063 14.5327 47.0382C14.8222 46.5559 14.5327 46.7006 14.4845 46.6041H14.4603ZM100.829 71.1529C99.4775 70.5741 97.1132 71.2252 96.0517 72.2621C95.3521 72.9615 93.784 75.397 93.5186 76.3375C93.4462 76.5545 93.5427 76.4581 93.6634 76.5063C94.0494 76.651 94.363 76.5545 94.6766 76.6028C95.6416 76.7716 96.5825 77.1092 97.5475 77.2539C98.5125 77.3986 104.303 78.0014 104.785 77.6879C105.002 77.5433 104.664 76.6269 104.592 76.3616C104.182 75.0835 102.541 72.5033 101.601 71.5628C101.359 71.3217 101.142 71.2252 100.853 71.1046L100.829 71.1529ZM76.438 84.2712C76.9205 84.1507 77.3065 84.1024 77.3788 83.5237C77.5477 82.1733 76.5103 81.6427 75.5212 81.0881C70.3584 78.2185 65.3645 80.2923 60.2017 81.691C58.9713 82.0286 57.2826 82.2215 56.1728 82.6556C56.0522 82.7038 55.8833 82.7038 55.8833 82.8726C56.6071 83.2343 57.1378 84.006 57.7409 84.5606C60.2982 86.8997 63.1209 88.6842 65.7023 90.8787C65.8953 91.0475 66.1606 91.2404 66.4019 91.3368L64.9544 87.0927C64.7855 86.3692 63.2656 84.2954 64.6649 84.0301C65.6299 83.8372 65.7264 84.7777 66.0883 85.3805C66.1365 85.477 66.0641 85.5734 66.2813 85.5252C67.7046 84.223 69.6347 82.6073 71.637 82.3903C72.5297 82.2938 73.6153 82.2697 74.4838 82.3903C75.28 83.379 74.7733 84.6571 76.4621 84.2471L76.438 84.2712ZM94.4354 81.4739C93.977 81.4257 93.6151 81.1605 93.205 81.0399C93.0843 80.9916 92.9396 80.7987 92.819 81.0881C92.819 81.1605 93.9529 81.5463 94.0735 81.5945C94.1941 81.6186 94.4836 81.7151 94.4595 81.4981L94.4354 81.4739ZM105.581 80.8952C105.581 80.8952 104.689 81.0399 104.664 81.2328H105.605V80.8952H105.581ZM92.24 83.2102C92.1193 83.162 91.4921 82.7038 91.4197 82.752C91.4197 83.3308 90.4306 86.2728 90.6236 86.5621C90.6959 86.6586 91.1061 86.6345 91.2026 86.6827C94.2424 88.2743 96.9203 89.1424 100.298 89.9382C101.528 90.2276 102.71 90.2758 103.965 90.3481C104.689 88.3949 105.436 86.4657 105.581 84.3677C101.094 85.7422 96.4619 85.0911 92.2158 83.2102H92.24ZM52.94 83.379C50.5516 83.4996 48.3321 84.1266 45.9678 84.4159C45.0752 85.2117 44.5445 86.4416 43.8448 87.4062C43.3382 88.0814 42.6386 88.636 42.1802 89.3594C40.5879 91.9397 39.068 94.5923 37.4999 97.2208C36.8968 98.2095 35.4734 99.7529 35.1598 100.79C34.8461 101.73 35.2321 103.852 35.3286 104.913C35.3769 105.54 35.2804 107.204 35.6905 107.687C37.3069 108.796 38.9233 109.953 40.5156 111.087C41.6494 111.907 42.7351 112.702 43.869 113.546C46.6916 115.644 49.9244 117.188 52.9159 119.021C53.3502 119.286 54.9907 120.636 55.256 120.612C55.4008 120.612 55.8109 120.25 55.9557 120.154C58.4647 118.152 60.7566 115.813 63.0002 113.474C65.3645 110.99 67.5599 108.362 69.8518 105.806L69.9483 105.468C69.8035 103.153 69.3693 101.031 68.8385 98.7883C68.5973 97.7031 68.4284 96.5697 68.0424 95.5087C67.3669 93.6277 66.4019 93.5313 64.9544 92.4461C61.9146 90.1793 58.9472 87.9126 56.1245 85.3805C55.8109 85.0911 55.5938 84.7053 55.3043 84.4642C55.1595 84.3436 53.7844 83.4513 53.6879 83.4272C53.3743 83.3067 53.2537 83.379 52.9642 83.4031L52.94 83.379ZM37.7412 85.3082C37.4517 85.3082 37.2104 85.2117 36.945 85.1876C36.5831 86.1522 36.1248 86.948 35.4734 87.7438C34.4601 88.9977 32.699 90.5169 31.4686 91.578C31.2515 91.7709 29.9728 92.6149 29.9487 92.7114C29.9005 92.9525 30.1417 93.7965 30.0693 94.303C29.997 94.9058 29.5627 95.3881 29.4903 95.991C30.7207 95.9669 32.1924 95.6051 33.2056 94.8817C34.2913 94.11 33.4951 93.2419 34.0018 92.3014C34.3154 91.7227 35.401 91.7709 35.5458 92.4461C35.5699 92.6149 35.5699 93.7242 35.5458 93.9412C35.4975 94.4476 35.2563 95.0505 35.1839 95.5087C35.1356 96.0633 35.2321 96.6903 35.1839 97.2449C35.4493 97.3173 35.3769 97.1726 35.4493 97.1003C35.6664 96.8591 35.7388 96.6421 35.8835 96.425C37.5964 93.8207 39.0439 90.8063 40.8774 88.2261C41.6977 87.0685 42.7351 86.1281 43.4347 84.85C41.5288 84.9706 39.647 85.3082 37.7412 85.2599V85.3082ZM88.1628 94.9541C88.1628 94.9541 88.1146 95.0987 88.2352 95.1952C88.6694 95.5087 90.503 96.0392 91.1543 96.3286C92.7948 97.052 94.2906 97.8237 96.0517 98.2819C96.6066 98.4266 98.0059 98.8847 98.4643 98.5471C98.5608 98.4748 99.4051 97.5102 99.5499 97.3173C99.7911 97.0279 100.877 95.6775 100.949 95.4605C101.022 95.2434 100.901 95.3158 100.78 95.2917C96.9685 94.7129 93.012 93.5795 89.5621 91.795C89.4897 91.7709 89.4656 91.4815 89.2243 91.5539C89.1519 92.0603 89.0072 92.5908 88.8142 93.049C88.6453 93.4831 87.8733 94.4718 87.9939 94.7852C88.0181 94.8576 88.1628 94.8817 88.1628 94.9058V94.9541ZM102.566 91.8191C102.686 91.8433 103.506 92.2532 103.482 91.8674C103.482 91.6986 102.614 91.5539 102.566 91.8191ZM26.7159 92.3979C25.7027 92.5426 25.3891 92.7837 25.2202 93.8689C25.1719 94.2547 25.4614 95.2434 25.7268 95.5328C25.8474 95.6534 25.9439 95.6051 26.0163 95.6534C26.5953 95.991 26.8366 96.0874 27.3914 95.7016C28.646 94.8335 28.8872 92.5667 27.0778 92.3014C26.8124 92.2532 26.7642 92.3979 26.7159 92.3979ZM96.9926 99.9458L91.7575 98.3301L93.3738 99.1982C94.2665 99.3188 95.8346 100.187 96.6066 100.259C96.7755 100.259 96.9203 100.115 96.9685 99.9699L96.9926 99.9458ZM84.1098 102.02C84.5682 102.647 85.9433 104.142 86.5464 104.624C87.1978 105.179 88.0422 105.54 88.7177 106.047C90.2617 105.251 91.661 104.238 93.0602 103.225C91.5403 102.405 89.6827 101.875 88.2111 100.983C87.439 100.525 86.6912 99.8734 85.9674 99.3429C85.895 99.2947 85.7744 98.933 85.6297 99.0535L83.9409 101.441C83.7479 101.875 83.9892 101.851 84.1098 102.02ZM77.8372 107.952C78.4403 108.699 79.2365 109.929 79.8155 110.532C79.912 110.629 80.1291 110.822 80.2497 110.822C80.491 110.846 82.6864 109.736 82.9518 109.519C83.1448 109.351 83.0241 109.423 82.9518 109.278C82.807 109.013 82.3486 108.506 82.1315 108.241C81.5284 107.518 80.8287 106.867 80.1532 106.216C80.1291 106.191 80.2739 105.974 79.9844 105.974C79.7672 105.974 77.7648 107.445 77.6683 107.614C77.4995 107.88 77.7648 107.88 77.8372 107.976V107.952ZM37.1622 110.846C37.0415 110.629 36.3901 110.098 36.1248 110.219C36.2936 111.473 36.559 112.63 37.1139 113.764C38.2237 116.054 40.6362 119.334 42.6386 120.853C43.6036 121.577 44.3997 122.18 45.3165 122.951C45.6301 124.374 46.764 125.411 47.2224 126.785C47.3671 127.244 47.536 128.787 47.6325 128.908C47.7531 129.076 48.3562 129.1 48.5734 129.1C48.8146 129.1 49.0317 129.125 49.273 129.052C50.2621 128.715 50.1656 126.134 50.5516 125.218C51.2995 123.337 53.9292 124.253 55.449 123.964C57.1619 123.651 58.9472 123.265 60.6601 122.903C61.3838 122.758 62.0111 122.397 62.7349 122.252C62.4695 120.926 62.3247 119.985 62.6866 118.659C63.0002 117.477 64.5201 115.017 65.4851 114.246C67.0291 112.992 68.7903 113.233 69.9483 114.825C70.0689 113.956 70.3825 113.137 70.5273 112.268C70.6479 111.545 70.6479 110.99 70.6479 110.243C70.6479 110.05 70.7203 109.736 70.5273 109.616C70.5273 109.302 70.5273 108.965 70.5273 108.651C70.5273 108.507 70.479 107.831 70.2619 107.88C68.9833 109.351 67.7529 110.99 66.426 112.413C63.7481 115.307 60.5877 118.611 57.4756 120.998C56.8001 121.504 56.4141 122.348 55.3767 122.397C54.2187 122.445 52.7711 120.926 51.7579 120.323C48.0667 118.104 44.1102 116.223 40.9016 113.281L37.1863 110.894L37.1622 110.846ZM73.4223 110.267C73.2293 110.074 73.5188 109.881 72.7951 109.929C72.1919 109.977 72.2884 110.05 72.2643 110.508C72.216 111.231 72.3608 112.003 72.1437 112.702L75.0387 112.365C75.0869 112.172 74.9663 112.124 74.8698 112.027C74.4356 111.448 73.9048 110.822 73.4223 110.291V110.267ZM67.2221 115.066C66.5949 115.162 65.8953 116.127 65.5334 116.633C64.8096 117.622 63.8929 119.165 64.0135 120.443C64.1582 122.276 64.8579 122.686 66.619 122.469C68.163 122.276 68.935 119.647 69.0074 118.345C69.0557 117.236 68.7903 114.8 67.2221 115.066Z" fill="#261C19"/>
<path d="M21.2884 10.335C21.9881 9.68392 23.4114 11.3719 24.2317 11.4443C25.7998 11.5649 27.0785 7.70651 27.947 6.59724C30.5766 3.26941 36.4873 2.52186 40.3232 0.616796C41.0711 0.255076 41.8672 -0.709512 42.1326 0.906172C40.8781 5.0539 41.3365 9.37043 38.0072 12.5777C34.6779 15.7849 30.6008 17.1112 26.3065 14.6274C25.7033 14.2898 25.2208 13.7834 24.6418 13.3976C23.8698 12.9153 21.3125 11.8784 21.0954 11.1308C21.023 10.9138 21.1678 10.4797 21.3125 10.335H21.2884ZM39.9613 3.67936C39.9855 3.53467 40.2026 3.2453 40.0096 3.10061L39.0204 4.01697C38.4414 4.35457 37.8624 5.10213 37.3317 5.51208C35.2569 7.07953 33.9542 8.14058 32.0724 9.94918C31.8311 10.1662 31.5899 10.4556 31.3728 10.6485C31.1556 10.8414 30.9626 11.0826 30.7938 11.2273C30.5766 11.3961 30.0941 11.7819 29.8529 11.9266C29.4669 12.1677 28.526 12.6983 28.1159 12.8671C27.7781 12.9876 27.1991 13.0359 26.8372 13.1082C27.0302 13.5664 27.561 13.5423 27.8746 13.687C30.5043 14.7721 31.8553 14.8203 34.3884 13.3976C38.8033 10.9379 39.1169 8.30938 39.9613 3.70347V3.67936ZM37.9831 3.22118C35.4499 4.25811 32.2895 4.69218 30.1424 6.47666C28.3089 7.99589 27.9711 10.1662 26.4753 11.9266C29.3945 11.5407 30.9626 9.00871 32.9891 7.22422C34.5814 5.80145 36.4873 4.74041 37.9831 3.22118Z" fill="#261C19"/>
<path d="M73.6402 36.5484C78.2481 40.3827 80.1057 46.1943 80.9501 51.9577C82.4218 62.0135 80.8295 71.7318 72.0721 77.7845C71.9273 77.881 71.7343 77.881 71.7826 78.1222C71.2277 78.0498 70.7693 78.0257 70.2144 78.0016C70.0938 78.0016 69.9008 78.0739 69.9249 77.881C70.9864 77.3505 71.9997 76.6753 72.8923 75.9036C81.2638 68.7415 80.9743 53.9351 77.5485 44.3375C76.5835 41.6366 74.9671 39.2252 73.4472 36.8137C73.3266 36.4038 73.5678 36.5967 73.6643 36.5484H73.6402Z" fill="#DFC05F"/>
<path d="M71.6616 114.922C71.7099 114.777 71.5651 114.464 71.8546 114.367C73.8088 114.222 75.8112 113.957 77.717 113.475C81.5047 112.51 84.834 110.412 88.1391 108.435C96.6312 103.347 105.316 96.4257 107.077 86.0323C107.174 85.4053 107.174 84.7301 107.343 84.1514C107.077 95.003 97.9822 105.324 88.694 110.026C83.5071 112.655 77.524 114.608 71.6858 114.922H71.6616Z" fill="#EF917B"/>
<path d="M72.8437 108.192C72.6024 108.265 72.3853 108.337 72.1441 108.434C71.9028 107.035 71.6374 105.612 71.4444 104.189C71.0102 101.054 70.6483 97.9437 69.6592 94.9294C69.1525 93.4101 68.3323 91.9874 67.9463 90.4199C69.4179 92.7832 70.7207 95.267 71.6616 97.8955C72.4818 100.186 72.9402 102.429 73.0608 104.865L72.8196 108.168L72.8437 108.192Z" fill="#DFC05F"/>
<path d="M74.5564 120.635C75.9556 120.394 76.7759 123.746 75.4007 124.614C75.0147 124.855 74.3392 124.904 74.2427 124.397C74.0739 123.505 74.7494 123.65 74.8217 123.24C75.0389 122.155 74.2186 121.986 74.1221 121.504C74.0497 121.094 74.1221 120.732 74.5564 120.66V120.635Z" fill="#261C19"/>
<path d="M77.6692 120.999C77.9587 121.24 78.2965 122.349 78.2482 122.735C78.2 123.458 77.5003 124.592 76.7524 123.941C76.1734 123.434 76.7524 123.169 76.8489 122.856C77.0661 122.156 76.5112 121.915 76.5353 121.385C76.5594 120.806 77.2832 120.685 77.6692 120.999Z" fill="#261C19"/>
<path d="M79.2609 120.636C79.2609 120.636 79.6226 120.491 79.7432 120.491C81.0695 120.612 81.1901 124.253 79.4297 123.723C78.6339 123.481 79.4538 122.589 79.4779 122.3C79.5021 121.818 78.7545 121.142 79.2609 120.636Z" fill="#261C19"/>
<path d="M71.6623 114.921C71.2763 117.791 71.2281 120.708 69.1051 122.879C68.9603 123.023 68.8397 123.168 68.6226 123.168C70.3354 121.601 70.1666 120.081 70.5043 118.032C70.6249 117.284 71.3487 115.693 71.6382 114.921H71.6623Z" fill="#DFC05F"/>
<path d="M52.7467 125.604C52.795 126.833 52.3127 127.991 52.0715 129.172C51.9027 129.486 51.4445 129.558 51.1069 129.679C51.2516 129.462 51.5169 128.738 51.5892 128.473C51.758 127.894 51.8545 125.989 52.2162 125.748C52.385 125.628 52.5538 125.652 52.7226 125.628L52.7467 125.604Z" fill="#DFC05F"/>
<path d="M75.4971 79.1592C75.9796 79.3039 76.631 79.3762 77.0411 79.6415C77.3788 79.8344 77.4753 80.172 77.7166 80.3649C78.6816 81.1607 79.9361 81.5948 79.6707 83.1622C79.6466 83.3551 79.3812 83.958 79.0917 83.9339C79.2124 83.0175 78.754 81.4983 78.1026 80.799C77.6201 80.2926 76.1485 79.4968 75.4971 79.1592Z" fill="#DFC05F"/>
<path d="M57.5001 29.3366C57.283 29.3366 56.7043 29.3848 56.5596 29.2883C56.3667 29.1678 56.4872 28.8784 56.4631 28.7578C56.9695 28.7337 57.5483 28.6855 57.5001 29.3366Z" fill="#BAE3F8"/>
<path d="M67.9457 90.3C67.7528 90.2035 67.7769 89.9865 67.7046 89.8418C67.8975 89.9624 67.8975 90.1312 67.9457 90.3Z" fill="#DFC05F"/>
<path d="M107.343 83.7888L107.223 83.7406L107.343 83.6924C107.343 83.6924 107.343 83.7647 107.343 83.813V83.7888Z" fill="#EF917B"/>
<path d="M23.0013 81.3546C17.5249 77.5204 15.1365 72.0222 14.5334 65.5113C13.3995 53.6951 16.4634 45.906 26.4995 39.5156C27.4886 38.8887 28.5742 38.4064 29.5151 37.707C34.0024 37.4418 38.0072 37.0801 42.4221 36.1396C44.714 35.6573 48.5981 34.7892 50.7211 33.9934C51.469 33.704 51.9998 33.2217 52.6753 32.9323C53.1819 32.7153 53.7368 32.643 54.2675 32.4259C55.2084 32.016 56.1493 31.5578 57.0661 31.0996C59.358 31.2925 62.7596 31.4854 64.762 32.5224C66.7644 33.5593 70.7933 36.0431 72.0237 37.6829C76.4627 43.591 78.5616 52.0794 78.0791 59.3861C77.4277 69.2973 74.0743 75.1571 64.5449 78.6055C59.2132 80.5347 53.6644 81.4752 48.1397 82.3915C39.6477 83.8384 31.2039 84.7307 23.0254 81.3787L23.0013 81.3546ZM43.7972 65.6801C44.8828 67.561 47.2954 67.8745 49.2013 67.0787C50.6246 66.5 51.2278 65.1013 51.8792 63.8232C56.4629 64.402 60.2747 64.7396 64.0624 61.7253C67.1263 59.2656 68.1637 56.9023 68.429 52.9716C68.6462 49.6438 65.1721 43.374 62.7355 41.1313C59.0685 37.7311 55.0396 37.0801 50.2628 37.0077C46.1374 36.9354 41.9878 37.1042 38.1278 38.6957C34.9191 40.022 30.8661 42.12 28.2606 44.3868C25.1002 47.1118 22.3499 54.105 22.6877 58.2045C23.0978 63.3651 29.6357 69.6108 34.9191 68.9114C38.0313 68.5015 41.0469 67.0305 43.8455 65.7042L43.7972 65.6801Z" fill="#E0C05E"/>
<path d="M52.9406 83.3786C53.2301 83.3786 53.3507 83.3062 53.6644 83.4027C53.785 83.4509 55.1601 84.3432 55.2808 84.4396C55.5703 84.6808 55.7874 85.0666 56.101 85.356C58.9237 87.888 61.9152 90.1548 64.9308 92.4216C66.3784 93.5068 67.3434 93.6032 68.0189 95.4841C68.4049 96.5452 68.5496 97.6786 68.815 98.7637C69.3458 101.006 69.78 103.129 69.9248 105.444L69.8283 105.781C67.5364 108.337 65.341 110.966 62.9767 113.45C60.7572 115.789 58.4412 118.128 55.9321 120.129C55.7874 120.25 55.3773 120.588 55.2325 120.588C54.9671 120.588 53.3025 119.261 52.8924 118.996C49.925 117.139 46.6681 115.62 43.8454 113.522C42.7115 112.678 41.6259 111.882 40.492 111.062C38.8756 109.905 37.2834 108.771 35.667 107.662C35.281 107.18 35.3775 105.516 35.3051 104.889C35.2086 103.828 34.8226 101.73 35.1362 100.765C35.474 99.7283 36.8974 98.185 37.4764 97.1963C39.0686 94.5678 40.5644 91.9152 42.1567 89.3349C42.5909 88.6356 43.3147 88.0568 43.8213 87.3816C44.5209 86.417 45.0517 85.1872 45.9443 84.3914C48.3086 84.102 50.5281 83.475 52.9165 83.3545L52.9406 83.3786ZM47.2712 93.8926C45.7272 92.7592 43.5077 92.711 41.9878 93.8926C39.0445 96.1594 40.0336 100.862 43.6765 101.658C43.9902 103.852 45.1482 105.661 46.8852 106.987C47.1023 107.132 47.9226 107.541 47.9467 107.614C48.0191 107.734 47.9467 108.506 47.9708 108.795C48.6222 113.691 56.0528 113.643 56.6559 108.795C56.7283 108.241 56.487 106.987 56.5594 106.746C56.5835 106.649 57.6933 105.636 57.9345 105.323C59.0684 103.78 59.5509 101.971 59.5751 100.066C64.7137 97.775 61.5774 90.0342 56.2217 92.0116C55.7633 92.1804 54.6535 93.0727 54.5088 93.0727C54.2193 93.0968 53.0371 92.6627 52.5305 92.6145C50.7452 92.4457 48.6705 92.7592 47.2471 93.8926H47.2712Z" fill="#FEFEFE"/>
<path d="M39.02 17.7393C42.3493 18.1974 44.6895 18.728 47.3673 20.8259C48.7184 21.887 50.8414 24.5878 51.4204 26.1794C51.9029 27.5298 51.6858 28.7838 53.4951 29.0973C53.5916 29.0973 55.0633 29.0973 54.7014 29.459C53.5916 29.8931 52.4578 30.52 51.3239 30.9059C44.0381 33.4138 35.6425 34.716 28.0431 35.97C26.6921 36.187 25.3893 36.5246 24.0142 36.6452C24.0624 36.0423 25.727 35.5118 25.7753 35.4153C25.8718 35.1018 25.6547 34.6195 25.6547 34.2819C25.534 31.0506 25.341 27.6022 27.0057 24.7084C28.3084 22.4657 30.1178 20.2713 32.6269 19.3549C32.6269 19.4032 32.6269 19.4273 32.6269 19.4755L32.7475 19.5961C32.8922 22.2246 33.3747 24.8531 34.0502 27.4092C34.3156 28.3979 34.7981 29.3143 34.967 30.3271C35.1841 30.7853 35.8596 30.713 36.0526 30.2789C36.318 29.7001 35.3771 27.578 35.1841 26.8546C34.8464 25.6006 34.5086 24.0332 34.2915 22.7551C34.1226 21.7664 33.7849 19.6684 34.0261 18.7762C34.6775 18.5592 35.2565 18.1251 36.0044 18.1974C36.3421 18.535 37.09 20.8259 37.283 21.4047C37.6931 22.8275 38.1515 24.7084 38.4169 26.1794C38.5375 26.8305 38.5375 29.3384 39.1407 29.6278C40.5882 30.3271 39.8162 27.9639 39.7438 27.4092C39.3337 24.3226 38.7064 20.9224 37.4036 18.0769L39.02 17.7393Z" fill="#BAE3F8"/>
<path d="M37.1631 110.845L40.8784 113.232C44.087 116.174 48.0435 118.055 51.7347 120.274C52.748 120.877 54.1955 122.396 55.3535 122.348C56.3909 122.324 56.7769 121.479 57.4524 120.949C60.5645 118.562 63.7249 115.258 66.4028 112.364C67.7297 110.941 68.936 109.302 70.2387 107.831C70.48 107.782 70.5041 108.458 70.5041 108.602C70.5282 108.94 70.5041 109.253 70.5041 109.567C70.5282 110.459 70.5041 111.351 70.5041 112.244C70.3593 113.112 70.0457 113.932 69.9251 114.8C68.7671 113.208 67.0059 112.967 65.4619 114.221C64.521 114.993 62.977 117.428 62.6634 118.634C62.3015 119.96 62.4463 120.901 62.7117 122.227C61.9879 122.372 61.3606 122.733 60.6369 122.878C58.924 123.24 57.1387 123.626 55.4259 123.939C53.8818 124.204 51.2763 123.312 50.5284 125.193C50.1666 126.11 50.2631 128.714 49.2498 129.027C49.0086 129.1 48.7914 129.076 48.5502 129.076C48.5984 128.425 48.4295 127.556 48.1883 126.954C48.0435 126.592 46.4513 123.626 46.3065 123.505C46.0412 123.288 45.631 123.168 45.3174 122.926C44.4006 122.179 43.6045 121.552 42.6395 120.828C40.8542 118.393 39.2378 116.078 38.0557 113.28C37.7903 112.654 37.4767 111.303 37.1872 110.845H37.1631Z" fill="#DFC05F"/>
<path d="M76.4391 84.2716C76.2703 83.6928 75.836 82.5836 75.1846 82.4389C74.9434 82.3906 74.678 82.4389 74.4609 82.4148C73.5924 82.2942 72.5067 82.3183 71.6141 82.4148C69.6358 82.6318 67.6817 84.2475 66.2583 85.5497C66.0171 85.5979 66.1136 85.5014 66.0653 85.405C65.7034 84.778 65.6069 83.8616 64.6419 84.0546C63.2427 84.3198 64.7625 86.3937 64.9314 87.1171L66.3789 91.3613C66.1618 91.2648 65.8723 91.0478 65.6793 90.9031C63.0979 88.7087 60.2753 86.9242 57.718 84.5851C57.1149 84.0304 56.5841 83.2588 55.8604 82.8971C55.8604 82.7283 56.0292 82.7283 56.1499 82.68C57.2596 82.246 58.9484 82.053 60.1788 81.7154C65.3415 80.3168 70.3355 78.2429 75.4983 81.1126C76.4874 81.6672 77.5248 82.1977 77.3559 83.5482C77.2835 84.1269 76.8975 84.1751 76.415 84.2957L76.4391 84.2716Z" fill="#DFC05F"/>
<path d="M29.5152 37.7051C28.5743 38.4044 27.4886 38.8867 26.4995 39.5137C16.4634 45.9041 13.3995 53.6931 14.5334 65.5093C15.1607 72.0203 17.5491 77.5425 23.0014 81.3527C18.9483 79.6887 15.0883 74.8658 13.8579 70.694C12.3139 65.437 11.566 54.8988 14.4369 50.0759C17.6456 44.6501 20.7818 41.057 26.5478 38.2597C27.1268 37.9703 27.2233 37.898 27.8988 37.8257C28.3813 37.7774 29.0085 37.7292 29.5152 37.7051Z" fill="#FDFDFC"/>
<path d="M92.2398 83.21C96.4617 85.115 101.094 85.742 105.605 84.3675C105.46 86.4655 104.713 88.4187 103.989 90.3479C102.734 90.2997 101.552 90.2273 100.322 89.938C96.9442 89.1422 94.2663 88.2741 91.2266 86.6825L92.2639 83.21H92.2398Z" fill="#EF917B"/>
<path d="M37.7415 85.3084C39.6474 85.3566 41.5292 85.019 43.4351 84.8984C42.7355 86.1765 41.6981 87.117 40.8778 88.2745C39.0443 90.8548 37.5968 93.8691 35.8839 96.4735V94.8578L35.1843 95.5571C35.2325 95.099 35.4979 94.4961 35.5461 93.9897C35.5461 93.7726 35.5703 92.6634 35.5461 92.4946C35.4255 91.8194 34.3158 91.7711 34.0021 92.3499C33.4955 93.2903 34.2916 94.1585 33.206 94.9301C32.1927 95.6536 30.7211 96.0153 29.4907 96.0394C29.5631 95.4366 29.9732 94.9543 30.0697 94.3514C30.1421 93.845 29.9008 93.001 29.9491 92.7598C29.9491 92.6634 31.2519 91.8194 31.469 91.6264C32.241 91.5782 32.6752 90.8548 33.206 90.4207C34.75 89.1426 36.0045 88.0092 37.259 86.3212C37.452 86.0559 37.7415 85.7183 37.7415 85.3566V85.3084Z" fill="#DFC05F"/>
<path d="M100.83 71.1523C101.143 71.2729 101.336 71.3694 101.578 71.6105C102.519 72.551 104.159 75.1313 104.569 76.4093C104.666 76.6746 104.979 77.591 104.762 77.7357C104.28 78.0492 98.4897 77.4463 97.5247 77.3016C96.5597 77.1569 95.5947 76.8193 94.6538 76.6505C95.8601 73.9497 97.5488 71.3694 100.806 71.2006L100.83 71.1523Z" fill="#F0917B"/>
<path d="M89.5624 91.8193C93.0123 93.5797 96.9447 94.7131 100.781 95.316C100.901 95.316 101.022 95.2677 100.949 95.4848C100.877 95.7018 99.7914 97.0763 99.5502 97.3416C99.3813 97.5345 98.5369 98.4991 98.4645 98.5714C98.0062 98.9091 96.6069 98.4509 96.052 98.3062C94.2909 97.848 92.7951 97.0522 91.1546 96.3529C90.5032 96.0635 88.6697 95.533 88.2355 95.2195C88.1148 95.123 88.1872 95.0025 88.1631 94.9784C88.8145 94.062 89.1763 92.9045 89.5624 91.8434V91.8193Z" fill="#EF917B"/>
<path d="M85.9685 99.3672C86.6922 99.8977 87.4401 100.549 88.2121 101.007C89.6838 101.899 91.5173 102.43 93.0613 103.25C91.662 104.262 90.2628 105.275 88.7188 106.071C88.0432 105.565 87.1989 105.179 86.5475 104.648C85.9444 104.142 84.5692 102.671 84.1108 102.044L85.9685 99.3672Z" fill="#EF917B"/>
<path d="M67.2227 115.067C68.7908 114.802 69.0562 117.237 69.008 118.347C68.9356 119.649 68.1636 122.277 66.6196 122.47C64.8343 122.687 64.1588 122.253 64.014 120.444C63.9175 119.166 64.8102 117.623 65.5339 116.634C65.8958 116.128 66.5954 115.163 67.2227 115.067Z" fill="#DFC05F"/>
<path d="M57.0419 31.0741C56.1251 31.5323 55.1842 32.0146 54.2433 32.4004C53.7367 32.6175 53.1577 32.6898 52.6511 32.9069C51.9756 33.1962 51.4689 33.6785 50.6969 33.9679C48.5739 34.7637 44.6898 35.6318 42.3979 36.1141C37.983 37.0546 33.9782 37.4163 29.4909 37.6816C28.9843 37.7057 28.357 37.7539 27.8745 37.8021L30.3835 37.2234C38.2001 35.9212 46.9093 34.5708 54.2192 31.5564C54.557 31.4117 55.0154 31.05 55.2566 30.9777C55.8597 30.833 56.487 31.0259 57.0419 31.0741Z" fill="#BAE3F8"/>
<path d="M24.0389 36.6453C24.0389 36.6453 23.9183 36.7658 23.7494 36.7658C23.5081 36.7658 22.8085 36.5729 23.0015 36.2835C23.0498 36.2112 23.9665 35.7289 24.2319 35.4636C25.4623 34.2579 24.5455 33.6792 24.4008 32.377C23.87 27.6746 25.5347 24.9738 28.4779 21.5736C29.5394 20.3437 31.3006 19.4515 32.7722 18.8486C32.8446 19.0174 32.6516 19.2345 32.6516 19.3068C30.1426 20.1991 28.3332 22.4176 27.0304 24.6603C25.3658 27.554 25.5588 31.0024 25.6794 34.2338C25.6794 34.5714 25.8965 35.0778 25.8 35.3672C25.7759 35.4637 24.1113 35.9942 24.0389 36.597V36.6453Z" fill="#FDFDFC"/>
<path d="M80.1539 106.215C80.8053 106.89 81.5049 107.541 82.1322 108.24C82.3493 108.506 82.8077 109.012 82.9524 109.277C83.0248 109.398 83.1454 109.35 82.9524 109.519C82.6871 109.736 80.4917 110.869 80.2504 110.821C80.1298 110.821 79.9127 110.628 79.8162 110.531C79.2372 109.929 78.441 108.699 77.8379 107.951L80.1539 106.215Z" fill="#EF917B"/>
<path d="M37.1631 110.847C37.4526 111.305 37.7662 112.655 38.0316 113.282C39.2137 116.08 40.8301 118.395 42.6154 120.83C40.613 119.311 38.2005 116.031 37.0907 113.741C36.5358 112.607 36.2704 111.45 36.1016 110.196C36.3669 110.075 37.0183 110.63 37.1389 110.823L37.1631 110.847Z" fill="#FAF9F8"/>
<path d="M100.829 71.1523C97.5721 71.3211 95.8833 73.9014 94.6771 76.6022C94.3635 76.554 94.0498 76.6264 93.6638 76.5058C93.5432 76.4576 93.4467 76.554 93.5191 76.337C93.7844 75.3965 95.3526 72.9368 96.0522 72.2616C97.0896 71.2488 99.4539 70.5977 100.829 71.1523Z" fill="#FAF9F8"/>
<path d="M26.7171 92.3993C26.7171 92.3993 26.8136 92.2546 27.079 92.3028C28.9125 92.5681 28.6471 94.8349 27.3926 95.703C26.8136 96.0888 26.5723 95.9924 26.0174 95.6548C25.6797 94.5455 26.2105 93.388 26.7171 92.3993Z" fill="#DFC05F"/>
<path d="M48.5504 129.078C48.3332 129.078 47.7301 129.078 47.6095 128.885C47.5371 128.764 47.3682 127.221 47.1993 126.763C46.741 125.388 45.583 124.351 45.2935 122.929C45.583 123.17 46.0172 123.29 46.2826 123.507C46.4273 123.628 48.0196 126.594 48.1644 126.956C48.4056 127.559 48.5745 128.427 48.5262 129.078H48.5504Z" fill="#FAF9F8"/>
<path d="M73.4232 110.266C73.9057 110.797 74.4364 111.424 74.8707 112.003C74.9672 112.123 75.0878 112.147 75.0396 112.34L72.1445 112.678C72.3617 111.954 72.2169 111.207 72.2652 110.483L73.4232 110.242V110.266Z" fill="#EF917B"/>
<path d="M37.7413 85.309C37.7413 85.6708 37.4518 86.0084 37.2588 86.2736C36.0284 87.9617 34.7739 89.095 33.2058 90.3731C32.675 90.8072 32.2408 91.5547 31.4688 91.5789C32.7233 90.5178 34.4844 88.9986 35.4735 87.7446C36.1008 86.9488 36.5833 86.1531 36.9452 85.1885C37.2105 85.1885 37.4759 85.2849 37.7413 85.309Z" fill="#FAF9F8"/>
<path d="M92.2402 83.2098L91.2033 86.6823C91.2033 86.6823 90.6969 86.6582 90.6245 86.5617C90.4316 86.2723 91.4445 83.3304 91.4203 82.7516C91.4927 82.7034 92.1197 83.1615 92.2402 83.2098Z" fill="#FAF9F8"/>
<path d="M26.7162 92.3994C26.2339 93.3881 25.6793 94.5215 26.0169 95.6549C25.9687 95.6308 25.8481 95.6549 25.7275 95.5343C25.4623 95.2449 25.1729 94.2804 25.2211 93.8704C25.3658 92.7853 25.7034 92.5441 26.7162 92.3994Z" fill="#FAF9F8"/>
<path d="M76.4387 84.2699C74.75 84.6799 75.2566 83.4018 74.4604 82.4131C74.7017 82.4372 74.943 82.389 75.1842 82.4372C75.8356 82.5819 76.2457 83.6912 76.4387 84.2699Z" fill="#FAF9F8"/>
<path d="M75.4972 31.654C75.3043 31.6299 75.3767 31.0512 75.3767 30.9065C75.4249 30.2313 75.5455 29.6525 75.4972 28.9291C75.449 28.0127 75.1355 27.0963 75.0391 26.2041C75.232 26.3006 75.3526 26.7346 75.4249 26.9275C75.9554 28.495 76.0519 30.0866 75.4972 31.654Z" fill="#EAEBEB"/>
<path d="M85.9679 99.3676L84.1103 102.044C83.9897 101.875 83.7484 101.9 83.9414 101.466L85.6302 99.0782C85.7749 98.9576 85.8956 99.3193 85.9679 99.3676Z" fill="#FAF9F8"/>
<path d="M77.8382 107.953C77.8382 107.953 77.5005 107.856 77.6694 107.591C77.7659 107.422 79.7924 105.975 79.9854 105.951C80.2749 105.951 80.1301 106.168 80.1542 106.192L77.8382 107.929V107.953Z" fill="#FAF9F8"/>
<path d="M96.9923 99.9445C96.944 100.089 96.7993 100.258 96.6304 100.234C95.8584 100.186 94.2661 99.2934 93.3976 99.1728L91.7812 98.3047L97.0164 99.9204L96.9923 99.9445Z" fill="#CF8C7A"/>
<path d="M35.8841 96.4487C35.7395 96.6657 35.6671 96.8827 35.4501 97.1239C35.3777 97.1962 35.4501 97.3409 35.1848 97.2686C35.2331 96.7139 35.1366 96.087 35.1848 95.5323L35.8841 94.833V96.4487Z" fill="#FAF9F8"/>
<path d="M67.1495 31.8935C67.1495 31.8935 66.4502 31.6523 66.4502 31.6041C66.4502 31.5318 66.7396 30.5913 66.7878 30.326C66.8843 29.7714 66.7396 29.1444 67.1013 28.6621L67.1495 31.9176V31.8935Z" fill="#EAEBEB"/>
<path d="M89.562 91.8176C89.2003 92.8787 88.8144 94.0362 88.1633 94.9525C88.1633 94.9284 88.0186 94.9043 87.9945 94.832C87.874 94.5185 88.6215 93.5298 88.8144 93.0957C89.0073 92.6134 89.152 92.107 89.2244 91.6006C89.4655 91.5041 89.5138 91.7935 89.562 91.8417V91.8176Z" fill="#EAEBEB"/>
<path d="M68.6465 26.781C68.8153 26.781 68.8153 27.0944 68.8394 27.215C68.96 27.7697 69.0806 30.3982 68.7671 30.7116C68.3813 31.0734 68.6465 30.4464 68.6465 30.4223V26.7568V26.781Z" fill="#EAEBEB"/>
<path d="M17.5489 42.9387C17.356 43.1316 17.3078 42.794 17.2596 42.6976C17.0184 42.1188 16.922 41.2266 16.8496 40.5996C17.2837 40.7925 17.7901 42.6976 17.5489 42.9146V42.9387Z" fill="#EAEBEB"/>
<path d="M70.166 33.8727C69.9972 33.8968 69.8766 33.8244 69.8284 33.6797C69.6596 33.1733 70.3107 31.3165 70.2142 30.6172C70.4313 31.7023 70.0936 32.7875 70.166 33.8727Z" fill="#EAEBEB"/>
<path d="M39.0198 17.7395L37.4034 18.0771C37.4034 18.0771 37.1863 17.9807 37.1622 17.9083C37.0657 17.3537 38.7544 17.6913 39.0198 17.7395Z" fill="#FAF9F8"/>
<path d="M15.7882 42.9384C15.7882 42.9384 16.3911 44.7229 15.8364 44.7953C15.7882 44.2165 15.6676 43.6619 15.5712 43.0831C15.5229 42.842 15.7158 42.8661 15.7641 42.9384H15.7882Z" fill="#EAEBEB"/>
<path d="M73.4224 110.267L72.2649 110.508C72.2649 110.05 72.1926 109.978 72.7954 109.929C73.5189 109.881 73.2295 110.074 73.4224 110.267Z" fill="#FAF9F8"/>
<path d="M14.4611 46.6037C14.4611 46.6037 14.8228 46.5555 14.5093 47.0378C13.9547 47.9059 13.9788 46.2902 14.1717 45.832L14.437 46.6037H14.4611Z" fill="#EAEBEB"/>
<path d="M70.5034 112.245C70.5034 111.353 70.5275 110.461 70.5034 109.568C70.6963 109.689 70.624 110.002 70.624 110.195C70.624 110.943 70.624 111.498 70.5034 112.221V112.245Z" fill="#CF8C7A"/>
<path d="M36.005 18.1977C35.2812 18.1254 34.6781 18.5594 34.0267 18.7765C34.0509 18.68 33.9302 18.5112 34.0991 18.4147C34.3886 18.2701 35.7879 17.9566 36.005 18.1977Z" fill="#FAF9F8"/>
<path d="M94.4346 81.475C94.4587 81.6679 94.1693 81.5955 94.0488 81.5714C93.9282 81.5473 92.7707 81.1373 92.7948 81.065C92.8913 80.7756 93.0601 80.9927 93.1806 81.0168C93.6147 81.1373 93.9764 81.4267 94.4105 81.4508L94.4346 81.475Z" fill="#CF8C7A"/>
<path d="M72.6025 35.0283C72.6025 34.7148 72.8919 34.2084 73.1813 34.6183L72.6025 35.0283Z" fill="#EAEBEB"/>
<path d="M105.582 80.896V81.2336H104.666C104.69 81.0166 105.558 80.8478 105.582 80.896Z" fill="#CF8C7A"/>
<path d="M102.566 91.8201C102.614 91.5548 103.482 91.6995 103.482 91.8683C103.482 92.23 102.686 91.8442 102.566 91.8201Z" fill="#CF8C7A"/>
<path d="M75.377 32.0142C75.377 32.0142 75.1841 31.9418 75.2565 31.773C75.3047 31.7007 75.4494 31.8453 75.377 32.0142Z" fill="#EAEBEB"/>
<path d="M75.0391 26.0825C75.0391 26.0825 74.8462 26.0102 74.9186 25.8414C74.9668 25.769 75.1115 25.9137 75.0391 26.0825Z" fill="#EAEBEB"/>
<path d="M32.7485 19.5962L32.6279 19.4756C32.6279 19.4756 32.7485 19.4997 32.7485 19.5962Z" fill="#FDFDFC"/>
<path d="M39.9614 3.67841C39.1171 8.28432 38.8034 10.9128 34.3885 13.3725C31.8554 14.7953 30.5044 14.7471 27.8747 13.6619C27.8265 13.3484 27.8747 13.0831 28.116 12.842C28.5261 12.6973 29.467 12.1668 29.853 11.9015L31.011 12.0221L30.7697 11.2022C30.9386 11.0575 31.1557 10.8164 31.3487 10.6234L32.6274 11.0816C32.5309 10.8405 32.2655 10.8887 32.1449 10.5993C32.0484 10.3823 32.0484 10.1653 32.0484 9.92411C33.9543 8.11551 35.2329 7.07858 37.3077 5.48701C37.8384 5.07706 38.4174 4.35362 38.9964 3.9919C39.1894 3.87133 39.6719 3.75076 39.9373 3.6543L39.9614 3.67841Z" fill="#487CB3"/>
<path d="M37.9828 3.2207C36.487 4.73993 34.5812 5.80097 32.9889 7.22374C30.9865 9.00823 29.4184 11.5403 26.4751 11.9261C27.9709 10.1657 28.2845 7.99541 30.1421 6.47618C32.2893 4.6917 35.4497 4.25763 37.9828 3.2207Z" fill="#EB7800"/>
<path d="M28.1145 12.8438C27.8975 13.0849 27.8492 13.3502 27.8734 13.6636C27.5599 13.519 27.0052 13.5431 26.8364 13.0849C27.1981 13.0367 27.7769 12.9643 28.1145 12.8438Z" fill="#EB7800"/>
<path d="M32.0724 9.94922C32.0724 10.1904 32.0724 10.4074 32.1688 10.6244C32.3135 10.9379 32.5547 10.8897 32.6511 11.1067L31.373 10.6485C31.5901 10.4556 31.8312 10.1663 32.0724 9.94922Z" fill="#EAEBEB"/>
<path d="M30.7933 11.2285L31.0345 12.0484L29.877 11.9278C30.094 11.7832 30.6004 11.3973 30.8174 11.2285H30.7933Z" fill="#EAEBEB"/>
<path d="M39.9615 3.68032C39.7203 3.77677 39.238 3.89735 39.021 4.01792L40.0097 3.10156C40.2026 3.24625 39.9856 3.53563 39.9615 3.68032Z" fill="#EAEBEB"/>
<path d="M43.7973 65.6778C40.9988 67.0283 38.0072 68.4993 34.871 68.8851C29.5875 69.5844 23.0496 63.3387 22.6395 58.1782C22.3017 54.0787 25.052 47.0854 28.2124 44.3605C30.8421 42.0937 34.8951 39.9957 38.0796 38.6694C41.9638 37.0778 46.0892 36.909 50.2146 36.9814C55.0155 37.0537 59.0444 37.7289 62.6873 41.105C65.0998 43.3476 68.598 49.6175 68.3809 52.9453C68.1396 56.876 67.1022 59.2392 64.0142 61.6989C60.2265 64.7374 56.4148 64.3756 51.831 63.7969C51.1796 65.075 50.5765 66.4495 49.1531 67.0524C47.2231 67.8482 44.8347 67.5347 43.749 65.6537L43.7973 65.6778ZM44.2557 38.9829C43.6767 38.8382 43.2183 39.1276 42.7358 39.224C38.345 40.0922 31.3004 43.2994 28.333 46.7237C26.3548 48.9905 24.3283 54.1751 24.2559 57.1654C24.1594 61.2166 28.3089 65.5332 31.8553 67.0042C33.1581 67.5347 33.906 67.3176 35.1846 67.1006C37.1146 66.763 38.8034 66.136 40.5886 65.3644C40.9505 65.2197 42.4704 64.5686 42.6151 64.3757C42.8323 64.1345 42.5428 63.7728 42.5186 63.4352C42.2291 59.5286 45.679 57.3342 49.2737 58.4193C50.9142 58.9257 51.6621 60.5414 52.0481 62.0848L52.1687 62.1571C54.7501 62.4706 58.3448 62.9529 60.7573 61.8436C65.2928 59.7939 67.7777 54.9227 66.1855 50.0756C64.9068 46.1932 61.7706 41.6114 57.9346 39.9716C54.6295 38.5488 47.7297 38.2836 44.2315 38.9829H44.2557ZM48.9118 64.1827C48.3328 64.3033 47.8021 64.6891 47.1748 64.6891C46.7406 64.6891 46.5234 64.4721 46.1616 64.4239C45.5584 64.3033 46.0168 64.8821 46.4269 64.9785C46.9577 65.0991 47.8503 64.9785 48.3569 64.7615C48.5499 64.665 48.9359 64.448 48.8877 64.2068L48.9118 64.1827Z" fill="#261C19"/>
<path d="M47.2712 93.8933C48.6946 92.7599 50.7694 92.4706 52.5546 92.6153C53.0613 92.6635 54.2434 93.1217 54.5329 93.0734C54.7018 93.0734 55.7874 92.1812 56.2458 92.0124C61.6016 90.035 64.7378 97.7758 59.5992 100.067C59.5509 101.972 59.0926 103.78 57.9587 105.324C57.7174 105.637 56.6077 106.65 56.5835 106.746C56.487 107.012 56.7283 108.266 56.68 108.796C56.0769 113.667 48.6463 113.691 47.995 108.796C47.9467 108.507 48.0432 107.735 47.9708 107.615C47.9467 107.566 47.1023 107.156 46.9093 106.988C45.1482 105.685 44.0143 103.853 43.7007 101.658C44.3762 101.803 45.0034 101.803 45.6789 101.658C45.7996 103.419 47.1265 105.034 48.6463 105.83C49.925 103.949 52.0239 103.226 54.171 104.142C54.75 104.407 55.1119 104.769 55.6185 105.131C61.0226 100.187 55.0878 91.6748 48.5981 95.2679C48.4292 94.9062 47.6572 94.1104 47.3195 93.8692L47.2712 93.8933ZM59.1167 98.0893C59.6716 97.9446 60.1541 97.1488 60.2506 96.6183C60.6366 94.3997 58.3688 92.977 56.4388 94.038C56.3182 94.2068 57.4762 95.2197 57.6692 95.4367C58.3205 96.2084 58.8513 97.1247 59.1167 98.1134V98.0893ZM51.7826 105.782C49.5149 106.168 49.1289 109.616 51.469 110.46C53.8091 111.304 55.7392 108.507 54.2434 106.626C53.6403 105.878 52.6994 105.637 51.7826 105.782Z" fill="#575FA9"/>
<path d="M47.2709 93.8929C47.6086 94.1341 48.3565 94.9299 48.5495 95.2916C49.8281 97.7754 48.3806 101.079 45.6545 101.682C44.979 101.827 44.3517 101.827 43.6762 101.682C40.0333 100.886 39.0442 96.1597 41.9874 93.9171C43.5073 92.7354 45.7268 92.7837 47.2709 93.9171V93.8929ZM44.2311 94.9781C41.0948 95.5086 41.7221 100.404 45.2202 99.801C48.0911 99.2946 47.4156 94.4476 44.2311 94.9781Z" fill="#EC6406"/>
<path d="M44.2561 38.984C47.7543 38.2847 54.6541 38.574 57.9592 39.9727C61.7951 41.6125 64.9555 46.1943 66.21 50.0767C67.8023 54.8997 65.3174 59.7949 60.7819 61.8447C58.3693 62.9299 54.7747 62.4476 52.1933 62.1582L52.0727 62.0858C51.6867 60.5425 50.9147 58.9268 49.2983 58.4204C45.7036 57.3352 42.2537 59.5297 42.5432 63.4363C42.5432 63.7498 42.8568 64.1356 42.6397 64.3767C42.4708 64.5697 40.9509 65.2208 40.6132 65.3654C38.8279 66.1371 37.1392 66.7641 35.2092 67.1017C33.6651 67.0294 32.3141 66.2095 31.0837 65.3654C27.272 62.7611 25.0524 58.9992 26.1863 54.2968C27.0066 50.8725 28.4541 47.2312 31.2767 44.9885C34.0994 42.7459 39.1416 40.2379 42.7603 39.3457C43.2428 39.2251 43.7736 39.1046 44.2802 39.0081L44.2561 38.984ZM54.7988 47.4723C53.8579 47.5447 50.1426 49.6427 49.2018 50.2455C47.9714 51.0654 48.2368 52.2229 49.7084 52.03C51.4937 50.8484 53.3754 49.7632 55.4019 48.9916C56.1016 48.4128 55.7156 47.3759 54.7988 47.4482V47.4723ZM35.8123 52.657C36.1259 52.9464 39.1657 52.8982 39.7929 52.9223C40.8786 52.9705 41.9642 53.0911 43.0498 53.1634C44.5939 52.4882 43.6047 51.4995 42.3261 51.3307C40.8786 51.1378 38.1524 51.0654 36.6567 51.1378C35.764 51.186 35.1368 52.03 35.8123 52.657Z" fill="#F0917B"/>
<path d="M42.7359 39.2002V39.3208C39.1172 40.213 34.1715 42.6486 31.2524 44.9636C28.3332 47.2786 26.9822 50.8476 26.1619 54.2719C25.0522 58.9742 27.2476 62.712 31.0593 65.3405C32.2897 66.1845 33.6407 67.0044 35.1848 67.0768C33.9061 67.2938 33.1582 67.5108 31.8555 66.9803C28.3091 65.5093 24.1595 61.1928 24.256 57.1415C24.3284 54.1513 26.3549 48.9666 28.3332 46.6999C31.3006 43.2756 38.3452 40.0683 42.7359 39.2002Z" fill="#FDFDFC"/>
<path d="M48.911 64.1843C48.9351 64.4495 48.5491 64.6666 48.3802 64.7389C47.8736 64.9801 46.981 65.0765 46.4502 64.9559C46.0401 64.8595 45.5817 64.3048 46.1848 64.4013C46.5467 64.4736 46.7638 64.6907 47.1981 64.6666C47.8253 64.6666 48.332 64.2566 48.9351 64.1602L48.911 64.1843Z" fill="#DFC05F"/>
<path d="M44.2556 38.9838C43.7733 39.0803 43.2427 39.225 42.7363 39.3214V39.2008C43.1945 39.1044 43.6768 38.815 44.2556 38.9597V38.9838Z" fill="#EAEBEB"/>
<path d="M48.5495 95.291C55.0151 91.6979 60.974 100.21 55.57 105.154C55.0633 104.816 54.7256 104.43 54.1224 104.165C51.9753 103.225 49.8764 103.972 48.5978 105.853C47.0779 105.033 45.7751 103.442 45.6304 101.681C48.3806 101.078 49.804 97.7989 48.5254 95.291H48.5495Z" fill="#FEFEFE"/>
<path d="M51.7828 105.782C52.6996 105.637 53.6646 105.879 54.2436 106.626C55.7393 108.483 53.8334 111.304 51.4692 110.46C49.1049 109.616 49.515 106.168 51.7828 105.782Z" fill="#FEFEFE"/>
<path d="M59.1167 98.0901C58.8513 97.1255 58.3206 96.1851 57.6692 95.4134C57.5003 95.1964 56.3182 94.2077 56.4388 94.0148C58.3447 92.9537 60.6125 94.3765 60.2506 96.595C60.1541 97.1497 59.6716 97.9213 59.1167 98.066V98.0901Z" fill="#FEFEFE"/>
<path d="M44.2312 94.978C47.4158 94.4475 48.0913 99.2945 45.2204 99.8009C41.7222 100.404 41.095 95.5085 44.2312 94.978Z" fill="#FEFEFE"/>
<path d="M35.8122 52.6561C35.1367 52.0291 35.7399 51.161 36.6566 51.1369C38.1283 51.0645 40.8544 51.1369 42.326 51.3298C43.6047 51.4986 44.5938 52.4873 43.0498 53.1625C41.9642 53.0902 40.8785 52.9696 39.7929 52.9214C39.1656 52.8973 36.1259 52.9696 35.8122 52.6561Z" fill="#261C19"/>
<path d="M54.7985 47.4723C55.7152 47.4 56.1012 48.4369 55.4016 49.0157C53.3992 49.7874 51.5174 50.8484 49.708 52.0541C48.2364 52.2471 47.971 51.0895 49.2014 50.2696C50.1182 49.6427 53.8576 47.5688 54.7985 47.4965V47.4723Z" fill="#261C19"/>
<g clip-path="url(#clip0_2120_467)">
<path d="M2.57773 152.126C2.12504 153.303 1.92132 153.891 1.21965 153.891C0.676422 153.891 0.0879233 153.574 0.0879233 152.963C0.0879233 152.714 0.178462 152.533 0.269 152.307C1.35546 149.907 2.19294 147.418 2.87198 144.882C2.37402 144.882 1.89869 144.905 1.40073 144.905C0.653788 144.905 0.0200195 144.905 0.0200195 143.864C0.0200195 143.162 0.359538 142.891 1.06121 142.891H2.1024C2.50982 142.891 2.91725 142.891 3.3473 142.891C3.8 140.423 3.98107 140.22 4.63747 140.22C5.13544 140.22 5.7692 140.401 5.7692 141.012C5.7692 141.284 5.6334 141.94 5.42969 142.732C6.17663 142.664 6.9462 142.574 7.64787 142.393C7.78368 142.37 7.98739 142.325 8.07793 142.325C8.68907 142.325 8.98332 142.777 8.98332 143.366C8.98332 143.932 8.68907 144.136 8.16847 144.249C7.08201 144.475 6.01818 144.611 4.90909 144.724C4.23005 147.236 3.48311 149.704 2.55509 152.126H2.57773ZM5.61076 153.325C4.90909 152.94 4.63747 152.261 4.63747 151.469C4.63747 150.677 5.24861 149.274 6.15399 149.274C6.58405 149.274 7.17255 149.568 7.17255 150.043C7.17255 150.269 7.05938 150.405 6.85566 150.677C6.71986 150.835 6.60668 151.107 6.60668 151.311C6.60668 152.126 8.37218 152.171 9.25493 152.171C10.3414 152.171 10.9525 152.148 12.3559 151.99H12.6048C13.1707 151.99 13.465 152.42 13.465 152.963C13.465 153.416 13.2839 153.8 12.8086 153.936C12.2427 154.095 10.7262 154.117 9.91133 154.117C7.57997 154.117 6.49351 153.823 5.65603 153.348L5.61076 153.325ZM7.33099 145.064C8.21374 144.928 9.39074 144.882 10.2735 144.882C12.3106 144.882 13.1481 144.928 13.1481 145.946C13.1481 146.603 12.8086 146.92 12.1748 146.92C11.6995 146.92 10.7262 146.829 9.77553 146.829C8.96068 146.829 7.76105 146.965 7.24045 146.965C6.67459 146.965 6.42561 146.58 6.42561 146.059C6.42561 145.448 6.74249 145.131 7.33099 145.064Z" fill="#231815"/>
<path d="M21.5913 149.636C20.867 151.266 19.5769 153.846 17.4945 153.846C15.7743 153.846 15.0952 152.013 15.0952 150.564C15.0952 148.799 15.8648 147.192 16.9513 145.834C16.7249 145.177 16.1138 143.208 16.1138 142.62C16.1138 142.099 16.6796 141.805 17.1323 141.805C17.6756 141.805 17.834 141.986 18.0603 143.231C18.1282 143.57 18.2188 143.978 18.3546 144.476C19.3732 143.729 20.3917 143.208 21.6366 142.936C21.7271 142.461 21.7498 142.076 21.7951 141.737C21.8856 140.809 21.9988 140.401 22.7683 140.401C23.2889 140.401 23.8322 140.673 23.8322 141.261C23.8322 141.624 23.6964 142.393 23.6285 142.778C26.9105 143.004 28.7665 145.132 28.7665 148.391C28.7665 149.184 28.6307 149.931 28.427 150.7C28.9249 151.085 29.4908 151.56 29.4908 152.058C29.4908 152.624 28.9928 153.19 28.427 153.19C28.0648 153.19 27.8611 152.941 27.499 152.534C26.7747 153.597 25.5977 154.163 24.3075 154.163C22.791 154.163 21.2971 153.258 21.2971 151.583C21.2971 149.908 22.7004 148.889 24.2849 148.889C25.1223 148.889 25.9598 149.184 26.7068 149.591C26.7973 149.206 26.8199 148.821 26.8199 148.437C26.8199 146.128 25.6429 144.679 23.2663 144.589C22.8136 146.332 22.3156 148.052 21.5687 149.682L21.5913 149.636ZM17.7435 147.848C17.2908 148.64 16.9286 149.591 16.9286 150.519C16.9286 150.994 17.0192 151.809 17.6529 151.809C18.2188 151.809 18.6715 151.175 19.1015 150.474C18.513 149.546 18.1735 148.821 17.7435 147.848ZM18.9657 146.264C19.26 147.033 19.5995 147.848 20.0069 148.572C20.5049 147.373 20.9349 146.105 21.2518 144.838C20.3917 145.132 19.5995 145.63 18.9657 146.264ZM24.1264 150.564C23.5605 150.564 23.0173 150.859 23.0173 151.492C23.0173 152.126 23.7416 152.42 24.3075 152.42C25.145 152.42 25.6882 152.013 26.073 151.289C25.5071 150.904 24.8507 150.564 24.149 150.564H24.1264Z" fill="#231815"/>
<path d="M39.2462 152.6C38.8162 153.279 38.0692 154.23 37.4807 154.75C37.2996 154.909 37.0959 154.999 36.847 154.999C36.3264 154.999 35.7605 154.569 35.7605 154.026C35.7605 153.619 36.1453 153.234 36.8922 152.487C36.4395 152.623 35.3078 152.872 34.1308 153.143C32.7727 153.438 31.392 153.709 30.9846 153.709C30.3961 153.709 30.1924 153.211 30.1924 152.691C30.1924 151.989 30.5545 151.876 31.1204 151.808V142.324C31.1204 141.079 31.6184 140.604 32.8406 140.604H35.4662C36.6885 140.604 37.1865 141.102 37.1865 142.324V143.524C37.3449 143.229 37.5939 143.116 37.9108 143.116H39.2915V140.898C39.2915 140.196 39.5857 139.925 40.31 139.925C40.9664 139.925 41.2154 140.264 41.2154 140.898V143.116H42.6188C43.9542 143.116 44.8596 143.184 44.8596 144.995C44.8596 147.077 44.7691 149.205 44.6106 151.152C44.5427 152.057 44.3843 153.777 43.7958 154.343C43.3204 154.796 42.4603 154.841 41.7134 154.841H41.1475C40.5364 154.841 39.7442 154.841 39.7442 153.755C39.7442 153.143 40.0611 152.759 40.6948 152.759C41.0343 152.759 41.3512 152.781 41.6908 152.781C42.2113 152.781 42.3698 152.645 42.5282 151.808C42.664 151.106 42.7319 150.133 42.7772 149.137C42.8451 147.915 42.8677 146.625 42.8677 145.719C42.8677 145.108 42.8451 145.018 42.234 145.018H41.1928C41.0343 147.756 40.7401 150.201 39.2689 152.578L39.2462 152.6ZM35.3757 144.18V142.799C35.3757 142.55 35.2399 142.415 35.0135 142.415H33.316C33.067 142.415 32.9312 142.55 32.9312 142.799V144.18H35.3757ZM32.9538 145.832V147.598H35.3983V145.832H32.9538ZM35.3757 151.061V149.25H32.9312V151.536C33.746 151.401 34.5609 151.219 35.3757 151.061ZM37.9334 145.04C37.6165 145.04 37.3675 144.904 37.2091 144.633V150.631C37.2091 150.631 37.4128 150.608 37.5034 150.608C37.7523 150.608 37.9334 150.699 38.0466 150.903C38.9746 149.114 39.2236 147.055 39.2915 145.063H37.9334V145.04Z" fill="#231815"/>
<path d="M50.8799 141.012C51.1063 140.605 51.3779 140.469 51.8306 140.469C52.3285 140.469 52.917 140.672 52.917 141.261C52.917 141.714 52.5775 143.298 52.4643 143.819C55.4974 143.887 56.2896 145.38 56.2896 148.187C56.2896 149.07 56.2217 149.975 56.0859 150.858C55.9501 151.718 55.7463 152.465 55.1805 153.121C54.5241 153.891 53.5508 154.163 52.5549 154.163C51.1515 154.163 50.8346 153.823 50.8346 153.076C50.8346 152.646 51.0157 152.08 51.5363 152.08C51.7174 152.08 51.9211 152.126 52.1927 152.126C52.6001 152.126 53.415 151.854 53.6187 151.492C54.0488 150.677 54.1393 148.957 54.1393 148.029C54.1393 146.625 53.9582 145.765 52.3512 145.765H51.9664C51.31 148.187 50.5404 150.586 49.3408 152.805C48.9786 153.529 48.6391 154.163 48.028 154.163C47.4621 154.163 46.8057 153.778 46.8057 153.144C46.8057 152.85 46.9415 152.601 47.2131 152.171C48.3675 150.247 49.1597 148.165 49.7708 146.014C49.2276 146.127 47.5753 146.399 47.281 146.399C46.6699 146.399 46.4209 145.901 46.4209 145.335C46.4209 144.52 46.9868 144.43 47.6658 144.339L50.2461 144.022C50.3367 143.57 50.7441 141.193 50.8346 141.035L50.8799 141.012ZM57.1723 142.913C57.8966 143.66 58.372 144.317 58.8699 145.222C59.3226 146.037 60.1375 147.78 60.1375 148.708C60.1375 149.342 59.5263 149.681 58.9605 149.681C58.3493 149.681 58.1909 149.342 58.0551 148.708C57.7156 146.965 56.9686 145.313 55.7463 143.977C55.5653 143.796 55.4295 143.615 55.4295 143.321C55.4295 142.868 55.9048 142.483 56.3575 142.483C56.697 142.483 56.946 142.687 57.1723 142.913ZM59.0057 141.759C59.4811 142.393 59.8658 142.891 59.8658 143.208C59.8658 143.547 59.5263 143.864 59.2094 143.864C58.8926 143.864 58.7115 143.592 58.5078 143.253C58.1682 142.687 57.7156 142.166 57.2629 141.668C57.1497 141.533 57.0592 141.419 57.0592 141.238C57.0592 140.854 57.376 140.582 57.7608 140.582C58.1456 140.582 58.6888 141.306 59.0284 141.759H59.0057ZM60.8391 140.627C61.0655 140.921 61.6992 141.714 61.6992 142.076C61.6992 142.438 61.3824 142.732 61.0202 142.732C60.7033 142.732 60.5675 142.506 60.3412 142.144C59.979 141.578 59.549 141.057 59.0963 140.559C58.9831 140.423 58.8926 140.288 58.8926 140.107C58.8926 139.744 59.2321 139.45 59.5716 139.45C59.9564 139.45 60.4996 140.152 60.8618 140.627H60.8391Z" fill="#231815"/>
<path d="M68.5122 140.922C68.5122 140.266 68.8518 139.994 69.4855 139.994C70.1193 139.994 70.4588 140.266 70.4588 140.922V141.488H75.4384C76.1175 141.488 76.4117 141.782 76.4117 142.439C76.4117 143.095 76.0496 143.321 75.4384 143.321H70.4588V146.83H76.0496C76.7286 146.83 77.0228 147.124 77.0228 147.803C77.0228 148.482 76.6607 148.686 76.0496 148.686H71.6811C73.4013 150.451 74.3067 151.04 76.4343 152.172C76.7739 152.353 76.9776 152.624 76.9776 153.032C76.9776 153.598 76.5475 154.231 75.9364 154.231C75.3253 154.231 74.103 153.349 73.6277 152.986C72.3601 152.081 71.4321 151.13 70.4814 149.908V154.005C70.4814 154.752 70.1419 154.978 69.4403 154.978C68.7839 154.978 68.5122 154.639 68.5122 154.005V149.976C67.6295 151.062 66.6109 152.036 65.5018 152.896C65.0039 153.281 63.7363 154.231 63.1026 154.231C62.4688 154.231 62.0614 153.575 62.0614 153.009C62.0614 152.488 62.3783 152.307 62.8083 152.081C64.4833 151.221 66.0224 150.089 67.29 148.663H62.9894C62.333 148.663 62.0161 148.369 62.0161 147.713C62.0161 147.056 62.3783 146.807 62.9894 146.807H68.5122V143.299H63.6232C62.9668 143.299 62.6499 143.027 62.6499 142.348C62.6499 141.714 63.012 141.488 63.6232 141.488H68.5122V140.922ZM65.2302 143.389C65.6829 143.389 65.8866 143.706 66.2261 144.317C66.4525 144.702 66.8373 145.449 66.8373 145.902C66.8373 146.468 66.1809 146.762 65.7056 146.762C65.1623 146.762 65.0039 146.354 64.7775 145.811C64.6644 145.54 64.5286 145.291 64.3927 145.042C64.2569 144.815 64.1211 144.521 64.1211 144.249C64.1211 143.729 64.7775 143.389 65.2529 143.389H65.2302ZM72.5638 144.996C72.8581 144.521 72.9034 144.385 73.1523 143.91C73.3108 143.593 73.5145 143.412 73.8766 143.412C74.3746 143.412 75.0084 143.706 75.0084 144.272C75.0084 144.77 74.5557 145.517 74.2841 145.947C73.9445 146.468 73.7408 146.807 73.3108 146.807C72.8128 146.807 72.179 146.468 72.179 145.902C72.179 145.63 72.3601 145.313 72.5638 144.996Z" fill="#231815"/>
<path d="M80.9615 143.072C80.3051 143.072 79.8524 142.868 79.8524 142.121C79.8524 141.306 80.3503 141.148 81.052 141.148H82.0932C83.7908 141.148 85.6242 141.012 86.6654 140.921C86.9596 140.899 87.4802 140.854 87.5934 140.854C88.3403 140.854 88.8383 141.329 88.8383 141.963C88.8383 142.347 88.5667 142.574 86.9823 143.683C86.0995 144.294 85.2168 144.973 84.3793 145.675C85.0583 145.471 85.6921 145.38 86.3711 145.38C88.9288 145.38 91.0565 146.829 91.0565 149.568C91.0565 152.759 88.2724 154.457 85.3299 154.457C83.6776 154.457 80.9615 153.868 80.9615 151.763C80.9615 150.202 82.3196 149.387 83.7455 149.387C85.511 149.387 87.0275 150.428 87.7971 151.99C88.5667 151.469 88.9968 150.609 88.9968 149.681C88.9968 147.712 87.3671 147.055 85.6468 147.055C84.8773 147.055 84.0398 147.214 83.3381 147.463C82.0253 147.916 81.0746 148.798 79.9882 149.749C79.7392 149.953 79.5129 150.134 79.196 150.134C78.6301 150.134 78.1548 149.636 78.1548 149.07C78.1548 148.708 78.4038 148.504 79.3318 147.734C81.3236 146.127 83.3607 144.43 85.3752 142.777C84.1303 142.913 82.229 143.094 81.0067 143.094L80.9615 143.072ZM83.6097 151.062C83.2023 151.062 82.7722 151.288 82.7722 151.763C82.7722 152.578 84.4698 152.759 85.0357 152.759C85.3526 152.759 85.6468 152.737 85.9637 152.669C85.511 151.741 84.7188 151.062 83.6097 151.062Z" fill="#231815"/>
<path d="M103.596 143.208C103.867 143.185 104.094 143.14 104.252 143.14C104.886 143.14 105.18 143.638 105.18 144.227C105.18 144.838 104.886 145.087 104.139 145.177C102.939 145.336 101.74 145.449 100.563 145.517V148.686C102.125 149.07 103.596 149.659 104.977 150.406C105.588 150.723 106.108 151.062 106.108 151.651C106.108 152.171 105.723 152.737 105.158 152.737C104.931 152.737 104.795 152.669 104.501 152.488C103.143 151.696 102.147 151.13 100.631 150.632V151.062C100.631 151.877 100.54 152.669 99.9517 153.281C99.2274 154.05 97.9825 154.254 96.9639 154.254C95.0852 154.254 92.8218 153.416 92.8218 151.175C92.8218 150.134 93.4329 149.297 94.3609 148.799C95.1758 148.346 96.3528 148.233 97.3034 148.233C97.7108 148.233 98.1183 148.233 98.5483 148.301L98.4125 141.352C98.4125 140.583 98.752 140.266 99.499 140.266C100.201 140.266 100.495 140.628 100.518 141.307V143.48C101.74 143.434 102.441 143.344 103.618 143.185L103.596 143.208ZM97.0544 150.066C96.3075 150.066 94.7231 150.202 94.7231 151.198C94.7231 152.194 96.0812 152.42 96.8281 152.42C98.4352 152.42 98.5483 151.945 98.5483 150.202C98.0504 150.112 97.5524 150.066 97.0318 150.066H97.0544Z" fill="#231815"/>
<path d="M111.02 152.42C111.02 153.144 110.432 153.755 109.685 153.755C108.938 153.755 108.349 153.144 108.349 152.42C108.349 151.695 108.938 151.084 109.685 151.084C110.432 151.084 111.02 151.695 111.02 152.42ZM108.53 142.03V141.849C108.53 141.284 108.643 140.604 109.73 140.604C110.68 140.604 110.839 141.216 110.839 141.691V142.03L110.658 148.866C110.658 149.523 110.432 149.953 109.685 149.953C108.779 149.953 108.734 149.274 108.711 148.866L108.53 142.03Z" fill="#231815"/>
</g>
<defs>
<clipPath id="clip0_2120_467">
<rect width="111" height="15.55" fill="white" transform="translate(0.0200195 139.45)"/>
</clipPath>
</defs>
</svg>
