<svg width="105" height="35" viewBox="0 0 105 35" fill="none" xmlns="http://www.w3.org/2000/svg">
<path d="M4.74685 13.7549H1.96504V3.04855L0 4.32674V1.66482L2.24913 0.163818H4.75868V13.7432L4.74685 13.7549Z" fill="#040000"/>
<path d="M17.8274 9.60404C17.8274 12.6529 15.6848 13.9311 13.2108 13.9311C10.7367 13.9311 8.60596 12.6529 8.60596 9.60404V4.32709C8.60596 1.13747 10.7486 0 13.2108 0C15.673 0 17.8274 1.13747 17.8274 4.31537V9.61576V9.60404ZM13.2108 2.32185C11.956 2.32185 11.3641 3.10753 11.3641 4.56162V9.36951C11.3641 10.8236 11.956 11.6093 13.2108 11.6093C14.4656 11.6093 15.0456 10.8236 15.0456 9.36951V4.56162C15.0456 3.10753 14.4537 2.32185 13.2108 2.32185Z" fill="#040000"/>
<path d="M22.0779 6.61361H19.3789V3.9165H22.0779V6.61361ZM22.0779 13.7551H19.3789V11.0814H22.0779V13.7551Z" fill="#040000"/>
<path d="M32.6482 9.60404C32.6482 12.6529 30.5056 13.9311 28.0434 13.9311C25.5812 13.9311 23.4268 12.6529 23.4268 9.60404V4.32709C23.4268 1.13747 25.5694 0 28.0434 0C30.5175 0 32.6482 1.13747 32.6482 4.31537V9.61576V9.60404ZM28.0434 2.32185C26.7886 2.32185 26.1967 3.10753 26.1967 4.56162V9.36951C26.1967 10.8236 26.7886 11.6093 28.0434 11.6093C29.2982 11.6093 29.8664 10.8236 29.8664 9.36951V4.56162C29.8664 3.10753 29.2745 2.32185 28.0434 2.32185Z" fill="#040000"/>
<path d="M42.9822 9.60404C42.9822 12.6529 40.8396 13.9311 38.3656 13.9311C35.8915 13.9311 33.7607 12.6529 33.7607 9.60404V4.32709C33.7607 1.13747 35.9034 0 38.3656 0C40.8278 0 42.9822 1.13747 42.9822 4.31537V9.61576V9.60404ZM38.3656 2.32185C37.1108 2.32185 36.5189 3.10753 36.5189 4.56162V9.36951C36.5189 10.8236 37.1108 11.6093 38.3656 11.6093C39.6203 11.6093 40.2004 10.8236 40.2004 9.36951V4.56162C40.2004 3.10753 39.6085 2.32185 38.3656 2.32185Z" fill="#040000"/>
<path d="M63.7215 13.7549H60.9396V3.04855L58.9746 4.32674V1.66482L61.2238 0.163818H63.7215V13.7432V13.7549Z" fill="#040000"/>
<path d="M71.7123 5.7691C72.1267 5.56975 72.5528 5.51111 73.05 5.51111C75.1571 5.51111 76.8025 7.22319 76.8025 9.5685C76.8025 12.5822 74.7546 13.9425 72.2095 13.9425C69.6645 13.9425 67.5811 12.6057 67.5811 9.59195C67.5811 8.52484 68.0546 7.2701 68.8358 5.71047L71.594 0.175537H74.5771L71.7123 5.7691ZM72.2095 11.6089C73.4051 11.6089 74.0207 10.8232 74.0207 9.67404C74.0207 8.52484 73.4051 7.76261 72.2095 7.76261C71.0139 7.76261 70.3629 8.54829 70.3629 9.67404C70.3629 10.7998 70.9784 11.6089 72.2095 11.6089Z" fill="#040000"/>
<path d="M81.0525 6.61361H78.3535V3.9165H81.0525V6.61361ZM81.0525 13.7551H78.3535V11.0814H81.0525V13.7551Z" fill="#040000"/>
<path d="M91.6228 9.60404C91.6228 12.6529 89.4802 13.9311 87.0062 13.9311C84.5321 13.9311 82.4014 12.6529 82.4014 9.60404V4.32709C82.4014 1.13747 84.544 0 87.0062 0C89.4684 0 91.6228 1.13747 91.6228 4.31537V9.61576V9.60404ZM87.018 2.32185C85.7633 2.32185 85.1713 3.10753 85.1713 4.56162V9.36951C85.1713 10.8236 85.7633 11.6093 87.018 11.6093C88.2728 11.6093 88.8528 10.8236 88.8528 9.36951V4.56162C88.8528 3.10753 88.261 2.32185 87.018 2.32185Z" fill="#040000"/>
<path d="M101.957 9.60404C101.957 12.6529 99.8147 13.9311 97.3525 13.9311C94.8903 13.9311 92.7358 12.6529 92.7358 9.60404V4.32709C92.7358 1.13747 94.8784 0 97.3525 0C99.8265 0 101.957 1.13747 101.957 4.31537V9.61576V9.60404ZM97.3407 2.32185C96.0859 2.32185 95.494 3.10753 95.494 4.56162V9.36951C95.494 10.8236 96.0859 11.6093 97.3407 11.6093C98.5954 11.6093 99.1636 10.8236 99.1636 9.36951V4.56162C99.1636 3.10753 98.5718 2.32185 97.3407 2.32185Z" fill="#040000"/>
<path fill-rule="evenodd" clip-rule="evenodd" d="M48.7832 12.4535L53.3052 7.97393L48.7832 3.48267V12.4535Z" fill="#231815"/>
<path d="M4.45093 28.2316C4.62849 28.3371 4.7587 28.4544 4.7587 28.5365C4.7587 28.6069 4.68768 28.6538 4.61666 28.7007C4.39174 28.8179 4.35622 28.8883 4.20233 29.0642C3.83537 29.4981 1.91769 31.6792 1.46786 31.6792C1.18376 31.6792 0 30.6121 0 30.2486C0 30.1079 0.224929 29.9437 0.366979 29.8381C1.19561 29.2518 1.88219 28.4896 2.40304 27.6336C2.46223 27.528 2.53324 27.3873 2.68713 27.3873C2.92388 27.3873 4.03662 27.9853 4.47461 28.2316H4.45093ZM4.95994 24.5495C5.33874 24.5495 5.37426 24.2329 5.37426 23.9983V23.8693C5.36242 23.283 5.37426 22.9078 5.30324 22.3214C5.30324 22.2628 5.29139 22.1924 5.29139 22.1221C5.29139 21.9462 5.43344 21.911 5.64652 21.911C5.87143 21.911 7.39848 22.0869 7.64707 22.1338C7.7536 22.1455 7.90749 22.1807 7.90749 22.298C7.90749 22.4035 7.83647 22.4621 7.76545 22.5208C7.58788 22.7084 7.58787 22.8726 7.58787 23.1071V23.2244C7.58787 23.4472 7.57604 23.6583 7.57604 23.8811V24.01C7.57604 24.2329 7.59971 24.5612 7.97852 24.5612H11.1865C11.4469 24.5495 11.7665 24.5377 11.9678 24.5377C12.3229 24.5377 12.3821 24.7019 12.3821 25.2179V25.9801C12.3821 26.5078 12.3229 26.7072 11.9204 26.7072C11.2338 26.7072 10.5473 26.6954 9.87253 26.6954H8.02588C7.77729 26.6954 7.56421 26.8948 7.56421 27.1528V30.1313C7.56421 30.4245 7.57604 30.7294 7.57604 31.0342C7.57604 31.7965 7.50502 32.5235 6.98417 32.9222C6.49883 33.2857 5.30323 33.6024 4.68768 33.6024C4.42725 33.6024 4.34439 33.5203 4.13131 33.1098C4.0011 32.8519 3.63414 32.031 3.63414 31.773C3.63414 31.5502 3.93008 31.5385 4.21418 31.5268C5.35059 31.4799 5.37426 31.2219 5.37426 30.2486V27.1645C5.37426 26.9065 5.17302 26.7072 4.91259 26.7072H2.95939C2.29648 26.7072 1.62175 26.7306 1.04171 26.7306C0.639233 26.7306 0.568215 26.4843 0.568215 25.9918V25.1827C0.568215 24.6667 0.639236 24.526 0.970688 24.526C1.17193 24.526 2.30832 24.5729 2.95939 24.5729H4.95994V24.5495ZM11.5416 28.5951C11.7902 28.8414 12.7964 29.8147 12.7964 30.1313C12.7964 30.4948 11.66 31.5854 11.3404 31.5854C11.1746 31.5854 10.9971 31.3509 10.9024 31.2219C10.1921 30.3189 9.63577 29.7678 8.77163 29.029C8.66509 28.9352 8.54671 28.8414 8.54671 28.7124C8.54671 28.4661 8.9492 28.044 9.12676 27.8681C9.43454 27.528 9.6121 27.3404 9.84885 27.3404C10.2277 27.3404 11.2338 28.2902 11.5535 28.5951H11.5416ZM12.1217 23.2947C12.1217 23.5762 11.3996 24.1156 11.222 24.1156C11.151 24.1156 11.0563 23.9866 10.9734 23.8693C10.6183 23.4354 10.3224 23.0954 9.93172 22.6967C9.88437 22.6498 9.84885 22.5794 9.84885 22.5208C9.84885 22.298 10.6301 21.7937 10.7722 21.7937C10.9142 21.7937 12.1335 23.0954 12.1335 23.2947H12.1217ZM13.6369 22.1221C13.6369 22.4035 12.9148 22.9429 12.749 22.9429C12.678 22.9429 12.536 22.8022 12.3229 22.5208C12.1335 22.2862 11.8257 21.9227 11.5535 21.6765C11.4232 21.5592 11.3285 21.4302 11.3285 21.3833C11.3285 21.1605 12.098 20.6445 12.2519 20.6445C12.3821 20.6445 13.625 21.911 13.625 22.1338L13.6369 22.1221Z" fill="#231815"/>
<path d="M23.628 26.3086C24.4921 26.3086 25.4391 26.25 25.5693 26.25C25.9481 26.25 26.0073 26.4142 26.0073 26.8363V27.5399C26.0073 28.349 25.9955 28.5953 25.522 28.5953C24.9419 28.5953 24.2672 28.5484 23.628 28.5484H16.8569C16.2058 28.5484 15.5192 28.5953 14.9747 28.5953C14.4775 28.5953 14.4775 28.3139 14.4775 27.5399V26.8715C14.4775 26.4376 14.5249 26.2617 14.9037 26.2617C15.1049 26.2617 15.9336 26.3204 16.8569 26.3204H23.628V26.3086Z" fill="#231815"/>
<path d="M31.997 31.8436C31.997 32.3244 32.0088 32.8052 32.0088 33.2977C32.0088 34.0013 31.9615 34.06 31.0026 34.06H30.3397C29.7479 34.06 29.5703 33.9896 29.5703 33.6026C29.5703 33.0163 29.594 32.4534 29.594 31.8671V23.4474C29.594 22.8494 29.5703 22.0872 29.5703 21.6415C29.5703 21.4539 29.594 21.3601 29.8071 21.3601C29.9846 21.3601 31.7247 21.5477 32.0799 21.6533C32.1746 21.6767 32.2456 21.7354 32.2456 21.8292C32.2456 21.8995 32.1983 21.9582 32.1627 22.0051C32.0917 22.1106 31.997 22.2279 31.997 22.5328V25.3589C31.997 25.4292 32.0088 25.5582 32.1746 25.5582C32.2574 25.5582 32.3521 25.4996 32.4232 25.4996C32.5415 25.4996 32.7309 25.6051 32.9677 25.7341C33.4412 26.0273 34.0449 26.4963 34.2343 26.6371C34.6013 26.9302 35.2642 27.4814 35.5838 27.8214C35.643 27.8918 35.6903 27.9622 35.6903 28.056C35.6903 28.3491 34.6131 29.5335 34.2698 29.5335C34.1396 29.5335 33.9857 29.3928 33.9029 29.299C33.6543 29.0644 32.4468 27.9856 32.2101 27.9856C32.0088 27.9856 31.9852 28.1967 31.9852 28.3374V31.8436H31.997Z" fill="#231815"/>
<path d="M42.1898 29.287C42.1898 29.6388 42.2371 29.9906 42.5686 29.9906C42.7461 29.9906 43.338 29.6974 43.6695 29.5567C44.1548 29.3457 47.1497 27.657 48.7123 25.9567C48.8306 25.8394 48.9727 25.6752 49.1266 25.6752C49.4225 25.6752 50.1683 27.1528 50.1683 27.528C50.1683 27.6922 50.0026 27.8329 49.8842 27.9502C49.1384 28.6655 48.3098 29.3105 47.4693 29.8851C45.9186 30.9522 44.143 31.902 42.4028 32.6174L41.9649 32.8167C41.8583 32.8636 41.6689 32.9457 41.5624 32.9457C41.3848 32.9457 40.4023 32.4532 40.1892 32.3359C39.8459 32.1366 39.8459 31.9372 39.8459 31.5972V23.0016C39.8459 22.8843 39.8223 22.7202 39.8223 22.6263C39.8223 22.5443 39.8696 22.4387 39.988 22.4387C40.1064 22.4387 41.5387 22.6381 41.8465 22.685C42.3673 22.7553 42.5094 22.8022 42.5094 22.943C42.5094 23.0016 42.4857 23.0485 42.4384 23.072C42.2016 23.2713 42.1898 23.4355 42.1898 24.1273V29.287Z" fill="#231815"/>
<path d="M60.6911 26.3086C61.5552 26.3086 62.5022 26.25 62.6324 26.25C63.0112 26.25 63.0704 26.4142 63.0704 26.8363V27.5399C63.0704 28.349 63.0586 28.5953 62.5851 28.5953C62.005 28.5953 61.3303 28.5484 60.6792 28.5484H53.9081C53.2571 28.5484 52.5705 28.5953 52.026 28.5953C51.5288 28.5953 51.5288 28.3139 51.5288 27.5399V26.8715C51.5288 26.4376 51.5762 26.2617 51.955 26.2617C52.168 26.2617 52.9848 26.3204 53.92 26.3204H60.6911V26.3086Z" fill="#231815"/>
<path d="M71.8658 23.013C72.1617 23.013 72.5878 23.013 72.8838 22.9661C72.9903 22.9544 73.1442 22.9426 73.2507 22.9426C73.7124 22.9426 74.5174 24.0332 74.5174 24.2443C74.5174 24.3146 74.399 24.5257 74.2924 24.7016C74.0083 25.1941 73.1442 26.7186 72.2445 27.856C72.1735 27.9381 72.1261 28.0202 72.1261 28.1375C72.1261 28.2782 72.1972 28.372 72.3274 28.4424C73.2271 29.0522 74.1859 29.8027 75.0027 30.518C75.1447 30.647 75.6656 31.1043 75.7721 31.2333C75.8313 31.2802 75.855 31.3388 75.855 31.4092C75.855 31.8196 74.6239 33.0978 74.2096 33.0978C73.9847 33.0978 73.7953 32.8633 73.6295 32.6757C73.6177 32.6287 73.5822 32.6053 73.5585 32.5701C72.8009 31.6789 71.8894 30.9167 70.9661 30.2248C70.824 30.1193 70.611 29.9786 70.4807 29.9786C70.3387 29.9786 70.2203 30.0489 70.1138 30.1544C69.4035 30.7994 68.6104 31.3975 67.8054 31.9017C67.4858 32.1011 66.0535 32.9336 65.7576 32.9336C65.4971 32.9336 64.9526 32.1245 64.7869 31.9017C64.6685 31.7258 64.4199 31.3036 64.4199 31.116C64.4199 30.8932 64.633 30.8111 64.7987 30.7525C67.0834 29.9551 69.5219 27.985 70.8477 25.9681C70.9187 25.8625 71.049 25.6632 71.049 25.5342C71.049 25.2879 70.8004 25.2528 70.5518 25.2528H68.3145C67.6516 25.2528 66.9768 25.2762 66.2902 25.2762C65.9233 25.2762 65.8996 25.1003 65.8996 24.5726V23.5993C65.8996 23.0833 65.9233 22.9895 66.2784 22.9895C66.9532 22.9895 67.6279 23.0364 68.3145 23.0364H71.8539L71.8658 23.013Z" fill="#231815"/>
<path d="M80.3541 31.8434C80.3541 32.5235 80.4015 33.2154 80.4015 33.8956C80.4015 34.2356 80.2594 34.2591 79.7978 34.2591H78.9336C78.5193 34.2591 78.3536 34.2356 78.3536 33.9073C78.3536 33.2271 78.4009 32.5353 78.4009 31.8317V29.932C78.4009 29.932 78.3891 29.7444 78.3181 29.7444C78.2707 29.7444 78.2352 29.7913 78.1879 29.803C78.1405 29.8264 78.105 29.8616 78.0458 29.8616C77.7499 29.8616 76.8857 28.8062 76.8857 28.4427C76.8857 28.302 77.0159 28.1847 77.1225 28.0792C78.1879 27.0824 79.1704 25.6518 79.8333 24.3853C79.9043 24.2563 79.9635 24.0922 80.1174 24.0922C80.2713 24.0922 80.6027 24.2798 80.8513 24.4088C80.9342 24.4674 81.017 24.4909 81.0525 24.526C81.2775 24.6433 81.7865 24.8778 81.7865 25.0655C81.7865 25.1475 81.6681 25.2062 81.5971 25.2296C81.4313 25.2648 81.4195 25.2765 81.2893 25.5228C81.2301 25.6401 81.1591 25.7691 81.0407 25.9567C80.8632 26.2733 80.6856 26.5782 80.4844 26.8948C80.4607 26.9417 80.437 27.0003 80.437 27.059C80.437 27.1645 80.508 27.2231 80.5791 27.2583C80.6264 27.2818 80.6501 27.3287 80.6501 27.399C80.6501 27.4811 80.5909 27.5163 80.5199 27.5867C80.4133 27.6688 80.4015 27.8095 80.3896 27.9385C80.3778 28.1261 80.3778 28.9352 80.3778 29.1815V31.82L80.3541 31.8434ZM80.2239 21.4771C80.2239 21.4771 80.2949 21.524 80.3541 21.5475C80.6146 21.6765 81.0881 21.9227 81.0881 22.0986C81.0881 22.2042 80.9578 22.2276 80.8631 22.2394C80.6737 22.2628 80.6856 22.2628 80.5791 22.427C79.9872 23.3299 79.3716 24.2212 78.6377 25.0068C78.5311 25.1241 78.4128 25.2648 78.2589 25.2648C77.7972 25.2648 76.9094 24.4088 76.9094 24.0804C76.9094 23.9749 76.9804 23.9045 77.0514 23.8459C77.7972 23.1071 78.5548 22.1573 79.0757 21.2309C79.1349 21.1488 79.2059 20.9964 79.3243 20.9964C79.4545 20.9964 80.0819 21.3599 80.2239 21.4537V21.4771ZM87.2436 28.9704C87.1252 28.9704 86.924 28.9821 86.924 29.1463C86.924 29.287 87.1607 29.6154 87.2436 29.7444C87.2554 29.7913 87.3028 29.8264 87.3501 29.9085C87.504 30.1431 87.7289 30.5183 87.7289 30.6473C87.7289 30.8818 86.6517 31.4212 86.3558 31.4212C86.1782 31.4212 86.119 31.2923 85.977 31.0225C85.9415 30.9639 85.9178 30.9053 85.8704 30.8349C85.5863 30.3072 85.5508 30.2251 85.4088 30.2251C85.2194 30.2251 85.2194 30.4714 85.2194 31.1398V31.9255C85.2194 32.2069 85.2786 32.2656 85.5271 32.2656H86.119C86.4386 32.2656 86.4623 31.9607 86.486 31.8082C86.4978 31.7613 86.4978 31.7261 86.5097 31.6792C86.5215 31.562 86.5333 31.4447 86.8174 31.4447C87.1844 31.4447 87.5751 31.5151 87.9183 31.6206C88.4984 31.7613 88.4747 31.902 88.4747 32.0428C88.4747 32.3359 88.3682 32.9457 88.2261 33.2506C87.8591 34.0128 87.4922 34.1301 86.6517 34.1301H84.8406C83.7515 34.1301 83.207 33.9542 83.207 32.7933C83.207 32.4884 83.2307 32.1717 83.2307 31.8551V30.7646C83.2307 30.6473 83.1833 30.5418 83.0531 30.5418C82.9229 30.5418 82.8874 30.7059 82.8282 30.9756L82.7808 31.175C82.698 31.5854 82.3547 32.7815 82.2008 33.1568C82.1416 33.3092 82.0232 33.4734 81.8457 33.4734C81.5971 33.4734 80.4133 33.1568 80.4133 32.8519C80.4133 32.7815 80.5554 32.3828 80.5909 32.2773C80.8513 31.562 81.0881 30.8349 81.2064 30.0844C81.2301 29.9437 81.2538 29.7209 81.4432 29.7209C81.5853 29.7209 82.6033 29.9672 82.8045 30.0258C82.8755 30.0375 82.9347 30.0492 82.9939 30.0492C83.1123 30.0492 83.1715 29.9789 83.1833 29.8733C83.1952 29.7678 83.207 29.6505 83.4793 29.6505C83.8226 29.6505 84.8169 29.7326 84.9708 29.7326C85.0418 29.7326 85.0892 29.7209 85.0892 29.6271C85.0892 29.6036 85.0773 29.5215 85.0773 29.5098C85.0773 29.3808 85.243 29.2636 85.3377 29.2049C85.4206 29.1463 85.5035 29.0877 85.5035 29.0173C85.5035 28.9587 85.397 28.9352 85.2194 28.9352H84.0711C83.7042 28.9352 83.3254 28.9587 82.9466 28.9587C82.5204 28.9587 82.0232 28.9352 82.0232 28.3841C82.0232 28.0792 82.0469 27.786 82.0469 27.4811V25.7691C82.0469 25.4759 82.0232 25.1827 82.0232 24.8778C82.0232 24.3267 82.5086 24.2915 82.9466 24.2915C83.3254 24.2915 83.6923 24.3384 84.083 24.3384H84.4263C84.592 24.3384 84.7103 24.2094 84.7103 24.057V23.8928C84.7103 23.7404 84.592 23.6114 84.4263 23.6114H83.4674C82.9347 23.6114 82.4257 23.6348 81.893 23.6348C81.5142 23.6348 81.4787 23.4941 81.4787 23.0602V22.5677C81.4787 22.0869 81.4905 21.9227 81.893 21.9227C82.4257 21.9227 82.9347 21.9579 83.4674 21.9579H84.2605C84.5209 21.9579 84.6748 21.7938 84.6748 21.5358C84.6748 21.4302 84.6512 21.313 84.6512 21.1957C84.6512 21.0198 84.7814 20.9729 84.9471 20.9729C85.2075 20.9729 86.5215 21.055 86.8529 21.0902C87.1015 21.1136 87.1134 21.1723 87.1134 21.2895C87.1134 21.3951 87.0423 21.4302 86.9358 21.5006C86.8766 21.524 86.8293 21.5475 86.8293 21.6999C86.8293 21.8407 86.9003 21.9462 87.0068 21.9462H88.2261C88.7588 21.9462 89.2678 21.911 89.8005 21.911C90.1675 21.911 90.203 22.0635 90.203 22.4622V23.0485C90.203 23.4707 90.1675 23.6231 89.8005 23.6231C89.2678 23.6231 88.7588 23.5996 88.2261 23.5996H87.0779C86.9358 23.5996 86.7938 23.7286 86.7938 23.8811V24.0453C86.7938 24.186 86.924 24.3267 87.0779 24.3267H87.433C87.8118 24.3267 88.1788 24.2798 88.5694 24.2798C89.0074 24.2798 89.4809 24.315 89.4809 24.8661C89.4809 25.0889 89.4691 25.3938 89.4691 25.7573V27.4694C89.4691 27.8329 89.4809 28.1378 89.4809 28.3724C89.4809 28.9118 88.9956 28.9469 88.5694 28.9469C88.2024 28.9469 87.8236 28.9235 87.433 28.9235H87.2081L87.2436 28.9704ZM84.2487 26.2264C84.2487 26.1209 84.1777 26.0388 84.0593 26.0388H83.9883C83.8817 26.0388 83.8107 26.1209 83.8107 26.2264V27.1176C83.8107 27.2231 83.8817 27.3052 83.9883 27.3052H84.0593C84.1777 27.3052 84.2487 27.2231 84.2487 27.1176V26.2264ZM86.0243 26.2264C86.0243 26.1209 85.9533 26.0388 85.8468 26.0388H85.7758C85.6692 26.0388 85.5863 26.1209 85.5863 26.2264V27.1176C85.5863 27.2231 85.6692 27.3052 85.7758 27.3052H85.8468C85.9533 27.3052 86.0243 27.2231 86.0243 27.1176V26.2264ZM87.8 26.2264C87.8 26.1209 87.7289 26.0388 87.6224 26.0388H87.5632C87.4567 26.0388 87.3738 26.1209 87.3738 26.2264V27.1176C87.3738 27.2231 87.4567 27.3052 87.5632 27.3052H87.6224C87.7289 27.3052 87.8 27.2231 87.8 27.1176V26.2264ZM89.4927 29.7326C89.694 30.0141 89.8952 30.3541 90.0372 30.6708C90.1675 30.917 90.6528 32.0428 90.6528 32.2421C90.6528 32.5235 89.5519 32.9809 89.256 32.9809C89.0192 32.9809 88.9719 32.7581 88.9127 32.5822C88.6878 31.8786 88.3918 31.2805 88.0485 30.6473C87.9775 30.5183 87.8591 30.3072 87.8591 30.1665C87.8591 29.8851 88.9245 29.4629 89.0903 29.4629C89.3152 29.4629 89.3862 29.5685 89.4927 29.7209V29.7326Z" fill="#231815"/>
<path d="M94.2268 30.5653C94.2268 30.8115 94.4044 30.9757 94.6411 30.9757H96.4404C96.6653 30.9757 96.8547 30.7998 96.8547 30.5653V23.0954C96.8547 22.7202 96.8548 22.3098 96.8311 21.9111C96.8192 21.7469 96.8074 21.6179 96.8074 21.5006C96.8074 21.313 96.9376 21.2778 97.1033 21.2778C97.2809 21.2778 97.8254 21.3365 98.0266 21.3482C99.0092 21.4303 99.3051 21.4303 99.3051 21.6648C99.3051 21.7469 99.2459 21.7938 99.1512 21.8876C99.021 22.0166 99.021 22.1456 99.021 22.3098C99.0092 22.7436 99.0092 23.1893 99.0092 23.6349V30.5535C99.0092 30.7881 99.1986 30.964 99.4235 30.964H101.211C101.436 30.964 101.625 30.7881 101.625 30.5535V25.558C101.625 25.0772 101.625 24.5026 101.578 24.1977C101.566 24.1391 101.566 24.0922 101.566 24.057C101.566 23.8811 101.696 23.8342 101.85 23.8342C102.028 23.8342 103.01 23.9398 103.271 23.9632C103.768 24.0101 104.005 24.0336 104.005 24.2212C104.005 24.3267 103.945 24.3502 103.851 24.4557C103.721 24.5964 103.721 24.8192 103.721 24.9951V31.3275C103.721 32.0545 103.768 32.7816 103.768 33.5203C103.768 33.8839 103.626 33.9308 103.14 33.9308H102.193C101.732 33.9308 101.59 33.9073 101.59 33.5203V33.4031C101.59 33.2389 101.471 33.0044 101.104 33.0044H94.7832C94.4991 33.0044 94.2978 33.1216 94.2978 33.4265C94.2978 33.8839 94.1795 33.8839 93.2088 33.8839H92.7471C92.2263 33.8839 92.0724 33.8604 92.0724 33.4734C92.0724 32.7464 92.1197 31.9959 92.1197 31.2688V25.4877C92.1197 25.0069 92.1197 24.4674 92.0724 24.1274C92.0605 24.0805 92.0605 24.0453 92.0605 23.9984C92.0605 23.8108 92.1908 23.7756 92.3565 23.7756C92.534 23.7756 93.5521 23.8811 93.8007 23.9046C94.286 23.9515 94.5464 23.9515 94.5464 24.1508C94.5464 24.2564 94.4754 24.315 94.3807 24.3854C94.2505 24.5261 94.2505 24.7372 94.2505 24.9248V30.5301L94.2268 30.5653Z" fill="#231815"/>
</svg>
