<svg width="195" height="43" viewBox="0 0 195 43" fill="none" xmlns="http://www.w3.org/2000/svg">
<path d="M8.60558 18.1826C7.86554 18.5605 7.16779 18.676 6.36432 18.676C2.81214 18.676 0 15.3691 0 10.8445C0 5.02856 3.48875 2.40405 7.7704 2.40405C12.052 2.40405 15.5725 4.98657 15.5725 10.8025C15.5725 12.8601 14.7373 15.2852 13.4264 18.2876L8.76416 28.9641H3.74248L8.60558 18.1721V18.1826ZM7.7704 6.89722C5.76172 6.89722 4.68338 8.41943 4.68338 10.624C4.68338 12.8286 5.75115 14.3088 7.7704 14.3088C9.78964 14.3088 10.8891 12.7866 10.8891 10.624C10.8891 8.46143 9.82136 6.89722 7.7704 6.89722Z" fill="#231815"/>
<path d="M59.5096 42.4436H36.6953V36.9741L49.0645 20.4607C51.3692 17.4268 52.4898 14.8757 52.4898 12.1462C52.4898 8.74487 50.2908 7.04419 47.8804 7.04419C45.47 7.04419 43.493 8.80786 43.271 12.1462H36.6318C36.6318 4.92358 41.8755 0 48.2504 0C54.6253 0 59.9219 5.21753 59.9219 12.1462C59.9219 17.6682 56.708 21.9829 54.3505 25.1428L46.7492 35.2839H59.499V42.4541L59.5096 42.4436Z" fill="#00A0E9"/>
<path d="M66.4126 14.2668V0.545898H89.0155V6.49829L78.3589 42.4541H70.5885L81.2979 7.77905H72.7875V14.2773H66.4126V14.2668Z" fill="#00A0E9"/>
<path d="M145.428 42.4436H122.614V36.9741L134.983 20.4607C137.288 17.4268 138.408 14.8757 138.408 12.1462C138.408 8.74487 136.209 7.04419 133.799 7.04419C131.388 7.04419 129.411 8.80786 129.189 12.1462H122.55C122.55 4.92358 127.794 0 134.169 0C140.544 0 145.84 5.21753 145.84 12.1462C145.84 17.6682 142.626 21.9829 140.269 25.1428L132.668 35.2839H145.417V42.4541L145.428 42.4436Z" fill="#D72A17"/>
<path d="M156.18 20.7126C153.23 19.012 151.2 15.4321 151.2 11.4849C151.2 4.07324 156.983 0.010498 163.253 0.010498C169.522 0.010498 175.305 4.08374 175.305 11.4849C175.305 15.4321 173.275 19.012 170.325 20.7126C173.328 22.2349 175.844 26.0562 175.844 30.7908C175.844 38.6223 170.114 43 163.263 43C156.412 43 150.672 38.6223 150.672 30.7908C150.672 26.0562 153.294 22.2244 156.19 20.7126H156.18ZM163.253 35.8928C166.086 35.8928 168.39 33.2158 168.39 30.0034C168.39 26.3606 165.716 24.177 163.253 24.177C160.789 24.177 158.167 26.3606 158.167 30.0034C158.167 33.2263 160.314 35.8928 163.253 35.8928ZM163.253 17.6157C165.769 17.6157 167.862 15.2432 167.862 12.3352C167.862 9.42725 165.769 7.17017 163.253 7.17017C160.736 7.17017 158.643 9.47974 158.643 12.3352C158.643 15.1907 160.684 17.6157 163.253 17.6157Z" fill="#D72A17"/>
<path d="M19.7803 29.1108L29.3796 2.78174H32.6675L23.0682 29.1108H19.7803Z" fill="#231815"/>
<path d="M105.994 10.9915C106.702 10.3931 107.083 9.79468 107.083 8.33545C107.083 7.44312 106.808 6.63477 106.015 6.63477C105.222 6.63477 104.894 7.36963 104.683 8.79736C104.165 12.1252 102.886 13.8049 100.19 13.8049C97.4939 13.8049 95.9609 11.9888 95.9609 8.50342C95.9609 5.74243 96.6375 4.06274 98.2233 2.89746L100.137 5.55347C99.3968 6.09937 98.9634 6.77124 98.9634 8.45093C98.9634 9.63721 99.3757 10.3721 100.084 10.3721C100.93 10.3721 101.205 9.77368 101.469 8.073C101.934 5.25952 103.129 3.2019 105.888 3.2019C108.478 3.2019 110.085 5.03906 110.085 8.42993C110.085 10.645 109.567 12.4927 107.823 13.5425L105.994 11.002V10.9915Z" fill="#00A0E9"/>
<path d="M104.387 22.6338V25.3108H105.18C106.702 25.3108 107.199 24.8489 107.199 22.8962C107.199 21.5735 107.009 20.9226 106.11 20.3557L107.823 17.9202C109.483 18.9175 110.085 20.4397 110.085 23.2217C110.085 26.7175 109.049 28.6912 105.148 28.6912H96.2044V25.3108H97.399C96.4687 24.7649 95.9507 23.9565 95.9507 22.3818C95.9507 19.5684 97.4519 17.6157 100.232 17.6157C103.013 17.6157 104.377 19.7783 104.377 22.6233L104.387 22.6338ZM101.829 25.3108V23.0327C101.829 21.626 101.364 21.0066 100.306 21.0066C99.2491 21.0066 98.784 21.7939 98.784 22.9802C98.784 24.5549 99.4606 25.3108 101.321 25.3108H101.839H101.829Z" fill="#00A0E9"/>
<path d="M109.842 32.6177V34.3499H112.845V37.7827H109.842V40.4387H106.903V37.7827H101.205C99.841 37.7827 99.2701 38.0557 99.2701 39.3259V40.4387H96.2148V38.9795C96.2148 35.7041 97.1452 34.3499 100.655 34.3499H106.903V32.6177H109.842Z" fill="#00A0E9"/>
<path d="M190.908 10.9912C191.617 10.3928 191.997 9.79443 191.997 8.33521C191.997 7.44287 191.722 6.63452 190.929 6.63452C190.137 6.63452 189.809 7.36938 189.597 8.79712C189.079 12.125 187.8 13.8047 185.104 13.8047C182.408 13.8047 180.875 11.9885 180.875 8.50317C180.875 5.74219 181.563 4.0625 183.138 2.89722L185.051 5.55322C184.311 6.09912 183.878 6.771 183.878 8.45068C183.878 9.63696 184.29 10.3718 184.999 10.3718C185.844 10.3718 186.119 9.77344 186.383 8.07275C186.849 5.25928 188.043 3.20166 190.803 3.20166C193.393 3.20166 195 5.03882 195 8.42969C195 10.6448 194.482 12.4924 192.737 13.5422L190.908 11.0017V10.9912Z" fill="#D72A17"/>
<path d="M181.119 27.5889V24.2085H182.261C181.331 23.6416 180.876 22.9067 180.876 21.1221C180.876 18.3926 182.24 16.146 186.247 16.146H194.757V19.6104H186.775C184.618 19.6104 183.889 20.3662 183.889 21.8044C183.889 23.4001 184.872 24.156 186.754 24.156H194.768V27.5889H181.14H181.119Z" fill="#D72A17"/>
<path d="M194.746 30.3706V33.751H193.605C194.292 34.2654 195 35.3467 195 36.8584C195 39.5879 193.689 41.8135 189.661 41.8135H181.13V38.3806H189.112C191.237 38.3806 191.998 37.6248 191.998 36.218C191.998 34.6223 190.93 33.835 189.133 33.835H181.119V30.3706H194.746Z" fill="#D72A17"/>
</svg>
