<?xml version="1.0" encoding="utf-8"?>
<!-- Generator: Adobe Illustrator 26.0.1, SVG Export Plug-In . SVG Version: 6.00 Build 0)  -->
<svg version="1.1" xmlns="http://www.w3.org/2000/svg" xmlns:xlink="http://www.w3.org/1999/xlink" x="0px" y="0px"
	 viewBox="0 0 200 20" style="enable-background:new 0 0 200 20;" xml:space="preserve">
<style type="text/css">
	.st0{opacity:0.88;fill:#FFFFFF;}
	.st1{opacity:0.1;fill:url(#);}
	.st2{opacity:0.75;fill:#FFFFFF;}
	.st3{fill:none;stroke:#808080;stroke-miterlimit:10;}
	.st4{clip-path:url(#SVGID_00000119089599587354231360000001664728537494849720_);}
	.st5{clip-path:url(#SVGID_00000091706057719313872500000006511617387406951349_);}
	.st6{clip-path:url(#SVGID_00000112609660884583176400000007523436843737655186_);}
	.st7{clip-path:url(#SVGID_00000030450468427247526880000013009573245653889949_);}
	.st8{opacity:0.8;fill:#FFFFFF;stroke:#808080;stroke-width:0.5;stroke-miterlimit:10;}
	.st9{fill:#1D2975;}
	.st10{fill:#FF0000;}
	.st11{fill:#FFFFFF;}
	.st12{opacity:0.65;fill:#F4F4F4;stroke:#808080;stroke-width:0.5;stroke-miterlimit:10;}
	.st13{fill:#666666;}
	.st14{fill:#4D4D4D;}
	.st15{fill:#CCCCCC;}
	.st16{clip-path:url(#SVGID_00000149351213063055383540000002710268474831667389_);}
	.st17{clip-path:url(#SVGID_00000087404692389099639200000016786531305498198433_);}
	.st18{fill:none;stroke:#333333;stroke-width:0.285;stroke-miterlimit:10;}
	.st19{clip-path:url(#SVGID_00000110442443529740160300000011887071567003678655_);}
	.st20{fill:#D62817;}
	.st21{clip-path:url(#SVGID_00000073687462011548415770000005983987799654124204_);}
	.st22{clip-path:url(#SVGID_00000066500865235335077090000017411206099204876438_);}
	.st23{clip-path:url(#SVGID_00000132064294031914038550000010382509771748102543_);}
	.st24{clip-path:url(#SVGID_00000150780610678266748430000001741970440182543536_);}
	.st25{fill:#EDECEA;stroke:#000000;stroke-width:0.579;stroke-linecap:round;stroke-linejoin:round;}
	.st26{fill:#F3DB24;stroke:#000000;stroke-width:0.6188;stroke-linecap:round;stroke-linejoin:round;}
	.st27{fill:#EDECEA;stroke:#000000;stroke-width:0.5777;stroke-linecap:round;stroke-linejoin:round;}
	.st28{fill:none;stroke:#000000;stroke-width:0.5777;stroke-linecap:round;stroke-linejoin:round;}
	.st29{fill:none;stroke:#000000;stroke-width:0.579;stroke-linecap:round;stroke-linejoin:round;}
	.st30{fill:#E2BCA9;}
	.st31{fill:#E2BCA9;stroke:#221714;stroke-width:0.5041;}
	.st32{fill:#FFFFFF;stroke:#000000;stroke-width:0.6188;stroke-linecap:round;stroke-linejoin:round;}
	.st33{fill:#FFFFFF;stroke:#000000;stroke-width:0.579;stroke-linecap:round;stroke-linejoin:round;}
	.st34{stroke:#000000;stroke-width:0.2794;stroke-linecap:round;stroke-linejoin:round;}
	.st35{fill:#555454;stroke:#000000;stroke-width:0.6188;stroke-linecap:round;stroke-linejoin:round;}
	.st36{fill:#EDECEA;stroke:#000000;stroke-width:0.5961;stroke-linecap:round;stroke-linejoin:round;}
	.st37{fill:#B81D46;stroke:#000000;stroke-width:0.637;stroke-linecap:round;stroke-linejoin:round;}
	.st38{fill:#EDECEA;stroke:#000000;stroke-width:0.5948;stroke-linecap:round;stroke-linejoin:round;}
	.st39{fill:none;stroke:#000000;stroke-width:0.5948;stroke-linecap:round;stroke-linejoin:round;}
	.st40{fill:none;stroke:#000000;stroke-width:0.5961;stroke-linecap:round;stroke-linejoin:round;}
	.st41{fill:#FFFFFF;stroke:#000000;stroke-width:0.5961;stroke-linecap:round;stroke-linejoin:round;}
	.st42{stroke:#000000;stroke-width:0.2877;stroke-linecap:round;stroke-linejoin:round;}
	.st43{fill:#FED597;stroke:#040000;stroke-width:0.2696;}
	.st44{fill:#FFECD0;stroke:#040000;stroke-width:0.2696;}
	.st45{fill:#231815;}
	.st46{fill:#040000;}
	.st47{fill:#DE2A2B;}
	.st48{fill:#037FB9;}
	.st49{fill:#E9940D;}
	.st50{fill:#924E41;}
	.st51{fill:#006862;}
	.st52{fill:#4C5256;}
	.st53{fill:none;stroke:#D2ECFA;stroke-width:10.4444;stroke-miterlimit:10;}
	.st54{clip-path:url(#SVGID_00000014598754620472685200000006325945123880854191_);}
	.st55{clip-path:url(#SVGID_00000039135911662469352460000011781156003822190465_);}
	.st56{fill:none;stroke:#00A971;stroke-width:6.0026;stroke-miterlimit:10;}
	.st57{fill:none;stroke:#888888;stroke-width:4.0017;stroke-miterlimit:10;}
	.st58{fill:none;stroke:#0098D8;stroke-width:6.0026;stroke-miterlimit:10;}
	.st59{fill:none;stroke:#95C4CA;stroke-width:1.8116;stroke-miterlimit:10;}
	.st60{fill:none;stroke:#95C4CA;stroke-width:1.8116;stroke-miterlimit:10;stroke-dasharray:5.4133,1.8044;}
	.st61{fill:none;stroke:#95C4CA;stroke-width:1.8116;stroke-miterlimit:10;stroke-dasharray:5.4363,1.8121;}
	.st62{fill:none;stroke:#595757;stroke-width:1.8116;stroke-miterlimit:10;}
	.st63{fill:none;stroke:#595757;stroke-width:1.8116;stroke-miterlimit:10;stroke-dasharray:5.4514,1.8171;}
	.st64{fill:none;stroke:#595757;stroke-width:1.8116;stroke-miterlimit:10;stroke-dasharray:5.3001,1.7667;}
	.st65{fill:none;stroke:#595757;stroke-width:1.8116;stroke-miterlimit:10;stroke-dasharray:5.4632,1.8211;}
	.st66{fill:none;stroke:#595757;stroke-width:1.8116;stroke-miterlimit:10;stroke-dasharray:5.4349,1.8116;}
	.st67{fill:#595757;}
	.st68{fill:#00A971;}
	.st69{fill:#717071;}
	.st70{fill:#FFFFFF;stroke:#FFFFFF;stroke-width:0.6326;stroke-miterlimit:10;}
	.st71{fill:none;stroke:#717071;stroke-width:1.0004;stroke-miterlimit:10;}
	.st72{fill:#0098D8;}
	.st73{fill:#95C4CA;}
	.st74{fill:#888888;}
	.st75{fill:#E5002D;}
	.st76{fill:none;stroke:#717071;stroke-width:0.5222;stroke-miterlimit:10;}
	.st77{clip-path:url(#SVGID_00000151507934624256240310000003535272960996398769_);}
	.st78{fill:#004097;}
	.st79{fill:#0068B6;}
	.st80{clip-path:url(#SVGID_00000163058096539285515540000006829351695147323039_);fill:#0068B6;}
	.st81{clip-path:url(#SVGID_00000163058096539285515540000006829351695147323039_);fill:#00AEEB;}
	.st82{fill:#EF8200;}
	.st83{fill:none;stroke:#0068B6;stroke-width:1.3814;stroke-linejoin:round;}
	.st84{clip-path:url(#SVGID_00000023972958329310240660000005753292837235004333_);}
	.st85{fill:#1B94D3;stroke:#000000;stroke-width:0.6188;stroke-linecap:round;stroke-linejoin:round;}
	.st86{fill:#28A13A;stroke:#000000;stroke-width:0.6188;stroke-linecap:round;stroke-linejoin:round;}
	.st87{fill:none;stroke:#221714;stroke-width:0.5041;stroke-linecap:round;stroke-linejoin:round;}
	.st88{fill:none;stroke:#FF0000;stroke-width:4;stroke-miterlimit:10;}
	.st89{clip-path:url(#SVGID_00000093890057782761100500000008469741116788221062_);}
	.st90{clip-path:url(#SVGID_00000093159302266266999650000003915376347804081815_);}
	.st91{clip-path:url(#SVGID_00000072276978981729885130000013675927599885201285_);}
	.st92{clip-path:url(#SVGID_00000078026996172015881930000003536583191104320152_);fill:#0068B6;}
	.st93{clip-path:url(#SVGID_00000078026996172015881930000003536583191104320152_);fill:#00AEEB;}
	.st94{clip-path:url(#SVGID_00000088855793777208901590000001602811120460529590_);}
	.st95{clip-path:url(#SVGID_00000160175716778861926490000009834723647579251354_);}
	.st96{clip-path:url(#SVGID_00000118357614315637568710000001793321183503541662_);}
	.st97{clip-path:url(#SVGID_00000008853034229188637620000003290805351315701135_);}
	.st98{clip-path:url(#SVGID_00000111884786343165786470000017335394251148244367_);fill:#0068B6;}
	.st99{clip-path:url(#SVGID_00000111884786343165786470000017335394251148244367_);fill:#00AEEB;}
	.st100{clip-path:url(#SVGID_00000121982030541768500480000016797266282645758604_);}
	.st101{clip-path:url(#SVGID_00000149357497942387829900000007674175609396597682_);}
	.st102{clip-path:url(#SVGID_00000028292419929188834810000003516551028877108137_);}
	.st103{fill:#9E9E9F;}
	.st104{fill:#9F9FA0;}
	.st105{fill:#A0A0A1;}
	.st106{fill:#A1A1A2;}
	.st107{fill:#A2A2A3;}
	.st108{fill:#A3A3A4;}
	.st109{fill:#A4A4A5;}
	.st110{fill:#A5A5A6;}
	.st111{fill:#A6A6A7;}
	.st112{fill:#A7A7A8;}
	.st113{fill:#A8A8A9;}
	.st114{fill:#A9A9AA;}
	.st115{fill:#AAAAAB;}
	.st116{fill:#ABABAC;}
	.st117{fill:#ACACAD;}
	.st118{fill:#ADADAE;}
	.st119{fill:#AEAEAF;}
	.st120{fill:#AFAFB0;}
	.st121{fill:#B0B0B1;}
	.st122{fill:#B1B1B2;}
	.st123{fill:#B2B2B3;}
	.st124{fill:#B3B3B4;}
	.st125{fill:#B4B4B5;}
	.st126{fill:#B5B5B6;}
	.st127{fill:#B6B6B7;}
	.st128{fill:#B7B7B7;}
	.st129{fill:#B8B8B8;}
	.st130{fill:#B9B9B9;}
	.st131{fill:#BABABA;}
	.st132{fill:#BBBBBB;}
	.st133{fill:#BCBCBC;}
	.st134{fill:#BDBDBD;}
	.st135{fill:#BEBEBE;}
	.st136{fill:#BFBFBF;}
	.st137{fill:#C0C0C0;}
	.st138{fill:#C1C1C1;}
	.st139{fill:#C2C2C2;}
	.st140{fill:#C3C3C3;}
	.st141{fill:#C4C4C4;}
	.st142{fill:#C5C5C5;}
	.st143{fill:#C6C6C6;}
	.st144{fill:#C7C7C7;}
	.st145{fill:#C8C8C8;}
	.st146{fill:#C9C9C9;}
	.st147{fill:#CACACA;}
	.st148{fill:#CBCBCB;}
	.st149{fill:#CDCDCD;}
	.st150{fill:#CECECE;}
	.st151{fill:#CFCFCF;}
	.st152{fill:#CFCFD0;}
	.st153{fill:#D0D0D1;}
	.st154{fill:#D1D1D2;}
	.st155{fill:#D2D2D3;}
	.st156{fill:#D3D3D4;}
	.st157{fill:#D4D4D5;}
	.st158{fill:#D5D5D6;}
	.st159{fill:#D6D6D7;}
	.st160{fill:#D7D7D8;}
	.st161{fill:#D8D8D9;}
	.st162{fill:#D9D9DA;}
	.st163{fill:#DADADB;}
	.st164{fill:#DBDBDC;}
	.st165{fill:#DCDCDD;}
	.st166{fill:#DDDDDE;}
	.st167{fill:#DEDEDF;}
	.st168{fill:#DFDFE0;}
	.st169{fill:#E0E0E1;}
	.st170{fill:#E1E1E2;}
	.st171{fill:#E2E2E3;}
	.st172{fill:#E3E3E4;}
	.st173{fill:#E4E4E5;}
	.st174{fill:#E5E5E6;}
	.st175{fill:#E6E6E7;}
	.st176{fill:#E7E7E7;}
	.st177{fill:#E8E8E8;}
	.st178{fill:#E9E9E9;}
	.st179{fill:#EAEAEA;}
	.st180{fill:#EBEBEB;}
	.st181{fill:#ECECEC;}
	.st182{fill:#EDEDED;}
	.st183{fill:#EEEEEE;}
	.st184{fill:#EFEFEF;}
	.st185{fill:#F0F0F0;}
	.st186{fill:#F1F1F1;}
	.st187{fill:#F2F2F2;}
	.st188{fill:#F3F3F3;}
	.st189{fill:#F4F4F4;}
	.st190{fill:#F5F5F5;}
	.st191{fill:#F6F6F6;}
	.st192{fill:#F7F7F7;}
	.st193{fill:#F8F8F8;}
	.st194{fill:#F9F9F9;}
	.st195{fill:#FAFAFA;}
	.st196{fill:#FBFBFB;}
	.st197{fill:#FCFCFC;}
	.st198{fill:#FDFDFD;}
	.st199{fill:#FEFEFE;}
	.st200{fill:#E50012;}
	.st201{fill:#009FE8;}
	.st202{fill:#C8231D;}
	.st203{fill-rule:evenodd;clip-rule:evenodd;fill:#231815;}
	.st204{fill:#E60020;}
	.st205{fill:#00A040;}
	.st206{fill:none;stroke:#000000;stroke-miterlimit:10;}
</style>
<g id="レイヤー_5">
</g>
<g id="レイヤー_3">
</g>
<g id="レイヤー_4">
</g>
<g id="レイヤー_1">
	<g>
		<g>
			<polygon class="st49" points="10.3,3.2 3.8,3.2 1,18.2 7.5,18.2 8.6,12.2 20.9,12.2 21.5,8.8 9.2,8.8 			"/>
			<polygon class="st49" points="35.9,3.2 25.5,3.2 25,6.2 35.4,6.2 35,9 24.5,9 24,12 34.5,12 34,15.2 22.9,15.2 22.4,18.2 
				33.5,18.2 38,18.2 40.6,18.2 43,3.2 41.1,3.2 			"/>
			<polygon class="st49" points="58.6,3.2 52,3.2 50.8,3.2 46.3,3.2 44.5,13 50.1,13 51.4,6.1 58,6.1 57.3,10.3 51.9,10.3 51.4,13 
				56.8,13 55.8,18.2 62.1,18.2 64.9,3.2 63.6,3.2 			"/>
			<polygon class="st49" points="81.2,4.1 76.8,4.1 77.8,1.5 72.3,1.5 71.3,4.1 67.5,4.1 67,7.1 70.1,7.1 65.6,18.1 71.1,18.1 
				75.5,7.1 80.7,7.1 79.2,15.6 74.2,15.6 73.7,18.2 84.1,18.2 84.1,18.2 84.6,18.2 87.1,4.1 			"/>
			<path class="st49" d="M104.2,3.7h-7.8h-5.9l-2.5,14.1h0.2v0h19.1l0,0h0.2l2.5-14.1H104.2z M103.7,6.7l-1.5,8.1h-7.8l1.5-8.1
				H103.7z"/>
			<polygon class="st49" points="111,13.1 124.1,13.1 124.6,9.9 111.6,9.9 			"/>
			<polygon class="st49" points="127.5,5 146.3,5 146.8,2.3 128,2.3 			"/>
			<polygon class="st49" points="145.9,6.6 127.1,6.6 126.6,9.3 139.6,9.3 138.2,16.4 130.1,16.4 129.6,19 143.6,19 			"/>
			<path class="st49" d="M172.7,4.8h-5.1c-0.1,0-0.2,0.1-0.2,0.2l-1.7,9.6c-0.1,0.6-0.4,0.4-0.4,0.4h-2.6l2.2-12
				c0-0.1,0-0.2-0.1-0.2h-5.1c-0.1,0-0.2,0.1-0.2,0.2l-2.2,12h-2.8c-0.6,0-0.4-0.4-0.4-0.4l1.7-9.7c0-0.1,0-0.2-0.1-0.2h-5.1
				c-0.1,0-0.2,0.1-0.2,0.2L147.9,18c0,0.1,0,0.2,0.1,0.2h0.4h21.4h0.4c0.1,0,0.2-0.1,0.2-0.2L172.8,5
				C172.8,4.9,172.8,4.8,172.7,4.8"/>
			<path class="st49" d="M199.1,3.2h-21.5c-0.1,0-0.2,0.1-0.2,0.2l-2.6,15c0,0.1,0,0.2,0.1,0.2l5.4,0c0.1,0,0.2-0.1,0.2-0.2l0.1-0.7
				h9.3l-0.1,0.7c0,0.1,0,0.2,0.1,0.2l6.4,0c0.1,0,0.2-0.1,0.2-0.2l2.6-15C199.3,3.2,199.2,3.2,199.1,3.2 M181.3,13.9l1.2-7h9.3
				l-1.2,7H181.3z"/>
		</g>
	</g>
</g>
<g id="レイヤー_2">
</g>
</svg>
