<svg width="600" height="600" viewBox="0 0 600 600" fill="none" xmlns="http://www.w3.org/2000/svg">
<g clip-path="url(#clip0_2052_49)">
<path d="M299.973 593.436C138.196 593.436 6.5625 461.803 6.5625 299.975C6.5625 138.147 138.196 6.56421 299.973 6.56421C461.751 6.56421 593.384 138.198 593.384 299.975C593.384 461.752 461.751 593.386 299.973 593.386V593.436Z" fill="#E6002D"/>
<path d="M299.975 13.128C458.167 13.128 586.822 141.833 586.822 299.975C586.822 458.117 458.117 586.822 299.975 586.822C141.833 586.822 13.128 458.167 13.128 299.975C13.128 141.782 141.833 13.128 299.975 13.128ZM299.975 0C134.31 0 0 134.31 0 299.975C0 465.64 134.31 599.95 299.975 599.95C465.64 599.95 599.95 465.64 599.95 299.975C599.95 134.31 465.69 0 299.975 0Z" fill="white"/>
<path d="M112.094 161.777C111.892 158.748 111.791 156.779 111.791 154.305H87.9584V135.168H131.432C131.331 138.097 131.129 143.701 131.129 148.498C131.129 157.486 131.331 174.905 141.127 193.487C148.398 207.372 156.88 216.965 169.2 225.701C163.545 230.043 157.688 236.556 154.406 241.959C141.581 232.618 123.858 211.714 116.588 186.923C110.73 205.605 96.6936 227.922 77.254 242.161C70.0841 232.719 66.9031 229.993 62.2578 226.61C73.2146 219.036 98.0064 200.656 102.702 160.01L112.144 161.777H112.094Z" fill="white"/>
<path d="M220.048 209.089C215.504 214.794 211.465 219.137 206.668 222.873C203.84 219.238 199.599 215.501 197.327 214.441C195.357 215.249 180.462 221.005 179.907 221.207C179.907 222.015 179.705 224.691 177.938 224.691C176.978 224.691 176.726 223.883 176.423 221.863L172.838 203.181C178.796 202.02 183.593 200.606 184.451 200.354V175.006H173.898V157.486H184.451V135.522L201.871 136.481C203.083 136.582 204.244 136.834 204.244 137.895C204.244 138.955 203.689 139.308 201.871 140.369V157.536H210.657V175.057H201.871V194.446C205.456 192.931 205.91 192.83 207.173 192.224V179.601H274.479V192.578H232.166C231.308 194.345 230.652 195.405 230.096 196.062H273.368C273.368 239.283 268.268 241.252 251.959 241.252C250.546 241.252 249.586 241.151 247.92 241C247.365 236.203 245.951 231.659 244.991 228.831C241.507 234.183 238.377 237.819 233.883 242.868C229.743 238.879 227.37 237.364 221.613 234.436C229.995 228.579 238.124 217.622 242.719 208.988H238.276C230.753 223.833 217.17 235.597 210.455 240.041C207.173 236.052 203.84 233.022 199.801 230.094C213.737 223.328 221.967 212.674 224.391 208.937H220.048V209.089ZM210.808 192.628C210.354 196.466 210.455 199.293 210.354 201.363C212.626 198.788 215.15 195.304 216.867 192.628H210.758H210.808ZM267.309 176.269H214.343V135.269H267.309V176.269ZM250.445 151.629V147.892H231.005V151.629H250.445ZM231.005 160.97V164.958H250.445V160.97H231.005ZM255.14 209.089C253.525 213.532 251.555 217.975 247.869 224.489C249.384 224.59 250.495 224.842 251.757 224.842C254.131 224.842 254.888 224.236 255.544 222.267C256.504 219.238 256.958 216.057 257.412 209.089H255.14Z" fill="white"/>
<path d="M313.054 187.578C313.054 196.01 306.641 202.877 298.815 202.877C290.989 202.877 284.576 196.01 284.576 187.578C284.576 179.146 290.989 172.279 298.815 172.279C306.641 172.279 313.054 179.045 313.054 187.578Z" fill="white"/>
<path d="M354.556 171.471V154.051H379.802V133.501L397.323 134.309C398.636 134.41 399.696 134.662 399.696 135.925C399.696 137.439 397.979 138.399 396.97 138.853V154.051H423.478V171.471H403.584C411.966 188.184 420.448 199.595 427.517 206.058C423.276 210.249 419.489 216.46 417.419 221.105C413.632 217.722 411.309 214.44 407.876 209.542V223.781H397.02V241.656H379.853V223.781H368.744V208.735C363.089 216.813 361.473 218.682 358.949 221.56C357.889 219.691 356.121 216.864 351.022 211.865V241.656H333.299V189.547C331.986 191.315 331.229 192.224 329.815 193.991C326.533 187.679 323.958 184.044 318.959 178.692C329.512 165.261 338.197 143.902 340.822 133.249L358.646 139.106C359.403 139.358 360.363 139.712 360.363 140.873C360.363 142.64 358.494 143.095 357.081 143.347C356.02 145.821 351.627 156.677 350.668 158.899C352.385 159.606 353.041 160.161 353.041 161.221C353.041 162.282 351.93 163.089 350.971 163.695V203.887C363.14 190.103 369.148 176.217 371.168 171.522H354.556V171.471ZM379.802 190.153C377.177 195.506 374.349 200.454 370.007 206.715H379.802V190.153ZM405.957 206.765C403.231 202.675 400.201 197.879 396.919 191.466V206.765H405.957Z" fill="white"/>
<path d="M474.424 155.213V155.567C475.938 154.405 487.047 145.771 492.803 132.441L509.213 134.764C510.172 134.865 511.283 135.117 511.283 136.531C511.283 137.339 510.627 138.046 509.869 138.5C514.666 144.913 527.138 153.193 534.56 156.122C530.016 161.727 527.39 167.432 525.774 171.775C523.906 170.815 523.25 170.512 521.533 169.452V173.996H511.737V178.086H530.672V209.391H514.363C522.947 220.601 531.228 224.236 534.711 225.65C530.773 230.093 527.087 235.698 524.815 241.303C516.787 236.506 509.617 230.093 503.962 222.368C501.235 226.357 493.409 235.799 482.199 242.009C479.927 237.465 475.888 233.123 472.606 230.093C468.163 240.141 464.022 240.394 452.51 240.949C451.399 235.799 451.197 235.344 447.713 227.064C445.088 227.771 444.229 228.225 443.017 228.679C443.118 223.176 442.815 213.38 441.907 208.129C441.452 208.483 441.048 208.735 440.695 208.836C440.796 212.471 440.998 225.902 439.483 234.537C436.655 233.729 432.313 233.022 429.688 233.022C430.546 228.679 431.758 222.166 431.758 212.926C431.758 210.098 431.758 208.23 431.657 206.362L440.594 206.463C441.452 206.463 442.008 206.816 442.311 207.17L447.764 206.109C448.622 211.967 448.723 212.522 449.632 224.539C451.702 224.792 453.116 224.893 454.732 224.893C458.872 224.893 460.488 224.539 462.104 215.551C460.235 216.258 459.276 216.713 458.62 217.066C458.064 212.724 457.307 208.786 456.246 204.696L460.791 202.928C461.75 206.311 462.205 207.927 462.659 210.149C462.861 206.412 462.76 203.585 462.659 200.707H447.966V203.989H433.424V136.228H478.11V150.618H466.799V155.163H474.424V155.213ZM453.217 155.213V150.669H448.016V155.213H453.217ZM453.217 171.017V166.321H448.016V171.017H453.217ZM453.217 187.579V182.681H448.016V187.579H453.217ZM454.328 204.645C455.641 208.735 456.953 216.46 457.256 219.237C456.145 219.49 454.53 219.692 451.601 221.106C451.147 214.693 450.086 209.644 449.329 206.261L454.328 204.645ZM466.799 166.321V171.017H474.424V182.681H466.799V187.579H476.595C476.595 196.112 476.595 214.794 473.969 225.751C483.31 221.762 489.319 215.451 492.651 209.391H478.211V178.086H495.731V173.996H484.623V170.007C482.452 172.128 481.594 172.684 479.826 173.996C477.302 170.512 475.888 168.644 473.717 166.271H466.749L466.799 166.321ZM495.933 196.112V190.608H491.49V196.112H495.933ZM510.071 160.818C503.962 155.567 502.548 153.597 500.932 151.376C499.064 154.304 498.004 155.92 493.661 160.818H510.071ZM510.98 190.608V196.112H516.08V190.608H510.98Z" fill="white"/>
<path d="M123.76 327.342V261.096H170.717V327.342H158.549V347.438C158.549 348.599 158.65 349.407 159.609 349.407C160.922 349.407 161.225 349.053 161.578 347.892C162.033 346.125 162.134 343.348 162.336 340.52C166.022 343.651 168.445 345.317 173.848 347.084C172.99 361.474 169.607 365.413 165.264 365.413H150.066C144.865 365.413 141.886 362.838 141.886 357.132V337.036C137.191 354.456 127.446 364.706 123.608 367.887C119.922 364.251 117.953 363.343 112.399 360.515H92.0504V365.514H76.3978V316.233C75.6404 315.173 72.8129 311.538 68.2686 307.498C70.6417 306.084 74.4791 303.762 80.2352 296.39H70.9951V282.353H79.1244C73.0148 278.97 72.2574 278.617 68.824 277.354C71.9545 273.365 77.1047 266.498 80.6897 256.45L95.6859 259.732C96.4433 259.833 96.9987 260.54 96.9987 261.348C96.9987 262.863 94.9285 262.964 93.7167 263.115L93.1613 264.277H120.882V277.96H106.643C106.34 278.92 105.582 281.091 105.128 282.403H121.639V296.44H118.811C118.912 297.955 116.943 298.309 116.085 298.41C115.782 299.015 114.57 301.894 114.217 302.499H120.831V314.769H111.793V318.859H118.508V328.553H111.793V332.896H118.508V342.944H111.793V347.64H119.064C120.781 345.418 125.476 339.712 127.193 327.443H123.608L123.76 327.342ZM88.6169 282.353C89.4753 280.586 90.2327 278.617 90.5862 277.91H86.4458C85.6884 279.172 84.931 280.485 83.5172 282.353H88.6169ZM98.5134 318.808V314.719H92.1009V318.808H98.5134ZM92.1009 328.503V332.845H98.5134V328.503H92.1009ZM98.5134 347.539V342.843H92.1009V347.539H98.5134ZM98.5134 296.39C97.6551 297.905 96.9987 299.217 94.8275 302.449H99.9272C101.543 298.813 101.997 297.753 102.654 296.39H98.5134ZM141.886 331.431V327.342H130.778L141.886 331.431ZM153.55 279.424V274.628H140.069V279.424H153.55ZM140.069 290.886V296.036H153.55V290.886H140.069ZM140.069 307.7V312.951H153.55V307.7H140.069Z" fill="white"/>
<path d="M251.349 365.16C242.968 365.16 240.494 361.878 240.494 355.365V347.437H224.386L232.314 350.719C233.071 351.073 234.838 351.881 234.838 353.193C234.838 354.809 232.667 354.961 230.496 355.163C220.145 365.211 202.22 367.18 196.161 367.331C193.99 359.606 190.203 354.961 188.335 352.588C191.718 352.84 205.755 353.042 214.54 347.437H200.403V306.084H278.868V340.873C282.655 343.448 287.148 345.317 291.592 346.125C288.966 365.16 282.352 365.16 278.565 365.16H251.4H251.349ZM237.111 272.406V277.657C243.321 266.7 245.139 259.682 246.149 256.147L262.458 259.429C263.568 259.682 264.073 260.237 264.073 261.196C264.073 262.61 262.761 262.964 261.044 263.317C260.589 264.579 260.589 264.731 260.185 265.892H289.623V281.292H253.42C252.662 282.706 251.804 284.322 250.592 286.19H283.109V301.237H247.764V290.633C246.805 292.047 246.553 292.249 245.492 293.461C244.078 291.593 241.554 288.21 237.111 285.18V291.744H227.668V295.733H241.049V304.014H190.153V259.53H239.938V268.77H227.668V272.507H237.111V272.406ZM212.723 272.406V268.669H206.765V272.406H212.723ZM206.765 280.232V283.716H222.518V280.232H206.765ZM206.765 291.694V295.683H212.723V291.694H206.765ZM260.438 318.354V315.072H218.681V318.354H260.438ZM218.731 324.968V328.25H260.488V324.968H218.731ZM218.731 334.814V338.197H260.488V334.814H218.731ZM270.688 351.982C273.314 351.982 273.97 351.982 274.828 347.437H258.317V349.558C258.317 351.527 258.974 352.032 260.589 352.032H270.688V351.982Z" fill="white"/>
<path d="M322.039 287.605C319.767 289.826 318.555 290.887 317.343 291.947C313.96 288.665 309.719 285.181 304.063 282C311.031 276.042 319.262 267.307 324.715 256.754L341.579 260.844C342.438 261.096 343.094 261.551 343.094 262.46C343.094 263.621 341.781 264.075 340.266 264.681C339.61 265.742 339.307 266.196 339.055 266.549H404.291V281.596H394.748V294.32H408.431V309.72H394.748V321.889H404.644V337.087H395.051C399.292 341.631 405.048 349.811 409.643 357.638C404.947 359.96 397.777 364.757 394.849 367.08C391.466 359.859 385.407 350.619 380.307 344.56L391.264 337.087H320.574L334.914 343.298C336.328 343.904 337.085 344.257 337.085 345.166C337.085 346.681 335.369 346.782 334.359 346.782C330.673 354.507 325.422 361.98 319.918 368.039C315.879 364.202 310.779 360.667 305.376 358.092C313.203 350.619 317.999 342.692 320.271 337.087H311.334V321.889H321.988V309.72H307.547V294.32H321.988V287.554L322.039 287.605ZM336.429 294.371H341.529V281.647H336.429V294.371ZM336.429 321.939H341.529V309.771H336.429V321.939ZM352.385 340.268C355.313 346.933 357.181 353.346 359.1 362.788C351.274 364.202 349.002 364.656 341.832 366.878C341.529 360.465 339.459 350.266 336.833 343.298L352.385 340.268ZM355.869 294.371H360.968V281.647H355.869V294.371ZM355.869 321.939H360.968V309.771H355.869V321.939ZM374.349 339.006C379.045 347.741 381.418 355.012 383.387 361.424C381.115 362.03 373.389 363.646 366.775 366.322C364.806 358.243 362.534 351.477 358.848 342.944L374.399 338.955L374.349 339.006ZM375.308 281.647V294.371H380.408V281.647H375.308ZM375.308 309.821V321.99H380.408V309.821H375.308Z" fill="white"/>
<path d="M485.734 292.501C492.046 299.166 494.873 302.903 499.872 310.022C499.014 310.982 492.601 316.334 488.107 321.938C484.068 315.728 478.867 309.113 475.737 306.033V310.123H462.811C464.124 311.89 468.668 318.404 475.838 324.715C474.626 326.331 474.222 326.937 473.313 328.351L500.478 321.686V285.23C497.852 287.553 495.58 290.381 492.652 293.764C490.127 289.674 480.887 279.979 478.514 278.111L489.471 266.296C491.995 268.618 494.924 271.295 500.428 278.212V258.217L519.665 259.378C520.322 259.378 521.18 259.984 521.18 260.893C521.18 262.307 520.221 262.761 518.352 263.569V317.293L525.522 315.526L528.451 331.532L518.352 334.208V365.968H500.428V339.106L474.777 345.973L471.849 330.421C470.637 332.542 469.88 333.905 467.406 339.308C464.023 335.824 462.508 334.056 460.791 331.582V365.917H443.371V341.024C439.685 347.588 437.716 349.76 435.545 352.335C429.031 343.801 425.749 341.226 422.922 339.156C432.364 330.976 438.776 318 441.957 309.972H426.204V293.259H443.371V286.493C437.817 288.361 435.999 289.068 431.607 291.037C430.748 285.887 427.921 275.031 425.194 269.174L438.373 264.478C439.332 266.952 440.544 269.83 443.371 280.585V258.268L461.952 259.227C463.366 259.328 463.669 260.489 463.669 260.994C463.669 262.509 462.053 263.317 460.741 263.822V282.756C462.811 276.445 464.427 270.487 465.739 263.973L481.594 267.962C482.149 268.063 482.806 268.669 482.806 269.376C482.806 270.335 482.048 270.992 479.978 271.951C475.434 286.998 475.181 287.604 473.768 291.592C467.456 288.664 465.184 287.604 460.741 286.796V293.36H475.636V303.408L485.633 292.451L485.734 292.501Z" fill="white"/>
<path d="M124.008 428.882L123.1 427.973L132.138 418.935L123.1 409.897L124.008 408.988L133.047 418.076L142.085 408.988L142.994 409.897L133.905 418.935L142.994 427.973L142.085 428.882L133.047 419.844L124.008 428.882ZM127.745 418.935C127.745 420.197 126.735 421.257 125.422 421.257C124.109 421.257 123.1 420.248 123.1 418.935C123.1 417.622 124.16 416.612 125.422 416.612C126.685 416.612 127.745 417.672 127.745 418.935ZM135.319 411.361C135.319 412.573 134.309 413.684 132.996 413.684C131.683 413.684 130.673 412.623 130.673 411.361C130.673 410.099 131.734 409.038 132.996 409.038C134.258 409.038 135.319 410.099 135.319 411.361ZM135.319 426.509C135.319 427.771 134.309 428.831 132.996 428.831C131.683 428.831 130.673 427.771 130.673 426.509C130.673 425.246 131.734 424.186 132.996 424.186C134.258 424.186 135.319 425.246 135.319 426.509ZM142.943 418.935C142.943 420.197 141.883 421.257 140.62 421.257C139.358 421.257 138.298 420.248 138.298 418.935C138.298 417.622 139.358 416.612 140.62 416.612C141.883 416.612 142.943 417.672 142.943 418.935Z" fill="white" stroke="white"/>
<path d="M170.514 413.33C167.131 417.47 165.818 418.884 160.87 423.327C162.233 424.791 163.546 426.306 164.607 427.973C163.294 428.932 162.89 429.386 162.536 429.841C159.355 424.085 153.448 419.591 152.589 418.934L154.205 417.218C155.972 418.53 158.093 420.449 159.254 421.61C163.294 418.228 165.566 415.652 167.485 412.875H148.247V410.603H168.595C169.1 410.603 169.807 410.401 170.312 410.199L171.827 412.017C170.969 412.673 170.716 412.976 170.514 413.279V413.33Z" fill="white" stroke="white"/>
<path d="M182.731 409.341V416.208C182.731 420.803 181.923 425.196 175.763 429.235C175.41 428.73 175.107 428.377 173.794 427.468C179.904 424.035 180.206 419.894 180.206 416.41V408.231L182.681 408.382C182.984 408.382 183.337 408.433 183.337 408.735C183.337 408.988 183.085 409.139 182.782 409.24L182.731 409.341ZM189.951 428.276C188.942 428.983 188.841 429.033 188.386 429.538L186.619 428.276C186.619 427.721 186.72 426.862 186.72 426.105V408.079L189.194 408.18C189.497 408.18 189.75 408.18 189.75 408.483C189.75 408.786 189.497 408.836 189.194 408.988V425.701C192.83 423.58 196.314 420.45 198.636 416.966C199.293 418.178 199.495 418.531 199.999 419.086C197.929 422.065 194.698 425.095 190.002 428.276H189.951Z" fill="white" stroke="white"/>
<path d="M208.837 419.036C206.01 416.865 202.526 415.502 201.718 415.148L203.132 413.179C205.101 413.886 208.433 415.603 210.402 416.966C209.544 417.824 209.09 418.733 208.888 419.036H208.837ZM205.505 430.548C205.505 430.851 205.404 431.205 205.05 431.205C204.848 431.205 204.697 431.003 204.596 430.75L203.435 428.579C211.816 425.701 219.138 420.248 223.985 412.825C224.54 413.583 224.995 414.239 225.601 414.845C218.734 425.146 208.13 429.589 205.505 430.548ZM212.17 412.523C209.544 410.553 206.767 409.443 204.646 408.685L206.06 406.817C208.383 407.625 211.008 408.736 213.634 410.452C213.079 411.008 212.523 411.866 212.17 412.523Z" fill="white" stroke="white"/>
<path d="M227.921 428.983V426.964H236.151V415.754H229.89V413.684H244.684V415.754H238.322V426.964H246.906V428.983H227.971H227.921Z" fill="white" stroke="white"/>
<path d="M253.068 421.106C251.856 421.106 250.947 420.147 250.947 418.935C250.947 417.723 251.907 416.764 253.068 416.764C254.229 416.764 255.239 417.723 255.239 418.935C255.239 420.147 254.28 421.106 253.068 421.106Z" fill="white" stroke="white"/>
<path d="M272.558 421.409L273.871 430.801L271.498 431.205L270.084 421.712L259.481 423.075L259.178 420.803L269.781 419.44L269.024 414.239L261.248 415.249L260.995 412.977L268.721 412.017L268.014 407.019L270.488 406.716C270.488 406.716 271.094 406.615 271.094 407.019C271.094 407.221 270.993 407.322 270.639 407.574L271.245 411.715L278.668 410.755L278.92 413.027L271.599 413.987L272.356 419.187L282.455 417.925L282.707 420.197L272.659 421.46L272.558 421.409Z" fill="white" stroke="white"/>
<path d="M287.807 420.198C286.949 417.724 286.343 416.562 285.03 414.442L286.999 413.583C288.06 415.149 289.12 417.32 289.777 419.289C289.07 419.541 288.464 419.794 287.807 420.198ZM303.914 414.038C301.844 422.419 298.007 427.317 289.928 430.498C289.423 429.741 289.171 429.387 288.514 428.68C291.897 427.519 300.077 424.389 301.794 412.523L303.965 413.179C304.318 413.28 304.47 413.381 304.47 413.583C304.47 413.886 304.217 413.937 303.914 413.987V414.038ZM293.765 418.733C293.109 416.663 292.402 414.947 291.19 412.977L293.16 412.169C294.321 414.088 295.129 415.805 295.785 417.926C295.583 417.976 294.573 418.279 293.765 418.733Z" fill="white" stroke="white"/>
<path d="M321.233 418.935C320.577 426.913 314.619 429.841 311.387 431.205C310.983 430.649 310.175 429.841 309.62 429.235C312.397 428.226 318.204 426.105 318.759 418.935H307.348V416.713H318.86V411.614C314.619 412.472 311.74 412.623 310.579 412.724C310.327 412.118 309.872 411.21 309.367 410.503C315.376 410.503 322.546 408.988 326.03 406.716L328.1 408.382C328.1 408.382 328.251 408.534 328.251 408.685C328.251 408.887 328.1 409.038 327.898 409.038C327.747 409.038 327.595 408.988 327.444 408.887C326.181 409.543 324.414 410.25 321.334 411.058V416.713H330.776V418.935H321.284H321.233Z" fill="white" stroke="white"/>
<path d="M341.783 414.896C337.895 411.412 334.966 410.099 333.855 409.544L335.32 407.474C337.39 408.534 340.268 410.099 343.298 412.725C342.49 413.684 342.035 414.442 341.783 414.846V414.896ZM336.38 429.943C336.38 430.397 336.279 430.599 335.976 430.599C335.774 430.599 335.623 430.397 335.522 430.246L334.007 427.721C342.894 425.802 350.619 420.248 355.315 412.422C355.87 413.331 356.274 413.886 356.829 414.593C350.568 424.692 340.874 428.327 336.33 429.943H336.38Z" fill="white" stroke="white"/>
<path d="M372.736 430.7C372.181 430.7 371.878 430.7 371.272 430.649C371.171 429.538 371.019 428.983 370.615 428.024C371.272 428.175 372.08 428.377 373.443 428.377C374.806 428.377 376.472 428.377 377.23 425.752C377.886 423.429 378.189 420.399 378.341 414.593H371.423C371.07 417.42 370.06 426.155 360.567 430.952C360.062 430.144 359.658 429.74 358.851 429.134C361.729 427.822 364.203 425.751 366.02 423.176C367.687 420.854 368.444 418.329 368.899 414.593H359.507V412.321H369.05C369.151 409.695 369.05 407.978 368.899 406.817L371.676 407.12C372.08 407.17 372.282 407.221 372.282 407.473C372.282 407.625 372.13 407.827 371.676 407.928C371.676 410.452 371.575 411.513 371.524 412.321H380.865C380.461 428.276 379.552 430.75 372.635 430.75L372.736 430.7Z" fill="white" stroke="white"/>
<path d="M385.004 420.197V417.723H408.735V420.197H385.004Z" fill="white" stroke="white"/>
<path d="M420.046 413.179C417.825 419.642 415.149 424.641 413.533 426.863C412.826 426.509 412.422 426.358 411.261 425.853C414.543 421.208 416.714 415.805 417.421 413.482C415.25 413.634 414.088 413.735 412.17 413.684L411.867 411.21C412.624 411.311 413.381 411.362 414.795 411.362C415.957 411.362 417.067 411.311 418.178 411.16C418.885 408.736 419.138 407.322 419.34 406.11L421.864 406.817C422.167 406.918 422.319 406.969 422.319 407.171C422.319 407.474 421.965 407.524 421.713 407.524C421.258 409.039 421.107 409.493 420.753 410.806C423.177 410.352 424.237 409.998 425.348 409.594C425.298 410.352 425.298 411.21 425.399 412.018C423.682 412.472 422.42 412.775 420.046 413.129V413.179ZM433.023 429.943C429.943 427.469 429.186 427.115 428.327 426.661C428.327 430.953 424.237 430.953 423.278 430.953C420.147 430.953 417.623 429.488 417.623 426.863C417.623 424.944 419.037 423.025 422.622 423.025C424.035 423.025 425.045 423.328 425.702 423.48C425.55 422.621 425.348 421.46 425.348 420.4C425.348 418.582 426.61 417.017 427.317 416.512L429.286 417.825C427.772 419.087 427.772 420.248 427.772 420.854C427.772 422.268 428.024 423.379 428.176 424.237C430.7 425.398 432.821 426.812 434.437 428.125C433.881 428.731 433.528 429.236 432.972 429.943H433.023ZM422.723 424.893C421.258 424.893 419.844 425.499 419.844 426.863C419.844 428.983 422.975 428.983 423.126 428.983C426.257 428.983 426.156 426.964 426.055 425.701C424.54 424.944 423.278 424.893 422.723 424.893ZM433.78 417.017C432.821 416.158 431.054 414.745 426.61 413.381L427.923 411.412C432.215 412.775 433.831 413.886 435.144 414.947C434.689 415.603 434.184 416.411 433.78 417.017Z" fill="white" stroke="white"/>
<path d="M446.909 418.077C445.445 418.783 440.547 421.157 440.547 424.439C440.547 428.125 446.909 428.125 448.777 428.125C449.383 428.125 454.281 428.125 458.068 426.761C457.967 427.216 457.815 427.822 457.866 429.538C455.089 430.043 451.504 430.397 448.929 430.397C444.182 430.397 442.163 429.639 440.85 428.983C439.133 428.125 437.972 426.408 437.972 424.439C437.972 420.854 441.153 418.632 444.233 416.915C442.718 415.35 442.415 413.381 442.112 410.099C441.961 408.735 441.91 407.877 441.557 406.968L444.788 406.312C444.687 407.473 444.637 408.231 444.637 408.937C444.637 411.563 444.94 414.239 446.252 415.905C447.515 415.3 449.231 414.492 451.1 413.835C453.119 413.078 456.704 411.664 457.159 411.462L458.219 414.189C453.372 415.047 448.373 417.319 446.909 418.026V418.077ZM456.553 410.503C455.442 408.736 454.685 407.928 454.382 407.524L455.795 406.564C456.553 407.423 457.563 408.786 458.068 409.543C457.512 409.796 457.058 410.149 456.553 410.503ZM459.683 409.543C458.976 408.433 458.421 407.574 457.563 406.615L458.976 405.605C459.38 406.059 460.542 407.574 461.148 408.584C460.542 408.887 460.188 409.089 459.683 409.543Z" fill="white" stroke="white"/>
<path d="M482.857 426.66C480.635 428.983 477.555 429.993 476.192 430.447C475.384 429.134 474.98 428.73 474.627 428.276C482.958 426.509 483.816 420.702 483.816 418.481C483.816 413.835 480.332 410.2 475.334 410.301C474.98 414.391 474.273 418.531 472.304 423.176C470.789 426.812 469.426 428.276 467.911 428.276C465.841 428.276 462.66 425.044 462.66 420.45C462.66 414.643 467.81 408.079 475.334 408.079C481.292 408.079 486.24 412.068 486.24 418.43C486.24 421.308 485.18 424.287 482.908 426.66H482.857ZM464.882 420.298C464.882 423.328 466.548 425.499 467.709 425.499C468.871 425.499 469.931 422.873 470.587 421.106C472.557 415.855 472.708 412.068 472.759 410.654C468.063 411.664 464.882 416.36 464.882 420.298Z" fill="white" stroke="white"/>
<path d="M178.237 458.823C177.48 461.348 176.318 463.065 175.359 464.378C174.904 463.923 174.349 463.469 173.39 463.166C175.005 461.197 175.813 459.884 176.621 457.359L178.388 457.965C178.843 458.117 179.045 458.268 179.045 458.42C179.045 458.823 178.54 458.823 178.287 458.823H178.237ZM175.056 457.107V440.394H183.337V457.107H175.056ZM181.367 442.312H177.025V445.342H181.367V442.312ZM181.367 447.059H177.025V450.189H181.367V447.059ZM181.367 451.906H177.025V455.138H181.367V451.906ZM197.828 465.236C195.051 463.469 193.284 461.5 192.829 460.944C191.062 462.964 189.396 464.176 187.679 465.236C187.023 464.327 186.922 464.226 185.962 463.519C188.992 462.105 191.062 459.732 191.466 459.227C188.739 455.39 188.083 451.805 187.679 449.533H187.427C187.427 453.875 187.073 459.732 183.185 464.883C182.882 464.681 182.125 464.125 181.165 463.923C181.721 463.216 182.226 462.61 183.135 460.843C182.68 461.096 182.428 461.298 181.721 461.752C180.964 460.742 180.055 458.975 179.701 458.066L181.266 457.107C181.872 458.369 182.478 459.379 183.337 460.49C184.801 457.359 185.255 454.279 185.255 449.482V440.343H199.343V442.413H187.477V447.513H196.919L198.03 448.321C197.172 454.128 195.758 456.955 194.243 459.126C196.061 461.146 197.575 462.257 199.545 463.469C198.585 464.277 198.535 464.327 197.828 465.236ZM189.8 449.634C190.406 453.825 192.173 456.45 192.88 457.511C194.445 455.138 195.253 452.36 195.606 449.634H189.8Z" fill="white" stroke="white"/>
<path d="M215.296 444.282V446.756H223.98V448.675H204.389V446.756H212.872V444.282H201.461V442.313H212.872V439.536L215.296 439.637C215.296 439.637 215.902 439.738 215.902 439.99C215.902 440.192 215.7 440.343 215.296 440.495V442.313H226.859V444.282H215.296ZM212.418 454.784C212.064 457.258 211.307 462.863 203.43 465.236C202.925 464.378 202.269 463.671 201.764 463.217C209.439 461.298 209.994 456.451 210.146 453.522L212.67 453.926C212.923 453.976 213.175 454.077 213.175 454.279C213.175 454.683 212.67 454.734 212.418 454.784ZM223.375 455.895V452.815H204.995V455.946H202.622V450.947H225.748V455.946H223.375V455.895ZM222.971 464.428H219.335C217.82 464.428 215.851 464.378 215.851 461.298V453.724L218.174 453.825C218.174 453.825 218.78 453.825 218.78 454.229C218.78 454.532 218.578 454.582 218.174 454.734V460.692C218.174 461.601 218.174 462.257 219.436 462.257H222.819C223.728 462.257 224.435 462.055 224.839 458.773C225.849 459.531 226.404 459.682 226.96 459.783C226.303 464.327 224.586 464.428 222.87 464.428H222.971Z" fill="white" stroke="white"/>
<path d="M232.718 454.532C231.507 454.532 230.598 453.573 230.598 452.361C230.598 451.149 231.557 450.19 232.718 450.19C233.88 450.19 234.89 451.149 234.89 452.361C234.89 453.573 233.93 454.532 232.718 454.532Z" fill="white" stroke="white"/>
<path d="M260.137 447.312C259.178 453.27 257.107 459.935 247.11 464.53C246.403 463.672 246.252 463.52 245.191 462.561C255.744 458.724 257.461 450.796 257.915 444.131H242.566V452.311H240.041V441.859H257.36C258.067 441.859 258.976 441.657 259.279 441.556L260.793 442.667C260.692 443.374 260.288 446.656 260.137 447.312Z" fill="white" stroke="white"/>
<path d="M264.681 453.623V451.149H288.412V453.623H264.681Z" fill="white" stroke="white"/>
<path d="M311.892 446.958C309.266 453.219 305.883 461.147 295.684 465.237C295.33 464.782 295.027 464.429 293.866 463.419C298.713 461.45 305.53 457.915 309.165 446.554H299.925C297.249 450.695 294.018 453.522 292.806 454.583C292.301 454.078 291.594 453.371 290.938 452.866C295.33 449.534 298.764 444.838 300.632 439.94L302.955 440.95C302.955 440.95 303.359 441.101 303.359 441.354C303.359 441.657 302.904 441.758 302.702 441.758C301.995 443.171 301.642 443.727 301.288 444.383H309.62C310.478 444.383 311.033 444.181 311.488 443.979L312.902 445.292C312.397 446.151 312.195 446.554 311.993 447.009L311.892 446.958Z" fill="white" stroke="white"/>
<path d="M322.445 452.462C319.617 450.291 316.133 448.928 315.325 448.574L316.739 446.605C318.708 447.312 322.041 449.029 324.01 450.392C323.151 451.25 322.697 452.159 322.495 452.462H322.445ZM319.112 463.975C319.112 464.277 319.011 464.631 318.658 464.631C318.456 464.631 318.304 464.429 318.203 464.177L317.042 462.005C325.424 459.127 332.745 453.674 337.592 446.252C338.148 447.009 338.602 447.666 339.208 448.271C332.341 458.572 321.738 463.015 319.112 463.975ZM325.777 445.949C323.151 443.98 320.374 442.869 318.254 442.111L319.668 440.243C321.99 441.051 324.616 442.162 327.241 443.879C326.686 444.434 326.131 445.292 325.777 445.949Z" fill="white" stroke="white"/>
<path d="M355.012 463.57V462.509H341.834V460.54H355.012V455.592H342.49V453.572H355.012V448.876H342.137V446.907H357.184V463.57H355.063H355.012Z" fill="white" stroke="white"/>
<path d="M363.797 453.623C362.938 451.149 362.332 449.988 361.02 447.867L362.989 447.009C364.049 448.574 365.109 450.745 365.766 452.714C365.059 452.967 364.453 453.219 363.797 453.623ZM379.904 447.463C377.833 455.845 373.996 460.742 365.917 463.923C365.412 463.166 365.16 462.813 364.504 462.106C367.886 460.944 376.066 457.814 377.783 445.948L379.904 446.605C380.257 446.706 380.409 446.807 380.409 447.009C380.409 447.311 380.156 447.362 379.853 447.412L379.904 447.463ZM369.755 452.159C369.098 450.089 368.391 448.372 367.18 446.403L369.149 445.595C370.31 447.513 371.118 449.23 371.774 451.351C371.572 451.401 370.563 451.704 369.755 452.159Z" fill="white" stroke="white"/>
<path d="M404.39 446.302C400.805 455.946 396.412 460.389 388.03 464.277C387.424 463.267 386.465 462.56 386.212 462.358C390.201 460.692 398.078 457.461 401.916 445.645H383.233V443.373H401.411C402.572 443.373 402.925 443.272 403.329 443.121L405.097 444.686C404.693 445.443 404.642 445.595 404.339 446.352L404.39 446.302ZM405.702 443.525C404.339 443.525 403.228 442.414 403.228 441C403.228 439.586 404.339 438.526 405.702 438.526C407.066 438.526 408.227 439.637 408.227 441C408.227 442.363 407.116 443.525 405.702 443.525ZM405.702 439.586C404.996 439.586 404.289 440.192 404.289 441C404.289 441.808 404.945 442.464 405.702 442.464C406.51 442.464 407.167 441.808 407.167 441C407.167 440.192 406.51 439.586 405.702 439.586Z" fill="white" stroke="white"/>
<path d="M413.53 463.62L411.409 464.024C411.006 462.61 410.097 459.126 410.097 453.572C410.097 452.007 410.097 447.21 411.611 440.495L414.136 441.403C414.136 441.403 414.59 441.555 414.59 441.807C414.59 442.009 414.338 442.211 413.833 442.211C412.823 445.847 412.318 450.088 412.318 453.825C412.318 455.895 412.47 457.309 412.571 458.369C412.924 457.662 414.136 454.532 414.439 453.926C414.994 454.683 415.348 455.087 415.802 455.541C414.843 457.359 413.429 460.49 413.53 463.57V463.62ZM432.515 461.6C430.496 459.783 428.678 459.025 427.92 458.722C428.173 463.317 423.629 463.671 422.821 463.671C420.094 463.671 417.923 461.853 417.923 459.581C417.923 457.006 420.448 455.592 423.174 455.592C424.033 455.592 424.689 455.693 425.295 455.794C425.143 453.976 425.093 453.421 424.992 448.422C424.134 448.523 422.568 448.725 420.145 448.725C419.185 448.725 418.529 448.674 417.872 448.624V446.2C418.68 446.301 419.64 446.352 421.053 446.352C421.76 446.352 422.871 446.352 424.941 446.2C424.941 444.786 424.941 442.464 424.992 440.495L427.819 440.899C427.819 440.899 428.274 441 428.274 441.252C428.274 441.605 427.819 441.656 427.618 441.706C427.466 443.07 427.416 444.685 427.365 445.897C429.94 445.493 431.152 445.14 432.263 444.786V447.109C431.606 447.261 430.294 447.614 427.365 448.068C427.365 451.199 427.517 454.885 427.769 456.198C429.031 456.652 431.505 457.561 433.778 459.48C433.374 460.035 432.97 460.843 432.566 461.55L432.515 461.6ZM425.547 457.914C425.244 457.814 424.436 457.511 423.174 457.511C421.356 457.511 420.044 458.167 420.044 459.581C420.044 460.944 421.558 461.651 422.972 461.651C424.79 461.651 425.699 460.54 425.699 459.025C425.699 458.672 425.648 458.419 425.547 457.914Z" fill="white" stroke="white"/>
<path d="M254.428 473.063C254.428 473.063 255.085 473.164 255.085 473.517C255.085 473.87 254.63 473.921 254.327 473.921C254.075 475.032 253.873 475.688 253.671 476.345H267.304V478.364H252.964C252.308 480.081 251.651 481.091 251.247 481.697H263.214V494.673C263.214 498.258 262.154 498.511 257.71 498.511C257.71 498.107 257.609 497.4 256.953 496.037C257.407 496.138 258.165 496.289 259.276 496.289C260.891 496.289 260.891 495.582 260.891 494.471V492.199H250.591V498.511H248.268V485.433C246.198 487.604 244.38 488.816 243.219 489.523C242.462 488.665 241.957 488.261 241.401 487.907C247.915 484.171 249.834 479.778 250.439 478.364H241.805V476.345H251.247C251.752 474.88 251.954 473.618 252.156 472.659L254.479 473.063H254.428ZM260.841 486.09V483.666H250.54V486.09H260.841ZM250.54 487.958V490.381H260.841V487.958H250.54Z" fill="white" stroke="white"/>
<path d="M276.848 498.612H274.727V488.06C274.172 489.322 272.808 492.402 270.435 495.128C269.526 494.27 269.022 494.018 268.517 493.715C271.799 490.534 273.919 486.292 274.525 484.475H269.324V482.505H274.727V472.861L276.949 473.013C277.353 473.013 277.605 473.215 277.605 473.417C277.605 473.72 277.201 473.821 276.898 473.871V482.455H281.544V484.424H276.949C277.302 485.282 278.464 487.706 280.635 489.978C279.928 490.584 279.675 490.887 279.069 491.644C278.262 490.483 277.656 489.322 276.898 487.454V498.511L276.848 498.612ZM271.698 475.184C272.253 476.295 273.162 478.214 273.768 480.082C273.111 480.334 272.405 480.637 271.799 480.94C271.344 479.173 270.435 477.103 269.829 475.941L271.647 475.184H271.698ZM281.695 475.487C281.998 475.588 282.2 475.739 282.2 475.891C282.2 476.093 281.998 476.194 281.493 476.295C281.039 477.911 280.534 478.87 279.625 480.789C278.918 480.385 278.464 480.183 277.807 479.981C278.716 478.012 279.271 476.749 279.726 474.831L281.695 475.487ZM294.419 487.403L294.874 489.423L291.541 490.281V498.612H289.269V490.938L281.796 492.907L281.19 490.837L289.269 488.766V472.912L291.642 473.114C291.996 473.114 292.248 473.265 292.248 473.467C292.248 473.669 292.097 473.77 291.541 473.972V488.211L294.419 487.504V487.403ZM284.018 481.849C285.078 482.808 286.441 484.172 287.956 485.989C287.401 486.444 287.098 486.848 286.441 487.555C285.583 486.444 283.816 484.424 282.604 483.414L284.068 481.849H284.018ZM284.422 475.285C285.684 476.295 287.098 477.709 288.259 479.072C287.855 479.425 287.35 479.829 286.643 480.637C285.633 479.324 284.068 477.81 282.907 476.901L284.371 475.285H284.422Z" fill="white" stroke="white"/>
<path d="M313.605 479.577C312.14 480.586 307.697 483.919 307.697 488.564C307.697 492.149 310.423 495.027 316.331 495.633C315.826 496.593 315.574 497.249 315.271 498.259C310.171 497.249 305.223 494.421 305.223 488.615C305.223 484.979 307.343 481.041 312.847 477.809C312.14 477.809 300.022 479.173 297.8 479.728L297.396 476.699C297.901 476.699 298.305 476.749 298.81 476.749C300.426 476.749 313.251 475.941 320.774 474.275L321.33 477.052C320.118 477.052 317.341 477.052 313.554 479.577H313.605ZM317.846 486.292C317.391 485.636 316.584 484.474 315.321 483.162L316.634 482.152C316.634 482.152 318.3 483.818 319.159 485.181C318.502 485.585 317.947 486.141 317.795 486.292H317.846ZM320.623 484.272C319.664 482.707 318.704 481.748 318.098 481.091L319.462 480.132C320.269 480.889 321.431 482.303 322.037 483.162C321.683 483.364 321.38 483.515 320.623 484.272Z" fill="white" stroke="white"/>
<path d="M344.004 479.022C342.338 479.022 340.722 479.022 339.107 479.123C339.107 481.041 339.056 482.707 339.107 483.818C340.217 485.788 340.217 487.959 340.217 488.363C340.217 490.029 339.662 493.058 337.693 495.432C336.026 497.451 334.209 498.411 333.047 498.966C332.593 498.512 331.533 497.704 330.977 497.249C334.158 495.987 336.43 494.422 337.44 490.988C336.935 491.493 335.976 492.554 334.158 492.554C331.684 492.554 330.27 490.433 330.27 487.403C330.27 484.374 332.139 482.051 334.714 482.051C335.825 482.051 336.38 482.405 336.784 482.607C336.784 482.102 336.733 480.031 336.733 479.224C333.552 479.375 327.897 479.829 324.817 480.334L324.615 477.709C326.534 477.709 334.966 477.204 336.733 477.103C336.582 474.881 336.582 474.376 336.329 473.063L339.107 473.366C339.51 473.366 339.763 473.417 339.763 473.72C339.763 473.922 339.409 474.073 339.258 474.124C339.157 474.881 339.157 475.134 339.157 477.002C347.286 476.648 348.246 476.598 348.953 476.547C348.953 477.153 348.953 478.214 349.003 479.072C347.993 479.022 346.327 478.971 344.105 478.971L344.004 479.022ZM334.764 484.071C332.946 484.071 332.29 485.939 332.29 487.504C332.29 488.161 332.29 490.635 334.562 490.635C336.178 490.635 337.39 489.12 337.39 487.05C337.39 486.09 336.885 484.02 334.764 484.02V484.071Z" fill="white" stroke="white"/>
<path d="M355.971 497.754C354.001 497.754 352.386 496.189 352.386 494.169C352.386 492.149 353.951 490.584 355.971 490.584C357.99 490.584 359.556 492.2 359.556 494.169C359.556 496.138 357.889 497.754 355.971 497.754ZM355.971 491.947C354.708 491.947 353.699 492.957 353.699 494.219C353.699 495.482 354.708 496.441 355.971 496.441C357.233 496.441 358.243 495.431 358.243 494.219C358.243 493.008 357.233 491.947 355.971 491.947Z" fill="white" stroke="white"/>
</g>
<defs>
<clipPath id="clip0_2052_49">
<rect width="600" height="600" fill="white"/>
</clipPath>
</defs>
</svg>
