<svg width="1477" height="215" viewBox="0 0 1477 215" fill="none" xmlns="http://www.w3.org/2000/svg">
<path d="M100.595 206.101H79.632V192.77H61.5302V185.86H50.1694V176.972H41.2511V168.614H19.074V176.972H10.1557V192.77H1V214H79.632V213.958H100.595V206.101Z" fill="#AADDF7" stroke="#231815" stroke-width="1.39561" stroke-linecap="round" stroke-linejoin="round"/>
<path d="M202.27 142.94H184.196V131.447H168.606V125.499H158.809V117.837H151.133V110.648H132.012V117.837H124.336V131.447H116.45V149.738H184.196V149.71H202.27V142.94Z" fill="#00A6E4" stroke="#231815" stroke-width="1.39561" stroke-linecap="round" stroke-linejoin="round"/>
<path d="M1160.73 179.368H1142.67V167.89H1127.07V161.927H1117.27V154.279H1109.59V147.077H1090.47V154.279H1082.8V167.89H1074.91V186.167H1142.67V186.139H1160.73V179.368Z" fill="#D3EDFB" stroke="#231815" stroke-width="1.39561" stroke-linecap="round" stroke-linejoin="round"/>
<path d="M1114.87 26.2981H1100.72V17.2989H1088.49V12.6461H1080.82V6.64195H1074.8V1H1059.83V6.64195H1053.81V17.2989H1047.63V31.6336H1100.72V31.6057H1114.87V26.2981Z" fill="#00A6E4" stroke="#231815" stroke-width="1.39561" stroke-linecap="round" stroke-linejoin="round"/>
<path d="M1476 64.3287H1457.94V52.8359H1442.34V46.8875H1432.54V39.2256H1424.86V32.0374H1405.74V39.2256H1398.07V52.8359H1390.18V71.1268H1457.94V71.099H1476V64.3287Z" fill="#D3EDFB" stroke="#231815" stroke-width="1.39561" stroke-linecap="round" stroke-linejoin="round"/>
<path d="M549.764 99.9776H535.612V90.9783H523.386V86.3116H515.724V80.3074H509.694V74.6655H494.719V80.3074H488.703V90.9783H482.521V105.299H535.612V105.271H549.764V99.9776Z" fill="#00A6E4" stroke="#231815" stroke-width="1.39561" stroke-linecap="round" stroke-linejoin="round"/>
<path d="M1376.66 181.235H1347.5V162.693H1322.31V153.081H1306.51V140.725H1294.1V129.106H1263.24V140.725H1250.85V162.693H1238.12V192.212H1347.5V192.171H1376.66V181.235Z" fill="#00A6E4" stroke="#231815" stroke-width="1.39561" stroke-linecap="round" stroke-linejoin="round"/>
</svg>
