<svg width="1440" height="920" viewBox="0 0 1440 920" fill="none" xmlns="http://www.w3.org/2000/svg">
<g clip-path="url(#clip0_2009_63762)">
<path d="M27.6608 140.775H21.0874V143.594H17.3193V152.456H24.702V148.674H27.6608V140.775Z" fill="white" stroke="#231815" stroke-width="1.39561" stroke-linecap="round" stroke-linejoin="round"/>
<path d="M873.886 370.659H867.313V373.464H863.545V382.34H870.928V378.544H873.886V370.659Z" fill="white" stroke="#231815" stroke-width="1.39561" stroke-linecap="round" stroke-linejoin="round"/>
<path d="M1165.34 386.597H1158.77V389.402H1155V398.278H1162.39V394.482H1165.34V386.597Z" fill="white" stroke="#231815" stroke-width="1.39561" stroke-linecap="round" stroke-linejoin="round"/>
<path d="M571.445 314.653H564.872V317.472H561.104V326.335H568.5V322.539H571.445V314.653Z" fill="white" stroke="#231815" stroke-width="1.39561" stroke-linecap="round" stroke-linejoin="round"/>
<path d="M901.701 903.739H895.114V906.558H891.346V915.42H898.742V911.638H901.701V903.739Z" fill="#FFF57A" stroke="#231815" stroke-width="1.39561" stroke-linecap="round" stroke-linejoin="round"/>
<path d="M1041.58 416.253H1035.01V419.073H1031.24V427.935H1038.62V424.139H1041.58V416.253Z" fill="#FFF57A" stroke="#231815" stroke-width="1.39561" stroke-linecap="round" stroke-linejoin="round"/>
<path d="M232.564 558.815H225.99V561.634H222.222V570.496H229.605V566.7H232.564V558.815Z" fill="#FFF57A" stroke="#231815" stroke-width="1.39561" stroke-linecap="round" stroke-linejoin="round"/>
<path d="M326.153 471.143H319.58V473.948H315.812V482.824H323.194V479.028H326.153V471.143Z" fill="#FFF57A" stroke="#231815" stroke-width="1.39561" stroke-linecap="round" stroke-linejoin="round"/>
</g>
<defs>
<clipPath id="clip0_2009_63762">
<rect width="1440" height="920" fill="white"/>
</clipPath>
</defs>
</svg>
