<svg width="524" height="94" viewBox="0 0 524 94" fill="none" xmlns="http://www.w3.org/2000/svg">
<path d="M523.414 41.6237L0 93.052L0.586208 51.4803L524 0.052002L523.414 41.6237Z" fill="#FFF100"/>
<path d="M14.658 54.8033L26.147 53.6957L26.0631 57.7477L18.3572 58.4908L17.743 86.8829L13.96 87.2474L14.658 54.8033Z" fill="#E60012"/>
<path d="M54.4716 67.1275L57.766 66.805L57.6825 70.8149L54.3878 71.1374L54.3319 73.7873C54.29 75.8484 53.5362 77.8674 49.1668 78.0917C49.0691 76.8719 48.4689 75.0072 47.8826 73.9696C48.2595 74.0397 49.0271 73.9977 49.418 73.9696C50.1578 73.8995 50.2697 73.3107 50.2836 72.5535V71.558L46.947 71.8805L47.0309 67.8706L50.3951 67.5481L50.423 66.174L50.814 66.132C51.1769 65.6553 51.2746 65.473 51.4421 65.1506L47.8546 65.5011L47.9105 62.795C47.7151 63.0474 47.4216 63.454 47.2541 63.6503C47.0307 63.4681 46.6541 63.2297 46.4726 63.0755C46.0957 71.3618 45.9279 74.8389 45.1601 76.3532C44.5598 77.5029 43.6387 78.5544 40.5396 78.7928C40.3582 77.0682 39.9531 76.0447 39.66 75.2175C38.948 77.0682 38.5851 77.6431 38.3199 78.0917C37.6638 77.3626 36.8821 76.7878 35.9607 76.4653V77.0121C35.877 80.2369 39.1434 79.9986 46.2071 79.3115C50.3672 78.9049 53.8016 78.232 58.6736 77.2785C57.9337 78.7928 57.3892 80.5875 57.2217 82.1438L42.1589 83.6019C37.4823 84.0506 35.151 83.013 33.8109 81.0221C33.0012 81.8213 30.9768 83.7702 30.5162 84.3871C30.5162 84.9059 30.4606 85.2844 30.0837 85.3265C29.7626 85.3545 29.6088 85.032 29.5251 84.8357L27.5708 80.8118C29.0506 79.9565 30.8096 78.5404 31.4657 77.8955L31.619 70.9271L28.6178 71.2215L28.7016 67.0293L36.184 66.3002L36.0027 74.8529C38.1944 70.7308 38.2781 67.1976 38.3758 61.1266L36.0446 61.3509L36.1141 57.9158C35.8209 58.2523 34.09 60.2713 33.0989 61.4631C30.7117 58.5047 29.7626 57.7475 28.6597 56.9624L31.4098 53.5413C33.3083 54.5929 35.7093 56.8643 36.1141 57.341V57.2428L39.5346 56.9063L39.6181 52.9524L44.197 52.644C44.4901 52.6159 44.7695 52.644 44.7695 53.0366C44.7695 53.2749 44.63 53.4572 44.0855 53.8919L44.0296 56.4717L46.5285 56.2333L46.4866 58.3925C47.0171 57.4531 48.343 54.9294 49.027 51.9149L52.6847 52.7561C53.1593 52.8823 53.3268 52.9665 53.3128 53.2048C53.3128 53.6114 52.7965 53.7656 52.4056 53.9058C52.3079 54.1582 52.0984 54.719 51.9588 55.0836L58.0731 54.4947L57.9756 58.715L49.9766 59.4861C49.837 59.7666 49.4459 60.5377 48.7759 61.5893L56.3979 60.8462L57.8917 62.3744C56.7051 64.1691 55.4907 65.8235 54.4996 67.0854V67.1555L54.4716 67.1275ZM41.74 66.9873C41.391 70.0298 40.428 73.1424 39.8556 74.6426C40.1069 74.6847 40.5955 74.7408 40.8747 74.7127C41.796 74.6286 42.1867 74.1799 42.41 73.3387C42.6194 72.5255 42.8988 69.6652 42.9267 66.8751L41.74 66.9873ZM45.6908 62.5707C44.8113 62.0659 44.518 61.9678 44.1131 61.8276C44.5459 61.3088 44.7414 61.0845 45.202 60.4255L42.2287 60.72C42.2287 61.3649 42.1588 62.5707 42.1169 62.9212L45.7047 62.5707H45.6908Z" fill="#E60012"/>
<path d="M77.8688 51.2561C78.148 51.3682 78.3712 51.5225 78.3712 51.8309C78.3712 52.2796 77.8829 52.2936 77.5897 52.2515C76.3612 54.593 74.7837 57.8599 73.0108 61.6315C72.6758 62.3185 72.5501 62.5288 72.2849 63.0055C72.9968 62.7672 74.0157 62.3886 75.2721 62.2764C77.2544 62.0801 79.9208 62.6409 79.851 66.2162C79.8371 67.1416 79.6835 68.2913 79.502 69.1326C79.2089 70.6048 79.0692 71.404 79.0412 72.5396C79.0273 73.437 79.2228 74.2361 80.214 74.138C81.3308 74.0258 84.8627 71.5301 87.2079 67.8427C88.1293 69.2588 89.665 71.0675 90.4747 71.8807C89.5533 73.0304 87.6824 75.3718 84.9323 77.3908C82.3776 79.2556 79.9906 79.8865 78.7761 80.0127C75.8026 80.3071 73.6946 78.6948 73.7644 75.2877C73.7923 74.2642 74.4208 69.6794 74.4487 68.74C74.4766 67.5062 73.8482 67.1557 73.1781 67.2118C69.7161 67.5482 65.6537 78.5265 65.0953 80.6296L59.9302 78.8069C62.0521 74.9372 66.9241 64.1832 67.9571 61.8277C70.0791 56.9625 71.4333 53.4433 73.0248 49.1389L77.8549 51.2701L77.8688 51.2561Z" fill="#E60012"/>
<path d="M118.422 51.5505C110.521 52.1814 103.513 60.4677 103.387 66.02C103.304 70.0019 107.966 71.5021 112.308 71.1936C111.568 72.7079 110.353 75.7364 109.767 77.6712C107.198 77.1665 98.0685 75.3157 98.2499 67.0995C98.3895 60.7481 103.066 55.7427 104.393 54.7192C98.1105 55.8689 94.2157 57.1027 91.1026 58.1683L90.5024 51.7889C95.4024 51.3121 98.1804 51.0457 104.755 49.6156C109.404 48.6201 114.611 47.19 117.64 45.8721L118.408 51.5505H118.422ZM113.006 56.9485C113.941 57.7477 115.281 59.332 115.909 60.3275C115.002 61.0987 114.541 61.5193 113.397 62.6269C112.224 60.8603 111.917 60.4396 110.633 59.0235L113.006 56.9485ZM116.426 54.1724C117.305 54.9435 118.576 56.4998 119.19 57.4953C118.38 58.2244 117.822 58.7993 116.803 59.8508C115.658 58.0842 115.323 57.6636 114.039 56.2475L116.412 54.1724H116.426Z" fill="#E60012"/>
<path d="M132.619 75.9466L121.13 77.0542L121.214 73.0022L128.92 72.2591L129.534 43.867L133.317 43.5024L132.619 75.9466Z" fill="#E60012"/>
<path d="M139.473 42.7314L150.962 41.6238L150.879 45.6758L143.173 46.4189L142.558 74.811L138.775 75.1755L139.473 42.7314Z" fill="#E60012"/>
<path d="M170.437 63.8607L170.339 68.3193C170.27 71.8526 167.827 72.1891 162.201 72.6378C162.047 70.9412 161.782 69.7354 160.958 68.0249C161.433 67.9828 163.932 67.8426 164.476 67.7865C165.663 67.6744 165.663 67.5061 165.705 65.7535L165.733 64.3094L153.448 65.5012L153.532 61.351L165.816 60.1593L165.858 57.9299L167.366 57.958C167.687 57.6215 168.343 56.9064 169.041 55.953L159.604 56.8644L159.688 52.7843L175.072 51.2981L176.873 53.5835C176.412 54.2845 174.346 56.7382 170.995 59.6685L182.387 58.5609L182.303 62.711L170.437 63.8607ZM166.445 46.6291C165.83 45.3252 164.686 43.6427 163.373 42.2266L167.547 39.9132C168.762 41.133 170.339 43.6848 170.702 44.5681C170.242 44.8906 168.106 46.2225 167.687 46.503L172.14 46.0683C173.662 43.6988 174.458 42.3809 175.532 39.9553L180.014 40.9928C180.167 41.0489 180.558 41.1751 180.544 41.5256C180.544 41.9322 180.014 42.0864 179.441 42.2547C178.576 43.8811 178.338 44.2456 177.557 45.5496L182.415 45.0729L182.219 54.1023L177.71 54.5369L177.822 49.3492L158.501 51.214L158.39 56.4016L153.978 56.8223L154.174 47.7929L158.627 47.3583C158.473 47.0638 157.705 45.5636 156.184 43.797L160.135 41.3573C161.517 42.6613 162.619 44.5821 163.136 45.7318C161.74 46.6572 161.419 46.8535 161.056 47.1339L166.459 46.6152L166.445 46.6291Z" fill="#E60012"/>
<path d="M202.684 39.1841C202.963 39.2963 203.187 39.4505 203.187 39.759C203.187 40.2077 202.698 40.2217 202.405 40.1796C201.177 42.5211 199.599 45.7879 197.826 49.5595C197.491 50.2465 197.366 50.4569 197.1 50.9336C197.812 50.6952 198.832 50.3167 200.088 50.2045C202.07 50.0082 204.736 50.569 204.666 54.1443C204.653 55.0697 204.499 56.2194 204.317 57.0607C204.024 58.5328 203.885 59.332 203.857 60.4677C203.843 61.365 204.038 62.1642 205.029 62.0661C206.146 61.9539 209.678 59.4582 212.023 55.7708C212.945 57.1869 214.48 58.9956 215.29 59.8088C214.369 60.9585 212.498 63.2999 209.748 65.3189C207.193 67.1837 204.806 67.8146 203.592 67.9408C200.618 68.2352 198.51 66.6229 198.58 63.2158C198.608 62.1923 199.236 57.6075 199.264 56.6681C199.292 55.4342 198.664 55.0837 197.994 55.1398C194.532 55.4763 190.469 66.4546 189.911 68.5577L184.746 66.735C186.868 62.8653 191.74 52.1113 192.773 49.7558C194.894 44.8906 196.249 41.3714 197.84 37.067L202.67 39.1982L202.684 39.1841Z" fill="#E60012"/>
<path d="M243.238 39.4786C235.336 40.1096 228.329 48.3958 228.203 53.9481C228.119 57.93 232.782 59.4302 237.123 59.1077C236.383 60.622 235.169 63.6505 234.583 65.5853C232.014 65.0806 222.884 63.2298 223.066 55.0136C223.205 48.6622 227.882 43.6568 229.208 42.6333C222.926 43.783 219.031 45.0168 215.918 46.0824L215.318 39.7029C220.218 39.2262 222.996 38.9598 229.571 37.5297C234.22 36.5342 239.427 35.1041 242.456 33.7861L243.224 39.4646L243.238 39.4786ZM237.821 44.8626C238.756 45.6618 240.097 47.2461 240.725 48.2416C239.817 49.0128 239.357 49.4334 238.212 50.541C237.039 48.7744 236.732 48.3538 235.448 46.9377L237.821 44.8626ZM241.242 42.1005C242.121 42.8716 243.391 44.4279 244.006 45.4234C243.196 46.1525 242.638 46.7273 241.619 47.7789C240.474 45.9983 240.138 45.5917 238.854 44.1756L241.228 42.1005H241.242Z" fill="#E60012"/>
<path d="M257.435 63.8609L245.946 64.9685L246.03 60.9165L253.736 60.1734L254.35 31.7813L258.133 31.4167L257.435 63.8609Z" fill="#E60012"/>
<path d="M288.551 55.7567L291.595 55.4623L291.511 59.4722L261.665 62.3605L261.748 58.3506L264.792 58.0561L264.931 51.8449C264.903 51.915 264.806 52.0272 264.736 52.0973C263.172 50.4989 262.739 50.0923 261.218 49.5315C263.312 45.9001 263.368 44.498 263.493 38.6934L263.591 34.4731L276.141 33.2533C275.918 31.669 275.848 30.6735 275.792 29.8323L280.678 29.5238C280.929 29.4958 281.32 29.5238 281.306 29.9024C281.306 30.1127 280.887 30.4211 280.427 30.6735C280.483 31.2483 280.469 31.5288 280.636 32.8187L283.233 32.5663C282.549 31.8372 281.893 31.2624 281.264 30.7015L284.07 27.9254C284.643 28.3881 286.709 30.1407 287.449 31.1923C286.695 31.7812 286.444 32.0055 286.15 32.2719L291.329 31.7671L291.246 35.6789L285.997 36.1837L288.677 37.5717C288.831 37.6559 288.956 37.8241 288.956 38.0625C288.956 38.399 288.663 38.5672 287.7 38.5953C287.169 39.1982 285.173 41.9602 284.712 42.479C285.648 43.2081 286.848 43.8531 287.295 43.797C288.091 43.7128 288.552 41.82 288.621 41.3013C289.124 41.7359 290.227 42.6893 292.153 43.3203C291.567 46.7694 290.506 48.522 288.705 48.9987L288.565 55.7287L288.551 55.7567ZM276.406 49.0127C275.946 47.9892 275.024 46.5731 274.522 45.9422C274.173 47.0358 272.916 49.209 268.854 49.4333C268.365 46.9096 268.31 46.6151 267.723 45.3953C269.636 45.3112 269.957 45.185 270.124 45.129C270.739 44.8906 270.767 44.7504 270.78 43.152L267.584 43.4605C267.374 46.0543 266.746 48.3397 265.978 50.0222L276.406 49.0127ZM275.192 38.8897C275.122 41.9743 275.024 43.839 274.661 45.3813C276.63 44.6102 278.472 43.124 279.003 42.7034C277.704 40.5722 277.3 39.0019 276.825 37.095L267.807 37.9643L267.765 39.6048L275.192 38.8897ZM269.384 53.3872L269.287 57.6075L271.59 57.3831L271.688 53.1629L269.384 53.3872ZM275.527 52.7983L275.429 57.0186L277.83 56.7802L277.928 52.56L275.527 52.7983ZM284.629 48.2135C284.056 47.891 282.856 47.2461 281.39 45.7879C279.338 47.5966 277.621 48.55 276.881 48.9707L284.629 48.2276V48.2135ZM281.013 36.6744C281.223 37.3334 281.516 38.2307 282.172 39.4365C282.632 38.8476 283.651 37.5858 284.28 36.3519L281.013 36.6744ZM281.795 52.1954L281.697 56.4157L284.196 56.1773L284.294 51.9571L281.795 52.1954Z" fill="#E60012"/>
<path d="M302.261 29.033C302.833 29.1172 303.154 29.1873 303.14 29.5658C303.14 30.0145 302.582 30.1687 302.358 30.2248C301.367 33.1271 300.823 36.1276 300.767 39.114C300.739 40.6282 300.851 41.3012 300.99 42.1425C301.255 41.5676 301.353 41.2872 301.758 40.2497C302.261 38.9738 302.596 38.4971 302.791 38.2026C304.173 39.4785 304.383 39.6888 305.932 40.7404C305.402 41.6798 303.21 45.5916 302.442 49.7417L297.849 50.7653C295.825 45.1429 295.811 40.2777 295.853 38.2447C295.909 35.4966 296.244 33.3795 297.096 29.664C297.277 28.8928 297.277 28.7246 297.347 28.304L302.247 29.033H302.261ZM316.919 26.3551C317.24 26.327 317.659 26.313 317.645 26.7617C317.645 27.1402 317.351 27.2384 317.128 27.3225C317.128 28.5143 317.435 33.7019 317.477 34.7535C317.547 35.9873 317.575 37.4175 317.547 38.7494C317.449 43.0819 316.947 51.929 307.51 58.5608C305.625 55.967 304.131 55.294 303.433 54.9435C311.195 50.2185 312.06 44.2035 312.172 39.1561C312.27 34.9358 312.172 30.7015 311.223 26.7056L316.919 26.327V26.3551Z" fill="#E60012"/>
<path d="M320.325 53.5976C323.242 50.0924 326.16 43.6849 326.872 41.6659C328.505 43.1801 329.357 43.6148 330.208 43.9513C329.482 46.2787 326.942 51.6347 324.917 55.3221C325.001 55.8549 324.959 56.3457 324.443 56.4017C324.247 56.4158 323.968 56.2054 323.745 56.0512L320.311 53.6116L320.325 53.5976ZM323.158 33.2254C324.08 33.6179 327.64 35.5949 328.449 36.3099C327.207 37.8663 326.578 38.8477 325.741 40.4461C324.708 39.4786 321.525 37.4597 320.674 37.0671L323.144 33.2254H323.158ZM325.573 24.6587C327.598 25.8645 328.938 26.8739 330.571 28.248C329.119 30.1408 328.966 30.3511 327.737 32.3981C327.151 31.7672 326.02 30.5053 322.684 28.5985L325.573 24.6587ZM343.065 38.3149C344.098 43.6568 346.276 47.5686 351.357 50.5691C350.059 51.5786 349.11 52.504 347.7 54.551C345.271 53.3172 343.498 50.9477 342.66 49.7279C339.841 45.6899 338.975 41.6519 338.333 38.7776L337.244 38.8757C337.021 41.5958 336.895 43.5026 335.862 46.9517C335.206 49.1109 333.642 53.7378 331.199 56.2475C330.348 55.6727 328.351 54.9155 326.439 54.6491C328.533 52.3918 332.372 47.4985 332.623 35.651L332.833 25.7242L350.394 24.0277L350.101 37.6279L343.065 38.3149ZM337.593 34.4592L345.494 33.6881L345.606 28.8509L337.705 29.622L337.593 34.4592Z" fill="#E60012"/>
<path d="M365.43 45.3392L365.96 21.1673L370.972 21.0552C371.419 21.0552 371.768 21.0552 371.768 21.4618C371.768 21.7702 371.53 21.9665 370.958 22.2329L370.469 44.8485L376.737 44.2456L377.114 26.6355L382.196 26.5513C382.447 26.5513 382.894 26.5513 382.894 26.9579C382.894 27.1682 382.782 27.3786 382.168 27.8132L381.665 51.2981L376.584 51.7888L376.64 49.251L358.952 50.9615L358.896 53.4993L353.899 53.976L354.443 28.8507L359.553 28.5282C359.846 28.5002 360.293 28.5283 360.279 28.9068C360.279 29.1872 360.083 29.3695 359.399 29.7481L359.05 45.9561L365.444 45.3392H365.43Z" fill="#E60012"/>
<path d="M395.945 42.8856C401.041 41.3853 402.632 37.0249 402.688 34.417C402.73 32.384 401.809 28.7386 397.411 28.7946C396.49 38.0484 392.804 45.2411 390.333 45.4794C388.505 45.6617 385.196 42.6752 385.294 38.0343C385.406 32.6363 390.124 25.8924 397.006 25.2334C402.13 24.7427 406.513 28.0516 406.387 34.0384C406.359 35.1882 406.206 38.4129 403.456 42.0583C401.99 43.9792 400.315 45.0728 398.305 46.1945C397.565 44.8204 397.062 44.1054 395.945 42.8856ZM388.77 37.3894C388.728 39.3243 389.705 40.6843 390.194 40.6282C390.752 40.5721 391.227 39.3944 391.492 38.7214C392.553 36.1416 393.391 33.1832 393.474 29.9163C390.738 31.2623 388.812 35.1181 388.756 37.3754L388.77 37.3894Z" fill="#E60012"/>
<path d="M430.231 43.8952L408.733 45.9702C409.277 39.9272 412.46 37.1512 419.356 31.5428C424.591 27.2665 424.605 26.4813 424.633 25.0372C424.689 22.4573 422.148 22.0507 420.473 22.219C416.159 22.6396 415.629 25.9765 415.461 28.2199L409.542 28.7947C409.682 26.6215 409.836 24.252 411.678 21.7703C413.884 18.7839 417.011 17.4239 420.627 17.0734C427.956 16.3583 430.51 20.4383 430.427 24.3782C430.385 26.6075 429.519 28.262 428.919 29.2154C427.23 31.8092 420.668 36.8707 420.347 37.1371C418.239 38.7776 417.905 39.1561 417.025 40.0955L430.329 38.8056L430.217 43.8811L430.231 43.8952Z" fill="#E60012"/>
<path d="M439.947 42.2687L439.905 44.1615L434.88 44.6522L435.48 16.6387L458.416 14.4233L457.816 42.4369L452.79 42.9277L452.832 41.0348L439.933 42.2827L439.947 42.2687ZM452.944 36.1135L453.07 30.0425L440.171 31.2904L440.045 37.3614L452.944 36.1135ZM453.181 25.4017L453.307 19.6671L440.408 20.915L440.282 26.6495L453.181 25.4017Z" fill="#E60012"/>
<path d="M476.927 11.2548L476.661 23.2005L467.992 24.0418L467.588 42.8857L463.106 43.3204L463.776 12.5307L476.927 11.2548ZM468.104 19.1906L468.076 20.6347L472.362 20.2141L472.39 18.7699L468.104 19.1906ZM472.446 16.106L472.474 14.7039L468.188 15.1245L468.16 16.5266L472.446 16.106ZM474.512 38.5112L474.484 39.6049L470.324 40.0114L470.631 25.4579L484.479 24.1119L484.214 36.4362C485.177 36.4782 485.679 36.4642 485.973 36.4362C486.81 36.352 486.838 36.0155 486.866 35.1462L487.145 22.163L478.309 23.0182L478.574 11.0725L491.752 9.79663L491.18 36.4782C491.11 39.9414 489.965 40.6424 485.163 41.4135C485.052 40.5302 484.898 39.002 484.158 37.5718L474.498 38.5112H474.512ZM474.623 33.3656L474.595 34.9079L480.124 34.3751L480.151 32.8328L474.623 33.3656ZM480.235 29.6361L480.263 28.1218L474.735 28.6546L474.707 30.1689L480.235 29.6361ZM482.846 17.7745L482.818 19.2186L487.076 18.812L487.103 17.3679L482.846 17.7745ZM487.159 14.6759L487.187 13.2738L482.929 13.6804L482.902 15.0825L487.159 14.6759Z" fill="#E60012"/>
<path d="M495.648 31.7813L501.022 31.2625L500.897 37.0671L495.522 37.5859L495.648 31.7813ZM501.483 10.007L501.315 18.0128L499.947 28.22L496.876 28.5144L495.913 18.5316L496.08 10.5257L501.483 10.007Z" fill="#E60012"/>
<path d="M505.685 30.7997L511.059 30.2809L510.934 36.0856L505.559 36.6043L505.685 30.7997ZM511.534 9.03943L511.367 17.0453L509.999 27.2525L506.927 27.5469L505.964 17.5641L506.132 9.55819L511.534 9.03943Z" fill="#E60012"/>
</svg>
