<svg width="633" height="120" viewBox="0 0 633 120" fill="none" xmlns="http://www.w3.org/2000/svg">
<path d="M632.302 59.7899L0 119.052L0.684054 59.3142L633 0.052002L632.302 59.7899Z" fill="#FFF100"/>
<path d="M48.2059 83.1253L26.0645 85.2658L26.1481 81.5304C24.6264 82.7475 23.9842 83.2372 19.6285 86.0352C19.2376 85.1958 18.5536 83.7269 14.6167 81.3905C18.8188 79.0962 28.1166 73.9897 34.1615 63.8749L41.2534 64.2526C41.6583 64.2526 42.1051 64.4065 42.0912 64.9941C42.0912 65.3858 41.7142 65.6097 41.3931 65.8335C43.7944 69.7088 53.3713 73.8219 58.8299 74.4094C56.7497 76.6898 55.3676 79.7817 54.9348 81.0688C52.7709 80.6071 51.4307 80.0475 48.3036 78.7044L48.2059 83.1113V83.1253ZM20.3964 95.9123L20.536 89.225L49.6577 86.413L52.4498 88.9032C48.8201 97.5771 45.0369 103.649 41.0721 109.217C37.4144 106.811 35.39 106.475 34.357 106.335C37.1351 103.117 40.388 98.9341 42.7612 93.7718L20.3824 95.9263L20.3964 95.9123ZM44.7715 77.0116C41.8677 75.4587 39.1594 73.4861 36.9536 70.9399C34.7199 73.626 31.3972 76.9417 29.7359 78.4526L44.7715 76.9976V77.0116Z" fill="#E60012"/>
<path d="M87.9933 75.9903L96.7744 75.137L96.6348 81.3905L87.8536 82.2439L87.728 88.0638L102.317 86.6508L102.177 93.0023L87.5884 94.4153L87.379 103.873L80.3568 104.544L80.5662 95.0868L60.7283 97.0035L60.8679 90.652L67.7923 89.9805L68.0576 77.907L80.9711 76.6619L81.0828 71.4296L71.5757 72.3529C71.3802 72.7026 68.616 77.6272 65.6005 80.9149C62.2221 78.4386 60.6864 78.0469 59.6533 77.8091C64.6931 72.5348 68.0435 66.1133 69.8724 60.811L76.4759 62.4899C76.7411 62.5598 77.0203 62.6857 77.0064 62.9655C77.0064 63.5951 76.364 63.707 75.6381 63.8189C75.4008 64.4765 75.1635 65.0221 74.968 65.5257L100.963 63.0215L100.823 69.5129L88.091 70.744L87.9794 75.9764L87.9933 75.9903ZM80.8316 82.9294L75.0379 83.4891L74.9123 89.309L80.7058 88.7493L80.8316 82.9294Z" fill="#E60012"/>
<path d="M118.47 60.3214C118.833 60.4333 119.056 60.6012 119.042 60.937C119.042 61.5245 118.163 61.7064 117.758 61.7903C114.826 72.0451 114.672 79.222 114.631 80.719C114.575 83.1393 114.728 84.2445 114.84 85.5316C115.454 84.5523 116.431 82.9154 117.046 81.8801C117.911 83.6289 118.916 85.0419 120.201 86.371C119.265 87.8679 116.264 92.8484 116.18 98.6124L110.079 100.417C109.493 98.1507 107.832 91.4354 108.055 81.1107C108.167 76.1582 108.851 67.3864 111.252 58.6426L118.442 60.3214H118.47ZM140.011 57.1736C140.234 57.2016 140.597 57.2156 140.583 57.6493C140.583 58.2369 139.927 58.4327 139.522 58.5307C139.369 59.6079 139.145 60.9789 138.936 64.3925C142.482 63.3712 144.031 62.6857 145.679 61.9582L145.525 69.2751C144.478 69.6668 142.384 70.4082 138.601 71.4855C138.503 76.2841 138.852 80.9428 139.089 82.5657C142.552 83.489 145.944 85.1538 147.591 86.7347C146.838 88.2037 145.414 91.4914 144.367 93.8697C142.957 92.4987 141.477 91.3375 139.606 90.652C139.285 96.8776 133.477 98.1647 130.629 98.4445C123.831 99.102 120.522 95.4506 120.62 90.9458C120.745 85.1818 126.134 82.4817 132.025 82.062C131.788 76.5639 131.746 75.9483 131.718 73.1363C129.136 73.626 127.279 73.8079 126.511 73.8778C125.059 74.0177 124.11 74.0597 123.16 74.0597L123.328 66.449C124.947 66.491 127.251 66.603 131.83 65.9594C131.872 63.9169 131.97 59.6499 132.081 56.5021L140.025 57.1876L140.011 57.1736ZM129.973 88.1477C128.982 88.2457 126.79 88.7913 126.762 90.3022C126.734 91.5613 128.214 91.953 129.666 91.8131C130.029 91.7852 132.751 91.5193 132.793 89.141C132.793 88.9032 132.793 88.7073 132.709 88.5254C132.165 88.3296 131.369 88.0218 129.959 88.1617L129.973 88.1477Z" fill="#E60012"/>
<path d="M160.533 95.9822C158.592 93.6598 155.8 90.9177 151.514 88.5254L156.023 82.9154C160.672 85.4616 164.26 88.7073 165.768 90.1063L160.533 95.9822Z" fill="#E60012"/>
<path d="M186.402 53.7601C186.764 53.8721 186.988 54.04 186.974 54.3757C186.974 54.9633 186.094 55.1452 185.69 55.2291C182.758 65.4839 182.604 72.6608 182.562 74.1577C182.507 76.578 182.66 77.6832 182.772 78.9703C183.386 77.991 184.363 76.3542 184.978 75.3189C185.843 77.0677 186.848 78.4807 188.133 79.8098C187.197 81.3067 184.196 86.2872 184.112 92.0511L178.011 93.8559C177.425 91.5895 175.763 84.8742 175.987 74.5495C176.099 69.5969 176.783 60.8251 179.184 52.0813L186.374 53.7601H186.402ZM207.929 50.6263C208.152 50.6543 208.515 50.6683 208.501 51.102C208.501 51.6896 207.845 51.8854 207.44 51.9834C207.286 53.0606 207.063 54.4456 206.854 57.8452C210.4 56.824 211.949 56.1385 213.597 55.411L213.443 62.7278C212.396 63.1195 210.302 63.861 206.519 64.9382C206.421 69.7369 206.77 74.3956 207.007 76.0184C210.47 76.9418 213.862 78.6066 215.509 80.1875C214.755 81.6704 213.331 84.9441 212.284 87.3224C210.874 85.9514 209.395 84.7902 207.524 84.1047C207.203 90.3303 201.395 91.6174 198.547 91.8972C191.748 92.5547 188.44 88.9033 188.537 84.3985C188.663 78.6346 194.052 75.9345 199.943 75.5148C199.706 70.0167 199.664 69.4011 199.636 66.5891C197.053 67.0787 195.197 67.2606 194.429 67.3305C192.977 67.4704 192.028 67.5124 191.078 67.5124L191.246 59.9018C192.865 59.9438 195.169 60.0557 199.748 59.4121C199.79 57.3696 199.887 53.1026 199.999 49.9548L207.943 50.6403L207.929 50.6263ZM197.905 81.5865C196.914 81.6844 194.722 82.23 194.694 83.741C194.666 85.0001 196.146 85.3918 197.598 85.2519C197.961 85.2239 200.683 84.9581 200.725 82.5798C200.725 82.3419 200.725 82.1461 200.655 81.9502C200.111 81.7544 199.315 81.4466 197.905 81.5865Z" fill="#E60012"/>
<path d="M241.504 46.6111C241.909 46.6671 242.397 46.821 242.397 47.2967C242.397 47.8843 241.755 47.9822 241.392 48.0241C241.197 48.8216 240.345 52.3331 240.15 53.0326C244.338 51.8015 245.929 50.9201 247.716 49.9268L248.317 57.4675C246.907 58.083 244.296 59.1603 238.028 60.7272C236.087 67.0087 232.681 77.893 225.547 90.2323C223.676 89.1131 222.015 88.4416 218.79 87.2105C222.699 81.7543 227.655 71.9752 230.489 62.6158C227.725 63.1195 227.18 63.1754 222.197 63.7071L221.778 55.8167C223.132 55.7887 224.723 55.7327 227.027 55.5089C229.065 55.313 230.419 55.1311 232.416 54.7954C233.128 51.102 233.518 47.9122 233.84 45.5199L241.504 46.6251V46.6111ZM244.268 75.4728C243.095 77.1376 242.998 78.0609 242.984 78.4527C242.97 79.1382 243.277 79.39 243.766 79.6418C244.701 80.1315 247.325 80.1175 249.81 79.8796C254.515 79.418 257.894 78.1309 259.806 77.3195C259.653 78.2568 259.443 79.334 259.401 81.1248C259.359 82.8735 259.513 84.1606 259.583 85.1259C256.4 86.0073 253.315 86.553 250.187 86.8607C244.254 87.4343 236.394 87.2804 236.548 80.3833C236.59 78.4946 237.036 76.8998 238.446 73.8639L244.24 75.4868L244.268 75.4728ZM242.439 61.9583C246.627 60.6852 251.611 60.2095 252.463 60.1256C256.4 59.7479 258.215 59.9158 259.108 60.0137C258.759 63.6231 258.703 64.4066 258.578 67.6663C256.33 67.2606 254.152 67.2186 251.807 67.4424C249.14 67.6943 245.455 68.4917 242.272 69.2332L242.425 61.9583H242.439Z" fill="#E60012"/>
<path d="M279.295 52.0112C279.616 52.0812 279.965 52.1371 279.965 52.5708C279.965 53.1584 279.407 53.2563 278.904 53.3543C277.773 55.6347 276.489 58.6146 275.735 62.0282C279.826 58.6845 285.117 56.628 289.053 56.2502C296.843 55.4948 300.515 61.2867 300.39 67.0646C300.194 76.326 291.901 83.461 276.908 84.916C275.595 85.0419 274.465 85.0979 273.599 85.1398C273.39 82.4957 273.055 81.2226 271.645 77.1935C273.18 77.4313 274.758 77.6132 278.332 77.2774C288.607 76.2841 292.781 71.7653 292.865 67.6942C292.893 66.2812 292.334 62.8116 287.671 63.2593C281.194 63.8888 276.391 68.7994 273.055 72.6047L266.633 70.702C268.127 62.28 269.592 56.8658 271.826 50.1645L279.295 52.0112ZM277.061 40.9031C278.639 40.987 285.591 41.4347 292.167 44.8203C290.394 47.5624 289.207 49.7448 287.937 52.291C284.195 49.8008 278.709 48.1919 274.562 47.6323L277.061 40.9031Z" fill="#E60012"/>
<path d="M333.797 39.8818C334.062 40.0916 334.244 40.2735 334.23 40.5673C334.23 41.001 333.895 41.1269 333.672 41.1549C333.448 41.1829 333.183 41.1129 332.904 41.029C331.982 42.0363 324.458 48.9054 322.894 50.4583C320.772 52.5428 318.189 55.117 316.472 56.8798C314.992 58.4187 314.853 58.6285 314.839 59.0203C314.839 59.5099 315.006 59.6358 316.751 60.5312C316.891 60.6152 320.982 63.1754 324.988 66.1273C330.014 69.8486 332.136 72.115 334.16 74.7312C332.317 76.6478 330.824 78.4386 328.813 81.7822C326.887 78.8163 319.599 71.1077 306.435 63.1334C305.988 62.8815 304.927 62.0701 304.955 60.4193C304.983 59.1602 305.178 58.5586 309.841 54.2357C316.207 48.4018 322.168 42.1062 327.473 35.1671L333.783 39.8818H333.797Z" fill="#E60012"/>
<path d="M370.904 39.686C372.398 39.5461 373.222 39.1263 374.129 38.6507L377.815 41.7285C376.963 43.2674 374.059 50.1785 372.971 52.7387C365.627 70.1844 355.464 76.5499 351.429 79.0682C350.675 78.0749 349.447 76.5919 345.705 74.1016C352.658 70.3383 358.256 64.4765 360.671 61.1888C364.441 56.0824 366.646 50.0107 367.707 46.9608L356.385 48.052C353.384 52.9346 349.852 57.3975 345.929 61.4546C343.542 58.9224 342.662 57.999 340.512 56.7539C351.737 45.7017 354.78 36.8879 355.827 33.894L362.277 36.6641C362.458 36.748 362.863 36.9439 362.849 37.3356C362.849 37.8253 362.207 38.0211 361.746 38.119C360.992 39.6999 360.839 40.0917 360.518 40.7072L370.89 39.6999L370.904 39.686Z" fill="#E60012"/>
<path d="M398.058 33.2366C398.56 33.2366 399.105 33.1806 399.091 33.8102C399.091 34.3978 398.49 34.6916 398.295 34.8035L398.044 46.6392C397.765 59.3981 391.859 65.33 386.317 70.8561C384.376 68.5757 383.078 67.8342 380.314 66.1554C384.865 62.5739 387.057 59.3142 387.811 57.9851C388.369 57.0058 390.114 54.0399 390.24 47.8283L390.547 33.5723L398.058 33.2366ZM409.617 31.7257C410.12 31.7257 410.483 31.6977 410.469 32.1733C410.469 32.607 410.008 32.9008 409.589 33.1247L409.073 56.74C414.727 52.2772 419.25 45.7438 421.079 42.9038C421.833 45.5899 422.656 47.3526 424.415 49.8429C421.707 53.7321 415.871 60.6433 411.39 64.5045C409.547 66.0854 407.746 67.7642 405.946 69.3871L401.213 66.5471C401.339 65.232 401.45 64.0148 401.478 62.6438L402.148 32.0055L409.617 31.7117V31.7257Z" fill="#E60012"/>
<path d="M440.302 44.3026C442.927 46.1213 444.435 47.4364 446.431 49.1851C451.848 43.4912 454.458 39.6019 455.436 38.105L428.129 40.7351L428.282 33.5162L460.252 30.4244C461.243 30.3264 462.472 29.9208 463.435 29.4871L467.707 34.7893C466.367 36.0764 465.906 36.7479 465.431 37.3775C460.587 43.9388 456.832 48.2198 451.192 54.4314C452.169 55.4947 453.886 57.5093 455.143 59.7617C453.481 61.4685 450.801 64.2525 449.125 66.0013C447.562 62.9095 444.826 57.6631 435.221 50.3603L440.275 44.3026H440.302Z" fill="#E60012"/>
<path d="M471.462 40.8192L471.616 33.838L488.787 32.1872L489.053 20.2117L496.159 19.9179C496.424 19.8899 497.024 19.8899 497.01 20.4635C497.01 20.8552 496.55 21.135 496.131 21.3169L495.907 31.5017L512.758 29.8789L512.604 36.8599L495.893 38.4688C499.565 50.5982 507.634 55.3829 513.009 57.7192C509.128 61.2447 508.234 62.8676 507.634 64.0008C503.111 62.266 496.047 56.2223 492.124 47.6883C486.302 59.8597 478.875 64.5464 474.073 67.4284C472.956 64.8262 471.63 63.2593 469.41 61.4406C473.249 59.468 484.669 53.774 487.964 39.2243L471.476 40.8192H471.462Z" fill="#E60012"/>
<path d="M540.874 26.5632L552.657 25.43L552.573 29.599L540.79 30.7322L540.749 32.425L552.531 31.2918L552.433 35.5588L540.651 36.692L540.609 38.3848L555.868 36.9158L555.77 41.5745L541.782 42.9316C541.684 43.5192 540.818 43.6591 540.497 43.6871L540.469 45.1001L557.725 43.4352L557.613 48.4297L546.375 49.521C551.498 52.7527 556.817 53.4941 557.948 53.6341C556.608 55.075 555.714 56.3621 554.248 59.2721C550.158 58.2088 544.239 55.8305 540.302 52.1931L540.12 60.3913L533.601 61.0208L533.782 52.8226C531.339 55.2289 526.313 59.4959 519.961 62.5737C518.607 60.2793 517.42 59.1462 515.494 57.8731C518.998 56.572 522.781 55.1869 527.43 51.3537L516.248 52.4309L516.359 47.4364L533.936 45.7436L533.978 43.7011L521.888 44.8622L522.181 31.5716C521.762 32.1032 521.301 32.6209 520.045 33.908C517.923 32.0893 516.75 31.3758 514.963 30.7182C519.026 26.5492 522.474 22.0024 525.127 16.6302L530.697 17.9312C531.144 18.0292 531.646 18.1831 531.632 18.5608C531.632 19.0924 530.851 19.3162 530.348 19.4142C530.111 19.9178 530.013 20.1697 529.399 21.149L534.564 20.6453C535.36 19.3163 536.295 17.7214 537.021 15.8607L543.387 16.3084C543.89 16.3643 544.56 16.3923 544.546 16.9659C544.546 17.4556 543.848 17.7074 542.94 17.9872C542.703 18.4908 542.047 19.5681 541.768 19.9318L555.672 18.5888L555.561 23.4433L540.888 24.8564L540.846 26.5491L540.874 26.5632ZM534.131 37.3216L528.24 37.8952L528.198 39.588L534.089 39.0144L534.131 37.3216ZM534.257 31.3618L528.365 31.9354L528.324 33.6281L534.215 33.0545L534.257 31.3618ZM534.383 25.4999L528.491 26.0735L528.449 27.7663L534.341 27.1927L534.383 25.4999Z" fill="#E60012"/>
<path d="M592.835 31.2219L572.313 33.2085L572.369 30.5364C570.024 32.6069 568.544 33.908 564.788 36.3982C564.258 35.5308 563.351 33.824 560.209 30.7462C571.964 24.5346 576.85 15.8887 579.056 11.7057L587.195 11.5518C587.419 11.5238 587.921 11.6217 587.907 12.0694C587.907 12.3632 587.712 12.5731 587.167 13.0627C589.596 17.7214 598.866 23.8351 605.33 25.7797C603.752 27.4306 601.798 29.9907 600.932 32.439C597.624 31.012 594.594 29.0814 592.891 27.9482L592.821 31.2499L592.835 31.2219ZM574.603 54.9491L574.561 57.0756L567.902 57.7192L568.362 36.5801L596.674 33.852L596.214 54.9911L589.513 55.6347L589.554 53.5081L574.603 54.9491ZM589.68 47.1566L589.82 40.8051L574.868 42.2461L574.728 48.5976L589.68 47.1566ZM589.289 25.374C586.581 23.3594 585.478 22.1563 582.7 18.9525C578.707 24.1289 578.512 24.3947 576.348 26.6331L589.303 25.388L589.289 25.374Z" fill="#E60012"/>
<path d="M608.276 41.7845L615.884 41.043L615.703 49.2412L608.094 49.9827L608.276 41.7845ZM616.54 11.0342L616.289 22.3382L614.349 36.748L610.007 37.1677L608.639 23.0797L608.89 11.7757L616.54 11.0342Z" fill="#E60012"/>
</svg>
