<svg width="720" height="841" viewBox="0 0 720 841" fill="none" xmlns="http://www.w3.org/2000/svg">
<g clip-path="url(#clip0_2005_34981)">
<g style="mix-blend-mode:multiply">
<path d="M680.538 831.58L593.885 763.488C590.201 760.334 583.976 758.436 577.389 758.436H535.27C530.092 758.436 525.207 756.943 522.346 754.472L517.043 749.895C514.559 747.746 510.316 746.448 505.823 746.448H277.683C272.282 746.448 267.495 744.55 265.653 741.703C253.148 722.346 220.505 708.641 181.888 708.641C132.121 708.641 90.6159 731.431 89.1645 759.804C89.0947 761.227 89.1225 762.637 89.2621 764.018C89.5272 766.851 87.8245 769.657 84.6425 771.918L58.9356 790.2C53.6183 793.982 58.0424 799.467 66.416 799.467H69.5561C74.0221 799.467 76.4922 802.328 73.8406 804.435L39.6622 831.398C34.5264 835.446 39.2435 841 47.8404 841H672.137C680.552 841 685.311 835.655 680.552 831.594L680.538 831.58Z" fill="#9FA0A0"/>
</g>
</g>
<defs>
<clipPath id="clip0_2005_34981">
<rect width="720" height="841" fill="white"/>
</clipPath>
</defs>
</svg>
