<svg width="720" height="841" viewBox="0 0 720 841" fill="none" xmlns="http://www.w3.org/2000/svg">
<g clip-path="url(#clip0_2005_35133)">
<path d="M347.896 -46.9819H342.313V457.446H347.896V-46.9819Z" fill="#7D7D7D" stroke="#231815" stroke-width="2.09341" stroke-linecap="round" stroke-linejoin="round"/>
<path d="M364.644 -46.9819H359.062V457.446H364.644V-46.9819Z" fill="#7D7D7D" stroke="#231815" stroke-width="2.09341" stroke-linecap="round" stroke-linejoin="round"/>
<path d="M338.071 533.897C338.071 533.897 326.599 522.23 333.94 510.953C341.281 499.663 347.673 502.3 347.673 494.401H358.391C358.391 494.401 360.08 499.858 356.325 505.119C352.571 510.381 347.491 508.134 343.542 514.903C341.532 518.35 345.802 523.932 345.802 523.932L338.085 533.897H338.071Z" fill="#F39B3A" stroke="#231815" stroke-width="2.1911" stroke-linecap="round" stroke-linejoin="round"/>
<path d="M356.52 496.941H349.529C346.821 496.941 344.434 495.141 343.695 492.531L333.8 457.781C333.395 456.343 333.521 454.808 334.177 453.454L338.559 444.48C339.578 442.401 341.699 441.075 344.016 441.075H362.479C364.894 441.075 367.085 442.513 368.048 444.732L371.998 453.887C372.556 455.171 372.639 456.622 372.263 457.962L362.34 492.531C361.6 495.127 359.214 496.927 356.507 496.927L356.52 496.941Z" fill="#F39B3A" stroke="#231815" stroke-width="2.1911" stroke-linecap="round" stroke-linejoin="round"/>
<path d="M347.896 489.321C348.805 489.321 349.542 488.584 349.542 487.674C349.542 486.765 348.805 486.028 347.896 486.028C346.986 486.028 346.249 486.765 346.249 487.674C346.249 488.584 346.986 489.321 347.896 489.321Z" fill="#F39B3A" stroke="#231815" stroke-width="1.46539" stroke-linecap="round" stroke-linejoin="round"/>
<path d="M357.889 489.321C358.799 489.321 359.536 488.584 359.536 487.674C359.536 486.765 358.799 486.028 357.889 486.028C356.98 486.028 356.242 486.765 356.242 487.674C356.242 488.584 356.98 489.321 357.889 489.321Z" fill="#F39B3A" stroke="#231815" stroke-width="1.46539" stroke-linecap="round" stroke-linejoin="round"/>
<path d="M347.896 450.914C348.805 450.914 349.542 450.177 349.542 449.267C349.542 448.358 348.805 447.621 347.896 447.621C346.986 447.621 346.249 448.358 346.249 449.267C346.249 450.177 346.986 450.914 347.896 450.914Z" fill="#F39B3A" stroke="#231815" stroke-width="1.46539" stroke-linecap="round" stroke-linejoin="round"/>
<path d="M357.889 450.914C358.799 450.914 359.536 450.177 359.536 449.267C359.536 448.358 358.799 447.621 357.889 447.621C356.98 447.621 356.242 448.358 356.242 449.267C356.242 450.177 356.98 450.914 357.889 450.914Z" fill="#F39B3A" stroke="#231815" stroke-width="1.46539" stroke-linecap="round" stroke-linejoin="round"/>
<path d="M717.565 699.793L620.821 570.504C616.704 564.517 609.754 560.902 602.399 560.902H555.367C549.576 560.902 544.133 558.055 540.937 553.366L535.005 544.657C532.228 540.582 527.497 538.112 522.473 538.112H378.125C378.125 538.112 378.125 538.014 378.125 537.972C378.125 525.091 367.686 514.652 354.805 514.652C341.923 514.652 331.484 525.091 331.484 537.972C331.484 538.014 331.484 538.07 331.484 538.112H267.733C261.704 538.112 256.359 534.511 254.307 529.096C240.337 492.336 203.898 466.336 160.788 466.336C105.229 466.336 58.8804 509.599 57.2475 563.484C57.1638 566.177 57.2058 568.857 57.3453 571.495C57.6384 576.868 55.7403 582.213 52.1954 586.497L23.4879 621.206C17.5566 628.379 22.4831 638.791 31.8476 638.791H35.3506C40.3329 638.791 43.0962 644.234 40.1376 648.211L1.98158 699.416C-3.75436 707.106 1.52108 717.642 11.1089 717.642H708.158C717.551 717.642 722.882 707.51 717.551 699.779L717.565 699.793ZM354.149 544.462C349.166 544.462 345.119 540.414 345.119 535.432C345.119 530.45 349.166 526.403 354.149 526.403C359.131 526.403 363.178 530.45 363.178 535.432C363.178 540.414 359.131 544.462 354.149 544.462Z" fill="white" stroke="#231815" stroke-width="2.1911" stroke-miterlimit="10"/>
<path d="M335.907 677.184C334.553 677.184 333.939 676.193 334.539 674.979L364.629 614.088C365.229 612.874 364.615 611.883 363.261 611.883H321.016C319.662 611.883 319.02 610.879 319.578 609.65L329.082 588.842C329.641 587.614 331.204 586.609 332.558 586.609H408.828C410.181 586.609 410.851 587.628 410.335 588.87L374.007 674.909C373.477 676.151 371.942 677.17 370.588 677.17H335.907V677.184Z" fill="#E60012"/>
<path d="M387.364 676.472C386.01 676.472 385.284 675.44 385.759 674.17L393.7 652.635C394.174 651.365 395.653 650.333 397.007 650.333H419.072C420.425 650.333 421.444 649.23 421.347 647.876L420.3 633.934C420.202 632.58 419.002 631.478 417.662 631.478H404.948C403.595 631.478 402.869 630.431 403.329 629.161L409.4 612.47C409.861 611.2 411.34 610.153 412.694 610.153H453.39C454.743 610.153 455.944 611.256 456.055 612.609L457.423 629.022C457.535 630.375 456.516 631.478 455.162 631.478H445.993C444.639 631.478 443.676 632.581 443.858 633.92L445.714 647.89C445.895 649.23 447.151 650.333 448.491 650.333H472.537C473.891 650.333 474.603 651.365 474.128 652.635L466.034 674.183C465.56 675.453 464.066 676.486 462.712 676.486H387.364V676.472Z" fill="#E60012"/>
<path d="M556.706 677.449C555.353 677.449 553.413 676.737 552.38 675.858L525.64 653.04C524.607 652.161 523.477 652.51 523.114 653.808L517.253 675.035C516.89 676.333 515.494 677.407 514.14 677.407H476.752C475.398 677.407 474.672 676.375 475.147 675.105L497.03 616.015C497.505 614.745 496.779 613.712 495.425 613.712H466.229C464.875 613.712 463.661 612.609 463.522 611.27L461.233 588.982C461.093 587.642 462.084 586.539 463.438 586.539H525.235C526.589 586.539 528.027 587.6 528.445 588.884L534.307 607.334C534.712 608.618 534.712 610.725 534.279 612.009L530.999 621.988C530.58 623.272 531.097 625.016 532.158 625.854L594.807 675.802C595.867 676.64 595.616 677.338 594.276 677.338L556.706 677.449Z" fill="#E60012"/>
<path d="M627.477 677.351C626.124 677.351 624.491 676.374 623.835 675.188L608.86 647.792C608.218 646.606 606.571 645.629 605.218 645.629H587.647C586.293 645.629 584.758 644.61 584.228 643.368L577.487 627.64C576.956 626.398 577.626 625.379 578.98 625.379H596.174C597.528 625.379 598.114 624.402 597.5 623.202L591.206 611.158C590.578 609.958 588.959 608.981 587.605 608.981H568.932C567.578 608.981 566.978 609.971 567.578 611.172L574.04 623.983C574.654 625.184 574.04 626.174 572.686 626.174H550.342C548.988 626.174 547.523 625.128 547.09 623.844L535.088 588.898C534.656 587.614 535.395 586.567 536.749 586.567H601.729C603.082 586.567 604.799 587.488 605.539 588.619L662.744 675.258C663.484 676.388 662.996 677.309 661.642 677.309H627.463L627.477 677.351Z" fill="#E60012"/>
<path d="M265.471 677.379C264.117 677.379 262.47 676.416 261.8 675.244L236.372 630.124C235.703 628.952 236.275 627.989 237.628 627.989H265.582C266.936 627.989 268.611 628.938 269.309 630.096L273.384 636.837C274.082 637.995 275.128 637.939 275.714 636.725L286.558 613.879C287.145 612.651 286.503 611.66 285.149 611.66H235.186C233.832 611.66 233.176 610.641 233.721 609.413L242.82 588.828C243.364 587.586 244.927 586.581 246.267 586.581L320.332 586.679C321.686 586.679 322.328 587.684 321.769 588.926L291.638 655.036C291.08 656.264 291.22 658.204 291.96 659.334L302.399 675.342C303.138 676.472 302.636 677.407 301.282 677.407H265.457L265.471 677.379Z" fill="#E60012"/>
<path d="M71.6079 677.17C70.2541 677.17 69.7656 676.249 70.5192 675.132L111.215 614.605C111.969 613.488 111.48 612.567 110.127 612.567H95.4449C94.0912 612.567 92.3466 613.474 91.5651 614.577L81.3771 628.882C80.5956 629.984 78.851 630.892 77.4973 630.892H48.7199C47.3662 630.892 46.9476 630.026 47.7849 628.952L79.4372 588.647C80.2746 587.586 82.0609 586.707 83.4146 586.707H156.363C157.717 586.707 158.247 587.656 157.549 588.8L105.047 675.063C104.349 676.221 102.66 677.156 101.306 677.156H71.6079V677.17Z" fill="#E60012"/>
<path d="M209.368 646.006C208.014 646.048 207.4 645.085 208 643.871L235.368 588.228C235.968 587.014 235.34 586.023 234 586.023H212.982C211.629 586.023 210.024 587.014 209.41 588.214L164.332 676.43C163.718 677.63 164.332 678.621 165.671 678.635L216.583 678.914C217.937 678.914 219.556 677.951 220.17 676.737L235.284 647.457C235.898 646.257 235.312 645.308 233.958 645.336L209.396 645.992L209.368 646.006Z" fill="#E60012"/>
<path d="M202.376 588.2C203.004 587 202.404 586.023 201.05 586.023H181.051C179.698 586.023 178.037 586.972 177.339 588.144L143.37 645.769C142.686 646.927 141.011 647.89 139.658 647.89H132.01C130.656 647.89 128.981 648.839 128.269 649.983L112.792 675.356C112.094 676.514 112.625 677.449 113.964 677.449H153.642C154.995 677.449 156.6 676.458 157.228 675.258L167.946 654.408C168.561 653.207 169.063 652.217 169.063 652.217C169.063 652.217 169.565 651.24 170.193 650.039L202.348 588.2H202.376Z" fill="#E60012"/>
<path d="M183.521 571.271C185.154 571.271 188.587 571.215 188.81 571.215C189.466 571.215 189.494 571.397 189.075 572.067C188.447 573.099 188.14 573.616 187.512 574.635C187.107 575.304 186.87 575.486 186.2 575.486C185.977 575.486 182.572 575.43 180.911 575.43H176.347C174.659 575.43 170.89 575.486 170.667 575.486C169.997 575.486 169.983 575.304 170.444 574.635C170.779 574.132 170.946 573.881 171.295 573.379C171.812 572.625 172.063 572.416 173.012 572.011C173.905 571.62 174.659 571.257 175.566 570.783C184.693 566.052 188.852 563.512 190.359 561.111C191.378 559.506 191.001 558.39 188.852 558.39C187.149 558.39 184.986 559.325 183.256 560.427C182.795 560.72 182.544 560.86 182.362 560.86C182.181 560.86 182.125 560.72 182.027 560.455C181.748 559.534 181.609 559.074 181.358 558.152C181.302 557.887 181.302 557.72 181.427 557.511C181.539 557.329 181.79 557.162 182.223 556.896C185.405 554.998 189.131 553.714 192.229 553.714C197.281 553.714 198.412 556.575 196.123 560.316C193.75 564.195 188.629 567.447 182.46 570.713C182.083 570.922 181.916 571.034 181.86 571.118C181.804 571.201 181.958 571.257 182.334 571.257H183.563L183.521 571.271Z" fill="#231815"/>
<path d="M217.28 564.21C213.512 571.453 206.604 575.668 200.658 575.668C194.713 575.668 192.675 571.983 196.806 565.061C200.519 558.837 206.855 553.784 213.344 553.784C218.508 553.784 220.881 557.287 217.28 564.21ZM201.956 565.2C199.695 569.108 200.268 571.132 203.184 571.132C206.255 571.132 209.786 568.438 211.977 564.377C214.084 560.469 213.358 558.557 210.665 558.557C207.19 558.557 204.008 561.656 201.956 565.187V565.2Z" fill="#231815"/>
<path d="M227.204 571.271C228.837 571.271 232.256 571.215 232.479 571.215C233.135 571.215 233.191 571.397 232.884 572.067C232.423 573.099 232.2 573.616 231.74 574.635C231.433 575.304 231.237 575.486 230.567 575.486C230.344 575.486 226.925 575.43 225.264 575.43H220.7C219.012 575.43 215.244 575.486 215.02 575.486C214.35 575.486 214.308 575.304 214.657 574.635C214.909 574.132 215.048 573.881 215.299 573.379C215.69 572.625 215.899 572.416 216.793 572.011C217.63 571.62 218.314 571.257 219.137 570.783C227.497 566.052 231.223 563.512 232.34 561.111C233.093 559.506 232.535 558.39 230.386 558.39C228.683 558.39 226.673 559.325 225.124 560.427C224.706 560.72 224.482 560.86 224.301 560.86C224.12 560.86 224.036 560.72 223.896 560.455C223.464 559.534 223.254 559.074 222.85 558.152C222.738 557.887 222.71 557.72 222.822 557.511C222.905 557.329 223.115 557.162 223.519 556.896C226.394 554.998 229.897 553.714 233.01 553.714C238.062 553.714 239.653 556.575 237.978 560.316C236.247 564.195 231.656 567.447 226.018 570.713C225.669 570.922 225.515 571.034 225.473 571.118C225.431 571.201 225.585 571.257 225.976 571.257H227.204V571.271Z" fill="#231815"/>
<path d="M284.898 558.041C285.651 559.144 285.777 560.637 285.386 562.13C284.465 565.689 281.213 567.741 277.585 568.815C276.929 569.024 275.422 569.401 274.794 569.401C274.235 569.401 274.068 568.899 273.775 567.796C273.663 567.364 273.523 566.485 273.663 565.982C273.789 565.577 274.096 565.452 274.417 565.396C276.468 565.103 280.111 564.349 280.711 562.214C280.99 561.195 280.418 560.428 279.273 560.428C277.166 560.428 273.649 561.977 271.5 563.023C271.109 563.205 270.76 563.428 270.649 563.805C270.551 564.098 270.62 564.307 270.69 564.531C271.43 567.364 272.281 570.169 273.412 572.89C273.51 573.1 273.677 573.504 273.593 573.77C273.398 574.439 269.755 575.961 268.988 575.961C268.639 575.961 268.499 575.779 268.332 575.207C268.025 574.244 267.746 573.016 267.495 571.941C267.09 570.336 266.671 568.731 266.336 567.126C266.238 566.75 266.155 566.373 265.624 566.373C265.164 566.373 262.749 567.95 262.177 568.327C261.982 568.438 261.703 568.62 261.521 568.62C260.782 568.62 259.874 565.647 260.112 564.935C260.209 564.67 260.391 564.586 261.758 563.917C262.317 563.623 263.057 563.275 264.047 562.772C264.494 562.535 264.899 562.312 265.052 561.865C265.248 561.279 264.452 558.767 264.187 558.236C264.047 557.943 263.964 557.762 264.033 557.567C264.145 557.246 265.08 556.953 266.42 556.52C267.215 556.255 269.211 555.529 269.574 555.529C269.755 555.529 269.923 555.641 269.867 555.822C269.825 555.934 269.672 556.157 269.602 556.255C269.56 556.311 269.49 556.436 269.462 556.492C269.365 556.785 269.56 558.655 269.63 559.004C269.686 559.297 269.881 559.437 270.244 559.437C270.579 559.437 270.997 559.227 271.625 558.934C271.919 558.795 272.226 558.641 272.574 558.502C273.133 558.264 273.328 558.181 273.426 557.888C273.551 557.483 272.728 557.246 271.388 556.813C271.123 556.729 270.774 556.604 270.9 556.199C271.025 555.794 271.835 554.761 272.17 554.357C273.091 553.212 273.412 552.835 273.83 552.835C274.333 552.835 276.524 553.771 277.04 554.008C277.766 554.329 278.715 554.831 278.576 555.292C278.478 555.641 278.157 555.99 278.087 556.227C278.017 556.464 278.213 556.604 278.422 556.604C278.534 556.604 278.701 556.576 278.827 556.548C279.259 556.492 280.013 556.436 280.404 556.436C281.911 556.436 284.074 556.813 284.898 558.041Z" fill="#231815"/>
<path d="M305.524 552.403C305.664 552.431 305.929 552.459 305.873 552.696C305.845 552.835 305.719 553.017 305.58 553.198C305.091 553.784 304.882 554.371 304.757 555.04C304.687 555.417 304.896 555.71 305.287 555.71C305.817 555.71 308.804 555.068 309.599 554.887C310.088 554.775 310.604 554.65 310.841 554.65C311.26 554.65 311.302 555.236 311.316 555.557C311.344 556.283 311.358 557.315 311.232 558.041C311.12 558.739 310.744 558.864 309.753 559.032C308.218 559.297 306.599 559.534 305.036 559.73C304.296 559.827 303.947 559.911 303.835 560.511C303.751 560.916 303.905 561.237 304.366 561.237C304.784 561.237 307.143 560.762 307.673 560.623C307.924 560.567 308.231 560.511 308.441 560.511C308.678 560.511 308.79 560.748 308.846 561.125C308.943 561.739 308.72 563.135 308.58 563.93C308.427 564.866 307.45 564.991 304.575 565.27C303.333 565.396 303.054 565.535 302.956 566.066C302.649 567.671 302.649 567.908 303.542 568.201C304.77 568.606 308.664 570.281 308.441 571.648C308.329 572.29 306.64 574.481 305.622 574.481C305.175 574.481 304.449 573.895 303.486 573.141C303.235 572.932 302.607 572.444 302.23 572.444C301.784 572.444 301.603 572.765 301.379 573.086C299.942 575.36 297.248 576.003 294.75 576.003C293.536 576.003 292.015 575.793 291.052 575.095C289.963 574.3 289.531 572.988 289.852 571.648C290.145 570.392 291.121 569.164 292.377 568.438C293.913 567.531 295.839 567.238 297.444 567.238H297.779C298.211 567.238 298.476 566.973 298.56 566.596C298.686 566.01 298.323 565.801 298.016 565.801C297.457 565.801 295.518 565.94 294.164 565.94C292.991 565.94 292.698 565.898 292.684 565.117C292.684 564.391 292.643 563.428 292.88 562.395C292.978 561.963 293.131 561.544 293.676 561.544C294.555 561.544 295.825 561.684 297.276 561.684H298.099C298.853 561.684 299.439 561.628 299.579 560.986C299.663 560.581 299.495 560.26 299.006 560.26C297.988 560.26 296.118 560.372 294.708 560.372H293.801C292.601 560.372 291.638 560.344 291.554 559.939C291.429 559.213 291.75 557.72 291.959 556.869C292.057 556.464 292.21 555.962 292.768 555.962C293.326 555.962 296.383 556.227 298.337 556.227H298.993C299.704 556.227 300.249 556.171 300.374 555.557C300.43 555.292 300.64 553.645 300.64 553.129C300.64 552.877 300.667 552.57 300.723 552.305C300.793 551.956 301.016 551.872 301.365 551.872C301.924 551.872 304.784 552.249 305.496 552.375L305.524 552.403ZM293.983 571.704C293.829 572.402 294.987 572.43 295.531 572.43C296.383 572.43 297.471 572.22 297.667 571.229C297.75 570.825 297.374 570.797 296.788 570.797C296.16 570.797 294.178 570.853 293.983 571.704Z" fill="#231815"/>
<path d="M332.027 552.347C332.753 553.129 333.743 554.245 334.595 555.236C334.734 555.375 334.943 555.641 334.929 555.906C334.929 556.087 334.734 556.115 334.385 556.115C334.092 556.115 333.869 556.227 333.618 556.408C332.306 557.343 330.98 558.278 329.654 559.269C328.147 560.414 326.709 561.516 325.272 562.688C324.937 562.954 324.602 563.247 324.56 563.651C324.504 564.237 325.411 565.2 325.9 565.731C327.77 567.657 329.919 569.611 332.278 571.774C332.864 572.304 333.269 572.89 333.241 573.239C333.171 574.146 330.087 576.603 329.222 576.603C329.026 576.603 328.635 576.309 328.342 575.961C326.765 573.979 324.574 571.788 322.676 569.792C321.671 568.745 320.387 567.392 319.648 566.261C319.075 565.396 318.796 564.531 318.936 563.456C319.048 562.633 319.368 561.935 319.941 561.265C320.904 560.121 323.151 558.571 324.518 557.58C327.072 555.738 328.845 554.189 330.826 551.942C330.924 551.831 331.05 551.705 331.231 551.705C331.469 551.705 331.706 551.998 332.027 552.347ZM337.902 561.432C337.874 561.991 336.325 563.065 335.948 563.065C335.823 563.065 335.655 562.884 335.348 562.479C334.65 561.488 333.953 560.762 333.59 560.344C333.45 560.204 333.283 560.051 333.297 559.869C333.325 559.465 334.957 558.432 335.32 558.432C335.585 558.432 337.93 561 337.902 561.404V561.432ZM339.228 556.338C339.396 556.52 339.968 557.078 340.414 557.594C340.973 558.236 341.433 558.767 341.433 559.004C341.405 559.562 339.884 560.637 339.549 560.637C339.368 560.637 339.2 560.4 339.116 560.288C338.46 559.465 337.818 558.683 337.121 557.957C337.037 557.874 336.842 557.664 336.856 557.525C336.883 557.092 338.488 556.031 338.809 556.031C338.921 556.031 339.102 556.213 339.242 556.352L339.228 556.338Z" fill="#231815"/>
<path d="M356.241 553.533C356.241 553.714 356.129 553.826 356.018 553.966C355.585 554.468 355.208 555.515 355.222 555.836C355.222 556.157 355.46 556.31 355.767 556.31C356.688 556.31 359.59 555.375 360.553 555.026C360.791 554.943 361.167 554.789 361.404 554.789C361.851 554.789 361.949 555.166 362.186 556.101C362.354 556.771 362.577 557.859 362.605 558.529C362.633 559.143 362.27 559.269 361.111 559.492C359.451 559.813 356.771 560.19 355.027 560.372C354.58 560.427 354.064 560.483 353.826 560.902C353.701 561.083 353.505 561.921 353.505 562.158C353.505 562.395 353.687 562.507 353.938 562.507C354.064 562.507 354.12 562.479 354.245 562.423C355.459 561.837 356.869 561.516 358.237 561.516C362.256 561.516 365.061 564.182 365.242 568.033C365.563 574.69 357.832 576.156 352.04 576.156C350.7 576.156 350.505 575.919 350.226 574.788C350.1 574.286 349.765 572.834 349.765 572.332C349.765 571.927 350.114 571.606 350.561 571.606C351.008 571.606 352.096 571.871 353.547 571.871C356.283 571.871 360.888 571.174 360.791 567.894C360.749 566.373 359.632 565.521 358.446 565.521C356.325 565.521 353.812 566.694 352.361 568.089C352.054 568.41 351.663 568.885 351.398 569.234C351.175 569.513 350.896 569.82 350.519 569.82C349.738 569.82 348.523 569.206 347.937 568.801C347.449 568.452 347.016 568.159 347.03 567.601C347.03 567.196 347.295 566.749 347.49 566.401C347.937 565.549 349.291 562.451 349.305 561.641C349.305 561.321 349.04 561.111 348.733 561.111C348.579 561.111 346.402 561.376 345.313 561.376C344.741 561.376 344.476 561.167 344.336 560.651C344.155 559.981 343.904 558.278 343.932 557.58C343.946 557.148 344.071 556.827 344.588 556.827C344.825 556.827 346.904 557.036 349.096 557.036C350.435 557.036 350.714 556.952 351.161 552.891C351.259 552.193 351.314 551.663 351.803 551.663C352.361 551.663 356.241 552.738 356.255 553.561L356.241 553.533Z" fill="#231815"/>
<path d="M381.474 558.181C382.018 558.181 382.353 557.804 382.297 557.301C382.269 557.12 382.269 557.022 382.241 556.827C382.06 555.515 381.851 553.784 381.53 552.5C381.516 552.361 381.474 552.235 381.46 552.124C381.418 551.775 381.641 551.691 381.934 551.691C382.576 551.691 384.488 551.872 385.172 551.956C385.297 551.984 385.409 551.984 385.521 551.984C386.079 552.04 386.442 552.068 386.484 552.389C386.512 552.57 386.386 552.71 386.274 552.794C385.981 553.17 386.023 553.519 386.093 553.994C386.219 554.957 386.344 555.892 386.512 556.827C386.526 556.966 386.54 557.036 386.553 557.176C386.623 557.65 387.126 558.055 387.6 558.055H388.619C389.666 558.055 392.387 557.873 392.778 557.873C393.49 557.873 393.783 558.167 393.992 559.45C394.09 560.051 394.132 560.344 394.229 560.944C394.397 561.963 394.202 562.228 393.322 562.228C392.862 562.228 392.373 562.2 391.927 562.2C391.047 562.2 390.196 562.228 389.345 562.228H388.312C387.796 562.228 387.405 562.66 387.475 563.163C387.838 565.507 388.033 566.68 388.396 569.038C388.535 569.792 388.633 570.56 388.731 571.313C389.01 573.393 388.773 574.816 386.484 575.43C385.437 575.723 384.265 575.807 383.148 575.807H382.925C382.283 575.807 381.669 575.779 381.404 575.305C380.943 574.551 380.274 572.765 380.19 571.913C380.162 571.62 380.19 571.383 380.581 571.383C380.706 571.383 381.125 571.411 381.278 571.439C381.683 571.509 382.144 571.523 382.576 571.523C384.181 571.523 384.209 571.229 384.083 570.155C383.846 568.424 383.734 567.559 383.511 565.828C383.483 565.591 383.316 565.424 383.064 565.424C382.813 565.424 382.716 565.535 382.576 565.717C381.111 567.671 378.208 570.364 376.142 571.913C375.724 572.234 374.607 573.114 374.133 573.114C373.379 573.114 370.602 571.034 370.56 570.336C370.546 570.071 370.965 569.834 371.23 569.694C374.063 568.173 376.715 566.038 378.78 563.819C378.976 563.609 379.548 563.037 379.534 562.8C379.52 562.66 379.338 562.395 379.031 562.395C377.719 562.423 377.063 562.423 375.752 562.451C374.719 562.479 372.277 562.591 371.816 562.591C371.021 562.591 370.797 562.325 370.672 560.539C370.644 560.106 370.63 559.897 370.588 559.464C370.518 558.446 370.588 558.236 371.425 558.236C372.207 558.236 372.988 558.292 373.756 558.292C374.258 558.292 374.775 558.264 375.277 558.264C377.775 558.222 379.017 558.194 381.516 558.153L381.474 558.181Z" fill="#231815"/>
<path d="M416.447 561.46C418.234 561.46 420.132 561.349 420.411 561.349C421.192 561.349 421.402 561.67 421.625 562.521C421.779 563.079 421.848 563.358 422.002 563.916C422.435 565.521 422.532 566.024 421.555 566.024C420.355 566.024 418.918 565.94 417.564 565.94H403.398C402.045 565.94 400.607 566.024 399.477 566.024C398.43 566.024 398.332 565.466 398.053 563.916C397.955 563.372 397.914 563.107 397.816 562.577C397.663 561.698 397.69 561.349 398.472 561.349C398.891 561.349 400.607 561.46 402.519 561.46C408.088 561.46 410.865 561.46 416.434 561.46H416.447Z" fill="#231815"/>
<path d="M432.148 555.124C432.72 555.18 433.222 555.236 433.292 555.473C433.334 555.585 433.251 555.71 433.209 555.766C433.041 556.059 433.041 556.269 433.237 556.883C433.348 557.232 433.488 557.58 433.599 557.929C434.381 560.358 435.134 563.051 435.413 565.41C435.762 568.368 434.953 571.397 433.278 573.532C433.027 573.853 432.65 574.384 432.231 574.384C431.562 574.384 429.496 573.365 428.742 572.974C428.38 572.793 427.752 572.513 427.654 572.123C427.584 571.857 427.78 571.662 427.947 571.481C431.52 567.796 430.808 563.889 429.189 558.571C428.784 557.232 428.059 555.208 428.017 555.096C427.933 554.831 428.073 554.803 428.31 554.803C428.924 554.803 431.339 555.04 432.12 555.124H432.148ZM443.103 565.661C443.522 566.861 443.731 567.266 444.276 567.266C445.392 567.266 448.644 562.94 449.258 562.005C449.356 561.865 449.481 561.628 449.746 561.628C450.165 561.628 451.031 562.535 451.686 563.205C452.091 563.609 452.998 564.545 453.18 565.019C453.389 565.549 452.775 566.275 452.398 566.736C452.342 566.819 452.245 566.917 452.203 566.973C451.212 568.173 450.165 569.345 449.063 570.476C448.127 571.439 447.095 572.346 446.188 573.365C445.964 573.63 445.629 574.035 445.253 574.035C444.778 574.035 442.573 573.141 442.015 572.89C441.401 572.625 440.424 572.192 440.201 571.523C440.005 570.936 439.67 569.624 439.126 567.992C437.912 564.321 437.311 562.493 436.097 558.823C435.902 558.236 435.623 557.273 435.316 556.366C435.093 555.696 434.869 554.999 434.702 554.678C434.66 554.594 434.618 554.538 434.59 554.44C434.521 554.231 434.66 554.203 434.841 554.203C434.897 554.203 436.139 554.315 436.391 554.343C436.879 554.398 439.042 554.622 439.461 554.692C439.712 554.733 439.907 554.775 439.991 555.013C440.047 555.194 439.949 555.306 439.866 555.417C439.67 555.71 439.838 556.157 439.949 556.534C440.228 557.399 440.536 558.292 440.829 559.158C441.736 561.753 442.182 563.051 443.089 565.647L443.103 565.661Z" fill="#231815"/>
<path d="M469.899 572.527C470.318 573.49 470.778 574.453 471.211 575.444C471.825 576.854 471.783 576.965 469.704 576.965H468.252C466.968 576.965 466.522 576.826 466.201 576.058C465.712 574.886 465.293 573.756 464.805 572.583C461.972 565.842 460.562 562.465 457.729 555.724C457.227 554.524 456.529 553.003 456.152 552.096C455.999 551.719 455.971 551.537 456.389 551.537C456.738 551.537 460.339 551.914 461.121 552.124C461.316 552.179 461.525 552.305 461.595 552.473C461.665 552.612 461.623 552.738 461.581 552.821C461.525 553.031 461.456 553.254 461.721 553.868C462.712 556.129 463.214 557.273 464.205 559.534C464.275 559.674 464.414 559.939 464.749 559.939C464.93 559.939 465.056 559.827 465.21 559.827C465.447 559.827 465.935 560.037 466.535 560.288C467.764 560.874 469.424 561.809 469.955 562.102C470.973 562.688 472.858 563.791 473.848 564.475C474.044 564.614 474.197 564.768 474.281 564.935C474.56 565.521 473.402 567.88 472.69 567.88C472.411 567.88 471.964 567.587 471.699 567.406C470.959 566.945 467.471 564.782 466.982 564.782C466.55 564.782 466.703 565.186 466.829 565.48C468.057 568.285 468.671 569.68 469.899 572.486V572.527Z" fill="#231815"/>
<path d="M490.219 554.385C490.986 554.385 491.67 554.357 492.229 554.357C493.875 554.357 494.852 554.566 495.662 555.99C496.234 556.98 496.722 557.943 497.266 558.906C499.932 563.596 501.272 565.94 503.938 570.616C504.44 571.495 504.998 572.374 505.5 573.239C506.17 574.412 506.17 574.579 504.607 574.579H502.919C501.844 574.579 501.593 574.439 501.216 573.965C500.742 573.379 500.295 573.323 499.22 573.323H487.693C487.204 573.351 486.702 573.379 486.199 573.379C485.446 573.379 485.083 572.849 484.134 570.923C483.994 570.657 483.939 570.518 483.799 570.253C483.338 569.318 483.213 568.941 483.952 568.941C484.301 568.941 484.901 568.969 485.32 568.997C490.163 568.997 492.591 568.997 497.434 568.997C497.909 568.997 498.076 568.648 497.839 568.215C497.518 567.629 497.35 567.336 497.029 566.75C496.792 566.317 496.22 565.954 495.759 565.954H485.167C484.427 565.954 483.436 566.01 482.85 566.01C482.11 566.01 481.859 565.689 481.231 564.433C481.008 563.972 480.896 563.749 480.659 563.289C479.961 561.893 479.905 561.656 480.575 561.656C480.938 561.656 481.845 561.712 482.906 561.712H493.415C493.875 561.712 494.043 561.363 493.791 560.93C493.47 560.344 493.303 560.051 492.982 559.465C492.745 559.032 492.187 558.669 491.74 558.669H482.934C481.817 558.697 480.617 558.627 479.556 558.725C479.333 558.739 479.124 558.753 478.886 558.753C478.077 558.753 477.826 558.25 477.1 556.771C476.905 556.38 476.807 556.199 476.625 555.808C475.997 554.552 475.928 554.287 476.584 554.287C477.002 554.287 477.421 554.315 477.854 554.343C482.78 554.343 485.25 554.343 490.191 554.343L490.219 554.385Z" fill="#231815"/>
<path d="M518.271 555.822C518.829 555.822 519.317 555.794 519.834 555.682C519.903 555.655 519.973 555.627 520.057 555.627C520.713 555.627 523.169 557.441 523.588 558.055C523.686 558.195 523.713 558.292 523.699 558.404C523.727 558.836 523.853 559.339 523.979 559.841C524.37 561.6 524.676 563.316 524.774 564.977C524.774 565.214 524.788 565.41 524.97 565.675C525.221 566.052 525.598 566.261 526.016 566.457C526.505 566.694 528.361 567.573 528.612 567.95C528.961 568.48 528.556 571.048 527.761 571.048C527.538 571.048 527.342 570.936 527.091 570.783C526.589 570.49 525.025 569.583 524.621 569.583C524.342 569.583 524.23 569.764 524.188 569.932C523.616 571.592 522.611 573.058 521.215 574.23C520.615 574.788 518.327 576.365 517.266 576.365C516.526 576.365 515.228 575.486 514.545 575.026C514 574.649 512.437 573.56 512.2 573.183C512.004 572.862 512.325 572.751 512.939 572.569C513.065 572.513 513.205 572.486 513.358 572.43C516.749 571.355 519.429 567.936 518.913 567.113C518.745 566.847 518.466 566.708 518.173 566.582C517.322 566.205 515.787 565.675 514.893 565.382C514.545 565.27 513.735 565.005 513.539 564.684C513.246 564.224 513.261 561.558 514.21 561.558C514.628 561.558 517.796 562.814 518.508 563.107C518.745 563.191 519.038 563.316 519.248 563.316C519.764 563.316 519.708 562.856 519.624 562.298C519.583 561.949 519.387 560.776 519.164 560.428C518.843 559.925 518.145 559.869 517.754 559.869H513.665C512.828 559.869 512.618 559.925 512.549 560.483C512.381 561.795 511.934 563.344 511.474 564.545C511.32 564.893 511.055 565.563 510.539 565.563C510.176 565.563 508.85 565.005 507.678 564.419C506.603 563.889 505.613 563.302 505.473 563.079C505.306 562.786 505.529 562.549 505.654 562.409C507.538 560.162 508.181 555.403 507.19 551.775C507.106 551.51 506.966 551.049 507.287 551.049C507.524 551.049 509.911 551.845 511.544 552.417C512.2 552.626 512.744 552.821 512.967 552.919C513.121 552.975 513.246 553.031 513.302 553.129C513.4 553.268 513.372 553.338 513.19 553.449C512.842 553.631 512.87 553.854 512.911 554.385C512.911 554.65 512.884 555.082 513.079 555.375C513.302 555.724 513.623 555.808 513.944 555.836H518.299L518.271 555.822Z" fill="#231815"/>
<path d="M84.3223 565.284C84.3223 565.284 84.2805 566.052 84.2805 567.21C84.2526 568.368 84.2944 569.918 84.3642 571.467C84.4898 574.565 84.9364 577.663 84.9364 577.663L83.0384 578.082C83.0384 578.082 82.3266 574.97 81.9219 571.802C81.7265 570.225 81.5451 568.634 81.4753 567.447C81.3637 566.261 81.3496 565.466 81.3496 565.466L84.3223 565.298V565.284Z" fill="#C9251D"/>
<path d="M88.4949 543.038C88.4949 543.038 88.2578 543.75 87.9088 544.811C87.7414 545.341 87.5041 545.969 87.3226 546.639C87.1412 547.323 86.9318 548.048 86.7364 548.774C86.6387 549.137 86.5411 549.5 86.4434 549.863C86.3597 550.225 86.2898 550.588 86.2061 550.923C86.0526 551.621 85.9131 552.263 85.7875 552.821C85.6479 553.38 85.5781 553.84 85.5222 554.175C85.4664 554.496 85.4386 554.691 85.4386 554.691H80.2051C80.2051 554.691 80.2051 554.482 80.2051 554.105C80.2051 553.729 80.2051 553.212 80.233 552.57C80.2609 551.942 80.2888 551.202 80.3306 550.407C80.3446 550.016 80.3726 549.597 80.3865 549.179C80.4284 548.76 80.4702 548.341 80.4981 547.923C80.5818 547.071 80.6656 546.234 80.7354 545.439C80.8052 544.643 80.9447 543.903 81.0284 543.275C81.2099 542.005 81.3354 541.154 81.3354 541.154L88.4809 543.038H88.4949Z" fill="#C9251D"/>
<path d="M98.9761 523.709C98.9761 523.709 98.5157 524.267 97.8877 525.174C97.2597 526.068 96.3942 527.24 95.6266 528.496C95.2359 529.11 94.8173 529.724 94.4823 530.324C94.1474 530.924 93.8263 531.483 93.5472 531.957C93.2681 532.432 93.0448 532.836 92.8913 533.115C92.7518 533.408 92.668 533.562 92.668 533.562L87.2949 531.329C87.2949 531.329 87.3647 531.148 87.5043 530.827C87.6439 530.506 87.8533 530.059 88.1045 529.515C88.3557 528.971 88.6487 528.342 88.9558 527.659C89.2768 526.989 89.6536 526.291 90.0165 525.579C90.7143 524.156 91.5375 522.788 92.1376 521.755C92.7238 520.722 93.1705 520.067 93.1705 520.067L98.9901 523.695L98.9761 523.709Z" fill="#C9251D"/>
<path d="M114.398 508.902C114.398 508.902 113.826 509.306 112.946 509.92C112.095 510.562 110.979 511.428 109.876 512.335C109.332 512.795 108.801 513.27 108.285 513.703C108.034 513.926 107.783 514.135 107.559 514.331C107.336 514.54 107.127 514.749 106.931 514.931C106.15 515.67 105.633 516.173 105.633 516.173L96.0176 509.32C96.0176 509.32 96.548 508.609 97.3295 507.534C97.5249 507.269 97.7482 506.976 97.9715 506.669C98.2087 506.376 98.46 506.055 98.7251 505.734C99.2555 505.092 99.8136 504.394 100.386 503.71C101.544 502.37 102.744 501.03 103.665 500.053C104.614 499.104 105.243 498.463 105.243 498.463L114.398 508.902Z" fill="#C9251D"/>
<path d="M132.987 499.746C132.987 499.746 132.345 499.97 131.368 500.291C130.88 500.458 130.307 500.626 129.707 500.863C129.107 501.1 128.465 501.351 127.823 501.603C127.502 501.728 127.181 501.854 126.86 501.979C126.553 502.119 126.246 502.259 125.953 502.384C125.353 502.649 124.809 502.901 124.334 503.11C123.846 503.305 123.483 503.529 123.204 503.668C122.938 503.808 122.771 503.891 122.771 503.891L117.565 495.699C117.565 495.699 117.733 495.588 118.026 495.406C118.319 495.225 118.724 494.932 119.254 494.653C119.77 494.359 120.371 494.011 121.013 493.648C121.334 493.466 121.668 493.271 122.003 493.075C122.352 492.894 122.701 492.713 123.05 492.531C123.762 492.168 124.46 491.819 125.13 491.485C125.785 491.15 126.441 490.898 126.972 490.647C128.06 490.159 128.786 489.838 128.786 489.838L132.987 499.719V499.746Z" fill="#C9251D"/>
<path d="M152.874 496.844C152.874 496.844 152.707 496.844 152.414 496.83C152.12 496.83 151.702 496.844 151.213 496.858C150.711 496.858 150.125 496.886 149.511 496.9C148.883 496.9 148.227 496.983 147.557 497.025C146.887 497.081 146.217 497.109 145.589 497.179C144.961 497.262 144.389 497.332 143.886 497.388C143.384 497.444 142.965 497.5 142.672 497.541C142.379 497.583 142.212 497.625 142.212 497.625L137.146 481.911C137.146 481.911 137.369 481.827 137.746 481.701C138.136 481.576 138.695 481.408 139.351 481.199C140.021 480.99 140.802 480.752 141.639 480.487C142.477 480.236 143.384 480.027 144.291 479.789C145.198 479.566 146.105 479.301 146.957 479.133C147.822 478.952 148.618 478.799 149.315 478.659C150.013 478.519 150.585 478.408 150.99 478.324C151.395 478.268 151.632 478.226 151.632 478.226L152.888 496.858L152.874 496.844Z" fill="#C9251D"/>
<path d="M172.119 500.026C172.119 500.026 171.505 499.844 170.584 499.565C170.124 499.426 169.58 499.258 168.993 499.091C168.7 499.007 168.407 498.895 168.1 498.825C167.793 498.756 167.472 498.686 167.151 498.63C165.881 498.351 164.611 498.072 163.648 497.862C162.671 497.723 162.029 497.639 162.029 497.639L162.671 484.074C162.671 484.074 163.467 484.102 164.639 484.158C165.811 484.297 167.388 484.479 168.951 484.66C169.342 484.702 169.733 484.744 170.124 484.8C170.514 484.841 170.877 484.939 171.24 484.995C171.966 485.135 172.65 485.26 173.222 485.372C174.38 485.595 175.162 485.735 175.162 485.735L172.092 500.04L172.119 500.026Z" fill="#C9251D"/>
<path d="M188.867 508.636C188.867 508.636 188.742 508.539 188.532 508.371C188.421 508.288 188.295 508.19 188.142 508.064C187.988 507.967 187.807 507.841 187.611 507.715C186.83 507.199 185.783 506.515 184.736 505.831C183.662 505.203 182.545 504.617 181.722 504.143C181.303 503.919 180.968 503.71 180.717 503.584C180.466 503.473 180.326 503.403 180.326 503.403L188.142 483.781C188.142 483.781 188.379 483.851 188.783 483.948C189.188 484.074 189.76 484.269 190.458 484.507C191.84 484.981 193.696 485.581 195.524 486.265C197.325 487.019 199.125 487.786 200.479 488.358C200.814 488.498 201.135 488.637 201.4 488.749C201.665 488.889 201.902 489 202.098 489.098C202.474 489.293 202.698 489.405 202.698 489.405L188.867 508.636Z" fill="#C9251D"/>
<path d="M201.748 521.546C201.748 521.546 201.385 521.057 200.855 520.332C200.353 519.564 199.529 518.685 198.748 517.764C198.357 517.303 197.952 516.829 197.589 516.396C197.185 515.991 196.808 515.615 196.487 515.294C195.845 514.638 195.412 514.205 195.412 514.205L206.158 500.43C206.158 500.43 206.772 500.933 207.68 501.673C208.14 502.049 208.67 502.482 209.243 502.942C209.787 503.445 210.359 503.989 210.931 504.52C212.076 505.608 213.248 506.641 214.016 507.548C214.811 508.413 215.355 508.985 215.355 508.985L201.748 521.532V521.546Z" fill="#C9251D"/>
<path d="M209.857 537.163C209.857 537.163 209.647 536.618 209.34 535.809C209.187 535.404 209.019 534.916 208.824 534.413C208.642 533.897 208.447 533.339 208.182 532.822C207.693 531.762 207.205 530.687 206.856 529.878C206.437 529.096 206.158 528.58 206.158 528.58L229.116 510.981C229.116 510.981 229.269 511.176 229.549 511.525C229.828 511.874 230.232 512.363 230.693 512.963C231.572 514.205 232.745 515.866 233.917 517.54C234.517 518.364 235.033 519.243 235.536 520.066C236.024 520.89 236.499 521.657 236.889 522.313C237.671 523.639 238.201 524.518 238.201 524.518L209.871 537.177L209.857 537.163Z" fill="#C9251D"/>
<path d="M193.794 524.923L154.772 547.965C154.033 547.658 153.265 547.42 152.442 547.267C146.203 546.122 140.23 550.239 139.072 556.464C137.927 562.702 142.045 568.675 148.269 569.834C154.507 570.978 160.48 566.861 161.639 560.637C161.946 559.004 161.876 557.399 161.513 555.878L193.794 524.909V524.923Z" fill="#C9251D"/>
<path d="M249.031 562.018C253.553 562.018 256.177 564.14 255.228 568.354C254.376 572.192 250.999 576.491 243.812 576.491C241.788 576.491 239.541 575.988 238.09 575.109C237.741 574.886 237.573 574.705 237.657 574.425C237.699 574.272 237.811 574.09 237.964 573.839L239.75 571.034C240.043 570.601 240.211 570.42 240.406 570.42C240.518 570.42 240.672 570.504 240.895 570.699C242.025 571.62 243.658 572.011 245.082 572.011C248.124 572.011 249.729 570.601 250.19 568.689C250.65 566.777 249.101 565.912 246.938 565.912C245.821 565.912 244.858 566.066 244.105 566.303C243.658 566.456 243.365 566.512 243.1 566.512C242.835 566.512 242.597 566.457 242.221 566.331L241.635 566.149C241.104 565.968 240.979 565.828 241.09 565.382C241.118 565.298 241.16 565.145 241.23 564.991C241.607 564 241.928 563.149 242.304 562.074L243.644 558.25C244.021 557.162 244.342 556.269 244.621 555.32C244.83 554.664 244.97 554.524 245.528 554.524C245.891 554.524 248.92 554.58 250.399 554.58H252.143C253.609 554.58 256.819 554.524 257 554.524C257.586 554.524 257.656 554.692 257.516 555.32L256.888 558.139C256.749 558.781 256.595 558.962 255.995 558.962C255.8 558.962 252.576 558.906 251.083 558.906H248.613C247.887 558.906 247.719 559.018 247.468 559.758L247.063 561.014C246.98 561.237 246.854 561.586 246.84 561.67C246.756 562.018 246.84 562.13 247.175 562.13C247.426 562.13 248.264 562.018 249.017 562.018H249.031Z" fill="#231815"/>
<path d="M671.524 690.163H627.45C621.593 690.163 616.844 694.909 616.844 700.763C616.844 706.617 621.593 711.362 627.45 711.362H671.524C677.382 711.362 682.13 706.617 682.13 700.763C682.13 694.909 677.382 690.163 671.524 690.163Z" fill="white"/>
<path d="M625.72 697.727C625.72 697.197 625.72 696.973 625.664 696.666H627.283C627.241 696.917 627.227 697.155 627.227 697.699V698.16H629.125V697.727C629.125 697.197 629.125 696.973 629.069 696.694H630.688C630.646 696.987 630.632 697.225 630.632 697.755V698.174H631.191C631.693 698.174 632.056 698.16 632.363 698.118V699.667C632.042 699.625 631.679 699.611 631.191 699.611H630.632V701.356H631.358C631.93 701.356 632.433 701.342 632.726 701.3V702.849C632.405 702.807 631.916 702.793 631.358 702.793H630.018C630.786 703.588 631.428 703.965 632.81 704.482C632.391 704.942 632.167 705.235 631.819 705.835C630.395 705.179 629.656 704.649 628.623 703.505L629.893 702.793H626.306L627.632 703.491C626.669 704.621 625.915 705.207 624.589 705.807C624.268 705.277 624.003 704.956 623.557 704.51C624.408 704.189 624.966 703.896 625.497 703.491C625.79 703.267 625.943 703.128 626.222 702.779H624.966C624.408 702.779 623.906 702.793 623.585 702.835V701.286C623.906 701.328 624.394 701.342 624.966 701.342H625.678V699.597H625.148C624.659 699.597 624.324 699.611 623.989 699.653V698.104C624.338 698.146 624.659 698.16 625.148 698.16H625.678V697.713L625.72 697.727ZM629.139 701.356V699.611H627.241V701.356H629.139Z" fill="#231815"/>
<path d="M641.602 699.821C642.02 699.821 642.23 699.821 642.495 699.779V701.063C642.3 701.049 642.104 701.035 641.769 701.035H640.402V701.384H641.42C641.895 701.384 641.993 701.384 642.188 701.356V702.486C641.979 702.472 641.839 702.458 641.42 702.458H640.402V702.793H641.42C641.881 702.793 642.007 702.793 642.188 702.765V703.896C641.965 703.882 641.839 703.868 641.434 703.868H640.402V704.245H641.783C642.272 704.245 642.355 704.245 642.537 704.217V705.529C642.09 705.487 641.713 705.473 641.336 705.473H637.736V705.822H636.243C636.298 705.487 636.299 705.235 636.299 704.635V702.709C636.299 702.709 636.299 702.416 636.313 702.193C636.159 702.388 636.047 702.542 635.922 702.654C635.74 702.193 635.684 702.067 635.545 701.802V704.635C635.545 705.096 635.559 705.417 635.601 705.822H634.01C634.065 705.347 634.065 705.166 634.065 704.677V702.305C634.065 702.081 634.065 701.565 634.079 701.23C633.884 701.523 633.702 701.733 633.563 701.872C633.465 701.118 633.34 700.602 633.103 699.96C633.689 699.29 634.065 698.564 634.386 697.574C634.498 697.169 634.61 696.75 634.638 696.429L636.103 696.918V696.848H637.568C637.554 697.071 637.54 697.294 637.54 697.49V697.839H638.461V697.294C638.461 696.973 638.448 696.708 638.406 696.541H639.913C639.885 696.75 639.871 696.987 639.871 697.308V697.839H640.806V697.462C640.806 697.197 640.806 697.099 640.792 696.834H642.299C642.271 697.085 642.258 697.308 642.258 697.615V698.453C642.258 698.941 642.257 698.969 642.285 699.151C642.062 699.151 641.95 699.151 641.629 699.151H639.718L641.016 699.374C640.89 699.611 640.862 699.667 640.764 699.834H641.588L641.602 699.821ZM636.815 699.151C636.522 699.151 636.466 699.151 636.145 699.165C636.159 698.969 636.159 698.885 636.159 698.411V697.406C636.159 697.253 636.159 697.113 636.145 696.974C636.089 697.127 636.061 697.197 636.005 697.378C635.866 697.811 635.754 698.16 635.545 698.62V701.021C636.215 700.393 636.675 699.779 636.926 699.137H636.815V699.151ZM638.447 699.36C638.447 699.36 638.392 699.444 638.378 699.472C638.266 699.639 638.266 699.653 638.14 699.807H639.257C639.438 699.486 639.508 699.374 639.578 699.137H637.094L638.461 699.36H638.447ZM639.02 701.384V701.035H637.722V701.384H639.02ZM637.722 702.793H639.02V702.458H637.722V702.793ZM637.722 704.245H639.02V703.868H637.722V704.245Z" fill="#231815"/>
<path d="M646.263 700.128H644.268V698.132H646.263V700.128ZM644.268 704.161V702.165H646.263V704.161H644.268Z" fill="#231815"/>
<path d="M651.944 699.792H651.12C650.855 699.792 650.646 699.793 650.465 699.82V698.592C650.646 698.62 650.827 698.634 651.12 698.634H651.944V698.104H650.116V699.095C650.116 702.765 649.864 704.272 648.971 705.877C648.566 705.305 648.218 704.942 647.743 704.593C648.483 703.365 648.65 702.193 648.65 698.062C648.65 697.504 648.636 697.099 648.594 696.708C648.943 696.75 649.167 696.764 649.739 696.764H655.684C656.27 696.764 656.508 696.764 656.801 696.708C656.759 697.127 656.745 697.406 656.745 697.978V704.482C656.745 705.012 656.591 705.347 656.284 705.515C656.047 705.64 655.642 705.696 654.944 705.696C654.721 705.696 654.526 705.696 654.121 705.696C654.051 705.277 654.009 705.068 653.87 704.691H651.832V705.152H650.353C650.381 704.9 650.409 704.663 650.409 704.328V702.472C650.409 702.151 650.409 701.998 650.367 701.788C650.73 701.802 650.785 701.802 651.092 701.802H654.051C654.512 701.802 654.609 701.802 654.833 701.788C654.805 702.026 654.791 702.193 654.791 702.514V704.3H654.916C655.237 704.3 655.279 704.286 655.279 704.105V698.132H653.381V698.662H654.247C654.54 698.662 654.721 698.662 654.916 698.62V699.848C654.693 699.834 654.512 699.82 654.247 699.82H653.381V700.253H654.205C654.665 700.253 654.889 700.253 655.098 700.211V701.509C654.861 701.481 654.637 701.467 654.219 701.467H651.148C650.73 701.467 650.493 701.467 650.269 701.509V700.211C650.479 700.239 650.688 700.253 651.148 700.253H651.944V699.82V699.792ZM651.832 703.491H653.367V702.961H651.832V703.491Z" fill="#231815"/>
<path d="M659.954 701.132C660.191 701.146 660.317 701.16 660.679 701.16C660.596 700.909 660.512 700.714 660.358 700.463L661.642 700.267H659.689V704.621C659.689 705.236 659.688 705.487 659.744 705.794H658.139C658.181 705.445 658.195 705.096 658.195 704.524V699.835C658.195 699.444 658.195 699.206 658.153 698.941C658.46 698.969 658.739 698.983 659.172 698.983H661.545V698.523H659.088C658.6 698.523 658.195 698.537 657.818 698.578V697.113C658.111 697.155 658.544 697.169 659.088 697.169H661.545C661.545 696.862 661.531 696.736 661.489 696.499H663.136C663.094 696.722 663.08 696.848 663.08 697.169H665.62C666.164 697.169 666.611 697.155 666.89 697.113V698.578C666.541 698.537 666.122 698.523 665.62 698.523H663.08V698.983H665.661C666.122 698.983 666.346 698.983 666.597 698.941C666.569 699.22 666.555 699.458 666.555 699.835V704.328C666.555 705.501 666.248 705.766 664.936 705.766C664.671 705.766 664.35 705.766 663.987 705.738C663.959 705.208 663.875 704.873 663.652 704.328C664.057 704.384 664.406 704.398 664.685 704.398C664.964 704.398 665.034 704.342 665.034 704.147V700.281H662.996L664.266 700.477C664.229 700.542 664.173 700.667 664.099 700.853C664.043 700.951 664.015 701.035 663.931 701.174C664.391 701.174 664.517 701.174 664.754 701.146V702.402C664.475 702.389 664.336 702.375 663.903 702.375H663.024V702.849H663.889C664.336 702.849 664.433 702.849 664.685 702.821V704.077C664.392 704.049 664.308 704.049 663.861 704.049H663.024V704.398C663.024 704.929 663.038 705.263 663.08 705.626H661.517C661.558 705.263 661.572 704.929 661.572 704.398V704.049H660.917C660.498 704.049 660.331 704.049 660.024 704.077V702.821C660.317 702.849 660.442 702.849 660.958 702.849H661.586V702.375H660.651C660.275 702.375 660.163 702.375 659.954 702.402V701.146V701.132ZM662.535 701.16C662.717 700.811 662.814 700.574 662.898 700.267H661.74C661.922 700.602 661.991 700.798 662.117 701.16H662.535Z" fill="#231815"/>
<path d="M671.259 697.141C671.259 696.918 671.245 696.68 671.203 696.513H672.906C672.864 696.708 672.85 696.904 672.85 697.141V697.518H675.362C675.948 697.518 676.325 697.504 676.73 697.462V698.969C676.339 698.927 676.074 698.913 675.404 698.913H668.9C668.44 698.913 668.007 698.927 667.561 698.969V697.462C668.007 697.504 668.356 697.518 668.928 697.518H671.259V697.155V697.141ZM671.259 699.709C671.259 699.472 671.259 699.332 671.231 699.123H672.85C672.836 699.234 672.822 699.374 672.822 699.709H675.097C675.557 699.709 675.823 699.709 676.102 699.667C676.074 699.946 676.06 700.183 676.06 700.56V703.505C676.06 704.663 675.739 704.942 674.399 704.942C674.176 704.942 673.939 704.942 673.534 704.915C673.478 704.328 673.408 704.049 673.185 703.463C673.478 703.505 673.841 703.547 674.05 703.547C674.469 703.547 674.553 703.491 674.553 703.226V701.091H672.836V704.468C672.836 704.998 672.85 705.389 672.906 705.808H671.203C671.259 705.389 671.273 704.984 671.273 704.468V701.077H669.724V703.756C669.724 704.356 669.724 704.649 669.78 705.026H668.119C668.161 704.635 668.175 704.245 668.175 703.77V700.574C668.175 700.267 668.174 699.988 668.133 699.681C668.482 699.709 668.775 699.723 669.221 699.723H671.273L671.259 699.709Z" fill="#231815"/>
<path d="M584.857 687.916H588.221V686.646H581.815V687.916H583.364V688.949H581.494V690.233H583.364V691.545C583.364 692.647 583.936 693.191 585.136 693.191H588.249V691.893H585.695C584.955 691.893 584.843 691.656 584.843 691.112V690.233H588.542V688.949H584.843V687.93L584.857 687.916Z" fill="#231815"/>
<path d="M594.781 686.381H593.943V687.456H594.781V686.381Z" fill="#231815"/>
<path d="M595.939 686.381H595.102V687.456H595.939V686.381Z" fill="#231815"/>
<path d="M591.027 691.14V689.214H595.758V687.916H591.027V686.507H589.562V691.405C589.562 692.689 590.162 693.15 591.543 693.15H595.856V691.838H591.878C591.292 691.838 591.013 691.698 591.013 691.126" fill="#231815"/>
<path d="M594.418 698.23H589.506V699.681H594.418V698.23Z" fill="#231815"/>
<path d="M598.269 686.576H596.79V690.637H598.269V686.576Z" fill="#231815"/>
<path d="M601.451 689.661C601.451 690.414 601.2 691.921 597.655 691.921V693.205C602.01 693.205 602.959 691.363 602.959 689.521V686.576H601.451V689.661Z" fill="#231815"/>
<path d="M610.341 686.632H604.284V687.916H610.341V686.632Z" fill="#231815"/>
<path d="M603.824 689.968H606.853V690.303C606.853 691.196 606.099 691.963 604.508 691.963V693.275C606.992 693.15 608.402 692.033 608.402 690.093V689.968H610.746V688.698H603.824V689.968Z" fill="#231815"/>
<path d="M611.444 690.931L613.915 690.079V693.205H615.31V689.563L617.278 688.921V687.609L611.444 689.661V690.931Z" fill="#231815"/>
<path d="M590.161 696.457C590.161 695.885 589.686 695.424 589.114 695.424C588.528 695.424 588.067 695.885 588.067 696.457C588.067 697.029 588.542 697.49 589.114 697.49C589.686 697.49 590.161 697.029 590.161 696.457ZM589.114 696.82C588.919 696.82 588.751 696.667 588.751 696.457C588.751 696.262 588.919 696.094 589.114 696.094C589.309 696.094 589.477 696.248 589.477 696.457C589.477 696.653 589.309 696.82 589.114 696.82Z" fill="#231815"/>
<path d="M599.065 695.689H597.586V698.425H599.065V695.689Z" fill="#231815"/>
<path d="M596.846 695.689H595.366V698.425H596.846V695.689Z" fill="#231815"/>
<path d="M600.432 698.774C600.432 699.527 600.181 701.035 596.636 701.035V702.319C600.99 702.319 601.939 700.477 601.939 698.634V695.676H600.432V698.76V698.774Z" fill="#231815"/>
<path d="M582.862 695.62L581.662 702.263H583.169L584.356 695.62H582.862Z" fill="#231815"/>
<path d="M586.017 695.62L587.203 702.263H588.71L587.51 695.62H586.017Z" fill="#231815"/>
<path d="M584.383 704.775H581.438V705.403H582.527V708.124H583.295V705.403H584.383V704.775Z" fill="#DF2B2B"/>
<path d="M587.258 706.994C587.133 707.287 586.867 707.51 586.546 707.566C586.491 707.566 586.421 707.58 586.365 707.58C586.309 707.58 586.239 707.58 586.184 707.566C585.863 707.51 585.597 707.301 585.472 706.994C585.332 706.645 585.332 706.268 585.472 705.919C585.597 705.626 585.863 705.403 586.184 705.347C586.239 705.347 586.295 705.333 586.365 705.333C586.435 705.333 586.491 705.333 586.546 705.347C586.867 705.403 587.133 705.626 587.258 705.919C587.398 706.268 587.398 706.645 587.258 706.994ZM586.365 704.677C585.36 704.677 584.551 705.473 584.551 706.464C584.551 707.455 585.36 708.25 586.365 708.25C587.37 708.25 588.179 707.455 588.179 706.464C588.179 705.473 587.37 704.677 586.365 704.677Z" fill="#DF2B2B"/>
<path d="M588.193 704.775H589.101L589.938 706.212L590.789 704.775H591.696L590.329 706.882V708.124H589.561V706.882L588.193 704.775Z" fill="#DF2B2B"/>
<path d="M593.524 707.58C593.524 707.58 593.65 707.58 593.706 707.566C594.027 707.51 594.292 707.287 594.418 706.994C594.557 706.645 594.557 706.268 594.418 705.919C594.292 705.626 594.027 705.403 593.706 705.347C593.65 705.347 593.594 705.333 593.524 705.333C593.455 705.333 593.399 705.333 593.343 705.347C593.022 705.403 592.757 705.612 592.631 705.919C592.492 706.268 592.492 706.645 592.631 706.994C592.757 707.287 593.022 707.51 593.343 707.566C593.399 707.566 593.468 707.58 593.524 707.58ZM591.71 706.45C591.71 705.473 592.519 704.663 593.524 704.663C594.529 704.663 595.339 705.459 595.339 706.45C595.339 707.441 594.529 708.236 593.524 708.236C592.519 708.236 591.71 707.441 591.71 706.45Z" fill="#DF2B2B"/>
<path d="M600.572 706.589L600.069 705.263L599.567 706.589H600.572ZM600.823 707.385H599.371L599.092 708.124H598.241L599.623 704.761H600.586L601.967 708.124H601.116L600.837 707.385H600.823Z" fill="#DF2B2B"/>
<path d="M598.45 704.775H595.506V705.403H596.594V708.124H597.362V705.403H598.45V704.775Z" fill="#DF2B2B"/>
<path d="M570.622 708.124H566.38V709.325H563.867V702.681H570.622V708.124ZM557.127 686.646V692.703H563.881V695.131H570.636V692.703H577.391V686.646H557.127ZM567.817 695.885L567.245 696.974L566.673 695.885H563.867V701.928H565.961V700.435L566.729 701.928H567.747L568.515 700.435V701.928H570.608V695.885H567.789" fill="#DF2B2B"/>
<path d="M346.571 689.968H342.301L342.608 688.516H340.249L339.942 689.968H335.518L335.057 692.117H343.277C341.673 694.043 338.156 696.039 334.011 696.597L333.425 696.667L332.908 699.081L333.788 698.969C335.379 698.732 336.927 698.341 338.393 697.783L337.765 700.77H340.123L341.017 696.541C341.226 696.415 341.589 696.178 341.84 696.025L341.589 697.211L345.008 699.29L345.539 696.778L342.998 695.215C344.478 694.085 345.664 692.745 346.208 691.587V691.545L346.236 691.503L346.571 689.982V689.968Z" fill="#0073BD"/>
<path d="M352.796 696.974L353.201 692.563H351.289L350.856 696.974H352.796Z" fill="#0073BD"/>
<path d="M355.113 692.438L354.624 694.727C354.108 697.127 353.117 698.621 349.726 698.621H347.59L347.186 700.532H349.489C353.508 700.532 355.755 698.732 356.578 694.88L357.094 692.438H355.099H355.113Z" fill="#0073BD"/>
<path d="M349.934 696.974L350.339 692.563H348.441L347.98 696.974H349.934Z" fill="#0073BD"/>
<path d="M365.357 695.606L365.971 689.284H363.542L362.9 695.606H365.357Z" fill="#0073BD"/>
<path d="M368.873 689.074L368.008 693.136C367.227 696.764 364.994 698.313 360.528 698.313H358.476L357.974 700.658H360.193C365.887 700.658 369.306 698.188 370.353 693.303L371.246 689.088H368.859L368.873 689.074Z" fill="#0073BD"/>
<path d="M361.462 695.606L362.049 689.284H359.634L358.992 695.606H361.462Z" fill="#0073BD"/>
<path d="M378.74 695.969H378.377C377.009 695.969 374.762 695.969 373.562 695.382L374.078 692.954H372.376L370.757 700.56H372.445L373.199 697.015C374.441 697.49 376.395 697.532 378.167 697.532H378.391L378.726 695.955L378.74 695.969Z" fill="#0073BD"/>
<path d="M380.108 693.052L379.759 694.671H385.523L385.244 695.969H379.871L379.536 697.546H384.909L384.616 698.927H378.852L378.503 700.56H385.928L387.533 693.052H380.108Z" fill="#0073BD"/>
<path d="M389.696 693.052L389.64 693.275C389.361 694.559 388.9 695.369 388.202 695.773L388.105 695.829L387.714 697.643L388.202 697.462C389.556 696.946 390.421 695.717 390.812 694.671H394.539L394.203 696.29C393.324 695.927 392.25 695.773 390.701 695.773H390.603L390.268 697.35H390.491C391.873 697.35 392.864 697.476 393.645 697.783C393.087 698.578 392.082 698.941 390.533 698.941H388.161L387.812 700.56H390.338C394.134 700.56 395.39 698.439 395.781 696.652L396.548 693.052H389.696Z" fill="#0073BD"/>
<path d="M412.835 689.368L410.463 700.532H421.572L423.944 689.368H412.835ZM419.981 698.509H412.905L414.413 691.405H421.488L419.981 698.509Z" fill="#0073BD"/>
<path d="M408.83 689.353L406.834 698.718H404.154L406.262 688.851H404.335L402.242 698.718H399.66L401.656 689.353H399.73L397.357 700.518H408.383L410.755 689.353H408.83Z" fill="#0073BD"/>
<path d="M218.761 690.526H215.035L213.43 699.151H217.156L217.798 695.704H224.874L225.237 693.792H218.147L218.761 690.526Z" fill="#F18900"/>
<path d="M233.527 690.526H227.539L227.246 692.257H233.248L232.982 693.889H226.981L226.702 695.62H232.703L232.41 697.434H226.032L225.739 699.151H232.117H234.741H236.206L237.616 690.526H236.527H233.527Z" fill="#F18900"/>
<path d="M246.575 690.526H242.751H242.067H239.485L238.438 696.178H241.718L242.444 692.229H246.254L245.821 694.615H242.751L242.458 696.178H245.528L244.984 699.179H248.585L250.189 690.526H249.436H246.575Z" fill="#F18900"/>
<path d="M259.61 691.084H257.028L257.642 689.591H254.474L253.86 691.084H251.683L251.39 692.801H253.176L250.622 699.123H253.776L256.33 692.801H259.303L258.424 697.685H255.535L255.255 699.193H261.27V699.179H261.536L262.987 691.084H259.61Z" fill="#F18900"/>
<path d="M272.854 690.847H264.997L263.531 698.955H263.671H274.64H274.766L276.217 690.847H272.84H272.854ZM272.533 692.577L271.682 697.239H267.215L268.053 692.577H272.533Z" fill="#F18900"/>
<path d="M276.734 696.22H284.257L284.578 694.42H277.055L276.734 696.22Z" fill="#F18900"/>
<path d="M286.225 691.601H297.041L297.32 690.024H286.518L286.225 691.601Z" fill="#F18900"/>
<path d="M296.845 692.522H286.015L285.693 694.029H293.188L292.392 698.132H287.731L287.438 699.639H295.477L296.845 692.522Z" fill="#F18900"/>
<path d="M312.224 691.489H309.266C309.266 691.489 309.154 691.545 309.14 691.601L308.149 697.141C308.093 697.476 307.926 697.392 307.926 697.392H306.461L307.717 690.484C307.717 690.484 307.689 690.386 307.633 690.386H304.674C304.674 690.386 304.562 690.442 304.549 690.512L303.293 697.392H301.702C301.367 697.392 301.492 697.141 301.492 697.141L302.483 691.587C302.483 691.587 302.455 691.489 302.4 691.489H299.441C299.441 691.489 299.329 691.545 299.315 691.601L297.989 699.053C297.989 699.053 298.017 699.165 298.073 699.165H310.857C310.857 699.165 310.968 699.109 310.982 699.039L312.308 691.601C312.308 691.601 312.28 691.503 312.224 691.503" fill="#F18900"/>
<path d="M327.437 690.526H315.086C315.086 690.526 314.974 690.582 314.96 690.638L313.467 699.249C313.467 699.249 313.481 699.36 313.551 699.36L316.635 699.332C316.635 699.332 316.76 699.29 316.76 699.221L316.83 698.83H322.175L322.106 699.235C322.106 699.235 322.134 699.346 322.189 699.346L325.902 699.318C325.902 699.318 326.013 699.276 326.027 699.207L327.521 690.596C327.521 690.526 327.493 690.498 327.437 690.498M317.207 696.709L317.905 692.689H323.25L322.552 696.709H317.207Z" fill="#F18900"/>
<path d="M39.8726 688.977C39.8447 689.158 39.8168 689.34 39.7889 689.521C39.5935 690.554 39.4121 691.587 39.2167 692.633C39.0353 693.624 38.8538 694.629 38.6584 695.62C38.5049 696.415 38.3654 697.211 38.2119 698.006C38.2119 698.048 38.2119 698.076 38.2119 698.132H39.3562C39.8865 695.285 40.4169 692.424 40.9472 689.577H45.1899C45.162 689.702 45.148 689.828 45.1201 689.954C44.8968 691.14 44.6875 692.312 44.4642 693.499C44.199 694.894 43.9477 696.29 43.6826 697.685C43.5151 698.579 43.3476 699.472 43.1802 700.365C43.1802 700.393 43.1662 700.435 43.1522 700.463H28.0938C28.0938 700.463 28.0938 700.407 28.0938 700.379C28.1077 700.337 28.1355 700.309 28.1495 700.267C28.3448 699.22 28.5403 698.174 28.7357 697.127C28.945 695.997 29.1543 694.866 29.3636 693.75C29.6148 692.396 29.8661 691.028 30.1173 689.674C30.1173 689.647 30.1313 689.605 30.1452 689.577H34.3879C34.1228 691.014 33.8715 692.438 33.5924 693.861C33.3272 695.271 32.8107 698.034 32.8247 698.146H33.9413C33.9413 698.146 33.9552 698.076 33.9692 698.048C34.1088 697.294 34.2484 696.541 34.3879 695.787C34.5833 694.754 34.7786 693.708 34.974 692.675C35.1694 691.628 35.3648 690.568 35.5602 689.521C35.5881 689.354 35.6159 689.172 35.6439 689.005C37.0674 689.005 38.477 689.005 39.9005 689.005L39.8726 688.977Z" fill="#880025"/>
<path d="M77.7637 700.449C77.7916 700.267 77.8334 700.1 77.8613 699.918C77.9729 699.346 78.0986 698.774 78.2242 698.202C78.2242 698.188 78.2242 698.174 78.2381 698.132C78.5312 698.132 78.8243 698.132 79.1174 698.132C79.4104 698.132 79.7035 698.132 79.9966 698.132H85.286C85.5791 698.132 85.8722 698.132 86.1792 698.132C86.3048 697.476 86.4165 696.834 86.5421 696.164C86.3467 696.164 86.1652 696.164 85.9838 696.164C85.8024 696.164 85.607 696.164 85.4255 696.164H78.6708C78.8244 695.383 78.9918 694.615 79.1593 693.847H86.9746C87.1002 693.192 87.2259 692.55 87.3515 691.894C87.2957 691.894 87.2398 691.894 87.198 691.894C86.5281 691.894 85.8441 691.894 85.1743 691.894C83.36 691.894 81.5458 691.894 79.7315 691.894C79.6897 691.894 79.6477 691.894 79.5918 691.894C79.7593 691.112 79.913 690.344 80.0804 689.577H92.0407C92.0407 689.577 92.0267 689.702 92.0128 689.758C91.7755 691.028 91.5382 692.284 91.301 693.554C91.1475 694.392 90.994 695.229 90.8405 696.066C90.6451 697.155 90.4357 698.244 90.2403 699.318C90.1705 699.667 90.1147 700.016 90.0449 700.379C90.0449 700.407 90.0451 700.435 90.0311 700.449C85.9559 700.449 81.8668 700.449 77.7916 700.449H77.7637Z" fill="#880025"/>
<path d="M101.754 700.449C101.809 700.183 101.851 699.918 101.907 699.639C102.089 698.648 102.27 697.657 102.451 696.667C102.451 696.625 102.451 696.597 102.465 696.541H98.6135C98.7391 695.857 98.8647 695.187 99.0043 694.503H102.856C103.024 693.624 103.177 692.759 103.345 691.88H98.8229C98.5158 693.512 98.2087 695.131 97.9017 696.764H93.6592C94.1058 694.35 94.5523 691.949 94.9989 689.549C95.0547 689.549 95.0966 689.549 95.1384 689.549C99.3811 689.549 103.624 689.549 107.88 689.549C107.922 689.549 107.95 689.549 107.992 689.549V689.702C107.992 689.702 107.964 689.828 107.964 689.884C107.866 690.386 107.783 690.903 107.685 691.405C107.531 692.27 107.364 693.136 107.21 693.987C107.043 694.88 106.876 695.759 106.722 696.653C106.541 697.643 106.359 698.634 106.164 699.625C106.108 699.89 106.066 700.156 106.01 700.421H101.754V700.449Z" fill="#880025"/>
<path d="M62.5371 700.449C62.5929 700.142 62.6488 699.834 62.7046 699.527C62.886 698.578 63.0535 697.615 63.2349 696.666C63.4024 695.731 63.5838 694.796 63.7652 693.861C63.9188 693.01 64.0722 692.173 64.2397 691.321C64.3374 690.763 64.4492 690.219 64.5469 689.661C64.5469 689.633 64.5607 689.605 64.5746 689.563H68.8173C68.5661 690.945 68.3011 692.312 68.0499 693.694H76.591C76.591 693.805 76.1861 695.857 76.1163 696.011H67.6171C67.6171 696.011 67.5892 696.094 67.5892 696.136C67.338 697.504 67.0869 698.858 66.8357 700.225C66.8357 700.295 66.8077 700.365 66.8077 700.435H62.5511L62.5371 700.449Z" fill="#880025"/>
<path d="M48.1769 689.563C48.1769 689.563 48.1631 689.619 48.1491 689.647C48.0514 690.149 47.9536 690.665 47.8699 691.168C47.6745 692.256 47.4653 693.331 47.2699 694.42C47.0884 695.369 46.921 696.304 46.7395 697.253C46.586 698.104 46.4184 698.955 46.2649 699.807C46.223 700.016 46.1952 700.239 46.1533 700.449H59.5651C59.5651 700.449 59.5651 700.365 59.5651 700.323C59.6069 700.058 59.6627 699.807 59.7046 699.541C59.886 698.564 60.0675 697.588 60.2489 696.611C60.4443 695.536 60.6537 694.461 60.8491 693.387C61.0724 692.159 61.3096 690.931 61.5329 689.702C61.5329 689.661 61.5329 689.619 61.5469 689.563H48.1491H48.1769ZM55.7132 698.132H50.8146C51.2054 696.038 51.5823 693.973 51.9731 691.894H56.8577C56.8856 691.977 55.7551 697.978 55.7132 698.132Z" fill="#880025"/>
<path d="M130.573 700.03H142.227C142.687 700.03 143.148 699.639 143.259 699.165L145.269 689.786H132.736L130.573 700.03ZM135.165 691.475H142.227L140.747 698.439H133.699L135.165 691.475Z" fill="#005952"/>
<path d="M125.884 698.913H123.427L125.563 688.795H122.744L120.608 698.913H118.208L119.841 691.098H117.064L115.096 700.421H127.419C127.879 700.421 128.34 700.03 128.438 699.555L130.238 691.098H127.503L125.87 698.913H125.884Z" fill="#005952"/>
<path d="M160.425 689.451C159.965 689.451 159.742 689.493 159.462 689.87C159.128 690.316 158.695 690.916 158.695 690.916H165.826C165.715 691.419 165.547 692.214 165.324 693.177H160.09C159.63 693.177 159.462 693.205 159.155 693.568C158.737 694.057 158.164 694.88 158.164 694.88H164.933C164.682 695.997 164.487 696.904 164.403 697.266C164.291 697.741 163.97 697.922 163.649 697.922C161.095 697.922 159.002 697.922 158.723 697.922C158.262 697.922 157.927 698.216 157.634 698.55C157.313 698.913 156.755 699.625 156.755 699.625H165.687C166.873 699.625 167.013 699.22 167.11 698.885C167.18 698.62 169.357 689.437 169.357 689.437H160.411L160.425 689.451Z" fill="#005952"/>
<path d="M157.187 694.057C157.619 693.498 157.843 693.136 157.843 693.136C157.843 693.136 157.508 693.178 156.754 693.178C155.331 693.178 151.297 693.178 150.46 693.178L151.395 689.172H147.418C147.418 689.172 147.962 689.605 147.878 690.247L145.715 700.267H147.194C148.743 700.267 149.05 699.165 149.05 699.165L149.776 696.052C150.125 695.006 150.962 695.076 151.242 695.076H155.052C156.056 695.076 156.712 694.657 157.173 694.057" fill="#005952"/>
<path d="M205.475 693.178C204.037 693.178 200.018 693.178 199.181 693.178L200.116 689.172H196.138C196.138 689.172 196.683 689.605 196.599 690.247L194.436 700.267H195.915C197.464 700.267 197.771 699.165 197.771 699.165L198.497 696.052C198.86 695.006 199.683 695.076 199.962 695.076H203.772C204.763 695.076 205.433 694.657 205.893 694.057C206.326 693.498 206.549 693.136 206.549 693.136C206.549 693.136 206.214 693.178 205.461 693.178" fill="#005952"/>
<path d="M189.091 694.978C189.188 694.573 189.677 692.005 189.677 692.005H188.295C187.946 692.005 187.555 692.284 187.458 692.689C187.36 693.094 186.802 695.676 186.802 695.676H188.211C188.574 695.676 189.021 695.383 189.119 694.978" fill="#005952"/>
<path d="M184.29 692.745C184.193 693.15 183.648 695.676 183.648 695.676H185.142C185.491 695.676 185.84 695.41 185.937 695.006C186.035 694.601 186.537 692.005 186.537 692.005H185.212C184.821 692.005 184.388 692.34 184.29 692.745Z" fill="#005952"/>
<path d="M192.259 692.005C192.119 692.005 191.882 692.005 191.742 692.242C188.937 696.764 186.802 699.472 186.802 699.472H188.03C189.091 699.472 189.523 699.165 189.872 698.76C192.593 695.564 195.05 692.005 195.05 692.005H192.272H192.259Z" fill="#005952"/>
<path d="M178.302 690.958C177.688 690.191 177.479 690.065 176.809 690.065H174.129C173.794 690.065 173.39 690.177 173.097 690.526C172.831 690.847 168.826 696.024 168.826 696.024H170.11C171.157 696.024 171.659 695.676 172.217 694.936C172.566 694.461 173.488 693.261 174.437 692.019C174.841 691.489 175.358 691.349 175.86 692.159C177.367 694.615 179.503 698.146 179.67 698.439C179.921 698.871 180.577 699.416 181.47 699.416H183.996C183.996 699.416 183.368 698.509 182.796 697.629C180.856 694.685 178.526 691.251 178.302 690.958Z" fill="#005952"/>
<path d="M181.192 692.145C182.266 692.145 183.313 691.447 183.522 690.61C183.718 689.758 183.006 689.074 181.931 689.074C180.857 689.074 179.81 689.758 179.601 690.61C179.405 691.461 180.117 692.145 181.192 692.145ZM180.843 690.61C180.954 690.149 181.373 689.786 181.778 689.786C182.183 689.786 182.392 690.163 182.28 690.61C182.155 691.07 181.736 691.433 181.345 691.433C180.954 691.433 180.731 691.07 180.857 690.61" fill="#005952"/>
<path d="M537.671 698.592H529.074V693.01H530.693V697.741H532.563V691.796H534.182V697.741H536.066V693.01H537.671V698.592Z" fill="#E60020"/>
<path d="M454.41 694.559H449.176L449.623 692.047H447.013L445.854 698.593H448.478L448.939 695.969H454.173L454.41 694.559Z" fill="#E60020"/>
<path d="M456.252 692.047L456.028 693.359H460.927L460.704 694.615H455.805L455.568 695.927H460.481L460.243 697.281H455.331L455.107 698.593H462.63L463.774 692.047H456.252Z" fill="#E60020"/>
<path d="M482.769 694.196L477.27 696.387L478.038 692.047H475.428L474.27 698.593H476.879L482.378 696.415L482.769 694.196Z" fill="#E60020"/>
<path d="M488.909 692.061H484.554L484.289 693.596H488.644L488.909 692.061Z" fill="#E60020"/>
<path d="M483.829 696.178L483.41 698.592L491.393 696.96L491.826 694.545L483.829 696.178Z" fill="#E60020"/>
<path d="M505.824 692.047H503.214L502.502 696.08H505.112L505.824 692.047Z" fill="#E60020"/>
<path d="M507.805 695.55L503.618 698.593H507.274L510.261 696.429H510.275L511.043 692.047H508.433L507.805 695.55Z" fill="#E60020"/>
<path d="M511.853 694.573L511.602 695.969H518.524L518.761 694.573H511.853Z" fill="#E60020"/>
<path d="M526.968 692.047H519.278L519.055 693.345H523.646L517.771 698.593H521.148L523.2 696.667L524.121 698.593H526.549L524.874 695.103L526.744 693.345L526.968 692.047Z" fill="#E60020"/>
<path d="M492.873 696.415H495.259L495.804 693.359H498.637L498.33 695.103H495.929L495.692 696.415H498.093L497.716 698.593H500.325L501.484 692.047H493.627L492.873 696.415Z" fill="#E60020"/>
<path d="M464.709 696.415H467.11L467.654 693.359H470.487L470.18 695.103H467.78L467.542 696.415H469.943L469.566 698.593H472.176L473.334 692.047H465.477L464.709 696.415Z" fill="#E60020"/>
<path d="M539.611 692.047V698.593H547.775V692.047H539.611ZM546.045 697.741H541.342V692.885H546.045V697.741Z" fill="#E60020"/>
<path d="M441.751 689.87H430.852V700.77H441.751V689.87Z" fill="#00A040"/>
<path d="M439.658 695.313C439.658 697.35 438.654 698.76 437.23 698.76C436.532 698.76 436.044 698.271 436.044 697.574C436.044 697.155 436.17 696.541 437.286 696.052C439.114 695.243 439.491 693.959 439.491 693.038C439.491 691.433 438.277 690.219 436.672 690.219C435.067 690.219 433.685 691.391 433.183 693.275L431.299 700.295H432.987L434.76 693.694C434.872 693.261 435.36 691.852 436.672 691.852C437.37 691.852 437.858 692.34 437.858 693.038C437.858 693.457 437.733 694.071 436.616 694.559C434.788 695.369 434.411 696.653 434.411 697.574C434.411 699.179 435.625 700.393 437.23 700.393C438.375 700.393 439.421 699.876 440.175 698.941C440.915 698.02 441.305 696.764 441.305 695.313H439.672H439.658Z" fill="white"/>
<path d="M350.478 527.407C350.478 527.407 353.576 530.506 358.656 529.947C363.736 529.389 366.276 526.556 367.114 525.146C367.951 523.737 372.473 524.295 370.505 529.654C368.537 535.013 361.196 546.583 346.807 540.945C346.807 540.945 343.416 536.716 345.119 532.194C346.821 527.672 350.478 527.393 350.478 527.393V527.407Z" fill="#F39B3A" stroke="#231815" stroke-width="2.1911" stroke-linecap="round" stroke-linejoin="round"/>
</g>
<defs>
<clipPath id="clip0_2005_35133">
<rect width="720" height="841" fill="white"/>
</clipPath>
</defs>
</svg>
