<svg width="64" height="176" viewBox="0 0 64 176" fill="none" xmlns="http://www.w3.org/2000/svg">
<g clip-path="url(#clip0_2122_920)">
<path d="M17.69 175.73C17.8 174.91 18.04 174.13 18.46 173.4C24.64 162.8 32.59 166.34 38.48 158.09C44.37 149.85 41.72 141.31 41.72 141.31H24.94C24.94 153.67 14.93 149.55 3.45 167.21C1.6 170.06 0.52 172.92 0 175.72H17.69V175.73Z" fill="#E7943D" stroke="#221714" stroke-width="1.57" stroke-linecap="round" stroke-linejoin="round"/>
<path d="M25.3001 -386H16.5601V83.5H25.3001V-386Z" fill="#7C7D7D" stroke="#221714" stroke-width="1.5" stroke-linecap="round" stroke-linejoin="round"/>
<path d="M51.51 -386H42.77V83.5H51.51V-386Z" fill="#7C7D7D" stroke="#221714" stroke-width="1.5" stroke-linecap="round" stroke-linejoin="round"/>
<path d="M38.81 145.29H27.86C23.62 145.29 19.89 142.47 18.73 138.39L3.26 84.0099C2.62 81.7599 2.83 79.3499 3.86 77.2399L10.72 63.1899C12.31 59.9299 15.62 57.8599 19.25 57.8599H48.15C51.94 57.8599 55.37 60.1099 56.87 63.5899L63.05 77.9099C63.92 79.9299 64.07 82.1799 63.46 84.2899L47.94 138.4C46.77 142.47 43.05 145.28 38.81 145.28V145.29Z" fill="#E7943D" stroke="#221714" stroke-width="1.57" stroke-linecap="round" stroke-linejoin="round"/>
<path d="M25.31 133.38C26.7349 133.38 27.89 132.225 27.89 130.8C27.89 129.375 26.7349 128.22 25.31 128.22C23.8851 128.22 22.73 129.375 22.73 130.8C22.73 132.225 23.8851 133.38 25.31 133.38Z" fill="#E7943D" stroke="#221714" stroke-width="1.05" stroke-linecap="round" stroke-linejoin="round"/>
<path d="M40.9501 133.38C42.375 133.38 43.5301 132.225 43.5301 130.8C43.5301 129.375 42.375 128.22 40.9501 128.22C39.5252 128.22 38.3701 129.375 38.3701 130.8C38.3701 132.225 39.5252 133.38 40.9501 133.38Z" fill="#E7943D" stroke="#221714" stroke-width="1.05" stroke-linecap="round" stroke-linejoin="round"/>
<path d="M25.31 73.2601C26.7349 73.2601 27.89 72.105 27.89 70.6801C27.89 69.2552 26.7349 68.1001 25.31 68.1001C23.8851 68.1001 22.73 69.2552 22.73 70.6801C22.73 72.105 23.8851 73.2601 25.31 73.2601Z" fill="#E7943D" stroke="#221714" stroke-width="1.05" stroke-linecap="round" stroke-linejoin="round"/>
<path d="M40.9501 73.2601C42.375 73.2601 43.5301 72.105 43.5301 70.6801C43.5301 69.2552 42.375 68.1001 40.9501 68.1001C39.5252 68.1001 38.3701 69.2552 38.3701 70.6801C38.3701 72.105 39.5252 73.2601 40.9501 73.2601Z" fill="#E7943D" stroke="#221714" stroke-width="1.05" stroke-linecap="round" stroke-linejoin="round"/>
</g>
<defs>
<clipPath id="clip0_2122_920">
<rect width="64" height="176" fill="white"/>
</clipPath>
</defs>
</svg>
