<svg width="216" height="150" viewBox="0 0 216 150" fill="none" xmlns="http://www.w3.org/2000/svg">
<g clip-path="url(#clip0_2070_327)">
<path d="M118.128 79.1614L118.989 70.1777L110.621 77.7257L118.128 79.1614Z" fill="#595757"/>
<path d="M118.086 79.8993C118.086 79.8993 118.045 79.8993 118.004 79.8993L110.497 78.5046C110.21 78.4636 110.005 78.2584 109.923 77.9713C109.841 77.6841 109.923 77.397 110.128 77.2329L118.497 69.685C118.702 69.4799 119.03 69.4388 119.317 69.5619C119.604 69.685 119.768 69.9721 119.727 70.3003L118.866 79.284C118.866 79.4891 118.743 79.6942 118.579 79.8173C118.455 79.9403 118.25 79.9814 118.086 79.9814V79.8993ZM112.22 77.2739L117.471 78.2585L118.086 71.9822L112.22 77.2739Z" fill="#231815"/>
<path d="M93.1441 109.639L94.0056 100.696L85.6372 108.244L93.1441 109.639Z" fill="#595757"/>
<path d="M93.1029 110.378C93.1029 110.378 93.0619 110.378 93.0209 110.378L85.5139 108.983C85.2268 108.942 85.0217 108.737 84.9396 108.45C84.8576 108.163 84.9396 107.876 85.1447 107.711L93.5131 100.163C93.7182 99.9584 94.0874 99.9173 94.3336 100.04C94.6207 100.163 94.7848 100.451 94.7438 100.779L93.8823 109.762C93.8823 109.968 93.7593 110.173 93.5952 110.296C93.4721 110.419 93.267 110.46 93.1029 110.46V110.378ZM87.2368 107.793L92.4876 108.778L93.1029 102.502L87.2368 107.793Z" fill="#231815"/>
<path d="M77.2698 23.1252L35.0177 63.4904L34.6075 69.1513L25.7878 77.1505L24.0649 100.861L84.8177 112.675L128.793 59.019L129.244 31.4116L77.2698 23.1252Z" fill="#E72D22"/>
<path d="M84.7758 113.414C84.7758 113.414 84.7348 113.414 84.6938 113.414L23.941 101.599C23.5718 101.517 23.3257 101.189 23.3257 100.82L25.0486 77.1096C25.0486 77.1096 25.1306 76.7404 25.2947 76.6173L33.9092 68.7822L34.2784 63.4084C34.2784 63.4084 34.3605 63.0392 34.5245 62.9162L76.7766 22.5921C76.7766 22.5921 77.1869 22.387 77.392 22.387L129.366 30.6733C129.735 30.7143 129.981 31.0425 129.981 31.4117L129.53 58.9781C129.53 58.9781 129.489 59.3063 129.366 59.4293L85.3911 113.126C85.3911 113.126 85.022 113.414 84.7758 113.414ZM24.8435 100.246L84.5297 111.855L128.053 58.691L128.505 32.027L77.515 23.8637L35.7552 63.8186L35.386 69.1924C35.386 69.1924 35.3039 69.5616 35.1399 69.6847L26.5254 77.5198L24.8845 100.287L24.8435 100.246Z" fill="#231815"/>
<path d="M34.6064 69.1514L87.9343 78.8735L88.0984 72.105L35.0167 63.4905L34.6064 69.1514Z" fill="#6A6969"/>
<path d="M87.8929 79.6125C87.8929 79.6125 87.8519 79.6125 87.8109 79.6125L34.483 69.8904C34.1138 69.8084 33.8677 69.4802 33.8677 69.111L34.2779 63.4501C34.2779 63.2449 34.401 63.0398 34.565 62.9168C34.7291 62.7937 34.9342 62.7527 35.1393 62.7527L88.1801 71.3672C88.5493 71.4082 88.7954 71.7364 88.7954 72.1056L88.6723 78.8741C88.6723 79.0792 88.5903 79.2843 88.3852 79.4484C88.2211 79.5715 88.057 79.6125 87.8519 79.6125H87.8929ZM35.3855 68.5367L87.1956 77.9716L87.3186 72.7209L35.6726 64.3115L35.3855 68.4957V68.5367Z" fill="#231815"/>
<path d="M24.0649 100.862L25.7878 77.1511L84.4485 88.7192L84.8177 112.676L24.0649 100.862Z" fill="#EF7D27"/>
<path d="M84.7758 113.414C84.7758 113.414 84.7348 113.414 84.6938 113.414L23.941 101.6C23.5718 101.518 23.3257 101.19 23.3257 100.82L25.0486 77.11C25.0486 76.9049 25.1716 76.6997 25.3357 76.5767C25.4998 76.4536 25.7049 76.4126 25.91 76.4536L84.6117 87.9806C84.9399 88.0627 85.186 88.3498 85.2271 88.678L85.5963 112.676C85.5963 112.881 85.5142 113.127 85.3501 113.25C85.186 113.373 85.022 113.414 84.8169 113.414H84.7758ZM24.8435 100.246L84.0785 111.773L83.7503 89.2933L26.4433 78.0534L24.8435 100.287V100.246Z" fill="#231815"/>
<path d="M84.8184 112.675L84.4492 88.7186L90.2332 81.1296L90.7255 70.0948L129.245 31.4116L128.793 59.0191L84.8184 112.675Z" fill="#EF7D27"/>
<path d="M84.777 113.414C84.777 113.414 84.6539 113.414 84.5719 113.414C84.2847 113.332 84.0796 113.044 84.0796 112.716L83.7104 88.7186C83.7104 88.7186 83.7515 88.3905 83.8745 88.2674L89.4945 80.8836L89.9867 70.0539C89.9867 70.0539 90.0688 69.6847 90.1918 69.5616L128.711 30.9194C128.916 30.7143 129.244 30.6323 129.531 30.7553C129.819 30.8784 129.983 31.1655 129.983 31.4527L129.531 59.0191C129.531 59.0191 129.49 59.3473 129.367 59.4704L85.3923 113.167C85.3923 113.167 85.0231 113.455 84.777 113.455V113.414ZM85.1872 88.9238L85.5154 110.665L128.055 58.732L128.465 33.2576L91.4225 70.4231L90.9302 81.1707C90.9302 81.1707 90.8892 81.4579 90.7661 81.5809L85.1462 88.9648L85.1872 88.9238Z" fill="#231815"/>
<path d="M40.1032 92.0829L24.8843 89.2524L25.7867 77.1511L40.9647 79.9816L40.1032 92.0829Z" fill="white"/>
<path d="M40.0623 92.8212C40.0623 92.8212 40.0213 92.8212 39.9803 92.8212L24.8023 89.9907C24.4331 89.9086 24.187 89.5805 24.187 89.2113L25.0485 77.11C25.0485 76.9049 25.1715 76.6997 25.3356 76.5767C25.4997 76.4536 25.7048 76.4126 25.9099 76.4536L41.0879 79.2841C41.457 79.3661 41.7032 79.6943 41.7032 80.0635L40.8417 92.1648C40.8417 92.3699 40.7187 92.575 40.5546 92.6981C40.3905 92.8212 40.2264 92.8622 40.0623 92.8622V92.8212ZM25.6638 88.637L39.406 91.1803L40.1854 80.5558L26.4432 78.0124L25.6638 88.637Z" fill="#231815"/>
<path d="M61.6807 106.81L44.2876 103.241L44.9029 94.7495L62.296 98.3594L61.6807 106.81Z" fill="white"/>
<path d="M61.6403 107.548H61.5583L44.1652 103.938C43.796 103.856 43.5499 103.528 43.5909 103.159L44.2062 94.7083C44.2062 94.5032 44.3293 94.2981 44.4934 94.1751C44.6574 94.052 44.9036 94.011 45.0677 94.052L62.4608 97.6619C62.8299 97.7439 63.0761 98.0721 63.0351 98.4413L62.4197 106.892C62.4197 107.097 62.2967 107.302 62.1326 107.425C62.0095 107.548 61.8044 107.589 61.6403 107.589V107.548ZM45.0677 102.625L60.984 105.907L61.4762 98.9336L45.5599 95.6518L45.0677 102.625Z" fill="#231815"/>
<path d="M83.9157 100.82L68.7378 97.9895L69.5992 85.8882L84.8182 88.7187L83.9157 100.82Z" fill="white"/>
<path d="M83.8743 101.558C83.8743 101.558 83.8333 101.558 83.7923 101.558L68.6143 98.7278C68.2452 98.6457 67.999 98.3175 67.999 97.9484L68.8605 85.847C68.8605 85.6419 68.9835 85.4368 69.1476 85.3137C69.3117 85.1907 69.5168 85.1497 69.7219 85.1907L84.8999 88.0212C85.2691 88.1032 85.5152 88.4314 85.5152 88.8006L84.6537 100.902C84.6537 101.107 84.5307 101.312 84.3666 101.435C84.2025 101.558 84.0384 101.599 83.8743 101.599V101.558ZM69.5168 97.3741L83.259 99.9174L84.0384 89.2928L70.2962 86.7495L69.5168 97.3741Z" fill="#231815"/>
<path d="M101.677 97.2927L93.1445 109.64L94.3752 92.8624L102.867 80.4739L101.677 97.2927Z" fill="#595757"/>
<path d="M93.1039 110.379C93.1039 110.379 92.9809 110.379 92.8988 110.379C92.5706 110.255 92.3655 109.968 92.4066 109.64L93.6372 92.8624C93.6372 92.8624 93.6782 92.6162 93.7603 92.4932L102.252 80.1047C102.457 79.8175 102.785 79.6945 103.113 79.8175C103.441 79.9406 103.646 80.2278 103.605 80.5559L102.375 97.3337C102.375 97.3337 102.334 97.5798 102.252 97.7029L93.7603 110.091C93.5962 110.296 93.3501 110.42 93.1039 110.42V110.379ZM95.114 93.1085L94.1295 106.974L100.98 97.0055L101.965 83.1403L95.114 93.1085Z" fill="#231815"/>
<path d="M99.4204 95.9389L96.1387 100.738L96.5899 94.216L99.9126 89.4165L99.4204 95.9389Z" fill="white"/>
<path d="M96.0986 101.477C96.0986 101.477 95.9755 101.477 95.8935 101.477C95.5653 101.354 95.3602 101.067 95.4012 100.739L95.8524 94.2165C95.8524 94.2165 95.8935 93.9703 95.9755 93.8473L99.2982 89.0478C99.5033 88.7606 99.8315 88.6786 100.16 88.7606C100.488 88.8837 100.693 89.1708 100.652 89.499L100.201 96.0214C100.201 96.0214 100.16 96.2676 100.078 96.3906L96.7549 101.19C96.5908 101.395 96.3447 101.518 96.0986 101.518V101.477ZM97.3292 94.4626L97.0831 98.0725L98.7239 95.6522L98.9701 92.0423L97.3292 94.4626Z" fill="#231815"/>
<path d="M126.617 66.7722L118.126 79.1606L119.316 62.3829L127.848 49.9944L126.617 66.7722Z" fill="#595757"/>
<path d="M118.085 79.899C118.085 79.899 117.962 79.899 117.88 79.899C117.552 79.776 117.347 79.4888 117.388 79.1606L118.619 62.3829C118.619 62.3829 118.66 62.1367 118.742 62.0137L127.233 49.6252C127.438 49.338 127.766 49.215 128.095 49.338C128.423 49.4611 128.628 49.7483 128.587 50.0764L127.356 66.8542C127.356 66.8542 127.315 67.1003 127.233 67.2234L118.742 79.6119C118.578 79.817 118.332 79.9401 118.085 79.9401V79.899ZM120.054 62.629L119.07 76.4943L125.92 66.526L126.905 52.6608L120.054 62.629Z" fill="#231815"/>
<path d="M124.403 65.4182L121.08 70.2177L121.572 63.6953L124.854 58.8958L124.403 65.4182Z" fill="white"/>
<path d="M121.04 70.9561C121.04 70.9561 120.917 70.9561 120.835 70.9561C120.507 70.833 120.302 70.5459 120.343 70.2177L120.794 63.6953C120.794 63.6953 120.835 63.4491 120.917 63.3261L124.24 58.5266C124.445 58.2394 124.773 58.1163 125.101 58.2394C125.429 58.3625 125.634 58.6496 125.593 58.9778L125.142 65.5002C125.142 65.5002 125.101 65.7463 125.019 65.8694L121.696 70.6689C121.532 70.874 121.286 70.9971 121.04 70.9971V70.9561ZM122.271 63.9414L122.024 67.5513L123.665 65.131L123.911 61.5211L122.271 63.9414Z" fill="#231815"/>
<path d="M68.2857 35.678C68.2857 35.678 56.4715 43.4721 56.7177 52.907C63.9374 52.1276 67.5063 48.8869 67.5063 48.8869L68.2857 35.678Z" fill="#42ACD6"/>
<path d="M56.6758 53.6457C56.6758 53.6457 56.3476 53.5637 56.2246 53.4816C56.0605 53.3586 55.9785 53.1535 55.9785 52.9484C55.7323 43.2263 67.3824 35.4322 67.8747 35.104C68.1208 34.9399 68.408 34.9399 68.6541 35.104C68.9002 35.2271 69.0233 35.5142 69.0233 35.8014L68.2439 49.0103C68.2439 49.0103 68.1618 49.3795 67.9977 49.5026C67.8337 49.6256 64.1827 52.9073 56.7989 53.6867C56.7579 53.6867 56.7168 53.6867 56.6758 53.6867V53.6457ZM67.4645 37.1961C64.634 39.3703 57.8244 45.2773 57.4962 52.0459C62.8701 51.3075 65.9877 49.1334 66.8081 48.518L67.4645 37.1961Z" fill="#231815"/>
<path d="M68.2852 35.679L61.2705 56.723L91.3392 63.6966L87.9345 39.1248L68.2852 35.679Z" fill="#4AC1F1"/>
<path d="M91.2576 64.4344C91.2576 64.4344 91.1755 64.4344 91.1345 64.4344L61.0658 57.4608C61.0658 57.4608 60.6966 57.2967 60.5735 57.0916C60.4915 56.9275 60.4505 56.6814 60.5325 56.5173L67.5882 35.4733C67.7113 35.1451 68.0394 34.94 68.4086 34.981L88.0579 38.4268C88.3861 38.4679 88.6322 38.714 88.6732 39.0422L92.037 63.614C92.037 63.8601 91.996 64.1063 91.7909 64.2704C91.6268 64.3934 91.4217 64.4755 91.2576 64.4755V64.4344ZM62.2144 56.1891L90.4372 62.7115L87.2785 39.7395L68.7778 36.4988L62.1734 56.1891H62.2144Z" fill="#231815"/>
<path d="M91.3394 63.6958L87.9346 39.1239L94.2929 32.7656L101.102 53.1533L91.3394 63.6958Z" fill="#46B8E5"/>
<path d="M91.2579 64.434C91.2579 64.434 91.1348 64.434 91.0938 64.434C90.8067 64.352 90.6426 64.1058 90.6016 63.8187L87.2378 39.2468C87.2378 39.0007 87.2788 38.7956 87.4429 38.6315L93.8012 32.2732C93.8012 32.2732 94.2525 32.0271 94.4986 32.0681C94.7447 32.1091 94.9498 32.3142 95.0319 32.5603L101.841 52.948C101.923 53.1941 101.841 53.4813 101.677 53.6864L91.8732 64.2289C91.8732 64.2289 91.504 64.475 91.2989 64.475L91.2579 64.434ZM88.7146 39.3699L91.8322 62.0138L100.242 52.948L93.9243 34.1192L88.6735 39.3699H88.7146Z" fill="#231815"/>
<path d="M86.8676 40.7652L67.0952 36.9912L68.572 16.6445L88.3443 20.4185L86.8676 40.7652Z" fill="#FDE4C3"/>
<path d="M86.7851 41.4621C86.7851 41.4621 86.7441 41.4621 86.7031 41.4621L66.9718 37.6882C66.6026 37.6061 66.3564 37.2779 66.3564 36.9087L67.8332 16.5621C67.8332 16.357 67.9563 16.1519 68.1204 16.0288C68.2845 15.9058 68.4896 15.8647 68.6947 15.9058L88.426 19.6797C88.7952 19.7618 89.0413 20.09 89.0413 20.4591L87.5645 40.8058C87.5645 41.0109 87.4415 41.216 87.2774 41.3391C87.1133 41.4621 86.9492 41.5032 86.7851 41.5032V41.4621ZM67.8742 36.3755L86.1698 39.8623L87.5235 20.9924L69.2279 17.5056L67.8742 36.3755Z" fill="#231815"/>
<path d="M95.1145 32.8059L86.8691 40.764L88.3459 20.4174L96.5502 12.5002L95.1145 32.8059Z" fill="#E9D3B4"/>
<path d="M86.7861 41.4616C86.7861 41.4616 86.622 41.4616 86.54 41.3796C86.2528 41.2565 86.0888 40.9694 86.1298 40.6412L87.6065 20.2946C87.6065 20.2946 87.6886 19.9254 87.8117 19.8023L96.057 11.8852C96.2621 11.6801 96.5902 11.639 96.8774 11.7621C97.1645 11.8852 97.3286 12.1723 97.2876 12.5005L95.8108 32.8471C95.8108 32.8471 95.7288 33.2163 95.6057 33.3394L87.3604 41.2565C87.3604 41.2565 86.9912 41.4616 86.7861 41.4616ZM89.0423 20.7458L87.7296 38.8773L94.3751 32.4779L95.6878 14.3464L89.0423 20.7458Z" fill="#231815"/>
<path d="M68.1616 20.7056C68.1616 20.7056 75.0942 19.7621 77.1043 18.4905C80.0168 22.3875 83.7087 26.3256 84.7753 25.259C85.8418 24.1924 85.4316 22.5926 85.4316 22.5926C85.4316 22.5926 88.7954 27.146 90.2311 27.105C91.6669 27.0639 94.5794 26.7768 96.3844 23.7002C98.1893 20.6236 97.3689 14.2242 95.728 10.6964C93.2257 5.40462 86.0469 3.14844 77.6375 4.91236C69.2281 6.67628 64.1415 12.5423 68.2026 20.6646L68.1616 20.7056Z" fill="#675B4C"/>
<path d="M90.1081 27.8431C88.9185 27.7611 87.2366 26.0382 86.047 24.5614C85.9239 24.9716 85.6778 25.4229 85.3086 25.7921C85.1035 25.9972 84.8163 26.2023 84.242 26.1613C82.232 26.0382 78.7041 21.7309 76.9402 19.4337C74.4379 20.5823 68.9821 21.3617 68.2847 21.4438C67.9565 21.4438 67.6694 21.3207 67.5053 21.0336C65.7414 17.4647 65.5363 14.101 66.931 11.1884C68.5718 7.78365 72.3048 5.28134 77.4735 4.21478C86.3341 2.32779 93.759 4.78908 96.3844 10.409C98.2304 14.3061 98.9277 20.8695 96.9997 24.0692C94.8666 27.638 91.3798 27.7611 90.2312 27.8021C90.1902 27.8021 90.1491 27.8021 90.1081 27.8021V27.8431ZM85.5137 21.854C85.7188 21.854 85.9239 21.9771 86.047 22.1412C87.6878 24.3563 89.6569 26.2843 90.2312 26.3253C91.872 26.2433 94.2513 25.8741 95.7691 23.2898C97.3689 20.5823 96.7126 14.4701 95.0717 10.9833C92.7335 5.9787 85.9239 3.88661 77.8017 5.60951C73.1252 6.59402 69.7615 8.80918 68.2847 11.8037C67.1771 14.142 67.3002 16.8904 68.6129 19.844C70.787 19.5158 75.2994 18.6954 76.7351 17.7929C77.0633 17.5878 77.4735 17.6698 77.7196 17.957C81.2065 22.5924 83.7088 24.7255 84.3651 24.6024C85.0215 23.9051 84.7343 22.6744 84.7343 22.6744C84.6523 22.3463 84.8163 21.9771 85.1445 21.854C85.2676 21.813 85.3906 21.772 85.5137 21.772V21.854Z" fill="#231815"/>
<path d="M74.1107 28.9097L71.4443 28.1303L71.7725 23.5359L74.4389 24.3563L74.1107 28.9097Z" fill="#231815"/>
<path d="M83.5863 30.7554L80.9199 29.935L81.2481 25.3406L83.9145 26.161L83.5863 30.7554Z" fill="#231815"/>
<path d="M76.7353 36.7041C76.7353 36.7041 76.6122 36.7041 76.5302 36.7041C73.2074 36.3759 71.8947 33.8326 71.6486 32.5609C71.5256 31.8636 71.9768 31.1662 72.6742 31.0432C73.3715 30.9201 74.0689 31.3713 74.1919 32.0687C74.233 32.2738 74.6842 33.9147 76.7763 34.1198C79.1555 34.3659 80.7144 32.5609 80.7964 32.5199C81.2476 31.9866 82.0681 31.9046 82.6424 32.3558C83.1756 32.8071 83.2987 33.6275 82.8475 34.1608C82.7654 34.2838 80.5093 37.0323 76.7353 36.7451V36.7041Z" fill="#231815"/>
<path d="M93.966 36.3341C93.966 36.3341 91.3816 44.7025 86.0899 48.2713C80.7981 51.8402 75.7524 51.471 75.7524 51.471L79.7315 62.957C79.7315 62.957 92.7353 62.3417 98.3142 48.5175C103.934 34.6522 96.5503 33.7087 93.9249 36.3341H93.966Z" fill="#42ACD6"/>
<path d="M79.6899 63.6955C79.4028 63.6955 79.1567 63.4904 79.0336 63.2033L75.0545 51.7173C74.9725 51.4711 75.0545 51.225 75.1776 51.0199C75.3417 50.8148 75.5878 50.7327 75.8339 50.7327C75.8749 50.7327 80.6744 51.0199 85.6791 47.6561C90.7247 44.2924 93.227 36.2111 93.268 36.1291C93.268 36.006 93.3501 35.924 93.4321 35.842C94.7448 34.5293 97.1651 33.8729 99.011 35.1036C100.652 36.1701 102.867 39.4108 99.011 48.8047C93.3091 62.9161 79.895 63.6955 79.772 63.7365C79.772 63.7365 79.731 63.7365 79.6899 63.7365V63.6955ZM76.7774 52.2095L80.2642 62.1777C82.7665 61.8906 92.8988 60.0446 97.6573 48.2304C101.308 39.2057 98.97 36.8265 98.1906 36.2932C97.042 35.5548 95.4832 35.924 94.5807 36.7444C94.1705 38.0571 91.5451 45.482 86.4585 48.8868C82.4384 51.5942 78.5824 52.1275 76.7774 52.2095Z" fill="#231815"/>
<path d="M79.6904 69.2345C78.5008 69.1525 77.5573 68.168 77.5163 66.9373C77.5163 66.0759 77.1061 58.651 67.9993 55.9846C59.8361 53.6053 55.2827 61.5225 55.0776 61.8507C54.4623 62.9582 53.0265 63.3685 51.8779 62.7531C50.7703 62.1378 50.3601 60.7021 50.9754 59.5945C53.1906 55.6154 59.8771 48.7648 69.271 51.5133C81.5774 55.0821 82.1517 65.6657 82.1517 66.8553C82.1517 68.168 81.1262 69.2345 79.8545 69.2345C79.7725 69.2345 79.6904 69.2345 79.6494 69.2345H79.6904Z" fill="#231815"/>
<path d="M79.7308 62.9586C79.7308 62.9586 82.0691 61.892 80.9205 57.2156C79.7719 52.5391 75.7107 50.406 73.8238 51.1854C71.9368 51.9648 67.9987 55.3696 71.6496 60.6203C75.3415 65.8711 79.1565 65.2558 79.7308 62.9996V62.9586Z" fill="#FDE4C3"/>
<path d="M77.0644 65.3784C75.0954 65.2553 72.8802 63.6965 71.0342 61.0301C69.5165 58.8559 69.0242 56.7638 69.6395 54.7948C70.3369 52.3745 72.429 50.9388 73.5366 50.4876C74.48 50.0773 75.7517 50.2414 77.0644 50.8978C79.2796 52.0054 81.0025 54.3026 81.6588 57.01C82.6843 61.1942 81.0845 62.876 80.3871 63.4093C80.0179 64.3938 79.1975 65.0912 78.0899 65.2963C77.7618 65.3373 77.4336 65.3784 77.1054 65.3373L77.0644 65.3784ZM74.8492 51.7592C74.5621 51.7592 74.2749 51.7592 74.0698 51.8413C73.2494 52.1694 71.5675 53.318 71.0342 55.205C70.583 56.7228 71.0342 58.4047 72.2239 60.1686C74.398 63.2452 76.4901 64.1067 77.7618 63.8606C78.3771 63.7375 78.8283 63.3273 78.9924 62.794C79.0334 62.5889 79.1975 62.3838 79.4026 62.3017C79.4847 62.2607 81.1255 61.3172 80.182 57.3792C79.6077 55.082 78.213 53.154 76.367 52.2105C75.8338 51.9233 75.3005 51.7592 74.8492 51.7592Z" fill="#231815"/>
<path d="M54.6234 56.8043C54.6234 56.8043 53.5978 53.2354 56.5103 51.2254C59.4229 49.2153 64.8787 47.5745 65.6171 50.2409C66.3555 52.9073 67.0939 57.7068 62.7456 59.2246C58.3973 60.7424 55.3207 59.7989 54.6234 56.8043Z" fill="#FDE4C3"/>
<path d="M58.4803 60.6605C57.6189 60.5784 56.8395 60.3733 56.1421 60.0041C54.9935 59.3888 54.2141 58.3223 53.927 56.9685C53.5167 55.5328 53.4757 52.4152 56.1011 50.6102C58.5624 48.9283 62.5825 47.5746 64.7156 48.354C65.536 48.6412 66.0693 49.2155 66.3154 50.0359C67.7512 55.1636 66.5616 58.6914 62.9927 59.9221C61.3108 60.4964 59.793 60.7425 58.4803 60.6605ZM63.485 49.5847C61.68 49.4616 58.7675 50.5282 56.9215 51.7998C54.5013 53.4817 55.2807 56.4353 55.3217 56.5583C55.5678 57.5428 56.0601 58.2402 56.8395 58.6504C58.1111 59.3478 60.1212 59.2657 62.4594 58.4453C65.9462 57.2147 65.7001 53.3587 64.8387 50.3231C64.7566 49.9949 64.5515 49.7898 64.1823 49.6257C63.9772 49.5437 63.7311 49.5026 63.4439 49.4616L63.485 49.5847Z" fill="#231815"/>
<path d="M180.725 114.153L181.545 105.621L173.587 112.841L180.725 114.153Z" fill="#595757"/>
<path d="M180.685 114.974C180.685 114.974 180.644 114.974 180.603 114.974L173.424 113.621C173.137 113.579 172.891 113.333 172.809 113.046C172.727 112.759 172.809 112.431 173.055 112.226L181.013 105.006C181.259 104.801 181.628 104.719 181.915 104.883C182.203 105.047 182.367 105.334 182.367 105.662L181.546 114.236C181.546 114.441 181.423 114.646 181.218 114.81C181.054 114.933 180.89 114.974 180.685 114.974ZM175.311 112.349L180.028 113.251L180.562 107.631L175.311 112.39V112.349Z" fill="#231815"/>
<path d="M156.932 143.278L157.753 134.704L149.753 141.924L156.932 143.278Z" fill="#595757"/>
<path d="M156.891 144.058C156.891 144.058 156.85 144.058 156.809 144.058L149.63 142.704C149.343 142.663 149.097 142.417 149.015 142.13C148.933 141.843 149.015 141.514 149.261 141.309L157.219 134.09C157.466 133.884 157.835 133.802 158.122 133.966C158.409 134.131 158.573 134.418 158.573 134.746L157.753 143.319C157.753 143.524 157.63 143.73 157.425 143.894C157.26 144.017 157.096 144.058 156.891 144.058ZM151.517 141.432L156.235 142.335L156.768 136.715L151.517 141.473V141.432Z" fill="#231815"/>
<path d="M141.796 60.7437L101.472 99.2218L101.103 104.637L92.6521 112.267L91.0112 134.869L148.975 146.15L190.94 94.9555L191.35 68.6608L141.796 60.7437Z" fill="#8EBED6"/>
<path d="M148.893 146.97H148.811L90.8888 135.689C90.4785 135.607 90.2324 135.238 90.2324 134.828L91.8733 112.225C91.8733 112.02 91.9963 111.815 92.1194 111.692L100.324 104.267L100.693 99.1804C100.693 99.1804 100.775 98.8112 100.939 98.6471L141.222 60.1689C141.222 60.1689 141.673 59.9228 141.919 59.9638L191.473 67.881C191.884 67.963 192.171 68.2912 192.13 68.7014L191.678 94.9962C191.678 94.9962 191.596 95.3654 191.514 95.4884L149.549 146.683C149.549 146.683 149.139 147.011 148.893 146.97ZM91.8733 134.254L148.647 145.329L190.12 94.709L190.53 69.3578L142.043 61.6047L102.252 99.6316L101.883 104.718C101.883 104.923 101.759 105.128 101.636 105.252L93.4321 112.676L91.8733 134.254Z" fill="#231815"/>
<path d="M101.104 104.636L151.971 113.907L152.094 107.467L101.474 99.2212L101.104 104.636Z" fill="#6A6969"/>
<path d="M151.888 114.727C151.888 114.727 151.847 114.727 151.806 114.727L100.94 105.456C100.529 105.374 100.242 105.005 100.283 104.595L100.693 99.1802C100.693 98.9751 100.816 98.729 100.981 98.6059C101.145 98.4828 101.391 98.4008 101.596 98.4418L152.216 106.646C152.627 106.728 152.914 107.056 152.873 107.467L152.75 113.948C152.75 114.194 152.627 114.399 152.462 114.563C152.298 114.686 152.093 114.768 151.888 114.727ZM101.965 103.98L151.191 112.963L151.273 108.123L102.211 100.165L101.924 103.98H101.965Z" fill="#231815"/>
<path d="M91.0112 134.87L92.6521 112.267L148.646 123.302L148.975 146.151L91.0112 134.87Z" fill="#63A4C2"/>
<path d="M148.893 146.971H148.811L90.8888 135.69C90.4785 135.608 90.2324 135.239 90.2324 134.828L91.8733 112.226C91.8733 111.979 91.9964 111.774 92.2015 111.651C92.3655 111.528 92.6117 111.446 92.8578 111.487L148.852 122.481C149.221 122.563 149.508 122.891 149.508 123.26L149.837 146.15C149.837 146.396 149.755 146.602 149.549 146.766C149.385 146.889 149.18 146.971 148.975 146.93L148.893 146.971ZM91.8733 134.254L148.155 145.207L147.827 123.958L93.3911 113.251L91.8733 134.254Z" fill="#231815"/>
<path d="M148.976 146.15L148.647 123.301L154.144 116.04L154.596 105.539L191.351 68.6604L190.941 94.9552L148.976 146.15Z" fill="#599CBA"/>
<path d="M148.893 146.971C148.893 146.971 148.77 146.971 148.688 146.93C148.36 146.806 148.155 146.519 148.155 146.191L147.827 123.301C147.827 123.301 147.868 122.932 147.991 122.809L153.324 115.794L153.775 105.498C153.775 105.498 153.857 105.129 154.021 104.965L190.776 68.0863C191.022 67.8401 191.35 67.7991 191.638 67.9222C191.925 68.0452 192.13 68.3324 192.13 68.6606L191.679 94.9553C191.679 94.9553 191.597 95.3245 191.515 95.4476L149.55 146.642C149.55 146.642 149.139 146.971 148.893 146.93V146.971ZM149.426 123.547L149.714 143.976L190.12 94.6682L190.53 70.6296L155.416 105.867L154.964 116.081C154.964 116.081 154.882 116.41 154.8 116.533L149.468 123.547H149.426Z" fill="#231815"/>
<path d="M106.313 126.501L91.832 123.835L92.6525 112.267L107.174 114.974L106.313 126.501Z" fill="white"/>
<path d="M106.272 127.322C106.272 127.322 106.231 127.322 106.19 127.322L91.7096 124.614C91.2993 124.532 91.0122 124.163 91.0532 123.753L91.8736 112.226C91.8736 111.979 91.9967 111.774 92.2018 111.651C92.3659 111.528 92.612 111.446 92.8171 111.487L107.298 114.195C107.708 114.277 107.995 114.646 107.954 115.056L107.134 126.583C107.134 126.829 107.011 127.034 106.805 127.157C106.641 127.281 106.436 127.322 106.272 127.322ZM92.6941 123.178L105.616 125.599L106.313 115.671L93.3914 113.251L92.6941 123.178Z" fill="#231815"/>
<path d="M126.905 140.571L110.332 137.125L110.906 129.044L127.479 132.49L126.905 140.571Z" fill="white"/>
<path d="M126.865 141.35C126.865 141.35 126.783 141.35 126.742 141.35L110.169 137.904C109.759 137.822 109.513 137.453 109.554 137.043L110.128 128.962C110.128 128.716 110.251 128.51 110.456 128.387C110.62 128.264 110.866 128.182 111.113 128.223L127.685 131.669C128.095 131.751 128.342 132.12 128.301 132.531L127.726 140.612C127.726 140.858 127.603 141.063 127.398 141.186C127.234 141.309 127.07 141.35 126.865 141.35ZM111.195 136.51L126.208 139.627L126.66 133.146L111.646 130.028L111.195 136.51Z" fill="#231815"/>
<path d="M148.114 134.828L133.633 132.12L134.454 120.593L148.975 123.301L148.114 134.828Z" fill="white"/>
<path d="M148.073 135.648C148.073 135.648 148.032 135.648 147.991 135.648L133.51 132.941C133.1 132.859 132.813 132.49 132.854 132.08L133.674 120.553C133.674 120.306 133.797 120.101 134.003 119.978C134.167 119.855 134.413 119.814 134.618 119.814L149.098 122.522C149.509 122.604 149.796 122.973 149.755 123.383L148.934 134.91C148.934 135.156 148.811 135.361 148.606 135.484C148.442 135.607 148.237 135.648 148.073 135.648ZM134.495 131.464L147.417 133.885L148.114 123.957L135.192 121.537L134.495 131.464Z" fill="#231815"/>
<path d="M165.054 131.465L156.932 143.279L158.081 127.24L166.203 115.467L165.054 131.465Z" fill="#595757"/>
<path d="M156.892 144.059C156.892 144.059 156.769 144.059 156.687 144.018C156.358 143.894 156.112 143.566 156.153 143.197L157.302 127.199C157.302 127.199 157.343 126.912 157.425 126.788L165.547 114.974C165.752 114.687 166.122 114.564 166.491 114.687C166.819 114.81 167.065 115.138 167.024 115.508L165.875 131.506C165.875 131.506 165.834 131.793 165.752 131.916L157.63 143.73C157.466 143.976 157.179 144.1 156.933 144.059H156.892ZM158.861 127.527L157.917 140.367L164.235 131.178L165.178 118.338L158.861 127.527Z" fill="#231815"/>
<path d="M162.921 130.194L159.762 134.788L160.213 128.553L163.372 123.958L162.921 130.194Z" fill="white"/>
<path d="M159.722 135.567C159.722 135.567 159.599 135.567 159.517 135.526C159.189 135.403 158.942 135.075 158.983 134.706L159.435 128.47C159.435 128.47 159.476 128.183 159.558 128.06L162.716 123.466C162.922 123.179 163.291 123.056 163.66 123.179C163.988 123.302 164.234 123.63 164.193 123.999L163.742 130.234C163.742 130.234 163.701 130.521 163.619 130.645L160.46 135.239C160.296 135.485 160.009 135.608 159.763 135.567H159.722ZM160.994 128.799L160.788 131.875L162.142 129.906L162.347 126.83L160.994 128.799Z" fill="#231815"/>
<path d="M188.848 102.38L180.726 114.153L181.915 98.155L189.996 86.3408L188.848 102.38Z" fill="#595757"/>
<path d="M180.685 114.974C180.685 114.974 180.562 114.974 180.48 114.933C180.152 114.809 179.906 114.481 179.947 114.112L181.095 98.1138C181.095 98.1138 181.136 97.8266 181.219 97.7035L189.341 85.8894C189.546 85.6022 189.915 85.4791 190.284 85.6022C190.612 85.7253 190.859 86.0534 190.818 86.4226L189.669 102.421C189.669 102.421 189.628 102.708 189.546 102.831L181.424 114.645C181.26 114.892 180.972 115.015 180.726 114.974H180.685ZM182.695 98.4419L181.752 111.282L188.069 102.093L189.013 89.2531L182.695 98.4419Z" fill="#231815"/>
<path d="M186.715 101.068L183.556 105.662L184.007 99.4679L187.166 94.8735L186.715 101.068Z" fill="white"/>
<path d="M183.515 106.482C183.515 106.482 183.392 106.482 183.31 106.441C182.982 106.318 182.736 105.99 182.777 105.621L183.228 99.3857C183.228 99.3857 183.269 99.0985 183.351 98.9755L186.51 94.3811C186.715 94.0939 187.084 93.9708 187.453 94.0939C187.782 94.217 188.028 94.5451 187.987 94.9143L187.535 101.15C187.535 101.15 187.494 101.437 187.412 101.56L184.254 106.154C184.09 106.4 183.802 106.523 183.556 106.482H183.515ZM184.787 99.7138L184.582 102.79L185.936 100.821L186.141 97.7448L184.787 99.7138Z" fill="#231815"/>
<path d="M133.224 72.7217C133.224 72.7217 121.984 80.1466 122.189 89.1303C129.08 88.3919 132.485 85.3153 132.485 85.3153L133.224 72.7217Z" fill="#E8E8E8"/>
<path d="M122.147 89.9095C122.147 89.9095 121.819 89.8275 121.696 89.7044C121.532 89.5403 121.409 89.3352 121.409 89.1301C121.163 79.8183 132.321 72.3524 132.772 72.0242C133.018 71.8601 133.346 71.8601 133.592 72.0242C133.838 72.1883 134.002 72.4754 134.002 72.7626L133.264 85.3562C133.264 85.5613 133.141 85.7664 133.018 85.8894C132.854 86.0125 129.367 89.1712 122.27 89.9095C122.229 89.9095 122.188 89.9095 122.147 89.9095ZM132.321 74.3624C129.531 76.5365 123.419 81.9924 123.009 88.2277C127.972 87.5303 130.885 85.5613 131.705 84.9049L132.321 74.3624Z" fill="#231815"/>
<path d="M133.222 72.7217L126.495 92.7812L155.169 99.4266L151.969 76.0034L133.222 72.7217Z" fill="white"/>
<path d="M155.128 100.206C155.128 100.206 155.046 100.206 155.005 100.206L126.331 93.5604C126.126 93.5194 125.92 93.3553 125.797 93.1912C125.674 92.9861 125.674 92.781 125.756 92.5349L132.484 72.4754C132.607 72.1062 132.976 71.86 133.386 71.9421L152.133 75.2238C152.461 75.2648 152.749 75.552 152.79 75.9212L156.03 99.3444C156.03 99.5905 155.989 99.8777 155.784 100.042C155.62 100.206 155.415 100.247 155.169 100.247L155.128 100.206ZM127.52 92.2067L154.225 98.4009L151.231 76.7006L133.756 73.624L127.52 92.2067Z" fill="#231815"/>
<path d="M155.168 99.4266L151.969 76.0033L157.999 69.9321L164.521 89.3763L155.168 99.4266Z" fill="#BDBEBE"/>
<path d="M155.127 100.206C155.127 100.206 155.004 100.206 154.963 100.206C154.676 100.124 154.471 99.878 154.43 99.5498L151.189 76.1266C151.189 75.8804 151.23 75.6343 151.435 75.4702L157.506 69.3991C157.506 69.3991 157.999 69.1119 158.245 69.1939C158.532 69.276 158.737 69.4401 158.819 69.7272L165.3 89.1714C165.382 89.4585 165.3 89.7457 165.136 89.9508L155.783 100.001C155.783 100.001 155.373 100.288 155.127 100.247V100.206ZM152.789 76.2907L155.742 97.6628L163.618 89.2124L157.67 71.4501L152.789 76.3317V76.2907Z" fill="#231815"/>
<path d="M150.904 77.5621L132.075 73.9522L133.47 54.5491L152.34 58.159L150.904 77.5621Z" fill="#FDE4C3"/>
<path d="M150.863 78.3413H150.781L131.952 74.7314C131.542 74.6494 131.254 74.2802 131.295 73.87L132.69 54.4668C132.69 54.2207 132.813 54.0156 133.018 53.8925C133.182 53.7695 133.429 53.6874 133.675 53.7284L152.503 57.3383C152.914 57.4204 153.201 57.7896 153.16 58.1998L151.765 77.6029C151.765 77.8491 151.642 78.0542 151.437 78.1772C151.273 78.3003 151.068 78.3413 150.904 78.3413H150.863ZM132.936 73.2957L150.206 76.5774L151.478 58.7741L134.208 55.4924L132.936 73.2957Z" fill="#231815"/>
<path d="M158.781 69.9727L150.905 77.5617L152.341 58.1585L160.176 50.6106L158.781 69.9727Z" fill="#E9D3B4"/>
<path d="M150.863 78.341C150.863 78.341 150.658 78.341 150.576 78.259C150.289 78.1359 150.084 77.8077 150.125 77.4796L151.52 58.0764C151.52 58.0764 151.602 57.7072 151.766 57.5431L159.642 49.9952C159.888 49.7491 160.257 49.7081 160.544 49.8311C160.831 49.9542 161.037 50.2824 160.996 50.6105L159.601 70.0137C159.601 70.0137 159.519 70.3829 159.355 70.5469L151.479 78.0949C151.479 78.0949 151.068 78.341 150.863 78.3V78.341ZM153.078 58.5277L151.848 75.5516L158.001 69.6445L159.232 52.6206L153.078 58.5277Z" fill="#231815"/>
<path d="M133.1 58.4463C133.1 58.4463 139.705 57.5439 141.633 56.3132C144.422 60.0051 147.95 63.7791 148.934 62.7946C149.919 61.8101 149.591 60.2513 149.591 60.2513C149.591 60.2513 152.79 64.5995 154.144 64.5585C155.498 64.5175 158.287 64.2304 160.01 61.3178C161.733 58.4053 160.954 52.2931 159.395 48.9294C157.016 43.8837 150.165 41.7096 142.125 43.4325C134.085 45.1554 129.244 50.7343 133.1 58.4874V58.4463Z" fill="#675B4C"/>
<path d="M154.022 65.3376C152.873 65.2556 151.355 63.6968 150.166 62.3021C150.042 62.6712 149.796 63.0404 149.509 63.3276C149.222 63.6147 148.853 63.7378 148.402 63.7378C146.474 63.6147 143.11 59.5536 141.428 57.3385C138.967 58.446 133.88 59.1434 133.224 59.2254C132.896 59.2254 132.567 59.1024 132.403 58.7742C130.721 55.3694 130.516 52.0877 131.87 49.2983C133.47 46.0165 137.039 43.6373 141.961 42.5707C150.453 40.7658 157.59 43.104 160.134 48.5188C161.652 51.7185 162.718 58.2819 160.708 61.6457C158.657 65.0915 155.293 65.2146 154.186 65.2556C154.145 65.2556 154.104 65.2556 154.063 65.2556L154.022 65.3376ZM149.632 59.4305C149.878 59.4305 150.084 59.5536 150.207 59.7587C151.724 61.8098 153.529 63.6558 154.104 63.7378C155.621 63.6968 157.878 63.3276 159.313 60.9073C160.831 58.364 160.216 52.58 158.657 49.2572C156.442 44.5398 150.001 42.5297 142.289 44.1706C137.859 45.1141 134.659 47.2062 133.306 50.0366C132.239 52.2518 132.321 54.7951 133.593 57.5846C135.685 57.2564 139.91 56.518 141.223 55.6566C141.592 55.4515 142.043 55.5335 142.289 55.8617C145.407 60.0048 147.745 62.0149 148.443 62.179C149.017 61.5226 148.812 60.4561 148.812 60.4561C148.73 60.0869 148.935 59.7177 149.263 59.5536C149.386 59.5126 149.509 59.4716 149.632 59.4716V59.4305Z" fill="#231815"/>
<path d="M138.761 66.2808L136.217 65.5014L136.504 61.1121L139.089 61.8915L138.761 66.2808Z" fill="#231815"/>
<path d="M147.786 68.0044L145.243 67.225L145.571 62.8357L148.114 63.6151L147.786 68.0044Z" fill="#231815"/>
<path d="M141.264 73.7061C141.264 73.7061 141.141 73.7061 141.059 73.7061C137.9 73.3779 136.628 70.9576 136.423 69.727C136.3 69.0707 136.751 68.4143 137.408 68.2913C138.064 68.1682 138.72 68.6194 138.843 69.2758C138.884 69.4809 139.295 71.0397 141.305 71.2448C143.643 71.4499 145.079 69.768 145.12 69.686C145.571 69.1527 146.35 69.0707 146.884 69.5219C147.417 69.9731 147.499 70.7115 147.048 71.2448C146.966 71.3679 144.791 73.9522 141.223 73.7061H141.264Z" fill="#231815"/>
<path d="M157.671 73.3367C157.671 73.3367 155.21 81.3359 150.164 84.6997C145.119 88.0634 140.319 87.7352 140.319 87.7352L144.134 98.688C144.134 98.688 156.523 98.1137 161.856 84.9048C167.188 71.6959 160.174 70.7524 157.671 73.2957V73.3367Z" fill="#E8E8E8"/>
<path d="M144.051 99.5495C143.723 99.5495 143.477 99.3034 143.354 99.0162L139.539 88.0635C139.457 87.8174 139.498 87.5302 139.662 87.3251C139.826 87.12 140.072 86.9969 140.359 86.9969C140.401 86.9969 144.954 87.2841 149.712 84.0844C154.471 80.8848 156.891 73.2137 156.932 73.1317C156.932 73.0086 157.055 72.8856 157.137 72.8035C158.409 71.5319 160.788 70.8755 162.593 72.0651C164.193 73.0907 166.326 76.2083 162.634 85.274C157.137 98.8111 144.339 99.5495 144.174 99.5495H144.092H144.051ZM141.426 88.5558L144.667 97.8676C147.128 97.5805 156.604 95.7345 161.116 84.6177C164.562 76.0852 162.388 73.8291 161.65 73.3368C160.624 72.6394 159.188 73.0086 158.368 73.747C157.917 75.0597 155.414 82.1154 150.615 85.3561C146.841 87.8994 143.231 88.4327 141.426 88.5558Z" fill="#231815"/>
<path d="M144.093 104.718C142.945 104.636 142.042 103.693 142.042 102.544C142.042 101.724 141.632 94.6269 132.977 92.1246C125.224 89.8684 120.834 97.4164 120.67 97.7035C120.055 98.7701 118.701 99.1393 117.635 98.565C116.568 97.9497 116.158 96.596 116.773 95.5294C118.906 91.7144 125.265 85.192 134.248 87.8174C146.021 91.2222 146.514 101.313 146.555 102.462C146.555 103.693 145.611 104.718 144.381 104.718C144.299 104.718 144.257 104.718 144.175 104.718H144.093Z" fill="#231815"/>
<path d="M144.136 98.7293C144.136 98.7293 146.351 97.7038 145.285 93.2324C144.218 88.7611 140.321 86.71 138.516 87.4894C136.711 88.2689 132.937 91.4685 136.465 96.4731C139.952 101.478 143.644 100.903 144.177 98.7293H144.136Z" fill="#FDE4C3"/>
<path d="M141.592 101.108C139.664 100.985 137.572 99.4676 135.767 96.9243C134.29 94.8322 133.839 92.8221 134.413 90.8941C135.11 88.5559 137.12 87.1612 138.187 86.751C139.131 86.3818 140.361 86.5048 141.633 87.1612C143.766 88.2688 145.407 90.4429 146.063 93.0683C147.048 97.0884 145.53 98.7292 144.833 99.2625C144.463 100.206 143.643 100.903 142.576 101.108C142.248 101.149 141.92 101.191 141.592 101.149V101.108ZM139.459 88.1457C139.172 88.1457 138.925 88.1457 138.761 88.2277C138.023 88.5559 136.423 89.5814 135.931 91.3454C135.521 92.7811 135.931 94.3399 137.079 96.0218C139.131 98.9343 141.1 99.7137 142.289 99.5086C142.864 99.3856 143.233 99.0574 143.356 98.5241C143.397 98.278 143.561 98.1139 143.766 97.9908C143.848 97.9498 145.366 97.0473 144.463 93.4375C143.93 91.2633 142.576 89.4584 140.853 88.5559C140.32 88.2688 139.828 88.1457 139.459 88.1047V88.1457Z" fill="#231815"/>
<path d="M120.177 92.8629C120.177 92.8629 119.193 89.4581 121.982 87.5301C124.772 85.6021 129.981 84.0843 130.679 86.5866C131.376 89.0889 132.115 93.7243 127.93 95.1601C123.746 96.5958 120.875 95.6934 120.177 92.8629Z" fill="#FDE4C3"/>
<path d="M123.829 96.6373C122.967 96.5963 122.229 96.3502 121.572 96.022C120.465 95.4067 119.726 94.3812 119.398 93.0685C119.316 92.6993 118.373 89.0484 121.49 86.8742C123.541 85.4795 127.479 83.8386 129.818 84.7001C130.638 84.9872 131.171 85.5615 131.377 86.341C132.73 91.3046 131.582 94.6683 128.136 95.899C126.536 96.4733 125.059 96.7194 123.788 96.5963L123.829 96.6373ZM128.628 86.0948C126.946 85.9718 124.157 86.9973 122.393 88.1869C120.137 89.7457 120.875 92.4942 120.916 92.6172C121.121 93.5197 121.613 94.1761 122.311 94.5452C123.5 95.2016 125.387 95.1195 127.603 94.3401C130.228 93.4377 130.966 90.8533 129.818 86.7101C129.777 86.505 129.654 86.2589 129.243 86.1358C129.038 86.0538 128.833 86.0128 128.587 86.0128L128.628 86.0948Z" fill="#231815"/>
</g>
<defs>
<clipPath id="clip0_2070_327">
<rect width="168.844" height="143.37" fill="white" transform="translate(23.3257 3.6001)"/>
</clipPath>
</defs>
</svg>
