<svg width="360" height="250" viewBox="0 0 360 250" fill="none" xmlns="http://www.w3.org/2000/svg">
<path d="M184.305 176.328L190.306 170.429L182.996 169.171L184.305 176.328Z" fill="#595757"/>
<path d="M184.305 177.28C184.203 177.28 184.118 177.28 184.016 177.229C183.676 177.127 183.438 176.838 183.37 176.498L182.061 169.341C182.01 169.035 182.112 168.729 182.316 168.508C182.537 168.287 182.843 168.185 183.149 168.236L190.442 169.494C190.799 169.545 191.071 169.8 191.19 170.14C191.292 170.48 191.19 170.854 190.952 171.092L184.951 176.991C184.764 177.161 184.526 177.263 184.288 177.263L184.305 177.28ZM184.169 170.344L184.9 174.407L188.3 171.058L184.169 170.344Z" fill="#231815"/>
<path d="M242.683 182.363L248.684 176.464L241.374 175.206L242.683 182.363Z" fill="#595757"/>
<path d="M242.683 183.315C242.581 183.315 242.496 183.315 242.394 183.264C242.054 183.162 241.816 182.873 241.748 182.533L240.439 175.376C240.388 175.07 240.49 174.764 240.694 174.543C240.915 174.322 241.221 174.22 241.527 174.271L248.82 175.529C249.177 175.58 249.449 175.835 249.568 176.175C249.67 176.515 249.568 176.889 249.33 177.127L243.329 183.026C243.142 183.196 242.904 183.298 242.666 183.298L242.683 183.315ZM242.564 176.379L243.295 180.442L246.695 177.093L242.564 176.379Z" fill="#231815"/>
<path d="M253.528 177.943L165.332 168.627L163.105 136.412L171.333 117.049L196.34 100.695L277.413 106.662L280.116 153.446L253.528 177.943Z" fill="#EF7C00"/>
<path d="M253.529 178.895C253.529 178.895 253.461 178.895 253.427 178.895L165.231 169.579C164.772 169.528 164.415 169.154 164.381 168.695L162.171 136.463C162.171 136.31 162.171 136.157 162.239 136.021L170.467 116.675C170.535 116.505 170.671 116.352 170.824 116.25L195.814 99.8788C195.984 99.7598 196.205 99.7088 196.409 99.7258L277.499 105.693C277.975 105.727 278.349 106.118 278.383 106.594L281.069 153.378C281.069 153.667 280.967 153.939 280.763 154.126L254.175 178.623C254.005 178.776 253.767 178.878 253.529 178.878V178.895ZM166.217 167.777L253.189 176.957L279.131 153.055L276.513 107.546L196.579 101.647L172.099 117.678L164.075 136.548L166.217 167.76V167.777Z" fill="#231815"/>
<path d="M165.332 168.627L163.105 136.412L171.333 117.049L250.638 125.107L253.528 177.943L165.332 168.627Z" fill="#D97000"/>
<path d="M253.529 178.895C253.529 178.895 253.461 178.895 253.427 178.895L165.231 169.579C164.772 169.528 164.415 169.154 164.381 168.695L162.171 136.463C162.171 136.31 162.171 136.157 162.239 136.021L170.467 116.675C170.637 116.284 170.994 116.063 171.436 116.097L250.741 124.155C251.2 124.206 251.574 124.58 251.591 125.039L254.464 177.875C254.464 178.147 254.379 178.419 254.175 178.606C254.005 178.776 253.767 178.861 253.529 178.861V178.895ZM166.217 167.777L252.509 176.889L249.738 125.974L171.929 118.069L164.058 136.565L166.2 167.777H166.217Z" fill="#231815"/>
<path d="M253.529 177.943L250.639 125.107L277.414 106.662L280.117 153.446L253.529 177.943Z" fill="#C66600"/>
<path d="M253.529 178.895C253.41 178.895 253.291 178.878 253.172 178.827C252.832 178.691 252.611 178.368 252.577 177.994L249.704 125.158C249.687 124.835 249.84 124.512 250.112 124.325L276.887 105.88C277.176 105.693 277.533 105.659 277.839 105.812C278.145 105.965 278.349 106.271 278.366 106.611L281.052 153.395C281.052 153.684 280.95 153.956 280.746 154.143L254.158 178.64C253.988 178.81 253.75 178.895 253.512 178.895H253.529ZM251.625 125.583L254.362 175.869L279.131 153.055L276.564 108.396L251.608 125.583H251.625Z" fill="#231815"/>
<path d="M165.605 140.271L165.673 136.854L172.609 121.384L190.408 123.594L191.139 143.348L165.605 140.271Z" fill="white"/>
<path d="M191.138 144.3C191.138 144.3 191.07 144.3 191.019 144.3L165.485 141.206C164.992 141.155 164.635 140.73 164.652 140.237L164.72 136.837C164.72 136.718 164.754 136.582 164.805 136.463L171.758 120.993C171.928 120.619 172.336 120.381 172.744 120.449L190.526 122.659C190.985 122.71 191.342 123.101 191.359 123.56L192.09 143.314C192.09 143.586 191.988 143.858 191.784 144.045C191.614 144.198 191.376 144.3 191.138 144.3ZM166.556 139.421L190.135 142.277L189.472 124.444L173.186 122.421L166.607 137.075L166.556 139.421Z" fill="#231815"/>
<path d="M195.355 144.198L194.794 122.574L246.984 127.351L247.834 149.247L195.355 144.198Z" fill="white"/>
<path d="M247.834 150.199C247.834 150.199 247.766 150.199 247.749 150.199L195.27 145.15C194.794 145.099 194.42 144.708 194.42 144.232L193.859 122.625C193.859 122.353 193.961 122.098 194.165 121.911C194.369 121.724 194.624 121.639 194.896 121.656L247.103 126.433C247.579 126.484 247.953 126.858 247.97 127.334L248.82 149.23C248.82 149.502 248.718 149.774 248.514 149.961C248.344 150.131 248.106 150.216 247.868 150.216L247.834 150.199ZM196.273 143.331L246.848 148.193L246.083 128.218L195.78 123.611L196.29 143.314L196.273 143.331Z" fill="#231815"/>
<path d="M250.639 125.107L243.618 135.919L187.212 129.323L195.066 119.497L250.639 125.107Z" fill="#E9D900"/>
<path d="M243.618 136.854C243.618 136.854 243.55 136.854 243.516 136.854L187.11 130.258C186.77 130.224 186.481 130.003 186.345 129.68C186.209 129.357 186.26 129 186.481 128.728L194.335 118.902C194.539 118.647 194.845 118.511 195.168 118.545L250.741 124.155C251.064 124.189 251.353 124.393 251.506 124.682C251.659 124.971 251.625 125.328 251.438 125.6L244.417 136.412C244.247 136.684 243.941 136.837 243.618 136.837V136.854ZM189.014 128.575L243.142 134.899L248.99 125.889L195.474 120.483L189.014 128.575Z" fill="#231815"/>
<path d="M184.304 176.328L169.021 173.829L168.222 158.648L183.505 161.147L184.304 176.328Z" fill="#595757"/>
<path d="M184.305 177.28C184.305 177.28 184.203 177.28 184.152 177.28L168.886 174.764C168.444 174.696 168.121 174.322 168.087 173.88L167.288 158.699C167.288 158.41 167.39 158.138 167.594 157.951C167.815 157.764 168.104 157.662 168.376 157.713L183.659 160.229C184.101 160.297 184.424 160.671 184.458 161.113L185.257 176.294C185.257 176.583 185.155 176.855 184.951 177.042C184.781 177.195 184.543 177.28 184.322 177.28H184.305ZM169.94 173.013L183.302 175.206L182.605 161.963L169.243 159.77L169.94 173.013Z" fill="#231815"/>
<path d="M179.528 171.075L173.323 170.055L173 163.901L179.205 164.921L179.528 171.075Z" fill="white"/>
<path d="M179.528 172.027C179.528 172.027 179.426 172.027 179.375 172.027L173.17 171.007C172.728 170.939 172.405 170.565 172.371 170.123L172.048 163.969C172.048 163.68 172.15 163.408 172.354 163.221C172.575 163.034 172.864 162.932 173.136 162.983L179.341 164.003C179.783 164.071 180.106 164.445 180.14 164.887L180.463 171.041C180.463 171.33 180.361 171.602 180.157 171.789C179.987 171.942 179.749 172.027 179.528 172.027ZM174.241 169.239L178.525 169.936L178.304 165.72L174.02 165.023L174.241 169.239Z" fill="#231815"/>
<path d="M242.683 182.363L227.4 179.864L226.601 164.683L241.884 167.182L242.683 182.363Z" fill="#595757"/>
<path d="M242.683 183.315C242.683 183.315 242.581 183.315 242.53 183.315L227.264 180.799C226.822 180.731 226.499 180.357 226.465 179.915L225.666 164.734C225.666 164.445 225.768 164.173 225.972 163.986C226.193 163.799 226.482 163.697 226.754 163.748L242.02 166.264C242.462 166.332 242.785 166.706 242.819 167.148L243.618 182.329C243.618 182.618 243.516 182.89 243.312 183.077C243.142 183.23 242.904 183.315 242.683 183.315ZM228.318 179.048L241.68 181.241L240.983 167.998L227.621 165.805L228.318 179.048Z" fill="#231815"/>
<path d="M237.906 177.11L231.701 176.09L231.378 169.936L237.583 170.956L237.906 177.11Z" fill="white"/>
<path d="M237.906 178.062C237.906 178.062 237.804 178.062 237.753 178.062L231.548 177.042C231.106 176.974 230.783 176.6 230.749 176.158L230.426 170.004C230.426 169.715 230.528 169.443 230.732 169.256C230.953 169.069 231.225 168.967 231.514 169.018L237.719 170.038C238.161 170.106 238.484 170.48 238.518 170.922L238.841 177.076C238.841 177.365 238.739 177.637 238.535 177.824C238.365 177.977 238.127 178.062 237.906 178.062ZM232.619 175.274L236.903 175.971L236.682 171.755L232.398 171.058L232.619 175.274Z" fill="#231815"/>
<path d="M205.64 180.289C205.64 180.289 203.209 193.855 203.549 194.297C203.889 194.739 210.162 195.181 211.046 195.181C211.93 195.181 215.126 193.753 215.126 193.753L215.228 181.071L205.64 180.306V180.289Z" fill="#969797"/>
<path d="M211.029 195.963C211.029 195.963 203.617 195.725 202.903 194.773C202.665 194.45 202.376 194.059 204.858 180.17C204.926 179.779 205.266 179.507 205.691 179.524L215.279 180.289C215.687 180.323 216.01 180.663 215.993 181.071L215.891 193.753C215.891 194.059 215.704 194.331 215.432 194.467C214.65 194.824 211.998 195.963 211.029 195.963ZM204.297 193.753C205.657 194.042 210.043 194.399 211.029 194.399C211.42 194.399 212.95 193.838 214.327 193.243L214.429 181.802L206.269 181.139C205.334 186.443 204.399 192.138 204.297 193.753Z" fill="#231815"/>
<path d="M222.776 179.524C223.201 178.317 223.439 177.076 223.439 177.076L205.181 176.838V180.408C205.181 180.408 207.085 181.173 212.185 182.465C212.151 184.726 212.015 195.844 212.389 196.014C212.814 196.184 216.248 197.714 217.03 197.731C217.812 197.731 223.269 196.337 223.728 196.201C224.17 196.065 222.929 181.479 222.759 179.541L222.776 179.524Z" fill="#DCDDDD"/>
<path d="M217.03 198.513C216.588 198.513 215.704 198.309 212.321 196.83L212.1 196.728C211.488 196.473 211.233 196.371 211.403 183.06C206.745 181.853 204.977 181.156 204.909 181.122C204.62 181.003 204.416 180.714 204.416 180.391V176.821C204.416 176.617 204.484 176.413 204.637 176.26C204.79 176.107 204.977 176.039 205.181 176.039L223.439 176.277C223.677 176.277 223.898 176.379 224.034 176.566C224.187 176.753 224.238 176.974 224.204 177.212C224.204 177.263 223.966 178.419 223.575 179.626C225.02 196.609 224.748 196.694 223.983 196.932C223.762 197 218.033 198.513 217.047 198.513H217.03ZM213.052 195.453C216.129 196.779 216.86 196.949 217.047 196.949C217.625 196.949 221.62 195.963 223.048 195.572C223.099 193.923 222.674 187.633 221.994 179.592C221.994 179.49 221.994 179.371 222.028 179.269C222.198 178.776 222.351 178.266 222.453 177.841L205.963 177.637V179.864C206.813 180.153 208.802 180.799 212.372 181.717C212.729 181.802 212.967 182.125 212.967 182.482C212.882 189.129 212.916 194.161 213.052 195.453Z" fill="#231815"/>
<path d="M199.877 173.999C199.877 173.999 198.636 175.852 200.047 177.093C201.441 178.334 203.668 178.98 204.671 176.736C205.674 174.475 202.529 173.387 199.877 173.999Z" fill="#FDE4C3"/>
<path d="M202.597 179.014C201.594 179.014 200.472 178.538 199.503 177.688C197.99 176.345 198.653 174.407 199.214 173.557C199.316 173.387 199.503 173.268 199.69 173.234C201.526 172.809 203.957 173.081 205.079 174.424C205.691 175.155 205.793 176.09 205.368 177.042C204.79 178.351 203.889 178.793 203.226 178.946C203.022 178.997 202.801 179.014 202.58 179.014H202.597ZM200.37 174.696C200.166 175.121 199.894 175.937 200.54 176.515C201.322 177.212 202.24 177.552 202.886 177.416C203.328 177.314 203.668 176.991 203.923 176.413C204.161 175.886 204.008 175.614 203.855 175.427C203.311 174.764 201.781 174.458 200.353 174.696H200.37Z" fill="#231815"/>
<path d="M206.983 157.101C206.983 157.101 203.6 158.444 200.812 166.74C198.024 175.036 199.18 174.509 200.302 175.002C201.424 175.495 206.167 176.073 206.167 176.073C206.167 176.073 209.635 160.688 210.026 159.532C210.417 158.376 208.904 156.2 206.983 157.101Z" fill="#D5657E"/>
<path d="M206.167 176.855C206.167 176.855 206.099 176.855 206.065 176.855C205.572 176.787 201.169 176.26 199.979 175.733C199.894 175.699 199.809 175.665 199.724 175.631C197.871 174.968 197.667 173.625 200.064 166.485C202.818 158.274 206.252 156.557 206.643 156.387C207.714 155.894 208.87 156.064 209.771 156.863C210.655 157.645 211.063 158.886 210.757 159.787C210.485 160.603 208.309 170.072 206.932 176.243C206.847 176.6 206.524 176.855 206.167 176.855ZM207.289 157.832C207.289 157.832 204.144 159.328 201.56 166.995C199.282 173.795 199.877 174.016 200.268 174.152C200.387 174.186 200.506 174.237 200.625 174.288C201.271 174.577 203.753 174.968 205.572 175.206C206.303 171.959 208.938 160.348 209.295 159.294C209.38 159.056 209.21 158.444 208.751 158.036C208.462 157.764 207.969 157.526 207.34 157.815C207.34 157.815 207.323 157.815 207.306 157.815L207.289 157.832Z" fill="#231815"/>
<path d="M232.704 159.532C232.704 159.532 233.061 158.036 235.424 158.597C237.787 159.158 238.161 162.32 235.798 163.68C233.435 165.04 232.704 159.532 232.704 159.532Z" fill="#FDE4C3"/>
<path d="M235.067 164.683C234.727 164.683 234.438 164.581 234.217 164.479C232.517 163.646 232.007 160.297 231.922 159.634C231.922 159.532 231.922 159.447 231.922 159.345C231.956 159.243 232.109 158.682 232.67 158.24C233.163 157.849 234.064 157.475 235.577 157.832C236.937 158.155 237.923 159.209 238.11 160.586C238.331 162.099 237.583 163.527 236.155 164.36C235.747 164.598 235.373 164.683 235.05 164.683H235.067ZM233.52 159.634C233.724 160.909 234.268 162.745 234.931 163.068C234.999 163.102 235.118 163.17 235.407 163C236.427 162.405 236.682 161.487 236.597 160.824C236.495 160.093 235.985 159.549 235.254 159.379C234.54 159.209 233.979 159.243 233.673 159.481C233.605 159.532 233.554 159.6 233.52 159.651V159.634Z" fill="#231815"/>
<path d="M208.376 156.982L202.919 177.331L216.757 182.023L224.645 177.552L223.489 158.24L208.376 156.982Z" fill="#EC708A"/>
<path d="M216.758 182.805C216.758 182.805 216.588 182.805 216.503 182.771L202.665 178.096C202.274 177.96 202.053 177.552 202.155 177.144L207.595 156.795C207.697 156.421 208.054 156.183 208.411 156.217L223.524 157.458C223.915 157.492 224.221 157.798 224.238 158.189L225.377 177.518C225.394 177.824 225.241 178.096 224.986 178.249L217.115 182.703C216.996 182.771 216.86 182.805 216.724 182.805H216.758ZM203.872 176.821L216.69 181.156L223.83 177.11L222.759 158.954L208.972 157.815L203.889 176.821H203.872Z" fill="#231815"/>
<path d="M223.95 144.657L224.664 157.577L217.66 159.549L207.562 156.489L207.375 143.382L212.424 142.209L223.95 144.657Z" fill="#FDE4C3"/>
<path d="M217.659 160.348C217.659 160.348 217.506 160.348 217.438 160.314L207.34 157.254C207.017 157.152 206.779 156.863 206.779 156.523L206.575 143.416C206.575 143.042 206.83 142.719 207.187 142.634L212.253 141.461C212.372 141.427 212.474 141.427 212.593 141.461L224.119 143.909C224.459 143.977 224.714 144.283 224.748 144.64L225.479 157.56C225.496 157.934 225.258 158.257 224.901 158.359L217.897 160.348C217.897 160.348 217.761 160.382 217.676 160.382L217.659 160.348ZM208.343 155.911L217.676 158.733L223.847 156.982L223.184 145.303L212.423 143.025L208.156 144.011L208.343 155.911Z" fill="#231815"/>
<path d="M223.337 148.652L222.164 148.856L222.368 152.035L223.558 151.678L223.337 148.652Z" fill="#231815"/>
<path d="M222.249 155.469C221.127 155.469 220.311 154.908 220.26 154.874C219.903 154.619 219.818 154.143 220.073 153.786C220.328 153.446 220.804 153.344 221.161 153.599C221.212 153.633 222.164 154.245 223.218 153.633C223.592 153.412 224.068 153.548 224.289 153.922C224.51 154.296 224.374 154.772 224 154.993C223.371 155.367 222.759 155.486 222.232 155.486L222.249 155.469Z" fill="#231815"/>
<path d="M217.812 160.28L216.758 182.023L224.646 177.552L223.609 158.716L217.812 160.28Z" fill="#D5657E"/>
<path d="M216.758 182.805C216.622 182.805 216.469 182.771 216.35 182.686C216.112 182.533 215.959 182.261 215.976 181.972L217.03 160.229C217.03 159.889 217.285 159.6 217.608 159.515L223.405 157.951C223.626 157.883 223.881 157.934 224.068 158.07C224.255 158.206 224.374 158.427 224.391 158.665L225.428 177.501C225.428 177.79 225.292 178.079 225.037 178.232L217.166 182.686C217.047 182.754 216.911 182.788 216.775 182.788L216.758 182.805ZM218.577 160.875L217.625 180.629L223.83 177.11L222.878 159.719L218.577 160.875Z" fill="#231815"/>
<path d="M221.161 160.399C221.161 160.399 223.15 158.716 225.037 160.314C226.924 161.912 227.281 162.32 228.369 162.014C229.457 161.708 232.755 158.869 232.755 158.869C232.755 158.869 235.322 160.96 235.883 162.337C236.444 163.714 235.577 166.009 231.786 168.049C227.995 170.089 224.544 168.916 222.317 166.91C220.09 164.904 219.478 161.691 221.161 160.399Z" fill="#EC708A"/>
<path d="M227.791 169.885C225.649 169.885 223.575 169.069 221.807 167.488C220.277 166.111 219.376 164.173 219.427 162.439C219.461 161.334 219.903 160.382 220.668 159.787C221.535 159.056 223.66 158.121 225.547 159.702L226.04 160.127C227.536 161.402 227.621 161.419 228.165 161.266C228.743 161.113 230.732 159.6 232.245 158.291C232.534 158.036 232.959 158.036 233.248 158.291C233.52 158.512 235.985 160.552 236.614 162.065C237.277 163.68 236.529 166.417 232.177 168.763C230.749 169.528 229.253 169.919 227.791 169.919V169.885ZM223.235 160.399C222.419 160.399 221.773 160.909 221.671 160.994C221.671 160.994 221.671 160.994 221.654 160.994C221.144 161.385 221.008 162.014 220.991 162.473C220.94 163.748 221.671 165.261 222.844 166.315C224.034 167.386 227.23 169.613 231.429 167.352C234.625 165.618 235.611 163.697 235.169 162.626C234.863 161.895 233.69 160.705 232.755 159.889C231.701 160.773 229.576 162.49 228.59 162.762C227.196 163.153 226.567 162.609 225.037 161.317L224.544 160.909C224.102 160.535 223.66 160.416 223.235 160.416V160.399Z" fill="#231815"/>
<path d="M223.439 142.345C221.314 139.744 218.934 139.404 217.812 139.404C214.684 138.197 209.567 138.996 206.575 142.549C203.175 146.595 207.221 155.01 207.068 156.71C206.915 158.41 205.079 157.781 205.504 158.903C205.929 160.025 209.125 161.742 212.236 159.889C213.868 162.235 221.654 161.232 220.107 160.535C218.543 159.821 218.186 153.803 218.475 149.128C219.937 148.193 221.008 146.085 221.484 145.048L221.586 145.184C221.586 145.184 224.136 147.462 224.476 147.071C224.816 146.68 225.394 144.691 223.439 142.311V142.345Z" fill="#675B4C"/>
<path d="M217.03 162.15C215.262 162.15 213.222 161.844 212.083 160.875C210.026 161.861 208.173 161.47 207.221 161.147C206.014 160.722 205.079 159.974 204.773 159.192C204.314 157.968 205.351 157.492 205.691 157.339C206.082 157.152 206.252 157.084 206.286 156.642C206.32 156.319 206.014 155.248 205.742 154.296C204.807 150.93 203.226 145.303 205.963 142.039C209.125 138.282 214.497 137.347 217.948 138.605C219.325 138.639 221.807 139.115 224.034 141.835C226.21 144.487 225.649 146.901 225.071 147.598C224.935 147.768 224.629 147.904 224.425 147.921C224.187 147.921 223.643 147.972 221.705 146.357C221.144 147.428 220.294 148.737 219.223 149.553C218.9 155.452 219.699 159.498 220.413 159.821C221.059 160.11 221.093 160.603 221.076 160.807C221.008 161.538 220.192 161.759 219.886 161.844C219.274 162.014 218.203 162.15 217.03 162.15ZM212.236 159.124C212.491 159.124 212.729 159.243 212.882 159.464C213.732 160.671 217.234 160.739 218.934 160.467C217.268 157.883 217.591 150.692 217.693 149.094C217.693 148.839 217.846 148.618 218.05 148.482C219.376 147.632 220.379 145.592 220.77 144.759C220.889 144.504 221.127 144.334 221.399 144.3C221.671 144.266 221.943 144.385 222.113 144.606L222.215 144.742C222.827 145.269 223.558 145.83 224.017 146.153C224.119 145.507 224.017 144.3 222.827 142.855C220.94 140.543 218.866 140.203 217.812 140.203C217.71 140.203 217.625 140.186 217.523 140.152C214.667 139.047 209.89 139.846 207.17 143.076C204.96 145.711 206.388 150.828 207.255 153.905C207.68 155.418 207.901 156.234 207.85 156.812C207.731 158.172 206.83 158.58 206.337 158.801C206.541 159.056 206.983 159.43 207.731 159.685C208.513 159.957 210.094 160.28 211.828 159.243C211.947 159.175 212.083 159.141 212.219 159.141L212.236 159.124Z" fill="#231815"/>
<path d="M290.636 183.429C290.636 183.429 288.511 184.33 288.392 185.673C288.273 187.016 289.174 189.498 290.976 189.379C292.778 189.26 293.56 188.036 293.781 187.254C294.002 186.472 290.636 183.429 290.636 183.429Z" fill="#FDE4C3"/>
<path d="M290.84 190.144C290.126 190.144 289.463 189.855 288.919 189.294C287.95 188.308 287.542 186.693 287.627 185.622C287.78 183.871 290.075 182.851 290.33 182.732C290.602 182.613 290.908 182.664 291.129 182.868C294.852 186.217 294.597 187.118 294.495 187.458C294.155 188.665 293.05 190.008 291.01 190.144C290.959 190.144 290.891 190.144 290.84 190.144ZM290.5 184.33C289.922 184.653 289.191 185.197 289.14 185.724C289.089 186.438 289.395 187.594 290.007 188.206C290.296 188.495 290.585 188.631 290.925 188.597C292.37 188.512 292.863 187.526 293.016 187.135C292.829 186.676 291.758 185.486 290.517 184.33H290.5Z" fill="#231815"/>
<path d="M302.197 170.066C302.197 170.066 298.712 169.947 297.59 171.528C296.468 173.109 291.98 182.085 289.957 183.309L293.663 187.797C293.663 187.797 298.151 184.312 301.075 178.481C303.999 172.65 302.197 170.066 302.197 170.066Z" fill="#EBBF00"/>
<path d="M293.662 188.563C293.441 188.563 293.22 188.461 293.084 188.291L289.378 183.803C289.242 183.633 289.174 183.412 289.208 183.191C289.242 182.97 289.378 182.783 289.565 182.664C290.823 181.899 293.543 177.037 295.192 174.13C295.991 172.702 296.62 171.58 296.977 171.087C298.303 169.234 301.822 169.302 302.23 169.302C302.468 169.302 302.689 169.438 302.825 169.625C302.91 169.744 304.848 172.651 301.754 178.822C298.796 184.738 294.325 188.257 294.138 188.393C294.002 188.495 293.832 188.546 293.679 188.546L293.662 188.563ZM291.027 183.412L293.764 186.727C295.039 185.605 298.201 182.545 300.394 178.142C302.468 173.994 302.009 171.648 301.72 170.832C300.683 170.866 298.83 171.121 298.218 171.971C297.912 172.413 297.266 173.552 296.518 174.878C294.376 178.686 292.455 181.984 291.027 183.412Z" fill="#231815"/>
<path d="M325.639 183.429C325.639 183.429 327.764 184.33 327.883 185.673C328.002 187.016 327.101 189.498 325.299 189.379C323.497 189.26 322.715 188.036 322.494 187.254C322.273 186.472 325.639 183.429 325.639 183.429Z" fill="#FDE4C3"/>
<path d="M325.418 190.144C325.418 190.144 325.316 190.144 325.248 190.144C323.208 190.008 322.086 188.614 321.763 187.458C321.661 187.118 321.406 186.217 325.129 182.868C325.35 182.664 325.656 182.613 325.928 182.732C326.183 182.834 328.495 183.854 328.631 185.622C328.716 186.693 328.308 188.308 327.339 189.294C326.795 189.855 326.132 190.144 325.418 190.144ZM323.259 187.152C323.395 187.543 323.905 188.529 325.35 188.614C325.673 188.631 325.979 188.512 326.268 188.223C326.88 187.594 327.186 186.438 327.135 185.741C327.084 185.214 326.353 184.67 325.775 184.347C324.534 185.503 323.463 186.71 323.276 187.152H323.259Z" fill="#231815"/>
<path d="M314.062 170.066C314.062 170.066 317.547 169.947 318.669 171.528C319.791 173.109 324.279 182.085 326.302 183.309L322.596 187.797C322.596 187.797 318.108 184.312 315.184 178.481C312.26 172.65 314.062 170.066 314.062 170.066Z" fill="#EBBF00"/>
<path d="M322.596 188.563C322.426 188.563 322.273 188.512 322.137 188.41C321.95 188.257 317.479 184.755 314.521 178.839C311.444 172.668 313.365 169.761 313.45 169.642C313.586 169.438 313.807 169.319 314.045 169.319C314.436 169.319 317.972 169.251 319.298 171.104C319.655 171.597 320.284 172.719 321.083 174.147C322.715 177.054 325.452 181.916 326.71 182.681C326.897 182.8 327.033 182.987 327.067 183.208C327.101 183.429 327.05 183.65 326.897 183.82L323.191 188.308C323.038 188.495 322.817 188.58 322.613 188.58L322.596 188.563ZM314.555 170.832C314.266 171.648 313.807 173.994 315.881 178.142C318.091 182.545 321.236 185.605 322.511 186.727L325.248 183.412C323.82 181.984 321.899 178.686 319.757 174.878C319.009 173.552 318.363 172.413 318.057 171.971C317.445 171.121 315.592 170.866 314.555 170.832Z" fill="#231815"/>
<path d="M307.099 194.086L300.939 192.902L298.693 204.588L304.853 205.772L307.099 194.086Z" fill="#FDE4C3"/>
<path d="M304.831 206.565C304.831 206.565 304.729 206.565 304.695 206.565L298.524 205.375C298.116 205.29 297.844 204.899 297.929 204.491L300.173 192.795C300.258 192.387 300.649 192.115 301.057 192.2L307.228 193.39C307.636 193.475 307.908 193.866 307.823 194.274L305.579 205.97C305.545 206.174 305.426 206.344 305.256 206.463C305.137 206.548 304.984 206.599 304.831 206.599V206.565ZM299.561 204.015L304.236 204.916L306.191 194.716L301.516 193.815L299.561 204.015Z" fill="#231815"/>
<path d="M305.896 200.371L299.735 199.187L298.692 204.612L304.853 205.796L305.896 200.371Z" fill="#756858"/>
<path d="M304.831 206.566C304.831 206.566 304.729 206.566 304.695 206.566L298.524 205.376C298.116 205.291 297.844 204.9 297.929 204.492L298.966 199.069C299 198.865 299.119 198.695 299.289 198.576C299.459 198.457 299.663 198.423 299.867 198.457L306.038 199.647C306.446 199.732 306.718 200.123 306.633 200.531L305.596 205.954C305.562 206.158 305.443 206.328 305.273 206.447C305.154 206.532 305.001 206.583 304.848 206.583L304.831 206.566ZM299.561 204.016L304.236 204.917L304.984 200.99L300.309 200.089L299.561 204.016Z" fill="#231815"/>
<path d="M314.871 193.195L308.622 193.738L309.653 205.594L315.902 205.05L314.871 193.195Z" fill="#FDE4C3"/>
<path d="M309.642 206.379C309.251 206.379 308.928 206.073 308.894 205.682L307.857 193.816C307.84 193.612 307.908 193.425 308.027 193.255C308.146 193.085 308.35 193 308.537 192.983L314.793 192.439C315.184 192.405 315.575 192.711 315.609 193.136L316.646 205.002C316.663 205.206 316.595 205.393 316.476 205.563C316.357 205.733 316.153 205.818 315.966 205.835L309.71 206.379C309.71 206.379 309.659 206.379 309.642 206.379ZM309.438 194.445L310.339 204.798L315.082 204.39L314.181 194.037L309.438 194.445Z" fill="#231815"/>
<path d="M315.422 199.557L309.173 200.1L309.652 205.604L315.901 205.061L315.422 199.557Z" fill="#756858"/>
<path d="M309.642 206.378C309.472 206.378 309.285 206.31 309.149 206.208C308.996 206.072 308.894 205.885 308.877 205.698L308.401 200.19C308.367 199.765 308.673 199.408 309.098 199.374L315.354 198.83C315.762 198.796 316.136 199.102 316.17 199.527L316.646 205.035C316.663 205.239 316.595 205.426 316.476 205.596C316.357 205.766 316.153 205.851 315.966 205.868L309.71 206.412C309.71 206.412 309.659 206.412 309.642 206.412V206.378ZM309.982 200.802L310.322 204.78L315.065 204.372L314.725 200.394L309.982 200.802Z" fill="#231815"/>
<path d="M317.751 196.467H297.317L300.139 177.563H315.252L317.751 196.467Z" fill="#C45A76"/>
<path d="M317.751 197.233H297.317C297.096 197.233 296.892 197.131 296.739 196.961C296.603 196.791 296.535 196.57 296.569 196.349L299.391 177.445C299.442 177.071 299.765 176.799 300.139 176.799H315.269C315.643 176.799 315.966 177.088 316.017 177.462L318.516 196.366C318.55 196.587 318.482 196.808 318.329 196.961C318.193 197.131 317.972 197.216 317.751 197.216V197.233ZM298.201 195.703H316.884L314.589 178.312H300.785L298.201 195.703Z" fill="#231815"/>
<path d="M317.751 189.157H297.317L300.139 170.236H315.252L317.751 189.157Z" fill="#EBBF00"/>
<path d="M317.751 189.905H297.317C297.096 189.905 296.892 189.803 296.739 189.633C296.603 189.463 296.535 189.242 296.569 189.021L299.391 170.117C299.442 169.743 299.765 169.471 300.139 169.471H315.269C315.643 169.471 315.966 169.76 316.017 170.134L318.516 189.038C318.55 189.259 318.482 189.48 318.329 189.633C318.193 189.803 317.972 189.888 317.751 189.888V189.905ZM298.201 188.392H316.884L314.589 171.001H300.785L298.201 188.392Z" fill="#231815"/>
<path d="M311.784 168.723H303.505V171.052H311.784V168.723Z" fill="#E9D3B4"/>
<path d="M311.801 171.801H303.522C303.097 171.801 302.757 171.461 302.757 171.036V168.707C302.757 168.282 303.097 167.942 303.522 167.942H311.801C312.226 167.942 312.566 168.282 312.566 168.707V171.036C312.566 171.461 312.226 171.801 311.801 171.801ZM304.27 170.288H311.036V169.472H304.27V170.288Z" fill="#231815"/>
<path d="M302.859 170.814C302.859 170.814 300.071 171.97 299.374 170.627C298.609 169.199 297.3 167.363 297.402 163.827C297.504 160.291 297.912 153.916 301.329 152.199C304.763 150.482 312.124 150.006 314.164 153.117C316.204 156.228 317.734 162.671 317.513 164.813C317.326 166.581 315.813 170.423 314.3 170.627C311.104 171.035 302.859 170.814 302.859 170.814Z" fill="#675B4C"/>
<path d="M300.751 172.039C299.935 172.039 299.136 171.801 298.711 171.002L298.405 170.458C297.623 169.047 296.552 167.126 296.654 163.828C296.79 159.425 297.385 153.356 301.006 151.537C304.372 149.854 312.379 149.004 314.827 152.71C317.003 156.025 318.516 162.655 318.295 164.899C318.125 166.667 316.544 171.121 314.419 171.393C311.41 171.784 304.202 171.614 303.012 171.58C302.621 171.733 301.686 172.039 300.768 172.039H300.751ZM307.942 151.622C305.664 151.622 303.25 152.115 301.686 152.897C298.456 154.512 298.235 161.55 298.167 163.862C298.082 166.752 299 168.384 299.731 169.71L300.054 170.288C300.292 170.73 301.703 170.475 302.57 170.118C302.672 170.084 302.757 170.067 302.876 170.067C302.961 170.067 311.104 170.305 314.198 169.897C315.031 169.795 316.561 166.718 316.765 164.763C316.969 162.774 315.456 156.484 313.535 153.56C312.634 152.2 310.373 151.639 307.925 151.639L307.942 151.622Z" fill="#231815"/>
<path d="M313.859 158.744H300.99V169.488H313.859V158.744Z" fill="#FDE4C3"/>
<path d="M313.859 170.253H300.99C300.565 170.253 300.225 169.913 300.225 169.488V158.744C300.225 158.319 300.565 157.979 300.99 157.979H313.859C314.284 157.979 314.624 158.319 314.624 158.744V169.488C314.624 169.913 314.284 170.253 313.859 170.253ZM301.755 168.74H313.111V159.509H301.755V168.74Z" fill="#231815"/>
<path d="M299.918 157.588C299.595 158.336 299.561 160.24 300.105 160.988C300.649 161.736 300.87 161.566 301.89 161.345C301.89 161.345 309.455 160.393 310.526 158.03C311.104 160.274 313.348 161.617 314.419 162.059C315.49 162.501 315.15 158.404 315.048 157.758" fill="#675B4C"/>
<path d="M314.555 162.841C314.419 162.841 314.266 162.807 314.113 162.756C313.042 162.331 311.24 161.209 310.271 159.458C308.027 161.243 303.097 161.957 301.975 162.093L301.72 162.161C300.802 162.365 300.19 162.433 299.476 161.43C298.745 160.41 298.813 158.217 299.221 157.299C299.391 156.908 299.833 156.738 300.224 156.908C300.615 157.078 300.785 157.52 300.615 157.911C300.36 158.489 300.377 160.104 300.717 160.563C300.853 160.767 300.921 160.801 300.921 160.801C300.938 160.801 301.176 160.733 301.38 160.682L301.72 160.597C304.746 160.206 309.2 159.067 309.812 157.724C309.948 157.435 310.22 157.248 310.577 157.282C310.9 157.316 311.172 157.537 311.24 157.843C311.682 159.509 313.28 160.665 314.317 161.192C314.47 160.427 314.402 158.642 314.283 157.894C314.215 157.486 314.487 157.095 314.912 157.01C315.32 156.942 315.728 157.214 315.796 157.639C315.796 157.673 316.391 161.685 315.252 162.603C315.048 162.756 314.827 162.841 314.589 162.841H314.555Z" fill="#231815"/>
<path d="M304.95 162.144H303.505V164.83H304.95V162.144Z" fill="#231815"/>
<path d="M310.832 162.144H309.387V164.83H310.832V162.144Z" fill="#231815"/>
<path d="M307.262 168.145C305.97 168.145 305.086 167.499 304.712 166.989C304.44 166.632 304.525 166.122 304.882 165.85C305.239 165.578 305.732 165.646 306.004 166.003C306.106 166.122 306.939 167.057 308.843 166.054C309.234 165.85 309.727 166.003 309.948 166.394C310.152 166.785 309.999 167.278 309.608 167.499C308.724 167.975 307.942 168.145 307.262 168.145Z" fill="#231815"/>
<path d="M327.288 197.283H263.164L267.992 191.656H332.116L327.288 197.283Z" fill="#FDE4C3"/>
<path d="M327.288 198.049H263.164C262.875 198.049 262.603 197.879 262.467 197.607C262.348 197.335 262.382 197.029 262.586 196.791L267.414 191.164C267.55 190.994 267.771 190.892 267.992 190.892H332.116C332.405 190.892 332.677 191.062 332.813 191.334C332.932 191.606 332.898 191.912 332.694 192.15L327.866 197.777C327.713 197.947 327.509 198.049 327.288 198.049ZM264.813 196.536H326.931L330.45 192.422H268.332L264.813 196.536Z" fill="#231815"/>
<path d="M327.289 213.655H263.165L263.42 197.029H327.544L327.289 213.655Z" fill="#A0907C"/>
<path d="M327.288 214.42H263.164C262.96 214.42 262.773 214.335 262.62 214.199C262.467 214.063 262.399 213.859 262.399 213.655L262.671 197.012C262.671 196.604 263.011 196.264 263.436 196.264H327.56C327.764 196.264 327.951 196.349 328.104 196.485C328.257 196.621 328.325 196.825 328.325 197.029L328.053 213.672C328.053 214.08 327.713 214.42 327.288 214.42ZM263.929 212.89H326.523L326.761 197.777H264.15L263.912 212.89H263.929Z" fill="#231815"/>
<path d="M331.98 208.3L327.543 213.791V197.029L331.98 191.521V208.3Z" fill="#7C6F5E"/>
<path d="M327.543 214.556C327.543 214.556 327.373 214.556 327.288 214.505C326.982 214.403 326.778 214.114 326.778 213.791V197.029C326.778 196.859 326.829 196.689 326.948 196.553L331.368 191.062C331.572 190.807 331.912 190.705 332.218 190.824C332.524 190.926 332.728 191.215 332.728 191.538V208.3C332.728 208.47 332.677 208.64 332.558 208.776L328.138 214.267C327.985 214.454 327.764 214.556 327.543 214.556ZM328.308 197.284V211.632L331.215 208.028V193.68L328.308 197.284Z" fill="#231815"/>
<path d="M287.423 187.559H280.045L282.221 185.009L289.514 184.958L287.423 187.559Z" fill="#00A0E9"/>
<path d="M287.423 188.325H280.045C279.756 188.325 279.484 188.155 279.348 187.883C279.229 187.611 279.263 187.305 279.467 187.067L281.626 184.517C281.762 184.347 281.983 184.245 282.204 184.245L289.514 184.177C289.803 184.177 290.075 184.347 290.194 184.602C290.33 184.874 290.279 185.18 290.109 185.418L288.018 188.019C287.882 188.206 287.661 188.308 287.423 188.308V188.325ZM281.694 186.795H287.049L287.916 185.724L282.561 185.775L281.694 186.795Z" fill="#231815"/>
<path d="M287.304 195.431H279.926L280.045 187.56H287.423L287.304 195.431Z" fill="#008DCB"/>
<path d="M287.304 196.196H279.926C279.722 196.196 279.535 196.111 279.382 195.975C279.229 195.839 279.161 195.635 279.161 195.431L279.28 187.56C279.28 187.152 279.62 186.812 280.045 186.812H287.423C287.627 186.812 287.814 186.897 287.967 187.033C288.12 187.169 288.188 187.373 288.188 187.577L288.069 195.448C288.069 195.856 287.729 196.196 287.304 196.196ZM280.691 194.683H286.539L286.641 188.325H280.793L280.691 194.683Z" fill="#231815"/>
<path d="M289.514 192.897L287.304 195.431L287.423 187.559L289.514 184.958V192.897Z" fill="#007DB4"/>
<path d="M287.304 196.196C287.219 196.196 287.117 196.196 287.032 196.145C286.743 196.026 286.539 195.737 286.539 195.431L286.658 187.56C286.658 187.39 286.726 187.22 286.828 187.101L288.919 184.5C289.123 184.245 289.463 184.16 289.769 184.262C290.075 184.364 290.279 184.653 290.279 184.976V192.915C290.279 193.102 290.211 193.272 290.092 193.408L287.865 195.958C287.712 196.128 287.508 196.213 287.287 196.213L287.304 196.196ZM288.188 187.832L288.103 193.374L288.766 192.609V187.101L288.188 187.815V187.832Z" fill="#231815"/>
<path d="M301.908 187.559H294.547L296.706 185.009L304.016 184.958L301.908 187.559Z" fill="#00A0E9"/>
<path d="M301.907 188.325H294.529C294.24 188.325 293.968 188.155 293.832 187.883C293.713 187.611 293.747 187.305 293.951 187.067L296.11 184.517C296.246 184.347 296.467 184.245 296.688 184.245L303.998 184.177C304.287 184.177 304.559 184.347 304.678 184.602C304.814 184.874 304.763 185.18 304.593 185.418L302.502 188.019C302.366 188.206 302.145 188.308 301.907 188.308V188.325ZM296.178 186.795H301.533L302.4 185.724L297.045 185.775L296.178 186.795Z" fill="#231815"/>
<path d="M301.789 195.431H294.411L294.547 187.56H301.908L301.789 195.431Z" fill="#008DCB"/>
<path d="M301.788 196.196H294.41C294.206 196.196 294.019 196.111 293.866 195.975C293.713 195.839 293.645 195.635 293.645 195.431L293.781 187.56C293.781 187.152 294.121 186.812 294.546 186.812H301.924C302.128 186.812 302.315 186.897 302.468 187.033C302.621 187.169 302.689 187.373 302.689 187.577L302.57 195.448C302.57 195.856 302.23 196.196 301.805 196.196H301.788ZM295.192 194.683H301.04L301.142 188.325H295.294L295.192 194.683Z" fill="#231815"/>
<path d="M304.015 192.897L301.788 195.431L301.907 187.559L304.015 184.958V192.897Z" fill="#007DB4"/>
<path d="M301.788 196.196C301.703 196.196 301.601 196.196 301.516 196.145C301.227 196.026 301.023 195.737 301.023 195.431L301.142 187.56C301.142 187.39 301.21 187.22 301.312 187.101L303.403 184.5C303.607 184.245 303.947 184.16 304.253 184.262C304.559 184.364 304.763 184.653 304.763 184.976V192.915C304.763 193.102 304.695 193.272 304.576 193.408L302.349 195.958C302.196 196.128 301.992 196.213 301.771 196.213L301.788 196.196ZM302.672 187.832L302.587 193.374L303.25 192.609V187.101L302.672 187.832Z" fill="#231815"/>
<path d="M317.735 187.559H310.374L312.533 185.009L319.843 184.958L317.735 187.559Z" fill="#00A0E9"/>
<path d="M317.734 188.325H310.356C310.067 188.325 309.795 188.155 309.659 187.883C309.54 187.611 309.574 187.305 309.778 187.067L311.937 184.517C312.073 184.347 312.294 184.245 312.515 184.245L319.825 184.177C320.114 184.177 320.386 184.347 320.505 184.602C320.641 184.874 320.59 185.18 320.42 185.418L318.329 188.019C318.193 188.206 317.972 188.308 317.734 188.308V188.325ZM312.022 186.795H317.394L318.261 185.724L312.906 185.775L312.039 186.795H312.022Z" fill="#231815"/>
<path d="M317.616 195.431H310.238L310.374 187.56H317.735L317.616 195.431Z" fill="#008DCB"/>
<path d="M317.615 196.196H310.237C310.033 196.196 309.846 196.111 309.693 195.975C309.54 195.839 309.472 195.635 309.472 195.431L309.591 187.56C309.591 187.152 309.931 186.812 310.356 186.812H317.734C317.938 186.812 318.125 186.897 318.278 187.033C318.431 187.169 318.499 187.373 318.499 187.577L318.363 195.448C318.363 195.856 318.023 196.196 317.598 196.196H317.615ZM311.019 194.683H316.867L316.969 188.325H311.121L311.019 194.683Z" fill="#231815"/>
<path d="M319.842 192.897L317.615 195.431L317.734 187.559L319.842 184.958V192.897Z" fill="#007DB4"/>
<path d="M317.615 196.196C317.53 196.196 317.428 196.196 317.343 196.145C317.054 196.026 316.85 195.737 316.85 195.431L316.986 187.56C316.986 187.39 317.054 187.22 317.156 187.101L319.247 184.5C319.451 184.245 319.791 184.16 320.097 184.262C320.403 184.364 320.607 184.653 320.607 184.976V192.915C320.607 193.102 320.539 193.272 320.42 193.408L318.193 195.958C318.04 196.128 317.836 196.213 317.615 196.213V196.196ZM318.499 187.832L318.414 193.374L319.077 192.609V187.101L318.499 187.815V187.832Z" fill="#231815"/>
<path d="M314.673 158.217C314.673 158.217 307.873 156.245 306.258 155.361C304.643 154.477 300.631 152.59 300.529 151.519C300.427 150.448 301.787 148.306 306.785 148.561C311.783 148.816 315.727 150.89 316.356 154.817C316.985 158.744 315.914 158.387 314.656 158.217H314.673Z" fill="#EBBF00"/>
<path d="M315.541 159.068C315.269 159.068 314.997 159.034 314.742 158.983H314.572C314.572 158.983 314.504 158.949 314.47 158.932C314.181 158.847 307.568 156.926 305.902 156.008C305.613 155.855 305.239 155.651 304.831 155.447C301.414 153.662 299.884 152.676 299.782 151.571C299.731 150.857 300.037 150.092 300.649 149.463C301.499 148.596 303.25 147.61 306.837 147.797C312.634 148.103 316.476 150.687 317.122 154.699C317.462 156.858 317.36 157.997 316.748 158.626C316.391 158.983 315.966 159.085 315.541 159.085V159.068ZM314.827 157.47H314.963C315.201 157.521 315.575 157.572 315.677 157.538C315.677 157.538 315.983 157.181 315.626 154.937C314.878 150.245 309.183 149.446 306.769 149.31C303.59 149.14 302.264 149.99 301.754 150.517C301.397 150.891 301.295 151.248 301.312 151.435C301.567 152.013 304.355 153.475 305.545 154.087C305.97 154.308 306.344 154.512 306.65 154.665C307.891 155.362 312.94 156.892 314.844 157.453L314.827 157.47Z" fill="#231815"/>
<path d="M279.688 210.527C279.688 210.527 278.94 212.533 280.538 213.383C282.136 214.233 284.346 214.335 284.771 212.006C285.196 209.677 282.017 209.354 279.688 210.527Z" fill="#FDE4C3"/>
<path d="M280.164 214.08C278.43 213.162 278.617 211.173 278.957 210.255C279.025 210.068 279.161 209.915 279.348 209.83C280.98 209.014 283.326 208.725 284.686 209.745C285.434 210.306 285.74 211.156 285.553 212.159C285.298 213.519 284.55 214.148 283.972 214.437C283.547 214.641 283.071 214.743 282.561 214.743C281.813 214.743 280.98 214.522 280.181 214.097L280.164 214.08ZM280.334 211.088C280.249 211.53 280.198 212.329 280.895 212.703C281.762 213.162 282.697 213.298 283.258 213.026C283.632 212.839 283.87 212.465 283.989 211.887C284.091 211.36 283.887 211.139 283.717 211.003C283.428 210.799 282.952 210.663 282.357 210.663C281.762 210.663 281.031 210.799 280.334 211.105V211.088Z" fill="#231815"/>
<path d="M282.544 193.17C282.544 193.17 279.688 195.175 278.94 203.539C278.192 211.903 279.144 211.155 280.317 211.376C281.49 211.597 286.029 211.054 286.029 211.054C286.029 211.054 285.825 195.906 285.927 194.75C286.029 193.594 284.125 191.895 282.544 193.17Z" fill="#E3A729"/>
<path d="M280.181 212.142C280.096 212.142 280.011 212.125 279.926 212.108C278.022 211.904 277.529 210.68 278.158 203.472C278.889 195.193 281.711 192.796 282.051 192.541C282.952 191.827 284.091 191.725 285.111 192.269C286.114 192.813 286.794 193.884 286.709 194.819C286.641 195.652 286.726 204.968 286.811 211.037C286.811 211.445 286.522 211.785 286.114 211.836C285.723 211.887 282.867 212.21 281.15 212.21C280.742 212.21 280.402 212.21 280.164 212.142H280.181ZM285.145 194.683C285.162 194.445 284.89 193.935 284.363 193.663C283.887 193.408 283.428 193.442 283.02 193.782C283.02 193.782 283.003 193.782 282.986 193.799C282.969 193.816 280.402 195.839 279.705 203.608C279.195 209.405 279.569 210.357 279.756 210.493C279.79 210.51 279.977 210.544 280.079 210.544C280.198 210.544 280.317 210.578 280.453 210.595C281.116 210.714 283.496 210.527 285.23 210.34C285.179 207.093 285.043 195.737 285.128 194.666L285.145 194.683Z" fill="#231815"/>
<path d="M307.109 189.667C307.109 189.667 307.109 188.188 309.438 188.188C311.767 188.188 312.821 191.044 310.917 192.846C309.013 194.648 307.109 189.667 307.109 189.667Z" fill="#FDE4C3"/>
<path d="M309.625 193.985C307.84 193.577 306.599 190.568 306.361 189.956C306.327 189.871 306.31 189.769 306.31 189.667C306.31 188.885 306.956 187.406 309.421 187.406C310.781 187.406 311.937 188.188 312.43 189.429C312.974 190.806 312.6 192.336 311.444 193.424C310.951 193.9 310.441 194.036 310.033 194.036C309.88 194.036 309.744 194.019 309.608 193.985H309.625ZM307.908 189.582C308.384 190.721 309.285 192.285 309.965 192.438C310.033 192.438 310.152 192.472 310.373 192.268C311.189 191.503 311.223 190.585 310.985 189.99C310.73 189.344 310.152 188.953 309.438 188.953C308.469 188.953 308.027 189.259 307.925 189.565L307.908 189.582Z" fill="#231815"/>
<path d="M285.825 214.232C285.825 214.232 283.496 227.254 283.819 227.679C284.142 228.104 290.177 228.529 291.027 228.529C291.877 228.529 294.937 227.152 294.937 227.152L295.039 214.98L285.825 214.232Z" fill="#615F5F"/>
<path d="M283.19 228.155C282.952 227.832 282.663 227.458 285.06 214.096C285.128 213.705 285.468 213.433 285.893 213.45L295.107 214.198C295.515 214.232 295.838 214.572 295.821 214.98L295.719 227.152C295.719 227.458 295.532 227.73 295.26 227.866C294.512 228.206 291.962 229.311 291.027 229.311C290.959 229.311 283.904 229.073 283.19 228.155ZM294.24 215.694L286.471 215.065C285.57 220.114 284.703 225.554 284.584 227.118C285.91 227.39 290.075 227.73 291.01 227.73C291.367 227.73 292.829 227.186 294.138 226.625L294.24 215.694Z" fill="#231815"/>
<path d="M301.924 209.15C301.924 209.15 301.822 212.856 300.751 213.808C299.68 214.76 299.374 216.562 293.339 216.035C287.304 215.508 285.077 214.981 285.077 214.981L284.55 211.598L301.907 209.167L301.924 209.15Z" fill="#6A6969"/>
<path d="M293.271 216.817C287.253 216.29 284.992 215.763 284.907 215.746C284.601 215.678 284.363 215.423 284.312 215.1L283.785 211.717C283.751 211.513 283.802 211.292 283.938 211.122C284.074 210.952 284.244 210.833 284.465 210.816L301.822 208.385C302.043 208.351 302.281 208.419 302.451 208.572C302.621 208.725 302.723 208.946 302.706 209.184C302.689 209.864 302.519 213.281 301.278 214.403C301.125 214.539 301.006 214.692 300.87 214.845C299.918 215.95 298.745 216.919 295.328 216.919C294.716 216.919 294.036 216.885 293.271 216.817ZM285.451 212.261L285.774 214.318C286.726 214.488 289.089 214.879 293.407 215.253C298.065 215.661 298.966 214.641 299.68 213.808C299.867 213.604 300.037 213.4 300.224 213.23C300.632 212.873 300.938 211.445 301.074 210.068L285.451 212.261Z" fill="#231815"/>
<path d="M283.802 192.745L283.275 212.958L297.266 214.233L303.607 208.3L298.218 190.518L283.802 192.745Z" fill="#F8B62D"/>
<path d="M297.181 215.015L283.207 213.74C282.799 213.706 282.476 213.349 282.493 212.941L283.02 192.711C283.02 192.337 283.309 192.014 283.683 191.963L298.082 189.736C298.473 189.668 298.847 189.906 298.949 190.28L304.355 208.062C304.44 208.351 304.355 208.657 304.134 208.861L297.776 214.794C297.623 214.93 297.436 214.998 297.249 214.998C297.232 214.998 297.198 214.998 297.181 214.998V215.015ZM297.657 191.402L284.584 193.425L284.091 212.261L296.977 213.434L302.723 208.079L297.657 191.419V191.402Z" fill="#231815"/>
<path d="M295.6 177.734L299.17 189.634L293.067 193.051L282.952 192.456L279.824 180.267L284.295 178.04L295.6 177.734Z" fill="#FDE4C3"/>
<path d="M293.016 193.85L282.901 193.255C282.561 193.238 282.272 193 282.187 192.66L279.059 180.471C278.974 180.114 279.144 179.74 279.467 179.57L283.921 177.343C284.023 177.292 284.142 177.258 284.244 177.258L295.549 176.969C295.889 176.986 296.212 177.19 296.314 177.53L299.884 189.43C299.986 189.787 299.833 190.161 299.51 190.348L293.407 193.765C293.288 193.833 293.152 193.867 293.016 193.867C293.016 193.867 292.982 193.867 292.965 193.867L293.016 193.85ZM295.005 178.533L284.482 178.805L280.742 180.675L283.564 191.708L292.88 192.252L298.235 189.243L295.022 178.516L295.005 178.533Z" fill="#231815"/>
<path d="M295.6 176.255C294.189 173.654 288.086 174.402 288.086 174.402L288.154 174.453C284.652 174.776 281.116 176.561 280.011 178.771C278.226 182.341 279.688 187.866 282.068 189.345C284.448 190.824 292.183 189.634 292.183 188.155C292.183 186.676 292.183 184.585 293.968 181.916C294.512 181.1 294.699 180.233 294.733 179.4C295.566 179.791 296.518 180.165 296.637 179.91C296.858 179.468 297.011 178.873 295.6 176.272V176.255Z" fill="#675B4C"/>
<path d="M281.643 190.008C278.94 188.308 277.308 182.392 279.297 178.414C280.47 176.085 283.972 174.13 287.729 173.688C287.814 173.637 287.899 173.62 288.001 173.603C288.681 173.518 294.682 172.872 296.297 175.864C297.708 178.465 297.759 179.417 297.351 180.233C297.011 180.93 296.195 180.811 295.396 180.505C295.26 181.168 295.005 181.78 294.631 182.324C292.982 184.806 292.982 186.727 292.982 188.138C292.982 188.699 292.625 189.192 291.911 189.583C290.653 190.28 288.052 190.807 285.672 190.807C284.074 190.807 282.578 190.569 281.66 190.008H281.643ZM295.056 178.669C295.464 178.856 295.753 178.975 295.957 179.06C295.872 178.669 295.617 177.955 294.903 176.629C294.019 175.014 290.194 174.997 288.511 175.133C288.426 175.184 288.324 175.218 288.222 175.218C284.958 175.507 281.66 177.224 280.708 179.111C279.11 182.307 280.385 187.373 282.476 188.665C284.499 189.94 290.857 188.818 291.384 188.138C291.384 186.625 291.384 184.33 293.305 181.457C293.696 180.862 293.9 180.182 293.934 179.332C293.934 179.077 294.087 178.839 294.308 178.686C294.427 178.601 294.58 178.567 294.716 178.567C294.835 178.567 294.937 178.584 295.039 178.635L295.056 178.669Z" fill="#231815"/>
<path d="M295.923 181.61L294.869 182.052L295.77 184.976L296.807 184.381L295.923 181.61Z" fill="#231815"/>
<path d="M295.634 188.308C296.314 188.308 297.181 188.121 297.98 187.356C298.286 187.067 298.286 186.591 297.997 186.285C297.708 185.996 297.232 185.979 296.926 186.268C296.042 187.118 295.005 186.71 295.005 186.71C294.614 186.557 294.189 186.744 294.036 187.135C293.883 187.526 294.07 187.951 294.461 188.104C294.495 188.104 294.988 188.308 295.651 188.308H295.634Z" fill="#231815"/>
<path d="M293.373 193.697L297.266 214.233L303.607 208.3L298.422 190.943L293.373 193.697Z" fill="#E3A729"/>
<path d="M297.011 214.981C296.739 214.896 296.535 214.658 296.484 214.386L292.591 193.85C292.523 193.51 292.693 193.187 292.982 193.017L298.031 190.263C298.235 190.161 298.49 190.144 298.711 190.229C298.932 190.314 299.102 190.501 299.17 190.722L304.355 208.079C304.44 208.368 304.355 208.674 304.134 208.878L297.776 214.811C297.623 214.947 297.436 215.015 297.249 215.015C297.164 215.015 297.079 215.015 297.011 214.981ZM297.946 192.099L294.24 194.122L297.759 212.703L302.723 208.079L297.946 192.116V192.099Z" fill="#231815"/>
<path d="M301.601 211.377C301.601 211.377 305.409 227.051 304.984 227.255C304.559 227.459 299.578 229.584 298.847 229.686C298.116 229.788 294.614 228.836 294.189 228.734C293.764 228.632 291.962 215.491 291.962 215.491L301.601 211.36V211.377Z" fill="#6A6969"/>
<path d="M294.24 229.567L293.985 229.499C293.356 229.346 293.05 229.261 291.18 215.61C291.129 215.253 291.316 214.913 291.656 214.777L301.295 210.646C301.516 210.561 301.754 210.561 301.958 210.663C302.162 210.765 302.315 210.952 302.366 211.173C306.327 227.459 306.038 227.595 305.341 227.952C305.001 228.122 299.867 230.332 298.966 230.468C298.898 230.468 298.813 230.468 298.728 230.468C298.048 230.468 296.688 230.179 294.257 229.55L294.24 229.567ZM301.057 212.465L292.829 216.001C293.543 221.152 294.41 226.711 294.767 228.088C297.861 228.887 298.592 228.938 298.745 228.921C299.289 228.836 302.893 227.34 304.219 226.762C303.998 225.045 302.536 218.534 301.074 212.465H301.057Z" fill="#231815"/>
<path d="M296.518 193.068C296.518 193.068 297.997 191.062 300.122 192.116C302.247 193.17 302.655 193.493 303.624 192.966C304.593 192.439 307.007 189.056 307.007 189.056C307.007 189.056 309.863 190.433 310.713 191.589C311.563 192.745 311.24 195.091 308.18 197.828C305.12 200.565 301.618 200.259 299.068 198.882C296.518 197.505 295.26 194.649 296.535 193.051L296.518 193.068Z" fill="#F8B62D"/>
<path d="M298.677 199.579C296.943 198.644 295.651 197.029 295.311 195.363C295.09 194.309 295.311 193.323 295.889 192.575C296.552 191.691 298.337 190.331 300.462 191.402L301.023 191.691C302.723 192.541 302.774 192.524 303.233 192.269C303.726 191.997 305.239 190.144 306.361 188.58C306.582 188.274 306.99 188.172 307.347 188.325C307.653 188.478 310.407 189.821 311.342 191.113C312.345 192.49 312.243 195.227 308.69 198.406C306.99 199.919 305.001 200.701 302.944 200.701C301.516 200.701 300.071 200.327 298.677 199.579ZM303.998 193.646C302.774 194.326 302.009 193.935 300.326 193.102L299.782 192.83C298.32 192.099 297.283 193.391 297.164 193.544C297.164 193.544 297.164 193.544 297.164 193.561C296.79 194.037 296.807 194.632 296.892 195.057C297.13 196.247 298.15 197.488 299.476 198.202C300.819 198.933 304.304 200.293 307.687 197.25C310.271 194.938 310.764 192.932 310.118 192.048C309.676 191.436 308.316 190.603 307.279 190.042C306.48 191.113 304.899 193.17 304.032 193.646H303.998Z" fill="#231815"/>
<path d="M36.0736 62.5889H33.3706V91.9649H36.0736V62.5889Z" fill="white"/>
<path d="M36.0736 92.8318H33.3876C32.9116 92.8318 32.5376 92.4578 32.5376 91.9818V62.5888C32.5376 62.1128 32.9116 61.7388 33.3876 61.7388H36.0736C36.5496 61.7388 36.9236 62.1128 36.9236 62.5888V91.9818C36.9236 92.4578 36.5496 92.8318 36.0736 92.8318ZM34.2376 91.1318H35.2236V63.4388H34.2376V91.1318Z" fill="#231815"/>
<path d="M53.9067 19.9528H49.6908V15.2778H45.2878V10.3818H26.5878V15.2778H22.1848V19.9528H17.9688V55.8908H22.1848V59.5628H26.5878V63.7788H45.2878V59.5628H49.6908V55.8908H53.9067V19.9528Z" fill="#F39932"/>
<path d="M45.2877 64.629H26.5877C26.1117 64.629 25.7377 64.255 25.7377 63.779V60.413H22.1847C21.7087 60.413 21.3347 60.039 21.3347 59.563V56.758H17.9687C17.4927 56.758 17.1187 56.384 17.1187 55.908V19.953C17.1187 19.477 17.4927 19.103 17.9687 19.103H21.3347V15.278C21.3347 14.802 21.7087 14.428 22.1847 14.428H25.7377V10.382C25.7377 9.90598 26.1117 9.53198 26.5877 9.53198H45.2877C45.7637 9.53198 46.1377 9.90598 46.1377 10.382V14.428H49.6907C50.1667 14.428 50.5407 14.802 50.5407 15.278V19.103H53.9067C54.3827 19.103 54.7567 19.477 54.7567 19.953V55.891C54.7567 56.367 54.3827 56.741 53.9067 56.741H50.5407V59.546C50.5407 60.022 50.1667 60.396 49.6907 60.396H46.1377V63.762C46.1377 64.238 45.7637 64.612 45.2877 64.612V64.629ZM27.4377 62.929H44.4377V59.563C44.4377 59.087 44.8117 58.713 45.2877 58.713H48.8407V55.908C48.8407 55.432 49.2147 55.058 49.6907 55.058H53.0567V20.803H49.6907C49.2147 20.803 48.8407 20.429 48.8407 19.953V16.128H45.2877C44.8117 16.128 44.4377 15.754 44.4377 15.278V11.232H27.4377V15.278C27.4377 15.754 27.0637 16.128 26.5877 16.128H23.0347V19.953C23.0347 20.429 22.6607 20.803 22.1847 20.803H18.8187V55.041H22.1847C22.6607 55.041 23.0347 55.415 23.0347 55.891V58.696H26.5877C27.0637 58.696 27.4377 59.07 27.4377 59.546V62.912V62.929Z" fill="#231815"/>
<path d="M25.6016 23.1829H21.8276V30.8669H25.6016V23.1829Z" fill="white"/>
<path d="M25.6015 31.717H21.8275C21.3515 31.717 20.9775 31.343 20.9775 30.867V23.183C20.9775 22.707 21.3515 22.333 21.8275 22.333H25.6015C26.0775 22.333 26.4515 22.707 26.4515 23.183V30.867C26.4515 31.343 26.0775 31.717 25.6015 31.717ZM22.6775 30.017H24.7515V24.033H22.6775V30.017Z" fill="#231815"/>
<path d="M29.1719 20.0378H25.3979V23.5398H29.1719V20.0378Z" fill="white"/>
<path d="M29.1719 24.3727H25.3979C24.9219 24.3727 24.5479 23.9987 24.5479 23.5227V20.0207C24.5479 19.5447 24.9219 19.1707 25.3979 19.1707H29.1719C29.6479 19.1707 30.0219 19.5447 30.0219 20.0207V23.5227C30.0219 23.9987 29.6479 24.3727 29.1719 24.3727ZM26.2479 22.6727H28.3219V20.8707H26.2479V22.6727Z" fill="#231815"/>
<path d="M35.8361 16.5361H29.0361V20.0381H35.8361V16.5361Z" fill="white"/>
<path d="M35.8526 20.8712H29.0526C28.5766 20.8712 28.2026 20.4972 28.2026 20.0212V16.5192C28.2026 16.0432 28.5766 15.6692 29.0526 15.6692H35.8526C36.3286 15.6692 36.7026 16.0432 36.7026 16.5192V20.0212C36.7026 20.4972 36.3286 20.8712 35.8526 20.8712ZM29.8856 19.1712H34.9856V17.3692H29.8856V19.1712Z" fill="#231815"/>
<path d="M47.5663 51.5559H51.3403V43.8719H47.5663V51.5559Z" fill="#D9882C"/>
<path d="M51.3398 52.3889H47.5658C47.0898 52.3889 46.7158 52.0149 46.7158 51.5389V43.8549C46.7158 43.3789 47.0898 43.0049 47.5658 43.0049H51.3398C51.8158 43.0049 52.1898 43.3789 52.1898 43.8549V51.5389C52.1898 52.0149 51.8158 52.3889 51.3398 52.3889ZM48.4158 50.6889H50.4898V44.7049H48.4158V50.6889Z" fill="#231815"/>
<path d="M43.996 54.7009H47.77V51.1989H43.996V54.7009Z" fill="#D9882C"/>
<path d="M47.77 55.5509H43.996C43.52 55.5509 43.146 55.1769 43.146 54.7009V51.1989C43.146 50.7229 43.52 50.3489 43.996 50.3489H47.77C48.246 50.3489 48.62 50.7229 48.62 51.1989V54.7009C48.62 55.1769 48.246 55.5509 47.77 55.5509ZM44.846 53.8509H46.92V52.0489H44.846V53.8509Z" fill="#231815"/>
<path d="M37.3152 58.2031H44.1152V54.7011H37.3152V58.2031Z" fill="#D9882C"/>
<path d="M44.1319 59.0531H37.3319C36.8559 59.0531 36.4819 58.6791 36.4819 58.2031V54.7011C36.4819 54.2251 36.8559 53.8511 37.3319 53.8511H44.1319C44.6079 53.8511 44.9819 54.2251 44.9819 54.7011V58.2031C44.9819 58.6791 44.6079 59.0531 44.1319 59.0531ZM38.1819 57.3531H43.2819V55.5511H38.1819V57.3531Z" fill="#231815"/>
<path d="M52.9584 212.252L59.0274 206.268L51.6494 204.993L52.9584 212.252Z" fill="#595757"/>
<path d="M52.9584 212.864C52.9584 212.864 52.8394 212.864 52.7714 212.83C52.5504 212.762 52.3974 212.575 52.3464 212.354L51.0204 205.112C50.9864 204.908 51.0544 204.704 51.1904 204.568C51.3264 204.432 51.5304 204.347 51.7344 204.398L59.1294 205.673C59.3504 205.707 59.5544 205.877 59.6224 206.098C59.6904 206.319 59.6224 206.557 59.4694 206.727L53.4004 212.694C53.2814 212.813 53.1284 212.864 52.9584 212.864ZM52.4144 205.758L53.3664 210.977L57.7354 206.676L52.4144 205.758Z" fill="#231815"/>
<path d="M112.068 218.355L118.137 212.388L110.742 211.113L112.068 218.355Z" fill="#595757"/>
<path d="M112.067 218.984C112.067 218.984 111.948 218.984 111.88 218.95C111.659 218.882 111.506 218.695 111.455 218.474L110.129 211.232C110.095 211.028 110.163 210.824 110.299 210.688C110.435 210.552 110.639 210.484 110.843 210.518L118.238 211.793C118.459 211.827 118.663 211.997 118.731 212.218C118.799 212.439 118.731 212.677 118.578 212.847L112.509 218.814C112.39 218.933 112.237 218.984 112.067 218.984ZM111.523 211.861L112.475 217.08L116.844 212.779L111.523 211.861Z" fill="#231815"/>
<path d="M123.05 213.884L33.7489 204.449L31.5049 171.826L39.8349 152.225L57.5829 135.65L141.614 140.631L144.351 188.01L123.05 213.884Z" fill="#2EA7E0"/>
<path d="M123.049 214.496C123.049 214.496 122.998 214.496 122.981 214.496L33.6805 205.061C33.3745 205.027 33.1535 204.789 33.1195 204.483L30.8755 171.86C30.8755 171.758 30.8755 171.673 30.9265 171.571L39.2565 151.97C39.2565 151.97 39.3415 151.817 39.4095 151.766L57.1575 135.191C57.2765 135.072 57.4465 135.004 57.6165 135.021L141.664 140.002C141.987 140.019 142.225 140.274 142.242 140.58L144.962 187.959C144.962 188.112 144.928 188.265 144.826 188.384L123.525 214.258C123.406 214.394 123.236 214.479 123.049 214.479V214.496ZM34.3265 203.888L122.777 213.221L143.704 187.806L141.018 141.226L57.8035 136.296L40.3445 152.599L32.1335 171.928L34.3265 203.888Z" fill="#231815"/>
<path d="M33.7489 204.449L31.5049 171.826L39.8349 152.225L120.126 160.385L123.05 213.884L33.7489 204.449Z" fill="#2793C5"/>
<path d="M123.049 214.496C123.049 214.496 122.998 214.496 122.981 214.496L33.6805 205.061C33.3745 205.027 33.1535 204.789 33.1195 204.483L30.8755 171.86C30.8755 171.758 30.8755 171.673 30.9265 171.571L39.2565 151.97C39.3585 151.715 39.6135 151.562 39.8855 151.596L120.176 159.756C120.482 159.79 120.72 160.028 120.737 160.334L123.661 213.833C123.661 214.02 123.593 214.19 123.474 214.309C123.355 214.411 123.202 214.479 123.049 214.479V214.496ZM34.3265 203.888L122.386 213.187L119.53 160.946L40.2085 152.888L32.1165 171.928L34.3095 203.888H34.3265Z" fill="#231815"/>
<path d="M123.049 213.884L120.125 160.385L141.613 140.631L144.35 188.01L123.049 213.884Z" fill="#2999CD"/>
<path d="M123.05 214.496C123.05 214.496 122.914 214.496 122.863 214.462C122.625 214.377 122.455 214.156 122.438 213.901L119.514 160.402C119.514 160.215 119.582 160.028 119.718 159.909L141.206 140.172C141.376 140.002 141.631 139.968 141.852 140.053C142.073 140.138 142.226 140.359 142.243 140.597L144.963 187.976C144.963 188.129 144.929 188.282 144.827 188.401L123.526 214.275C123.407 214.428 123.237 214.496 123.05 214.496ZM120.772 160.64L123.594 212.252L143.722 187.806L141.087 141.991L120.772 160.657V160.64Z" fill="#231815"/>
<path d="M34.02 175.719L34.088 172.285L41.126 156.611L59.129 158.855L59.877 178.847L34.02 175.719Z" fill="white"/>
<path d="M59.8771 179.476C59.8771 179.476 59.8261 179.476 59.8091 179.476L33.9521 176.348C33.6291 176.314 33.3911 176.042 33.4081 175.719L33.4761 172.268C33.4761 172.268 33.4931 172.098 33.5271 172.03L40.5651 156.373C40.6841 156.118 40.9391 155.982 41.2111 156.016L59.2141 158.26C59.5201 158.294 59.7411 158.549 59.7581 158.855L60.5061 178.847C60.5061 179.034 60.4381 179.204 60.3021 179.323C60.1831 179.425 60.0301 179.493 59.8771 179.493V179.476ZM34.6491 175.175L59.2311 178.15L58.5341 159.399L41.5001 157.291L34.7001 172.421L34.6491 175.175Z" fill="#231815"/>
<path d="M64.144 179.697L63.583 157.818L116.436 162.646L117.286 184.814L64.144 179.697Z" fill="white"/>
<path d="M117.287 185.443C117.287 185.443 117.253 185.443 117.236 185.443L64.0937 180.326C63.7877 180.292 63.5327 180.037 63.5327 179.731L62.9717 157.852C62.9717 157.682 63.0397 157.512 63.1757 157.376C63.3117 157.257 63.4647 157.206 63.6517 157.206L116.505 162.034C116.811 162.068 117.049 162.323 117.066 162.629L117.916 184.797C117.916 184.984 117.848 185.154 117.729 185.273C117.61 185.375 117.457 185.443 117.304 185.443H117.287ZM64.7567 179.136L116.641 184.134L115.842 163.224L64.2297 158.498L64.7567 179.136Z" fill="#231815"/>
<path d="M120.125 160.385L113.019 171.316L55.6782 165.689L63.8552 154.69L120.125 160.385Z" fill="#E9D900"/>
<path d="M113.019 171.945C113.019 171.945 112.985 171.945 112.951 171.945L55.6103 166.318C55.3893 166.301 55.1853 166.148 55.1003 165.944C55.0153 165.74 55.0323 165.502 55.1683 165.315L63.3453 154.316C63.4813 154.146 63.6853 154.044 63.9063 154.078L120.176 159.756C120.397 159.773 120.584 159.909 120.669 160.113C120.754 160.3 120.754 160.538 120.635 160.725L113.529 171.673C113.41 171.843 113.223 171.962 113.002 171.962L113.019 171.945ZM56.8343 165.179L112.713 170.67L119.054 160.895L64.1443 155.353L56.8343 165.179Z" fill="#231815"/>
<path d="M52.9589 212.252L37.4889 209.702L36.6729 194.334L52.1429 196.884L52.9589 212.252Z" fill="#595757"/>
<path d="M52.9589 212.864C52.9589 212.864 52.8909 212.864 52.8569 212.864L37.3869 210.331C37.0979 210.28 36.8769 210.042 36.8599 209.753L36.0439 194.385C36.0439 194.198 36.1119 194.011 36.2479 193.892C36.3839 193.773 36.5709 193.705 36.7579 193.739L52.2279 196.272C52.5169 196.323 52.7379 196.561 52.7549 196.85L53.5709 212.218C53.5709 212.405 53.5029 212.592 53.3669 212.711C53.2479 212.813 53.1119 212.864 52.9589 212.864ZM38.0839 209.175L52.2959 211.504L51.5479 197.411L37.3359 195.082L38.0839 209.192V209.175Z" fill="#231815"/>
<path d="M48.1301 206.931L41.8401 205.894L41.5171 199.655L47.7901 200.692L48.1301 206.931Z" fill="white"/>
<path d="M48.1303 207.543C48.1303 207.543 48.0623 207.543 48.0283 207.543L41.7553 206.506C41.4663 206.455 41.2453 206.217 41.2283 205.928L40.9053 199.689C40.9053 199.502 40.9733 199.315 41.1093 199.196C41.2453 199.077 41.4323 199.009 41.6193 199.043L47.8923 200.08C48.1813 200.131 48.4023 200.369 48.4193 200.658L48.7423 206.897C48.7423 207.084 48.6743 207.271 48.5383 207.39C48.4193 207.492 48.2833 207.543 48.1303 207.543ZM42.4353 205.367L47.4503 206.2L47.1953 201.236L42.1803 200.42L42.4353 205.384V205.367Z" fill="#231815"/>
<path d="M112.068 218.355L96.5977 215.822L95.7817 200.437L111.252 202.987L112.068 218.355Z" fill="#595757"/>
<path d="M112.068 218.984C112.068 218.984 112 218.984 111.966 218.984L96.4958 216.451C96.2068 216.4 95.9858 216.162 95.9688 215.873L95.1528 200.505C95.1528 200.318 95.2208 200.131 95.3568 200.012C95.4928 199.893 95.6798 199.825 95.8668 199.859L111.337 202.392C111.626 202.443 111.847 202.681 111.864 202.97L112.68 218.338C112.68 218.525 112.612 218.712 112.476 218.831C112.357 218.933 112.221 218.984 112.068 218.984ZM97.1928 215.278L111.405 217.607L110.657 203.514L96.4448 201.185L97.1928 215.278Z" fill="#231815"/>
<path d="M107.239 213.034L100.949 211.997L100.626 205.758L106.899 206.795L107.239 213.034Z" fill="white"/>
<path d="M107.24 213.663C107.24 213.663 107.172 213.663 107.138 213.663L100.865 212.626C100.576 212.575 100.355 212.337 100.338 212.048L100.015 205.809C100.015 205.622 100.083 205.435 100.219 205.316C100.355 205.197 100.542 205.129 100.729 205.163L107.002 206.2C107.291 206.251 107.512 206.489 107.529 206.778L107.852 213.017C107.852 213.204 107.784 213.391 107.648 213.51C107.529 213.612 107.393 213.663 107.24 213.663ZM101.545 211.47L106.56 212.303L106.305 207.339L101.29 206.506L101.545 211.47Z" fill="#231815"/>
<path d="M87.061 105.322C87.061 105.322 92.178 146.53 92.178 148.808C92.178 151.086 98.995 153.347 108.668 153.075C118.324 152.786 120.891 147.958 120.891 147.958L124.58 103.35L87.061 105.339V105.322Z" fill="#D3EDFB"/>
<path d="M107.036 153.704C100.202 153.704 94.4219 152.429 92.3479 150.423C91.8209 149.913 91.5489 149.369 91.5489 148.808C91.5489 147.04 88.1999 119.636 86.4319 105.407C86.4149 105.237 86.4659 105.067 86.5679 104.931C86.6869 104.795 86.8399 104.727 87.0099 104.71L124.529 102.721C124.699 102.721 124.886 102.772 125.005 102.908C125.124 103.044 125.192 103.214 125.175 103.384L121.486 147.992C121.486 147.992 121.452 148.162 121.418 148.23C121.299 148.434 118.579 153.381 108.668 153.67C108.107 153.67 107.563 153.687 107.019 153.687L107.036 153.704ZM87.7579 105.9C88.4379 111.391 92.7899 146.649 92.7899 148.791C92.7899 149.063 93.0109 149.335 93.1979 149.522C94.8639 151.137 100.712 152.667 108.634 152.429C117.015 152.191 119.837 148.4 120.262 147.737L123.883 103.979L87.7579 105.9Z" fill="#231815"/>
<path d="M87.0605 104.047C87.0605 104.047 91.7525 108.909 105.183 109.334C105.829 115.947 108.668 153.058 108.668 153.058C108.668 153.058 95.5946 154.588 92.1776 148.791C91.5316 144.065 87.0605 104.03 87.0605 104.03V104.047Z" fill="#BDD7F0"/>
<path d="M104.876 153.874C100.609 153.874 94.0305 153.177 91.6335 149.114C91.5995 149.046 91.5655 148.961 91.5485 148.876C90.9195 144.201 86.4825 104.506 86.4315 104.098C86.3975 103.843 86.5505 103.588 86.7885 103.469C87.0265 103.35 87.3155 103.401 87.5025 103.588C87.5535 103.639 92.2455 108.28 105.199 108.688C105.505 108.688 105.76 108.943 105.794 109.249C106.423 115.794 109.245 152.616 109.279 152.99C109.296 153.33 109.058 153.619 108.735 153.653C108.548 153.67 107.001 153.84 104.893 153.84L104.876 153.874ZM92.7725 148.587C95.6285 153.177 105.471 152.701 107.987 152.497C107.63 147.771 105.267 117.154 104.604 109.929C95.0505 109.538 89.9675 106.92 87.8425 105.458C88.6585 112.7 92.1605 143.963 92.7725 148.587Z" fill="#231815"/>
<path d="M105.948 110.15C116.388 110.15 124.852 107.418 124.852 104.047C124.852 100.676 116.388 97.9441 105.948 97.9441C95.5076 97.9441 87.0439 100.676 87.0439 104.047C87.0439 107.418 95.5076 110.15 105.948 110.15Z" fill="#C4CCD1"/>
<path d="M105.948 110.779C96.4791 110.779 86.4321 108.416 86.4321 104.047C86.4321 99.6779 96.4961 97.3149 105.948 97.3149C115.4 97.3149 125.464 99.6779 125.464 104.047C125.464 108.416 115.4 110.779 105.948 110.779ZM105.948 98.5559C95.1701 98.5559 87.6731 101.446 87.6731 104.047C87.6731 106.648 95.1871 109.538 105.948 109.538C116.709 109.538 124.223 106.648 124.223 104.047C124.223 101.446 116.709 98.5559 105.948 98.5559Z" fill="#231815"/>
<path d="M105.948 108.654C116.388 108.654 124.852 105.922 124.852 102.551C124.852 99.1806 116.388 96.4482 105.948 96.4482C95.5076 96.4482 87.0439 99.1806 87.0439 102.551C87.0439 105.922 95.5076 108.654 105.948 108.654Z" fill="#EFF8FE"/>
<path d="M105.948 109.283C96.4791 109.283 86.4321 106.92 86.4321 102.551C86.4321 98.1821 96.4961 95.8191 105.948 95.8191C115.4 95.8191 125.464 98.1821 125.464 102.551C125.464 106.92 115.4 109.283 105.948 109.283ZM105.948 97.0601C95.1701 97.0601 87.6731 99.9501 87.6731 102.551C87.6731 105.152 95.1871 108.042 105.948 108.042C116.709 108.042 124.223 105.152 124.223 102.551C124.223 99.9501 116.709 97.0601 105.948 97.0601Z" fill="#231815"/>
<path d="M108.752 103.758C108.752 103.758 105.658 104.081 105.131 103.435C105.131 103.435 106.508 88.5092 106.95 87.6592C107.392 86.8092 123.78 81.7942 124.103 81.7942C124.426 81.7942 125.378 83.2902 124.953 84.4632L109.721 89.6822L108.769 103.741L108.752 103.758Z" fill="#959B9F"/>
<path d="M107.171 104.472C106.134 104.472 105.063 104.336 104.655 103.843C104.553 103.724 104.502 103.554 104.519 103.384C104.944 98.8619 105.964 88.2539 106.389 87.3869C107.052 86.0439 123.95 81.1819 124.103 81.1819C124.426 81.1819 124.732 81.3859 125.021 81.8109C125.497 82.4909 125.905 83.6299 125.531 84.6839C125.463 84.8539 125.327 84.9899 125.157 85.0579L110.316 90.1409L109.381 103.792C109.364 104.098 109.126 104.336 108.82 104.37C108.361 104.421 107.766 104.455 107.171 104.455V104.472ZM105.794 103.112C106.202 103.214 107.171 103.248 108.174 103.18L109.092 89.6479C109.092 89.3929 109.279 89.1889 109.517 89.1039L124.443 83.9869C124.511 83.3919 124.171 82.7119 123.967 82.4569C122.046 82.9329 108.871 87.0979 107.477 88.0159C107.171 89.1379 106.304 97.6209 105.794 103.112Z" fill="#231815"/>
<path d="M118.97 221.806C118.97 221.806 117.338 222.792 118.035 224.56C118.732 226.328 121.537 226.923 122.642 225.869C123.747 224.815 123.815 223.302 123.815 223.302L118.97 221.806Z" fill="#FDE4C3"/>
<path d="M121.112 226.991C120.823 226.991 120.534 226.957 120.228 226.889C118.936 226.6 117.899 225.818 117.491 224.764C116.777 222.996 117.95 221.704 118.664 221.262C118.817 221.177 118.987 221.16 119.157 221.194L124.002 222.69C124.274 222.775 124.444 223.03 124.427 223.302C124.427 223.37 124.325 225.07 123.067 226.277C122.591 226.736 121.894 226.974 121.112 226.974V226.991ZM119.072 222.469C118.749 222.741 118.205 223.387 118.596 224.322C118.919 225.121 119.769 225.563 120.466 225.716C121.18 225.869 121.877 225.767 122.217 225.427C122.778 224.883 123.033 224.186 123.135 223.727L119.072 222.469Z" fill="#231815"/>
<path d="M147.649 220.276C147.649 220.276 148.686 222.044 147.326 223.115C145.966 224.186 143.892 224.645 143.11 222.52C142.328 220.395 145.269 219.562 147.649 220.276Z" fill="#FDE4C3"/>
<path d="M145.048 224.611C144.793 224.611 144.538 224.577 144.317 224.509C143.756 224.356 142.974 223.914 142.549 222.724C142.226 221.874 142.362 221.058 142.94 220.446C143.875 219.443 145.932 219.12 147.836 219.681C147.989 219.732 148.108 219.817 148.193 219.953C148.635 220.718 149.111 222.469 147.717 223.574C146.867 224.237 145.915 224.594 145.065 224.594L145.048 224.611ZM145.915 220.633C145.014 220.633 144.198 220.871 143.807 221.279C143.654 221.449 143.467 221.738 143.671 222.299C143.892 222.877 144.198 223.217 144.64 223.336C145.269 223.506 146.17 223.234 146.952 222.622C147.666 222.061 147.394 221.177 147.224 220.786C146.799 220.684 146.357 220.633 145.932 220.633H145.915Z" fill="#231815"/>
<path d="M142.073 204.381C142.073 204.381 145.099 205.809 147.19 213.561C149.281 221.313 148.261 220.786 147.19 221.177C146.119 221.568 141.75 221.823 141.75 221.823C141.75 221.823 139.438 207.526 139.149 206.438C138.86 205.35 140.373 203.446 142.073 204.381Z" fill="#CA4B80"/>
<path d="M141.75 222.435C141.461 222.435 141.206 222.214 141.155 221.925C140.509 217.964 138.792 207.475 138.571 206.608C138.35 205.792 138.792 204.738 139.608 204.092C140.441 203.429 141.444 203.344 142.362 203.854C142.685 204.024 145.711 205.741 147.785 213.408C149.655 220.344 149.213 221.211 147.666 221.67C147.581 221.687 147.496 221.721 147.428 221.755C146.323 222.163 142.277 222.418 141.818 222.435C141.818 222.435 141.801 222.435 141.784 222.435H141.75ZM141.138 204.738C140.798 204.738 140.526 204.891 140.339 205.044C139.863 205.418 139.642 205.979 139.727 206.285C139.999 207.271 141.818 218.525 142.26 221.177C143.943 221.058 146.34 220.837 146.986 220.599C147.105 220.565 147.207 220.531 147.309 220.497C147.768 220.361 148.346 220.191 146.612 213.714C144.657 206.421 141.852 204.942 141.818 204.925C141.818 204.925 141.801 204.925 141.784 204.925C141.563 204.806 141.342 204.755 141.155 204.755L141.138 204.738Z" fill="#231815"/>
<path d="M141.308 225.954C141.308 225.954 143.535 238.415 143.229 238.823C142.923 239.231 137.16 239.639 136.344 239.639C135.528 239.639 132.604 238.33 132.604 238.33L132.502 226.685L141.308 225.971V225.954Z" fill="#D89F26"/>
<path d="M136.361 240.234C135.494 240.234 133.08 239.18 132.366 238.857C132.145 238.755 132.009 238.551 132.009 238.313L131.907 226.668C131.907 226.345 132.145 226.09 132.468 226.056L141.274 225.342C141.614 225.325 141.869 225.529 141.92 225.835C144.198 238.551 143.909 238.925 143.739 239.163C143.127 239.962 136.429 240.217 136.361 240.217V240.234ZM133.199 237.922C134.491 238.483 135.953 239.027 136.344 239.027C137.296 239.027 141.512 238.687 142.651 238.415C142.583 237.055 141.699 231.632 140.815 226.617L133.114 227.229L133.199 237.922Z" fill="#231815"/>
<path d="M125.923 221.091C125.923 221.091 126.025 224.644 127.045 225.545C128.065 226.446 128.354 228.18 134.134 227.67C139.914 227.16 142.039 226.65 142.039 226.65L142.549 223.403L125.94 221.074L125.923 221.091Z" fill="#F8B62D"/>
<path d="M132.179 228.385C129.017 228.385 127.946 227.501 127.028 226.447C126.892 226.294 126.773 226.141 126.62 226.022C125.464 224.985 125.328 221.772 125.311 221.126C125.311 220.939 125.379 220.769 125.515 220.65C125.651 220.531 125.838 220.48 126.008 220.497L142.617 222.826C142.77 222.843 142.923 222.928 143.025 223.064C143.127 223.2 143.161 223.353 143.144 223.523L142.634 226.77C142.6 227.008 142.413 227.212 142.175 227.263C142.09 227.28 139.931 227.79 134.185 228.283C133.437 228.351 132.774 228.385 132.179 228.385ZM126.569 221.789C126.671 223.098 126.977 224.662 127.436 225.087C127.623 225.257 127.776 225.427 127.946 225.631C128.643 226.447 129.527 227.467 134.066 227.059C138.367 226.685 140.645 226.294 141.478 226.141L141.818 223.931L126.552 221.789H126.569Z" fill="#231815"/>
<path d="M140.797 204.194L144.656 223.166L131.702 226.668L124.732 222.146L126.857 204.483L140.797 204.194Z" fill="#E9588F"/>
<path d="M131.703 227.28C131.584 227.28 131.465 227.246 131.38 227.178L124.41 222.639C124.223 222.52 124.104 222.282 124.138 222.061L126.28 204.415C126.314 204.109 126.569 203.888 126.875 203.888L140.815 203.599C141.104 203.599 141.359 203.803 141.41 204.092L145.269 223.064C145.337 223.37 145.15 223.693 144.827 223.778L131.873 227.297C131.873 227.297 131.771 227.314 131.72 227.314L131.703 227.28ZM125.379 221.84L131.805 226.022L143.943 222.724L140.305 204.806L127.402 205.078L125.379 221.84Z" fill="#231815"/>
<path d="M127.214 192.022L125.82 203.82L132.127 206.03L141.562 203.786L142.48 191.784L137.907 190.424L127.214 192.022Z" fill="#FDE4C3"/>
<path d="M132.127 206.642C132.127 206.642 131.991 206.642 131.923 206.608L125.616 204.398C125.344 204.296 125.174 204.041 125.208 203.752L126.602 191.954C126.636 191.682 126.84 191.461 127.112 191.427L137.805 189.829C137.89 189.829 137.975 189.829 138.06 189.846L142.633 191.206C142.905 191.291 143.092 191.546 143.058 191.835L142.14 203.837C142.123 204.092 141.936 204.313 141.681 204.381L132.246 206.625C132.246 206.625 132.161 206.625 132.11 206.625L132.127 206.642ZM126.483 203.412L132.178 205.401L141.001 203.31L141.851 192.226L137.873 191.036L127.758 192.549L126.483 203.412Z" fill="#231815"/>
<path d="M142.073 190.39C140.662 188.486 137.024 187.381 133.675 187.67L133.726 187.619C133.726 187.619 127.861 187.925 126.96 190.611C126.059 193.297 126.297 193.841 126.586 194.215C126.739 194.436 127.572 193.926 128.286 193.433C128.456 194.215 128.796 194.997 129.442 195.677C131.567 197.904 131.907 199.859 132.162 201.27C132.417 202.681 139.897 202.511 141.886 200.709C143.875 198.907 144.351 193.467 142.073 190.407V190.39Z" fill="#675B4C"/>
<path d="M135.698 202.8C134.508 202.8 133.437 202.681 132.723 202.426C132.043 202.188 131.652 201.831 131.567 201.355C131.329 200.012 131.006 198.176 129 196.085C128.541 195.609 128.184 195.031 127.929 194.385C127.147 194.878 126.484 195.099 126.093 194.572C125.6 193.909 125.498 193.042 126.382 190.407C127.385 187.415 133.046 187.024 133.692 186.99C133.777 186.99 133.862 186.99 133.93 187.024C137.517 186.803 141.087 188.044 142.549 190.016C145.048 193.382 144.504 199.128 142.277 201.134C141.019 202.256 138.112 202.783 135.681 202.783L135.698 202.8ZM128.286 192.821C128.286 192.821 128.439 192.821 128.507 192.855C128.694 192.923 128.83 193.093 128.881 193.297C129.051 194.079 129.391 194.725 129.884 195.252C132.128 197.615 132.519 199.74 132.757 201.151C132.808 201.185 133.267 201.44 134.508 201.542C136.905 201.746 140.339 201.27 141.478 200.25C143.263 198.635 143.654 193.552 141.58 190.764C140.322 189.081 136.956 188.01 133.726 188.282C133.641 188.282 133.556 188.282 133.471 188.248C131.788 188.384 128.133 189.047 127.538 190.815C126.977 192.498 126.909 193.212 126.96 193.552C127.147 193.45 127.453 193.263 127.946 192.94C128.048 192.872 128.167 192.838 128.286 192.838V192.821Z" fill="#231815"/>
<path d="M127.555 195.711L128.609 195.966L128.252 198.856L127.164 198.482L127.555 195.711Z" fill="#231815"/>
<path d="M128.353 202.035C127.809 202.035 127.197 201.899 126.568 201.474C126.245 201.253 126.143 200.811 126.364 200.471C126.585 200.131 127.027 200.046 127.367 200.267C128.319 200.896 129.22 200.386 129.254 200.352C129.594 200.148 130.036 200.267 130.24 200.59C130.444 200.913 130.342 201.355 130.002 201.576C129.951 201.61 129.271 202.018 128.353 202.018V202.035Z" fill="#231815"/>
<path d="M131.957 206.676L131.702 226.668L124.732 222.146L126.738 204.925L131.957 206.676Z" fill="#CA4B80"/>
<path d="M131.703 227.28C131.584 227.28 131.465 227.246 131.38 227.178L124.41 222.639C124.223 222.52 124.104 222.282 124.138 222.061L126.144 204.84C126.161 204.653 126.263 204.5 126.416 204.398C126.569 204.296 126.756 204.279 126.926 204.33L132.145 206.081C132.4 206.166 132.57 206.404 132.553 206.659L132.298 226.651C132.298 226.872 132.179 227.076 131.975 227.178C131.89 227.229 131.788 227.246 131.686 227.246L131.703 227.28ZM125.379 221.84L131.108 225.563L131.346 207.101L127.249 205.724L125.379 221.823V221.84Z" fill="#231815"/>
<path d="M126.229 223.217C126.229 223.217 122.591 238.211 122.982 238.415C123.373 238.619 128.15 240.642 128.864 240.744C129.578 240.846 132.91 239.928 133.318 239.826C133.726 239.724 135.443 227.161 135.443 227.161L126.229 223.217Z" fill="#F8B62D"/>
<path d="M128.982 241.356C128.982 241.356 128.829 241.356 128.778 241.356C127.911 241.237 122.93 239.078 122.726 238.976C122.182 238.704 121.893 238.551 125.65 223.098C125.684 222.928 125.803 222.775 125.973 222.707C126.143 222.639 126.313 222.622 126.483 222.707L135.697 226.651C135.952 226.753 136.088 227.025 136.054 227.297C134.269 240.268 133.963 240.336 133.47 240.472L133.215 240.54C130.92 241.135 129.611 241.407 128.982 241.407V241.356ZM123.576 238.024C124.766 238.551 128.438 240.081 128.948 240.149C129.101 240.166 129.798 240.132 132.892 239.316C133.232 238.126 134.082 232.618 134.779 227.552L126.653 224.067C125.446 229.048 123.763 236.392 123.576 238.024Z" fill="#231815"/>
<path d="M124.937 208.614C124.937 208.614 118.222 220.361 118.12 221.704C118.018 223.047 122.795 225.087 123.832 224.169C124.869 223.251 131.057 209.991 131.142 207.9C131.227 205.809 127.13 204.874 124.937 208.614Z" fill="#E9588F"/>
<path d="M122.999 225.002C121.928 225.002 120.602 224.509 119.769 224.084C118.885 223.642 117.423 222.741 117.508 221.653C117.61 220.293 122.812 211.096 124.41 208.325C125.889 205.792 128.218 205.146 129.867 205.622C131.057 205.962 131.788 206.88 131.737 207.934C131.635 210.144 125.345 223.642 124.206 224.628C123.9 224.9 123.475 225.002 122.982 225.002H122.999ZM125.464 208.92C122.268 214.496 118.817 220.888 118.715 221.755C118.715 221.976 119.463 222.673 120.874 223.268C122.319 223.863 123.254 223.863 123.424 223.727C124.41 222.809 130.445 209.855 130.53 207.883C130.564 207.288 130.037 206.931 129.527 206.778C128.337 206.421 126.603 206.948 125.464 208.92Z" fill="#231815"/>
<path d="M112.902 217.93C112.902 217.93 115.503 232.482 115.146 232.958C114.789 233.434 108.04 233.91 107.105 233.91C106.17 233.91 102.719 232.363 102.719 232.363L102.6 218.746L112.902 217.913V217.93Z" fill="#615F5F"/>
<path d="M107.104 234.522C106.084 234.522 103.075 233.196 102.48 232.924C102.259 232.822 102.123 232.618 102.123 232.38L102.004 218.763C102.004 218.44 102.242 218.185 102.565 218.151L112.867 217.318C113.207 217.318 113.462 217.505 113.513 217.811C116.165 232.635 115.842 233.06 115.655 233.315C114.992 234.216 107.206 234.505 107.121 234.505L107.104 234.522ZM103.33 231.972C104.707 232.567 106.594 233.298 107.104 233.298C108.26 233.298 113.343 232.89 114.584 232.55C114.533 230.952 113.292 223.523 112.408 218.576L103.228 219.307L103.33 231.955V231.972Z" fill="#231815"/>
<path d="M95.2037 214.972C94.9487 213.612 94.9147 212.252 94.9147 212.252L114.329 214.972L113.734 218.763C113.734 218.763 111.609 219.273 105.982 219.817C105.642 222.282 103.976 234.046 103.551 234.165C103.075 234.284 99.1647 235.355 98.3487 235.236C97.5327 235.117 91.9567 232.754 91.4807 232.516C91.0387 232.295 94.7107 217.08 95.2037 215.006V214.972Z" fill="#6A6969"/>
<path d="M98.4851 235.831C98.4001 235.831 98.3151 235.831 98.2471 235.831C97.2951 235.695 91.6171 233.264 91.1921 233.043C90.6311 232.771 90.3081 232.601 94.5751 214.972C94.3371 213.629 94.2861 212.337 94.2861 212.286C94.2861 212.099 94.3541 211.929 94.4901 211.81C94.6261 211.691 94.8131 211.64 94.9831 211.657L114.397 214.377C114.55 214.394 114.703 214.479 114.805 214.615C114.907 214.751 114.941 214.904 114.924 215.074L114.329 218.865C114.295 219.103 114.108 219.307 113.87 219.358C113.785 219.375 111.762 219.851 106.509 220.378C104.537 234.539 104.197 234.624 103.704 234.743L103.432 234.811C100.746 235.508 99.2331 235.831 98.5021 235.831H98.4851ZM92.0591 232.091C93.3851 232.686 97.8391 234.522 98.4341 234.607C98.6041 234.641 99.4371 234.607 103.126 233.638H103.143C103.483 232.482 104.367 227.042 105.387 219.732C105.421 219.46 105.642 219.239 105.931 219.205C110.13 218.797 112.374 218.423 113.207 218.253L113.632 215.482L95.5611 212.949C95.5951 213.459 95.6801 214.156 95.7991 214.853C95.7991 214.938 95.7991 215.023 95.7991 215.108C94.0481 222.299 92.2121 230.374 92.0591 232.074V232.091Z" fill="#231815"/>
<path d="M119.769 213.782C119.769 213.782 120.602 216.026 118.817 216.978C117.032 217.93 114.55 218.049 114.074 215.431C113.598 212.813 117.151 212.473 119.752 213.782H119.769Z" fill="#FDE4C3"/>
<path d="M116.573 218.201C116.046 218.201 115.553 218.099 115.111 217.895C114.516 217.606 113.751 216.96 113.479 215.549C113.292 214.529 113.598 213.679 114.346 213.118C115.604 212.183 117.984 212.234 120.024 213.254C120.16 213.322 120.262 213.441 120.313 213.594C120.67 214.546 120.857 216.586 119.089 217.538C118.239 217.997 117.355 218.235 116.556 218.235L116.573 218.201ZM116.743 213.662C116.063 213.662 115.468 213.798 115.094 214.087C114.72 214.376 114.584 214.784 114.686 215.328C114.822 216.059 115.145 216.552 115.638 216.79C116.352 217.147 117.457 216.994 118.528 216.433C119.565 215.889 119.378 214.699 119.259 214.206C118.426 213.832 117.525 213.645 116.743 213.645V213.662Z" fill="#231815"/>
<path d="M116.573 194.368C116.573 194.368 119.769 196.612 120.602 205.962C121.435 215.312 120.364 214.479 119.055 214.717C117.746 214.955 112.663 214.36 112.663 214.36C112.663 214.36 112.901 197.428 112.782 196.136C112.663 194.844 114.788 192.94 116.573 194.368Z" fill="#8CC220"/>
<path d="M118.12 215.397C116.216 215.397 113.037 215.04 112.595 214.989C112.289 214.955 112.051 214.683 112.051 214.377C112.136 208.529 112.255 197.224 112.17 196.204C112.085 195.269 112.782 194.181 113.819 193.62C114.873 193.059 116.012 193.161 116.93 193.892C117.236 194.113 120.364 196.663 121.197 205.928C121.928 214.19 121.265 215.091 119.463 215.295C119.361 215.295 119.259 215.312 119.157 215.329C118.902 215.38 118.545 215.397 118.103 215.397H118.12ZM113.275 213.833C114.941 214.003 118.069 214.292 118.936 214.139C119.072 214.122 119.208 214.105 119.327 214.088C119.99 214.02 120.687 213.935 119.973 206.03C119.191 197.173 116.233 194.895 116.199 194.861C116.199 194.861 116.182 194.861 116.182 194.844C115.485 194.283 114.822 194.453 114.397 194.691C113.751 195.048 113.343 195.694 113.394 196.102C113.496 197.309 113.326 210.875 113.292 213.85L113.275 213.833Z" fill="#231815"/>
<path d="M89.1183 190.475C89.1183 190.475 89.1183 188.826 86.5173 188.826C83.9163 188.826 82.7263 192.022 84.8683 194.028C87.0103 196.034 89.1353 190.475 89.1353 190.475H89.1183Z" fill="#FDE4C3"/>
<path d="M85.8199 195.065C85.4119 195.065 84.9189 194.929 84.4259 194.453C83.2189 193.314 82.8109 191.716 83.3889 190.288C83.8989 188.996 85.0889 188.197 86.4999 188.197C89.6789 188.197 89.7129 190.441 89.7129 190.458C89.7129 190.526 89.7129 190.611 89.6789 190.679C89.5259 191.07 88.1319 194.572 86.2279 195.014C86.1089 195.048 85.9729 195.065 85.8199 195.065ZM86.5169 189.421C85.5989 189.421 84.8509 189.914 84.5279 190.747C84.2389 191.495 84.2729 192.634 85.2759 193.586C85.5819 193.875 85.8029 193.875 85.9729 193.841C86.9419 193.62 88.0469 191.512 88.5059 190.39C88.4549 190.118 88.1319 189.421 86.5169 189.421Z" fill="#231815"/>
<path d="M115.162 193.909L115.74 216.502L100.117 217.93L93.0278 211.3L99.0628 191.41L115.162 193.909Z" fill="#DAE000"/>
<path d="M100.117 218.542C99.9638 218.542 99.8108 218.491 99.7088 218.372L92.6028 211.742C92.4328 211.589 92.3648 211.351 92.4328 211.13L98.4678 191.24C98.5528 190.951 98.8418 190.764 99.1478 190.815L115.247 193.297C115.536 193.348 115.757 193.586 115.757 193.875L116.352 216.485C116.352 216.808 116.114 217.08 115.808 217.097L100.185 218.525C100.185 218.525 100.151 218.525 100.134 218.525L100.117 218.542ZM93.7078 211.113L100.338 217.301L115.128 215.958L114.567 194.419L99.4878 192.09L93.7078 211.113Z" fill="#231815"/>
<path d="M101.987 177.13L97.9917 190.441L104.809 194.249L116.114 193.586L119.599 179.952L114.618 177.47L101.987 177.13Z" fill="#FDE4C3"/>
<path d="M104.809 194.861C104.707 194.861 104.605 194.827 104.52 194.776L97.7026 190.951C97.4476 190.815 97.3456 190.526 97.4136 190.254L101.409 176.96C101.494 176.705 101.766 176.569 102.004 176.535L114.635 176.875C114.72 176.875 114.805 176.892 114.89 176.943L119.871 179.442C120.126 179.578 120.262 179.85 120.194 180.139L116.709 193.773C116.641 194.028 116.42 194.215 116.165 194.232L104.86 194.895C104.86 194.895 104.843 194.895 104.826 194.895L104.809 194.861ZM98.7056 190.135L104.945 193.637L115.638 193.008L118.902 180.275L114.465 178.065L102.429 177.742L98.7056 190.135Z" fill="#231815"/>
<path d="M101.613 181.448L102.786 181.958L101.783 185.222L100.627 184.559L101.613 181.448Z" fill="#231815"/>
<path d="M101.936 188.945C101.171 188.945 100.202 188.724 99.3177 187.874C98.9777 187.551 98.9777 187.024 99.3007 186.684C99.6237 186.344 100.151 186.344 100.491 186.667C101.46 187.585 102.599 187.177 102.65 187.16C103.075 187.007 103.568 187.211 103.738 187.636C103.908 188.061 103.704 188.554 103.279 188.724C103.228 188.724 102.701 188.945 101.953 188.945H101.936Z" fill="#231815"/>
<path d="M104.469 194.963L100.117 217.93L93.0278 211.3L98.8248 191.886L104.469 194.963Z" fill="#8CC220"/>
<path d="M100.117 218.542C99.9638 218.542 99.8108 218.491 99.7088 218.372L92.6028 211.742C92.4328 211.589 92.3648 211.351 92.4328 211.13L98.2298 191.716C98.2808 191.546 98.4168 191.393 98.5868 191.325C98.7568 191.257 98.9438 191.274 99.1138 191.359L104.775 194.436C105.013 194.555 105.132 194.827 105.081 195.082L100.729 218.049C100.695 218.27 100.525 218.44 100.321 218.508C100.253 218.525 100.202 218.542 100.134 218.542H100.117ZM93.7078 211.113L99.7258 216.74L103.789 195.286L99.1818 192.77L93.7078 211.096V211.113Z" fill="#231815"/>
<path d="M100.949 194.266C100.949 194.266 99.3004 192.022 96.9204 193.195C94.5404 194.368 94.0814 194.742 93.0104 194.147C91.9394 193.552 89.2194 189.761 89.2194 189.761C89.2194 189.761 86.0234 191.308 85.0714 192.6C84.1194 193.909 84.4764 196.51 87.9104 199.587C91.3444 202.664 95.2544 202.307 98.0934 200.777C100.932 199.247 102.36 196.034 100.932 194.266H100.949Z" fill="#DAE000"/>
<path d="M93.7585 202.528C91.5315 202.528 89.3555 201.695 87.5195 200.046C83.6775 196.595 83.5415 193.705 84.5955 192.26C85.5985 190.866 88.6245 189.387 88.9645 189.234C89.2365 189.098 89.5425 189.183 89.7125 189.421C90.7325 190.849 92.6195 193.246 93.2995 193.62C93.9455 193.977 94.1155 193.926 96.0195 192.974L96.6315 192.668C98.8585 191.546 100.729 192.991 101.409 193.909C102.021 194.674 102.225 195.694 102.004 196.799C101.647 198.567 100.253 200.301 98.3825 201.321C96.8695 202.137 95.2885 202.545 93.7415 202.545L93.7585 202.528ZM89.0495 190.526C88.0125 191.07 86.1765 192.124 85.5815 192.957C84.7655 194.079 85.3095 196.408 88.3355 199.128C92.2455 202.63 96.2745 201.066 97.8215 200.233C99.3685 199.4 100.559 197.938 100.848 196.527C100.95 196 100.984 195.235 100.491 194.623C100.491 194.623 100.491 194.623 100.491 194.606C100.491 194.606 99.0965 192.787 97.2265 193.722L96.6145 194.028C94.7105 194.98 94.0135 195.337 92.7555 194.657C91.7865 194.113 89.8825 191.631 89.0835 190.526H89.0495Z" fill="#231815"/>
<path d="M101.988 177.129C101.988 177.129 104.249 184.864 105.32 184.456C106.391 184.048 105.048 180.019 105.048 180.019C105.048 180.019 106.255 185 107.87 185.527C109.485 186.054 109.349 183.776 109.349 183.776L109.757 193.466L116.115 193.585C116.115 193.585 121.725 186.343 120.79 182.433C119.855 178.523 117.56 174.902 112.987 175.973C111.1 174.086 108.142 174.086 105.456 174.222C102.77 174.358 101.614 174.63 101.988 177.112V177.129Z" fill="#675B4C"/>
<path d="M116.113 194.198L109.755 194.079C109.432 194.079 109.177 193.824 109.16 193.501L108.854 186.14C108.565 186.242 108.191 186.276 107.698 186.123C107.086 185.919 106.559 185.307 106.117 184.542C105.981 184.78 105.811 184.95 105.556 185.035C105.335 185.12 105.08 185.103 104.842 184.984C103.601 184.355 102.037 179.408 101.425 177.3C101.425 177.266 101.425 177.249 101.425 177.215C101.255 176.042 101.391 175.243 101.85 174.682C102.547 173.832 103.839 173.713 105.471 173.628C108.157 173.492 111.183 173.509 113.223 175.328C117.184 174.563 120.176 177.079 121.434 182.298C122.437 186.429 116.878 193.654 116.657 193.96C116.538 194.113 116.368 194.198 116.181 194.198H116.113ZM110.333 192.889L115.807 192.991C117.422 190.849 120.873 185.443 120.193 182.604C119.394 179.289 117.524 175.566 113.121 176.586C112.917 176.637 112.696 176.586 112.56 176.433C110.86 174.733 108.14 174.733 105.488 174.852C104.264 174.92 103.125 175.005 102.751 175.464C102.53 175.736 102.479 176.246 102.581 177.011C103.38 179.731 104.519 182.808 105.165 183.692C105.199 183.301 105.097 182.536 104.876 181.652C104.655 180.989 104.519 180.428 104.451 180.173C104.383 179.85 104.553 179.544 104.876 179.442C105.199 179.357 105.522 179.527 105.624 179.833C105.777 180.275 105.93 180.819 106.066 181.363C106.61 183.012 107.392 184.729 108.072 184.95C108.208 185.001 108.378 185.035 108.48 184.95C108.684 184.797 108.769 184.219 108.769 183.845V183.794C108.769 183.454 109.007 183.182 109.347 183.165C109.347 183.165 109.364 183.165 109.381 183.165C109.704 183.165 109.959 183.42 109.993 183.743C109.993 183.76 109.993 183.794 109.993 183.828L110.367 192.872L110.333 192.889Z" fill="#231815"/>
<path d="M291.489 86.6064H289.245V111.137H291.489V86.6064Z" fill="white"/>
<path d="M291.501 111.775H289.257C288.9 111.775 288.62 111.494 288.62 111.137V86.6192C288.62 86.2622 288.9 85.9817 289.257 85.9817H291.501C291.858 85.9817 292.139 86.2622 292.139 86.6192V111.137C292.139 111.494 291.858 111.775 291.501 111.775ZM289.882 110.5H290.851V87.2567H289.882V110.5Z" fill="#231815"/>
<path d="M306.38 51.0213H302.874V47.1198H299.189V43.0398H283.583V47.1198H279.898V51.0213H276.379V81.022H279.898V84.082H283.583V87.601H299.189V84.082H302.874V81.022H306.38V51.0213Z" fill="#B0DFF8"/>
<path d="M299.189 88.2386H283.583C283.226 88.2386 282.945 87.9581 282.945 87.6011V84.7196H279.898C279.541 84.7196 279.261 84.4391 279.261 84.0821V81.6596H276.379C276.022 81.6596 275.742 81.3791 275.742 81.0221V51.0214C275.742 50.6644 276.022 50.3839 276.379 50.3839H279.261V47.1071C279.261 46.7501 279.541 46.4696 279.898 46.4696H282.945V43.0271C282.945 42.6701 283.226 42.3896 283.583 42.3896H299.189C299.546 42.3896 299.826 42.6701 299.826 43.0271V46.4696H302.874C303.231 46.4696 303.511 46.7501 303.511 47.1071V50.3839H306.393C306.75 50.3839 307.03 50.6644 307.03 51.0214V81.0221C307.03 81.3791 306.75 81.6596 306.393 81.6596H303.511V84.0821C303.511 84.4391 303.231 84.7196 302.874 84.7196H299.826V87.6011C299.826 87.9581 299.546 88.2386 299.189 88.2386ZM284.22 86.9636H298.551V84.0821C298.551 83.7251 298.832 83.4446 299.189 83.4446H302.236V81.0221C302.236 80.6651 302.517 80.3846 302.874 80.3846H305.755V51.6589H302.874C302.517 51.6589 302.236 51.3784 302.236 51.0214V47.7446H299.189C298.832 47.7446 298.551 47.4641 298.551 47.1071V43.6646H284.22V47.1071C284.22 47.4641 283.94 47.7446 283.583 47.7446H280.536V51.0214C280.536 51.3784 280.255 51.6589 279.898 51.6589H277.017V80.3846H279.898C280.255 80.3846 280.536 80.6651 280.536 81.0221V83.4446H283.583C283.94 83.4446 284.22 83.7251 284.22 84.0821V86.9636Z" fill="#231815"/>
<path d="M282.754 53.7244H279.605V60.1376H282.754V53.7244Z" fill="white"/>
<path d="M282.754 60.7749H279.605C279.248 60.7749 278.967 60.4944 278.967 60.1374V53.7242C278.967 53.3672 279.248 53.0867 279.605 53.0867H282.754C283.111 53.0867 283.392 53.3672 283.392 53.7242V60.1374C283.392 60.4944 283.111 60.7749 282.754 60.7749ZM280.242 59.4999H282.117V54.3617H280.242V59.4999Z" fill="#231815"/>
<path d="M285.738 51.0852H282.589V54.005H285.738V51.0852Z" fill="white"/>
<path d="M285.738 54.6425H282.589C282.232 54.6425 281.951 54.362 281.951 54.005V51.0853C281.951 50.7283 282.232 50.4478 282.589 50.4478H285.738C286.095 50.4478 286.375 50.7283 286.375 51.0853V54.005C286.375 54.362 286.095 54.6425 285.738 54.6425ZM283.226 53.3675H285.1V51.7228H283.226V53.3675Z" fill="#231815"/>
<path d="M291.297 48.1653H285.623V51.085H291.297V48.1653Z" fill="white"/>
<path d="M291.309 51.7228H285.636C285.279 51.7228 284.998 51.4423 284.998 51.0853V48.1656C284.998 47.8086 285.279 47.5281 285.636 47.5281H291.309C291.666 47.5281 291.947 47.8086 291.947 48.1656V51.0853C291.947 51.4423 291.666 51.7228 291.309 51.7228ZM286.26 50.4478H290.659V48.8031H286.26V50.4478Z" fill="#231815"/>
<path d="M301.089 77.3882H304.238V70.9749H301.089V77.3882Z" fill="#85D0F4"/>
<path d="M304.238 78.0259H301.089C300.732 78.0259 300.451 77.7454 300.451 77.3884V70.9751C300.451 70.6181 300.732 70.3376 301.089 70.3376H304.238C304.595 70.3376 304.875 70.6181 304.875 70.9751V77.3884C304.875 77.7454 304.595 78.0259 304.238 78.0259ZM301.726 76.7509H303.6V71.6126H301.726V76.7509Z" fill="#231815"/>
<path d="M298.106 80.0278H301.255V77.1081H298.106V80.0278Z" fill="#85D0F4"/>
<path d="M301.255 80.6652H298.105C297.748 80.6652 297.468 80.3847 297.468 80.0277V77.108C297.468 76.751 297.748 76.4705 298.105 76.4705H301.255C301.612 76.4705 301.892 76.751 301.892 77.108V80.0277C301.892 80.3847 301.612 80.6652 301.255 80.6652ZM298.743 79.3902H300.617V77.7455H298.743V79.3902Z" fill="#231815"/>
<path d="M292.546 82.9475H298.22V80.0278H292.546V82.9475Z" fill="#85D0F4"/>
<path d="M298.22 83.5849H292.547C292.19 83.5849 291.909 83.3044 291.909 82.9474V80.0276C291.909 79.6706 292.19 79.3901 292.547 79.3901H298.22C298.577 79.3901 298.858 79.6706 298.858 80.0276V82.9474C298.858 83.3044 298.577 83.5849 298.22 83.5849ZM293.171 82.3099H297.57V80.6651H293.171V82.3099Z" fill="#231815"/>
<path d="M246.505 65.4417H244.605V86.1349H246.505V65.4417Z" fill="white"/>
<path d="M246.506 86.6834H244.606C244.313 86.6834 244.07 86.4412 244.07 86.1479V65.4547C244.07 65.1614 244.313 64.9192 244.606 64.9192H246.506C246.799 64.9192 247.041 65.1614 247.041 65.4547V86.1479C247.041 86.4412 246.799 86.6834 246.506 86.6834ZM245.141 85.6124H245.97V65.9902H245.141V85.6124Z" fill="#231815"/>
<path d="M259.077 35.4154H256.107V32.1132H252.996V28.6707H239.825V32.1132H236.727V35.4154H233.756V60.7242H236.727V63.3124H239.825V66.2832H252.996V63.3124H256.107V60.7242H259.077V35.4154Z" fill="#FAEE00"/>
<path d="M252.996 66.8188H239.825C239.532 66.8188 239.29 66.5765 239.29 66.2833V63.848H236.714C236.421 63.848 236.179 63.6058 236.179 63.3125V61.2725H233.756C233.463 61.2725 233.221 61.0303 233.221 60.737V35.4155C233.221 35.1223 233.463 34.88 233.756 34.88H236.191V32.1133C236.191 31.82 236.434 31.5778 236.727 31.5778H239.302V28.6708C239.302 28.3775 239.545 28.1353 239.838 28.1353H253.009C253.302 28.1353 253.544 28.3775 253.544 28.6708V31.5778H256.12C256.413 31.5778 256.655 31.82 256.655 32.1133V34.88H259.09C259.384 34.88 259.626 35.1223 259.626 35.4155V60.737C259.626 61.0303 259.384 61.2725 259.09 61.2725H256.655V63.3125C256.655 63.6058 256.413 63.848 256.12 63.848H253.544V66.2833C253.544 66.5765 253.302 66.8188 253.009 66.8188H252.996ZM240.361 65.7478H252.46V63.3125C252.46 63.0193 252.703 62.777 252.996 62.777H255.571V60.737C255.571 60.4438 255.814 60.2015 256.107 60.2015H258.542V35.951H256.107C255.814 35.951 255.571 35.7088 255.571 35.4155V32.6488H252.996C252.703 32.6488 252.46 32.4065 252.46 32.1133V29.2063H240.361V32.1133C240.361 32.4065 240.118 32.6488 239.825 32.6488H237.25V35.4155C237.25 35.7088 237.007 35.951 236.714 35.951H234.292V60.2015H236.727C237.02 60.2015 237.262 60.4438 237.262 60.737V62.777H239.838C240.131 62.777 240.373 63.0193 240.373 63.3125V65.7478H240.361Z" fill="#231815"/>
<path d="M239.124 37.6978H236.472V43.1038H239.124V37.6978Z" fill="white"/>
<path d="M239.137 43.6394H236.485C236.191 43.6394 235.949 43.3971 235.949 43.1039V37.6979C235.949 37.4046 236.191 37.1624 236.485 37.1624H239.137C239.43 37.1624 239.672 37.4046 239.672 37.6979V43.1039C239.672 43.3971 239.43 43.6394 239.137 43.6394ZM237.007 42.5684H238.601V38.2206H237.007V42.5684Z" fill="#231815"/>
<path d="M241.648 35.4666H238.996V37.9273H241.648V35.4666Z" fill="white"/>
<path d="M241.648 38.4629H238.996C238.703 38.4629 238.46 38.2207 238.46 37.9274V35.4667C238.46 35.1734 238.703 34.9312 238.996 34.9312H241.648C241.941 34.9312 242.183 35.1734 242.183 35.4667V37.9274C242.183 38.2207 241.941 38.4629 241.648 38.4629ZM239.531 37.3919H241.125V36.0022H239.531V37.3919Z" fill="#231815"/>
<path d="M246.353 32.9927H241.559V35.4534H246.353V32.9927Z" fill="white"/>
<path d="M246.353 35.989H241.559C241.266 35.989 241.023 35.7468 241.023 35.4535V32.9928C241.023 32.6995 241.266 32.4573 241.559 32.4573H246.353C246.646 32.4573 246.888 32.6995 246.888 32.9928V35.4535C246.888 35.7468 246.646 35.989 246.353 35.989ZM242.094 34.9308H245.817V33.541H242.094V34.9308Z" fill="#231815"/>
<path d="M254.602 57.6641H257.254V52.2581H254.602V57.6641Z" fill="#E1D601"/>
<path d="M257.254 58.1997H254.602C254.309 58.1997 254.067 57.9574 254.067 57.6642V52.2582C254.067 51.9649 254.309 51.7227 254.602 51.7227H257.254C257.548 51.7227 257.79 51.9649 257.79 52.2582V57.6642C257.79 57.9574 257.548 58.1997 257.254 58.1997ZM255.138 57.1287H256.732V52.7809H255.138V57.1287Z" fill="#231815"/>
<path d="M252.09 59.8958H254.742V57.435H252.09V59.8958Z" fill="#E1D601"/>
<path d="M254.742 60.4182H252.09C251.797 60.4182 251.555 60.176 251.555 59.8827V57.422C251.555 57.1287 251.797 56.8865 252.09 56.8865H254.742C255.035 56.8865 255.278 57.1287 255.278 57.422V59.8827C255.278 60.176 255.035 60.4182 254.742 60.4182ZM252.626 59.36H254.219V57.9702H252.626V59.36Z" fill="#231815"/>
<path d="M247.386 62.3564H252.18V59.8957H247.386V62.3564Z" fill="#E1D601"/>
<path d="M252.18 62.8919H247.386C247.092 62.8919 246.85 62.6496 246.85 62.3564V59.8956C246.85 59.6024 247.092 59.3601 247.386 59.3601H252.18C252.473 59.3601 252.715 59.6024 252.715 59.8956V62.3564C252.715 62.6496 252.473 62.8919 252.18 62.8919ZM247.921 61.8209H251.644V60.4311H247.921V61.8209Z" fill="#231815"/>
</svg>
