<svg width="463" height="475" viewBox="0 0 463 475" fill="none" xmlns="http://www.w3.org/2000/svg">
<path d="M267.427 74.1648L282.793 69.5648L281.992 59.9398L307.745 53.3648L306.043 33.0398L372.44 17.7148V13.1398L419.066 3.96484L420.867 43.7648L437.135 40.9898L440.088 65.9398L455.154 64.0648L458.758 88.8898L427.174 98.3898L430.253 121.79L385.379 133.89L383.802 127.64L366.258 130.69L363.38 108.565L328.267 115.715L324.588 87.0148L298.085 92.6148L295.857 81.9398L268.153 88.4398L267.427 74.1648Z" fill="#EAF6FD"/>
<path d="M385.38 135.039C385.179 135.039 384.979 134.989 384.779 134.889C384.504 134.739 384.303 134.464 384.228 134.164L382.927 128.989L366.459 131.839C366.159 131.914 365.833 131.839 365.558 131.639C365.308 131.464 365.133 131.164 365.083 130.864L362.355 109.989L328.468 116.864C328.143 116.939 327.817 116.864 327.567 116.664C327.292 116.489 327.142 116.189 327.092 115.864L323.563 88.4394L298.311 93.7644C298.01 93.8394 297.685 93.7644 297.435 93.5894C297.184 93.4144 296.984 93.1644 296.934 92.8394L294.957 83.3394L268.428 89.5644C268.078 89.6394 267.728 89.5644 267.452 89.3644C267.177 89.1644 267.002 88.8394 266.977 88.4894L266.226 74.2144C266.201 73.6894 266.551 73.1894 267.052 73.0394L281.517 68.6894L280.792 60.0144C280.742 59.4394 281.117 58.9394 281.668 58.7894L306.469 52.4644L304.868 33.1144C304.818 32.5394 305.193 32.0144 305.769 31.8894L371.239 16.7894V13.1144C371.239 12.5644 371.64 12.0894 372.165 11.9644L418.841 2.78936C419.191 2.71436 419.516 2.78936 419.792 3.01436C420.067 3.21436 420.217 3.53936 420.242 3.88936L421.994 42.3644L436.935 39.8144C437.236 39.7644 437.561 39.8144 437.836 40.0394C438.086 40.2394 438.262 40.5144 438.287 40.8394L441.115 64.6394L455.005 62.9144C455.605 62.8144 456.206 63.2644 456.306 63.8894L459.935 88.6894C460.01 89.2644 459.66 89.8144 459.109 89.9644L428.476 99.1894L431.429 121.614C431.504 122.189 431.129 122.739 430.578 122.889L385.705 134.989C385.705 134.989 385.505 135.039 385.405 135.039H385.38ZM383.803 126.489C384.328 126.489 384.804 126.839 384.929 127.364L386.205 132.439L428.952 120.914L425.998 98.5144C425.923 97.9394 426.274 97.4144 426.824 97.2394L457.457 88.0144L454.154 65.3144L440.239 67.0394C439.938 67.0894 439.613 66.9894 439.388 66.7894C439.138 66.5894 438.987 66.3144 438.962 66.0144L436.134 42.2894L421.093 44.8644C420.768 44.9144 420.417 44.8394 420.167 44.6144C419.917 44.4144 419.742 44.0894 419.742 43.7644L417.99 5.31436L373.617 14.0644V17.6894C373.617 18.2394 373.241 18.6894 372.716 18.8144L307.32 33.9144L308.922 53.2394C308.972 53.8144 308.597 54.3144 308.046 54.4644L283.244 60.7894L283.945 69.4394C283.995 69.9894 283.645 70.4894 283.119 70.6394L268.628 74.9894L269.254 86.9643L295.608 80.7894C295.908 80.7144 296.233 80.7894 296.509 80.9394C296.784 81.1144 296.959 81.3894 297.034 81.6894L299.011 91.2394L324.364 85.8894C324.689 85.8144 325.014 85.8894 325.29 86.0894C325.565 86.2644 325.74 86.5644 325.765 86.8894L329.294 114.339L363.156 107.464C363.481 107.389 363.806 107.464 364.057 107.664C364.307 107.864 364.482 108.139 364.532 108.464L367.26 129.389L383.603 126.564C383.603 126.564 383.728 126.564 383.803 126.564V126.489Z" fill="#231815"/>
<path d="M410.156 38.7895L410.431 26.9396L398.594 28.1146L398.318 21.6146L418.465 18.0396L419.016 40.2146L410.156 38.7895Z" fill="#C0E5F9"/>
<path d="M419.015 41.3648C419.015 41.3648 418.89 41.3648 418.84 41.3648L409.98 39.9648C409.405 39.8648 408.979 39.3648 409.004 38.7898L409.254 28.2398L398.743 29.2898C398.418 29.3398 398.092 29.2148 397.867 29.0148C397.617 28.8148 397.492 28.5148 397.467 28.1898L397.191 21.6898C397.191 21.1148 397.567 20.5898 398.142 20.4898L418.264 16.8898C418.614 16.8398 418.94 16.9148 419.215 17.1398C419.465 17.3648 419.641 17.6648 419.641 18.0148L420.216 40.1898C420.216 40.5398 420.091 40.8648 419.816 41.0898C419.591 41.2898 419.34 41.3898 419.04 41.3898L419.015 41.3648ZM411.332 37.8148L417.814 38.8398L417.313 19.4148L399.519 22.5898L399.694 26.8398L410.28 25.7898C410.631 25.7648 410.956 25.8648 411.182 26.0898C411.407 26.3148 411.557 26.6398 411.557 26.9648L411.307 37.8148H411.332Z" fill="#231815"/>
<path d="M341.932 64.3395L342.208 52.4895L330.37 53.6645L330.095 47.1645L350.216 43.5645L350.792 65.7645L341.932 64.3395Z" fill="#C0E5F9"/>
<path d="M350.791 66.9141C350.791 66.9141 350.666 66.9141 350.616 66.9141L341.757 65.5141C341.181 65.4141 340.756 64.9141 340.781 64.3391L341.031 53.7891L330.519 54.8391C330.194 54.8641 329.894 54.7641 329.643 54.5641C329.393 54.3641 329.268 54.0641 329.243 53.7391L328.968 47.2391C328.968 46.6641 329.343 46.1391 329.919 46.0391L350.04 42.4391C350.366 42.3891 350.716 42.4641 350.992 42.6891C351.242 42.9141 351.417 43.2141 351.417 43.5641L351.993 65.7391C351.993 66.0891 351.868 66.4141 351.592 66.6391C351.367 66.8141 351.117 66.9391 350.816 66.9391L350.791 66.9141ZM343.108 63.3641L349.59 64.3891L349.09 44.9641L331.295 48.1391L331.47 52.3891L342.057 51.3391C342.382 51.2891 342.708 51.4141 342.958 51.6391C343.208 51.8641 343.333 52.1891 343.333 52.5141L343.083 63.3641H343.108Z" fill="#231815"/>
<path d="M447.545 75.8399L448.121 68.4899L437.134 70.8149L435.883 64.5149L456.03 60.9399L456.63 74.2399L447.545 75.8399Z" fill="#C0E5F9"/>
<path d="M447.546 77.015C447.246 77.015 446.97 76.915 446.77 76.715C446.495 76.465 446.37 76.115 446.395 75.765L446.87 69.965L437.41 71.965C437.11 72.04 436.784 71.965 436.534 71.79C436.284 71.615 436.083 71.34 436.033 71.04L434.782 64.74C434.732 64.44 434.782 64.115 434.957 63.865C435.132 63.615 435.408 63.44 435.708 63.365L455.83 59.765C456.155 59.715 456.506 59.79 456.756 59.99C457.006 60.19 457.181 60.515 457.181 60.84L457.782 74.165C457.807 74.74 457.406 75.265 456.831 75.365L447.746 76.965C447.746 76.965 447.621 76.965 447.546 76.965V77.015ZM448.121 67.34C448.397 67.34 448.672 67.44 448.897 67.64C449.173 67.89 449.323 68.24 449.298 68.615L448.822 74.465L455.429 73.315L454.929 62.34L437.285 65.49L438.086 69.465L447.921 67.39C447.921 67.39 448.071 67.39 448.172 67.39L448.121 67.34Z" fill="#231815"/>
<path d="M313.251 46.6639L305.943 48.2139L304.892 41.0139L312.199 39.4639L313.251 46.6639Z" fill="#D6EEFB"/>
<path d="M305.943 49.3889C305.718 49.3889 305.468 49.3139 305.268 49.1889C304.992 49.0139 304.817 48.7139 304.792 48.4139L303.741 41.2139C303.641 40.6139 304.041 40.0389 304.642 39.9139L311.975 38.3639C312.3 38.2889 312.625 38.3639 312.876 38.5389C313.151 38.7139 313.326 39.0139 313.351 39.3139L314.402 46.5139C314.503 47.1139 314.102 47.6889 313.501 47.8139L306.169 49.3639C306.169 49.3639 306.018 49.3639 305.918 49.3639L305.943 49.3889ZM306.194 41.9139L306.919 46.8139L311.95 45.7389L311.224 40.8389L306.194 41.9139Z" fill="#231815"/>
<path d="M366.708 94.8642L359.375 96.4142L358.324 89.1892L365.657 87.6392L366.708 94.8642Z" fill="#D6EEFB"/>
<path d="M359.376 97.5644C359.151 97.5644 358.9 97.4894 358.7 97.3644C358.425 97.1894 358.25 96.8894 358.225 96.5894L357.174 89.3894C357.073 88.7894 357.474 88.2144 358.075 88.0894L365.407 86.5394C365.733 86.4894 366.058 86.5394 366.308 86.7144C366.584 86.8894 366.759 87.1894 366.784 87.4894L367.835 94.6894C367.935 95.2894 367.535 95.8644 366.934 95.9894L359.601 97.5394C359.601 97.5394 359.451 97.5394 359.351 97.5394L359.376 97.5644ZM359.626 90.1144L360.352 95.0144L365.382 93.9394L364.657 89.0394L359.601 90.1144H359.626Z" fill="#231815"/>
<path d="M360.527 84.5145L353.194 86.0645L352.143 78.8645L359.475 77.3145L360.527 84.5145Z" fill="#D6EEFB"/>
<path d="M353.194 87.2395C352.969 87.2395 352.719 87.1645 352.519 87.0395C352.243 86.8645 352.068 86.5645 352.043 86.2645L350.992 79.0645C350.892 78.4645 351.292 77.8895 351.893 77.7645L359.226 76.2145C359.551 76.1395 359.877 76.2145 360.127 76.3895C360.402 76.5645 360.577 76.8645 360.602 77.1645L361.653 84.3645C361.754 84.9645 361.353 85.5395 360.752 85.6645L353.42 87.2145C353.42 87.2145 353.269 87.2145 353.169 87.2145L353.194 87.2395ZM353.47 79.7645L354.195 84.6645L359.226 83.5895L358.5 78.6895L353.445 79.7645H353.47Z" fill="#231815"/>
<path d="M298.259 85.4642L290.952 87.0142L289.9 79.8142L297.208 78.2642L298.259 85.4642Z" fill="#D6EEFB"/>
<path d="M290.952 88.1887C290.727 88.1887 290.477 88.1137 290.276 87.9887C290.001 87.8137 289.826 87.5137 289.801 87.2137L288.75 80.0137C288.65 79.4137 289.05 78.8387 289.651 78.7137L296.984 77.1637C297.309 77.0887 297.634 77.1637 297.885 77.3387C298.16 77.5137 298.335 77.8137 298.36 78.1137L299.411 85.3137C299.511 85.9137 299.111 86.4887 298.51 86.6137L291.177 88.1637C291.177 88.1637 291.027 88.1637 290.927 88.1637L290.952 88.1887ZM291.202 80.7137L291.928 85.6137L296.959 84.5387L296.233 79.6387L291.202 80.7137Z" fill="#231815"/>
<path d="M413.535 43.015L406.227 44.54L405.176 37.34L412.484 35.79L413.535 43.015Z" fill="#D6EEFB"/>
<path d="M406.227 45.7146C406.002 45.7146 405.752 45.6396 405.552 45.5146C405.276 45.3396 405.101 45.0396 405.076 44.7396L404.025 37.5396C403.925 36.9396 404.325 36.3646 404.926 36.2396L412.259 34.6896C412.584 34.6146 412.91 34.6896 413.16 34.8646C413.435 35.0396 413.61 35.3396 413.635 35.6396L414.687 42.8396C414.787 43.4396 414.386 44.0146 413.786 44.1396L406.453 45.6896C406.453 45.6896 406.303 45.6896 406.202 45.6896L406.227 45.7146ZM406.478 38.2396L407.204 43.1396L412.234 42.0646L411.508 37.1646L406.478 38.2396Z" fill="#231815"/>
<path d="M439.16 87.6645L431.828 89.2145L430.776 81.9895L438.109 80.4395L439.16 87.6645Z" fill="#D6EEFB"/>
<path d="M431.829 90.3645C431.604 90.3645 431.353 90.2895 431.153 90.1645C430.878 89.9895 430.703 89.6895 430.678 89.3895L429.627 82.1895C429.527 81.5895 429.927 81.0145 430.528 80.8895L437.861 79.3395C438.186 79.2645 438.511 79.3395 438.762 79.5145C439.037 79.6895 439.212 79.9895 439.237 80.2895L440.288 87.4895C440.388 88.0895 439.988 88.6645 439.387 88.7895L432.054 90.3395C432.054 90.3395 431.904 90.3395 431.804 90.3395L431.829 90.3645ZM432.079 82.9145L432.805 87.8145L437.836 86.7395L437.11 81.8395L432.079 82.9145Z" fill="#231815"/>
<path d="M447.996 118.589L440.663 120.139L439.612 112.914L446.945 111.389L447.996 118.589Z" fill="#D6EEFB"/>
<path d="M440.664 121.289C440.439 121.289 440.188 121.214 439.988 121.089C439.713 120.914 439.538 120.614 439.513 120.314L438.462 113.114C438.362 112.514 438.762 111.939 439.363 111.814L446.696 110.264C447.021 110.189 447.346 110.264 447.596 110.439C447.872 110.614 448.047 110.914 448.072 111.214L449.123 118.414C449.223 119.014 448.823 119.589 448.222 119.714L440.889 121.264C440.889 121.264 440.739 121.264 440.639 121.264L440.664 121.289ZM440.939 113.839L441.665 118.739L446.696 117.664L445.97 112.764L440.914 113.839H440.939Z" fill="#231815"/>
<path d="M410.906 80.0149L403.573 81.5649L402.521 74.3399L409.829 72.8149L410.906 80.0149Z" fill="#95D5F6"/>
<path d="M403.573 82.7143C403.348 82.7143 403.098 82.6393 402.897 82.5143C402.622 82.3393 402.447 82.0393 402.422 81.7393L401.371 74.5393C401.271 73.9393 401.671 73.3643 402.272 73.2393L409.605 71.6893C409.93 71.6393 410.255 71.6893 410.506 71.8643C410.781 72.0393 410.956 72.3393 410.981 72.6393L412.032 79.8393C412.132 80.4393 411.732 81.0143 411.131 81.1393L403.798 82.6893C403.798 82.6893 403.648 82.6893 403.548 82.6893L403.573 82.7143ZM403.823 75.2643L404.549 80.1643L409.605 79.0893L408.879 74.1893L403.848 75.2643H403.823Z" fill="#231815"/>
<path d="M406.85 48.8895L399.517 50.4395L398.466 43.2395L405.799 41.6895L406.85 48.8895Z" fill="#95D5F6"/>
<path d="M399.519 51.6145C399.293 51.6145 399.043 51.5395 398.843 51.4145C398.567 51.2395 398.392 50.9395 398.367 50.6395L397.316 43.4395C397.216 42.8395 397.616 42.2645 398.217 42.1395L405.55 40.5895C405.875 40.5145 406.201 40.5895 406.451 40.7645C406.726 40.9395 406.901 41.2395 406.926 41.5395L407.978 48.7395C408.078 49.3395 407.677 49.9145 407.077 50.0395L399.744 51.5895C399.744 51.5895 399.594 51.5895 399.493 51.5895L399.519 51.6145ZM399.794 44.1395L400.52 49.0395L405.575 47.9645L404.849 43.0645L399.819 44.1395H399.794Z" fill="#231815"/>
<path d="M358.726 92.3397L351.393 93.8897L350.342 86.6647L357.675 85.1147L358.726 92.3397Z" fill="#95D5F6"/>
<path d="M351.394 95.04C351.168 95.04 350.918 94.965 350.718 94.84C350.443 94.665 350.267 94.365 350.242 94.065L349.191 86.865C349.091 86.265 349.491 85.69 350.092 85.565L357.425 84.015C357.75 83.965 358.076 84.015 358.326 84.19C358.601 84.365 358.776 84.665 358.801 84.965L359.853 92.165C359.953 92.765 359.552 93.34 358.952 93.465L351.619 95.015C351.619 95.015 351.469 95.015 351.369 95.015L351.394 95.04ZM351.669 87.5899L352.395 92.49L357.425 91.415L356.699 86.515L351.644 87.5899H351.669Z" fill="#231815"/>
<path d="M326.74 93.7396L319.408 95.2646L318.356 88.0646L325.689 86.5146L326.74 93.7396Z" fill="#D6EEFB"/>
<path d="M319.409 96.4397C319.184 96.4397 318.934 96.3647 318.733 96.2397C318.458 96.0647 318.283 95.7647 318.258 95.4647L317.207 88.2647C317.107 87.6647 317.507 87.0897 318.108 86.9647L325.441 85.4147C325.766 85.3397 326.091 85.4147 326.342 85.5897C326.617 85.7647 326.792 86.0647 326.817 86.3647L327.868 93.5647C327.968 94.1647 327.568 94.7397 326.967 94.8647L319.634 96.4147C319.634 96.4147 319.484 96.4147 319.384 96.4147L319.409 96.4397ZM319.659 88.9897L320.385 93.8897L325.441 92.8147L324.715 87.9147L319.684 88.9897H319.659Z" fill="#231815"/>
<path d="M318.757 91.2143L311.424 92.7393L310.373 85.5393L317.706 83.9893L318.757 91.2143Z" fill="#95D5F6"/>
<path d="M311.425 93.9143C311.199 93.9143 310.949 93.8393 310.749 93.7143C310.474 93.5393 310.299 93.2393 310.273 92.9393L309.222 85.7393C309.122 85.1393 309.523 84.5643 310.123 84.4393L317.456 82.8893C317.782 82.8143 318.107 82.8893 318.357 83.0643C318.633 83.2393 318.808 83.5393 318.833 83.8393L319.884 91.0393C319.984 91.6393 319.584 92.2143 318.983 92.3393L311.65 93.8893C311.65 93.8893 311.5 93.8893 311.4 93.8893L311.425 93.9143ZM311.7 86.4643L312.426 91.3643L317.481 90.2893L316.755 85.3893L311.725 86.4643H311.7Z" fill="#231815"/>
<path d="M352.244 78.7885L344.936 80.3135L343.885 73.1135L351.193 71.5635L352.244 78.7885Z" fill="#95D5F6"/>
<path d="M344.936 81.4887C344.711 81.4887 344.461 81.4137 344.261 81.2887C343.985 81.1137 343.81 80.8137 343.785 80.5137L342.734 73.3137C342.634 72.7137 343.034 72.1387 343.635 72.0137L350.968 70.4637C351.293 70.4137 351.619 70.4637 351.869 70.6387C352.144 70.8137 352.319 71.1137 352.344 71.4137L353.396 78.6137C353.496 79.2137 353.095 79.7887 352.495 79.9137L345.162 81.4637C345.162 81.4637 345.012 81.4637 344.911 81.4637L344.936 81.4887ZM345.187 74.0387L345.912 78.9387L350.943 77.8637L350.217 72.9637L345.162 74.0387H345.187Z" fill="#231815"/>
<path d="M237.797 98.6143L256.392 104.314L277.565 97.2143L279.392 73.2143L260.046 65.4893L235.67 71.9643L237.797 98.6143Z" fill="#E60012"/>
<path d="M256.392 105.464C256.392 105.464 256.167 105.464 256.041 105.414L237.446 99.7145C236.996 99.5645 236.67 99.1645 236.62 98.6895L234.518 72.0145C234.468 71.4645 234.843 70.9395 235.369 70.7895L259.745 64.3395C259.996 64.2895 260.246 64.2895 260.471 64.3895L279.817 72.1145C280.293 72.3145 280.593 72.7645 280.543 73.2895L278.716 97.2895C278.691 97.7645 278.365 98.1645 277.915 98.3145L256.742 105.414C256.742 105.414 256.492 105.464 256.367 105.464H256.392ZM238.873 97.7395L256.367 103.089L276.463 96.3645L278.165 73.9895L259.971 66.7145L236.896 72.8145L238.873 97.7145V97.7395Z" fill="#231815"/>
<path d="M48.117 380.613L58.278 375.838L46.0898 369.188L48.117 380.613Z" fill="#595757"/>
<path d="M48.1167 381.764C47.9416 381.764 47.7413 381.714 47.5912 381.639C47.2658 381.464 47.0406 381.164 46.9905 380.814L44.9634 369.389C44.8883 368.939 45.0634 368.514 45.4388 368.239C45.8142 367.989 46.2898 367.939 46.6652 368.164L58.8533 374.789C59.2287 374.989 59.479 375.414 59.454 375.839C59.454 376.289 59.1787 376.664 58.7782 376.864L48.6423 381.639C48.4921 381.714 48.317 381.739 48.1418 381.739L48.1167 381.764ZM47.6412 371.389L48.9927 378.914L55.6999 375.764L47.6662 371.389H47.6412Z" fill="#231815"/>
<path d="M225.332 342.165L105.627 278.665L4.21777 311.94L8.79772 344.765L135.835 428.815L185.213 413.59L225.332 342.165Z" fill="#D7000F"/>
<path d="M135.836 429.99C135.61 429.99 135.385 429.915 135.185 429.79L8.14783 345.74C7.87253 345.565 7.67233 345.265 7.6473 344.94L3.06735 312.115C2.99227 311.565 3.3176 311.015 3.86819 310.84L105.278 277.565C105.578 277.465 105.903 277.49 106.179 277.64L225.883 341.14C226.158 341.29 226.358 341.54 226.459 341.84C226.559 342.14 226.509 342.465 226.358 342.74L186.215 414.165C186.065 414.415 185.84 414.615 185.539 414.715L136.161 429.94C136.161 429.94 135.936 429.99 135.811 429.99H135.836ZM9.8747 344.09L136.011 427.54L184.413 412.615L223.731 342.615L105.503 279.915L5.49497 312.74L9.84965 344.065L9.8747 344.09Z" fill="#231815"/>
<path d="M18.0602 359.139L48.1177 380.614L42.1112 339.414L12.0537 317.939L18.0602 359.139Z" fill="#595757"/>
<path d="M48.1182 381.764C47.8679 381.764 47.6427 381.689 47.4424 381.539L17.385 360.064C17.1347 359.889 16.9595 359.589 16.9095 359.289L10.903 318.089C10.8279 317.639 11.0532 317.164 11.4536 316.939C11.854 316.689 12.3546 316.714 12.73 316.989L42.7874 338.464C43.0377 338.639 43.2129 338.939 43.2629 339.239L49.2694 380.439C49.3445 380.889 49.1193 381.364 48.7188 381.589C48.5437 381.714 48.3184 381.764 48.1182 381.764ZM19.1369 358.464L46.5665 378.064L41.0105 340.064L13.5809 320.464L19.1369 358.464Z" fill="#231815"/>
<path d="M25.4189 353.115L37.1066 361.465L34.754 345.44L23.0664 337.09L25.4189 353.115Z" fill="white"/>
<path d="M37.1065 362.615C36.8563 362.615 36.631 362.54 36.4308 362.39L24.7432 354.04C24.4929 353.865 24.3177 353.565 24.2676 353.265L21.9401 337.24C21.865 336.79 22.0903 336.315 22.4907 336.09C22.8911 335.84 23.3917 335.865 23.7671 336.14L35.4547 344.49C35.705 344.665 35.8802 344.965 35.9303 345.265L38.2577 361.29C38.3328 361.74 38.1076 362.215 37.7071 362.44C37.532 362.565 37.3067 362.615 37.1065 362.615ZM26.4951 352.44L35.5548 358.915L33.6778 346.09L24.618 339.615L26.4951 352.44Z" fill="#231815"/>
<path d="M4.21875 311.94L133.458 397.39L220.277 337.965L105.628 278.665L4.21875 311.94Z" fill="#C4000A"/>
<path d="M133.459 398.565C133.234 398.565 133.009 398.49 132.808 398.365L3.56889 312.915C3.19348 312.665 2.99327 312.24 3.06836 311.79C3.11841 311.34 3.44374 310.99 3.8692 310.84L105.279 277.565C105.579 277.465 105.904 277.49 106.18 277.64L220.854 336.965C221.229 337.165 221.454 337.515 221.479 337.94C221.479 338.34 221.304 338.74 220.979 338.965L134.16 398.39C133.96 398.515 133.734 398.59 133.509 398.59L133.459 398.565ZM6.87247 312.29L133.459 395.99L218.025 338.115L105.529 279.915L6.87247 312.29Z" fill="#231815"/>
<path d="M182.863 466.54L192.999 461.765L180.811 455.115L182.863 466.54Z" fill="#595757"/>
<path d="M182.862 467.69C182.687 467.69 182.486 467.64 182.336 467.565C182.011 467.39 181.786 467.09 181.736 466.74L179.708 455.315C179.633 454.865 179.809 454.44 180.184 454.165C180.559 453.89 181.035 453.865 181.41 454.09L193.598 460.715C193.974 460.915 194.224 461.34 194.199 461.765C194.199 462.215 193.924 462.59 193.523 462.79L183.387 467.565C183.237 467.64 183.062 467.665 182.887 467.665L182.862 467.69ZM182.386 457.315L183.738 464.84L190.445 461.69L182.411 457.315H182.386Z" fill="#231815"/>
<path d="M274.712 369.865L267.479 325.415L215.022 298.865L122.122 331.515L131.958 420.265L200.231 471.09L285.073 434.94L280.668 379.115L274.712 369.865Z" fill="#E60012"/>
<path d="M200.232 472.239C199.982 472.239 199.731 472.164 199.531 472.014L131.257 421.189C131.007 420.989 130.832 420.714 130.807 420.389L120.971 331.639C120.921 331.114 121.221 330.589 121.747 330.414L214.647 297.764C214.948 297.664 215.273 297.689 215.573 297.814L268.03 324.364C268.355 324.539 268.606 324.839 268.656 325.214L275.838 369.439L281.67 378.489C281.77 378.639 281.845 378.839 281.845 379.039L286.25 434.839C286.3 435.339 285.999 435.814 285.549 435.989L200.707 472.139C200.557 472.189 200.407 472.239 200.257 472.239H200.232ZM133.059 419.639L200.382 469.764L283.822 434.189L279.517 379.514L273.711 370.514C273.636 370.389 273.561 370.239 273.536 370.064L266.403 326.189L214.923 300.114L123.374 332.289L133.059 419.614V419.639Z" fill="#231815"/>
<path d="M268.356 331.514L183.164 365.489L189.671 405.214L274.713 369.864L268.356 331.514Z" fill="white"/>
<path d="M189.671 406.364C189.47 406.364 189.27 406.314 189.095 406.214C188.795 406.039 188.569 405.739 188.519 405.389L182.012 365.664C181.912 365.114 182.212 364.589 182.738 364.389L267.93 330.414C268.255 330.289 268.631 330.314 268.931 330.489C269.231 330.664 269.457 330.964 269.507 331.314L275.839 369.664C275.939 370.189 275.638 370.714 275.138 370.939L190.121 406.264C189.971 406.314 189.821 406.364 189.671 406.364ZM184.465 366.214L190.597 403.564L273.411 369.139L267.455 333.114L184.465 366.189V366.214Z" fill="#231815"/>
<path d="M152.804 445.065L182.862 466.54L176.855 425.34L146.798 403.865L152.804 445.065Z" fill="#595757"/>
<path d="M182.862 467.689C182.612 467.689 182.387 467.614 182.187 467.464L152.129 445.989C151.879 445.814 151.704 445.514 151.654 445.214L145.647 404.014C145.572 403.564 145.797 403.089 146.198 402.864C146.598 402.639 147.099 402.639 147.474 402.914L177.532 424.389C177.782 424.564 177.957 424.864 178.007 425.164L184.014 466.364C184.089 466.814 183.863 467.289 183.463 467.514C183.288 467.639 183.063 467.689 182.862 467.689ZM153.881 444.414L181.311 464.014L175.78 426.014L148.35 406.414L153.881 444.414Z" fill="#231815"/>
<path d="M160.14 439.04L171.828 447.39L169.5 431.365L157.812 423.015L160.14 439.04Z" fill="white"/>
<path d="M171.827 448.54C171.577 448.54 171.352 448.465 171.151 448.315L159.464 439.965C159.214 439.79 159.038 439.49 158.988 439.19L156.661 423.165C156.586 422.715 156.811 422.24 157.211 422.015C157.612 421.765 158.112 421.79 158.488 422.065L170.175 430.415C170.426 430.59 170.601 430.89 170.651 431.19L172.978 447.215C173.054 447.665 172.828 448.14 172.428 448.365C172.253 448.49 172.027 448.54 171.827 448.54ZM161.216 438.39L170.276 444.865L168.398 432.04L159.339 425.565L161.216 438.39Z" fill="#231815"/>
<path d="M181.462 403.915L174.98 362.14L129.181 337.515L133.761 381.165L181.462 403.915Z" fill="white"/>
<path d="M181.462 405.089C181.287 405.089 181.111 405.064 180.961 404.964L133.26 382.189C132.884 382.014 132.634 381.664 132.609 381.264L128.029 337.639C127.979 337.214 128.179 336.789 128.53 336.564C128.88 336.314 129.356 336.289 129.731 336.514L175.53 361.114C175.856 361.289 176.081 361.589 176.131 361.964L182.613 403.764C182.688 404.189 182.513 404.614 182.163 404.864C181.962 405.014 181.712 405.089 181.462 405.089ZM134.862 380.389L179.985 401.939L173.929 362.889L130.557 339.589L134.836 380.389H134.862Z" fill="#231815"/>
<path d="M66.1878 313.665L47.5176 301.415L103.153 125.715L122.999 130.715L66.1878 313.665Z" fill="white"/>
<path d="M66.1878 314.815C65.9625 314.815 65.7372 314.74 65.537 314.615L46.8669 302.365C46.4414 302.09 46.2412 301.54 46.3914 301.04L102.051 125.34C102.227 124.765 102.827 124.415 103.453 124.565L123.274 129.565C123.575 129.64 123.85 129.84 124 130.115C124.15 130.39 124.2 130.715 124.1 131.04L67.289 313.99C67.1888 314.34 66.9135 314.615 66.5631 314.74C66.438 314.79 66.3129 314.815 66.1627 314.815H66.1878ZM48.8941 300.915L65.537 311.815L121.523 131.515L103.954 127.09L48.8941 300.915Z" fill="#231815"/>
<path d="M66.1846 313.664L122.996 130.714L133.707 124.939L88.2084 306.389L66.1846 313.664Z" fill="#D7D7D8"/>
<path d="M66.1861 314.815C65.8858 314.815 65.5854 314.69 65.3602 314.49C65.0599 314.19 64.9348 313.74 65.0599 313.315L121.871 130.365C121.971 130.065 122.172 129.84 122.422 129.69L133.133 123.94C133.534 123.715 134.034 123.765 134.41 124.04C134.785 124.315 134.935 124.79 134.835 125.24L89.3361 306.665C89.236 307.065 88.9607 307.365 88.5603 307.49L66.5115 314.765C66.5115 314.765 66.2612 314.815 66.136 314.815H66.1861ZM123.973 131.515L67.963 311.84L87.2338 305.465L131.932 127.215L123.973 131.49V131.515Z" fill="#231815"/>
<path d="M256.117 93.4391L99.4727 140.039L100.073 119.789L258.394 78.5391L256.117 93.4391Z" fill="#D7D7D8"/>
<path d="M99.473 141.214C99.2227 141.214 98.9724 141.139 98.7722 140.964C98.4719 140.739 98.2967 140.389 98.3217 140.014L98.9224 119.764C98.9224 119.239 99.2977 118.814 99.7983 118.664L258.119 77.3894C258.495 77.2894 258.895 77.3894 259.195 77.6394C259.496 77.8894 259.621 78.2894 259.571 78.6894L257.293 93.5894C257.218 94.0394 256.918 94.3894 256.467 94.5394L99.8233 141.139C99.8233 141.139 99.5981 141.189 99.498 141.189L99.473 141.214ZM101.225 120.714L100.699 138.464L255.091 92.5394L256.993 80.1144L101.225 120.714Z" fill="#231815"/>
<path d="M99.4729 140.04L100.073 119.79L83.0301 115.54L82.4795 133.14L99.4729 140.04Z" fill="#B7B8B8"/>
<path d="M99.4719 141.215C99.3217 141.215 99.1715 141.19 99.0214 141.14L82.028 134.24C81.5776 134.065 81.2772 133.615 81.3022 133.115L81.8528 115.515C81.8528 115.165 82.028 114.84 82.3033 114.615C82.5786 114.39 82.954 114.34 83.2794 114.415L100.323 118.69C100.848 118.815 101.224 119.315 101.199 119.865L100.598 140.115C100.598 140.49 100.398 140.84 100.073 141.065C99.8723 141.19 99.6721 141.265 99.4468 141.265L99.4719 141.215ZM83.6798 132.365L98.3707 138.34L98.8962 120.715L84.1553 117.015L83.6798 132.365Z" fill="#231815"/>
<path d="M83.0293 115.539L100.073 119.789L258.394 78.5393L243.728 75.4893L83.0293 115.539Z" fill="white"/>
<path d="M100.074 120.964C100.074 120.964 99.8733 120.964 99.7982 120.939L82.7548 116.664C82.2293 116.539 81.8789 116.064 81.8789 115.539C81.8789 115.014 82.2543 114.539 82.7548 114.414L243.478 74.3891C243.654 74.3391 243.829 74.3391 244.004 74.3891L258.67 77.4141C259.195 77.5141 259.596 77.9891 259.596 78.5141C259.596 79.0391 259.245 79.5391 258.72 79.6641L100.399 120.939C100.399 120.939 100.199 120.989 100.099 120.989L100.074 120.964ZM87.8353 115.539L100.074 118.614L253.289 78.6641L243.779 76.6891L87.8353 115.539Z" fill="#231815"/>
<path d="M230.664 314.789L167.972 338.514V344.639L176.656 349.364L241.451 324.764L241.326 320.864L230.664 314.789Z" fill="#F4A138"/>
<path d="M176.656 350.539C176.456 350.539 176.281 350.489 176.105 350.389L167.421 345.664C167.046 345.464 166.82 345.064 166.82 344.639V338.514C166.82 338.039 167.121 337.589 167.571 337.414L230.289 313.689C230.614 313.564 230.965 313.589 231.265 313.764L241.926 319.814C242.277 320.014 242.502 320.389 242.527 320.789L242.652 324.689C242.652 325.189 242.377 325.639 241.901 325.814L177.081 350.414C176.956 350.464 176.806 350.489 176.656 350.489V350.539ZM169.123 343.964L176.731 348.114L240.275 323.989L240.2 321.564L230.589 316.089L169.148 339.339V343.964H169.123Z" fill="#231815"/>
<path d="M202.857 340.339L202.357 333.889L193.572 328.314L206.186 323.464L214.245 330.064L214.57 335.239L202.857 340.339Z" fill="#C4000A"/>
<path d="M202.858 341.515C202.658 341.515 202.432 341.465 202.257 341.34C201.932 341.14 201.732 340.815 201.707 340.44L201.256 334.565L192.947 329.29C192.572 329.065 192.372 328.64 192.422 328.19C192.472 327.765 192.747 327.39 193.172 327.215L205.786 322.365C206.187 322.215 206.612 322.29 206.937 322.54L214.996 329.14C215.246 329.34 215.396 329.64 215.421 329.965L215.722 335.14C215.747 335.64 215.472 336.09 215.021 336.265L203.333 341.365C203.183 341.44 203.033 341.465 202.858 341.465V341.515ZM196.151 328.565L203.008 332.915C203.308 333.115 203.509 333.44 203.534 333.815L203.909 338.64L213.344 334.54L213.119 330.665L205.961 324.815L196.126 328.59L196.151 328.565Z" fill="#231815"/>
<path d="M200.23 471.09L197.452 413.29L280.667 379.115L285.072 434.94L200.23 471.09Z" fill="#D3000E"/>
<path d="M200.231 472.24C200.005 472.24 199.805 472.19 199.605 472.065C199.28 471.865 199.079 471.515 199.054 471.14L196.276 413.34C196.276 412.84 196.552 412.39 197.002 412.215L280.192 378.04C280.542 377.915 280.918 377.94 281.243 378.115C281.568 378.315 281.769 378.64 281.794 379.015L286.198 434.815C286.249 435.315 285.948 435.79 285.498 435.965L200.656 472.115C200.506 472.165 200.356 472.215 200.206 472.215L200.231 472.24ZM198.654 414.065L201.307 469.365L283.821 434.19L279.616 380.815L198.654 414.065Z" fill="#231815"/>
<path d="M215.824 413.264L204.486 418.139L205.362 431.814L216.199 426.664L215.824 413.264Z" fill="#E0E1E1"/>
<path d="M205.362 432.965C205.162 432.965 204.962 432.915 204.762 432.815C204.436 432.615 204.211 432.265 204.186 431.89L203.31 418.24C203.285 417.74 203.56 417.29 204.011 417.09L215.348 412.215C215.699 412.065 216.124 412.09 216.424 412.29C216.75 412.49 216.95 412.865 216.975 413.24L217.35 426.64C217.35 427.09 217.1 427.54 216.675 427.715L205.838 432.84C205.688 432.915 205.513 432.94 205.337 432.94L205.362 432.965ZM205.713 418.89L206.414 430.015L215.023 425.94L214.697 414.99L205.688 418.865L205.713 418.89Z" fill="#231815"/>
<path d="M276.088 388.665L264.775 393.565L265.626 407.215L276.488 402.09L276.088 388.665Z" fill="#E0E1E1"/>
<path d="M265.626 408.365C265.426 408.365 265.226 408.315 265.025 408.215C264.7 408.015 264.475 407.665 264.45 407.29L263.574 393.64C263.549 393.14 263.824 392.69 264.275 392.49L275.612 387.615C275.962 387.465 276.363 387.49 276.688 387.69C277.013 387.89 277.214 388.265 277.239 388.64L277.614 402.04C277.614 402.49 277.364 402.94 276.938 403.115L266.102 408.24C265.951 408.315 265.776 408.34 265.601 408.34L265.626 408.365ZM265.976 394.29L266.677 405.415L275.287 401.34L274.961 390.415L265.951 394.29H265.976Z" fill="#231815"/>
<path d="M277.215 418.264L208.216 445.964L209.092 459.614L277.866 430.364L277.215 418.264Z" fill="#E0E1E1"/>
<path d="M209.091 460.789C208.866 460.789 208.666 460.739 208.491 460.614C208.165 460.414 207.965 460.064 207.94 459.689L207.064 446.039C207.039 445.539 207.314 445.064 207.79 444.889L276.789 417.189C277.14 417.039 277.54 417.089 277.841 417.289C278.166 417.489 278.366 417.839 278.366 418.214L279.017 430.314C279.042 430.814 278.767 431.264 278.316 431.439L209.542 460.689C209.392 460.739 209.241 460.789 209.091 460.789ZM209.442 446.739L210.142 457.914L276.639 429.639L276.139 419.989L209.442 446.764V446.739Z" fill="#231815"/>
</svg>
