<svg width="325" height="250" viewBox="0 0 325 250" fill="none" xmlns="http://www.w3.org/2000/svg">
<path d="M308.151 182.265C308.151 182.265 311.926 203.39 311.401 204.065C310.876 204.74 301.101 205.44 299.726 205.44C298.351 205.44 293.376 203.215 293.376 203.215L293.201 183.465L308.126 182.265H308.151Z" fill="#615F5F"/>
<path d="M293.026 204.015C292.701 203.865 292.501 203.565 292.501 203.215L292.326 183.465C292.326 183.015 292.676 182.615 293.126 182.59L308.051 181.39C308.526 181.315 308.901 181.665 308.976 182.115C312.826 203.615 312.351 204.215 312.076 204.59C311.101 205.89 299.801 206.315 299.701 206.315C298.226 206.315 293.851 204.39 293.001 204.015H293.026ZM307.426 183.215L294.101 184.29L294.251 202.64C296.226 203.515 298.976 204.565 299.726 204.565C301.401 204.565 308.776 203.965 310.576 203.49C310.501 201.165 308.701 190.39 307.426 183.215Z" fill="#231815"/>
<path d="M282.478 177.99C282.103 176.015 282.053 174.04 282.053 174.04L310.203 177.99L309.353 183.49C309.353 183.49 306.278 184.215 298.103 185.015C297.603 188.59 295.203 205.665 294.578 205.815C293.903 205.99 288.228 207.54 287.028 207.365C285.828 207.19 277.753 203.765 277.078 203.415C276.428 203.09 281.753 181.04 282.478 178.015V177.99Z" fill="#6A6969"/>
<path d="M286.903 208.189C285.528 207.989 277.278 204.464 276.678 204.164C275.878 203.764 275.378 203.514 281.578 177.964C281.228 176.014 281.178 174.139 281.178 174.064C281.178 173.814 281.278 173.564 281.478 173.389C281.678 173.214 281.928 173.139 282.178 173.164L310.328 177.114C310.553 177.139 310.778 177.264 310.903 177.464C311.053 177.664 311.103 177.889 311.053 178.114L310.203 183.614C310.153 183.964 309.878 184.239 309.528 184.339C309.403 184.364 306.478 185.039 298.853 185.814C295.978 206.364 295.528 206.464 294.778 206.664L294.353 206.764C290.478 207.789 288.278 208.239 287.228 208.239C287.103 208.239 286.978 208.239 286.903 208.239V208.189ZM297.228 184.864C297.278 184.464 297.603 184.139 298.003 184.114C304.078 183.514 307.328 182.964 308.553 182.739L309.178 178.739L282.978 175.064C283.028 175.789 283.153 176.814 283.328 177.839C283.328 177.964 283.328 178.089 283.328 178.214C280.728 188.964 278.128 200.414 277.903 202.814C279.828 203.664 286.278 206.339 287.153 206.464C287.428 206.514 288.603 206.464 293.928 205.064H293.978C294.478 203.389 295.753 195.514 297.228 184.889V184.864Z" fill="#231815"/>
<path d="M318.103 176.265C318.103 176.265 319.303 179.515 316.728 180.89C314.153 182.265 310.553 182.44 309.853 178.665C309.178 174.89 314.328 174.365 318.103 176.265Z" fill="#FDE4C3"/>
<path d="M311.353 182.215C310.478 181.79 309.378 180.865 309.003 178.815C308.728 177.34 309.178 176.09 310.278 175.29C312.103 173.915 315.578 174.015 318.503 175.465C318.703 175.565 318.853 175.74 318.928 175.94C319.428 177.315 319.703 180.29 317.153 181.665C315.903 182.34 314.628 182.665 313.478 182.665C312.703 182.665 312.003 182.515 311.378 182.215H311.353ZM311.303 176.69C310.753 177.09 310.578 177.69 310.728 178.49C310.928 179.565 311.378 180.265 312.128 180.615C313.178 181.115 314.778 180.915 316.328 180.09C317.803 179.29 317.553 177.59 317.378 176.865C315.128 175.865 312.528 175.765 311.328 176.665L311.303 176.69Z" fill="#231815"/>
<path d="M313.476 148.114C313.476 148.114 318.101 151.364 319.301 164.939C320.501 178.489 318.951 177.289 317.076 177.639C315.201 177.989 307.801 177.114 307.801 177.114C307.801 177.114 308.151 152.564 307.976 150.689C307.801 148.814 310.901 146.064 313.476 148.114Z" fill="#8CC220"/>
<path d="M307.701 177.99C307.251 177.94 306.926 177.565 306.926 177.115C307.051 168.64 307.226 152.24 307.101 150.765C306.976 149.415 307.976 147.84 309.476 147.015C311.001 146.19 312.651 146.34 314.001 147.415C314.451 147.74 319.001 151.44 320.176 164.865C321.251 176.865 320.276 178.165 317.676 178.44C317.526 178.44 317.376 178.465 317.226 178.49C316.876 178.565 316.326 178.59 315.701 178.59C312.951 178.59 308.326 178.065 307.701 177.99ZM312.926 148.79C311.926 147.99 310.951 148.215 310.326 148.565C309.376 149.065 308.801 150.015 308.851 150.59C309.001 152.315 308.751 172.015 308.701 176.315C311.101 176.565 315.626 176.99 316.926 176.74C317.126 176.715 317.301 176.69 317.501 176.665C318.476 176.565 319.451 176.44 318.451 164.99C317.326 152.19 313.051 148.865 312.976 148.815H312.951L312.926 148.79Z" fill="#231815"/>
<path d="M273.654 142.44C273.654 142.44 273.654 140.04 269.879 140.04C266.104 140.04 264.379 144.665 267.479 147.59C270.579 150.515 273.654 142.44 273.654 142.44Z" fill="#FDE4C3"/>
<path d="M266.852 148.239C265.102 146.589 264.527 144.264 265.327 142.189C266.077 140.314 267.802 139.164 269.852 139.164C274.452 139.164 274.502 142.414 274.502 142.439C274.502 142.539 274.502 142.664 274.452 142.764C274.227 143.339 272.202 148.414 269.452 149.039C269.277 149.089 269.077 149.114 268.852 149.114C268.277 149.114 267.552 148.914 266.852 148.239ZM269.877 140.914C268.552 140.914 267.477 141.639 267.002 142.839C266.577 143.914 266.627 145.564 268.102 146.939C268.552 147.364 268.877 147.364 269.102 147.314C270.377 147.014 271.977 144.264 272.777 142.314C272.702 141.964 272.277 140.914 269.902 140.914H269.877Z" fill="#231815"/>
<path d="M311.402 147.415L312.277 180.215L289.602 182.265L279.302 172.665L288.052 143.815L311.402 147.415Z" fill="#DAE000"/>
<path d="M289.001 182.914L278.701 173.314C278.451 173.089 278.351 172.739 278.451 172.414L287.201 143.589C287.326 143.164 287.751 142.914 288.176 142.964L311.526 146.564C311.951 146.639 312.251 146.989 312.276 147.414L313.126 180.189C313.126 180.664 312.776 181.039 312.326 181.089L289.676 183.139C289.676 183.139 289.626 183.139 289.601 183.139C289.376 183.139 289.176 183.064 289.001 182.889V182.914ZM310.551 148.164L288.676 144.789L280.301 172.364L289.901 181.339L311.351 179.389L310.526 148.164H310.551Z" fill="#231815"/>
<path d="M292.303 123.09L286.528 142.39L296.403 147.94L312.803 146.965L317.853 127.19L310.628 123.59L292.303 123.09Z" fill="#FDE4C3"/>
<path d="M295.977 148.69L286.102 143.14C285.752 142.94 285.577 142.515 285.677 142.115L291.452 122.815C291.577 122.44 291.952 122.165 292.327 122.19L310.652 122.665C310.777 122.665 310.902 122.69 311.027 122.765L318.252 126.39C318.627 126.565 318.827 126.99 318.702 127.39L313.627 147.165C313.527 147.54 313.202 147.79 312.827 147.815L296.427 148.79C296.427 148.79 296.402 148.79 296.377 148.79C296.227 148.79 296.077 148.74 295.952 148.665L295.977 148.69ZM316.827 127.665L310.402 124.465L292.952 124.015L287.552 141.99L296.602 147.065L312.102 146.14L316.827 127.665Z" fill="#231815"/>
<path d="M291.777 129.364L293.477 130.089L292.027 134.839L290.327 133.864L291.777 129.364Z" fill="#231815"/>
<path d="M292.228 140.239C293.303 140.239 294.078 139.939 294.153 139.914C294.778 139.664 295.078 138.964 294.828 138.339C294.578 137.714 293.878 137.414 293.253 137.664C293.178 137.689 291.503 138.289 290.128 136.964C289.653 136.489 288.878 136.514 288.403 136.989C287.928 137.464 287.953 138.239 288.428 138.714C289.703 139.939 291.128 140.264 292.228 140.264V140.239Z" fill="#231815"/>
<path d="M295.927 148.964L289.602 182.264L279.302 172.664L287.727 144.489L295.927 148.964Z" fill="#8CC220"/>
<path d="M289.001 182.915L278.701 173.315C278.451 173.09 278.351 172.74 278.451 172.415L286.851 144.265C286.926 144.015 287.101 143.815 287.351 143.715C287.601 143.615 287.876 143.64 288.101 143.765L296.301 148.215C296.626 148.39 296.826 148.765 296.751 149.14L290.451 182.44C290.401 182.765 290.176 183.015 289.851 183.115C289.751 183.14 289.676 183.165 289.576 183.165C289.351 183.165 289.151 183.09 288.976 182.915H289.001ZM288.251 145.79L280.301 172.39L289.026 180.54L294.926 149.44L288.251 145.815V145.79Z" fill="#231815"/>
<path d="M290.802 147.94C290.802 147.94 288.402 144.69 284.977 146.39C281.552 148.09 280.852 148.615 279.302 147.765C277.752 146.915 273.802 141.415 273.802 141.415C273.802 141.415 269.177 143.64 267.802 145.54C266.427 147.44 266.952 151.215 271.927 155.665C276.902 160.14 282.577 159.615 286.677 157.39C290.802 155.165 292.852 150.515 290.802 147.94Z" fill="#DAE000"/>
<path d="M271.352 156.315C265.777 151.315 265.577 147.115 267.102 145.015C268.552 143.015 272.952 140.865 273.452 140.615C273.827 140.415 274.302 140.54 274.552 140.89C276.027 142.94 278.752 146.44 279.752 146.99C280.677 147.49 280.927 147.44 283.702 146.04L284.577 145.59C287.802 143.965 290.502 146.04 291.502 147.39C292.377 148.49 292.677 149.99 292.352 151.59C291.827 154.165 289.802 156.665 287.102 158.14C284.902 159.34 282.627 159.915 280.377 159.915C277.152 159.915 274.002 158.69 271.327 156.315H271.352ZM285.352 147.19L284.477 147.64C281.727 149.04 280.677 149.565 278.877 148.54C277.477 147.765 274.727 144.14 273.552 142.54C272.027 143.34 269.402 144.865 268.527 146.065C267.352 147.69 268.127 151.09 272.527 155.015C278.202 160.115 284.027 157.84 286.277 156.615C288.527 155.39 290.227 153.29 290.652 151.24C290.802 150.465 290.852 149.365 290.127 148.49C290.127 148.49 288.852 146.79 287.002 146.79C286.502 146.79 285.952 146.915 285.377 147.19H285.352Z" fill="#231815"/>
<path d="M292.303 123.09C292.303 123.09 295.578 134.315 297.128 133.715C298.678 133.115 296.728 127.265 296.728 127.265C296.728 127.265 298.478 134.49 300.828 135.265C303.178 136.04 302.978 132.74 302.978 132.74L303.553 146.79L312.778 146.965C312.778 146.965 320.928 136.465 319.553 130.79C318.178 125.14 314.878 119.865 308.228 121.415C305.503 118.69 301.203 118.69 297.303 118.89C293.403 119.09 291.728 119.465 292.278 123.09H292.303Z" fill="#675B4C"/>
<path d="M312.776 147.84L303.551 147.665C303.076 147.665 302.701 147.29 302.701 146.815L302.251 136.14C301.826 136.29 301.276 136.34 300.576 136.115C299.701 135.815 298.926 134.94 298.276 133.815C298.101 134.14 297.826 134.39 297.451 134.54C297.126 134.665 296.751 134.64 296.426 134.465C294.626 133.565 292.376 126.365 291.476 123.315C291.476 123.29 291.476 123.24 291.476 123.19C291.226 121.49 291.426 120.34 292.076 119.515C293.076 118.29 294.976 118.115 297.326 117.99C301.226 117.79 305.601 117.815 308.576 120.44C314.351 119.315 318.651 122.99 320.476 130.565C321.926 136.565 313.876 147.04 313.551 147.465C313.376 147.69 313.126 147.815 312.851 147.815L312.776 147.84ZM308.451 122.29C308.151 122.34 307.851 122.29 307.626 122.065C305.176 119.615 301.201 119.59 297.351 119.79C295.576 119.89 293.926 120.015 293.376 120.665C293.051 121.065 292.976 121.79 293.126 122.915C294.251 126.815 295.901 131.19 296.826 132.54C296.876 131.94 296.726 130.84 296.451 129.615C296.151 128.665 295.951 127.89 295.851 127.515C295.751 127.065 296.001 126.59 296.451 126.465C296.901 126.315 297.376 126.59 297.526 127.04C297.751 127.69 297.976 128.465 298.176 129.265C298.951 131.64 300.101 134.165 301.076 134.49C301.276 134.565 301.526 134.615 301.651 134.49C301.951 134.265 302.076 133.44 302.051 132.89V132.815C302.051 132.34 302.401 131.915 302.876 131.89C303.401 131.84 303.776 132.24 303.801 132.715C303.801 132.74 303.801 132.79 303.801 132.84L304.351 145.94L312.301 146.09C314.626 142.99 319.651 135.165 318.651 131.015C317.801 127.515 315.651 122.04 310.401 122.04C309.776 122.04 309.101 122.115 308.376 122.29H308.451Z" fill="#231815"/>
<path d="M250.703 159.79C250.703 159.79 251.078 156.565 248.003 155.665C244.928 154.765 241.178 157.865 241.428 160.44C241.678 163.015 243.628 164.69 243.628 164.69L250.703 159.79Z" fill="#FDE4C3"/>
<path d="M243.053 165.34C243.053 165.34 240.853 163.39 240.553 160.515C240.403 159.065 241.203 157.465 242.678 156.24C244.353 154.865 246.478 154.315 248.228 154.815C251.228 155.69 251.728 158.515 251.553 159.89C251.528 160.14 251.378 160.365 251.178 160.515L244.103 165.415C243.953 165.515 243.778 165.565 243.603 165.565C243.403 165.565 243.203 165.49 243.028 165.34H243.053ZM247.753 156.515C246.303 156.09 244.778 156.79 243.803 157.59C242.803 158.415 242.228 159.49 242.303 160.34C242.453 161.79 243.228 162.915 243.728 163.515L249.828 159.29C249.828 158.565 249.553 157.015 247.728 156.49L247.753 156.515Z" fill="#231815"/>
<path d="M279.85 217.215C279.85 217.215 283.625 238.34 283.1 239.015C282.575 239.69 272.8 240.39 271.425 240.39C270.05 240.39 265.075 238.165 265.075 238.165L264.9 218.415L279.825 217.215H279.85Z" fill="#615F5F"/>
<path d="M264.725 238.965C264.4 238.815 264.2 238.515 264.2 238.165L264.025 218.415C264.025 217.965 264.375 217.565 264.825 217.54L279.75 216.34C280.2 216.29 280.6 216.615 280.675 217.065C284.525 238.565 284.05 239.165 283.775 239.54C282.8 240.84 271.5 241.265 271.4 241.265C269.925 241.265 265.55 239.34 264.7 238.965H264.725ZM279.125 218.14L265.8 219.215L265.95 237.565C267.925 238.44 270.675 239.49 271.425 239.49C273.1 239.49 280.475 238.89 282.275 238.415C282.2 236.09 280.4 225.315 279.125 218.14Z" fill="#231815"/>
<path d="M254.178 212.915C253.803 210.94 253.753 208.965 253.753 208.965L281.903 212.915L281.053 218.415C281.053 218.415 277.978 219.14 269.803 219.94C269.303 223.515 266.903 240.59 266.278 240.74C265.603 240.915 259.928 242.465 258.728 242.29C257.528 242.115 249.453 238.69 248.778 238.34C248.128 238.015 253.453 215.965 254.178 212.94V212.915Z" fill="#6A6969"/>
<path d="M258.602 243.14C257.202 242.94 248.977 239.415 248.377 239.115C247.577 238.715 247.077 238.465 253.277 212.89C252.927 210.94 252.877 209.065 252.877 208.99C252.877 208.74 252.977 208.49 253.177 208.315C253.377 208.14 253.627 208.065 253.877 208.09L282.027 212.04C282.252 212.065 282.477 212.19 282.602 212.39C282.752 212.59 282.802 212.815 282.752 213.04L281.902 218.54C281.852 218.89 281.577 219.165 281.227 219.265C281.102 219.29 278.177 219.99 270.552 220.74C267.677 241.265 267.227 241.39 266.477 241.59L266.102 241.69C262.177 242.715 259.977 243.165 258.927 243.165C258.802 243.165 258.677 243.165 258.602 243.165V243.14ZM268.927 219.815C268.977 219.415 269.302 219.09 269.702 219.065C275.777 218.49 279.027 217.915 280.252 217.69L280.877 213.69L254.677 210.015C254.727 210.74 254.827 211.765 255.027 212.79C255.027 212.915 255.027 213.04 255.027 213.165C252.427 223.915 249.827 235.365 249.602 237.79C251.527 238.64 257.977 241.315 258.852 241.44C259.127 241.465 260.327 241.415 265.677 240.015C266.177 238.34 267.452 230.465 268.927 219.84V219.815Z" fill="#231815"/>
<path d="M289.801 211.19C289.801 211.19 291.001 214.44 288.426 215.815C285.851 217.19 282.251 217.365 281.551 213.59C280.851 209.815 286.026 209.29 289.801 211.19Z" fill="#FDE4C3"/>
<path d="M283.052 217.165C282.177 216.74 281.077 215.815 280.702 213.765C280.427 212.29 280.877 211.04 281.977 210.24C283.802 208.865 287.252 208.94 290.202 210.415C290.402 210.515 290.552 210.69 290.627 210.89C291.127 212.265 291.427 215.24 288.852 216.615C287.602 217.29 286.327 217.615 285.177 217.615C284.402 217.615 283.677 217.465 283.077 217.165H283.052ZM283.002 211.64C282.452 212.04 282.277 212.64 282.427 213.465C282.627 214.515 283.077 215.24 283.827 215.59C284.877 216.09 286.477 215.89 288.027 215.065C289.502 214.265 289.252 212.565 289.077 211.84C286.827 210.84 284.227 210.74 283.027 211.64H283.002Z" fill="#231815"/>
<path d="M285.153 183.041C285.153 183.041 289.778 186.291 290.978 199.866C292.178 213.441 290.628 212.216 288.753 212.566C286.878 212.916 279.478 212.041 279.478 212.041C279.478 212.041 279.828 187.491 279.653 185.616C279.478 183.741 282.578 180.991 285.153 183.041Z" fill="#AFAFB0"/>
<path d="M279.403 212.941C278.953 212.891 278.628 212.516 278.628 212.066C278.753 203.591 278.928 187.191 278.803 185.716C278.678 184.366 279.678 182.791 281.178 181.966C282.703 181.141 284.353 181.291 285.703 182.366C286.153 182.691 290.703 186.391 291.878 199.816C292.928 211.816 291.978 213.116 289.378 213.391C289.228 213.391 289.078 213.416 288.928 213.441C288.578 213.516 288.028 213.541 287.403 213.541C284.653 213.541 280.028 213.016 279.378 212.941H279.403ZM284.603 183.741C283.603 182.941 282.628 183.166 282.003 183.516C281.053 184.016 280.478 184.966 280.528 185.541C280.678 187.291 280.428 206.966 280.378 211.266C282.778 211.516 287.303 211.941 288.603 211.691C288.803 211.666 288.978 211.641 289.178 211.616C290.153 211.516 291.153 211.391 290.128 199.941C289.003 187.141 284.728 183.816 284.653 183.766H284.628L284.603 183.741Z" fill="#231815"/>
<path d="M283.104 182.365L283.954 215.14L261.304 217.215L251.004 207.59L259.754 178.765L283.104 182.365Z" fill="#E8E8E8"/>
<path d="M260.704 217.841L250.404 208.241C250.154 208.016 250.054 207.666 250.154 207.341L258.904 178.491C259.029 178.066 259.454 177.816 259.879 177.866L283.229 181.466C283.654 181.541 283.954 181.891 283.979 182.316L284.829 215.091C284.829 215.566 284.479 215.941 284.029 215.991L261.379 218.041C261.379 218.041 261.329 218.041 261.304 218.041C261.079 218.041 260.879 217.966 260.704 217.791V217.841ZM282.254 183.116L260.379 179.741L252.004 207.316L261.604 216.291L283.054 214.341L282.229 183.116H282.254Z" fill="#231815"/>
<path d="M264.001 158.04L258.201 177.34L268.101 182.865L284.501 181.915L289.551 162.14L282.326 158.515L264.001 158.04Z" fill="#FDE4C3"/>
<path d="M267.677 183.641L257.802 178.091C257.452 177.891 257.277 177.466 257.377 177.066L263.152 157.766C263.277 157.391 263.702 157.141 264.027 157.141L282.352 157.616C282.477 157.616 282.602 157.641 282.727 157.716L289.952 161.341C290.327 161.516 290.527 161.941 290.402 162.341L285.327 182.116C285.227 182.491 284.902 182.741 284.527 182.766L268.127 183.741C268.127 183.741 268.102 183.741 268.077 183.741C267.927 183.741 267.777 183.691 267.652 183.641H267.677ZM288.527 162.616L282.102 159.391L264.652 158.941L259.252 176.916L268.302 181.991L283.802 181.066L288.527 162.616Z" fill="#231815"/>
<path d="M263.476 164.315L265.176 165.04L263.726 169.765L262.026 168.815L263.476 164.315Z" fill="#231815"/>
<path d="M263.927 175.165C265.002 175.165 265.802 174.865 265.852 174.84C266.477 174.59 266.777 173.89 266.527 173.265C266.277 172.64 265.577 172.34 264.952 172.59C264.877 172.615 263.202 173.215 261.827 171.89C261.327 171.415 260.577 171.44 260.102 171.915C259.627 172.39 259.652 173.165 260.127 173.64C261.402 174.865 262.827 175.19 263.927 175.19V175.165Z" fill="#231815"/>
<path d="M267.604 183.915L261.304 217.215L251.004 207.59L259.429 179.44L267.604 183.915Z" fill="#AFAFB0"/>
<path d="M260.704 217.84L250.404 208.24C250.154 208.015 250.054 207.665 250.154 207.34L258.554 179.19C258.629 178.94 258.804 178.74 259.054 178.64C259.304 178.54 259.579 178.565 259.804 178.69L268.004 183.165C268.329 183.34 268.529 183.715 268.454 184.09L262.154 217.39C262.104 217.715 261.879 217.965 261.554 218.065C261.454 218.09 261.379 218.115 261.279 218.115C261.054 218.115 260.854 218.04 260.679 217.865L260.704 217.84ZM259.954 180.74L252.004 207.34L260.729 215.49L266.629 184.39L259.954 180.74Z" fill="#231815"/>
<path d="M262.028 181.54C262.028 181.54 253.403 160.29 251.728 158.765C250.053 157.24 242.328 161.465 242.453 163.79C242.578 166.115 253.778 188.24 256.478 190.565C259.178 192.89 264.728 188.365 262.003 181.565L262.028 181.54Z" fill="#E8E8E8"/>
<path d="M255.928 191.215C253.078 188.79 241.728 166.365 241.578 163.815C241.453 161.715 244.853 159.54 246.878 158.59C248.353 157.89 251.028 156.915 252.328 158.115C254.053 159.715 261.403 177.64 262.853 181.215C264.653 185.765 263.128 189.49 260.803 191.14C259.953 191.74 259.053 192.04 258.178 192.04C257.303 192.04 256.578 191.765 255.928 191.215ZM251.128 159.415C250.903 159.215 249.678 159.24 247.628 160.19C244.953 161.44 243.303 163.14 243.328 163.74C243.478 165.865 254.578 187.765 257.053 189.89C257.878 190.59 258.978 190.265 259.753 189.715C261.528 188.465 262.653 185.54 261.203 181.865C257.078 171.69 252.128 160.365 251.128 159.39V159.415Z" fill="#231815"/>
<path d="M263.179 157.865C263.179 157.865 268.654 163.14 268.654 167.415C268.654 171.715 268.454 172.69 268.454 172.69C268.454 172.69 270.804 166.64 272.354 169.565C273.904 172.49 273.129 176.39 269.429 176.19C274.104 178.34 276.654 178.54 280.154 178.34C283.654 178.14 284.829 178.915 286.604 175.415C288.379 171.915 292.254 164.69 290.704 162.34C289.154 159.99 284.454 156.49 281.929 153.94C279.404 151.39 277.629 152.39 277.629 153.94C277.629 153.94 273.929 151.215 271.179 151.99C268.429 152.765 269.029 154.34 269.029 154.34C269.029 154.34 267.279 152.59 264.529 153.165C261.779 153.74 262.179 156.49 263.154 157.84L263.179 157.865Z" fill="#675B4C"/>
<path d="M269.052 177.014C268.677 176.839 268.452 176.415 268.552 176.015C268.652 175.615 268.952 175.314 269.452 175.339C270.527 175.414 271.277 175.065 271.752 174.315C272.427 173.265 272.352 171.464 271.552 169.989C271.427 169.764 271.352 169.69 271.352 169.665C270.877 169.79 269.877 171.414 269.252 173.014C269.077 173.439 268.627 173.664 268.202 173.539C267.777 173.414 267.502 172.989 267.577 172.539C267.577 172.489 267.752 171.49 267.752 167.44C267.752 163.565 262.602 158.565 262.552 158.515C262.502 158.49 262.477 158.439 262.452 158.389C261.727 157.389 261.252 155.739 261.777 154.339C262.052 153.614 262.727 152.665 264.327 152.34C266.052 151.965 267.452 152.389 268.377 152.864C268.802 152.089 269.652 151.539 270.902 151.164C273.077 150.539 275.677 151.764 277.077 152.589C277.327 152.189 277.677 151.89 278.102 151.715C278.827 151.415 280.377 151.239 282.477 153.339C283.377 154.239 284.577 155.29 285.827 156.365C288.027 158.29 290.327 160.264 291.377 161.864C292.952 164.239 290.602 169.364 287.802 174.864L287.327 175.814C285.727 179.014 284.327 179.164 281.827 179.189C281.327 179.189 280.777 179.189 280.152 179.239C279.502 179.264 278.877 179.289 278.252 179.289C275.352 179.289 272.877 178.789 269.002 177.014H269.052ZM278.802 153.339C278.502 153.464 278.477 153.814 278.477 153.964C278.477 154.289 278.302 154.589 278.002 154.739C277.702 154.889 277.352 154.865 277.077 154.665C276.127 153.99 273.277 152.314 271.402 152.839C270.027 153.239 269.777 153.79 269.827 154.04C269.977 154.415 269.827 154.864 269.477 155.089C269.127 155.314 268.677 155.264 268.377 154.989C268.327 154.939 266.877 153.589 264.677 154.064C264.002 154.214 263.577 154.514 263.377 154.989C263.102 155.689 263.377 156.689 263.802 157.314C264.477 157.964 269.477 163.04 269.477 167.44C269.477 168.015 269.477 168.514 269.477 168.989C270.002 168.389 270.577 167.939 271.227 167.914C271.777 167.914 272.502 168.089 273.077 169.189C274.177 171.264 274.227 173.665 273.202 175.29C272.902 175.74 272.527 176.139 272.102 176.414C275.102 177.514 277.177 177.639 280.052 177.489C280.702 177.464 281.302 177.44 281.802 177.44C283.977 177.44 284.552 177.439 285.752 175.039L286.227 174.089C287.677 171.239 291.052 164.564 289.902 162.839C288.977 161.464 286.777 159.539 284.677 157.689C283.402 156.589 282.202 155.514 281.252 154.564C280.277 153.589 279.527 153.264 279.052 153.264C278.952 153.264 278.852 153.264 278.777 153.314L278.802 153.339Z" fill="#231815"/>
<path d="M228.427 220.54C228.427 220.54 232.202 241.665 231.677 242.34C231.152 243.015 221.377 243.715 220.002 243.715C218.627 243.715 213.652 241.49 213.652 241.49L213.477 221.74L228.402 220.54H228.427Z" fill="#615F5F"/>
<path d="M213.303 242.29C212.978 242.14 212.778 241.84 212.778 241.49L212.603 221.74C212.603 221.29 212.953 220.89 213.403 220.865L228.328 219.665C228.778 219.615 229.178 219.94 229.253 220.39C233.103 241.89 232.628 242.49 232.353 242.865C231.378 244.165 220.078 244.59 219.978 244.59C218.503 244.59 214.128 242.665 213.278 242.29H213.303ZM227.703 221.49L214.378 222.565L214.528 240.915C216.503 241.79 219.253 242.84 220.003 242.84C221.678 242.84 229.053 242.24 230.853 241.765C230.778 239.44 228.978 228.665 227.703 221.49Z" fill="#231815"/>
<path d="M202.755 216.265C202.38 214.29 202.33 212.315 202.33 212.315L230.48 216.265L229.63 221.765C229.63 221.765 226.555 222.49 218.38 223.29C217.88 226.865 215.48 243.94 214.855 244.09C214.18 244.265 208.505 245.815 207.305 245.64C206.105 245.465 198.03 242.04 197.355 241.69C196.705 241.365 202.03 219.315 202.755 216.29V216.265Z" fill="#6A6969"/>
<path d="M207.178 246.464C205.803 246.264 197.553 242.739 196.953 242.439C196.153 242.039 195.653 241.789 201.853 216.239C201.503 214.289 201.453 212.414 201.453 212.339C201.453 212.089 201.553 211.839 201.753 211.664C201.953 211.489 202.203 211.414 202.453 211.439L230.603 215.389C230.828 215.414 231.053 215.539 231.178 215.739C231.328 215.939 231.378 216.164 231.328 216.389L230.478 221.889C230.428 222.239 230.153 222.514 229.803 222.614C229.678 222.639 226.753 223.339 219.128 224.089C216.253 244.614 215.803 244.739 215.053 244.939L214.628 245.039C210.753 246.064 208.553 246.514 207.503 246.514C207.378 246.514 207.253 246.514 207.178 246.514V246.464ZM217.503 223.139C217.553 222.739 217.878 222.414 218.278 222.389C224.353 221.814 227.603 221.239 228.828 221.014L229.453 217.014L203.253 213.339C203.303 214.064 203.428 215.089 203.603 216.114C203.603 216.239 203.603 216.364 203.603 216.489C201.003 227.239 198.403 238.689 198.178 241.089C200.103 241.939 206.553 244.614 207.428 244.739C207.678 244.764 208.878 244.739 214.203 243.339H214.253C214.753 241.664 216.028 233.789 217.503 223.164V223.139Z" fill="#231815"/>
<path d="M238.379 214.54C238.379 214.54 239.579 217.79 237.004 219.165C234.429 220.54 230.829 220.715 230.129 216.94C229.454 213.165 234.604 212.64 238.379 214.54Z" fill="#FDE4C3"/>
<path d="M231.628 220.489C230.753 220.064 229.653 219.139 229.278 217.089C229.003 215.614 229.453 214.364 230.553 213.564C232.378 212.189 235.828 212.264 238.778 213.739C238.978 213.839 239.128 214.014 239.203 214.214C239.703 215.589 239.978 218.564 237.428 219.939C236.178 220.614 234.903 220.939 233.753 220.939C232.978 220.939 232.278 220.789 231.653 220.489H231.628ZM231.603 214.964C231.053 215.364 230.878 215.964 231.028 216.764C231.228 217.814 231.678 218.539 232.428 218.889C233.478 219.389 235.078 219.189 236.628 218.364C238.103 217.564 237.853 215.864 237.678 215.139C235.428 214.139 232.828 214.039 231.628 214.939L231.603 214.964Z" fill="#231815"/>
<path d="M233.751 186.389C233.751 186.389 238.376 189.639 239.576 203.214C240.776 216.764 239.226 215.564 237.351 215.914C235.476 216.264 228.076 215.389 228.076 215.389C228.076 215.389 228.426 190.839 228.251 188.964C228.076 187.089 231.176 184.339 233.751 186.389Z" fill="#8D4C81"/>
<path d="M227.977 216.265C227.527 216.215 227.202 215.84 227.202 215.39C227.327 206.915 227.502 190.515 227.377 189.04C227.252 187.69 228.252 186.115 229.752 185.29C231.277 184.465 232.927 184.615 234.277 185.69C234.727 186.015 239.277 189.715 240.452 203.14C241.527 215.14 240.552 216.44 237.952 216.715C237.802 216.715 237.652 216.74 237.502 216.765C237.152 216.84 236.602 216.865 235.977 216.865C233.227 216.865 228.602 216.34 227.952 216.265H227.977ZM233.202 187.065C232.202 186.265 231.227 186.49 230.602 186.84C229.652 187.34 229.077 188.29 229.127 188.865C229.277 190.615 229.027 210.29 228.977 214.59C231.377 214.84 235.927 215.24 237.202 215.015C237.402 214.99 237.577 214.965 237.777 214.94C238.752 214.84 239.727 214.715 238.727 203.265C237.602 190.415 233.302 187.115 233.252 187.09H233.227L233.202 187.065Z" fill="#231815"/>
<path d="M193.927 180.714C193.927 180.714 193.927 178.314 190.152 178.314C186.377 178.314 184.652 182.939 187.752 185.864C190.852 188.789 193.927 180.714 193.927 180.714Z" fill="#FDE4C3"/>
<path d="M187.153 186.515C185.403 184.865 184.828 182.54 185.628 180.49C186.378 178.615 188.103 177.465 190.153 177.465C194.753 177.465 194.803 180.715 194.803 180.74C194.803 180.84 194.803 180.965 194.753 181.065C194.528 181.64 192.503 186.715 189.753 187.34C189.578 187.39 189.378 187.415 189.153 187.415C188.578 187.415 187.853 187.215 187.153 186.54V186.515ZM190.153 179.19C188.828 179.19 187.753 179.915 187.278 181.115C186.853 182.19 186.903 183.84 188.378 185.215C188.828 185.64 189.153 185.64 189.378 185.59C190.653 185.29 192.253 182.565 193.053 180.59C192.978 180.19 192.528 179.19 190.178 179.19H190.153Z" fill="#231815"/>
<path d="M231.678 185.69L232.553 218.49L209.878 220.54L199.578 210.915L208.353 182.09L231.678 185.69Z" fill="#B565A5"/>
<path d="M209.278 221.19L198.978 211.565C198.728 211.34 198.628 210.99 198.728 210.665L207.478 181.84C207.603 181.415 208.003 181.165 208.453 181.215L231.803 184.815C232.228 184.89 232.528 185.24 232.553 185.665L233.403 218.44C233.403 218.915 233.053 219.29 232.603 219.34L209.953 221.39C209.953 221.39 209.903 221.39 209.878 221.39C209.653 221.39 209.453 221.315 209.278 221.14V221.19ZM230.828 186.44L208.953 183.065L200.578 210.64L210.178 219.615L231.628 217.665L230.803 186.44H230.828Z" fill="#231815"/>
<path d="M212.58 161.365L206.805 180.665L216.68 186.215L233.08 185.24L238.155 165.465L230.905 161.865L212.58 161.365Z" fill="#FDE4C3"/>
<path d="M216.254 186.965L206.379 181.415C206.029 181.215 205.854 180.79 205.954 180.39L211.729 161.09C211.854 160.715 212.254 160.415 212.604 160.465L230.929 160.94C231.054 160.94 231.179 160.965 231.304 161.04L238.529 164.665C238.904 164.84 239.104 165.265 238.979 165.665L233.904 185.44C233.804 185.815 233.479 186.065 233.104 186.09L216.704 187.065C216.704 187.065 216.679 187.065 216.654 187.065C216.504 187.065 216.354 187.015 216.229 186.94L216.254 186.965ZM237.129 165.94L230.704 162.74L213.254 162.29L207.854 180.265L216.904 185.34L232.404 184.415L237.129 165.94Z" fill="#231815"/>
<path d="M212.054 167.64L213.754 168.365L212.304 173.115L210.604 172.14L212.054 167.64Z" fill="#231815"/>
<path d="M212.528 178.515C213.603 178.515 214.403 178.215 214.453 178.19C215.078 177.94 215.378 177.24 215.128 176.615C214.878 175.99 214.178 175.689 213.553 175.939C213.478 175.964 211.803 176.565 210.428 175.24C209.928 174.765 209.178 174.79 208.703 175.265C208.228 175.74 208.253 176.515 208.728 176.99C210.003 178.215 211.428 178.54 212.528 178.54V178.515Z" fill="#231815"/>
<path d="M216.203 187.241L209.878 220.541L199.578 210.916L208.003 182.766L216.203 187.241Z" fill="#8D4C81"/>
<path d="M209.278 221.19L198.978 211.565C198.728 211.34 198.628 210.99 198.728 210.665L207.128 182.515C207.203 182.265 207.403 182.065 207.628 181.965C207.878 181.865 208.153 181.89 208.378 182.015L216.578 186.49C216.903 186.665 217.103 187.04 217.028 187.415L210.728 220.715C210.678 221.04 210.453 221.29 210.128 221.39C210.028 221.415 209.953 221.44 209.853 221.44C209.628 221.44 209.428 221.365 209.253 221.19H209.278ZM208.528 184.065L200.578 210.665L209.303 218.815L215.203 187.715L208.528 184.09V184.065Z" fill="#231815"/>
<path d="M211.078 186.215C211.078 186.215 208.678 182.965 205.253 184.665C201.828 186.365 201.128 186.89 199.578 186.04C198.028 185.19 194.078 179.69 194.078 179.69C194.078 179.69 189.453 181.915 188.078 183.815C186.703 185.715 187.228 189.49 192.203 193.94C197.178 198.415 202.853 197.89 206.953 195.665C211.078 193.44 213.128 188.79 211.078 186.215Z" fill="#B565A5"/>
<path d="M191.628 194.59C186.053 189.59 185.853 185.39 187.378 183.29C188.828 181.29 193.228 179.14 193.728 178.89C194.103 178.69 194.578 178.815 194.828 179.165C196.303 181.215 199.028 184.715 200.028 185.265C200.953 185.79 201.203 185.715 203.978 184.315L204.878 183.865C208.103 182.24 210.803 184.34 211.803 185.665C212.678 186.765 212.978 188.265 212.653 189.84C212.128 192.415 210.103 194.915 207.403 196.39C205.203 197.59 202.928 198.165 200.678 198.165C197.453 198.165 194.303 196.94 191.628 194.565V194.59ZM205.653 185.44L204.753 185.89C202.003 187.29 200.978 187.815 199.153 186.79C197.753 186.015 195.003 182.39 193.828 180.79C192.303 181.565 189.678 183.115 188.803 184.315C187.628 185.94 188.403 189.34 192.803 193.265C198.478 198.365 204.303 196.09 206.553 194.865C208.803 193.64 210.503 191.54 210.928 189.49C211.078 188.715 211.128 187.64 210.403 186.74C210.328 186.665 209.103 185.065 207.253 185.065C206.753 185.065 206.228 185.19 205.653 185.465V185.44Z" fill="#231815"/>
<path d="M230.301 160.165C230.301 160.165 230.051 157.44 224.051 156.665C218.076 155.89 214.426 157.44 212.476 160.04C210.526 162.64 209.876 162.24 209.226 161.59C208.576 160.94 207.026 164.715 209.351 165.24C211.676 165.765 216.501 165.765 216.901 164.715C216.651 168.49 218.326 174.74 220.551 175.765C222.776 176.79 234.076 179.665 237.201 177.065C240.326 174.465 239.926 173.94 238.501 173.29C237.076 172.64 237.076 170.29 238.751 167.69C240.451 165.09 237.451 161.065 234.576 159.89C231.726 158.715 230.276 160.14 230.276 160.14L230.301 160.165Z" fill="#675B4C"/>
<path d="M220.176 176.566C217.776 175.441 216.201 170.041 216.026 166.166C213.826 166.716 210.276 166.341 209.176 166.091C208.101 165.841 207.401 165.066 207.276 163.941C207.151 162.791 207.676 161.191 208.576 160.766C209.026 160.541 209.526 160.641 209.876 160.966C210.051 161.141 210.126 161.191 210.126 161.191C210.126 161.191 210.576 161.116 211.801 159.491C213.476 157.266 216.976 154.841 224.201 155.766C228.401 156.316 230.076 157.816 230.751 158.891C231.626 158.541 233.051 158.316 234.951 159.091C237.126 159.991 239.201 162.241 239.901 164.441C240.326 165.841 240.201 167.141 239.526 168.191C238.426 169.891 238.226 171.241 238.426 171.941C238.501 172.216 238.651 172.416 238.876 172.516C239.426 172.766 240.326 173.166 240.451 174.116C240.576 175.066 239.876 176.016 237.776 177.766C236.676 178.691 234.801 179.016 232.676 179.016C227.826 179.016 221.626 177.241 220.201 176.591L220.176 176.566ZM238.726 174.441C238.726 174.441 238.576 174.316 238.126 174.091C237.426 173.766 236.951 173.191 236.701 172.416C236.301 171.016 236.776 169.116 238.001 167.216C238.401 166.616 238.451 165.841 238.176 164.941C237.651 163.216 235.951 161.416 234.251 160.716C232.026 159.816 230.951 160.741 230.901 160.791C230.676 161.016 230.326 161.066 230.026 160.991C229.701 160.891 229.476 160.616 229.426 160.291C229.426 160.291 229.001 158.191 223.926 157.541C218.876 156.891 215.151 157.941 213.176 160.591C211.951 162.216 211.101 162.916 210.201 162.991C209.776 163.016 209.426 162.891 209.151 162.716C209.001 163.066 208.901 163.566 209.026 163.941C209.101 164.191 209.251 164.341 209.551 164.391C211.876 164.916 215.576 164.766 216.076 164.416C216.226 164.016 216.651 163.766 217.076 163.866C217.501 163.966 217.801 164.341 217.776 164.791C217.501 168.591 219.251 174.216 220.926 174.991C223.251 176.091 234.001 178.616 236.651 176.416C238.376 174.966 238.651 174.466 238.751 174.466L238.726 174.441Z" fill="#231815"/>
<path d="M43.2518 118.689L54.7268 112.414L42.4268 109.789L43.2518 118.689Z" fill="#474342"/>
<path d="M43.2516 119.69C43.1016 119.69 42.9266 119.64 42.7766 119.565C42.4766 119.415 42.2766 119.115 42.2516 118.765L41.4016 109.865C41.3766 109.54 41.5016 109.24 41.7266 109.015C41.9766 108.79 42.3016 108.715 42.6016 108.79L54.9266 111.415C55.3266 111.515 55.6516 111.84 55.7016 112.24C55.7516 112.665 55.5516 113.065 55.1766 113.265L43.7016 119.515C43.5516 119.59 43.3766 119.64 43.2266 119.64L43.2516 119.69ZM43.5516 111.065L44.1266 117.09L51.9016 112.865L43.5766 111.09L43.5516 111.065Z" fill="#231815"/>
<path d="M116.304 141.464L127.779 135.214L115.454 132.564L116.304 141.464Z" fill="#474342"/>
<path d="M116.304 142.464C116.154 142.464 115.979 142.414 115.829 142.339C115.529 142.189 115.329 141.889 115.304 141.539L114.454 132.639C114.429 132.314 114.554 132.014 114.779 131.789C115.029 131.564 115.354 131.489 115.654 131.564L127.979 134.214C128.379 134.314 128.704 134.639 128.754 135.039C128.804 135.464 128.604 135.864 128.229 136.064L116.754 142.314C116.604 142.389 116.429 142.439 116.279 142.439L116.304 142.464ZM116.579 133.839L117.154 139.864L124.929 135.639L116.579 133.864V133.839Z" fill="#231815"/>
<path d="M152.629 62.7388L143.954 28.3638L82.1285 12.9888L14.9035 35.4138L17.4285 57.2388L5.35352 60.2638L9.55352 98.4138L133.504 140.214L188.379 116.364L187.029 72.3888L152.629 62.7388Z" fill="white"/>
<path d="M133.503 141.214C133.503 141.214 133.278 141.214 133.178 141.164L9.22773 99.3641C8.85273 99.2391 8.60272 98.9141 8.55272 98.5141L4.35272 60.3641C4.30273 59.8641 4.62773 59.4141 5.10273 59.2891L16.3277 56.4891L13.9027 35.5141C13.8527 35.0391 14.1277 34.5891 14.5777 34.4391L81.8027 12.0141C81.9777 11.9641 82.1777 11.9391 82.3527 12.0141L144.153 27.3891C144.503 27.4891 144.803 27.7641 144.878 28.1141L153.428 61.9141L187.253 71.4141C187.678 71.5391 187.978 71.9141 187.978 72.3391L189.353 116.314C189.353 116.714 189.128 117.114 188.753 117.264L133.878 141.114C133.753 141.164 133.628 141.189 133.478 141.189L133.503 141.214ZM10.4777 97.6641L133.453 139.114L187.353 115.689L186.028 73.1391L152.353 63.6891C152.003 63.5891 151.728 63.3141 151.653 62.9641L143.128 29.1891L82.1777 14.0391L16.0027 36.1141L18.4277 57.1391C18.4777 57.6391 18.1527 58.1141 17.6777 58.2141L6.45272 61.0141L10.4777 97.6641Z" fill="#231815"/>
<path d="M143.953 28.3647L88.0781 51.6398L98.4781 86.3398L152.628 62.7397L143.953 28.3647Z" fill="#6A6969"/>
<path d="M98.479 87.3393C98.329 87.3393 98.204 87.3143 98.054 87.2393C97.804 87.1143 97.604 86.8893 97.529 86.6143L87.104 51.9393C86.954 51.4393 87.204 50.9143 87.679 50.7143L143.554 27.4393C143.829 27.3393 144.129 27.3393 144.379 27.4643C144.629 27.5893 144.829 27.8393 144.904 28.1143L153.579 62.4893C153.704 62.9643 153.454 63.4643 153.004 63.6643L98.854 87.2643C98.729 87.3143 98.579 87.3393 98.454 87.3393H98.479ZM89.304 52.2393L99.129 84.9643L151.454 62.1643L143.254 29.7643L89.279 52.2393H89.304Z" fill="#231815"/>
<path d="M188.381 116.363L133.506 140.213L131.131 98.4882L187.031 72.3882L188.381 116.363Z" fill="#595757"/>
<path d="M133.504 141.214C133.329 141.214 133.129 141.164 132.979 141.064C132.704 140.889 132.529 140.589 132.504 140.264L130.129 98.5387C130.129 98.1387 130.329 97.7387 130.704 97.5637L186.604 71.4637C186.904 71.3137 187.279 71.3387 187.554 71.5137C187.829 71.6887 188.029 71.9887 188.029 72.3387L189.404 116.314C189.404 116.714 189.179 117.114 188.804 117.264L133.929 141.114C133.804 141.164 133.654 141.189 133.529 141.189L133.504 141.214ZM132.154 99.1137L134.404 138.714L187.329 115.714L186.029 73.9387L132.129 99.1137H132.154Z" fill="#231815"/>
<path d="M133.504 140.214L131.129 98.4891L98.5535 88.7391L88.0785 51.6391L14.9035 35.4141L17.8535 62.6141L5.35352 60.2641L9.55352 98.4141L133.504 140.214Z" fill="#ACADAE"/>
<path d="M133.504 141.214C133.504 141.214 133.279 141.214 133.179 141.164L9.22931 99.3636C8.85431 99.2386 8.60431 98.9136 8.55431 98.5136L4.35431 60.3636C4.32931 60.0386 4.42931 59.7386 4.67931 59.5136C4.90431 59.2886 5.22931 59.1886 5.55431 59.2636L16.7293 61.3636L13.9043 35.4886C13.8793 35.1636 13.9793 34.8386 14.2293 34.6386C14.4793 34.4386 14.8043 34.3386 15.1043 34.4136L88.2793 50.6636C88.6293 50.7386 88.9293 51.0136 89.0293 51.3636L99.3543 87.9136L131.404 97.5136C131.804 97.6386 132.104 97.9886 132.129 98.4136L134.504 140.139C134.504 140.464 134.379 140.789 134.104 140.989C133.929 141.114 133.704 141.189 133.504 141.189V141.214ZM10.4793 97.6636L132.429 138.764L130.179 99.2386L98.2793 89.6886C97.9543 89.5886 97.7043 89.3386 97.6043 88.9886L87.2793 52.4886L16.0543 36.6886L18.8543 62.5136C18.8793 62.8386 18.7793 63.1386 18.5293 63.3636C18.3043 63.5886 17.9793 63.6636 17.6543 63.6136L6.47931 61.5136L10.4543 97.6886L10.4793 97.6636Z" fill="#231815"/>
<path d="M92.8543 86.5645L83.5043 55.1146L60.1543 50.0396L62.7293 77.0895L92.8543 86.5645Z" fill="#6A6969"/>
<path d="M92.8535 87.5643C92.8535 87.5643 92.6535 87.5643 92.5535 87.5143L62.4285 78.0393C62.0535 77.9143 61.7785 77.5892 61.7285 77.1892L59.1535 50.1393C59.1285 49.8143 59.2535 49.5143 59.4785 49.2893C59.7285 49.0643 60.0535 48.9893 60.3535 49.0643L83.6785 54.1643C84.0285 54.2393 84.3285 54.5142 84.4285 54.8642L93.8035 86.3143C93.9035 86.6643 93.8035 87.0643 93.5535 87.3143C93.3535 87.5143 93.1035 87.6143 92.8535 87.6143V87.5643ZM63.6785 76.3393L91.3785 85.0392L82.7285 55.9643L61.3035 51.2892L63.6785 76.3143V76.3393Z" fill="#231815"/>
<path d="M51.7027 76.0142L49.3777 48.2642L18.4277 40.8892L21.5777 66.5392L51.7027 76.0142Z" fill="#6A6969"/>
<path d="M51.7029 77.0139C51.7029 77.0139 51.5029 77.0139 51.4029 76.9639L21.2779 67.4889C20.9029 67.3639 20.6279 67.0389 20.5779 66.6639L17.4279 41.0139C17.3779 40.6889 17.5029 40.3639 17.7529 40.1389C18.0029 39.9139 18.3279 39.8389 18.6529 39.9139L49.6029 47.3139C50.0279 47.4139 50.3279 47.7639 50.3779 48.2139L52.7279 75.9389C52.7529 76.2639 52.6279 76.5889 52.3529 76.8139C52.1779 76.9639 51.9529 77.0389 51.7279 77.0389L51.7029 77.0139ZM22.5029 65.7639L50.5779 74.5889L48.4279 49.0639L19.6029 42.1889L22.5029 65.7639Z" fill="#231815"/>
<path d="M186.552 73.4648L171.577 81.6148L170.977 94.7398L186.327 85.9648L186.552 73.4648Z" fill="white"/>
<path d="M171.002 95.7646C170.827 95.7646 170.652 95.7146 170.477 95.6146C170.152 95.4146 169.977 95.0896 170.002 94.7146L170.602 81.5896C170.602 81.2396 170.827 80.9146 171.127 80.7646L186.077 72.6146C186.402 72.4396 186.777 72.4396 187.077 72.6146C187.377 72.7896 187.577 73.1396 187.552 73.4896L187.327 85.9896C187.327 86.3396 187.127 86.6646 186.827 86.8396L171.502 95.6146C171.352 95.7146 171.177 95.7396 171.002 95.7396V95.7646ZM172.552 82.2146L172.077 92.9646L185.327 85.3646L185.502 75.1646L172.552 82.2146Z" fill="#231815"/>
<path d="M148.553 92.4141L131.128 98.4891L132.203 112.289L148.503 104.589L148.553 92.4141Z" fill="white"/>
<path d="M132.204 113.289C132.029 113.289 131.854 113.239 131.704 113.164C131.429 112.989 131.229 112.714 131.204 112.364L130.129 98.5641C130.104 98.1141 130.379 97.6891 130.804 97.5391L148.229 91.4641C148.529 91.3641 148.879 91.4141 149.154 91.5891C149.429 91.7891 149.579 92.0891 149.579 92.4141L149.529 104.589C149.529 104.964 149.304 105.314 148.954 105.489L132.654 113.189C132.529 113.264 132.379 113.289 132.229 113.289H132.204ZM132.179 99.1891L133.079 110.764L147.504 103.964L147.554 93.8391L132.179 99.1891Z" fill="#231815"/>
<path d="M181.18 104.14L148.905 119.115L148.23 130.14L181.18 114.265V104.14Z" fill="white"/>
<path d="M148.229 131.14C148.029 131.14 147.829 131.09 147.679 130.965C147.379 130.765 147.204 130.415 147.229 130.065L147.904 119.065C147.904 118.69 148.154 118.365 148.479 118.215L180.729 103.215C181.054 103.065 181.404 103.09 181.679 103.29C181.979 103.465 182.154 103.79 182.154 104.14V114.29C182.154 114.665 181.929 115.015 181.579 115.19L148.654 131.04C148.529 131.115 148.379 131.14 148.229 131.14ZM149.879 119.79L149.354 128.49L180.179 113.64V105.69L149.879 119.765V119.79Z" fill="#231815"/>
<path d="M131.128 98.4897L146.703 76.2896L187.028 72.3896L131.128 98.4897Z" fill="#595757"/>
<path d="M131.129 99.4895C130.829 99.4895 130.554 99.3645 130.354 99.1395C130.054 98.7895 130.029 98.2894 130.304 97.9144L145.879 75.7144C146.054 75.4644 146.304 75.3145 146.604 75.2895L186.929 71.3645C187.454 71.3145 187.854 71.6394 188.004 72.0894C188.129 72.5644 187.904 73.0644 187.454 73.2644L131.554 99.3644C131.429 99.4394 131.279 99.4644 131.129 99.4644V99.4895ZM147.254 77.2394L134.104 95.9894L181.304 73.9394L147.254 77.2394Z" fill="#231815"/>
<path d="M6.57715 70.8389L131.552 109.739L133.502 140.214L9.55215 98.4139L6.57715 70.8389Z" fill="#666464"/>
<path d="M133.502 141.213C133.502 141.213 133.277 141.213 133.177 141.163L9.22697 99.3633C8.85197 99.2383 8.60197 98.9134 8.55197 98.5134L5.55197 70.9383C5.52697 70.6133 5.65197 70.2633 5.90197 70.0633C6.17697 69.8383 6.52697 69.7633 6.82697 69.8883L131.802 108.788C132.202 108.913 132.477 109.263 132.502 109.688L134.452 140.163C134.452 140.488 134.327 140.813 134.052 141.013C133.877 141.138 133.652 141.213 133.452 141.213H133.502ZM10.477 97.6633L132.402 138.763L130.577 110.463L7.72697 72.2383L10.477 97.6633Z" fill="#231815"/>
<path d="M86.5273 130.764L116.302 141.464L114.702 109.039L84.9023 98.3389L86.5273 130.764Z" fill="#474342"/>
<path d="M116.303 142.464C116.303 142.464 116.078 142.464 115.953 142.414L86.1777 131.714C85.8027 131.589 85.5277 131.214 85.5277 130.814L83.9277 98.3894C83.9277 98.0644 84.0527 97.7394 84.3277 97.5394C84.6027 97.3394 84.9527 97.2894 85.2527 97.3894L115.028 108.089C115.403 108.214 115.678 108.589 115.678 108.989L117.278 141.414C117.278 141.739 117.153 142.064 116.878 142.264C116.703 142.389 116.503 142.464 116.278 142.464H116.303ZM87.4777 130.039L115.228 140.014L113.728 109.764L85.9777 99.7894L87.4777 130.039Z" fill="#231815"/>
<path d="M95.1289 124.114L106.704 128.289L106.079 115.664L94.5039 111.514L95.1289 124.114Z" fill="white"/>
<path d="M106.704 129.29C106.704 129.29 106.479 129.29 106.354 129.24L94.7789 125.065C94.4039 124.94 94.1289 124.565 94.1289 124.165L93.5039 111.565C93.5039 111.24 93.6289 110.915 93.9039 110.715C94.1789 110.515 94.5289 110.465 94.8289 110.565L106.404 114.74C106.779 114.865 107.054 115.24 107.054 115.64L107.679 128.24C107.679 128.565 107.554 128.89 107.279 129.09C107.104 129.215 106.904 129.29 106.679 129.29H106.704ZM96.1039 123.415L105.654 126.84L105.129 116.39L95.5789 112.965L96.1039 123.415Z" fill="#231815"/>
<path d="M13.4799 107.963L43.2549 118.688L41.6549 86.2635L11.8799 75.5635L13.4799 107.963Z" fill="#474342"/>
<path d="M43.2539 119.688C43.2539 119.688 43.0289 119.688 42.9039 119.638L13.1289 108.938C12.7539 108.813 12.4789 108.438 12.4789 108.038L10.8789 75.6135C10.8789 75.2885 11.0039 74.9635 11.2789 74.7635C11.5539 74.5635 11.9039 74.5135 12.2039 74.6135L41.9789 85.3135C42.3539 85.4385 42.6289 85.8135 42.6289 86.2135L44.2289 118.638C44.2289 118.963 44.1039 119.288 43.8289 119.488C43.6539 119.613 43.4539 119.688 43.2289 119.688H43.2539ZM14.4539 107.263L42.2039 117.238L40.7039 86.9885L12.9539 77.0135L14.4539 107.263Z" fill="#231815"/>
<path d="M22.1045 101.338L33.6795 105.513L33.0545 92.8883L21.4795 88.7383L22.1045 101.338Z" fill="white"/>
<path d="M33.6785 106.513C33.6785 106.513 33.4535 106.513 33.3285 106.463L21.7535 102.288C21.3785 102.163 21.1035 101.788 21.1035 101.388L20.4785 88.7883C20.4785 88.4633 20.6035 88.1383 20.8785 87.9383C21.1535 87.7383 21.5035 87.6883 21.8285 87.7883L33.4035 91.9633C33.7785 92.0883 34.0535 92.4633 34.0535 92.8633L34.6785 105.463C34.6785 105.788 34.5535 106.113 34.2785 106.313C34.1035 106.438 33.9035 106.513 33.6785 106.513ZM23.0535 100.613L32.6035 104.038L32.0785 93.5883L22.5285 90.1633L23.0535 100.588V100.613Z" fill="#231815"/>
<path d="M41.4277 31.7646L81.8277 44.0146L121.003 28.1896L109.653 15.8646L79.8027 8.88965L43.5027 20.8646L41.4277 31.7646Z" fill="#EBEBEC"/>
<path d="M81.827 45.0399C81.827 45.0399 81.627 45.0399 81.527 44.9899L41.102 32.7149C40.602 32.5649 40.302 32.0649 40.402 31.5649L42.502 20.6899C42.577 20.3399 42.827 20.0399 43.177 19.9149L79.477 7.93991C79.652 7.88991 79.827 7.86491 80.027 7.93991L109.877 14.8899C110.077 14.9399 110.252 15.0399 110.377 15.1899L121.727 27.5149C121.952 27.7649 122.052 28.0899 121.977 28.4149C121.902 28.7399 121.677 28.9899 121.377 29.1149L82.202 44.9399C82.202 44.9399 81.952 45.0149 81.827 45.0149V45.0399ZM42.577 31.0649L81.777 42.9649L119.277 27.8149L109.127 16.7649L79.852 9.93991L44.377 21.6399L42.577 31.0649Z" fill="#231815"/>
<path d="M96.7277 4.48926L43.5527 22.9893L44.2027 28.9143L55.7027 31.7643L108.978 13.0393L107.903 9.28926L96.7277 4.48926Z" fill="#E94D27"/>
<path d="M55.7027 32.7638C55.7027 32.7638 55.5277 32.7638 55.4527 32.7388L43.9527 29.8888C43.5527 29.7888 43.2527 29.4388 43.2027 29.0138L42.5527 23.0888C42.5027 22.6138 42.7777 22.1888 43.2277 22.0388L96.4027 3.53881C96.6277 3.46381 96.9027 3.46382 97.1277 3.56382L108.303 8.36381C108.578 8.48881 108.778 8.71382 108.878 9.01382L109.953 12.7888C110.103 13.2888 109.828 13.8388 109.328 14.0138L56.0527 32.7388C56.0527 32.7388 55.8277 32.7888 55.7277 32.7888L55.7027 32.7638ZM45.1277 28.1138L55.6527 30.7138L107.753 12.4138L107.078 10.0138L96.6777 5.56381L44.6277 23.6638L45.1027 28.1138H45.1277Z" fill="#231815"/>
<path d="M77.8277 23.9389L76.6527 18.7389L67.3027 14.7139L79.0777 10.5889L88.9777 14.5389L90.0277 19.8139L77.8277 23.9389Z" fill="#C4000A"/>
<path d="M77.8275 24.9391C77.6525 24.9391 77.4775 24.8891 77.3275 24.8141C77.0775 24.6641 76.9025 24.4391 76.8275 24.1641L75.7775 19.4891L66.9025 15.6641C66.5275 15.4891 66.2775 15.1141 66.3025 14.7141C66.3275 14.3141 66.5775 13.9391 66.9775 13.8141L78.7525 9.68906C78.9775 9.61406 79.2275 9.61406 79.4525 9.68906L89.3525 13.6391C89.6775 13.7641 89.9025 14.0391 89.9525 14.3641L91.0025 19.6391C91.1025 20.1391 90.8275 20.6141 90.3525 20.7891L78.1525 24.9141C78.1525 24.9141 77.9275 24.9641 77.8275 24.9641V24.9391ZM70.0525 14.8141L77.0275 17.8391C77.3275 17.9641 77.5275 18.2141 77.6025 18.5391L78.5275 22.6391L88.8525 19.1641L88.0775 15.2891L79.0275 11.6641L70.0275 14.8141H70.0525Z" fill="#231815"/>
</svg>
