<svg width="769" height="110" viewBox="0 0 769 110" fill="none" xmlns="http://www.w3.org/2000/svg">
<path d="M113.842 55.5221C110.157 53.6003 109.104 50.2807 114.017 49.4072C131.389 45.9129 141.039 11.3196 117.351 8H54.1838L38.9183 63.9084L96.12 13.2415C97.3482 13.2415 98.4011 13.2414 99.4538 13.7656C101.735 15.338 100.507 19.7059 99.4538 21.9771L81.5563 81.0303C80.1526 85.0487 77.1698 85.3982 74.5378 84.5246C72.0813 83.6511 70.5021 81.0303 71.3795 78.0602C72.2568 74.9153 81.9073 43.6416 81.9073 43.6416L20.1436 101.821H92.0843C121.387 101.821 129.283 63.7337 114.017 55.5221H113.842Z" fill="white" stroke="white" stroke-width="15.79" stroke-miterlimit="10"/>
<path d="M185.428 62.5117C202.273 50.8059 202.623 26.8701 181.217 26.8701H148.58C143.316 26.8701 140.509 27.3943 138.403 34.0334C138.403 34.0334 127.7 70.3738 122.962 85.5739C118.576 100.425 116.295 101.648 122.611 101.648H145.071L163.846 38.9254C164.898 34.3828 167.355 32.9851 169.812 33.3346C172.093 33.3346 173.672 36.4794 172.093 41.3714C170.689 46.4381 154.897 101.822 154.897 101.822H181.041C199.641 62.5118 177.532 67.7531 185.252 62.5117H185.428Z" fill="white" stroke="white" stroke-width="15.79" stroke-miterlimit="10"/>
<path d="M231.228 26.5195H216.84C213.331 26.5195 210.875 28.092 209.822 31.5862C209.822 31.5862 196.486 78.06 193.328 88.1934C189.117 101.297 190.871 101.646 195.083 101.646H211.752C214.91 101.646 216.84 101.646 218.595 97.628C218.595 97.628 230.702 52.7265 234.211 40.4965C237.545 28.4413 235.966 26.5195 231.404 26.5195H231.228Z" fill="white" stroke="white" stroke-width="15.79" stroke-miterlimit="10"/>
<path d="M425.642 56.0493H403.533L408.446 38.7527H432.66C439.152 38.7527 444.943 25.2998 429.853 25.2998H401.427C396.164 25.2998 387.39 26.6974 384.407 37.355C381.249 48.886 373.353 78.238 373.353 78.238C370.019 93.4381 372.476 101.65 387.917 101.65H413.535C419.676 101.65 427.396 88.3714 415.289 88.3714H396.69L400.726 69.6771H418.448C427.396 69.6771 433.187 56.0493 425.466 56.0493H425.642Z" fill="white" stroke="white" stroke-width="15.79" stroke-miterlimit="10"/>
<path d="M490.566 25.2998H463.194C448.806 25.2998 441.085 38.2286 441.085 52.7298C441.085 76.3162 467.581 61.4655 466.528 77.015C465.65 89.9438 454.421 96.0587 456 74.9184H434.242C429.329 80.6839 425.82 101.999 445.823 101.999H473.195C492.497 101.999 507.06 54.3022 478.81 54.3022C461.615 54.3022 468.107 30.5411 478.108 30.5411V47.4884H495.304C504.779 47.4884 509.692 25.2998 490.391 25.2998H490.566Z" fill="white" stroke="white" stroke-width="15.79" stroke-miterlimit="10"/>
<path d="M555.668 25.2998H514.784C509.52 25.2998 506.362 38.7527 509.52 38.7527H521.627C521.627 38.7527 505.309 91.8656 503.905 96.7576C502.677 100.077 503.905 101.824 506.537 101.824H522.505C525.312 101.824 525.488 99.7277 526.54 96.7576L542.859 38.7527H550.579C557.247 38.7527 561.458 25.2998 555.668 25.2998Z" fill="white" stroke="white" stroke-width="15.79" stroke-miterlimit="10"/>
<path d="M751.483 25.2998H723.058C717.794 25.2998 709.196 26.6974 706.038 37.355C702.879 48.886 695.159 78.238 695.159 78.238C691.474 93.4381 694.106 101.65 709.547 101.65H734.989C741.306 101.65 749.027 88.3714 736.744 88.3714H718.32L722.531 69.6771H740.253C749.202 69.6771 754.817 56.0493 747.272 56.0493H724.988L729.901 38.7527H754.115C760.783 38.7527 766.573 25.2998 751.483 25.2998Z" fill="white" stroke="white" stroke-width="15.79" stroke-miterlimit="10"/>
<path d="M286.853 26.8701H252.813C248.777 27.0448 246.671 28.792 244.741 35.7805C244.741 35.7805 241.232 48.7094 237.372 62.6865C234.564 72.8199 231.406 83.3026 229.827 89.9417C227.019 99.7257 228.774 101.822 234.915 101.822H268.605C296.328 101.822 323.174 26.8701 287.028 26.8701H286.853ZM267.552 83.3027C267.025 85.9234 264.393 88.1946 261.761 88.1946C259.129 88.1946 257.901 85.9234 258.428 83.3027L263.867 62.6865L270.008 38.0518C270.71 35.4311 273.342 33.6839 275.974 33.6839C278.606 33.6839 279.834 35.4311 279.308 38.0518L267.727 83.4773L267.552 83.3027Z" fill="white" stroke="white" stroke-width="15.79" stroke-miterlimit="10"/>
<path d="M367.389 48.8822C376.162 48.8822 383.181 25.1211 351.948 25.1211C315.1 25.1211 311.415 37.0016 305.801 66.3535C300.888 92.7353 298.606 101.646 334.752 101.646C363.178 101.646 358.791 104.092 367.389 61.1121H343.876L338.262 82.7766C337.56 85.3973 335.103 87.3191 332.471 87.3191C329.839 87.3191 328.436 85.3973 328.962 82.7766L334.226 61.9857L340.543 37.1764C341.069 34.5557 343.701 32.8085 346.157 32.8085C348.614 32.8085 350.193 34.7304 349.667 37.1764L346.684 48.7074H367.038L367.389 48.8822Z" fill="white" stroke="white" stroke-width="15.79" stroke-miterlimit="10"/>
<path d="M612.16 25.2958H577.945C573.734 25.2958 566.715 29.6637 564.083 35.7786C562.679 39.2729 559.345 50.1051 555.836 61.1121C553.38 69.8477 550.923 78.5835 549.519 83.8249C546.186 96.4043 551.099 101.82 558.819 101.82H591.456C600.755 101.82 606.897 95.1813 608.476 90.8134C609.879 86.2709 621.811 46.9603 623.039 38.3994C624.268 30.0131 619.53 25.1211 612.16 25.1211V25.2958ZM586.016 81.903C585.49 84.5237 582.682 86.795 580.226 86.795C577.769 86.795 576.19 84.5237 576.892 81.903L581.98 61.9857L588.297 36.4775C589.174 33.8568 591.455 31.9349 594.087 31.9349C596.719 31.9349 598.123 33.8568 597.421 36.4775L586.016 81.903Z" fill="white" stroke="white" stroke-width="15.79" stroke-miterlimit="10"/>
<path d="M685.857 25.2998H642.692C638.481 25.2998 637.253 25.9987 636.375 29.1435C635.498 32.2884 618.653 90.2933 617.425 95.1852C616.021 100.077 617.951 100.427 622.338 100.427H643.569L653.746 60.2425L660.063 35.6078C660.765 32.9871 663.397 31.0653 665.853 31.0653C668.31 31.0653 669.889 32.9871 669.363 35.6078L653.044 100.427H673.925C678.838 100.427 679.715 99.3783 680.768 95.0105C681.821 90.6427 691.471 56.0494 694.279 43.8194C697.262 31.7642 692.349 25.2998 686.207 25.2998H685.857Z" fill="white" stroke="white" stroke-width="15.79" stroke-miterlimit="10"/>
<path d="M14 101.821H85.9407C115.243 101.821 123.139 63.7337 107.874 55.5221C104.189 53.6003 103.136 50.2807 108.049 49.4072C125.42 45.9129 135.071 11.3196 111.383 8H48.2158L32.9503 63.9084L85.0634 16.5611C87.169 13.2415 91.0291 12.3679 93.4857 13.9403C95.7667 15.5128 94.5384 19.8806 93.4857 22.1519L75.5883 81.205C74.1846 85.2235 71.2016 85.5728 68.5696 84.6993C66.1131 83.8257 64.5339 81.2051 65.4113 78.2349C66.2886 75.0901 75.9391 43.8163 75.9391 43.8163L14.1755 101.996L14 101.821Z" fill="#231815"/>
<path d="M96.1191 8H48.2172L32.9517 63.9084" fill="#E60012"/>
<path d="M148.93 101.822H175.075C193.674 62.5118 171.565 67.7531 179.286 62.5117C196.13 50.8059 196.481 26.8701 175.075 26.8701H142.438C137.174 26.8701 134.367 27.3943 132.261 34.0334C132.261 34.0334 121.558 70.3738 116.82 85.5739C112.434 100.425 110.153 101.648 116.469 101.648H138.929L157.704 38.9254C158.756 34.3828 161.213 32.9851 163.669 33.3346C165.95 33.3346 167.53 36.4794 165.95 41.3714C164.547 46.4381 148.755 101.822 148.755 101.822" fill="#231815"/>
<path d="M210.694 26.5195H225.082C229.644 26.5195 231.399 28.4413 227.89 40.4965C224.38 52.7265 212.273 97.628 212.273 97.628C210.519 101.646 208.413 101.646 205.43 101.646H188.761C184.55 101.646 182.97 101.297 187.006 88.1934C189.989 78.06 203.5 31.5862 203.5 31.5862C204.553 27.9173 207.185 26.5195 210.519 26.5195" fill="#231815"/>
<path d="M424.061 25.2998H395.635C390.372 25.2998 381.598 26.6974 378.615 37.355C375.457 48.886 367.561 78.238 367.561 78.238C364.227 93.4381 366.684 101.65 382.125 101.65H407.743C413.884 101.65 421.604 88.3714 409.497 88.3714H390.898L394.934 69.6771H412.656C421.604 69.6771 427.395 56.0493 419.674 56.0493H397.566L402.479 38.7527H426.693C433.185 38.7527 438.975 25.2998 423.885 25.2998" fill="#231815"/>
<path d="M428.621 74.7397C423.708 80.5052 420.199 101.82 440.202 101.82H467.574C486.875 101.82 501.439 54.1235 473.189 54.1235C455.994 54.1235 462.486 30.3626 472.487 30.3626V47.3097H489.683C499.158 47.3097 504.071 25.1211 484.77 25.1211H457.397C443.009 25.1211 435.289 38.0499 435.289 52.5511C435.289 76.1375 461.784 61.2868 460.731 76.8363C459.854 89.7651 448.624 95.88 450.203 74.7397H428.446H428.621Z" fill="#231815"/>
<path d="M515.655 38.7527H503.548C500.389 38.7527 503.548 25.2998 508.812 25.2998H549.695C555.31 25.2998 551.274 38.7527 544.606 38.7527H536.886L520.568 96.7576C519.515 99.7277 519.339 101.824 516.532 101.824H500.565C497.933 101.824 496.704 100.077 497.933 96.7576C499.336 91.8656 515.655 38.7527 515.655 38.7527Z" fill="#231815"/>
<path d="M745.339 25.2998H716.913C711.649 25.2998 703.051 26.6974 699.893 37.355C696.735 48.886 689.014 78.238 689.014 78.238C685.329 93.4381 687.962 101.65 703.403 101.65H728.845C735.162 101.65 742.882 88.3714 730.599 88.3714H712.176L716.387 69.6771H734.109C743.058 69.6771 748.672 56.0493 741.127 56.0493H718.843L723.756 38.7527H747.971C754.638 38.7527 760.429 25.2998 745.339 25.2998Z" fill="#231815"/>
<path d="M257.723 62.6815L252.284 83.2977C251.758 85.9184 253.161 88.1897 255.618 88.1897C258.25 88.1897 260.882 85.9184 261.408 83.2977L272.989 37.8722C273.515 35.2515 272.111 33.5044 269.655 33.5044C267.198 33.5044 264.391 35.2515 263.689 37.8722L257.548 62.5068H231.053C235.088 48.5297 238.422 35.6009 238.422 35.6009C240.352 28.6123 242.458 26.8651 246.494 26.6904H280.534C316.68 26.6904 289.833 101.643 262.11 101.643H228.421C222.279 101.643 220.525 99.546 223.332 89.762C225.087 83.1229 228.07 72.6402 230.877 62.5068" fill="#231815"/>
<path d="M337.913 61.2868L332.298 82.9513C331.597 85.572 329.14 87.4938 326.508 87.4938C323.876 87.4938 322.472 85.572 322.999 82.9513L328.263 62.1604L334.58 37.351C335.106 34.7303 337.738 32.9832 340.194 32.9832C342.651 32.9832 344.23 34.905 343.704 37.351L340.721 48.8822H361.075C369.848 48.8822 376.867 25.1211 345.634 25.1211C308.786 25.1211 305.101 37.0016 299.487 66.3535C294.574 92.7353 292.292 101.646 328.438 101.646C356.864 101.646 352.477 104.092 361.075 61.1121H337.562L337.913 61.2868Z" fill="#231815"/>
<path d="M576.017 61.9895L582.333 36.4814C583.211 33.8607 585.492 31.9388 588.124 31.9388C590.756 31.9388 592.159 33.8607 591.458 36.4814L580.052 81.9069C579.526 84.5276 576.719 86.7988 574.262 86.7988C571.806 86.7988 570.226 84.5276 570.928 81.9069L576.017 61.9895L549.872 60.9413C547.416 69.677 544.959 78.4126 543.556 83.654C540.222 96.2334 545.135 101.649 552.855 101.649H585.492C594.791 101.649 600.933 95.0104 602.512 90.6425C603.916 86.1 615.847 46.7894 617.075 38.2285C618.304 29.8422 613.566 24.9502 606.197 24.9502H571.981C567.77 24.9502 560.751 29.318 558.119 35.433C556.715 38.9273 553.382 49.7596 549.872 60.7665" fill="#231815"/>
<path d="M647.603 60.2425L653.92 35.6078C654.621 32.9871 657.254 31.0653 659.71 31.0653C662.167 31.0653 663.746 32.9871 663.219 35.6078L646.901 100.427H667.781C672.694 100.427 673.572 99.3783 674.624 95.0105C675.677 90.6427 685.328 56.0494 688.135 43.8194C691.118 31.7642 686.205 25.2998 680.064 25.2998H636.9C632.688 25.2998 631.46 25.9987 630.583 29.1435C629.705 32.2884 612.861 90.2933 611.632 95.1852C610.229 100.077 612.159 100.427 616.545 100.427H637.777L647.954 60.2425" fill="#231815"/>
</svg>
