<svg width="768" height="140" viewBox="0 0 768 140" fill="none" xmlns="http://www.w3.org/2000/svg">
<path d="M44.594 36.7352C-2.42504 38.3151 -3.30226 99.4028 44.594 102.914L10.7334 130.824L115.474 69.9122L10.7334 9L44.594 36.9108V36.7352ZM78.6302 69.7367C78.6302 86.764 64.7705 100.632 47.7524 100.807C64.7705 100.807 78.6302 86.9395 78.6302 69.9122C78.6302 52.8848 64.7705 39.0172 47.7524 39.0172C64.7705 39.0172 78.6303 52.8848 78.8058 69.9122L78.6302 69.7367Z" fill="white" stroke="white" stroke-width="16.6672" stroke-linecap="round" stroke-linejoin="round"/>
<path d="M633.91 37.7885C620.225 36.7353 606.366 36.7353 592.681 37.2619C583.733 37.9641 573.031 39.1928 563.031 47.9698C560.224 50.4273 554.259 58.5022 547.065 77.9871C540.399 96.0677 554.434 99.4029 555.838 99.9295C558.645 100.807 578.821 103.44 602.506 102.212C636.717 102.036 645.314 71.4921 650.227 57.8C653.385 48.8475 653.384 39.895 633.91 37.7885ZM614.612 65.1727C609.524 75.8806 606.19 86.0619 600.401 88.1684C596.015 89.7482 591.277 89.9238 584.786 89.2216C579.698 88.5195 577.242 85.7108 580.75 76.2317C583.382 69.0345 590.049 56.0446 591.804 53.7626C595.312 48.8475 600.049 48.4964 610.927 49.3741C615.138 50.2518 620.401 52.885 614.612 65.1727Z" fill="white" stroke="white" stroke-width="16.6672" stroke-linecap="round" stroke-linejoin="round"/>
<path d="M457.591 51.1324L463.205 38.8447H426.186L420.221 51.1324H430.748L419.871 74.8303L400.747 38.8447H363.553L357.763 51.1324H368.992L351.974 88.3469H340.745L335.131 100.635H374.079L379.694 88.3469H368.992L380.044 63.7713L399.87 100.635H424.959L447.591 51.1324H457.591Z" fill="white" stroke="white" stroke-width="16.6672" stroke-linecap="round" stroke-linejoin="round"/>
<path d="M751.633 38.8396H667.771L662.156 51.1274H675.139L658.121 88.3418H644.962L639.348 100.63H696.367L701.982 88.1662H690.227L696.192 75.1763H733.913C739.001 75.1763 746.194 73.772 750.054 67.4525C756.194 57.6223 765.844 38.6641 751.457 38.6641L751.633 38.8396ZM723.386 55.3403C722.333 58.6756 721.807 63.9417 714.965 63.9417H701.455L707.245 51.1274H721.105C724.439 51.1274 723.737 53.936 723.386 55.3403Z" fill="white" stroke="white" stroke-width="16.6672" stroke-linecap="round" stroke-linejoin="round"/>
<path d="M516.015 88.3469H497.593L514.436 51.1324H524.962L530.577 38.8447H474.961L469.171 51.1324H480.926L463.908 88.3469H452.504L446.89 100.635H529.699L543.735 69.9152H531.805L516.015 88.3469Z" fill="white" stroke="white" stroke-width="16.6672" stroke-linecap="round" stroke-linejoin="round"/>
<path d="M227.407 38.8447H152.141L146.352 51.1324H158.106L141.088 88.3469H129.509L123.895 100.81H197.932C225.653 100.81 233.197 71.6706 237.232 63.4202C241.092 55.1699 243.899 38.8447 227.583 38.8447H227.407ZM205.476 63.7713C203.547 70.7929 196.003 87.9958 188.634 88.1713H174.072L191.09 51.1324H201.617C209.862 50.7814 207.406 56.7497 205.652 63.7713H205.476Z" fill="white" stroke="white" stroke-width="16.6672" stroke-linecap="round" stroke-linejoin="round"/>
<path d="M348.114 51.308L353.904 38.8447H317.06L311.446 51.308H321.973L309.516 79.2188C305.306 86.767 303.025 87.9957 292.674 87.8202C282.323 87.6447 282.498 82.9051 284.603 77.639L296.534 51.308H306.709L312.323 39.0202H257.76L251.971 51.4835H263.55C263.55 51.4835 249.865 81.3252 249.69 81.8519C242.321 103.092 265.655 101.161 275.48 101.688C274.954 101.688 283.2 101.688 292.674 101.161C304.779 100.284 315.657 97.2993 321.446 86.2404L337.763 51.6591H348.465L348.114 51.308Z" fill="white" stroke="white" stroke-width="16.6672" stroke-linecap="round" stroke-linejoin="round"/>
<path d="M78.6297 69.9106C78.6297 86.9379 64.7699 100.806 47.7519 100.806C30.7338 100.806 16.8735 86.9379 16.8735 69.9106C16.8735 52.8832 30.7338 39.0156 47.7519 39.0156C64.7699 39.0156 78.6297 52.8832 78.6297 69.9106Z" fill="white"/>
<path d="M115.474 69.9122L10.7334 9L44.594 36.9108C-2.42504 38.4906 -3.30226 99.5784 44.594 103.089L10.7334 131L115.474 70.0878V69.9122ZM16.6984 69.9122C16.6984 52.8848 30.5587 39.0173 47.5768 38.8417C64.5948 38.8417 78.4547 52.7093 78.6302 69.7367C78.6302 86.764 64.7705 100.632 47.7524 100.807C30.7343 100.807 16.874 86.9395 16.874 69.9122H16.6984Z" fill="#040000"/>
<path d="M23.7152 76.4021L21.2593 81.8438H59.1553C66.8748 81.8438 72.1381 76.2266 72.8399 69.0294C73.5417 62.3589 67.4009 57.7949 61.6112 57.7949H30.9085L28.1013 63.7633H33.7157L27.9262 76.2266H23.7152V76.4021ZM49.6811 63.5878H54.0672C57.7516 63.5878 56.6988 69.0295 56.6988 68.5028C56.5233 71.3115 54.2429 76.4021 49.3304 76.2266H44.0668L49.8567 63.5878H49.6811Z" fill="#D71718"/>
<path d="M751.634 38.6662H667.772L662.157 50.954H675.14L658.122 88.1684H644.964L639.349 100.456H696.369L701.983 87.9929H690.228L696.193 75.0029H733.914C739.002 75.0029 746.195 73.5986 750.055 67.2792C756.195 57.449 765.845 38.4907 751.634 38.4907V38.6662ZM723.387 55.3425C722.334 58.6777 721.808 63.9439 714.966 63.9439H701.457L707.247 51.1295H721.106C724.44 51.1295 723.738 53.9382 723.387 55.3425ZM447.589 51.1295H457.414L463.028 38.8418H426.01L420.044 51.1295H430.571L419.693 75.0029L400.57 38.8418H363.376L357.586 51.1295H368.815L351.797 88.3439H340.568L334.954 100.632H373.903L379.517 88.3439H368.99L380.043 63.7684L399.868 100.807H424.781L447.589 51.1295ZM237.056 63.4173C240.916 55.1669 243.723 38.8418 227.407 38.8418H152.141L146.352 51.1295H158.106L141.088 88.3439H129.509L123.895 100.807H197.932C225.653 100.807 233.197 71.6677 237.232 63.4173H237.056ZM188.634 88.3439H174.072L191.09 51.3051H201.617C209.862 50.954 207.406 56.9223 205.652 63.9439C203.898 70.9655 196.178 88.1684 188.809 88.3439H188.634ZM275.128 101.334C275.128 101.334 282.847 101.334 292.321 100.807C304.427 99.9295 315.304 96.9453 321.094 85.8863L337.41 51.3051H348.113L353.902 38.8418H317.059L311.445 51.3051H321.971L309.515 79.2159C305.304 86.7641 303.023 87.9928 292.672 87.8173C282.321 87.6417 282.497 82.9022 284.602 77.636L296.532 51.3051H306.707L312.322 39.0173H257.758L251.969 51.4806H263.548C263.548 51.4806 249.864 81.3223 249.688 81.8489C242.319 103.089 265.654 101.158 275.478 101.685L275.128 101.334ZM463.905 88.3439H452.501L446.888 100.632H529.522L543.733 69.7367H531.802L516.012 88.1684H497.591L514.433 50.954H524.96L530.574 38.6662H474.958L469.169 50.954H480.923L463.905 88.1684V88.3439ZM555.838 99.9295C558.645 100.807 578.821 103.44 602.506 102.212C636.718 102.036 645.315 71.4921 650.227 57.8C653.385 48.8475 653.385 39.895 633.911 37.7885C620.226 36.7353 606.366 36.7353 592.682 37.2619C583.734 37.9641 573.032 39.1928 563.032 47.9698C560.224 50.4273 554.259 58.5022 547.066 77.9871C540.399 96.0677 554.435 99.4029 555.838 99.9295ZM580.751 76.0562C583.383 68.859 590.05 55.8691 591.804 53.5871C595.313 48.672 600.05 48.3209 610.927 49.1986C615.138 50.0763 620.402 52.7094 614.612 64.9972C609.524 75.7051 606.191 85.8864 600.401 87.9929C596.015 89.5727 591.278 89.7482 584.786 89.046C579.699 88.3439 577.242 85.5353 580.751 76.0562Z" fill="#040000"/>
</svg>
