<svg width="197" height="197" viewBox="0 0 197 197" fill="none" xmlns="http://www.w3.org/2000/svg">
<path d="M99.203 194.892C152.829 194.892 196.301 151.381 196.301 97.7078C196.301 44.0344 152.829 0.523438 99.203 0.523438C45.5773 0.523438 2.10498 44.0344 2.10498 97.7078C2.10498 151.381 45.5773 194.892 99.203 194.892Z" fill="white"/>
<path d="M197 98.5877C196.474 152.793 152.657 196.649 98.4999 197C41.3629 197 0 152.969 0 98.5877C0 49.8201 40.3113 0 98.4999 0C156.688 0 197 44.9083 197 98.5877ZM98.4999 2.98216C45.2188 2.98216 2.9795 47.7151 2.9795 98.4123C2.9795 149.11 43.2908 193.842 98.4999 193.842C153.709 193.842 194.02 150.162 194.02 98.4123C194.722 46.3117 153.008 3.50843 100.778 2.98216C99.9021 2.98216 99.201 2.98216 98.3247 2.98216H98.4999Z" fill="#111B3A"/>
<path d="M116.206 117.361C114.629 121.571 113.927 125.957 114.103 130.343C113.927 133.676 114.453 136.833 115.68 139.991C117.082 142.271 118.66 141.57 118.835 139.289C119.01 136.307 119.361 133.676 119.361 130.693C119.361 126.659 119.887 121.922 120.062 118.238C120.062 115.607 117.433 114.73 116.206 117.361Z" fill="#111B3A"/>
<path d="M93.2468 115.079C91.1436 115.079 86.2359 115.079 82.9059 115.605C80.6274 115.781 79.7511 116.307 79.4006 117.71C79.0501 119.114 78.3491 122.798 77.8233 124.903C76.7717 132.095 73.4414 138.761 68.3587 143.849C68.0082 144.199 67.6579 144.55 68.8847 144.55C77.8233 143.498 81.3285 143.322 85.3596 142.796C90.2671 142.094 90.7929 140.866 92.5456 137.709C95.8757 131.569 97.1027 124.552 96.2263 117.71C95.8758 116.132 95.3499 115.255 93.422 115.255L93.2468 115.079Z" fill="#111B3A"/>
<path d="M114.101 55.7826C106.389 62.6241 99.5538 70.5182 94.1206 79.2893C87.6357 89.2884 82.7284 99.4629 81.6768 103.848C81.6768 104.199 81.6767 104.726 82.2025 104.901H82.5531C84.8316 104.901 94.4713 104.375 96.2239 104.199C96.5745 104.199 96.9249 104.199 96.9249 103.673C98.1518 97.7087 99.5538 91.7443 101.482 85.9553C104.987 75.7808 109.193 65.7817 114.101 56.1335C114.451 55.6072 114.101 55.4318 113.926 55.7826H114.101Z" fill="#111B3A"/>
<path d="M97.6215 23.6846C58.1864 23.6846 23.4834 58.5938 23.4834 99.2919C23.4834 137.885 51.7013 173.32 99.0234 173.32C140.036 173.32 173.161 138.587 173.161 97.7131C173.161 61.9268 146.346 23.6846 97.6215 23.6846ZM162.996 123.851C160.192 127.535 155.109 128.237 151.428 125.43C147.923 122.974 145.995 119.115 145.995 114.905C145.995 114.378 145.995 114.203 145.294 114.027C143.191 113.501 140.912 113.677 138.809 114.554C138.108 114.554 137.757 115.08 137.407 115.782C135.654 122.974 135.128 130.166 135.829 137.534C136.355 141.218 136.531 142.446 138.984 143.849C141.088 144.902 143.366 145.954 145.644 146.481C146.871 146.656 146.696 147.358 146.696 147.884C146.696 149.814 146.346 152.445 146.346 153.498C146.346 154.55 145.995 154.55 145.119 154.375C138.634 153.147 132.149 152.27 125.664 151.919C106.034 150.866 65.197 154.726 53.9799 155.427C53.1036 155.427 52.9283 155.603 52.5778 154.726C52.2272 153.848 51.8766 150.691 51.7014 150.165C51.5261 149.638 51.351 149.287 51.0004 149.112C45.5671 147.884 41.0102 144.025 38.907 138.762C37.6801 134.552 37.8552 129.991 39.6079 125.956C41.1853 123.325 43.464 121.22 46.093 119.816C48.8972 118.238 52.2272 118.238 55.0315 119.816C56.6089 120.693 57.8359 122.097 58.1864 123.851C58.8875 126.307 58.3617 128.938 56.7843 130.868C55.0316 132.622 51.7013 134.552 48.897 132.973C48.3712 132.798 48.196 132.798 47.8455 133.324C47.1444 135.604 48.3714 138.236 50.4746 139.288C54.5058 141.218 58.1862 139.288 62.042 133.675C65.0216 129.114 65.8981 120.343 66.0734 117.536C66.2486 108.765 65.3723 103.327 63.6196 101.397C62.3928 99.9936 60.4649 99.2919 58.7122 99.2919C57.8359 99.2919 57.31 99.1164 57.31 98.2393C57.31 97.3622 57.6604 86.8368 57.6604 85.9597C57.6604 84.2055 58.1862 83.3284 59.5883 83.3284H62.2175C63.0938 83.3284 63.9702 82.8021 64.1454 81.925C68.0013 72.2767 73.2592 63.1547 79.9193 55.2607C80.2699 54.7344 80.2699 54.7345 79.3936 54.559C76.0635 53.8574 72.5582 53.6819 69.0529 53.8573C65.3723 54.2082 62.0423 54.7344 60.6401 56.4886C60.2896 56.8395 60.6401 57.015 61.1659 57.015C64.8465 57.015 67.6508 60.348 67.4755 64.0318C67.125 68.4174 63.269 71.9259 58.8874 71.7505C52.753 71.7505 47.6703 67.014 47.6703 60.8742C47.6703 60.1725 47.6703 59.6463 47.6703 58.9446C48.1961 54.559 50.6498 50.8752 54.5057 48.5947C55.0315 48.4192 55.3821 47.8929 54.8563 47.5421C54.1552 47.1913 53.98 46.4896 54.3305 45.7879C54.3305 45.7879 54.3303 45.6125 54.6809 45.437C55.2067 44.5599 58.5367 38.9464 59.0625 38.2447C59.5883 37.543 60.2895 37.8939 60.8153 38.2447C65.0217 41.5777 70.1045 43.5074 75.3625 43.6828C80.6205 44.0336 85.8785 43.6828 90.9612 42.2794C91.6623 42.104 92.3632 42.2794 92.7137 42.8057C93.0643 43.3319 95.5182 48.5947 95.6935 48.9455C96.044 49.4718 96.044 50.3488 95.6935 50.8751C90.786 58.0675 87.8065 66.3124 86.9302 74.9081C86.9302 75.4344 87.2806 75.259 87.6311 74.9081C92.8891 67.3649 98.4977 59.9971 104.632 53.1556C105.158 52.6294 104.632 52.1031 103.931 52.1031C101.653 51.5768 99.374 50.6997 97.2708 49.8226C96.5698 49.4718 96.3945 49.1209 96.7451 48.2438C97.0956 47.3667 101.302 41.9286 101.828 41.2269C102.353 40.5252 102.879 40.3498 103.756 40.7006C109.539 42.8057 115.674 43.6828 121.808 43.3319C127.592 42.9811 133.376 41.7531 138.634 39.6481C138.984 39.6481 138.984 39.2972 139.335 39.2972C140.036 39.2972 140.737 39.8235 141.263 40.3498C142.314 41.4023 145.469 43.8582 146.17 44.7353C146.696 45.2616 146.696 46.1387 146.17 46.4895C146.17 46.4895 145.995 46.4896 145.82 46.665C129.695 59.8217 119.354 78.9428 117.251 99.6427C117.076 102.45 118.128 103.502 119.354 103.677C120.581 103.853 121.633 103.677 122.159 101.397C123.21 95.0817 126.716 83.1529 126.716 82.8021C126.716 82.4512 126.716 82.2758 126.19 82.2758C125.664 82.2758 124.963 82.2758 124.437 82.2758C123.911 82.2758 123.386 81.5741 123.736 80.697C124.087 79.8199 125.839 75.0835 126.365 74.2064C126.716 73.5047 127.417 72.9784 128.293 72.803C139.685 71.3996 150.902 67.8912 161.068 62.6285C161.769 62.1022 162.119 62.6285 162.645 63.3302C163.171 64.0319 164.924 67.5403 165.274 68.242C165.625 68.7683 165.45 69.2945 165.099 69.6454C164.924 69.8208 164.573 69.9962 164.398 70.3471C164.048 70.8733 164.048 71.575 164.398 71.9259C166.677 75.9606 168.955 80.1708 167.027 85.7843C165.625 90.5207 161.944 94.0292 157.037 95.0817C153.356 95.9588 149.325 94.38 147.222 91.047C145.119 87.8894 145.82 83.5038 148.975 81.3987C148.975 81.3987 149.325 81.2233 149.5 81.0479C151.779 79.6445 154.758 79.9953 156.686 81.925C157.563 82.6267 158.088 83.6793 158.264 84.9072C158.264 85.0826 158.264 85.9597 159.315 84.9072C160.367 83.5038 160.893 81.925 160.893 80.3462C160.893 78.4165 159.666 76.6623 157.913 75.9606C155.635 75.2589 153.181 75.4343 151.253 76.8377C147.047 79.1182 139.16 87.8894 137.757 101.046C137.757 102.274 137.582 102.976 138.984 103.327C141.438 103.677 143.892 103.677 146.521 103.327C147.748 103.151 148.098 102.274 148.799 101.046C149.15 100.344 149.851 100.169 150.902 100.169C151.954 100.169 156.511 99.8181 157.212 99.8181C157.913 99.8181 158.088 100.52 157.738 101.222C155.985 104.73 155.284 108.589 155.459 112.449C155.459 113.677 155.635 113.677 156.686 112.975C158.789 112.098 161.068 112.449 162.82 113.852C164.573 115.08 167.202 117.887 162.996 124.202V123.851Z" fill="#111B3A"/>
<path d="M58.1918 16.4915C58.1918 16.4915 63.2745 14.3864 63.625 14.2109C63.9755 14.2109 64.1507 14.211 64.3259 14.3864C64.3259 14.7372 67.1302 21.7541 67.3054 22.105C67.656 22.8067 67.8312 23.6838 67.8312 24.3855C67.8312 24.9118 67.8312 25.438 67.8312 25.9643C67.4807 26.4906 67.1303 26.8414 66.6045 27.3677C65.7282 27.8939 65.0271 28.4202 64.1508 28.7711C63.2744 29.2973 62.398 29.6482 61.3464 29.8236C60.6454 29.8236 59.9444 29.999 59.2433 29.999C58.7175 29.999 58.1917 29.6482 57.8412 29.2973C57.3154 28.9465 56.9649 28.5957 56.7896 28.2448C56.4391 27.894 56.2636 27.3677 56.0884 27.0169C56.0884 26.8415 56.0884 26.4906 56.0884 26.4906C56.0884 26.4906 58.0165 25.6135 58.1918 25.4381C58.367 25.4381 58.7174 25.4381 58.8927 25.4381C58.8927 25.7889 59.2432 26.1397 59.4185 26.3152C59.5938 26.4906 59.9444 26.666 60.1197 26.8414C60.6455 26.8414 60.9958 26.8414 61.5216 26.8414C62.2227 26.666 63.0992 26.1397 63.625 25.6135C63.9755 25.2626 64.1507 24.9118 64.3259 24.3855C64.3259 23.8592 64.3259 23.333 64.3259 22.8067C64.1507 21.9296 63.8001 21.2279 63.4496 20.5262C63.099 19.8245 62.7486 18.7719 62.7486 18.5965C62.7486 18.4211 62.5734 18.2457 62.2228 18.2457C62.0476 18.2457 61.8723 18.2457 61.697 18.2457L59.5937 18.9474C59.5937 18.9474 59.068 18.9474 58.8927 18.772C58.8927 18.4211 58.1916 17.0177 58.0163 16.8423C58.0163 16.6669 58.0165 16.316 58.1918 16.1406V16.4915Z" fill="#111B3A"/>
<path d="M87.8111 20.3449L83.6049 14.3805C82.7285 12.9771 80.2747 9.64408 79.9241 9.29324C79.5736 9.11781 79.2231 8.94238 78.8726 8.94238C77.9962 8.94238 77.12 9.29327 76.2437 9.4687C75.8932 9.81954 75.5425 10.1703 75.5425 10.5212L72.9136 23.5025C72.9136 23.5025 72.9136 23.8533 72.9136 24.2042C72.9136 24.2042 73.2641 24.2042 73.4394 24.2042C73.6146 24.2042 75.7177 23.5025 76.0682 23.5025C76.2435 23.5025 76.4188 23.1516 76.594 22.9762C76.594 22.8008 76.9445 21.3974 77.1198 20.8711C77.2951 20.3449 77.4704 20.3449 77.9962 20.1694L80.2747 19.6432L82.5533 19.2923C82.5533 19.2923 83.0791 19.4677 83.0791 19.8186L83.9552 21.222C83.9552 21.222 84.4811 21.7483 84.8316 21.7483L87.4608 21.0466C87.4608 21.0466 87.8111 20.8711 87.8111 20.5203V20.3449ZM80.6254 16.661C80.6254 16.661 78.8727 17.0118 78.6974 17.0118C78.5221 17.0118 78.3469 17.0119 78.1716 16.8364C78.1716 16.8364 78.1716 16.4856 78.1716 16.3102C78.1716 16.1348 78.6974 13.8542 78.6974 13.6788C78.6974 13.6788 78.6972 13.328 79.0478 13.328C79.223 13.328 79.3983 13.328 79.5735 13.5034C79.5735 13.6788 80.2747 14.5559 80.4499 14.9068C80.6252 15.2576 80.8004 15.433 80.9757 15.7839C80.9757 15.7839 80.9757 15.9593 80.9757 16.1347C80.9757 16.1347 80.9758 16.3102 80.8005 16.4856L80.6254 16.661Z" fill="#111B3A"/>
<path d="M24.7113 124.552C24.7113 124.552 24.0101 122.447 24.0101 122.272C24.0101 122.097 23.6596 121.921 23.4843 121.921L21.907 121.395C21.907 121.395 21.3812 121.044 21.3812 120.518C21.3812 119.991 21.0306 119.114 21.0306 118.588C21.0306 118.062 20.6803 117.009 20.6803 116.658C20.6803 116.308 20.6801 116.132 21.0306 115.957C21.2059 115.957 21.9071 115.43 22.2576 115.08C22.6082 115.08 22.7832 114.729 22.608 114.378C22.608 114.203 22.2574 111.922 22.0822 111.747C22.0822 111.571 21.9071 111.396 21.7318 111.571C21.5566 111.571 17.1749 114.553 15.948 115.43C14.7211 116.308 11.3911 118.413 11.0405 118.764C10.8653 118.939 10.6899 119.29 10.6899 119.641C10.6899 119.991 11.2156 121.746 11.3909 121.921C11.5662 122.272 11.9169 122.623 12.4427 122.623L24.3607 124.903C24.3607 124.903 24.7112 124.903 24.8865 124.903L24.7113 124.552ZM17.8759 120.518H17.5253C17.3501 120.518 15.5975 119.991 15.4222 119.991C15.4222 119.991 15.2468 119.991 15.2468 119.816C15.2468 119.816 15.247 119.465 15.4222 119.465C15.4222 119.465 16.2985 118.939 16.4738 118.764C16.649 118.764 16.8242 118.413 17.1747 118.237C17.1747 118.237 17.3501 118.237 17.5253 118.237C17.5253 118.237 17.8759 118.237 17.8759 118.413C17.8759 118.939 18.2263 119.465 18.2263 119.991C18.2263 120.167 18.2263 120.342 18.2263 120.518H17.8759Z" fill="#111B3A"/>
<path d="M103.233 7.54524C101.831 6.84355 100.429 6.49268 99.0264 6.49268H93.5932C93.5932 6.49268 93.0675 6.49268 92.8922 6.84353C92.8922 7.01895 92.7168 7.36981 92.7168 7.54524V19.8248C92.7168 19.8248 92.8923 20.3511 93.2428 20.3511H95.5211C95.5211 20.3511 96.0469 20.1756 96.0469 19.8248V16.6672C96.0469 16.6672 96.2223 16.141 96.3975 15.9655C96.5728 15.7901 96.9234 15.6147 97.2739 15.6147C98.5008 15.6147 99.9029 15.6146 101.13 15.4392C102.181 15.2638 103.233 14.7376 104.109 14.0359C104.81 13.1588 105.336 12.1062 105.336 10.8782C105.336 9.47487 104.46 8.24689 103.408 7.36978L103.233 7.54524ZM101.13 12.6325C101.13 12.6325 100.078 12.9833 99.5525 12.9833H96.9233C96.9233 12.9833 96.3974 12.9833 96.0469 12.6325C96.0469 12.457 95.8717 12.1062 95.8717 11.9308V10.352C95.8717 10.352 96.2222 9.65029 96.5727 9.65029C97.6243 9.65029 98.5009 9.65029 99.5525 9.65029C100.078 9.65029 100.429 9.8257 100.954 10.1765C101.305 10.5274 101.656 11.0537 101.656 11.58C101.656 12.1062 101.656 12.4571 101.13 12.8079V12.6325Z" fill="#111B3A"/>
<path d="M122.511 22.454C122.511 22.454 120.758 10.3498 120.583 10.1743C120.583 9.99892 120.408 9.6481 120.057 9.6481C119.707 9.6481 117.253 8.94642 116.727 8.771C116.377 8.771 116.026 8.771 115.851 9.12185C115.676 9.4727 108.665 19.4717 108.315 19.8226C107.964 20.1734 108.314 20.5243 108.49 20.5243C108.665 20.5243 110.418 20.8752 110.943 21.0506C111.294 21.0506 111.645 21.0506 111.82 20.6998L113.047 18.7701C113.047 18.7701 113.572 18.4192 113.923 18.5946L117.779 19.6472C117.779 19.6472 118.305 19.9981 118.48 20.3489C118.48 20.5243 118.83 22.2786 118.83 22.6294C118.83 22.8048 119.006 22.9803 119.356 23.1557C119.531 23.1557 121.459 23.6819 121.635 23.6819C121.81 23.6819 121.985 23.6819 122.161 23.6819C122.336 23.6819 122.511 23.3311 122.511 22.9802V22.454ZM117.954 15.9633C117.954 15.9633 117.253 16.1388 116.727 15.9633C116.201 15.7879 115.676 15.6124 115.676 15.437C115.676 15.437 115.676 15.0862 115.676 14.9108C115.676 14.7353 117.078 12.8057 117.078 12.6303C117.078 12.6303 117.428 12.4548 117.604 12.6303C117.779 12.6303 117.779 12.6303 117.954 12.9811C118.129 13.332 118.305 15.0862 118.305 15.2616C118.305 15.6125 118.305 15.9633 118.305 16.1387L117.954 15.9633Z" fill="#111B3A"/>
<path d="M129.525 24.9127C129.525 24.9127 135.134 14.9136 135.134 14.5627C135.134 14.2119 135.66 14.0365 135.835 14.2119C136.01 14.3873 138.113 15.2644 138.464 15.4398C138.464 15.6153 138.639 15.9661 138.815 16.1415C138.815 16.317 140.041 23.8602 140.217 24.0356C140.217 24.211 140.217 24.3864 140.567 24.5618C140.567 24.5618 141.093 24.5618 141.268 24.211L144.073 19.1238C144.073 19.1238 144.423 18.7729 144.774 18.9483C145.124 18.9483 146.702 19.8255 146.877 20.0009C147.052 20.1763 147.052 20.3517 146.877 20.7026C146.702 21.0534 141.268 30.8771 141.268 31.0525C141.268 31.228 140.918 31.4034 140.567 31.2279C140.217 31.0525 138.639 30.1754 138.639 30.1754C138.289 29.9999 138.114 29.6491 138.114 29.2983C138.114 28.772 136.887 21.2288 136.887 20.878C136.887 20.5271 136.536 20.3517 136.361 20.5271C136.186 20.7025 133.031 26.1407 132.856 26.3161C132.856 26.667 132.33 26.8424 131.979 26.667C131.629 26.4915 130.051 25.6144 129.876 25.439C129.701 25.2636 129.876 25.0881 129.876 24.7373L129.525 24.9127Z" fill="#111B3A"/>
<path d="M179.828 55.6064C179.828 55.6064 178.776 53.5013 178.601 53.3259C178.426 53.1505 178.075 52.7996 177.549 52.9751L164.229 54.203C164.229 54.203 163.703 54.5538 163.879 54.7293C164.054 54.9047 165.281 57.1852 165.631 57.536C165.631 57.7114 165.982 57.8869 166.332 57.7115L168.435 57.3606C168.435 57.3606 168.786 57.3606 168.961 57.536L171.24 61.3953C171.24 61.3953 171.24 61.7462 171.24 62.0971C171.24 62.2725 171.24 62.6233 170.889 62.7987C170.889 62.9741 169.487 64.3775 169.487 64.553C169.487 64.553 169.487 64.9038 169.487 65.0792C169.487 65.2546 170.363 67.1843 170.714 67.5351C171.064 67.886 171.24 67.886 171.415 67.5351C171.59 67.1843 179.652 57.0097 179.828 56.8343C179.828 56.4835 179.828 56.1326 179.828 55.9572V55.6064ZM175.621 56.8343C175.621 56.8343 173.869 58.9394 173.869 59.1148C173.869 59.2903 173.518 59.1148 173.343 59.1148C173.168 59.1148 172.291 57.3606 172.116 57.1852V56.8343C172.291 56.8343 175.096 56.4835 175.096 56.4835C175.096 56.4835 175.271 56.4835 175.446 56.4835C175.621 56.4835 175.446 56.8343 175.446 56.8343H175.621Z" fill="#111B3A"/>
<path d="M176.672 69.2941L183.858 67.189C183.858 67.189 184.384 67.189 184.559 67.3644C184.559 67.5398 185.261 69.4695 185.261 69.6449C185.261 69.8203 185.26 70.1712 184.91 70.1712L178.776 71.9254C178.776 71.9254 177.373 72.4516 176.848 72.8025C176.497 73.3288 176.147 73.855 176.322 74.3813C176.322 75.6093 176.672 76.8373 177.373 77.7144C177.724 78.2407 178.425 78.416 179.126 78.416C180.002 78.416 186.487 76.8372 186.838 76.6618C187.013 76.6618 187.364 76.6618 187.364 77.0127C187.364 77.1881 187.889 79.1178 187.889 79.2932C187.889 79.4686 187.889 79.8194 187.539 79.8194C187.188 79.8194 180.353 81.5736 179.827 81.5736C178.6 81.7491 177.373 81.5737 176.322 81.0474C175.445 80.3457 174.744 79.4686 174.394 78.5915C173.868 77.0127 173.518 75.6093 173.342 74.0304C173.342 72.9779 173.342 72.1008 173.868 71.2237C174.569 70.3466 175.446 69.6449 176.497 69.2941H176.672Z" fill="#111B3A"/>
<path d="M186.306 89.4685V86.3109C186.306 86.3109 186.657 85.7847 186.832 85.7847H188.76C188.76 85.7847 189.286 85.7847 189.286 86.1355C189.286 86.4864 189.812 97.7134 189.812 97.8888C189.812 98.0643 189.812 98.4151 189.286 98.5905H187.183C187.183 98.5905 186.657 98.4151 186.657 98.0643C186.657 97.7134 186.657 94.7312 186.657 94.5558C186.657 94.205 186.306 94.0296 186.131 94.0296C185.78 94.0296 177.894 94.0296 177.543 94.0296C177.192 94.0296 176.842 94.0295 176.842 93.5033C176.842 92.977 176.842 91.2228 176.842 91.0473C176.842 90.8719 176.842 90.6965 177.192 90.5211C177.543 90.5211 177.893 90.3456 178.244 90.3456H185.781C185.781 90.3456 186.657 89.8194 186.657 89.2931L186.306 89.4685Z" fill="#111B3A"/>
<path d="M188.409 105.433C186.656 102.275 182.8 101.047 179.645 102.802C179.645 102.802 179.646 102.802 179.47 102.802C177.893 103.679 176.841 105.257 176.315 107.012C176.14 107.889 175.965 108.941 175.79 109.994C175.79 111.573 176.491 113.327 177.542 114.379C179.47 116.134 182.099 116.835 184.553 116.134C186.481 115.432 188.058 113.853 188.584 111.748C189.46 109.643 189.285 107.363 188.584 105.257L188.409 105.433ZM186.306 109.643C186.13 110.871 185.429 112.099 184.378 112.976C183.326 113.502 182.099 113.678 181.048 113.327C179.996 112.976 179.12 111.924 178.769 110.871C178.594 109.994 178.769 108.941 178.944 108.064C179.295 107.012 179.996 106.135 180.872 105.608C182.625 104.556 184.903 105.257 185.955 107.012C186.481 107.889 186.481 108.766 186.306 109.643Z" fill="#111B3A"/>
<path d="M174.217 118.06C174.217 118.06 174.568 117.534 174.918 117.71C175.269 117.885 184.909 123.674 185.259 123.849C185.61 124.025 185.785 124.376 185.61 124.727C185.61 125.077 185.084 126.305 184.909 126.656C184.733 127.007 184.558 127.182 184.207 127.182L176.846 127.709C176.846 127.709 176.145 128.06 176.496 128.41C176.846 128.761 181.053 133.673 181.403 134.199C181.579 134.55 181.754 134.901 181.578 135.252L181.053 136.655C181.053 136.655 180.527 137.006 180.176 137.006L168.609 134.55C168.609 134.55 168.258 134.199 168.258 134.024C168.258 133.849 169.135 131.919 169.31 131.568C169.31 131.217 169.66 131.217 170.011 131.217L173.867 131.743C173.867 131.743 174.393 131.743 174.217 131.217C174.042 130.691 171.588 128.06 171.413 127.709C171.238 127.709 171.238 127.182 171.413 127.007C171.413 126.656 172.114 125.253 172.114 125.077C172.114 124.902 172.465 124.727 172.815 124.727C173.166 124.727 177.898 124.376 178.073 124.2C178.248 124.025 178.599 123.849 178.248 123.674C177.898 123.499 174.217 121.218 173.867 121.043C173.516 120.867 173.516 120.692 173.516 120.341C173.516 119.99 174.217 118.762 174.217 118.411V118.06Z" fill="#111B3A"/>
<path d="M175.095 143.143C174.569 141.388 173.518 139.985 171.94 139.283C170.538 138.406 168.786 138.231 167.383 138.582C165.631 139.108 164.053 140.336 163.177 141.915C162.125 143.143 161.6 144.721 161.249 146.3C161.249 148.405 162.126 150.51 163.878 151.738C165.456 152.966 167.559 153.492 169.487 152.966C171.239 152.44 172.817 151.212 173.868 149.633C175.27 147.704 175.796 145.248 175.27 142.967L175.095 143.143ZM171.239 148.054C170.714 149.107 169.662 149.809 168.61 150.159C167.383 150.51 165.981 150.159 165.105 149.282C164.229 148.581 163.878 147.353 164.053 146.125C164.229 145.072 164.755 144.195 165.28 143.318C165.981 142.441 166.858 141.739 167.909 141.388C168.961 141.213 170.012 141.388 170.889 141.915C171.765 142.441 172.291 143.318 172.291 144.371C172.291 145.598 171.94 146.826 171.239 147.879V148.054Z" fill="#111B3A"/>
<path d="M164.931 159.808C164.931 159.808 157.569 151.388 157.219 151.037C157.043 150.686 156.518 150.686 156.342 150.862C155.992 151.037 151.61 155.072 151.084 155.423C150.559 155.949 150.033 156.651 149.507 157.352C149.156 158.23 148.806 159.107 148.981 159.984C148.981 161.036 149.858 161.913 150.734 162.264C151.435 162.264 152.136 162.615 153.012 162.615C153.188 162.615 153.363 162.791 153.363 163.141C153.363 163.492 153.363 164.019 153.363 164.369C153.363 165.422 154.239 166.299 155.291 166.65C156.693 166.825 158.095 166.65 159.322 165.773C161.25 164.194 163.178 162.615 165.106 160.861C165.456 160.335 165.281 159.984 165.106 159.633L164.931 159.808ZM154.94 159.282C154.94 159.282 154.064 159.633 153.538 159.633C152.837 159.458 152.662 158.756 152.837 158.054C152.837 157.528 153.188 157.002 153.713 156.651C154.239 156.125 155.641 155.072 155.817 154.897C155.992 154.721 156.343 154.721 156.518 154.897C156.693 155.072 157.394 155.949 157.569 156.124C157.745 156.3 157.745 156.651 157.569 156.826C157.569 156.826 155.115 158.931 154.94 159.107V159.282ZM160.899 161.036C160.899 161.036 158.971 162.791 158.621 163.141C158.095 163.492 157.569 163.668 157.044 163.668C156.518 163.668 156.167 163.141 156.167 162.791C156.167 162.264 156.167 161.738 156.693 161.563L159.322 159.282C159.322 159.282 159.848 159.107 160.023 159.282C160.023 159.458 161.075 160.335 161.075 160.51C161.075 160.685 161.075 161.036 160.899 161.212V161.036Z" fill="#111B3A"/>
<path d="M145.299 161.915L151.784 171.739C151.784 171.739 151.959 172.089 151.784 172.265C151.609 172.265 149.856 173.493 149.856 173.668C149.856 173.844 149.506 173.668 149.155 173.493C148.804 173.317 142.845 163.669 142.67 163.494C142.495 163.318 142.67 163.143 142.67 162.967L144.773 161.564C144.773 161.564 145.124 161.564 145.299 161.564V161.915Z" fill="#111B3A"/>
<path d="M138.984 165.955C138.984 165.955 144.242 175.779 144.417 175.954C144.593 176.13 144.417 176.48 144.417 176.656C144.417 176.831 142.665 177.708 142.489 177.708C142.314 177.708 141.963 177.708 141.788 177.533C141.613 177.182 137.757 169.99 137.582 169.639C137.407 169.288 136.881 169.288 136.53 169.463L129.87 172.446H129.344C129.344 172.446 128.643 170.867 128.643 170.691C128.643 170.516 128.643 170.165 128.819 170.165C128.994 170.165 137.582 165.955 137.757 165.78C137.932 165.78 138.283 165.604 138.458 165.78C138.633 165.78 138.809 165.955 138.984 166.13V165.955Z" fill="#111B3A"/>
<path d="M114.274 174.373C114.274 174.373 123.739 171.741 124.265 171.566C124.79 171.39 125.141 171.566 125.316 172.092C125.491 172.618 128.471 183.495 128.646 183.845C128.646 184.196 128.646 184.547 128.296 184.723C127.945 184.898 118.656 187.529 118.305 187.529C117.955 187.529 117.605 187.529 117.605 187.178C117.605 186.828 117.254 185.6 117.079 185.249C116.904 184.898 117.079 184.898 117.605 184.723C118.13 184.547 123.914 182.793 124.265 182.793C124.615 182.793 124.79 182.617 124.79 182.442C124.79 182.267 124.79 182.091 124.79 181.916C124.79 181.565 124.44 181.039 124.44 180.863C124.44 180.688 124.089 180.512 123.739 180.512C123.388 180.512 119.007 181.916 118.656 181.916C118.306 181.916 118.13 181.916 117.955 181.565C117.78 181.214 117.429 179.986 117.429 179.635C117.429 179.284 117.429 179.109 117.78 179.109L122.687 177.53C122.687 177.53 123.038 177.355 123.213 177.179C123.213 177.004 123.213 176.828 123.213 176.653C123.213 176.302 122.862 175.425 122.687 175.25C122.512 175.074 122.337 174.899 121.986 175.074L114.975 177.004C114.975 177.004 114.45 177.004 114.274 176.828C114.274 176.478 113.924 175.425 113.924 175.25C113.924 175.074 114.099 174.723 114.45 174.723L114.274 174.373Z" fill="#111B3A"/>
<path d="M81.4992 175.252L83.2519 175.778C83.2519 175.778 83.6026 176.129 83.6026 176.305C83.6026 176.48 80.4477 187.356 80.2724 187.707C80.0972 188.058 79.9219 188.058 79.3961 188.058C78.8703 188.058 70.4574 185.602 70.2821 185.427C70.1068 185.251 70.1069 185.251 70.1069 184.9C70.1069 184.549 70.6327 183.497 70.6327 183.321C70.6327 183.146 70.9834 182.971 71.3339 183.146L77.2929 184.725C77.2929 184.725 77.8186 184.725 77.9939 184.374C77.9939 184.199 78.5197 182.444 78.5197 182.269C78.5197 181.918 78.5199 181.567 78.1693 181.567L73.6122 180.164C73.6122 180.164 73.2619 179.813 73.2619 179.638C73.2619 179.462 73.6122 178.585 73.6122 178.41C73.6122 178.234 73.7875 178.234 74.138 178.41C74.4885 178.41 78.3446 179.462 78.6951 179.638C79.0456 179.638 79.396 179.638 79.5712 179.111C79.5712 178.76 80.623 176.129 80.7982 175.778C80.9735 175.427 81.1486 175.427 81.4992 175.427V175.252Z" fill="#111B3A"/>
<path d="M59.0677 166.13L67.13 170.515C67.13 170.515 67.4807 170.866 67.4807 171.217C67.4807 171.393 62.2226 181.567 62.2226 181.918C62.2226 182.269 61.6967 182.444 61.3462 182.269L52.9335 177.883C52.9335 177.883 52.5828 177.532 52.758 177.357C52.9333 177.182 53.4593 176.304 53.4593 176.129C53.4593 176.129 53.8098 176.129 53.985 176.129L59.5934 178.936C59.5934 178.936 59.9441 178.936 60.2947 178.936C60.2947 178.936 60.6453 178.936 60.6453 178.585C60.6453 178.41 61.1709 177.532 61.3462 177.357C61.3462 177.182 61.3463 176.831 61.171 176.655L56.6139 174.199C56.6139 174.199 56.2635 173.848 56.4388 173.673C56.4388 173.498 57.3151 172.27 57.3151 172.094C57.3151 171.919 57.6656 172.094 58.0161 172.094L62.2226 174.024C62.2226 174.024 62.7483 174.024 62.9235 174.024C63.2741 173.498 63.4495 172.971 63.6248 172.621C63.6248 172.445 63.6247 172.094 63.2742 171.919L57.3151 168.586C57.3151 168.586 57.1399 168.235 57.3151 168.06C57.3151 167.884 58.1914 166.656 58.3667 166.481C58.542 166.305 58.7171 166.305 59.0677 166.481V166.13Z" fill="#111B3A"/>
<path d="M35.4066 144.553C35.4066 144.553 40.8398 151.57 41.015 151.746C41.1903 151.921 41.1903 152.272 41.015 152.448C40.8398 152.623 32.2517 159.64 31.7259 159.815C31.3754 159.991 30.8496 159.815 30.6743 159.815C30.3238 159.464 24.8906 152.272 24.7153 152.097C24.7153 152.097 24.7153 151.746 24.7153 151.57C25.0659 151.395 25.9422 150.693 26.1175 150.693C26.2928 150.693 26.6433 150.693 26.6433 150.693L30.6743 155.781C30.6743 155.781 31.0249 155.956 31.2001 156.131C31.2001 156.131 31.5506 156.131 31.7259 156.131L32.6023 155.43C32.6023 155.43 32.7776 155.079 32.6023 154.728C32.6023 154.377 29.9732 150.693 29.798 150.342C29.798 150.167 29.798 149.816 29.798 149.641C29.9732 149.641 31.2 148.588 31.3753 148.588C31.5506 148.588 31.7261 148.588 31.9013 148.588C32.0766 148.764 34.8808 152.097 34.8808 152.448C35.0561 152.623 35.4065 152.798 35.5818 152.623C35.7571 152.623 36.6334 151.746 36.984 151.57C37.1592 151.57 36.984 151.044 36.984 150.869C36.984 150.693 33.3032 145.957 33.3032 145.781C33.3032 145.606 33.3032 145.431 33.3032 145.255C33.829 144.904 34.1796 144.553 34.7054 144.203C34.8807 144.203 35.0561 144.203 35.4066 144.553Z" fill="#111B3A"/>
<path d="M53.1085 162.095C51.7063 160.867 50.129 159.639 48.5516 158.587C47.3248 157.71 45.9225 157.359 44.3451 157.359C42.5925 157.534 41.0151 158.411 39.9635 159.639C38.9119 160.692 38.0356 162.271 37.8604 163.85C37.8604 165.253 38.3861 166.656 39.4377 167.884C41.0151 169.463 42.7678 171.042 44.6957 172.27C45.0463 172.621 45.5719 172.621 45.9225 172.27C46.273 171.919 52.9332 163.499 53.1085 163.148C53.2837 162.797 53.2837 162.622 53.1085 162.095ZM49.2526 163.148C49.2526 163.148 45.3969 168.235 45.0464 168.411C44.8711 168.761 44.5205 168.761 44.17 168.411C43.4689 167.884 42.5925 167.358 41.8914 166.656C41.1903 166.13 40.8399 165.253 40.8399 164.376C40.8399 163.323 41.3655 162.271 42.0666 161.569C42.5924 160.692 43.6441 159.99 44.6957 159.815C45.3968 159.815 46.0978 159.815 46.7989 160.341C47.4999 160.867 48.2009 161.569 48.902 162.095C49.0772 162.271 49.0772 162.622 48.902 162.972L49.2526 163.148Z" fill="#111B3A"/>
<path d="M31.5514 139.64C31.5514 139.64 30.8502 138.237 30.675 137.886C30.4997 137.535 30.1493 137.71 29.974 137.886C29.7987 138.061 27.5202 138.938 27.1697 139.114C26.8191 139.289 26.4686 139.114 26.2933 139.114C26.118 139.114 25.417 137.36 25.2417 137.184C25.2417 136.833 25.2417 136.658 25.2417 136.307C25.2417 135.956 25.417 135.781 25.7675 135.43C25.9428 135.079 27.6954 133.149 27.8706 132.799C28.0459 132.623 28.0459 132.272 27.8706 131.921C27.8706 131.746 26.8192 129.816 26.6439 129.641C26.4686 129.466 26.2934 129.641 26.1181 129.641C25.9429 129.641 23.3139 132.974 23.1386 133.149C22.9634 133.149 22.6127 133.149 22.4374 133.149C22.4374 133.149 22.4373 133.149 21.561 132.799C20.3341 132.448 19.1073 132.448 18.0557 133.149C17.0041 133.851 16.3032 134.904 16.3032 136.132C16.3032 137.184 16.6536 138.061 17.0042 139.114C17.3547 139.991 19.6332 144.552 19.8085 145.078C19.9838 145.604 20.5094 145.429 21.0352 145.254C21.561 145.078 30.675 140.693 31.0256 140.693C31.3761 140.693 31.5512 140.166 31.3759 139.815L31.5514 139.64ZM23.6644 140.693C23.6644 140.693 22.2622 141.394 21.9116 141.57C21.5611 141.57 21.3859 141.57 21.2107 141.394C21.2107 141.043 19.8083 138.587 19.6331 138.237C19.4578 137.71 19.4579 137.36 19.4579 136.833C19.4579 136.482 19.8084 136.307 19.9837 136.132C20.3342 135.956 20.86 135.956 21.3858 136.132C21.7364 136.482 22.0869 136.833 22.4374 137.184C22.9632 138.061 23.3139 139.114 23.6644 140.166C23.6644 140.517 23.6644 140.868 23.6644 140.868V140.693Z" fill="#111B3A"/>
<path d="M10.8711 98.4135V101.396C10.8711 101.396 11.2218 102.097 11.5723 102.097H20.3356C20.3356 102.097 20.8614 102.097 20.8614 102.448V105.255C20.8614 105.255 20.6861 105.606 20.5108 105.606L11.9229 105.781C11.7476 105.781 11.2217 105.781 11.2217 106.308C11.2217 106.834 11.2217 109.114 11.2217 109.29C11.2217 109.465 11.2216 109.641 10.8711 109.816H8.76797C8.76797 109.816 8.24219 109.816 8.24219 109.29V98.4135C8.24219 98.4135 8.24217 97.8872 8.76797 97.8872C9.29377 97.8872 10.3454 97.8872 10.6959 97.8872C11.0464 97.8872 11.0465 98.0627 11.0465 98.4135H10.8711Z" fill="#111B3A"/>
<path d="M9.29375 89.9938L20.6862 91.2218C20.6862 91.2218 21.2119 91.3972 21.0366 91.748C20.8613 92.0989 20.8614 93.8531 20.8614 94.0285C20.8614 94.204 20.6862 94.3793 20.3356 94.3793L8.76797 92.976C8.76797 92.976 8.24219 92.8006 8.24219 92.4497C8.24219 92.0989 8.41736 90.6955 8.41736 90.3446C8.41736 89.9938 8.76804 89.8184 9.11858 89.8184L9.29375 89.9938Z" fill="#111B3A"/>
<path d="M23.1333 75.2533C22.257 73.4991 20.5043 72.2711 18.7516 71.7448C16.999 71.2186 15.071 71.5694 13.4936 72.4465C12.0915 73.499 11.0399 74.9024 10.5141 76.6567C9.81301 78.7617 9.81301 80.8668 10.5141 82.9719C11.3904 84.7261 12.7924 85.9541 14.7203 86.4804C16.473 87.0066 18.401 86.6558 19.9784 85.7787C21.5558 84.5507 22.6075 82.9719 23.1333 81.0422C23.8344 79.1126 23.8344 77.183 23.1333 75.2533ZM20.329 80.3405C19.9784 81.7439 19.102 82.7965 17.6998 83.3228C16.8235 83.6736 15.9473 83.6736 15.0709 83.3228C14.1946 82.9719 13.4935 82.2702 13.143 81.5685C12.6172 80.3405 12.6172 78.9372 13.143 77.7092C13.4935 76.4813 14.3699 75.6041 15.4215 75.0778C16.2979 74.727 17.3493 74.5516 18.2256 74.9025C19.1019 75.2533 19.9784 75.9549 20.329 76.8321C20.6795 78.06 20.6795 79.288 20.329 80.3405Z" fill="#111B3A"/>
<path d="M20.6795 53.6816C20.6795 53.6816 30.6696 58.2426 31.0202 58.4181C31.3707 58.4181 31.5458 58.9443 31.3705 59.2952C31.3705 59.646 30.6697 61.0494 30.4944 61.4003C30.4944 61.5757 30.1437 61.7511 29.7932 61.9265L21.3804 64.2071C21.3804 64.2071 21.03 64.5579 21.2053 64.7333C21.2053 64.7333 21.2052 64.9088 21.3804 64.9088C21.731 65.0842 26.4631 67.1892 26.8137 67.5401C27.1642 67.8909 27.3394 67.8909 27.3394 68.2418C27.3394 68.5926 26.6383 70.1714 26.4631 70.3468C26.4631 70.6977 26.1126 70.6977 25.7621 70.6977C25.4116 70.6977 15.4214 66.1367 15.0708 65.9613C14.7203 65.9613 14.7202 65.435 14.7202 65.2596C14.7202 64.9087 15.4213 63.5054 15.5966 63.33C15.7719 62.9791 16.1225 62.8036 16.473 62.8036C16.9988 62.8036 24.0095 60.5232 24.1848 60.3477C24.36 60.1723 24.7105 59.8215 24.3599 59.8215L18.9267 57.1901C18.9267 57.1901 18.5761 56.8393 18.5761 56.6639C18.5761 56.313 19.6277 54.5588 19.6277 54.3833C19.6277 54.2079 19.9783 54.0325 20.3289 54.208L20.6795 53.6816Z" fill="#111B3A"/>
</svg>
