<svg width="754" height="121" viewBox="0 0 754 121" fill="none" xmlns="http://www.w3.org/2000/svg">
<path d="M17.304 8.34912H8L60.4886 60.6745H60.8398L60.4886 61.0245L8.17545 112.65L17.4795 113L69.9684 61.0245L17.304 8.34912Z" fill="white" stroke="white" stroke-width="15.79" stroke-linecap="round" stroke-linejoin="round"/>
<path d="M33.6321 8.34912H24.3281L76.6416 60.6745L76.9925 61.0245H76.6416L24.5038 113H33.8079L86.2965 61.0245L33.6321 8.34912Z" fill="white" stroke="white" stroke-width="15.79" stroke-linecap="round" stroke-linejoin="round"/>
<path d="M49.7811 8.34912H40.4771L92.966 60.6745L93.1414 61.0245H92.7905L40.6528 113H49.6056L102.621 61.0245L49.7811 8.34912Z" fill="white" stroke="white" stroke-width="15.79" stroke-linecap="round" stroke-linejoin="round"/>
<path d="M66.1019 8.34912H56.7979L109.286 60.6745V61.0245V61.3745L56.9733 113H66.1019L118.591 61.0245L66.1019 8.34912Z" fill="white" stroke="white" stroke-width="15.79" stroke-linecap="round" stroke-linejoin="round"/>
<path d="M130.36 56.1254V56.4754L130.184 56.1254L126.849 52.9753V52.6253L171.438 8.70002H161.959L122.109 48.2503H121.583L118.599 44.9253H118.247L118.774 44.4003L155.112 8.52498H145.808L114.034 40.0253H113.683L110.699 36.7002L110.348 36.3502H110.874L138.962 8.35001H130.009L106.31 31.6252H105.959L102.799 28.4751V27.9501L123.163 8.35001H113.683L98.2349 23.4001H98.0592L82.6111 8H73.3071L125.269 60.6754H125.971L125.269 60.8504L73.4826 112.826H82.6111L134.924 60.8504L187.764 8.52498H178.811L130.711 56.1254H130.36Z" fill="white" stroke="white" stroke-width="15.79" stroke-linecap="round" stroke-linejoin="round"/>
<path d="M248.673 21.9955L233.927 21.6455L217.074 56.1208L200.397 21.6455H185.476L210.403 71.5209V101.271L223.394 101.621L223.569 71.6959L248.673 21.9955Z" fill="white" stroke="white" stroke-width="15.79" stroke-linecap="round" stroke-linejoin="round"/>
<path d="M278.692 21.125C300.987 21.475 319.068 39.5002 319.068 61.9003C319.068 84.4755 300.636 102.326 278.517 102.326C256.047 102.326 237.79 83.9505 237.79 61.7253C238.141 39.3251 256.222 21.125 278.692 21.125ZM251.131 61.5503C251.131 76.6004 263.419 88.8505 278.868 88.8505C293.614 88.8505 305.902 76.7754 305.902 61.5503C305.902 46.3252 293.789 34.6001 278.868 34.6001C263.595 34.6001 251.131 46.5002 251.131 61.5503Z" fill="white" stroke="white" stroke-width="15.79" stroke-linecap="round" stroke-linejoin="round"/>
<path d="M406.492 21.6468C428.611 21.6468 446.868 39.6719 446.868 62.2471C446.868 84.4722 428.435 102.672 406.141 102.497C383.846 102.322 365.94 84.2973 365.765 61.8971C365.765 39.6719 383.846 21.4718 406.667 21.6468M378.931 62.0721C378.755 76.9472 391.044 89.3723 405.965 89.3723C421.062 89.3723 433.351 77.1222 433.351 62.2471C433.351 47.0219 421.238 34.7719 406.316 34.7719C391.044 34.7719 378.755 47.022 378.755 62.0721" fill="white"/>
<path d="M406.492 21.6468C428.611 21.6468 446.868 39.6719 446.868 62.2471C446.868 84.4722 428.435 102.672 406.141 102.497C383.846 102.322 365.94 84.2973 365.765 61.8971C365.765 39.6719 383.846 21.4718 406.667 21.6468M378.931 62.0721C378.755 76.9472 391.044 89.3723 405.965 89.3723C421.062 89.3723 433.351 77.1222 433.351 62.2471C433.351 47.0219 421.238 34.7719 406.316 34.7719C391.044 34.7719 378.755 47.022 378.755 62.0721" stroke="white" stroke-width="15.79" stroke-linecap="round" stroke-linejoin="round"/>
<path d="M378.754 21.4709L361.2 21.2959L336.447 55.2462V21.2959L322.93 21.4709L322.228 101.097H336.272L336.447 68.1963L359.62 100.922L377.175 101.272L347.682 62.2462L378.754 21.4709Z" fill="white" stroke="white" stroke-width="15.79" stroke-linecap="round" stroke-linejoin="round"/>
<path d="M493.392 22.5212L492.865 56.2964L464.251 56.1215L464.427 22.3462H450.207L450.032 101.972L464.251 101.797V69.7715L492.865 69.9466V102.147H506.909L507.436 22.3462L493.392 22.5212Z" fill="white" stroke="white" stroke-width="15.79" stroke-linecap="round" stroke-linejoin="round"/>
<path d="M568.525 102.326H583.622L554.306 22.5259H539.91L510.067 102.151H525.34L532.889 81.8513H561.679L568.701 102.326H568.525ZM536.926 70.6512L547.108 43.526L557.114 70.8262H536.926V70.6512Z" fill="white" stroke="white" stroke-width="15.79" stroke-linecap="round" stroke-linejoin="round"/>
<path d="M730.727 102.672H746L716.683 23.0469H715.279H702.815H702.288L672.621 102.497H687.367L694.916 82.3723H723.354L730.552 102.497L730.727 102.672ZM699.304 71.1722L709.135 44.047L719.316 71.1722H699.304Z" fill="white" stroke="white" stroke-width="15.79" stroke-linecap="round" stroke-linejoin="round"/>
<path d="M664.723 23.0509L654.366 22.7009H651.381L627.507 83.7763L604.159 22.7009L600.999 22.5259H590.466H586.955L586.253 102.326H600.472L600.999 50.351L620.66 102.326L621.538 102.151L633.475 102.501L634.002 102.326L654.014 50.351L654.19 102.501H668.585L668.936 23.0509H664.723Z" fill="white" stroke="white" stroke-width="15.79" stroke-linecap="round" stroke-linejoin="round"/>
<path d="M17.304 8.34912H8L60.4886 60.6745H60.8398L60.4886 61.0245L8.17545 112.65L17.4795 113L69.9684 61.0245L17.304 8.34912Z" fill="#DF0615"/>
<path d="M33.6321 8.34912H24.3281L76.6416 60.6745L76.9925 61.0245H76.6416L24.5038 113H33.8079L86.2965 61.0245L33.6321 8.34912Z" fill="#DF0615"/>
<path d="M49.7811 8.34912H40.4771L92.966 60.6745L93.1414 61.0245H92.7905L40.6528 113H49.6056L102.621 61.0245L49.7811 8.34912Z" fill="#DF0615"/>
<path d="M66.1019 8.34912H56.7979L109.286 60.6745V61.0245V61.3745L56.9733 113H66.1019L118.591 61.0245L66.1019 8.34912Z" fill="#DF0615"/>
<path d="M130.36 56.1254V56.4754L130.184 56.1254L126.849 52.9753V52.6253L171.438 8.70002H161.959L122.109 48.2503H121.583L118.599 44.9253H118.247L118.774 44.4003L155.112 8.52498H145.808L114.034 40.0253H113.683L110.699 36.7002L110.348 36.3502H110.874L138.962 8.35001H130.009L106.31 31.6252H105.959L102.799 28.4751V27.9501L123.163 8.35001H113.683L98.2349 23.4001H98.0592L82.6111 8H73.3071L125.269 60.6754H125.971L125.269 60.8504L73.4826 112.826H82.6111L134.924 60.8504L187.764 8.52498H178.811L130.711 56.1254H130.36Z" fill="#DF0615"/>
<path d="M248.673 21.9955L233.927 21.6455L217.074 56.1208L200.397 21.6455H185.476L210.403 71.5209V101.271L223.394 101.621L223.569 71.6959L248.673 21.9955Z" fill="#231815"/>
<path d="M278.692 21.125C300.987 21.475 319.068 39.5002 319.068 61.9003C319.068 84.4755 300.636 102.326 278.517 102.326C256.047 102.326 237.79 83.9505 237.79 61.7253C238.141 39.3251 256.222 21.125 278.692 21.125ZM251.131 61.5503C251.131 76.6004 263.419 88.8505 278.868 88.8505C293.614 88.8505 305.902 76.7754 305.902 61.5503C305.902 46.3252 293.789 34.6001 278.868 34.6001C263.595 34.6001 251.131 46.5002 251.131 61.5503Z" fill="#231815"/>
<path d="M406.492 21.6468C428.611 21.6468 446.868 39.6719 446.868 62.2471C446.868 84.4722 428.435 102.672 406.141 102.497C383.846 102.322 365.94 84.2973 365.765 61.8971C365.765 39.6719 383.846 21.4718 406.667 21.6468M378.931 62.0721C378.755 76.9472 391.044 89.3723 405.965 89.3723C421.062 89.3723 433.351 77.1222 433.351 62.2471C433.351 47.0219 421.238 34.7719 406.316 34.7719C391.044 34.7719 378.755 47.022 378.755 62.0721" fill="#231815"/>
<path d="M378.754 21.4709L361.2 21.2959L336.447 55.2462V21.2959L322.93 21.4709L322.228 101.097H336.272L336.447 68.1963L359.62 100.922L377.175 101.272L347.682 62.2462L378.754 21.4709Z" fill="#231815"/>
<path d="M493.392 22.5212L492.865 56.2964L464.251 56.1215L464.427 22.3462H450.207L450.032 101.972L464.251 101.797V69.7715L492.865 69.9466V102.147H506.909L507.436 22.3462L493.392 22.5212Z" fill="#231815"/>
<path d="M568.525 102.326H583.622L554.306 22.5259H539.91L510.067 102.151H525.34L532.889 81.8513H561.679L568.701 102.326H568.525ZM536.926 70.6512L547.108 43.526L557.114 70.8262H536.926V70.6512Z" fill="#231815"/>
<path d="M730.727 102.672H746L716.683 23.0469H715.279H702.815H702.288L672.621 102.497H687.367L694.916 82.3723H723.354L730.552 102.497L730.727 102.672ZM699.304 71.1722L709.135 44.047L719.316 71.1722H699.304Z" fill="#231815"/>
<path d="M664.723 23.0509L654.366 22.7009H651.381L627.507 83.7763L604.159 22.7009L600.999 22.5259H590.466H586.955L586.253 102.326H600.472L600.999 50.351L620.66 102.326L621.538 102.151L633.475 102.501L634.002 102.326L654.014 50.351L654.19 102.501H668.585L668.936 23.0509H664.723Z" fill="#231815"/>
</svg>
