<svg width="200" height="31" viewBox="0 0 200 31" fill="none" xmlns="http://www.w3.org/2000/svg">
<path d="M29.5998 1.19922C29.4998 1.69922 29.4998 2.09922 29.3998 2.59922C28.8998 5.19922 28.3998 7.79922 27.9998 10.3992C27.4998 12.8992 27.0998 15.3992 26.5998 17.8992C26.1998 19.8992 25.8998 21.8992 25.4998 23.8992C25.4998 23.9992 25.4998 24.0992 25.4998 24.1992C26.3998 24.1992 27.3998 24.1992 28.2998 24.1992C29.5998 17.0992 30.9998 9.99922 32.2998 2.79922C35.7998 2.79922 39.2998 2.79922 42.8998 2.79922C42.7998 3.09922 42.7998 3.39922 42.6998 3.69922C42.1998 6.69922 41.5998 9.59922 41.0998 12.5992C40.4998 16.0992 39.7998 19.5992 39.1998 23.0992C38.7998 25.2992 38.3998 27.5992 37.9998 29.7992C37.9998 29.8992 37.9998 29.9992 37.8998 29.9992C25.3998 29.9992 12.7998 29.9992 0.299805 29.9992C0.299805 29.8992 0.299805 29.8992 0.299805 29.7992C0.299805 29.6992 0.399805 29.5992 0.399805 29.4992C0.899805 26.8992 1.3998 24.2992 1.8998 21.6992C2.3998 18.8992 2.8998 16.0992 3.4998 13.2992C3.9998 9.69922 4.5998 6.29922 5.2998 2.89922C5.2998 2.79922 5.2998 2.69922 5.3998 2.69922C8.8998 2.69922 12.3998 2.69922 15.9998 2.69922C15.2998 6.29922 14.6998 9.79922 13.9998 13.3992C13.2998 16.8992 11.9998 23.7992 11.9998 23.9992C12.8998 23.9992 13.7998 23.9992 14.7998 23.9992C14.7998 23.8992 14.7998 23.7992 14.8998 23.7992C15.1998 21.8992 15.5998 19.9992 15.8998 18.0992C16.3998 15.4992 16.8998 12.8992 17.2998 10.2992C17.7998 7.69922 18.2998 4.99922 18.7998 2.39922C18.8998 1.99922 18.9998 1.59922 18.9998 1.19922C22.5998 1.19922 26.0998 1.19922 29.5998 1.19922Z" fill="#700019"/>
<path d="M124.3 29.7996C124.4 29.3996 124.5 28.8996 124.6 28.4996C124.9 27.0996 125.2 25.5996 125.5 24.1996C125.5 24.1996 125.5 24.0996 125.5 23.9996C126.2 23.9996 127 23.9996 127.7 23.9996C128.4 23.9996 129.2 23.9996 129.9 23.9996C130.6 23.9996 131.4 23.9996 132.1 23.9996C132.8 23.9996 133.6 23.9996 134.3 23.9996C135 23.9996 135.7 23.9996 136.5 23.9996C137.2 23.9996 138 23.9996 138.7 23.9996C139.4 23.9996 140.2 23.9996 140.9 23.9996C141.6 23.9996 142.4 23.9996 143.1 23.9996C143.8 23.9996 144.6 23.9996 145.3 23.9996C145.6 22.3996 145.9 20.7996 146.2 19.0996C145.7 19.0996 145.3 19.0996 144.8 19.0996C144.3 19.0996 143.9 19.0996 143.4 19.0996C142.9 19.0996 142.5 19.0996 142 19.0996C141.5 19.0996 141.1 19.0996 140.6 19.0996C140.1 19.0996 139.7 19.0996 139.2 19.0996C138.7 19.0996 138.3 19.0996 137.8 19.0996C137.3 19.0996 136.9 19.0996 136.4 19.0996C135.9 19.0996 135.5 19.0996 135 19.0996C134.5 19.0996 134.1 19.0996 133.6 19.0996C133.1 19.0996 132.7 19.0996 132.2 19.0996C131.7 19.0996 131.3 19.0996 130.8 19.0996C130.3 19.0996 129.9 19.0996 129.4 19.0996C128.9 19.0996 128.5 19.0996 128 19.0996C127.5 19.0996 127.1 19.0996 126.5 19.0996C126.9 17.0996 127.3 15.1996 127.7 13.2996C134.2 13.2996 140.7 13.2996 147.2 13.2996C147.5 11.6996 147.8 10.0996 148.1 8.39961C147.9 8.39961 147.8 8.39961 147.7 8.39961C146 8.39961 144.3 8.39961 142.7 8.39961C138.2 8.39961 133.6 8.39961 129.1 8.39961C129 8.39961 128.9 8.39961 128.7 8.39961C129.1 6.39961 129.5 4.49961 129.9 2.59961C139.9 2.59961 149.8 2.59961 159.8 2.59961C159.8 2.79961 159.8 2.89961 159.7 3.09961C159.1 6.29961 158.5 9.39961 157.9 12.5996C157.5 14.6996 157.1 16.7996 156.7 18.8996C156.2 21.5996 155.7 24.2996 155.2 26.9996C155 27.8996 154.9 28.7996 154.7 29.5996C154.7 29.6996 154.7 29.6996 154.6 29.7996C144.6 29.7996 134.4 29.7996 124.3 29.7996Z" fill="#700019"/>
<path d="M184.2 29.7996C184.3 29.0996 184.5 28.4996 184.6 27.7996C185.1 25.2996 185.5 22.8996 186 20.3996C186 20.2996 186 20.1996 186 20.0996C182.8 20.0996 179.6 20.0996 176.4 20.0996C176.7 18.3996 177 16.6996 177.4 14.9996C180.6 14.9996 183.8 14.9996 187 14.9996C187.4 12.7996 187.8 10.5996 188.2 8.39961C184.4 8.39961 180.7 8.39961 176.9 8.39961C176.1 12.4996 175.4 16.4996 174.6 20.5996C171.1 20.5996 167.5 20.5996 164 20.5996C165.1 14.5996 166.2 8.59961 167.4 2.59961C167.5 2.59961 167.6 2.59961 167.8 2.59961C178.4 2.59961 189 2.59961 199.6 2.59961C199.7 2.59961 199.8 2.59961 199.9 2.59961C199.9 2.69961 199.9 2.89961 199.9 2.99961C199.9 3.19961 199.8 3.29961 199.8 3.49961C199.6 4.79961 199.3 5.99961 199.1 7.29961C198.7 9.49961 198.3 11.5996 197.9 13.7996C197.5 15.9996 197.1 18.1996 196.7 20.4996C196.2 22.9996 195.8 25.4996 195.3 27.8996C195.2 28.5996 195 29.1996 194.9 29.8996C191.2 29.7996 187.7 29.7996 184.2 29.7996Z" fill="#700019"/>
<path d="M86.1997 29.7992C86.2997 28.9992 86.4997 28.2992 86.5997 27.4992C86.9997 25.0992 87.4997 22.6992 87.8997 20.2992C88.2997 17.9992 88.7997 15.5992 89.1997 13.2992C89.5997 11.1992 89.9997 9.09922 90.3997 6.99922C90.6997 5.59922 90.8997 4.19922 91.1997 2.89922C91.1997 2.79922 91.1997 2.79922 91.2997 2.69922C94.7997 2.69922 98.2997 2.69922 101.9 2.69922C101.3 6.09922 100.6 9.59922 99.9997 12.9992C107.1 12.9992 114.2 12.9992 121.3 12.9992C121.3 13.2992 120.3 18.3992 120.1 18.7992C113 18.7992 106 18.7992 98.8997 18.7992C98.8997 18.8992 98.7997 18.9992 98.7997 19.0992C98.1997 22.4992 97.4997 25.8992 96.8997 29.2992C96.8997 29.4992 96.7997 29.6992 96.7997 29.7992C93.2997 29.7992 89.7997 29.7992 86.1997 29.7992Z" fill="#700019"/>
<path d="M50.3998 2.69922C50.3998 2.79922 50.3998 2.79922 50.2998 2.89922C50.0998 4.19922 49.7998 5.39922 49.5998 6.69922C49.0998 9.39922 48.5998 12.0992 48.0998 14.7992C47.6998 17.1992 47.1998 19.4992 46.7998 21.8992C46.3998 23.9992 45.9998 26.0992 45.5998 28.2992C45.4998 28.7992 45.3998 29.3992 45.2998 29.8992C56.4998 29.8992 67.5998 29.8992 78.7998 29.8992C78.7998 29.7992 78.7998 29.6992 78.7998 29.5992C78.8998 28.9992 78.9998 28.2992 79.1998 27.6992C79.6998 25.2992 80.0998 22.7992 80.5998 20.3992C81.0998 17.6992 81.5998 14.9992 82.0998 12.3992C82.6998 9.29922 83.1998 6.29922 83.7998 3.19922C83.7998 3.09922 83.7998 2.99922 83.7998 2.79922C72.5998 2.69922 61.4998 2.69922 50.3998 2.69922ZM69.1998 23.9992C65.1998 23.9992 61.0998 23.9992 56.9998 23.9992C57.9998 18.7992 58.8998 13.5992 59.8998 8.39922C63.9998 8.39922 67.9998 8.39922 72.0998 8.39922C72.0998 8.69922 69.2998 23.6992 69.1998 23.9992Z" fill="#700019"/>
</svg>
