<?xml version="1.0" encoding="utf-8"?>
<!-- Generator: Adobe Illustrator 26.0.1, SVG Export Plug-In . SVG Version: 6.00 Build 0)  -->
<svg version="1.1" xmlns="http://www.w3.org/2000/svg" xmlns:xlink="http://www.w3.org/1999/xlink" x="0px" y="0px"
	 viewBox="0 0 200 20" style="enable-background:new 0 0 200 20;" xml:space="preserve">
<style type="text/css">
	.st0{opacity:0.88;fill:#FFFFFF;}
	.st1{opacity:0.1;fill:url(#);}
	.st2{opacity:0.75;fill:#FFFFFF;}
	.st3{fill:none;stroke:#808080;stroke-miterlimit:10;}
	.st4{clip-path:url(#SVGID_00000097465923980468611250000008474231733407193528_);}
	.st5{clip-path:url(#SVGID_00000139292242216905165940000007069850771944963516_);}
	.st6{clip-path:url(#SVGID_00000160878909310513032700000006073537463829892738_);}
	.st7{clip-path:url(#SVGID_00000125561745668577574680000007496315927445419671_);}
	.st8{opacity:0.8;fill:#FFFFFF;stroke:#808080;stroke-width:0.5;stroke-miterlimit:10;}
	.st9{fill:#1D2975;}
	.st10{fill:#FF0000;}
	.st11{fill:#FFFFFF;}
	.st12{opacity:0.65;fill:#F4F4F4;stroke:#808080;stroke-width:0.5;stroke-miterlimit:10;}
	.st13{fill:#666666;}
	.st14{fill:#4D4D4D;}
	.st15{fill:#CCCCCC;}
	.st16{clip-path:url(#SVGID_00000011032401692924795900000004938737249354257588_);}
	.st17{clip-path:url(#SVGID_00000175287685549887828910000003110872861870628509_);}
	.st18{fill:none;stroke:#333333;stroke-width:0.285;stroke-miterlimit:10;}
	.st19{clip-path:url(#SVGID_00000115491623829915493660000008293782739388991110_);}
	.st20{fill:#D62817;}
	.st21{clip-path:url(#SVGID_00000040571361797915141340000004067481578938087869_);}
	.st22{clip-path:url(#SVGID_00000118388851982827483100000008263239286483634579_);}
	.st23{clip-path:url(#SVGID_00000016054816510825647840000007249176680693678993_);}
	.st24{clip-path:url(#SVGID_00000071559569165916820620000008710152877834541962_);}
	.st25{fill:#EDECEA;stroke:#000000;stroke-width:0.579;stroke-linecap:round;stroke-linejoin:round;}
	.st26{fill:#F3DB24;stroke:#000000;stroke-width:0.6188;stroke-linecap:round;stroke-linejoin:round;}
	.st27{fill:#EDECEA;stroke:#000000;stroke-width:0.5777;stroke-linecap:round;stroke-linejoin:round;}
	.st28{fill:none;stroke:#000000;stroke-width:0.5777;stroke-linecap:round;stroke-linejoin:round;}
	.st29{fill:none;stroke:#000000;stroke-width:0.579;stroke-linecap:round;stroke-linejoin:round;}
	.st30{fill:#E2BCA9;}
	.st31{fill:#E2BCA9;stroke:#221714;stroke-width:0.5041;}
	.st32{fill:#FFFFFF;stroke:#000000;stroke-width:0.6188;stroke-linecap:round;stroke-linejoin:round;}
	.st33{fill:#FFFFFF;stroke:#000000;stroke-width:0.579;stroke-linecap:round;stroke-linejoin:round;}
	.st34{stroke:#000000;stroke-width:0.2794;stroke-linecap:round;stroke-linejoin:round;}
	.st35{fill:#555454;stroke:#000000;stroke-width:0.6188;stroke-linecap:round;stroke-linejoin:round;}
	.st36{fill:#EDECEA;stroke:#000000;stroke-width:0.5961;stroke-linecap:round;stroke-linejoin:round;}
	.st37{fill:#B81D46;stroke:#000000;stroke-width:0.637;stroke-linecap:round;stroke-linejoin:round;}
	.st38{fill:#EDECEA;stroke:#000000;stroke-width:0.5948;stroke-linecap:round;stroke-linejoin:round;}
	.st39{fill:none;stroke:#000000;stroke-width:0.5948;stroke-linecap:round;stroke-linejoin:round;}
	.st40{fill:none;stroke:#000000;stroke-width:0.5961;stroke-linecap:round;stroke-linejoin:round;}
	.st41{fill:#FFFFFF;stroke:#000000;stroke-width:0.5961;stroke-linecap:round;stroke-linejoin:round;}
	.st42{stroke:#000000;stroke-width:0.2877;stroke-linecap:round;stroke-linejoin:round;}
	.st43{fill:#FED597;stroke:#040000;stroke-width:0.2696;}
	.st44{fill:#FFECD0;stroke:#040000;stroke-width:0.2696;}
	.st45{fill:#231815;}
	.st46{fill:#040000;}
	.st47{fill:#DE2A2B;}
	.st48{fill:#037FB9;}
	.st49{fill:#E9940D;}
	.st50{fill:#924E41;}
	.st51{fill:#006862;}
	.st52{fill:#4C5256;}
	.st53{fill:none;stroke:#D2ECFA;stroke-width:10.4444;stroke-miterlimit:10;}
	.st54{clip-path:url(#SVGID_00000009583057920018604570000015322573421595304381_);}
	.st55{clip-path:url(#SVGID_00000149361652812110846550000016326181162409404336_);}
	.st56{fill:none;stroke:#00A971;stroke-width:6.0026;stroke-miterlimit:10;}
	.st57{fill:none;stroke:#888888;stroke-width:4.0017;stroke-miterlimit:10;}
	.st58{fill:none;stroke:#0098D8;stroke-width:6.0026;stroke-miterlimit:10;}
	.st59{fill:none;stroke:#95C4CA;stroke-width:1.8116;stroke-miterlimit:10;}
	.st60{fill:none;stroke:#95C4CA;stroke-width:1.8116;stroke-miterlimit:10;stroke-dasharray:5.4133,1.8044;}
	.st61{fill:none;stroke:#95C4CA;stroke-width:1.8116;stroke-miterlimit:10;stroke-dasharray:5.4363,1.8121;}
	.st62{fill:none;stroke:#595757;stroke-width:1.8116;stroke-miterlimit:10;}
	.st63{fill:none;stroke:#595757;stroke-width:1.8116;stroke-miterlimit:10;stroke-dasharray:5.4514,1.8171;}
	.st64{fill:none;stroke:#595757;stroke-width:1.8116;stroke-miterlimit:10;stroke-dasharray:5.3001,1.7667;}
	.st65{fill:none;stroke:#595757;stroke-width:1.8116;stroke-miterlimit:10;stroke-dasharray:5.4632,1.8211;}
	.st66{fill:none;stroke:#595757;stroke-width:1.8116;stroke-miterlimit:10;stroke-dasharray:5.4349,1.8116;}
	.st67{fill:#595757;}
	.st68{fill:#00A971;}
	.st69{fill:#717071;}
	.st70{fill:#FFFFFF;stroke:#FFFFFF;stroke-width:0.6326;stroke-miterlimit:10;}
	.st71{fill:none;stroke:#717071;stroke-width:1.0004;stroke-miterlimit:10;}
	.st72{fill:#0098D8;}
	.st73{fill:#95C4CA;}
	.st74{fill:#888888;}
	.st75{fill:#E5002D;}
	.st76{fill:none;stroke:#717071;stroke-width:0.5222;stroke-miterlimit:10;}
	.st77{clip-path:url(#SVGID_00000088094424405224752770000010458571369197483183_);}
	.st78{fill:#004097;}
	.st79{fill:#0068B6;}
	.st80{clip-path:url(#SVGID_00000109728121790501109180000007866242661079893124_);fill:#0068B6;}
	.st81{clip-path:url(#SVGID_00000109728121790501109180000007866242661079893124_);fill:#00AEEB;}
	.st82{fill:#EF8200;}
	.st83{fill:none;stroke:#0068B6;stroke-width:1.3814;stroke-linejoin:round;}
	.st84{clip-path:url(#SVGID_00000076578452697273742670000006788574987164317313_);}
	.st85{fill:#1B94D3;stroke:#000000;stroke-width:0.6188;stroke-linecap:round;stroke-linejoin:round;}
	.st86{fill:#28A13A;stroke:#000000;stroke-width:0.6188;stroke-linecap:round;stroke-linejoin:round;}
	.st87{fill:none;stroke:#221714;stroke-width:0.5041;stroke-linecap:round;stroke-linejoin:round;}
	.st88{fill:none;stroke:#FF0000;stroke-width:4;stroke-miterlimit:10;}
	.st89{clip-path:url(#SVGID_00000083059647416301340840000009525923793623084422_);}
	.st90{clip-path:url(#SVGID_00000046299432835749584180000014004680264906483891_);}
	.st91{clip-path:url(#SVGID_00000075132863512838866690000000486350324239970726_);}
	.st92{clip-path:url(#SVGID_00000057858078935006486690000010624643245086701698_);fill:#0068B6;}
	.st93{clip-path:url(#SVGID_00000057858078935006486690000010624643245086701698_);fill:#00AEEB;}
	.st94{clip-path:url(#SVGID_00000037668168888540937540000002554632988546421419_);}
	.st95{clip-path:url(#SVGID_00000167366784534679693810000008253111011104036239_);}
	.st96{clip-path:url(#SVGID_00000103251845765479657380000000488194261793223314_);}
	.st97{clip-path:url(#SVGID_00000144324984957946526880000006952730367864256419_);}
	.st98{clip-path:url(#SVGID_00000020394053633225367420000014300897804713471649_);fill:#0068B6;}
	.st99{clip-path:url(#SVGID_00000020394053633225367420000014300897804713471649_);fill:#00AEEB;}
	.st100{clip-path:url(#SVGID_00000060030809514943394070000015232420323375903672_);}
	.st101{clip-path:url(#SVGID_00000121996887684409049580000017742817347307805313_);}
	.st102{clip-path:url(#SVGID_00000011742479026268696590000007282352423361102486_);}
	.st103{fill:#9E9E9F;}
	.st104{fill:#9F9FA0;}
	.st105{fill:#A0A0A1;}
	.st106{fill:#A1A1A2;}
	.st107{fill:#A2A2A3;}
	.st108{fill:#A3A3A4;}
	.st109{fill:#A4A4A5;}
	.st110{fill:#A5A5A6;}
	.st111{fill:#A6A6A7;}
	.st112{fill:#A7A7A8;}
	.st113{fill:#A8A8A9;}
	.st114{fill:#A9A9AA;}
	.st115{fill:#AAAAAB;}
	.st116{fill:#ABABAC;}
	.st117{fill:#ACACAD;}
	.st118{fill:#ADADAE;}
	.st119{fill:#AEAEAF;}
	.st120{fill:#AFAFB0;}
	.st121{fill:#B0B0B1;}
	.st122{fill:#B1B1B2;}
	.st123{fill:#B2B2B3;}
	.st124{fill:#B3B3B4;}
	.st125{fill:#B4B4B5;}
	.st126{fill:#B5B5B6;}
	.st127{fill:#B6B6B7;}
	.st128{fill:#B7B7B7;}
	.st129{fill:#B8B8B8;}
	.st130{fill:#B9B9B9;}
	.st131{fill:#BABABA;}
	.st132{fill:#BBBBBB;}
	.st133{fill:#BCBCBC;}
	.st134{fill:#BDBDBD;}
	.st135{fill:#BEBEBE;}
	.st136{fill:#BFBFBF;}
	.st137{fill:#C0C0C0;}
	.st138{fill:#C1C1C1;}
	.st139{fill:#C2C2C2;}
	.st140{fill:#C3C3C3;}
	.st141{fill:#C4C4C4;}
	.st142{fill:#C5C5C5;}
	.st143{fill:#C6C6C6;}
	.st144{fill:#C7C7C7;}
	.st145{fill:#C8C8C8;}
	.st146{fill:#C9C9C9;}
	.st147{fill:#CACACA;}
	.st148{fill:#CBCBCB;}
	.st149{fill:#CDCDCD;}
	.st150{fill:#CECECE;}
	.st151{fill:#CFCFCF;}
	.st152{fill:#CFCFD0;}
	.st153{fill:#D0D0D1;}
	.st154{fill:#D1D1D2;}
	.st155{fill:#D2D2D3;}
	.st156{fill:#D3D3D4;}
	.st157{fill:#D4D4D5;}
	.st158{fill:#D5D5D6;}
	.st159{fill:#D6D6D7;}
	.st160{fill:#D7D7D8;}
	.st161{fill:#D8D8D9;}
	.st162{fill:#D9D9DA;}
	.st163{fill:#DADADB;}
	.st164{fill:#DBDBDC;}
	.st165{fill:#DCDCDD;}
	.st166{fill:#DDDDDE;}
	.st167{fill:#DEDEDF;}
	.st168{fill:#DFDFE0;}
	.st169{fill:#E0E0E1;}
	.st170{fill:#E1E1E2;}
	.st171{fill:#E2E2E3;}
	.st172{fill:#E3E3E4;}
	.st173{fill:#E4E4E5;}
	.st174{fill:#E5E5E6;}
	.st175{fill:#E6E6E7;}
	.st176{fill:#E7E7E7;}
	.st177{fill:#E8E8E8;}
	.st178{fill:#E9E9E9;}
	.st179{fill:#EAEAEA;}
	.st180{fill:#EBEBEB;}
	.st181{fill:#ECECEC;}
	.st182{fill:#EDEDED;}
	.st183{fill:#EEEEEE;}
	.st184{fill:#EFEFEF;}
	.st185{fill:#F0F0F0;}
	.st186{fill:#F1F1F1;}
	.st187{fill:#F2F2F2;}
	.st188{fill:#F3F3F3;}
	.st189{fill:#F4F4F4;}
	.st190{fill:#F5F5F5;}
	.st191{fill:#F6F6F6;}
	.st192{fill:#F7F7F7;}
	.st193{fill:#F8F8F8;}
	.st194{fill:#F9F9F9;}
	.st195{fill:#FAFAFA;}
	.st196{fill:#FBFBFB;}
	.st197{fill:#FCFCFC;}
	.st198{fill:#FDFDFD;}
	.st199{fill:#FEFEFE;}
	.st200{fill:#E50012;}
	.st201{fill:#009FE8;}
	.st202{fill:#C8231D;}
	.st203{fill-rule:evenodd;clip-rule:evenodd;fill:#231815;}
	.st204{fill:#E60020;}
	.st205{fill:#00A040;}
	.st206{fill:none;stroke:#000000;stroke-miterlimit:10;}
</style>
<g id="レイヤー_5">
</g>
<g id="レイヤー_3">
</g>
<g id="レイヤー_4">
</g>
<g id="レイヤー_1">
	<g>
		<path class="st45" d="M3,3.8l2.2,4.6l2.2-4.6h2.9l-3.9,7.3v5.1H3.9v-5.1L0.1,3.8H3z"/>
		<path class="st45" d="M10.6,16.2l4.3-12.4h2.4l4.3,12.4h-2.7l-0.8-2.4H14l-0.8,2.4H10.6z M14.7,11.7h2.8l-1.4-4.4L14.7,11.7z"/>
		<path class="st45" d="M28.8,10.6l3.4-6.8h2.4v12.4h-2.4V8.5L29.5,14H28l-2.7-5.4v7.6h-2.4V3.8h2.4L28.8,10.6z"/>
		<path class="st45" d="M35.9,16.2l4.3-12.4h2.4L47,16.2h-2.7l-0.8-2.4h-4.1l-0.8,2.4H35.9z M40.1,11.7h2.8l-1.4-4.4L40.1,11.7z"/>
		<path class="st45" d="M57.2,9.7v1.1c0,3.8-1.8,5.5-4.6,5.5c-2.8,0-4.7-1.7-4.7-5.5V9.3c0-4,2-5.7,4.7-5.7c2.6,0,4.2,1.5,4.5,4
			h-2.4c-0.2-1.1-0.9-1.9-2.1-1.9c-1.5,0-2.2,1-2.2,3.4v1.8c0,2.4,0.8,3.4,2.2,3.4c1.4,0,2-0.9,2.1-2.4h-2.1V9.7H57.2z"/>
		<path class="st45" d="M69,3.8v7.4c0,3.7-2,5.2-4.8,5.2c-2.7,0-4.8-1.5-4.8-5.2V3.8H62v7.4c0,2.1,0.7,3.1,2.2,3.1
			c1.5,0,2.2-0.9,2.2-3.1V3.8H69z"/>
		<path class="st45" d="M78.1,7.6c-0.2-1.2-0.9-1.9-2.1-1.9c-1.5,0-2.2,1-2.2,3.4v1.8c0,2.3,0.8,3.4,2.2,3.4c1.3,0,1.9-0.6,2.1-1.9
			h2.4c-0.4,2.8-2,4-4.5,4c-2.8,0-4.7-1.7-4.7-5.5V9.1c0-3.8,2-5.5,4.7-5.5c2.5,0,4.1,1.3,4.5,4H78.1z"/>
		<path class="st45" d="M85,8.7h4.3V3.8h2.5v12.4h-2.5v-5.4H85v5.4h-2.5V3.8H85V8.7z"/>
		<path class="st45" d="M97.2,16.2h-2.5V3.8h2.5V16.2z"/>
		<path class="st45" d="M103.3,16.2l4.3-12.4h2.4l4.3,12.4h-2.7l-0.8-2.4h-4.1l-0.8,2.4H103.3z M107.5,11.7h2.8l-1.4-4.4L107.5,11.7
			z"/>
		<path class="st45" d="M118.1,14.1h5.2v2.1h-7.7V3.8h2.5V14.1z"/>
		<path class="st45" d="M127.1,14.1h5.2v2.1h-7.7V3.8h2.5V14.1z"/>
		<path class="st45" d="M146.4,3.8v2.1H143v10.3h-2.5V5.9h-3.4V3.8H146.4z"/>
		<path class="st45" d="M152.1,16.4c-2.8,0-4.7-1.7-4.7-5.5V9.1c0-3.8,2-5.5,4.7-5.5c2.8,0,4.8,1.7,4.8,5.5v1.8
			C156.9,14.7,154.9,16.4,152.1,16.4z M149.9,10.9c0,2.4,0.8,3.4,2.2,3.4s2.2-1,2.2-3.4V9.1c0-2.4-0.8-3.4-2.2-3.4s-2.2,1-2.2,3.4
			V10.9z"/>
		<path class="st45" d="M160.8,3.8l2.2,4.6l2.2-4.6h2.9l-3.9,7.3v5.1h-2.5v-5.1l-3.9-7.3H160.8z"/>
		<path class="st45" d="M173.8,16.4c-2.8,0-4.7-1.7-4.7-5.5V9.1c0-3.8,2-5.5,4.7-5.5c2.8,0,4.8,1.7,4.8,5.5v1.8
			C178.6,14.7,176.6,16.4,173.8,16.4z M171.6,10.9c0,2.4,0.8,3.4,2.2,3.4c1.5,0,2.2-1,2.2-3.4V9.1c0-2.4-0.8-3.4-2.2-3.4
			c-1.5,0-2.2,1-2.2,3.4V10.9z"/>
		<path class="st45" d="M188.9,3.8v2.1h-3.4v10.3H183V5.9h-3.4V3.8H188.9z"/>
		<path class="st45" d="M189,16.2l4.3-12.4h2.4l4.3,12.4h-2.7l-0.8-2.4h-4.1l-0.8,2.4H189z M193.1,11.7h2.8l-1.4-4.4L193.1,11.7z"/>
	</g>
</g>
<g id="レイヤー_2">
</g>
</svg>
