<svg width="1410" height="177" viewBox="0 0 1410 177" fill="none" xmlns="http://www.w3.org/2000/svg">
<path d="M124.141 118.156C103.165 148.616 70.6762 165.705 26.7156 169.449V144.089C85.1483 136.991 117.149 102.283 122.717 39.9517H56.3995C51.4173 53.5051 44.1881 65.4376 34.7122 75.7633C24.999 86.4803 14.0857 94.221 2 98.9857V70.7332C20.2541 57.8366 31.9211 39.0575 37.0289 14.4099H150.461C150.461 58.0322 141.683 92.6002 124.155 118.156H124.141Z" fill="white" stroke="white" stroke-width="2.09341" stroke-linecap="round" stroke-linejoin="round"/>
<path d="M208.056 61.651C208.056 93.7739 203.549 119.134 194.547 137.718C187.318 152.682 176.056 165.006 160.76 174.689V143.139C167.878 135.524 173.083 126.875 176.405 117.206C180.787 104.044 182.978 86.2427 182.978 63.7888V11.7272H208.042V61.665L208.056 61.651ZM313.841 60.8686C310.882 128.747 281.771 164.866 226.548 169.254V11.6992H251.263V134.797C262.874 130.675 271.946 121.579 278.463 107.509C284.394 94.8638 287.883 79.3123 288.958 60.8686H313.855H313.841Z" fill="white" stroke="white" stroke-width="2.09341" stroke-linecap="round" stroke-linejoin="round"/>
<path d="M445.765 168.485H414.295C398.525 140.107 377.675 108.934 351.717 74.9946H383.188C389.831 83.6436 397.115 93.648 405.056 104.994C431.363 92.3485 447.789 71.5714 454.306 42.6762H332.514V16.9387H484.702C484.702 27.1387 483.222 38.0652 480.25 49.7463C477.291 61.4273 473.37 71.6552 468.513 80.4299C457.376 100.816 441.006 116.046 419.445 126.106C430.581 142.887 439.359 157.013 445.751 168.499L445.765 168.485Z" fill="white" stroke="white" stroke-width="2.09341" stroke-linecap="round" stroke-linejoin="round"/>
<path d="M630.497 94.5424C630.497 115.32 622.612 131.248 606.856 142.342C589.788 154.345 564.486 159.892 530.937 158.984V135.37C580.954 135.37 605.963 122.208 605.963 95.8838C605.963 87.5002 603.116 80.9192 597.436 76.1406C591.268 71.1104 582.266 68.5954 570.418 68.5954C550.503 68.5954 526.68 73.4998 498.95 83.3085V58.3396C527.518 49.0478 551.521 44.4089 570.962 44.4089C590.402 44.4089 606.465 49.2435 616.653 58.9264C625.892 67.7012 630.525 79.5778 630.525 94.5424H630.497Z" fill="white" stroke="white" stroke-width="2.09341" stroke-linecap="round" stroke-linejoin="round"/>
<path d="M793.543 42.8718L778.079 43.4586C761.249 44.1014 745.842 50.1096 731.858 61.4553C717.512 73.3319 710.338 86.4242 710.338 100.746C710.338 115.976 717.037 126.819 730.435 133.26C741.46 138.681 757.523 141.392 778.624 141.392V168.681C748.395 169.589 725.104 164.098 708.747 152.235C692.977 140.749 685.106 124.625 685.106 103.848C685.106 79.5916 696.061 59.4572 718 43.4586L649.547 45.9737V19.8451L793.557 16.7432V42.8718H793.543Z" fill="white" stroke="white" stroke-width="2.09341" stroke-linecap="round" stroke-linejoin="round"/>
<path d="M930.616 94.9335H906.43V104.421H972.748V125.324H922.438C936.896 135.384 955.206 144.354 977.381 152.221L962.798 170.804C939.799 160.87 921.014 149.832 906.444 137.703V175.052H883.333V138.276C868.875 150.153 850.384 160.982 827.859 170.79L813.108 152.207C835.27 144.34 853.524 135.37 867.871 125.31H817.909V104.407H883.333V94.9195H859.33V19.0486H880.138C882.273 13.5015 884.171 7.50731 885.832 1.052L910.184 3.76268C908.286 10.4695 906.751 15.5695 905.565 19.0486H930.63V37.4365C938.919 28.9133 946.274 19.0486 952.68 7.82869L973.306 19.4399C964.891 32.085 956.95 42.0195 949.484 49.2433L930.644 39.5603V68.5952L943.804 54.8463C954.229 61.0361 965.198 69.1122 976.698 79.0467L960.342 96.0792C951.214 87.3045 941.32 79.5637 930.644 72.8569V94.9195L930.616 94.9335ZM858.437 73.8349C849.072 83.0009 838.284 91.4543 826.073 99.1951L814.518 77.3281C830.037 69.0703 842.011 61.5251 850.426 54.6786L858.423 73.8349H858.437ZM858.967 37.0592L839.945 49.8301C832.242 39.2529 824.775 30.2826 817.546 22.933L834.963 10.1621C843.029 17.2601 851.026 26.2305 858.967 37.0592ZM907.687 49.0616V38.6102H882.078V49.0616H907.687ZM907.687 76.35V65.8985H882.078V76.35H907.687Z" fill="white" stroke="white" stroke-width="2.09341" stroke-linecap="round" stroke-linejoin="round"/>
<path d="M1142.18 73.8351C1140.76 105.064 1133.5 128.971 1120.4 145.542C1107.3 162.128 1089.38 170.413 1066.61 170.413C1027.97 170.413 1008.66 150.614 1008.66 110.988V10.9167H1033.19V110.206C1033.19 132.785 1044.4 144.075 1066.8 144.075C1097.26 144.075 1114.02 120.657 1117.11 73.8211H1142.17L1142.18 73.8351Z" fill="white" stroke="white" stroke-width="2.09341" stroke-linecap="round" stroke-linejoin="round"/>
<path d="M1252.95 152.221C1239.92 162.407 1227.41 167.507 1215.44 167.507C1188.17 167.507 1174.55 141.7 1174.55 90.0851C1174.55 67.5054 1176.79 43.3749 1181.3 17.6934H1206.55C1201.45 44.4089 1198.9 69.5594 1198.9 93.173C1198.9 124.402 1205.47 140.009 1218.63 140.009C1226.81 140.009 1238.26 133.554 1252.95 120.657V152.207V152.221ZM1318.92 149.901H1293.67C1293.67 123.451 1291.72 101.193 1287.81 83.1267C1283.3 61.9723 1275.2 41.3908 1263.46 21.3821H1291.37C1300.61 37.8976 1307.38 55.517 1311.64 74.2262C1316.49 95.3946 1318.92 120.615 1318.92 149.901Z" fill="white" stroke="white" stroke-width="2.09341" stroke-linecap="round" stroke-linejoin="round"/>
<path d="M1362.48 137.522L1351.98 167.912H1322.83L1333.49 137.522H1362.48ZM1407.99 10.5535L1363.72 125.911H1339.9L1377.59 10.5535H1408H1407.99Z" fill="white" stroke="white" stroke-width="2.09341" stroke-linecap="round" stroke-linejoin="round"/>
</svg>
