<svg width="720" height="950" viewBox="0 0 720 950" fill="none" xmlns="http://www.w3.org/2000/svg">
<g clip-path="url(#clip0_2019_2)">
<g clip-path="url(#clip1_2019_2)">
<path d="M348.29 -310.503H342.742V569.904H348.29V-310.503Z" fill="#7D7D7D" stroke="#231815" stroke-width="2.07786" stroke-linecap="round" stroke-linejoin="round"/>
<path d="M364.972 -310.503H359.425V569.904H364.972V-310.503Z" fill="#7D7D7D" stroke="#231815" stroke-width="2.07786" stroke-linecap="round" stroke-linejoin="round"/>
<path d="M338.525 645.999C338.525 645.999 327.107 634.399 334.41 623.162C341.712 611.926 348.087 614.548 348.087 606.681H358.759C358.759 606.681 360.453 612.107 356.701 617.352C352.949 622.597 347.906 620.358 343.972 627.096C341.975 630.526 346.211 636.093 346.211 636.093L338.525 646.019V645.999Z" fill="#F39B3A" stroke="#231815" stroke-width="2.17873" stroke-linecap="round" stroke-linejoin="round"/>
<path d="M356.903 609.202H349.943C347.24 609.202 344.88 607.407 344.133 604.825L334.289 570.227C333.885 568.795 334.026 567.262 334.672 565.93L339.029 556.994C340.038 554.916 342.156 553.604 344.456 553.604H362.834C365.235 553.604 367.434 555.037 368.382 557.256L372.316 566.374C372.86 567.665 372.961 569.098 372.578 570.429L362.713 604.845C361.967 607.427 359.606 609.222 356.903 609.222V609.202Z" fill="#F39B3A" stroke="#231815" stroke-width="2.17873" stroke-linecap="round" stroke-linejoin="round"/>
<path d="M348.311 601.617C349.213 601.617 349.945 600.885 349.945 599.983C349.945 599.081 349.213 598.349 348.311 598.349C347.408 598.349 346.677 599.081 346.677 599.983C346.677 600.885 347.408 601.617 348.311 601.617Z" fill="#F39B3A" stroke="#231815" stroke-width="1.45248" stroke-linecap="round" stroke-linejoin="round"/>
<path d="M358.255 601.617C359.158 601.617 359.889 600.885 359.889 599.983C359.889 599.081 359.158 598.349 358.255 598.349C357.353 598.349 356.621 599.081 356.621 599.983C356.621 600.885 357.353 601.617 358.255 601.617Z" fill="#F39B3A" stroke="#231815" stroke-width="1.45248" stroke-linecap="round" stroke-linejoin="round"/>
<path d="M348.311 563.388C349.213 563.388 349.945 562.657 349.945 561.754C349.945 560.852 349.213 560.12 348.311 560.12C347.408 560.12 346.677 560.852 346.677 561.754C346.677 562.657 347.408 563.388 348.311 563.388Z" fill="#F39B3A" stroke="#231815" stroke-width="1.45248" stroke-linecap="round" stroke-linejoin="round"/>
<path d="M358.255 563.388C359.158 563.388 359.889 562.657 359.889 561.754C359.889 560.852 359.158 560.12 358.255 560.12C357.353 560.12 356.621 560.852 356.621 561.754C356.621 562.657 357.353 563.388 358.255 563.388Z" fill="#F39B3A" stroke="#231815" stroke-width="1.45248" stroke-linecap="round" stroke-linejoin="round"/>
<path d="M716.313 811.138L620.005 682.432C615.91 676.481 608.99 672.87 601.667 672.87H554.845C549.075 672.87 543.669 670.045 540.482 665.365L534.571 656.711C531.807 652.656 527.107 650.195 522.083 650.195H378.388C378.388 650.195 378.388 650.094 378.388 650.053C378.388 637.223 367.999 626.834 355.169 626.834C342.338 626.834 331.949 637.223 331.949 650.053C331.949 650.094 331.949 650.154 331.949 650.195H268.484C262.492 650.195 257.166 646.604 255.109 641.217C241.209 604.623 204.917 578.74 162.008 578.74C106.693 578.74 60.5565 621.811 58.9426 675.452C58.8619 678.135 58.9023 680.798 59.0435 683.44C59.3461 688.786 57.4498 694.112 53.9194 698.369L25.3337 732.926C19.4229 740.067 24.3452 750.436 33.6452 750.436H37.1352C42.0978 750.436 44.8414 755.843 41.8961 759.817L3.90959 810.795C-1.79948 818.461 3.4456 828.931 13.0078 828.931H706.912C716.273 828.931 721.558 818.844 716.273 811.158L716.313 811.138ZM354.543 656.509C349.581 656.509 345.546 652.494 345.546 647.512C345.546 642.529 349.561 638.514 354.543 638.514C359.526 638.514 363.541 642.529 363.541 647.512C363.541 652.494 359.526 656.509 354.543 656.509Z" fill="white" stroke="#231815" stroke-width="2.17873" stroke-miterlimit="10"/>
<path d="M336.386 788.645C335.034 788.645 334.429 787.657 335.014 786.446L364.972 725.845C365.577 724.635 364.972 723.646 363.6 723.646H321.538C320.187 723.646 319.541 722.638 320.106 721.427L329.567 700.709C330.132 699.479 331.686 698.49 333.037 698.49H408.97C410.321 698.49 410.987 699.499 410.463 700.75L374.292 786.406C373.767 787.636 372.234 788.665 370.882 788.665H336.346L336.386 788.645Z" fill="#E60012"/>
<path d="M387.607 787.919C386.256 787.919 385.549 786.89 386.013 785.619L393.921 764.174C394.385 762.904 395.878 761.875 397.21 761.875H419.158C420.51 761.875 421.519 760.785 421.418 759.434L420.369 745.554C420.268 744.203 419.078 743.113 417.746 743.113H405.097C403.746 743.113 403.02 742.085 403.484 740.814L409.515 724.191C409.979 722.92 411.452 721.891 412.804 721.891H453.312C454.664 721.891 455.854 722.98 455.955 724.332L457.306 740.673C457.427 742.004 456.398 743.113 455.067 743.113H445.949C444.597 743.113 443.649 744.203 443.83 745.534L445.686 759.434C445.868 760.765 447.119 761.855 448.45 761.855H472.396C473.748 761.855 474.454 762.883 473.99 764.154L465.94 785.599C465.476 786.849 463.984 787.898 462.632 787.898H387.607V787.919Z" fill="#E60012"/>
<path d="M556.176 788.907C554.824 788.907 552.888 788.201 551.859 787.334L525.25 764.619C524.221 763.751 523.092 764.094 522.728 765.385L516.898 786.507C516.535 787.798 515.143 788.867 513.792 788.867H476.572C475.22 788.867 474.514 787.838 474.978 786.567L496.765 727.741C497.229 726.471 496.523 725.442 495.172 725.442H466.102C464.75 725.442 463.54 724.352 463.399 723.001L461.119 700.81C460.978 699.479 461.966 698.369 463.318 698.369H524.847C526.198 698.369 527.631 699.418 528.034 700.709L533.864 719.067C534.268 720.358 534.268 722.436 533.844 723.727L530.576 733.672C530.152 734.943 530.677 736.678 531.726 737.526L594.102 787.253C595.151 788.1 594.909 788.786 593.577 788.786L556.176 788.907Z" fill="#E60012"/>
<path d="M626.621 788.806C625.27 788.806 623.636 787.838 622.99 786.668L608.082 759.394C607.437 758.203 605.803 757.255 604.451 757.255H586.961C585.609 757.255 584.076 756.247 583.551 754.996L576.854 739.341C576.329 738.111 576.995 737.082 578.347 737.082H595.454C596.805 737.082 597.39 736.113 596.765 734.903L590.491 722.92C589.866 721.73 588.252 720.741 586.9 720.741H568.32C566.969 720.741 566.364 721.73 566.969 722.92L573.404 735.67C574.009 736.88 573.404 737.848 572.052 737.848H549.801C548.45 737.848 546.997 736.799 546.553 735.528L534.611 700.749C534.167 699.479 534.913 698.43 536.265 698.43H600.941C602.292 698.43 603.987 699.358 604.733 700.467L661.683 786.728C662.429 787.858 661.925 788.766 660.593 788.766H626.581L626.621 788.806Z" fill="#E60012"/>
<path d="M266.264 788.827C264.913 788.827 263.279 787.858 262.613 786.688L237.295 741.782C236.629 740.612 237.194 739.644 238.546 739.644H266.385C267.737 739.644 269.411 740.592 270.097 741.742L274.152 748.439C274.838 749.589 275.887 749.549 276.472 748.318L287.265 725.583C287.85 724.372 287.204 723.364 285.873 723.364H236.125C234.774 723.364 234.128 722.355 234.673 721.125L243.731 700.628C244.275 699.398 245.829 698.389 247.16 698.389L320.894 698.49C322.245 698.49 322.891 699.499 322.326 700.729L292.328 766.535C291.763 767.765 291.905 769.682 292.651 770.812L303.04 786.749C303.767 787.878 303.282 788.806 301.931 788.806H266.264V788.827Z" fill="#E60012"/>
<path d="M73.2654 788.625C71.9137 788.625 71.4296 787.717 72.176 786.587L112.684 726.329C113.431 725.22 112.946 724.292 111.595 724.292H96.9893C95.6377 724.292 93.9027 725.179 93.116 726.289L82.9688 740.531C82.182 741.621 80.4471 742.529 79.0955 742.529H50.4492C49.0976 742.529 48.674 741.661 49.5213 740.612L81.0321 700.487C81.8592 699.438 83.6547 698.571 84.9861 698.571H157.61C158.962 698.571 159.486 699.519 158.78 700.669L106.511 786.547C105.805 787.697 104.131 788.645 102.799 788.645H73.225L73.2654 788.625Z" fill="#E60012"/>
<path d="M210.404 757.598C209.052 757.638 208.447 756.67 209.032 755.46L236.286 700.064C236.871 698.853 236.266 697.865 234.914 697.865H213.994C212.643 697.865 211.049 698.853 210.424 700.043L165.538 787.858C164.933 789.048 165.538 790.037 166.869 790.057L217.565 790.34C218.917 790.34 220.51 789.371 221.136 788.181L236.185 759.03C236.81 757.84 236.205 756.892 234.854 756.912L210.404 757.578V757.598Z" fill="#E60012"/>
<path d="M203.443 700.064C204.068 698.873 203.463 697.885 202.132 697.885H182.221C180.869 697.885 179.215 698.833 178.529 700.003L144.718 757.356C144.032 758.506 142.378 759.474 141.027 759.474H133.421C132.07 759.474 130.395 760.422 129.709 761.572L114.317 786.829C113.611 787.979 114.135 788.927 115.487 788.927H154.987C156.338 788.927 157.932 787.939 158.557 786.749L169.229 765.99C169.854 764.8 170.339 763.812 170.339 763.812C170.339 763.812 170.843 762.843 171.468 761.633L203.483 700.064H203.443Z" fill="#E60012"/>
<path d="M184.684 683.199C186.318 683.199 189.727 683.138 189.949 683.138C190.615 683.138 190.615 683.32 190.211 683.986C189.586 685.014 189.283 685.519 188.658 686.548C188.254 687.213 188.012 687.395 187.346 687.395C187.125 687.395 183.735 687.334 182.081 687.334H177.542C175.868 687.334 172.095 687.395 171.873 687.395C171.208 687.395 171.188 687.213 171.652 686.548C171.995 686.043 172.156 685.801 172.499 685.297C173.003 684.55 173.265 684.349 174.214 683.925C175.101 683.542 175.848 683.179 176.755 682.694C185.854 677.974 189.969 675.452 191.482 673.072C192.491 671.478 192.128 670.368 189.969 670.368C188.274 670.368 186.116 671.296 184.401 672.406C183.937 672.688 183.695 672.85 183.514 672.85C183.332 672.85 183.271 672.709 183.191 672.446C182.908 671.518 182.787 671.075 182.525 670.147C182.465 669.884 182.465 669.703 182.606 669.501C182.727 669.319 182.969 669.158 183.413 668.896C186.58 667 190.292 665.729 193.378 665.729C198.401 665.729 199.531 668.573 197.252 672.305C194.891 676.178 189.787 679.406 183.655 682.654C183.271 682.856 183.11 682.977 183.05 683.058C182.989 683.138 183.15 683.199 183.514 683.199H184.724H184.684Z" fill="#231815"/>
<path d="M218.272 676.178C214.52 683.4 207.641 687.576 201.73 687.576C195.819 687.576 193.782 683.905 197.897 677.026C201.589 670.832 207.903 665.809 214.359 665.809C219.503 665.809 221.863 669.299 218.272 676.198V676.178ZM203.041 677.167C200.802 681.06 201.347 683.078 204.272 683.078C207.338 683.078 210.848 680.395 213.027 676.36C215.125 672.466 214.399 670.57 211.716 670.57C208.266 670.57 205.079 673.657 203.061 677.167H203.041Z" fill="#231815"/>
<path d="M228.177 683.199C229.811 683.199 233.2 683.138 233.422 683.138C234.087 683.138 234.128 683.32 233.825 683.986C233.361 685.014 233.139 685.519 232.675 686.548C232.373 687.213 232.171 687.395 231.505 687.395C231.283 687.395 227.874 687.334 226.22 687.334H221.681C220.006 687.334 216.254 687.395 216.032 687.395C215.366 687.395 215.326 687.213 215.669 686.548C215.931 686.043 216.052 685.801 216.315 685.297C216.698 684.55 216.92 684.349 217.787 683.925C218.614 683.542 219.3 683.179 220.127 682.694C228.439 677.974 232.171 675.452 233.28 673.072C234.027 671.478 233.482 670.368 231.324 670.368C229.629 670.368 227.632 671.296 226.079 672.406C225.655 672.688 225.433 672.85 225.251 672.85C225.07 672.85 224.989 672.709 224.848 672.446C224.424 671.518 224.202 671.075 223.799 670.147C223.698 669.884 223.658 669.703 223.779 669.501C223.86 669.319 224.081 669.158 224.485 668.896C227.349 667 230.839 665.729 233.926 665.729C238.949 665.729 240.543 668.573 238.869 672.305C237.134 676.178 232.574 679.406 226.966 682.654C226.623 682.856 226.462 682.977 226.422 683.058C226.381 683.138 226.543 683.199 226.906 683.199H228.116H228.177Z" fill="#231815"/>
<path d="M285.611 670.026C286.358 671.135 286.479 672.608 286.095 674.101C285.167 677.651 281.94 679.689 278.329 680.758C277.683 680.96 276.17 681.343 275.565 681.343C275 681.343 274.839 680.839 274.556 679.749C274.435 679.305 274.294 678.438 274.455 677.954C274.576 677.55 274.879 677.429 275.202 677.369C277.239 677.086 280.87 676.32 281.476 674.201C281.758 673.193 281.193 672.426 280.043 672.426C277.945 672.426 274.455 673.959 272.297 675.008C271.913 675.19 271.57 675.412 271.449 675.795C271.349 676.078 271.409 676.279 271.49 676.521C272.216 679.346 273.063 682.13 274.193 684.833C274.294 685.035 274.455 685.438 274.375 685.7C274.173 686.366 270.562 687.879 269.795 687.879C269.452 687.879 269.311 687.697 269.129 687.133C268.827 686.164 268.544 684.954 268.282 683.885C267.879 682.291 267.455 680.677 267.132 679.083C267.031 678.7 266.951 678.337 266.426 678.337C265.962 678.337 263.562 679.911 262.997 680.294C262.795 680.415 262.533 680.576 262.331 680.576C261.585 680.576 260.697 677.611 260.939 676.905C261.04 676.642 261.221 676.562 262.573 675.896C263.138 675.614 263.864 675.25 264.853 674.766C265.296 674.544 265.7 674.302 265.861 673.858C266.063 673.273 265.276 670.772 264.994 670.247C264.853 669.965 264.772 669.783 264.833 669.582C264.954 669.259 265.882 668.976 267.213 668.533C268.02 668.27 269.997 667.544 270.34 667.544C270.521 667.544 270.683 667.665 270.622 667.827C270.582 667.948 270.441 668.17 270.36 668.27C270.32 668.331 270.239 668.452 270.219 668.513C270.118 668.795 270.32 670.671 270.38 671.014C270.441 671.296 270.622 671.458 270.985 671.458C271.308 671.458 271.732 671.256 272.377 670.974C272.66 670.832 272.983 670.691 273.326 670.53C273.87 670.308 274.072 670.207 274.173 669.925C274.294 669.521 273.487 669.279 272.135 668.855C271.873 668.775 271.53 668.654 271.651 668.25C271.792 667.847 272.579 666.818 272.922 666.414C273.85 665.285 274.173 664.901 274.576 664.901C275.081 664.901 277.259 665.829 277.784 666.072C278.51 666.394 279.438 666.878 279.317 667.342C279.216 667.685 278.914 668.049 278.833 668.27C278.772 668.513 278.954 668.654 279.156 668.654C279.277 668.654 279.438 668.634 279.559 668.593C279.983 668.533 280.749 668.472 281.133 668.472C282.646 668.472 284.784 668.855 285.611 670.066V670.026Z" fill="#231815"/>
<path d="M306.147 664.417C306.288 664.438 306.55 664.478 306.49 664.7C306.47 664.841 306.349 665.023 306.187 665.204C305.703 665.789 305.501 666.374 305.38 667.04C305.3 667.423 305.521 667.706 305.905 667.706C306.429 667.706 309.415 667.08 310.202 666.899C310.686 666.778 311.21 666.677 311.452 666.677C311.856 666.677 311.916 667.262 311.916 667.585C311.937 668.311 311.957 669.32 311.836 670.066C311.715 670.772 311.352 670.893 310.363 671.054C308.83 671.317 307.216 671.559 305.663 671.761C304.936 671.841 304.573 671.942 304.472 672.547C304.392 672.951 304.553 673.274 304.997 673.274C305.421 673.274 307.761 672.81 308.285 672.668C308.527 672.608 308.85 672.547 309.052 672.547C309.294 672.547 309.395 672.789 309.455 673.152C309.556 673.758 309.334 675.15 309.193 675.936C309.032 676.864 308.063 677.006 305.199 677.268C303.968 677.389 303.686 677.53 303.585 678.055C303.282 679.648 303.282 679.89 304.17 680.173C305.38 680.576 309.274 682.23 309.052 683.602C308.951 684.248 307.256 686.427 306.248 686.427C305.804 686.427 305.078 685.842 304.109 685.095C303.867 684.893 303.222 684.389 302.859 684.389C302.415 684.389 302.233 684.712 302.011 685.035C300.579 687.294 297.896 687.94 295.415 687.94C294.204 687.94 292.691 687.738 291.743 687.032C290.654 686.245 290.23 684.934 290.553 683.602C290.835 682.352 291.824 681.141 293.074 680.395C294.608 679.507 296.524 679.204 298.118 679.204H298.461C298.884 679.204 299.167 678.942 299.248 678.559C299.369 677.974 299.005 677.772 298.703 677.772C298.158 677.772 296.222 677.913 294.87 677.913C293.7 677.913 293.417 677.873 293.397 677.106C293.397 676.38 293.357 675.412 293.599 674.403C293.7 673.959 293.861 673.556 294.406 673.556C295.273 673.556 296.544 673.697 297.997 673.697H298.804C299.55 673.697 300.135 673.637 300.276 672.991C300.357 672.588 300.196 672.265 299.712 672.265C298.683 672.265 296.847 672.386 295.435 672.386H294.527C293.317 672.386 292.368 672.366 292.288 671.942C292.167 671.216 292.489 669.723 292.691 668.896C292.792 668.492 292.933 667.988 293.498 667.988C294.063 667.988 297.089 668.25 299.046 668.25H299.691C300.397 668.25 300.942 668.19 301.063 667.585C301.124 667.322 301.325 665.688 301.325 665.164C301.325 664.902 301.346 664.619 301.406 664.357C301.487 664.014 301.709 663.913 302.052 663.913C302.596 663.913 305.461 664.296 306.167 664.397L306.147 664.417ZM294.648 683.643C294.487 684.349 295.657 684.369 296.181 684.369C297.028 684.369 298.098 684.167 298.32 683.179C298.4 682.775 298.037 682.735 297.432 682.735C296.807 682.735 294.83 682.795 294.648 683.643Z" fill="#231815"/>
<path d="M332.513 664.357C333.239 665.144 334.228 666.253 335.075 667.242C335.216 667.383 335.438 667.645 335.418 667.907C335.418 668.089 335.236 668.109 334.873 668.109C334.571 668.109 334.369 668.23 334.107 668.392C332.795 669.32 331.464 670.248 330.153 671.236C328.64 672.366 327.207 673.475 325.795 674.645C325.472 674.908 325.13 675.19 325.089 675.614C325.029 676.199 325.936 677.147 326.421 677.671C328.277 679.588 330.415 681.545 332.775 683.683C333.36 684.207 333.764 684.792 333.744 685.135C333.683 686.043 330.597 688.484 329.749 688.484C329.568 688.484 329.164 688.202 328.882 687.839C327.308 685.862 325.13 683.683 323.233 681.706C322.225 680.657 320.954 679.325 320.227 678.196C319.663 677.328 319.38 676.481 319.521 675.412C319.622 674.605 319.965 673.899 320.53 673.233C321.478 672.103 323.738 670.55 325.089 669.562C327.631 667.726 329.406 666.193 331.363 663.953C331.464 663.832 331.585 663.711 331.767 663.711C331.989 663.711 332.231 663.994 332.553 664.357H332.513ZM338.363 673.415C338.323 673.959 336.79 675.049 336.427 675.049C336.306 675.049 336.144 674.867 335.821 674.464C335.136 673.475 334.429 672.749 334.066 672.346C333.925 672.204 333.764 672.063 333.764 671.882C333.804 671.478 335.418 670.449 335.781 670.449C336.043 670.449 338.383 673.011 338.363 673.415ZM339.675 668.351C339.836 668.533 340.401 669.077 340.865 669.602C341.43 670.247 341.873 670.772 341.873 670.994C341.853 671.539 340.34 672.628 339.997 672.628C339.816 672.628 339.654 672.386 339.574 672.285C338.928 671.478 338.283 670.691 337.577 669.965C337.496 669.884 337.294 669.683 337.314 669.521C337.334 669.077 338.948 668.028 339.271 668.028C339.392 668.028 339.554 668.21 339.695 668.351H339.675Z" fill="#231815"/>
<path d="M356.622 665.547C356.622 665.729 356.501 665.83 356.4 665.991C355.976 666.475 355.593 667.524 355.593 667.847C355.593 668.17 355.835 668.311 356.138 668.311C357.045 668.311 359.95 667.383 360.899 667.04C361.141 666.959 361.504 666.798 361.746 666.798C362.19 666.798 362.291 667.181 362.533 668.109C362.714 668.775 362.936 669.844 362.956 670.53C362.976 671.135 362.633 671.256 361.463 671.498C359.809 671.821 357.146 672.204 355.411 672.366C354.968 672.426 354.443 672.487 354.221 672.89C354.1 673.072 353.898 673.919 353.898 674.141C353.898 674.383 354.08 674.484 354.322 674.484C354.443 674.484 354.504 674.464 354.625 674.403C355.835 673.818 357.247 673.495 358.599 673.495C362.613 673.495 365.397 676.138 365.579 679.991C365.902 686.628 358.195 688.081 352.446 688.081C351.114 688.081 350.913 687.839 350.65 686.709C350.529 686.225 350.186 684.752 350.207 684.268C350.207 683.865 350.55 683.542 350.993 683.542C351.437 683.542 352.527 683.804 353.979 683.804C356.702 683.804 361.282 683.098 361.181 679.85C361.141 678.337 360.031 677.49 358.841 677.49C356.723 677.49 354.241 678.66 352.789 680.052C352.486 680.375 352.103 680.839 351.82 681.182C351.599 681.464 351.316 681.767 350.953 681.767C350.166 681.767 348.976 681.161 348.391 680.738C347.907 680.395 347.483 680.092 347.483 679.547C347.483 679.144 347.745 678.7 347.927 678.357C348.371 677.51 349.722 674.423 349.743 673.616C349.743 673.294 349.48 673.092 349.178 673.092C349.037 673.092 346.858 673.354 345.768 673.354C345.204 673.354 344.941 673.152 344.8 672.628C344.619 671.962 344.377 670.268 344.397 669.582C344.397 669.138 344.538 668.835 345.042 668.835C345.284 668.835 347.342 669.037 349.541 669.037C350.872 669.037 351.155 668.956 351.599 664.902C351.679 664.195 351.74 663.671 352.244 663.671C352.789 663.671 356.662 664.74 356.682 665.567L356.622 665.547Z" fill="#231815"/>
<path d="M381.737 670.187C382.282 670.187 382.625 669.804 382.565 669.32C382.544 669.138 382.524 669.037 382.504 668.856C382.323 667.544 382.121 665.83 381.798 664.559C381.798 664.417 381.737 664.296 381.717 664.175C381.677 663.832 381.899 663.732 382.181 663.732C382.827 663.732 384.723 663.913 385.409 663.994C385.53 664.014 385.651 664.014 385.752 664.014C386.317 664.074 386.66 664.095 386.7 664.417C386.72 664.599 386.599 664.74 386.498 664.821C386.196 665.204 386.256 665.547 386.317 666.011C386.438 666.979 386.579 667.907 386.72 668.835C386.72 668.977 386.74 669.037 386.761 669.178C386.821 669.642 387.326 670.046 387.81 670.046H388.818C389.867 670.046 392.571 669.864 392.954 669.864C393.66 669.864 393.942 670.147 394.164 671.438C394.265 672.023 394.305 672.325 394.406 672.931C394.568 673.939 394.366 674.202 393.499 674.202C393.055 674.202 392.55 674.181 392.107 674.181C391.239 674.181 390.392 674.202 389.545 674.202H388.516C387.991 674.202 387.608 674.645 387.668 675.13C388.032 677.47 388.213 678.64 388.596 680.98C388.738 681.726 388.839 682.493 388.939 683.239C389.222 685.297 388.98 686.729 386.7 687.334C385.651 687.617 384.481 687.718 383.372 687.718H383.15C382.504 687.718 381.899 687.698 381.637 687.213C381.173 686.467 380.507 684.692 380.426 683.844C380.386 683.562 380.426 683.32 380.81 683.32C380.931 683.32 381.354 683.36 381.495 683.38C381.899 683.441 382.343 683.461 382.786 683.461C384.38 683.461 384.421 683.179 384.279 682.089C384.057 680.375 383.936 679.507 383.694 677.792C383.674 677.55 383.493 677.389 383.25 677.389C383.008 677.389 382.887 677.51 382.766 677.671C381.314 679.628 378.429 682.291 376.371 683.844C375.968 684.167 374.838 685.035 374.374 685.035C373.628 685.035 370.864 682.977 370.824 682.271C370.824 682.009 371.227 681.787 371.489 681.625C374.314 680.112 376.956 677.994 379.014 675.775C379.216 675.573 379.781 674.988 379.76 674.766C379.76 674.625 379.559 674.363 379.256 674.363C377.945 674.383 377.299 674.403 375.988 674.423C374.959 674.444 372.518 674.565 372.074 674.565C371.288 674.565 371.066 674.302 370.925 672.527C370.884 672.103 370.884 671.882 370.844 671.458C370.763 670.449 370.844 670.227 371.671 670.227C372.438 670.227 373.224 670.288 373.991 670.288C374.495 670.288 375 670.268 375.504 670.268C377.985 670.227 379.236 670.207 381.717 670.147L381.737 670.187Z" fill="#231815"/>
<path d="M416.557 673.435C418.332 673.435 420.229 673.314 420.511 673.314C421.298 673.314 421.499 673.637 421.721 674.484C421.863 675.049 421.943 675.331 422.105 675.876C422.528 677.47 422.629 677.974 421.661 677.974C420.471 677.974 419.038 677.893 417.687 677.893H403.585C402.234 677.893 400.822 677.974 399.672 677.974C398.623 677.974 398.542 677.429 398.26 675.876C398.159 675.331 398.119 675.069 398.018 674.545C397.856 673.677 397.897 673.314 398.683 673.314C399.107 673.314 400.822 673.435 402.718 673.435C408.266 673.435 411.029 673.435 416.577 673.435H416.557Z" fill="#231815"/>
<path d="M432.17 667.121C432.735 667.181 433.239 667.242 433.32 667.464C433.36 667.585 433.28 667.686 433.239 667.746C433.058 668.028 433.078 668.23 433.259 668.856C433.38 669.198 433.522 669.562 433.623 669.905C434.389 672.325 435.156 675.008 435.438 677.349C435.781 680.294 434.974 683.32 433.32 685.438C433.078 685.761 432.695 686.285 432.271 686.285C431.605 686.285 429.547 685.277 428.801 684.893C428.438 684.712 427.813 684.429 427.712 684.046C427.631 683.784 427.833 683.582 427.994 683.401C431.565 679.729 430.839 675.836 429.245 670.55C428.841 669.219 428.115 667.201 428.075 667.08C427.994 666.818 428.135 666.798 428.377 666.798C429.003 666.798 431.383 667.04 432.17 667.121ZM443.084 677.631C443.507 678.821 443.709 679.225 444.254 679.225C445.363 679.225 448.591 674.928 449.217 674C449.317 673.859 449.438 673.617 449.701 673.617C450.124 673.617 450.972 674.524 451.637 675.19C452.041 675.593 452.949 676.521 453.13 676.985C453.332 677.51 452.727 678.236 452.343 678.7C452.283 678.781 452.202 678.882 452.162 678.942C451.173 680.132 450.145 681.303 449.035 682.432C448.107 683.38 447.078 684.288 446.17 685.317C445.948 685.579 445.606 685.983 445.242 685.983C444.758 685.983 442.58 685.095 442.015 684.853C441.409 684.591 440.441 684.147 440.219 683.481C440.038 682.896 439.695 681.585 439.15 679.971C437.94 676.32 437.334 674.484 436.144 670.833C435.963 670.248 435.66 669.299 435.378 668.392C435.156 667.726 434.934 667.04 434.772 666.697C434.732 666.616 434.692 666.556 434.672 666.475C434.611 666.273 434.732 666.233 434.914 666.233C434.974 666.233 436.205 666.354 436.447 666.374C436.931 666.435 439.09 666.657 439.493 666.717C439.735 666.758 439.937 666.798 440.017 667.04C440.078 667.222 439.977 667.322 439.896 667.443C439.695 667.726 439.856 668.17 439.977 668.553C440.26 669.4 440.562 670.288 440.865 671.176C441.773 673.758 442.216 675.049 443.104 677.631H443.084Z" fill="#231815"/>
<path d="M469.753 684.449C470.177 685.418 470.621 686.366 471.064 687.354C471.67 688.746 471.629 688.867 469.551 688.867H468.119C466.848 688.867 466.404 688.726 466.082 687.96C465.597 686.79 465.174 685.66 464.69 684.49C461.865 677.772 460.473 674.423 457.649 667.706C457.145 666.515 456.459 665.002 456.076 664.095C455.914 663.711 455.894 663.55 456.298 663.55C456.64 663.55 460.231 663.933 461.018 664.135C461.22 664.195 461.422 664.316 461.482 664.478C461.543 664.619 461.502 664.74 461.462 664.821C461.401 665.022 461.341 665.265 461.603 665.87C462.592 668.129 463.096 669.259 464.084 671.518C464.145 671.66 464.286 671.922 464.629 671.922C464.811 671.922 464.932 671.801 465.093 671.801C465.335 671.801 465.819 672.002 466.404 672.265C467.615 672.85 469.289 673.778 469.814 674.06C470.843 674.645 472.719 675.755 473.687 676.42C473.869 676.562 474.03 676.703 474.111 676.884C474.393 677.469 473.223 679.83 472.517 679.83C472.234 679.83 471.791 679.547 471.528 679.366C470.802 678.902 467.312 676.743 466.828 676.743C466.404 676.743 466.546 677.147 466.667 677.449C467.897 680.233 468.502 681.645 469.733 684.429L469.753 684.449Z" fill="#231815"/>
<path d="M489.987 666.394C490.754 666.394 491.44 666.374 491.985 666.374C493.619 666.374 494.587 666.576 495.394 668.008C495.959 668.997 496.443 669.965 496.987 670.913C499.65 675.573 500.982 677.913 503.625 682.573C504.129 683.441 504.674 684.308 505.178 685.196C505.844 686.366 505.844 686.527 504.29 686.527H502.616C501.547 686.527 501.305 686.386 500.921 685.922C500.437 685.337 499.993 685.277 498.924 685.277H487.445C486.961 685.297 486.457 685.337 485.953 685.337C485.206 685.337 484.843 684.813 483.895 682.896C483.754 682.634 483.693 682.493 483.572 682.23C483.108 681.302 482.987 680.919 483.734 680.919C484.077 680.919 484.682 680.939 485.105 680.98C489.927 680.98 492.348 680.98 497.169 680.98C497.633 680.98 497.815 680.637 497.573 680.193C497.25 679.608 497.088 679.325 496.766 678.74C496.524 678.297 495.959 677.954 495.495 677.954H484.944C484.198 677.954 483.229 678.014 482.644 678.014C481.918 678.014 481.656 677.691 481.03 676.441C480.808 675.997 480.687 675.755 480.465 675.311C479.78 673.919 479.719 673.677 480.385 673.677C480.748 673.677 481.656 673.737 482.705 673.737H493.175C493.619 673.737 493.8 673.394 493.558 672.951C493.235 672.366 493.074 672.083 492.751 671.498C492.509 671.054 491.964 670.711 491.52 670.711H482.765C481.656 670.732 480.445 670.671 479.396 670.772C479.174 670.772 478.973 670.792 478.731 670.792C477.924 670.792 477.682 670.288 476.955 668.815C476.774 668.432 476.673 668.23 476.471 667.847C475.846 666.596 475.785 666.334 476.431 666.334C476.834 666.334 477.258 666.354 477.682 666.394C482.584 666.394 485.045 666.394 489.947 666.394H489.987Z" fill="#231815"/>
<path d="M517.927 667.827C518.492 667.827 518.976 667.806 519.481 667.685C519.541 667.665 519.622 667.625 519.702 667.625C520.348 667.625 522.809 669.42 523.213 670.046C523.313 670.187 523.334 670.288 523.334 670.389C523.354 670.832 523.495 671.317 523.616 671.821C524.02 673.556 524.302 675.291 524.403 676.945C524.403 677.187 524.403 677.389 524.584 677.651C524.827 678.034 525.21 678.236 525.633 678.438C526.118 678.68 527.974 679.547 528.216 679.931C528.559 680.455 528.155 683.017 527.368 683.017C527.146 683.017 526.945 682.896 526.703 682.755C526.198 682.473 524.645 681.565 524.241 681.565C523.959 681.565 523.858 681.746 523.818 681.908C523.233 683.562 522.244 685.014 520.873 686.184C520.267 686.729 517.988 688.303 516.939 688.303C516.212 688.303 514.901 687.435 514.215 686.971C513.671 686.608 512.117 685.519 511.895 685.135C511.714 684.813 512.016 684.692 512.622 684.53C512.743 684.47 512.884 684.45 513.045 684.389C516.414 683.32 519.097 679.911 518.573 679.104C518.411 678.841 518.129 678.7 517.847 678.579C516.999 678.196 515.466 677.671 514.578 677.389C514.235 677.268 513.429 677.006 513.227 676.683C512.944 676.219 512.965 673.576 513.893 673.576C514.316 673.576 517.463 674.827 518.169 675.109C518.411 675.19 518.694 675.311 518.916 675.311C519.44 675.311 519.38 674.847 519.279 674.302C519.238 673.959 519.057 672.789 518.815 672.446C518.492 671.962 517.806 671.902 517.403 671.902H513.328C512.48 671.902 512.279 671.962 512.218 672.507C512.057 673.818 511.613 675.351 511.149 676.542C510.988 676.884 510.725 677.55 510.221 677.55C509.858 677.55 508.547 676.985 507.376 676.42C506.307 675.896 505.319 675.311 505.178 675.089C504.996 674.807 505.238 674.565 505.359 674.423C507.235 672.184 507.881 667.443 506.892 663.832C506.812 663.57 506.67 663.106 506.993 663.106C507.215 663.106 509.596 663.893 511.23 664.478C511.875 664.68 512.42 664.881 512.662 664.962C512.823 665.023 512.944 665.083 513.005 665.164C513.106 665.305 513.086 665.365 512.884 665.487C512.521 665.668 512.561 665.89 512.601 666.414C512.601 666.677 512.581 667.121 512.763 667.403C512.985 667.746 513.307 667.847 513.63 667.867H517.968L517.927 667.827Z" fill="#231815"/>
<path d="M85.9336 677.247C85.9336 677.247 85.8933 678.014 85.8933 679.164C85.8731 680.313 85.8932 681.847 85.9739 683.4C86.095 686.487 86.5388 689.573 86.5388 689.573L84.6627 689.997C84.6627 689.997 83.9566 686.89 83.5531 683.743C83.3514 682.169 83.19 680.596 83.1093 679.406C83.0085 678.215 82.9883 677.429 82.9883 677.429L85.9538 677.267L85.9336 677.247Z" fill="#C9251D"/>
<path d="M90.0894 655.097C90.0894 655.097 89.8474 655.803 89.5044 656.872C89.343 657.396 89.101 658.022 88.9194 658.688C88.7378 659.374 88.5361 660.08 88.3344 660.806C88.2335 661.169 88.1326 661.532 88.0318 661.895C87.9511 662.258 87.8704 662.601 87.7897 662.964C87.6283 663.65 87.4871 664.296 87.366 664.84C87.2248 665.385 87.1643 665.849 87.1038 666.192C87.0433 666.515 87.0231 666.696 87.0231 666.696H81.8184C81.8184 666.696 81.8184 666.495 81.8184 666.111C81.8184 665.748 81.8184 665.224 81.8385 664.578C81.8587 663.953 81.899 663.206 81.9394 662.42C81.9394 662.016 81.9797 661.613 81.9999 661.209C82.0403 660.786 82.0806 660.382 82.121 659.958C82.2016 659.111 82.2823 658.264 82.363 657.477C82.4437 656.69 82.5648 655.964 82.6656 655.319C82.8472 654.048 82.9682 653.221 82.9682 653.221L90.0894 655.097Z" fill="#C9251D"/>
<path d="M100.518 635.851C100.518 635.851 100.054 636.416 99.4491 637.304C98.8237 638.192 97.9563 639.362 97.2099 640.612C96.8266 641.238 96.4029 641.843 96.06 642.428C95.717 643.033 95.3943 643.578 95.132 644.062C94.8496 644.546 94.6277 644.929 94.4663 645.212C94.3251 645.494 94.2444 645.656 94.2444 645.656L88.8984 643.437C88.8984 643.437 88.9791 643.255 89.1002 642.932C89.2414 642.61 89.4431 642.166 89.7054 641.621C89.9475 641.076 90.2501 640.451 90.5527 639.785C90.8553 639.12 91.2587 638.413 91.6017 637.707C92.3077 636.295 93.1147 634.924 93.7199 633.915C94.3049 632.886 94.7487 632.22 94.7487 632.22L100.538 635.831L100.518 635.851Z" fill="#C9251D"/>
<path d="M115.849 621.125C115.849 621.125 115.264 621.528 114.417 622.133C113.57 622.779 112.46 623.646 111.351 624.534C110.806 624.998 110.282 625.462 109.777 625.906C109.515 626.128 109.273 626.33 109.051 626.531C108.829 626.733 108.627 626.935 108.426 627.116C107.659 627.863 107.134 628.347 107.134 628.347L97.5723 621.528C97.5723 621.528 98.0968 620.822 98.8835 619.753C99.0853 619.491 99.287 619.188 99.5291 618.886C99.7712 618.583 100.013 618.28 100.276 617.958C100.8 617.312 101.365 616.626 101.93 615.94C103.08 614.609 104.29 613.277 105.198 612.309C106.146 611.361 106.771 610.715 106.771 610.715L115.89 621.105L115.849 621.125Z" fill="#C9251D"/>
<path d="M134.371 612.006C134.371 612.006 133.725 612.228 132.757 612.551C132.272 612.712 131.687 612.894 131.102 613.116C130.497 613.358 129.872 613.6 129.226 613.842C128.904 613.963 128.581 614.084 128.278 614.225C127.976 614.367 127.673 614.508 127.37 614.629C126.785 614.891 126.22 615.133 125.756 615.355C125.272 615.557 124.909 615.779 124.627 615.9C124.365 616.041 124.203 616.122 124.203 616.122L119.019 607.972C119.019 607.972 119.18 607.871 119.483 607.689C119.785 607.508 120.189 607.225 120.693 606.943C121.197 606.66 121.802 606.317 122.448 605.954C122.771 605.773 123.094 605.591 123.437 605.389C123.779 605.208 124.143 605.026 124.486 604.845C125.192 604.482 125.898 604.139 126.543 603.796C127.209 603.453 127.834 603.211 128.379 602.949C129.468 602.464 130.174 602.142 130.174 602.142L134.35 611.986L134.371 612.006Z" fill="#C9251D"/>
<path d="M154.159 609.122C154.159 609.122 153.998 609.122 153.695 609.122C153.413 609.122 152.989 609.122 152.505 609.142C152.001 609.142 151.436 609.162 150.81 609.182C150.185 609.182 149.519 609.263 148.853 609.303C148.188 609.364 147.522 609.384 146.897 609.465C146.271 609.545 145.686 609.626 145.202 609.687C144.698 609.747 144.294 609.808 143.992 609.828C143.709 609.868 143.528 609.908 143.528 609.908L138.484 594.274C138.484 594.274 138.706 594.193 139.09 594.052C139.473 593.931 140.038 593.75 140.683 593.548C141.349 593.346 142.116 593.104 142.963 592.842C143.79 592.6 144.698 592.378 145.606 592.156C146.513 591.934 147.401 591.672 148.268 591.51C149.116 591.329 149.923 591.167 150.609 591.026C151.294 590.885 151.859 590.784 152.263 590.703C152.666 590.643 152.888 590.603 152.888 590.603L154.139 609.142L154.159 609.122Z" fill="#C9251D"/>
<path d="M173.325 612.289C173.325 612.289 172.719 612.107 171.791 611.845C171.328 611.704 170.783 611.542 170.218 611.361C169.936 611.28 169.633 611.159 169.33 611.099C169.028 611.038 168.705 610.957 168.382 610.897C167.111 610.614 165.84 610.332 164.892 610.13C163.924 609.989 163.278 609.908 163.278 609.908L163.924 596.392C163.924 596.392 164.711 596.433 165.881 596.473C167.051 596.614 168.604 596.796 170.178 596.977C170.561 597.018 170.964 597.058 171.348 597.118C171.731 597.159 172.094 597.26 172.457 597.32C173.183 597.461 173.849 597.582 174.434 597.703C175.584 597.925 176.371 598.067 176.371 598.067L173.325 612.309V612.289Z" fill="#C9251D"/>
<path d="M189.988 620.842C189.988 620.842 189.867 620.741 189.645 620.58C189.544 620.499 189.403 620.399 189.262 620.277C189.1 620.177 188.919 620.056 188.737 619.935C187.951 619.43 186.922 618.744 185.873 618.058C184.804 617.433 183.694 616.848 182.867 616.384C182.463 616.162 182.12 615.96 181.878 615.819C181.636 615.698 181.495 615.638 181.495 615.638L189.262 596.11C189.262 596.11 189.504 596.17 189.907 596.291C190.311 596.412 190.876 596.614 191.562 596.836C192.933 597.3 194.789 597.905 196.605 598.591C198.4 599.338 200.196 600.104 201.547 600.669C201.89 600.81 202.193 600.951 202.475 601.072C202.738 601.214 202.98 601.314 203.161 601.415C203.545 601.597 203.767 601.718 203.767 601.718L189.988 620.863V620.842Z" fill="#C9251D"/>
<path d="M202.838 633.693C202.838 633.693 202.475 633.209 201.95 632.483C201.446 631.716 200.619 630.848 199.852 629.921C199.469 629.457 199.066 628.993 198.702 628.549C198.299 628.145 197.936 627.762 197.613 627.459C196.968 626.814 196.544 626.37 196.544 626.37L207.236 612.652C207.236 612.652 207.841 613.156 208.749 613.883C209.213 614.246 209.737 614.69 210.302 615.154C210.847 615.658 211.412 616.203 211.977 616.727C213.106 617.796 214.297 618.845 215.063 619.733C215.87 620.6 216.395 621.165 216.395 621.165L202.858 633.653L202.838 633.693Z" fill="#C9251D"/>
<path d="M210.888 649.247C210.888 649.247 210.686 648.702 210.384 647.895C210.242 647.491 210.061 647.007 209.879 646.503C209.698 645.999 209.516 645.434 209.234 644.909C208.75 643.86 208.265 642.791 207.902 641.984C207.499 641.218 207.196 640.693 207.196 640.693L230.053 623.162C230.053 623.162 230.214 623.364 230.497 623.707C230.779 624.05 231.182 624.534 231.626 625.139C232.494 626.39 233.664 628.044 234.834 629.699C235.439 630.526 235.943 631.393 236.448 632.2C236.932 633.007 237.396 633.774 237.799 634.439C238.586 635.751 239.111 636.638 239.111 636.638L210.908 649.247H210.888Z" fill="#C9251D"/>
<path d="M194.91 637.082L156.056 660.019C155.33 659.716 154.543 659.474 153.736 659.333C147.523 658.183 141.572 662.278 140.422 668.492C139.272 674.705 143.367 680.656 149.581 681.806C155.794 682.956 161.745 678.861 162.895 672.647C163.198 671.034 163.137 669.42 162.774 667.907L194.91 637.082Z" fill="#C9251D"/>
<path d="M249.883 673.999C254.382 673.999 256.984 676.118 256.056 680.293C255.209 684.106 251.84 688.403 244.678 688.403C242.661 688.403 240.422 687.899 238.99 687.031C238.626 686.809 238.485 686.628 238.566 686.346C238.606 686.184 238.727 686.003 238.869 685.76L240.644 682.977C240.926 682.553 241.108 682.371 241.31 682.371C241.431 682.371 241.572 682.452 241.794 682.654C242.923 683.562 244.537 683.965 245.97 683.965C248.996 683.965 250.589 682.553 251.053 680.657C251.517 678.76 249.964 677.893 247.826 677.893C246.716 677.893 245.748 678.034 245.001 678.276C244.557 678.417 244.255 678.478 243.993 678.478C243.73 678.478 243.488 678.417 243.125 678.296L242.54 678.115C242.016 677.933 241.874 677.792 241.995 677.348C242.016 677.268 242.056 677.106 242.137 676.965C242.52 675.976 242.823 675.129 243.206 674.06L244.537 670.247C244.921 669.158 245.243 668.27 245.506 667.342C245.707 666.676 245.849 666.555 246.413 666.555C246.777 666.555 249.803 666.616 251.255 666.616H252.99C254.463 666.616 257.63 666.555 257.832 666.555C258.417 666.555 258.477 666.717 258.336 667.342L257.71 670.146C257.569 670.792 257.408 670.953 256.823 670.953C256.621 670.953 253.414 670.893 251.941 670.893H249.48C248.754 670.893 248.592 671.014 248.35 671.74L247.947 672.991C247.866 673.213 247.745 673.556 247.725 673.656C247.644 673.999 247.725 674.12 248.068 674.12C248.33 674.12 249.137 673.999 249.903 673.999H249.883Z" fill="#231815"/>
<path d="M670.499 801.556H626.601C620.774 801.556 616.051 806.279 616.051 812.106C616.051 817.933 620.774 822.657 626.601 822.657H670.499C676.326 822.657 681.049 817.933 681.049 812.106C681.049 806.279 676.326 801.556 670.499 801.556Z" fill="white"/>
<path d="M624.866 809.08C624.866 808.556 624.866 808.314 624.826 808.031H626.439C626.399 808.294 626.399 808.515 626.399 809.06V809.524H628.295V809.08C628.295 808.556 628.295 808.334 628.255 808.051H629.869C629.829 808.354 629.829 808.576 629.829 809.1V809.524H630.373C630.878 809.524 631.221 809.504 631.543 809.464V811.017C631.221 810.977 630.857 810.956 630.373 810.956H629.829V812.691H630.555C631.12 812.691 631.624 812.691 631.927 812.631V814.184C631.604 814.144 631.12 814.124 630.575 814.124H629.244C630.01 814.91 630.656 815.294 632.027 815.798C631.604 816.262 631.382 816.565 631.039 817.15C629.627 816.504 628.88 815.959 627.852 814.83L629.102 814.124H625.532L626.843 814.83C625.895 815.959 625.128 816.544 623.817 817.15C623.494 816.625 623.232 816.302 622.788 815.859C623.635 815.536 624.2 815.253 624.725 814.85C625.027 814.628 625.169 814.487 625.451 814.144H624.2C623.635 814.144 623.151 814.164 622.828 814.204V812.651C623.151 812.691 623.635 812.711 624.2 812.711H624.906V810.977H624.382C623.898 810.977 623.555 810.977 623.212 811.037V809.484C623.555 809.524 623.877 809.544 624.382 809.544H624.906V809.1L624.866 809.08ZM628.275 812.691V810.956H626.379V812.691H628.275Z" fill="#231815"/>
<path d="M640.682 811.178C641.085 811.178 641.307 811.178 641.569 811.138V812.409C641.368 812.389 641.166 812.389 640.843 812.389H639.492V812.732H640.5C640.964 812.732 641.065 812.732 641.267 812.712V813.841C641.065 813.821 640.904 813.821 640.5 813.821H639.492V814.164H640.5C640.964 814.164 641.085 814.164 641.267 814.144V815.274C641.045 815.274 640.924 815.253 640.5 815.253H639.471V815.616H640.843C641.327 815.616 641.408 815.616 641.59 815.596V816.887C641.146 816.847 640.762 816.827 640.379 816.827H636.788V817.19H635.296C635.336 816.847 635.356 816.605 635.356 816V814.083C635.356 814.083 635.356 813.781 635.356 813.579C635.215 813.781 635.094 813.922 634.973 814.023C634.791 813.579 634.731 813.438 634.61 813.176V816C634.61 816.444 634.63 816.787 634.67 817.19H633.097C633.137 816.726 633.157 816.524 633.157 816.04V813.68C633.157 813.458 633.157 812.933 633.157 812.611C632.955 812.893 632.794 813.115 632.653 813.256C632.552 812.49 632.431 812.005 632.209 811.36C632.794 810.694 633.177 809.968 633.48 808.979C633.601 808.576 633.702 808.152 633.742 807.83L635.195 808.314V808.253H636.647C636.627 808.475 636.627 808.697 636.627 808.899V809.262H637.535V808.717C637.535 808.394 637.535 808.132 637.494 807.951H639.007C638.987 808.152 638.967 808.394 638.967 808.717V809.242H639.895V808.879C639.895 808.616 639.895 808.516 639.875 808.253H641.368C641.347 808.495 641.327 808.717 641.327 809.04V809.867C641.327 810.351 641.327 810.371 641.348 810.573C641.126 810.573 641.005 810.573 640.682 810.573H638.785L640.077 810.795C639.956 811.037 639.915 811.098 639.814 811.239H640.621L640.682 811.178ZM635.921 810.492C635.618 810.492 635.558 810.493 635.255 810.513C635.255 810.311 635.255 810.23 635.255 809.766V808.758C635.255 808.616 635.255 808.455 635.255 808.334C635.195 808.495 635.174 808.556 635.114 808.737C634.973 809.161 634.852 809.504 634.67 809.968V812.369C635.336 811.743 635.8 811.138 636.042 810.492H635.921ZM637.555 810.714C637.555 810.714 637.515 810.795 637.494 810.835C637.394 810.997 637.373 811.017 637.252 811.178H638.362C638.543 810.856 638.604 810.755 638.685 810.513H636.203L637.555 810.735V810.714ZM638.12 812.732V812.389H636.829V812.732H638.12ZM636.829 814.124H638.12V813.781H636.829V814.124ZM636.829 815.576H638.12V815.213H636.829V815.576Z" fill="#231815"/>
<path d="M645.323 811.481H643.346V809.504H645.323V811.481ZM643.346 815.495V813.518H645.323V815.495H643.346Z" fill="#231815"/>
<path d="M650.991 811.158H650.164C649.902 811.158 649.7 811.158 649.498 811.178V809.948C649.68 809.968 649.861 809.988 650.164 809.988H650.991V809.464H649.175V810.452C649.175 814.103 648.913 815.596 648.026 817.21C647.622 816.645 647.279 816.282 646.795 815.939C647.541 814.709 647.703 813.559 647.703 809.443C647.703 808.879 647.683 808.495 647.642 808.092C647.985 808.132 648.207 808.132 648.772 808.132H654.703C655.288 808.132 655.51 808.132 655.812 808.092C655.772 808.515 655.772 808.778 655.772 809.343V815.818C655.772 816.343 655.631 816.686 655.328 816.847C655.086 816.968 654.683 817.029 653.997 817.029C653.775 817.029 653.593 817.029 653.19 817.029C653.129 816.625 653.069 816.403 652.928 816.02H650.91V816.464H649.438C649.458 816.222 649.478 815.98 649.478 815.657V813.801C649.478 813.478 649.478 813.337 649.438 813.115C649.801 813.135 649.861 813.135 650.164 813.135H653.109C653.573 813.135 653.674 813.135 653.876 813.115C653.856 813.357 653.835 813.518 653.835 813.841V815.616H653.957C654.279 815.616 654.32 815.616 654.32 815.415V809.464H652.423V809.988H653.291C653.573 809.988 653.755 809.988 653.957 809.948V811.178C653.735 811.158 653.553 811.158 653.291 811.158H652.423V811.582H653.23C653.674 811.582 653.916 811.582 654.118 811.541V812.832C653.876 812.812 653.674 812.792 653.25 812.792H650.204C649.781 812.792 649.559 812.792 649.337 812.832V811.541C649.539 811.562 649.74 811.582 650.204 811.582H650.991V811.158ZM650.87 814.83H652.403V814.305H650.87V814.83Z" fill="#231815"/>
<path d="M658.959 812.469C659.201 812.489 659.322 812.489 659.685 812.489C659.605 812.227 659.524 812.046 659.362 811.783L660.633 811.582H658.697V815.919C658.697 816.524 658.697 816.766 658.737 817.089H657.143C657.184 816.746 657.204 816.383 657.204 815.818V811.138C657.204 810.734 657.204 810.513 657.164 810.25C657.466 810.27 657.749 810.291 658.172 810.291H660.533V809.847H658.092C657.607 809.847 657.204 809.867 656.841 809.907V808.455C657.143 808.495 657.567 808.515 658.092 808.515H660.533C660.533 808.213 660.533 808.092 660.472 807.85H662.106C662.066 808.072 662.066 808.213 662.046 808.515H664.567C665.112 808.515 665.556 808.515 665.818 808.455V809.907C665.455 809.867 665.051 809.847 664.567 809.847H662.046V810.291H664.608C665.051 810.291 665.293 810.291 665.536 810.25C665.515 810.533 665.495 810.755 665.495 811.138V815.616C665.495 816.786 665.193 817.049 663.881 817.049C663.619 817.049 663.296 817.049 662.933 817.028C662.913 816.504 662.832 816.181 662.59 815.616C662.994 815.657 663.337 815.677 663.619 815.677C663.901 815.677 663.982 815.637 663.982 815.415V811.561H661.965L663.236 811.763C663.236 811.763 663.195 811.864 663.074 812.126C663.034 812.227 662.994 812.308 662.913 812.449C663.357 812.449 663.498 812.449 663.72 812.429V813.68C663.438 813.68 663.296 813.66 662.873 813.66H662.005V814.124H662.873C663.316 814.124 663.417 814.123 663.659 814.103V815.354C663.377 815.334 663.296 815.334 662.852 815.334H662.025V815.677C662.025 816.201 662.046 816.544 662.066 816.907H660.512C660.553 816.544 660.573 816.201 660.573 815.677V815.334H659.927C659.504 815.334 659.342 815.334 659.04 815.354V814.103C659.342 814.123 659.463 814.124 659.968 814.124H660.593V813.66H659.665C659.302 813.66 659.181 813.66 658.979 813.68V812.429L658.959 812.469ZM661.521 812.51C661.703 812.167 661.803 811.925 661.884 811.622H660.714C660.896 811.965 660.976 812.147 661.077 812.51H661.501H661.521Z" fill="#231815"/>
<path d="M670.215 808.515C670.215 808.293 670.195 808.071 670.155 807.89H671.849C671.809 808.092 671.789 808.293 671.789 808.515V808.899H674.29C674.875 808.899 675.238 808.878 675.642 808.838V810.351C675.238 810.311 674.996 810.311 674.331 810.311H667.855C667.391 810.311 666.967 810.331 666.523 810.351V808.838C666.967 808.878 667.31 808.899 667.895 808.899H670.215V808.535V808.515ZM670.215 811.057C670.215 810.815 670.215 810.694 670.195 810.472H671.809C671.789 810.593 671.789 810.734 671.789 811.057H674.048C674.512 811.057 674.774 811.057 675.037 811.017C675.016 811.299 674.996 811.521 674.996 811.905V814.83C674.996 815.979 674.673 816.262 673.342 816.262C673.12 816.262 672.878 816.262 672.495 816.242C672.434 815.657 672.374 815.394 672.132 814.789C672.414 814.83 672.797 814.87 672.979 814.87C673.382 814.87 673.483 814.809 673.483 814.547V812.429H671.769V815.798C671.769 816.322 671.789 816.706 671.829 817.129H670.134C670.175 816.706 670.195 816.322 670.195 815.798V812.429H668.642V815.092C668.642 815.697 668.642 815.979 668.682 816.343H667.028C667.068 815.939 667.088 815.556 667.088 815.092V811.905C667.088 811.602 667.088 811.319 667.048 811.017C667.391 811.037 667.694 811.057 668.137 811.057H670.175H670.215Z" fill="#231815"/>
<path d="M584.198 799.316H587.547V798.045H581.172V799.316H582.726V800.345H580.85V801.616H582.726V802.907C582.726 804.017 583.291 804.541 584.501 804.541H587.608V803.25H585.066C584.319 803.25 584.219 803.008 584.219 802.463V801.596H587.89V800.325H584.219V799.316H584.198Z" fill="#231815"/>
<path d="M594.062 797.803H593.235V798.873H594.062V797.803Z" fill="#231815"/>
<path d="M595.232 797.803H594.405V798.873H595.232V797.803Z" fill="#231815"/>
<path d="M590.35 802.524V800.607H595.071V799.316H590.35V797.924H588.897V802.806C588.897 804.077 589.503 804.541 590.874 804.541H595.171V803.25H591.217C590.632 803.25 590.37 803.109 590.37 802.544" fill="#231815"/>
<path d="M593.72 809.584H588.838V811.037H593.72V809.584Z" fill="#231815"/>
<path d="M597.553 797.985H596.08V802.02H597.553V797.985Z" fill="#231815"/>
<path d="M600.72 801.051C600.72 801.798 600.478 803.291 596.947 803.291V804.562C601.285 804.562 602.212 802.726 602.212 800.89V797.945H600.72V801.011V801.051Z" fill="#231815"/>
<path d="M609.577 798.045H603.545V799.316H609.577V798.045Z" fill="#231815"/>
<path d="M603.08 801.374H606.086V801.697C606.086 802.585 605.339 803.351 603.745 803.351V804.662C606.227 804.541 607.619 803.432 607.619 801.495V801.374H609.959V800.103H603.06V801.374H603.08Z" fill="#231815"/>
<path d="M610.664 802.322L613.125 801.475V804.602H614.517V800.95L616.474 800.325V799.034L610.664 801.051V802.322Z" fill="#231815"/>
<path d="M589.482 807.83C589.482 807.265 589.018 806.801 588.433 806.801C587.848 806.801 587.384 807.265 587.384 807.83C587.384 808.394 587.848 808.859 588.433 808.859C588.998 808.859 589.462 808.394 589.462 807.83M588.433 808.193C588.231 808.193 588.07 808.031 588.07 807.83C588.07 807.628 588.231 807.467 588.433 807.467C588.635 807.467 588.796 807.628 588.796 807.83C588.796 808.031 588.635 808.193 588.433 808.193Z" fill="#231815"/>
<path d="M598.339 807.063H596.866V809.786H598.339V807.063Z" fill="#231815"/>
<path d="M596.141 807.063H594.668V809.786H596.141V807.063Z" fill="#231815"/>
<path d="M599.711 810.129C599.711 810.876 599.469 812.368 595.938 812.368V813.639C600.276 813.639 601.204 811.804 601.204 809.968V807.022H599.711V810.109V810.129Z" fill="#231815"/>
<path d="M582.2 807.002L581.03 813.599H582.523L583.693 807.002H582.2Z" fill="#231815"/>
<path d="M585.347 807.002L586.537 813.599H588.03L586.839 807.002H585.347Z" fill="#231815"/>
<path d="M583.713 816.101H580.788V816.746H581.877V819.449H582.644V816.746H583.713V816.101Z" fill="#DF2B2B"/>
<path d="M586.579 818.32C586.458 818.622 586.196 818.824 585.873 818.885C585.813 818.885 585.752 818.885 585.692 818.885C585.631 818.885 585.571 818.885 585.51 818.885C585.187 818.824 584.925 818.622 584.804 818.32C584.663 817.977 584.663 817.593 584.804 817.25C584.925 816.948 585.187 816.746 585.51 816.686C585.571 816.686 585.631 816.686 585.692 816.686C585.752 816.686 585.813 816.686 585.873 816.686C586.196 816.746 586.458 816.948 586.579 817.25C586.72 817.593 586.72 817.977 586.579 818.32ZM585.692 816C584.703 816 583.876 816.787 583.876 817.775C583.876 818.764 584.683 819.55 585.692 819.55C586.7 819.55 587.507 818.764 587.507 817.775C587.507 816.787 586.7 816 585.692 816Z" fill="#DF2B2B"/>
<path d="M587.526 816.101H588.414L589.261 817.533L590.109 816.101H591.016L589.645 818.199V819.449H588.878V818.199L587.526 816.101Z" fill="#DF2B2B"/>
<path d="M592.832 818.905C592.832 818.905 592.953 818.905 593.014 818.905C593.337 818.844 593.599 818.643 593.72 818.34C593.861 817.997 593.861 817.614 593.72 817.271C593.599 816.968 593.337 816.766 593.014 816.706C592.953 816.706 592.893 816.706 592.832 816.706C592.772 816.706 592.711 816.706 592.651 816.706C592.328 816.766 592.066 816.968 591.945 817.271C591.803 817.614 591.803 817.997 591.945 818.34C592.066 818.643 592.328 818.844 592.651 818.905C592.711 818.905 592.772 818.905 592.832 818.905ZM591.017 817.775C591.017 816.787 591.824 816 592.832 816C593.841 816 594.648 816.787 594.648 817.775C594.648 818.764 593.841 819.55 592.832 819.55C591.824 819.55 591.017 818.764 591.017 817.775Z" fill="#DF2B2B"/>
<path d="M599.853 817.916L599.348 816.605L598.844 817.916H599.853ZM600.095 818.703H598.642L598.36 819.429H597.513L598.884 816.08H599.833L601.204 819.429H600.357L600.075 818.703H600.095Z" fill="#DF2B2B"/>
<path d="M597.735 816.101H594.81V816.746H595.879V819.449H596.645V816.746H597.735V816.101Z" fill="#DF2B2B"/>
<path d="M570.036 819.45H565.82V820.64H563.318V814.023H570.036V819.429V819.45ZM556.6 798.066V804.098H563.318V806.518H570.036V804.098H576.753V798.066H556.58H556.6ZM567.232 807.265L566.667 808.354L566.102 807.265H563.318V813.276H565.396V811.784L566.162 813.276H567.171L567.938 811.784V813.276H570.036V807.265H567.232Z" fill="#DF2B2B"/>
<path d="M346.999 801.374H342.762L343.065 799.942H340.725L340.422 801.374H336.004L335.54 803.512H343.73C342.137 805.429 338.627 807.426 334.511 807.971L333.926 808.031L333.422 810.432L334.289 810.311C335.863 810.069 337.416 809.686 338.869 809.141L338.243 812.106H340.604L341.491 807.89C341.693 807.769 342.056 807.527 342.318 807.366L342.056 808.556L345.465 810.613L345.99 808.112L343.448 806.559C344.921 805.429 346.091 804.097 346.656 802.948V802.907L346.676 802.867L346.999 801.354V801.374Z" fill="#0073BD"/>
<path d="M353.192 808.334L353.595 803.956H351.679L351.255 808.334H353.192Z" fill="#0073BD"/>
<path d="M355.492 803.815L355.008 806.095C354.504 808.495 353.495 809.968 350.126 809.968H348.008L347.604 811.884H349.904C353.899 811.884 356.138 810.089 356.965 806.256L357.489 803.815H355.512H355.492Z" fill="#0073BD"/>
<path d="M350.347 808.334L350.73 803.956H348.854L348.41 808.334H350.347Z" fill="#0073BD"/>
<path d="M365.7 806.982L366.305 800.688H363.884L363.259 806.982H365.7Z" fill="#0073BD"/>
<path d="M369.188 800.466L368.321 804.501C367.554 808.112 365.315 809.645 360.877 809.645H358.839L358.335 811.965H360.554C366.223 811.965 369.632 809.504 370.661 804.642L371.549 800.446H369.168L369.188 800.466Z" fill="#0073BD"/>
<path d="M361.825 806.982L362.41 800.688H359.989L359.344 806.982H361.825Z" fill="#0073BD"/>
<path d="M379.014 807.325H378.651C377.279 807.325 375.06 807.325 373.85 806.74L374.354 804.319H372.66L371.046 811.905H372.72L373.467 808.374C374.697 808.838 376.654 808.899 378.409 808.899H378.631L378.974 807.325H379.014Z" fill="#0073BD"/>
<path d="M380.386 804.44L380.043 806.054H385.752L385.49 807.345H380.144L379.801 808.919H385.147L384.864 810.27H379.135L378.792 811.924H386.175L387.769 804.44H380.386Z" fill="#0073BD"/>
<path d="M389.927 804.44L389.887 804.662C389.605 805.953 389.161 806.74 388.455 807.164L388.354 807.224L387.971 809.04L388.455 808.858C389.806 808.354 390.654 807.123 391.057 806.094H394.769L394.426 807.708C393.559 807.345 392.469 807.184 390.936 807.184H390.835L390.513 808.757H390.734C392.106 808.757 393.095 808.878 393.861 809.181C393.296 809.968 392.308 810.331 390.755 810.331H388.394L388.051 811.945H390.573C394.366 811.945 395.596 809.826 395.98 808.051L396.746 804.46H389.927V804.44Z" fill="#0073BD"/>
<path d="M412.965 800.769L410.604 811.884H421.66L424.02 800.769H412.965ZM420.066 809.867H413.025L414.538 802.786H421.579L420.066 809.867Z" fill="#0073BD"/>
<path d="M408.972 800.749L406.995 810.069H404.311L406.41 800.244H404.493L402.415 810.069H399.853L401.83 800.749H399.914L397.533 811.864H408.528L410.888 800.749H408.972Z" fill="#0073BD"/>
<path d="M219.766 801.918H216.054L214.46 810.512H218.152L218.797 807.083H225.858L226.221 805.166H219.16L219.766 801.918Z" fill="#F18900"/>
<path d="M234.453 801.918H228.501L228.219 803.633H234.19L233.908 805.267H227.937L227.654 806.982H233.646L233.343 808.798H227.009L226.706 810.512H233.061H235.663H237.136L238.528 801.918H237.458H234.453Z" fill="#F18900"/>
<path d="M247.443 801.918H243.65H242.965H240.382L239.354 807.547H242.601L243.328 803.613H247.14L246.697 805.993H243.65L243.348 807.547H246.414L245.849 810.532H249.44L251.034 801.918H250.287H247.443Z" fill="#F18900"/>
<path d="M260.435 802.484H257.852L258.458 800.991H255.31L254.705 802.484H252.527L252.244 804.198H254.019L251.478 810.472H254.625L257.166 804.198H260.112L259.244 809.04H256.38L256.097 810.553H262.089V810.533H262.331L263.783 802.484H260.435Z" fill="#F18900"/>
<path d="M273.608 802.241H265.781L264.328 810.311H264.469H275.383H275.504L276.957 802.241H273.608ZM273.285 803.976L272.438 808.616H267.98L268.827 803.976H273.285Z" fill="#F18900"/>
<path d="M277.482 807.587H284.947L285.269 805.792H277.785L277.482 807.587Z" fill="#F18900"/>
<path d="M286.923 802.988H297.675L297.978 801.434H287.205L286.923 802.988Z" fill="#F18900"/>
<path d="M297.494 803.916H286.721L286.398 805.409H293.863L293.056 809.484H288.416L288.133 810.997H296.142L297.494 803.916Z" fill="#F18900"/>
<path d="M312.806 802.887H309.861C309.861 802.887 309.74 802.947 309.74 803.008L308.751 808.535C308.711 808.858 308.53 808.778 308.53 808.778H307.057L308.308 801.898C308.308 801.898 308.287 801.798 308.227 801.798H305.282C305.282 801.798 305.161 801.838 305.161 801.919L303.91 808.778H302.336C302.013 808.778 302.135 808.515 302.135 808.515L303.123 802.988C303.123 802.988 303.103 802.887 303.042 802.887H300.097C300.097 802.887 299.976 802.947 299.976 803.008L298.645 810.432C298.645 810.432 298.665 810.533 298.725 810.533H311.455C311.455 810.533 311.576 810.472 311.576 810.412L312.907 803.008C312.907 803.008 312.887 802.907 312.826 802.907" fill="#F18900"/>
<path d="M327.955 801.918H315.67C315.67 801.918 315.549 801.979 315.549 802.039L314.076 810.613C314.076 810.613 314.096 810.734 314.157 810.734H317.223C317.223 810.734 317.344 810.674 317.364 810.593L317.425 810.21H322.751L322.69 810.613C322.69 810.613 322.71 810.734 322.771 810.734H326.463C326.463 810.734 326.584 810.674 326.584 810.593L328.056 802.019C328.056 802.019 328.036 801.918 327.976 801.918M317.768 808.071L318.454 804.077H323.78L323.094 808.071H317.768Z" fill="#F18900"/>
<path d="M41.6745 800.386C41.6544 800.567 41.614 800.749 41.5938 800.93C41.4123 801.959 41.2105 802.988 41.029 804.017C40.8474 805.005 40.6659 805.994 40.4843 807.002C40.3431 807.789 40.1817 808.596 40.0405 809.383C40.0405 809.423 40.0405 809.464 40.0405 809.504H41.1702C41.6947 806.66 42.2394 803.835 42.7639 800.991H46.9801C46.96 801.112 46.9398 801.233 46.9196 801.354C46.6977 802.524 46.4758 803.714 46.2741 804.884C46.0118 806.276 45.7496 807.668 45.5075 809.06C45.3461 809.948 45.1847 810.835 45.0031 811.723C45.0031 811.763 45.0031 811.784 44.983 811.824H29.9941C29.9941 811.824 29.9941 811.763 29.9941 811.743C29.9941 811.703 30.0345 811.663 30.0345 811.622C30.2362 810.573 30.4178 809.544 30.6195 808.495C30.8213 807.366 31.0432 806.256 31.2449 805.126C31.487 803.775 31.7492 802.423 31.9913 801.072C31.9913 801.031 31.9913 801.011 32.0115 800.971H36.2277C35.9655 802.403 35.7032 803.815 35.441 805.227C35.1787 806.619 34.6542 809.383 34.6744 809.484H35.7839C35.7839 809.484 35.7839 809.423 35.8041 809.383C35.9453 808.637 36.0865 807.89 36.2277 807.124C36.4295 806.095 36.611 805.046 36.8127 804.017C37.0145 802.968 37.196 801.919 37.3978 800.87C37.4381 800.708 37.4583 800.527 37.4785 800.365C38.8906 800.365 40.3027 800.365 41.7149 800.365L41.6745 800.386Z" fill="#880025"/>
<path d="M79.3991 811.804C79.4394 811.622 79.4596 811.461 79.4999 811.279C79.621 810.714 79.742 810.149 79.8631 809.564C79.8631 809.564 79.8631 809.524 79.8631 809.504C80.1455 809.504 80.4481 809.504 80.7305 809.504C81.0331 809.504 81.3156 809.504 81.6182 809.504H86.8834C87.186 809.504 87.4684 809.504 87.771 809.504C87.8921 808.858 88.0131 808.213 88.1342 807.547C87.9324 807.547 87.7509 807.547 87.5693 807.547C87.3877 807.547 87.186 807.547 87.0045 807.547H80.2867C80.4481 806.76 80.6095 806.014 80.7709 805.227H88.5578C88.6788 804.582 88.7999 803.936 88.9209 803.27C88.8604 803.27 88.8201 803.27 88.7595 803.27C88.0938 803.27 87.4079 803.27 86.7422 803.27C84.9468 803.27 83.1312 803.27 81.3357 803.27C81.2954 803.27 81.255 803.27 81.1945 803.27C81.3559 802.483 81.5173 801.737 81.6787 800.97H93.581C93.581 800.97 93.581 801.092 93.5608 801.152C93.3187 802.403 93.0968 803.674 92.8547 804.924C92.6933 805.752 92.5521 806.599 92.3907 807.426C92.189 808.515 91.9873 809.584 91.7855 810.674C91.725 811.017 91.6645 811.38 91.5838 811.723C91.5838 811.743 91.5838 811.763 91.5636 811.804C87.5088 811.804 83.4338 811.804 79.3789 811.804H79.3991Z" fill="#880025"/>
<path d="M103.284 811.804C103.345 811.541 103.385 811.279 103.446 810.997C103.627 810.008 103.809 809.02 103.99 808.051C103.99 808.011 103.99 807.971 103.99 807.93H100.157C100.278 807.244 100.42 806.579 100.541 805.913H104.374C104.535 805.046 104.696 804.178 104.858 803.29H100.359C100.056 804.904 99.7539 806.538 99.4513 808.152H95.2148C95.6587 805.752 96.1025 803.371 96.5463 800.97C96.6068 800.97 96.6472 800.97 96.6875 800.97C100.924 800.97 105.14 800.97 109.377 800.97C109.417 800.97 109.457 800.97 109.498 800.97V801.132C109.498 801.132 109.477 801.253 109.457 801.313C109.356 801.818 109.276 802.322 109.175 802.826C109.013 803.694 108.852 804.541 108.691 805.409C108.529 806.296 108.368 807.184 108.207 808.051C108.025 809.04 107.843 810.028 107.662 811.017C107.621 811.279 107.561 811.541 107.5 811.804H103.264H103.284Z" fill="#880025"/>
<path d="M64.2278 811.804C64.2884 811.501 64.3287 811.199 64.3892 810.896C64.5708 809.948 64.7322 809 64.9137 808.051C65.0953 807.123 65.2567 806.195 65.4382 805.267C65.5996 804.42 65.7408 803.573 65.9022 802.746C66.0031 802.201 66.104 801.636 66.2048 801.092C66.2048 801.071 66.2048 801.031 66.225 800.991H70.4412C70.179 802.363 69.9369 803.714 69.6747 805.106H78.1878C78.1878 805.207 77.7844 807.244 77.7238 807.426H69.251C69.251 807.426 69.2309 807.507 69.2107 807.547C68.9484 808.899 68.7063 810.25 68.4643 811.622C68.4643 811.703 68.4441 811.763 68.4239 811.844H64.1875L64.2278 811.804Z" fill="#880025"/>
<path d="M49.9441 800.97C49.9441 800.97 49.9441 801.031 49.9239 801.051C49.8231 801.556 49.7424 802.06 49.6415 802.564C49.4398 803.654 49.238 804.723 49.0363 805.812C48.8547 806.76 48.6933 807.688 48.5118 808.636C48.3504 809.484 48.189 810.331 48.0276 811.178C47.9873 811.4 47.9469 811.602 47.9268 811.824H61.2815C61.2815 811.824 61.2815 811.743 61.2815 811.703C61.3219 811.44 61.3824 811.178 61.4228 810.936C61.6043 809.968 61.7859 808.999 61.9674 808.011C62.1692 806.942 62.3709 805.873 62.5726 804.803C62.7946 803.573 63.0165 802.362 63.2585 801.132C63.2585 801.092 63.2585 801.051 63.2585 800.991H49.9239L49.9441 800.97ZM57.4486 809.484H52.5666C52.9499 807.406 53.3332 805.348 53.7165 803.27H58.5783C58.5783 803.27 57.4889 809.322 57.4284 809.484H57.4486Z" fill="#880025"/>
<path d="M131.97 811.38H143.569C144.033 811.38 144.497 810.997 144.598 810.513L146.595 801.172H134.128L131.99 811.38H131.97ZM136.549 802.867H143.569L142.097 809.807H135.076L136.529 802.867H136.549Z" fill="#005952"/>
<path d="M127.31 810.271H124.869L126.988 800.204H124.183L122.065 810.271H119.685L121.299 802.484H118.535L116.578 811.764H128.844C129.308 811.764 129.772 811.38 129.872 810.896L131.668 802.464H128.944L127.331 810.251L127.31 810.271Z" fill="#005952"/>
<path d="M161.685 800.85C161.241 800.85 160.999 800.89 160.717 801.253C160.394 801.697 159.95 802.282 159.95 802.282H167.051C166.93 802.786 166.769 803.573 166.547 804.521H161.342C160.898 804.521 160.717 804.562 160.414 804.905C160.011 805.389 159.426 806.216 159.426 806.216H166.163C165.901 807.326 165.72 808.233 165.639 808.596C165.518 809.06 165.215 809.262 164.892 809.262C162.351 809.262 160.273 809.262 159.99 809.262C159.526 809.262 159.204 809.565 158.921 809.888C158.598 810.251 158.054 810.957 158.054 810.957H166.95C168.12 810.957 168.282 810.553 168.362 810.23C168.443 809.968 170.602 800.83 170.602 800.83H161.705L161.685 800.85Z" fill="#005952"/>
<path d="M158.459 805.429C158.882 804.864 159.124 804.501 159.124 804.501C159.124 804.501 158.781 804.541 158.035 804.541C156.623 804.541 152.608 804.541 151.781 804.541L152.709 800.547H148.755C148.755 800.547 149.3 800.971 149.219 801.616L147.061 811.582H148.533C150.087 811.582 150.389 810.493 150.389 810.493L151.115 807.406C151.479 806.377 152.285 806.418 152.568 806.418H156.36C157.349 806.418 158.015 805.994 158.459 805.409" fill="#005952"/>
<path d="M206.532 804.562C205.1 804.562 201.105 804.562 200.278 804.562L201.206 800.567H197.252C197.252 800.567 197.797 800.991 197.716 801.637L195.558 811.602H197.03C198.584 811.602 198.886 810.513 198.886 810.513L199.612 807.426C199.976 806.397 200.783 806.438 201.065 806.438H204.858C205.846 806.438 206.512 806.014 206.956 805.429C207.379 804.864 207.601 804.501 207.601 804.501C207.601 804.501 207.258 804.541 206.512 804.541" fill="#005952"/>
<path d="M190.211 806.357C190.312 805.954 190.796 803.392 190.796 803.392H189.404C189.061 803.392 188.658 803.674 188.577 804.078C188.476 804.481 187.911 807.063 187.911 807.063H189.303C189.666 807.063 190.11 806.781 190.211 806.377" fill="#005952"/>
<path d="M185.429 804.118C185.328 804.521 184.783 807.043 184.783 807.043H186.276C186.619 807.043 186.962 806.781 187.063 806.377C187.164 805.974 187.668 803.392 187.668 803.392H186.357C185.973 803.392 185.55 803.714 185.429 804.118Z" fill="#005952"/>
<path d="M193.378 803.392C193.237 803.392 193.015 803.392 192.873 803.634C190.09 808.132 187.951 810.836 187.951 810.836H189.162C190.231 810.836 190.654 810.533 190.997 810.13C193.701 806.942 196.142 803.412 196.142 803.412H193.378V803.392Z" fill="#005952"/>
<path d="M179.478 802.342C178.873 801.576 178.651 801.455 177.985 801.455H175.323C175 801.455 174.576 801.576 174.294 801.919C174.031 802.242 170.037 807.386 170.037 807.386H171.308C172.357 807.386 172.861 807.043 173.406 806.317C173.749 805.853 174.677 804.662 175.625 803.412C176.029 802.887 176.533 802.746 177.037 803.553C178.55 805.994 180.668 809.504 180.83 809.807C181.072 810.23 181.718 810.795 182.625 810.795H185.147C185.147 810.795 184.522 809.907 183.957 809.02C182.02 806.095 179.72 802.665 179.478 802.383" fill="#005952"/>
<path d="M182.362 803.533C183.432 803.533 184.481 802.847 184.682 802C184.884 801.152 184.178 800.466 183.089 800.466C181.999 800.466 180.97 801.152 180.769 802C180.567 802.847 181.273 803.533 182.362 803.533ZM181.999 802.02C182.12 801.556 182.524 801.193 182.927 801.193C183.331 801.193 183.533 801.556 183.432 802.02C183.311 802.464 182.887 802.847 182.504 802.847C182.12 802.847 181.878 802.484 182.02 802.02" fill="#005952"/>
<path d="M537.236 809.948H528.683V804.4H530.276V809.1H532.152V803.19H533.766V809.1H535.622V804.4H537.236V809.948Z" fill="#E60020"/>
<path d="M454.343 805.933H449.139L449.582 803.432H446.98L445.83 809.948H448.432L448.896 807.346H454.101L454.343 805.933Z" fill="#E60020"/>
<path d="M456.177 803.432L455.955 804.743H460.837L460.615 805.994H455.733L455.512 807.285H460.393L460.151 808.657H455.269L455.027 809.948H462.512L463.662 803.432H456.177Z" fill="#E60020"/>
<path d="M482.584 805.59L477.097 807.749L477.864 803.432H475.261L474.111 809.948H476.714L482.181 807.769L482.584 805.59Z" fill="#E60020"/>
<path d="M488.698 803.452H484.361L484.078 804.985H488.415L488.698 803.452Z" fill="#E60020"/>
<path d="M483.636 807.547L483.212 809.948L491.16 808.334L491.584 805.913L483.636 807.547Z" fill="#E60020"/>
<path d="M505.523 803.432H502.921L502.215 807.446H504.817L505.523 803.432Z" fill="#E60020"/>
<path d="M507.5 806.922L503.324 809.948H506.976L509.941 807.789H509.961L510.728 803.432H508.125L507.5 806.922Z" fill="#E60020"/>
<path d="M511.535 805.954L511.293 807.346H518.172L518.414 805.954H511.535Z" fill="#E60020"/>
<path d="M526.585 803.432H518.919L518.697 804.743H523.276L517.426 809.948H520.775L522.832 808.031L523.74 809.948H526.161L524.486 806.478L526.342 804.743L526.585 803.432Z" fill="#E60020"/>
<path d="M492.632 807.789H495.012L495.557 804.743H498.381L498.058 806.478H495.678L495.456 807.789H497.837L497.453 809.948H500.056L501.206 803.432H493.398L492.632 807.789Z" fill="#E60020"/>
<path d="M464.61 807.789H466.991L467.515 804.743H470.34L470.037 806.478H467.657L467.414 807.789H469.815L469.432 809.948H472.034L473.184 803.432H465.357L464.61 807.789Z" fill="#E60020"/>
<path d="M539.171 803.432V809.948H547.301V803.432H539.171ZM545.566 809.101H540.886V804.259H545.566V809.101Z" fill="#E60020"/>
<path d="M441.754 801.273H430.9V812.127H441.754V801.273Z" fill="#00A040"/>
<path d="M439.656 806.7C439.656 808.717 438.667 810.13 437.235 810.13C436.549 810.13 436.065 809.645 436.065 808.959C436.065 808.536 436.186 807.931 437.296 807.446C439.111 806.639 439.494 805.369 439.494 804.441C439.494 802.847 438.284 801.636 436.69 801.636C435.097 801.636 433.705 802.807 433.2 804.683L431.324 811.663H432.999L434.754 805.086C434.875 804.663 435.339 803.25 436.67 803.25C437.356 803.25 437.84 803.735 437.84 804.42C437.84 804.844 437.719 805.449 436.61 805.933C434.794 806.74 434.411 808.011 434.411 808.939C434.411 810.533 435.621 811.743 437.215 811.743C438.365 811.743 439.394 811.219 440.14 810.291C440.866 809.363 441.27 808.112 441.27 806.68H439.636L439.656 806.7Z" fill="white"/>
<path d="M350.893 639.543C350.893 639.543 353.98 642.629 359.043 642.065C364.107 641.5 366.628 638.696 367.476 637.283C368.323 635.871 372.822 636.436 370.845 641.782C368.888 647.128 361.585 658.627 347.262 653.019C347.262 653.019 343.893 648.802 345.567 644.304C347.242 639.805 350.913 639.523 350.913 639.523L350.893 639.543Z" fill="#F39B3A" stroke="#231815" stroke-width="2.17873" stroke-linecap="round" stroke-linejoin="round"/>
</g>
</g>
<defs>
<clipPath id="clip0_2019_2">
<rect width="720" height="950" fill="white"/>
</clipPath>
<clipPath id="clip1_2019_2">
<rect width="719" height="1141.55" fill="white" transform="translate(0.5 -311.552)"/>
</clipPath>
</defs>
</svg>
