<svg width="720" height="950" viewBox="0 0 720 950" fill="none" xmlns="http://www.w3.org/2000/svg">
<g style="mix-blend-mode:multiply">
<path d="M680.538 940.58L593.885 872.488C590.2 869.334 583.976 867.436 577.389 867.436H535.269C530.092 867.436 525.207 865.943 522.346 863.472L517.043 858.895C514.558 856.745 510.316 855.448 505.822 855.448H277.682C272.281 855.448 267.494 853.55 265.652 850.703C253.148 831.345 220.504 817.641 181.888 817.641C132.121 817.641 90.6154 840.431 89.164 868.803C89.0942 870.227 89.122 871.637 89.2616 873.018C89.5267 875.851 87.824 878.657 84.642 880.917L58.9351 899.2C53.6178 902.982 58.0419 908.467 66.4155 908.467H69.5556C74.0216 908.467 76.4917 911.328 73.8401 913.435L39.6617 940.398C34.5259 944.445 39.243 950 47.8399 950H672.136C680.552 950 685.311 944.655 680.552 940.593L680.538 940.58Z" fill="#9FA0A0"/>
</g>
</svg>
