<?xml version="1.0" encoding="utf-8"?>
<!-- Generator: Adobe Illustrator 26.0.1, SVG Export Plug-In . SVG Version: 6.00 Build 0)  -->
<svg version="1.1" id="レイヤー_1" xmlns="http://www.w3.org/2000/svg" xmlns:xlink="http://www.w3.org/1999/xlink" x="0px"
	 y="0px" viewBox="0 0 136.7 136.8" style="enable-background:new 0 0 136.7 136.8;" xml:space="preserve">
<style type="text/css">
	.st0{fill:#FFFFFF;}
	.st1{fill:none;stroke:#7DCCF3;stroke-width:0.8422;stroke-linecap:round;stroke-linejoin:round;}
	.st2{fill:none;stroke:#7DCCF3;stroke-width:0.8422;stroke-linecap:round;stroke-linejoin:round;stroke-dasharray:0.8389,3.3558;}
	.st3{fill:#7DCCF3;}
	.st4{fill:#515151;}
	.st5{fill:#009FE8;}
	.st6{fill:#231815;}
</style>
<g>
	<g>
		<path class="st3" d="M42.2,48.7c0-10.1,2.8-18.4,6.2-18.4c3.4,0,6.2,8.2,6.2,18.4c0,6.4-0.5,13.7-2.2,17c-1,1.9-2.8,1.8-4.1,1.8
			c-1.3,0-2.8,0-3.8-1.9C43,62.3,42.2,55.1,42.2,48.7"/>
		<path class="st3" d="M77.9,50L77.9,50c0-1.5-0.3-3.6-1.9-4.6c-3.2-2.2-5.1-1.1-8-1.1c-0.2,0-0.4,0-0.6,0c-2.7-0.1-4.9-1.1-7.4,0.9
			c-1.5,1.1-1.9,3.3-1.9,4.8l0,0l0,0l0,0c0,1.5,0.2,3,1.7,4.1c3.2,2.2,5.2,1.6,8.2,1.6c0.2,0,0.4,0,0.6,0c2.7,0.1,5.1,0.5,7.5-1.4
			C77.6,53.1,77.9,51.5,77.9,50L77.9,50L77.9,50z"/>
		<path class="st3" d="M93.1,38.7c0,4.6-1.6,8.4-6.2,8.4s-7.6-3.4-7.6-8.1c0-4.6,2.4-8.7,7-8.7C91,30.3,93.1,34,93.1,38.7"/>
		<path class="st0" d="M53.4,36.2c0,1.1-0.1,2.1-0.4,3c-0.1,0.4-0.4,0.9-0.9,1.3c-0.4,0.4-1.4,0.6-2,0.6s-1.4-0.1-1.9-0.5
			s-0.6-0.6-0.8-1.2c-0.4-0.8-0.6-2.2-0.6-3.2c0-1.8,0.5-3.7,1.6-4.6c0.6-0.5,1.2-0.7,2-0.7c0.7,0,1.1,0.2,1.7,0.5
			C53.2,32.3,53.4,34.2,53.4,36.2"/>
		<path class="st4" d="M53.4,35.2c0,0.6-0.1,2.2-0.7,2.9c-0.3,0.3-1.3,0.9-1.8,0.9s-1.7,0-2-0.4c-0.9-1-1.2-1.6-1.2-3
			c0-1.3,0.1-2.3,1.5-3.8c0.4-0.4,1.1-0.6,1.7-0.6c0.5,0,1,0.2,1.4,0.5C53.2,32.3,53.4,33.8,53.4,35.2"/>
		<path class="st5" d="M92.8,61.5c0,3.3-2.7,5.9-5.9,5.9S81,64.7,81,61.5c0-3.3,2.7-5.9,5.9-5.9S92.8,58.2,92.8,61.5"/>
		<path class="st0" d="M86.7,36.2c0,1.1-0.1,2.1-0.4,3c-0.1,0.4-0.4,0.9-0.9,1.3c-0.4,0.4-1.4,0.6-2,0.6S82,41,81.5,40.6
			s-0.6-0.6-0.8-1.2c-0.4-0.8-0.6-2.2-0.6-3.2c0-1.8,0.5-3.7,1.6-4.6c0.6-0.5,1.2-0.7,2-0.7c0.7,0,1.1,0.2,1.7,0.5
			C86.4,32.3,86.7,34.2,86.7,36.2"/>
		<path class="st4" d="M86.6,35.2c0,0.6-0.1,2.2-0.7,2.9c-0.3,0.3-1.3,0.9-1.8,0.9s-1.7,0-2-0.4c-0.9-1-1.2-1.6-1.2-3
			c0-1.3,0.1-2.3,1.5-3.8c0.4-0.4,1.1-0.6,1.7-0.6c0.5,0,1,0.2,1.4,0.5C86.5,32.3,86.7,33.8,86.6,35.2"/>
	</g>
	<g>
		<path class="st6" d="M31.1,80.1c0.2,0,0.3,0,0.3-0.1c0.1,0,0.1-0.1,0.2-0.1s0.3,0.1,0.6,0.4c0.4,0.4,0.5,0.5,0.5,0.6
			s0,0.2-0.1,0.3c-0.1,0.1-0.2,0.2-0.3,0.5c-0.7,2.1-1.9,4.1-3.8,5.7c-0.2,0.1-0.2,0.2-0.3,0.2s-0.2-0.1-0.3-0.3
			c-0.2-0.4-0.5-0.7-0.8-0.9c1.9-1.4,3.1-3,3.7-5.1h-1.6c-1.1,0-1.4,0-1.5,0s-0.2,0-0.2-0.2V80c0-0.1,0-0.2,0.2-0.2
			c0.1,0,0.4,0,1.5,0h1.9C31.1,79.8,31.1,80.1,31.1,80.1z M34.4,78.6c0.2,1,0.6,2,1.1,3c0.8-0.7,1.3-1.3,2-2.1
			c0.2-0.3,0.3-0.5,0.5-0.8c0.5,0.3,0.9,0.6,1.2,0.8c0.2,0.1,0.2,0.2,0.2,0.3c0,0.1-0.1,0.2-0.2,0.2c-0.2,0.1-0.4,0.3-0.8,0.6
			c-0.5,0.6-1.2,1.3-2.2,2c1.1,1.5,2.5,2.8,4,3.5c-0.3,0.3-0.6,0.6-0.8,1c-0.1,0.2-0.2,0.3-0.3,0.3s-0.2-0.1-0.3-0.2
			c-2-1.4-3.7-3.5-4.5-5.8c0,2.1,0.1,4.4,0.1,5.8c0,0.6-0.1,1-0.6,1.3c-0.3,0.2-1,0.3-2.1,0.3c-0.4,0-0.4,0-0.6-0.4
			c-0.1-0.5-0.3-0.9-0.5-1.1c0.4,0,0.9,0.1,1.4,0c0.5,0,0.7-0.1,0.7-0.5v-9.2c0-0.7,0-1.1-0.1-1.6c0.5,0,1.1,0,1.6,0.1
			c0.1,0,0.2,0.1,0.2,0.2s-0.1,0.3-0.1,0.4c-0.1,0.2-0.1,0.5-0.1,1v0.9L34.4,78.6L34.4,78.6z"/>
		<path class="st6" d="M51.7,83.6c0.2-0.1,0.2-0.1,0.3,0c0.8,0.7,1.5,1.5,2.1,2.3c0.1,0.1,0.1,0.2-0.1,0.3l-0.8,0.5
			c-0.2,0.1-0.2,0.1-0.3,0c-0.2-0.3-0.4-0.6-0.6-0.9c-1.2,0.1-2.5,0.2-3.8,0.3v1.6c0,0.9,0,1.3,0,1.4s0,0.2-0.2,0.2h-1.2
			c-0.1,0-0.2,0-0.2-0.2c0-0.1,0-0.5,0-1.4v-1.5c-1.4,0.1-2.8,0.1-4.1,0.2c-0.3,0-0.5,0-0.5,0.1c-0.1,0-0.1,0.1-0.2,0.1
			s-0.2-0.1-0.2-0.2c-0.1-0.4-0.2-0.9-0.3-1.3c0.6,0,1.1,0.1,1.5,0.1c0.8,0,1.7,0,2.5-0.1c-0.7-0.5-1.4-1-2.2-1.4
			c-0.1,0-0.1-0.1-0.1-0.1s0-0.1,0.1-0.1l0.7-0.6c0.1-0.1,0.2-0.1,0.3,0l0.9,0.5c0.3-0.2,0.6-0.5,0.8-0.8c0.1-0.1,0.2-0.3,0.3-0.4
			h-2.9c-1.3,0-1.7,0-1.8,0s-0.2,0-0.2-0.2v-0.9c0-0.2,0-0.2,0.2-0.2c0.1,0,0.5,0,1.8,0H47v-0.7h-1.7c-1.4,0-1.8,0-1.9,0
			c-0.2,0-0.2,0-0.2-0.2v-0.8c0-0.1,0-0.2,0.2-0.2c0.1,0,0.6,0,1.9,0H47v-0.7h-2.5c-1.4,0-1.8,0-1.9,0s-0.2,0-0.2-0.2v-0.9
			c0-0.1,0-0.2,0.2-0.2c0.1,0,0.5,0,1.9,0H47c0-0.6,0-0.9-0.1-1.3c0.5,0,1,0,1.5,0.1c0.1,0,0.2,0.1,0.2,0.1c0,0.1,0,0.2-0.1,0.3
			c-0.1,0.1-0.1,0.3-0.1,0.8h2.8c1.4,0,1.8,0,1.9,0s0.2,0,0.2,0.2v0.9c0,0.1,0,0.2-0.2,0.2c-0.1,0-0.6,0-1.9,0h-2.8V79h2
			c1.4,0,1.8,0,1.9,0c0.2,0,0.2,0,0.2,0.2V80c0,0.1,0,0.2-0.2,0.2c-0.1,0-0.6,0-1.9,0h-2v0.9h3.8c1.3,0,1.7,0,1.8,0
			c0.1,0,0.2,0,0.2,0.2v0.8c0,0.1,0,0.2-0.2,0.2c-0.1,0-0.5,0-1.8,0h-5.1c0.2,0.1,0.5,0.2,0.7,0.3c0.1,0.1,0.2,0.1,0.2,0.2
			s-0.1,0.1-0.2,0.2c-0.1,0-0.2,0.1-0.4,0.3c-0.3,0.3-0.6,0.6-1,0.8c0.3,0.2,0.5,0.4,0.8,0.6c0.7-0.5,1.3-1.1,1.8-1.6
			c0.3-0.3,0.4-0.5,0.5-0.7c0.4,0.2,0.8,0.4,1.2,0.7c0.1,0.1,0.2,0.1,0.2,0.2s-0.1,0.2-0.2,0.2s-0.3,0.1-0.5,0.3
			c-0.5,0.5-1,0.9-1.5,1.2c1,0,2-0.1,2.8-0.2L51,84.3c-0.1-0.1-0.1-0.2,0.1-0.3L51.7,83.6z M45.9,87c0.1,0.1,0.1,0.1,0.1,0.2
			s-0.1,0.1-0.2,0.2c-0.1,0-0.3,0.2-0.5,0.3c-0.6,0.5-1.4,1-2.3,1.4c-0.2,0.1-0.3,0.1-0.3,0.1c-0.1,0-0.2-0.1-0.3-0.3
			c-0.2-0.3-0.4-0.6-0.7-0.7c1-0.3,1.8-0.7,2.5-1.2c0.2-0.2,0.4-0.3,0.6-0.6C45.2,86.6,45.6,86.8,45.9,87 M50.4,86.4
			c0.2-0.1,0.2-0.1,0.3,0c0.8,0.7,1.8,1.2,3.1,1.6c-0.2,0.2-0.5,0.5-0.7,0.8c-0.2,0.2-0.2,0.3-0.3,0.3c-0.1,0-0.2,0-0.3-0.1
			c-1.1-0.5-2-1.1-2.9-1.9c-0.1-0.1-0.1-0.1,0.1-0.2L50.4,86.4z"/>
		<path class="st6" d="M59.1,81.2c0,0.5,0,1.2,0,1.7c0,0.2,0,0.2-0.3,0.3c-0.4,0-0.9,0-1.3,0c-0.2,0-0.3,0-0.3-0.2
			c0-0.6,0.1-1.2,0.1-1.8v-1.3c0-0.8,0-1.3-0.1-1.8c0-0.1,0.1-0.1,0.2-0.1c0.6,0,1.5,0.1,2.4,0.1h4.8c0.5,0,0.7-0.1,0.9-0.2
			c0.1-0.1,0.1-0.1,0.2-0.1s0.2,0,0.3,0.1c0.4,0.3,0.9,0.7,1.1,0.9c0.1,0.1,0.1,0.2,0.1,0.3c0,0.1,0,0.2-0.1,0.3
			c-0.2,0.2-0.3,0.6-0.4,0.8c-0.4,1.6-1,3-1.7,4.4c-0.8,1.4-1.8,2.8-3.2,3.9c-0.1,0.1-0.2,0.2-0.3,0.2c-0.1,0-0.2,0-0.3-0.1
			c-0.4-0.3-0.8-0.4-1.4-0.5c1.7-1.3,2.7-2.5,3.6-4.1c0.8-1.4,1.2-2.6,1.6-4.4h-5.9L59.1,81.2L59.1,81.2z"/>
		<path class="st6" d="M78.9,79c0.4,0,0.6-0.1,0.7-0.2c0.1,0,0.1-0.1,0.2-0.1s0.1,0,0.2,0.1c0.4,0.2,0.7,0.5,1,0.8
			c0.1,0.1,0.2,0.2,0.2,0.3c0,0.1-0.1,0.2-0.2,0.3c-0.2,0.2-0.3,0.4-0.5,0.6c-1,1.9-1.9,3.3-2.8,4.4c-1.2,1.4-2.9,2.8-4.3,3.5
			c-0.1,0.1-0.2,0.1-0.2,0.1c-0.1,0-0.2-0.1-0.3-0.2c-0.4-0.3-0.8-0.5-1.4-0.7c2.2-1.2,3.3-2.1,4.7-3.6c1.1-1.3,1.8-2.2,2.6-4
			l-3.4,0.1c-1.2,1.4-1.9,2.2-2.7,2.9c-0.1,0.1-0.2,0.2-0.3,0.2c-0.1,0-0.1,0-0.2-0.1c-0.4-0.3-0.9-0.5-1.4-0.6
			c1.8-1.5,2.9-2.8,3.8-4.2c0.5-0.8,0.7-1.2,0.8-1.9c0.8,0.3,1.3,0.5,1.7,0.8c0.1,0.1,0.1,0.2,0.1,0.2c0,0.1,0,0.2-0.2,0.2
			c-0.1,0.1-0.2,0.2-0.4,0.4c-0.2,0.2-0.3,0.5-0.5,0.7L78.9,79z"/>
		<path class="st6" d="M87.5,81.2c0,0.5,0,1.2,0,1.7c0,0.2,0,0.2-0.3,0.3c-0.4,0-0.9,0-1.3,0c-0.2,0-0.3,0-0.3-0.2
			c0-0.6,0.1-1.2,0.1-1.8v-1.3c0-0.8,0-1.3-0.1-1.8c0-0.1,0.1-0.1,0.2-0.1c0.6,0,1.5,0.1,2.4,0.1H93c0.5,0,0.7-0.1,0.9-0.2
			c0.1-0.1,0.1-0.1,0.2-0.1s0.2,0,0.3,0.1c0.4,0.3,0.9,0.7,1.1,0.9c0.1,0.1,0.1,0.2,0.1,0.3c0,0.1,0,0.2-0.1,0.3
			c-0.2,0.2-0.3,0.6-0.4,0.8c-0.4,1.6-1,3-1.7,4.4c-0.8,1.4-1.8,2.8-3.2,3.9c-0.1,0.1-0.2,0.2-0.3,0.2s-0.2,0-0.3-0.1
			c-0.4-0.3-0.8-0.4-1.4-0.5c1.7-1.3,2.7-2.5,3.6-4.1c0.8-1.4,1.2-2.6,1.6-4.4h-5.9L87.5,81.2L87.5,81.2z"/>
		<path class="st6" d="M107.3,79c0.4,0,0.6-0.1,0.7-0.2c0.1,0,0.1-0.1,0.2-0.1s0.1,0,0.2,0.1c0.4,0.2,0.7,0.5,1,0.8
			c0.1,0.1,0.2,0.2,0.2,0.3c0,0.1-0.1,0.2-0.2,0.3c-0.2,0.2-0.3,0.4-0.5,0.6c-1,1.9-1.9,3.3-2.8,4.4c-1.2,1.4-2.9,2.8-4.3,3.5
			c-0.1,0.1-0.2,0.1-0.2,0.1c-0.1,0-0.2-0.1-0.3-0.2c-0.4-0.3-0.8-0.5-1.4-0.7c2.2-1.2,3.3-2.1,4.7-3.6c1.1-1.3,1.8-2.2,2.6-4
			l-3.4,0.1c-1.2,1.4-1.9,2.2-2.7,2.9c-0.1,0.1-0.2,0.2-0.3,0.2s-0.1,0-0.2-0.1c-0.4-0.3-0.9-0.5-1.4-0.6c1.8-1.5,2.9-2.8,3.8-4.2
			c0.5-0.8,0.7-1.2,0.8-1.9c0.8,0.3,1.3,0.5,1.7,0.8c0.1,0.1,0.1,0.2,0.1,0.2c0,0.1,0,0.2-0.2,0.2c-0.1,0.1-0.2,0.2-0.4,0.4
			c-0.2,0.2-0.3,0.5-0.5,0.7L107.3,79z"/>
		<path class="st6" d="M49.9,97.9c0-0.3,0-0.6,0-1c0.7,0.2,1.3,0.4,1.6,0.6c0.1,0.1,0.2,0.3,0.1,0.4c-0.1,0.2-0.2,0.3-0.2,0.6
			c-0.1,0.6-0.3,1.2-0.4,1.8c0.8,0.4,1.7,1,2.2,1.4c0.1,0.1,0.1,0.2,0.1,0.3c-0.1,0.3-0.4,0.9-0.6,1.2c0,0.1-0.1,0.1-0.1,0.1
			c-0.1,0-0.1,0-0.2-0.1c-0.6-0.5-1.2-1-1.9-1.3c-0.7,1.6-1.5,2.7-2.9,3.7c-0.1,0.1-0.2,0.2-0.3,0.2c-0.1,0-0.1,0-0.2-0.1
			c-0.4-0.3-0.7-0.5-1.2-0.6c1.8-1.2,2.6-2.4,3.2-3.9c-0.8-0.4-1.8-0.7-2.8-0.9c-0.8,1.6-1.2,2.3-1.7,2.8c-0.5,0.6-1.1,0.8-1.8,0.8
			c-0.8,0-1.7-0.6-1.7-1.9c0-1.8,1.8-3.1,4.2-3.1c0.5-1.2,0.8-2.2,1.2-3.4c-0.8,0.1-1.5,0.2-2,0.2c-0.2,0-0.4,0.1-0.6,0.2
			c-0.1,0-0.2,0.1-0.3,0.1s-0.2-0.1-0.2-0.2c-0.1-0.3-0.3-0.8-0.4-1.5c0.4,0.1,0.8,0.1,1.3,0.1c0.7,0,1.4-0.1,2.2-0.2
			c0.4-0.1,0.5-0.1,0.7-0.2c0.1,0,0.1-0.1,0.2-0.1s0.1,0,0.2,0.1c0.4,0.2,0.7,0.5,1,0.8c0.1,0.1,0.1,0.2,0.1,0.2
			c0,0.1-0.1,0.2-0.1,0.2c-0.2,0.2-0.3,0.5-0.4,0.7c-0.4,1-0.8,2.1-1.2,3.1c0.9,0.1,1.7,0.3,2.8,0.7C49.7,99.1,49.8,98.5,49.9,97.9
			 M42.4,101.8c0,0.5,0.2,0.7,0.5,0.7s0.5-0.2,0.8-0.5c0.3-0.4,0.7-1,1-1.7C43.3,100.3,42.4,101,42.4,101.8"/>
		<path class="st6" d="M58.9,97c0.2,0.1,0.2,0.2,0.2,0.3c0,0.1,0,0.1-0.1,0.2c-0.1,0.2-0.2,0.5-0.3,0.8c-0.1,0.7-0.3,1.8-0.3,2.6
			c1.3-1.3,3-2.2,4.7-2.2c2.1,0,3.3,1.2,3.3,3c0,1.5-0.9,2.6-2.1,3.2c-1,0.5-2.4,0.8-3.6,1c-0.3,0-0.4,0-0.6-0.2
			c-0.3-0.5-0.5-0.9-1-1.2c1.6-0.1,3-0.4,3.9-0.8c1.2-0.5,1.7-1.2,1.7-2.1c0-0.8-0.5-1.5-1.7-1.5c-1.3,0-2.8,0.8-4.1,2.2
			c-0.3,0.3-0.4,0.5-0.6,0.8c-0.1,0.1-0.1,0.1-0.3,0.1c-0.3-0.1-0.7-0.2-1-0.4c-0.1-0.1-0.2-0.1-0.2-0.3c0.1-1.6,0.3-3.3,0.4-4.6
			c0.1-0.4,0.1-0.8,0.1-1.3C57.9,96.7,58.5,96.9,58.9,97 M59.2,93.4c0.1-0.1,0.2-0.1,0.3-0.1c1.1,0.4,1.9,1,2.8,1.7
			c0.1,0.1,0.1,0.1,0.1,0.2c0,0,0,0.1-0.1,0.2c-0.2,0.3-0.5,0.7-0.7,1c-0.1,0.1-0.1,0.1-0.2,0.1s-0.1,0-0.2-0.1
			c-0.8-0.7-1.7-1.3-2.9-1.8C58.7,94,59,93.7,59.2,93.4"/>
		<path class="st6" d="M71.9,95.6c0.1,0.1,0.2,0.2,0.2,0.3c0,0.1,0,0.2-0.1,0.4c-0.1,0.2-0.1,0.8-0.1,1.4c0,0.9,0,1.9,0.3,3.2
			c0.2,1.1,0.6,2.1,1.2,2.1c0.5,0,0.8-0.5,1.4-2c0.3,0.5,0.6,0.8,0.9,1.1c0.2,0.2,0.2,0.3,0.1,0.5c-0.5,1.4-1.4,2.2-2.4,2.2
			c-1.1,0-2.3-1.3-2.7-3.7c-0.2-1.4-0.3-2.8-0.3-4.1c0-0.8,0-1.2-0.2-1.9C70.7,95.2,71.4,95.4,71.9,95.6 M78.4,96.5
			c0.1,0,0.1-0.1,0.2-0.1s0.1,0,0.2,0.1c1.3,1.1,2.4,3.1,2.8,4.9c0,0.2,0,0.2-0.2,0.3c-0.4,0.2-0.7,0.4-1.1,0.6
			c-0.2,0.1-0.3,0-0.3-0.2c-0.5-2-1.2-3.5-2.7-5C77.9,96.8,78.2,96.6,78.4,96.5"/>
		<path class="st6" d="M84.5,95.3c0-1,0-1.4-0.1-2.1c0.5,0,1,0,1.4,0.1c0.1,0,0.2,0.1,0.2,0.1c0,0.1,0,0.2-0.1,0.3
			c-0.1,0.2-0.1,0.5-0.1,1.6V97c0.6,0,0.8,0,0.9,0s0.2,0,0.2,0.2v1c0,0.1,0,0.2-0.2,0.2c-0.1,0-0.3,0-0.9,0v5.3c0,1.6,0,2.4,0,2.5
			s0,0.2-0.2,0.2h-1.1c-0.1,0-0.2,0-0.2-0.2c0-0.1,0-0.9,0-2.5v-5.3l0,0c-0.8,0-1.1,0-1.2,0s-0.2,0-0.2-0.2v-1c0-0.1,0-0.2,0.2-0.2
			c0.1,0,0.3,0,1.2,0l0,0v-1.7H84.5z M94.2,103.2c0,0.5,0,0.8,0,1.3s0,0.9-0.4,1.2c-0.3,0.2-0.7,0.3-1.7,0.3c-0.4,0-0.4,0-0.6-0.4
			c-0.1-0.3-0.2-0.7-0.4-0.9c0.4,0,0.8,0.1,1.3,0c0.3,0,0.5-0.1,0.5-0.4v-1.4h-4.1c-1.4,0-1.9,0-2,0c-0.2,0-0.2,0-0.2-0.2v-0.9
			c0-0.1,0-0.2,0.2-0.2c0.1,0,0.6,0,2,0h4c0-0.2,0-0.4-0.1-0.7c0.5,0,1,0,1.4,0.1c0.1,0,0.2,0.1,0.2,0.2s0,0.2-0.1,0.2
			c0,0.1,0,0.1-0.1,0.2c1.3,0,1.8,0,1.8,0c0.1,0,0.2,0.1,0.2,0.2v0.9c0,0.1,0,0.2-0.2,0.2c-0.1,0-0.6,0-1.9,0v0.3 M93.6,93.1
			c0.2-0.1,0.2,0,0.3,0c0.3,0.2,0.7,0.5,1,0.8C95,94,95,94,94.8,94.1l-0.6,0.4c1.1,0,1.6,0,1.6,0c0.2,0,0.2,0,0.2,0.1v0.9
			c0,0.1,0,0.2-0.2,0.2c-0.1,0-0.6,0-1.9,0H92v0.8h1.2c1.3,0,1.8,0,1.9,0s0.2,0,0.2,0.2c0,0.1,0,0.4,0,1.2v1.7c0,0.8,0,1.1,0,1.2
			s0,0.2-0.2,0.2c-0.1,0-0.6,0-1.9,0h-3.6c-1.3,0-1.8,0-1.9,0s-0.2,0-0.2-0.2c0-0.1,0-0.4,0-1.2v-1.7c0-0.8,0-1.1,0-1.2
			s0-0.2,0.2-0.2c0.1,0,0.6,0,1.9,0h1.1v-0.8h-1.6c-1.4,0-1.9,0-1.9,0c-0.1,0-0.2,0-0.2-0.2v-0.9c0-0.1,0-0.1,0.2-0.1
			c0.1,0,0.6,0,1.9,0h1.6c0-0.7,0-1-0.1-1.5c0.5,0,0.9,0,1.4,0.1c0.1,0,0.2,0.1,0.2,0.1c0,0.1,0,0.2-0.1,0.3c-0.1,0.1-0.1,0.4-0.1,1
			h1.8c-0.2-0.3-0.6-0.6-0.9-0.9c-0.1-0.1-0.1-0.1,0-0.2L93.6,93.1 M89,103.1c0.1-0.1,0.2-0.1,0.3,0c0.5,0.4,0.9,0.9,1.3,1.5
			c0.1,0.1,0.1,0.2-0.1,0.3l-0.8,0.6c-0.1,0.1-0.1,0.1-0.2,0.1c0,0-0.1,0-0.1-0.1c-0.4-0.6-0.8-1.2-1.2-1.6
			c-0.1-0.1-0.1-0.2,0.1-0.3L89,103.1 M90.7,97.4H89v0.8h1.7V97.4z M90.7,99.1H89v0.8h1.7V99.1z M92,98.2h1.8v-0.8H92V98.2z
			 M93.8,99.1H92v0.8h1.8V99.1z"/>
	</g>
</g>
</svg>
