<?xml version="1.0" encoding="utf-8"?>
<!-- Generator: Adobe Illustrator 26.0.1, SVG Export Plug-In . SVG Version: 6.00 Build 0)  -->
<svg version="1.1" id="レイヤー_1" xmlns="http://www.w3.org/2000/svg" xmlns:xlink="http://www.w3.org/1999/xlink" x="0px"
	 y="0px" viewBox="0 0 136.7 136.8" style="enable-background:new 0 0 136.7 136.8;" xml:space="preserve">
<style type="text/css">
	.st0{fill:#FFFFFF;}
	.st1{fill:none;stroke:#7DCCF3;stroke-width:0.8422;stroke-linecap:round;stroke-linejoin:round;}
	.st2{fill:none;stroke:#7DCCF3;stroke-width:0.8422;stroke-linecap:round;stroke-linejoin:round;stroke-dasharray:0.8389,3.3558;}
	.st3{fill:#7DCCF3;}
	.st4{fill:#515151;}
	.st5{fill:#009FE8;}
	.st6{fill:#231815;}
</style>
<g>
	<path class="st0" d="M116.9,117.1c-5.1,5.1-12.7,6.7-18.9,9.9c-6.4,3.2-12.2,8.4-19.1,9.5c-7,1.1-14.1-2-21.1-3.1
		c-6.9-1.1-14.6-0.3-21-3.5c-6.1-3.2-10-9.9-15.1-15S9.9,105.8,6.8,99.7c-3.2-6.4-2.4-14.1-3.5-21c-1.1-7-4.2-14.1-3.1-21.1
		c1.1-6.9,6.2-12.7,9.5-19.1c3.1-6.1,4.7-13.7,9.9-18.9s12.7-6.7,18.9-9.9c6.4-3.2,12.2-8.4,19.1-9.5c7-1.1,14.1,2,21.1,3.1
		c6.9,1.1,14.6,0.3,21,3.5c6.1,3.1,10.1,9.8,15.2,14.9c5.1,5.1,11.8,9.1,14.9,15.2c3.2,6.4,2.4,14.1,3.5,21c1.1,7,4.2,14.1,3.1,21.1
		c-1.1,6.9-6.2,12.7-9.5,19.1C123.7,104.4,122.1,112,116.9,117.1"/>
	<g>
		<g>
			<path class="st1" d="M112.1,112.3c-0.1,0.1-0.2,0.2-0.3,0.3"/>
			<path class="st2" d="M109.1,114.6c-4.3,2.9-9.6,4.2-14.1,6.5c-5.7,2.9-11,7.5-17.2,8.5c-6.3,1-12.7-1.8-19-2.8
				c-6.2-1-13.2-0.3-18.9-3.2c-5.5-2.8-9.1-8.8-13.7-13.4S15.6,102,12.8,96.5c-2.9-5.7-2.1-12.6-3.1-18.9s-3.8-12.7-2.8-19
				c1-6.2,5.6-11.5,8.5-17.2c2.8-5.5,4.3-12.4,8.9-17s11.5-6.1,17-8.9C47,12.6,52.3,8,58.5,7c6.3-1,12.7,1.8,19,2.8
				c6.2,1,13.2,0.3,18.9,3.2c5.5,2.8,9.1,8.8,13.7,13.4s10.6,8.2,13.4,13.7c2.9,5.8,2.2,12.8,3.2,19c1,6.3,3.8,12.7,2.8,19
				c-1,6.2-5.6,11.5-8.5,17.2c-2.5,4.9-3.9,10.9-7.5,15.4"/>
			<path class="st1" d="M112.4,112c-0.1,0.1-0.2,0.2-0.3,0.3"/>
		</g>
	</g>
</g>
</svg>
