<svg width="650" height="175" viewBox="0 0 650 175" fill="none" xmlns="http://www.w3.org/2000/svg">
<g clip-path="url(#clip0_2093_203)">
<path d="M595.355 85.1592V59.5148H479.379C443.205 26.3384 398.244 4.07568 321.9 4.07568C245.556 4.07568 200.595 26.3384 164.421 59.5148H53.9276V85.1592H0V99.5148H650V85.1592H595.355Z" fill="#FDF9D7"/>
<path d="M0 85.1592H53.9276V59.5148H164.421C200.595 26.3384 245.556 4.07568 321.9 4.07568C398.244 4.07568 443.205 26.3384 479.379 59.5148H595.355V85.1592H650" stroke="#EDBD33" stroke-width="7"/>
<path d="M18.4158 102.17C17.9396 102.17 17.4884 101.969 17.1626 101.644C16.9871 101.468 16.8618 101.268 16.7866 101.067C16.6864 100.841 16.6362 100.616 16.6362 100.39C16.6362 99.9141 16.8367 99.4629 17.1626 99.1371C17.338 98.9617 17.5135 98.8363 17.7391 98.7361C18.1651 98.5606 18.6664 98.5606 19.0925 98.7361C19.3181 98.8363 19.5186 98.9617 19.669 99.1371C20.0199 99.4629 20.1953 99.9141 20.1953 100.39C20.1953 100.616 20.1452 100.841 20.07 101.067C19.9698 101.268 19.8444 101.468 19.669 101.644C19.3432 101.969 18.892 102.17 18.4158 102.17Z" fill="#EDBD33"/>
<path d="M47.8908 99.3897C47.8908 98.3871 48.6929 97.6101 49.6704 97.6101C50.6479 97.6101 51.4499 98.3871 51.4499 99.3897C51.4499 100.367 50.6479 101.169 49.6704 101.169C48.6929 101.169 47.8908 100.367 47.8908 99.3897ZM37.4641 99.3897C37.4641 98.3871 38.2662 97.6101 39.2437 97.6101C40.2463 97.6101 41.0232 98.3871 41.0232 99.3897C41.0232 100.367 40.2463 101.169 39.2437 101.169C38.2662 101.169 37.4641 100.367 37.4641 99.3897ZM27.0625 99.3897C27.0625 98.3871 27.8646 97.6101 28.8421 97.6101C29.8196 97.6101 30.6216 98.3871 30.6216 99.3897C30.6216 100.367 29.8196 101.169 28.8421 101.169C27.8646 101.169 27.0625 100.367 27.0625 99.3897ZM58.3175 99.4147C58.3175 98.4372 59.0694 97.6352 60.0469 97.6101C61.0244 97.6101 61.8265 98.3621 61.8516 99.3396C61.8516 100.317 61.0996 101.119 60.1221 101.144C59.1446 101.144 58.3676 100.392 58.3426 99.4147H58.3175ZM67.9421 96.1313C67.1401 95.5549 66.9646 94.452 67.5662 93.65C68.1427 92.873 69.2455 92.6976 70.0475 93.274C70.8245 93.8505 71 94.9533 70.4235 95.7554C70.0726 96.2316 69.5212 96.4822 68.9948 96.4822C68.6189 96.4822 68.268 96.3569 67.9421 96.1313ZM69.3959 84.7522C69.3959 83.7747 70.1729 82.9727 71.1504 82.9727C72.1529 82.9727 72.955 83.7747 72.955 84.7522C72.955 85.7297 72.1529 86.5318 71.1504 86.5318C70.1729 86.5318 69.3959 85.7297 69.3959 84.7522Z" fill="#EDBD33"/>
<path d="M71.1758 76.0799C70.6996 76.0799 70.2484 75.9044 69.9226 75.5535C69.7471 75.4031 69.6218 75.2026 69.5216 74.977C69.4464 74.7765 69.3962 74.5509 69.3962 74.3003C69.3962 74.0497 69.4464 73.8241 69.5216 73.6236C69.6218 73.398 69.7471 73.2225 69.9226 73.0471C70.5743 72.3704 71.7523 72.3704 72.429 73.0471C72.7548 73.3729 72.9554 73.8241 72.9554 74.3003C72.9554 74.7765 72.7548 75.2277 72.429 75.5535C72.0781 75.9044 71.627 76.0799 71.1758 76.0799Z" fill="#EDBD33"/>
<path d="M565.491 74.3011C565.491 73.3236 566.293 72.5216 567.271 72.5216C568.274 72.5216 569.051 73.3236 569.051 74.3011C569.051 75.2786 568.274 76.0807 567.271 76.0807C566.293 76.0807 565.491 75.2786 565.491 74.3011ZM554.814 74.3011C554.814 73.3236 555.616 72.5216 556.594 72.5216C557.571 72.5216 558.373 73.3236 558.373 74.3011C558.373 75.2786 557.571 76.0807 556.594 76.0807C555.616 76.0807 554.814 75.2786 554.814 74.3011ZM544.137 74.3011C544.137 73.3236 544.939 72.5216 545.916 72.5216C546.894 72.5216 547.696 73.3236 547.696 74.3011C547.696 75.2786 546.894 76.0807 545.916 76.0807C544.939 76.0807 544.137 75.2786 544.137 74.3011ZM533.459 74.3011C533.459 73.3236 534.261 72.5216 535.239 72.5216C536.216 72.5216 537.019 73.3236 537.019 74.3011C537.019 75.2786 536.216 76.0807 535.239 76.0807C534.261 76.0807 533.459 75.2786 533.459 74.3011ZM522.782 74.3011C522.782 73.3236 523.584 72.5216 524.562 72.5216C525.539 72.5216 526.341 73.3236 526.341 74.3011C526.341 75.2786 525.539 76.0807 524.562 76.0807C523.584 76.0807 522.782 75.2786 522.782 74.3011ZM512.105 74.3011C512.105 73.3236 512.882 72.5216 513.884 72.5216C514.862 72.5216 515.639 73.3236 515.639 74.3011C515.639 75.2786 514.862 76.0807 513.884 76.0807C512.882 76.0807 512.105 75.2786 512.105 74.3011ZM501.427 74.3011C501.427 73.3236 502.204 72.5216 503.207 72.5216C504.184 72.5216 504.987 73.3236 504.987 74.3011C504.987 75.2786 504.184 76.0807 503.207 76.0807C502.204 76.0807 501.427 75.2786 501.427 74.3011ZM490.725 74.3011C490.725 73.3236 491.527 72.5216 492.505 72.5216C493.482 72.5216 494.284 73.3236 494.284 74.3011C494.284 75.2786 493.482 76.0807 492.505 76.0807C491.527 76.0807 490.725 75.2786 490.725 74.3011ZM480.048 74.3011C480.048 73.3236 480.85 72.5216 481.827 72.5216C482.805 72.5216 483.607 73.3236 483.607 74.3011C483.607 75.2786 482.805 76.0807 481.827 76.0807C480.85 76.0807 480.048 75.2786 480.048 74.3011ZM165.517 74.3011C165.517 73.3236 166.32 72.5216 167.297 72.5216C168.275 72.5216 169.077 73.3236 169.077 74.3011C169.077 75.2786 168.275 76.0807 167.297 76.0807C166.32 76.0807 165.517 75.2786 165.517 74.3011ZM154.84 74.3011C154.84 73.3236 155.617 72.5216 156.62 72.5216C157.597 72.5216 158.399 73.3236 158.399 74.3011C158.399 75.2786 157.597 76.0807 156.62 76.0807C155.617 76.0807 154.84 75.2786 154.84 74.3011ZM144.163 74.3011C144.163 73.3236 144.94 72.5216 145.942 72.5216C146.92 72.5216 147.697 73.3236 147.697 74.3011C147.697 75.2786 146.92 76.0807 145.942 76.0807C144.94 76.0807 144.163 75.2786 144.163 74.3011ZM133.46 74.3011C133.46 73.3236 134.262 72.5216 135.24 72.5216C136.243 72.5216 137.02 73.3236 137.02 74.3011C137.02 75.2786 136.243 76.0807 135.24 76.0807C134.262 76.0807 133.46 75.2786 133.46 74.3011ZM122.783 74.3011C122.783 73.3236 123.585 72.5216 124.563 72.5216C125.54 72.5216 126.342 73.3236 126.342 74.3011C126.342 75.2786 125.54 76.0807 124.563 76.0807C123.585 76.0807 122.783 75.2786 122.783 74.3011ZM112.106 74.3011C112.106 73.3236 112.908 72.5216 113.885 72.5216C114.863 72.5216 115.665 73.3236 115.665 74.3011C115.665 75.2786 114.863 76.0807 113.885 76.0807C112.908 76.0807 112.106 75.2786 112.106 74.3011ZM101.428 74.3011C101.428 73.3236 102.23 72.5216 103.208 72.5216C104.185 72.5216 104.988 73.3236 104.988 74.3011C104.988 75.2786 104.185 76.0807 103.208 76.0807C102.23 76.0807 101.428 75.2786 101.428 74.3011ZM90.7511 74.3011C90.7511 73.3236 91.5531 72.5216 92.5306 72.5216C93.5081 72.5216 94.3102 73.3236 94.3102 74.3011C94.3102 75.2786 93.5081 76.0807 92.5306 76.0807C91.5531 76.0807 90.7511 75.2786 90.7511 74.3011ZM80.0737 74.3011C80.0737 73.3236 80.8758 72.5216 81.8533 72.5216C82.8308 72.5216 83.6328 73.3236 83.6328 74.3011C83.6328 75.2786 82.8308 76.0807 81.8533 76.0807C80.8758 76.0807 80.0737 75.2786 80.0737 74.3011ZM470.548 74.8776C469.671 74.4766 469.27 73.4239 469.696 72.5216C470.097 71.6443 471.15 71.2433 472.052 71.6443C472.929 72.0704 473.33 73.1231 472.904 74.0003C472.604 74.652 471.977 75.053 471.3 75.053C471.05 75.053 470.799 74.9779 470.548 74.8776ZM175.468 71.4187C174.816 70.6919 174.866 69.564 175.593 68.8873C176.32 68.2356 177.448 68.3108 178.1 69.0126C178.776 69.7645 178.701 70.8673 177.999 71.5441C177.649 71.8448 177.222 71.9952 176.796 71.9952C176.32 71.9952 175.819 71.7947 175.468 71.4187ZM461.876 67.9098C461.124 67.2832 461.049 66.1553 461.676 65.4033C462.327 64.6765 463.455 64.5762 464.182 65.2279C464.934 65.8796 465.009 66.9824 464.383 67.7343C464.032 68.1353 463.53 68.3358 463.029 68.3358C462.628 68.3358 462.202 68.2105 461.876 67.9098ZM183.514 64.3757C182.887 63.6238 182.987 62.4959 183.764 61.8693C184.516 61.2427 185.644 61.368 186.271 62.1199C186.872 62.8969 186.772 63.9997 186.02 64.6264C185.669 64.9021 185.268 65.0274 184.892 65.0274C184.366 65.0274 183.864 64.8018 183.514 64.3757ZM453.68 61.2176C452.903 60.6161 452.753 59.5133 453.354 58.7363C453.956 57.9593 455.084 57.8089 455.836 58.4104C456.613 59.012 456.763 60.1399 456.162 60.8918C455.811 61.368 455.284 61.5936 454.758 61.5936C454.382 61.5936 454.006 61.4683 453.68 61.2176ZM191.885 57.7588C191.308 56.9567 191.484 55.8539 192.261 55.2774C193.063 54.7009 194.166 54.8764 194.742 55.6534C195.319 56.4554 195.168 57.5583 194.366 58.1347C194.066 58.3603 193.69 58.4856 193.339 58.4856C192.787 58.4856 192.236 58.235 191.885 57.7588ZM445.133 54.9766C444.331 54.4252 444.131 53.3224 444.682 52.4953C445.234 51.6932 446.336 51.4927 447.163 52.0441C447.966 52.6206 448.166 53.7234 447.615 54.5255C447.264 55.0268 446.712 55.3025 446.136 55.3025C445.785 55.3025 445.434 55.2022 445.133 54.9766ZM200.607 51.618C200.081 50.7909 200.332 49.6881 201.134 49.1618C201.961 48.6104 203.064 48.861 203.59 49.663C204.141 50.4902 203.891 51.593 203.089 52.1193C202.813 52.3198 202.462 52.4201 202.136 52.4201C201.56 52.4201 200.983 52.1193 200.632 51.618H200.607ZM436.261 49.237C435.433 48.7357 435.158 47.6329 435.659 46.8057C436.16 45.9536 437.263 45.6778 438.09 46.2042C438.942 46.7055 439.218 47.8083 438.692 48.6354C438.366 49.1868 437.789 49.4876 437.188 49.4876C436.862 49.4876 436.536 49.4124 436.261 49.237ZM209.681 45.9786C209.204 45.1264 209.505 44.0236 210.357 43.5474C211.209 43.0712 212.287 43.3719 212.788 44.2241C213.265 45.0763 212.964 46.1541 212.112 46.6553C211.836 46.8057 211.535 46.8809 211.235 46.8809C210.608 46.8809 210.006 46.5551 209.681 45.9786ZM427.062 44.0487C426.185 43.5725 425.859 42.5198 426.335 41.6425C426.786 40.7653 427.839 40.4394 428.716 40.8906C429.594 41.3417 429.919 42.4195 429.468 43.2967C429.142 43.8983 428.541 44.2492 427.889 44.2492C427.613 44.2492 427.338 44.174 427.062 44.0487ZM219.08 40.9157C218.653 40.0384 219.029 38.9606 219.907 38.5346C220.784 38.1085 221.837 38.4594 222.263 39.3617C222.714 40.2389 222.338 41.2916 221.461 41.7177C221.21 41.843 220.934 41.8932 220.684 41.8932C220.032 41.8932 219.38 41.5423 219.08 40.9157ZM417.563 39.4118C416.66 39.0108 416.284 37.9581 416.685 37.0808C417.087 36.1785 418.139 35.7775 419.016 36.1785C419.919 36.5796 420.32 37.6322 419.919 38.5346C419.618 39.1862 418.966 39.5873 418.29 39.5873C418.064 39.5873 417.813 39.5121 417.563 39.4118ZM228.779 36.4292C228.403 35.5269 228.83 34.4742 229.732 34.0982C230.634 33.7222 231.687 34.1734 232.063 35.0757C232.414 35.978 231.988 37.0056 231.085 37.3816C230.885 37.4819 230.634 37.532 230.409 37.532C229.707 37.532 229.055 37.1059 228.779 36.4292ZM407.813 35.3765C406.885 35.0256 406.409 34.023 406.76 33.0956C407.111 32.1933 408.139 31.7171 409.066 32.068C409.968 32.4189 410.444 33.4465 410.094 34.3488C409.818 35.0757 409.141 35.5018 408.439 35.5018C408.214 35.5018 408.013 35.4517 407.813 35.3765ZM238.705 32.5442C238.404 31.6169 238.88 30.6143 239.808 30.2884C240.735 29.9626 241.738 30.4639 242.063 31.3662C242.389 32.2936 241.913 33.3212 240.986 33.647C240.785 33.6972 240.585 33.7473 240.384 33.7473C239.657 33.7473 238.981 33.2711 238.705 32.5442ZM397.812 31.9427C396.86 31.6419 396.333 30.6644 396.634 29.712C396.935 28.7846 397.912 28.2583 398.865 28.534C399.792 28.8347 400.319 29.8373 400.018 30.7647C399.792 31.5417 399.09 32.0179 398.338 32.0179C398.163 32.0179 397.988 31.9928 397.812 31.9427ZM248.881 29.2358C248.605 28.3084 249.157 27.3309 250.084 27.0552C251.036 26.7795 252.014 27.3309 252.29 28.2833C252.565 29.2358 252.014 30.2133 251.061 30.489C250.911 30.489 250.736 30.5391 250.585 30.5391C249.808 30.5391 249.081 30.0378 248.881 29.2358ZM387.611 29.0603C386.659 28.8347 386.082 27.8572 386.333 26.9048C386.583 25.9524 387.536 25.3759 388.488 25.6265C389.441 25.8521 390.017 26.8296 389.767 27.782C389.566 28.5841 388.839 29.1355 388.062 29.1355C387.912 29.1355 387.761 29.1355 387.611 29.0603ZM259.182 26.5288C258.982 25.5764 259.583 24.6239 260.536 24.3984C261.488 24.1979 262.441 24.7994 262.666 25.7518C262.867 26.7043 262.29 27.6567 261.313 27.8823C261.313 27.8823 261.062 27.8823 260.937 27.8823C260.11 27.8823 259.383 27.3309 259.182 26.5038V26.5288ZM377.285 26.7544C376.332 26.5539 375.706 25.6015 375.906 24.649C376.082 23.6966 377.034 23.07 377.986 23.2454C378.964 23.4459 379.565 24.3733 379.39 25.3508C379.215 26.203 378.463 26.7795 377.636 26.7795C377.636 26.7795 377.41 26.7544 377.285 26.7544ZM269.634 24.3482C269.484 23.3958 270.11 22.4684 271.088 22.293C272.065 22.1426 272.968 22.7692 273.143 23.7467C273.318 24.6991 272.667 25.6265 271.714 25.802C271.714 25.802 271.489 25.802 271.389 25.802C270.536 25.802 269.809 25.2004 269.634 24.3232V24.3482ZM366.858 24.9247C365.88 24.7743 365.229 23.872 365.379 22.8945C365.504 21.917 366.432 21.2654 367.384 21.4157C368.362 21.5411 369.038 22.4434 368.888 23.4209C368.763 24.2981 367.986 24.9498 367.134 24.9498C367.134 24.9498 366.958 24.9498 366.858 24.9498V24.9247ZM280.186 22.6689C280.061 21.6914 280.762 20.8142 281.715 20.6889C282.692 20.5636 283.595 21.2403 283.72 22.2178C283.845 23.1953 283.144 24.0725 282.166 24.1979C282.166 24.1979 282.016 24.1979 281.941 24.1979C281.063 24.1979 280.311 23.5462 280.186 22.6439V22.6689ZM356.356 23.5713C355.379 23.4459 354.652 22.5687 354.777 21.6162C354.877 20.6387 355.755 19.9119 356.732 20.0372C357.71 20.1375 358.411 21.0147 358.311 21.9922C358.211 22.8945 357.434 23.5713 356.531 23.5713H356.356ZM290.788 21.4408C290.713 20.4633 291.44 19.6111 292.417 19.5109H292.392C293.37 19.4357 294.247 20.1625 294.322 21.115C294.422 22.1175 293.696 22.9697 292.718 23.07H292.568C291.665 23.07 290.888 22.3682 290.788 21.4408ZM345.779 22.6188C344.801 22.5436 344.075 21.6914 344.125 20.7139C344.2 19.7615 345.052 19.0096 346.03 19.0848C347.007 19.1349 347.734 19.9871 347.684 20.9646C347.609 21.917 346.832 22.6188 345.904 22.6188H345.779ZM301.44 20.6387C301.39 19.6612 302.142 18.8091 303.12 18.7589C304.097 18.7088 304.949 19.4607 305 20.4382C305.05 21.4157 304.298 22.2679 303.32 22.318H303.195C302.268 22.318 301.491 21.5661 301.44 20.6387ZM335.177 22.0674C334.199 22.0173 333.422 21.2152 333.472 20.2127C333.472 19.2352 334.325 18.4832 335.302 18.5083C336.28 18.5584 337.057 19.3855 337.006 20.363C336.981 21.3155 336.204 22.0674 335.252 22.0674H335.177ZM312.118 20.1625C312.118 19.185 312.87 18.383 313.847 18.3579C314.825 18.3579 315.627 19.1098 315.652 20.0873C315.652 21.0899 314.9 21.892 313.922 21.917C312.945 21.917 312.143 21.14 312.143 20.1625H312.118ZM322.795 20.0372C322.795 19.0597 323.597 18.2827 324.575 18.2827C325.552 18.2827 326.354 19.0848 326.329 20.0623C326.329 21.0398 325.527 21.8418 324.55 21.8418C323.572 21.8418 322.77 21.0398 322.795 20.0372Z" fill="#EDBD33"/>
<path d="M578.123 76.0797C577.898 76.0797 577.672 76.0295 577.447 75.9543C577.246 75.8541 577.046 75.7288 576.87 75.5533C576.544 75.2275 576.344 74.7763 576.344 74.3001C576.344 73.8239 576.544 73.3978 576.87 73.0469C577.046 72.8714 577.246 72.7461 577.447 72.6709C577.873 72.4955 578.374 72.4704 578.825 72.6709C579.026 72.7461 579.226 72.8714 579.402 73.0469C579.552 73.2223 579.677 73.3978 579.778 73.6234C579.878 73.8489 579.903 74.0745 579.903 74.3001C579.903 74.5507 579.903 74.7763 579.778 74.9768C579.677 75.2024 579.552 75.4029 579.402 75.5533C579.051 75.9042 578.6 76.0797 578.123 76.0797Z" fill="#EDBD33"/>
<path d="M589.477 101.169C588.5 101.169 587.698 100.367 587.698 99.3892C587.698 98.3866 588.5 97.6096 589.502 97.6096C590.48 97.6096 591.282 98.3866 591.257 99.3892C591.257 100.367 590.48 101.169 589.502 101.169H589.477ZM619.279 99.3892C619.279 98.3866 620.056 97.6096 621.058 97.6096C622.036 97.6096 622.838 98.3866 622.838 99.3892C622.838 100.367 622.036 101.169 621.058 101.169C620.056 101.169 619.279 100.367 619.279 99.3892ZM608.752 99.3892C608.752 98.3866 609.554 97.6096 610.531 97.6096C611.509 97.6096 612.311 98.3866 612.311 99.3892C612.311 100.367 611.509 101.169 610.531 101.169C609.554 101.169 608.752 100.367 608.752 99.3892ZM598.225 99.3892C598.225 98.3866 599.027 97.6096 600.004 97.6096C600.982 97.6096 601.784 98.3866 601.784 99.3892C601.784 100.367 600.982 101.169 600.004 101.169C599.027 101.169 598.225 100.367 598.225 99.3892ZM579.001 95.9053C578.399 95.1283 578.549 94.0004 579.351 93.4239C580.128 92.8224 581.231 92.9978 581.833 93.7748C582.409 94.5518 582.259 95.6797 581.482 96.2562C581.156 96.5068 580.78 96.6071 580.404 96.6071C579.878 96.6071 579.351 96.3815 579.001 95.9053ZM576.344 84.8269C576.344 83.8494 577.146 83.0474 578.123 83.0474C579.126 83.0474 579.903 83.8494 579.903 84.8269C579.903 85.8044 579.126 86.6065 578.123 86.6065C577.146 86.6065 576.344 85.8044 576.344 84.8269Z" fill="#EDBD33"/>
<path d="M631.61 102.145C631.359 102.145 631.134 102.12 630.933 102.019C630.708 101.944 630.507 101.794 630.357 101.644C630.181 101.468 630.056 101.268 629.956 101.067C629.88 100.841 629.83 100.616 629.83 100.39C629.83 99.9141 630.006 99.4629 630.357 99.112C630.507 98.9617 630.708 98.8363 630.933 98.7361C631.359 98.5606 631.861 98.5606 632.287 98.7361C632.512 98.8363 632.688 98.9617 632.863 99.112C633.189 99.4629 633.389 99.9141 633.389 100.39C633.389 100.616 633.339 100.841 633.239 101.067C633.164 101.268 633.039 101.468 632.863 101.644C632.688 101.794 632.512 101.919 632.287 102.019C632.061 102.12 631.835 102.145 631.61 102.145Z" fill="#EDBD33"/>
<path d="M592.642 102.908C592.642 102.908 585.087 102.165 582.551 111.077C580.042 119.989 580.912 118.043 580.912 118.043L577.942 114.791C577.942 114.791 579.581 109.746 576.61 108.696C573.639 107.646 567.57 112.409 568.594 117.889C569.619 123.37 572.897 120.271 572.897 120.271L579.606 125.828C582.244 128.415 586.111 128.415 587.161 125.905L591.464 114.765L592.642 102.882V102.908Z" fill="#F9E0C0"/>
<path d="M578.787 126.828L572.846 121.885C572.154 122.295 571.155 122.628 570.08 122.295C568.697 121.859 567.801 120.451 567.365 118.146C566.776 115.047 568.057 111.795 570.797 109.439C572.897 107.621 575.304 106.903 577.071 107.518C580.016 108.568 579.991 112.102 579.402 114.484L580.119 115.252C580.426 114.125 580.836 112.666 581.374 110.745C584.165 100.937 592.718 101.628 592.821 101.654C593.154 101.679 593.461 101.858 593.692 102.115C593.896 102.371 593.999 102.704 593.973 103.036L592.795 114.894C592.795 114.894 592.77 115.124 592.718 115.227L588.39 126.392C587.827 127.724 586.7 128.646 585.189 128.953C584.805 129.03 584.447 129.056 584.037 129.056C582.219 129.056 580.272 128.236 578.838 126.802L578.787 126.828ZM591.233 104.24C589.21 104.496 585.394 105.751 583.781 111.436C582.705 115.252 582.295 116.942 582.142 117.659C582.244 117.967 582.219 118.3 582.091 118.581C581.809 119.196 580.964 119.631 580.349 119.426C579.811 119.222 579.504 119.068 579.478 118.376L576.994 115.662C576.687 115.329 576.585 114.842 576.713 114.407C576.713 114.381 577.865 110.514 576.175 109.925C575.432 109.669 573.921 110.079 572.41 111.385C570.848 112.742 569.337 115.098 569.824 117.685C570.182 119.631 570.746 119.862 570.822 119.887C571.104 119.939 571.693 119.657 572 119.375C572.461 118.94 573.204 118.914 573.691 119.324L580.477 124.958C581.681 126.136 583.32 126.725 584.6 126.495C585.266 126.367 585.727 126.008 585.932 125.496L590.183 114.535L591.208 104.291L591.233 104.24Z" fill="#231815"/>
<path d="M617.406 104.24C617.406 104.24 633.591 97.2746 636.843 86.7235C636.843 86.7235 634.615 79.1688 642.631 80.1932C647.958 80.8846 650.186 92.793 644.116 92.9466C641.299 96.9417 632.541 110.591 619.198 113.127L617.406 104.215V104.24Z" fill="#F9E0C0"/>
<path d="M617.944 113.408L616.177 104.496C616.049 103.907 616.381 103.318 616.919 103.062C617.073 103.011 632.234 96.3522 635.537 86.6719C635.307 85.5963 634.871 82.6512 636.587 80.6537C637.868 79.1428 639.968 78.5793 642.836 78.9379C646.78 79.4501 649.29 84.5207 649.059 88.7463C648.905 91.7938 647.318 93.8169 644.859 94.1755L644.654 94.4572C641.351 99.2205 632.567 111.897 619.455 114.381C619.378 114.381 619.301 114.381 619.224 114.381C618.635 114.381 618.097 113.971 617.969 113.357L617.944 113.408ZM638.508 82.3183C637.509 83.4707 637.868 85.6475 638.073 86.3902C638.149 86.6207 638.149 86.8768 638.073 87.1329C635.102 96.7108 622.476 103.292 618.866 105.008L620.197 111.641C631.593 108.798 639.507 97.4278 642.529 93.0486L643.092 92.2547C643.323 91.9218 643.707 91.717 644.091 91.717C645.935 91.6657 646.421 90.0267 646.472 88.6438C646.626 85.6731 644.885 81.8061 642.452 81.4988C641.991 81.4476 641.555 81.422 641.171 81.422C639.916 81.422 638.995 81.7293 638.482 82.3439L638.508 82.3183Z" fill="#231815"/>
<path d="M610.098 168.452L621.466 166.267L617.323 144.714L605.956 146.899L610.098 168.452Z" fill="#F9E0C0"/>
<path d="M608.852 168.751L604.703 147.187C604.652 146.855 604.703 146.522 604.908 146.24C605.113 145.958 605.395 145.779 605.728 145.702L617.098 143.525C617.841 143.397 618.456 143.858 618.584 144.524L622.732 166.087C622.784 166.42 622.732 166.753 622.527 167.035C622.323 167.316 622.041 167.496 621.708 167.572L610.337 169.749C610.337 169.749 610.184 169.749 610.107 169.749C609.492 169.749 608.98 169.314 608.852 168.725V168.751ZM616.304 146.24L607.444 147.93L611.106 166.983L619.966 165.293L616.304 146.24Z" fill="#231815"/>
<path d="M610.096 168.46L621.463 166.275L619.539 156.266L608.172 158.451L610.096 168.46Z" fill="#746858"/>
<path d="M608.852 168.751L606.932 158.763C606.804 158.072 607.239 157.406 607.931 157.278L619.301 155.101C619.634 155.05 619.967 155.101 620.249 155.306C620.53 155.511 620.71 155.792 620.786 156.125L622.707 166.139C622.758 166.472 622.707 166.804 622.502 167.086C622.297 167.368 622.016 167.547 621.683 167.624L610.312 169.801C610.312 169.801 610.159 169.801 610.082 169.801C609.467 169.801 608.955 169.365 608.827 168.776L608.852 168.751ZM618.533 157.816L609.672 159.531L611.106 167.035L619.967 165.345L618.533 157.841V157.816Z" fill="#231815"/>
<path d="M574.509 148.676L576.24 160.121L597.94 156.839L596.21 145.394L574.509 148.676Z" fill="#F9E0C0"/>
<path d="M575.509 161.144C575.227 160.939 575.048 160.658 574.997 160.299L573.255 148.852C573.153 148.16 573.639 147.52 574.331 147.392L596.047 144.114C596.38 144.063 596.713 144.14 596.995 144.344C597.277 144.549 597.456 144.831 597.507 145.19L599.249 156.637C599.351 157.328 598.864 157.969 598.173 158.097L576.456 161.375C576.456 161.375 576.328 161.375 576.277 161.375C575.995 161.375 575.739 161.298 575.534 161.119L575.509 161.144ZM595.177 146.854L575.97 149.748L577.327 158.66L596.534 155.766L595.177 146.854Z" fill="#231815"/>
<path d="M574.512 148.701L576.243 160.146L586.321 158.622L584.59 147.177L574.512 148.701Z" fill="#746858"/>
<path d="M575.509 161.145C575.227 160.94 575.048 160.658 574.997 160.3L573.255 148.853C573.153 148.161 573.639 147.521 574.331 147.393L584.395 145.882C585.061 145.805 585.727 146.266 585.855 146.957L587.596 158.405C587.648 158.738 587.571 159.071 587.366 159.352C587.161 159.634 586.879 159.813 586.521 159.865L576.456 161.376C576.456 161.376 576.328 161.376 576.277 161.376C575.995 161.376 575.739 161.299 575.534 161.119L575.509 161.145ZM583.524 148.622L575.97 149.774L577.327 158.687L584.882 157.534L583.524 148.622Z" fill="#231815"/>
<path d="M586.265 151.286H623.937L618.763 116.406H590.849L586.265 151.286Z" fill="#F2C81F"/>
<path d="M585.292 152.13C585.061 151.849 584.933 151.49 584.984 151.132L589.594 116.252C589.671 115.611 590.209 115.15 590.849 115.15H618.737C619.378 115.15 619.916 115.611 619.992 116.226L625.191 151.106C625.242 151.464 625.14 151.849 624.884 152.13C624.653 152.412 624.295 152.566 623.911 152.566H586.214C585.855 152.566 585.497 152.412 585.266 152.13H585.292ZM617.662 117.686H591.976L587.699 150.005H622.451L617.636 117.686H617.662Z" fill="#231815"/>
<path d="M586.265 137.79H623.937L618.763 102.91H590.849L586.265 137.79Z" fill="#F4E829"/>
<path d="M585.292 138.634C585.061 138.353 584.933 137.994 584.984 137.635L589.594 102.756C589.671 102.115 590.209 101.654 590.849 101.654H618.737C619.378 101.654 619.916 102.115 619.992 102.73L625.191 137.61C625.242 137.968 625.14 138.353 624.884 138.634C624.653 138.916 624.295 139.07 623.911 139.07H586.214C585.855 139.07 585.497 138.916 585.266 138.634H585.292ZM617.662 104.19H591.976L587.699 136.509H622.451L617.636 104.19H617.662Z" fill="#231815"/>
<path d="M597.251 104.394H612.54V100.092H597.251V104.394Z" fill="#E5D0B3"/>
<path d="M595.971 104.393V100.091C595.971 99.374 596.535 98.8105 597.252 98.8105H612.54C613.258 98.8105 613.821 99.374 613.821 100.091V104.393C613.821 105.11 613.258 105.674 612.54 105.674H597.252C596.535 105.674 595.971 105.11 595.971 104.393ZM611.234 101.371H598.507V103.113H611.234V101.371Z" fill="#231815"/>
<path d="M588.877 90.9484C589.671 87.7728 589.082 77.0937 592.847 71.3572C596.611 65.6207 610.056 66.0049 616.382 69.1804C622.707 72.356 621.734 80.2693 621.913 86.7997C622.118 93.3301 624.474 95.302 624.295 98.0678C624.09 100.834 614.999 99.2458 614.999 99.2458C614.999 99.2458 598.583 98.7336 592.642 98.8617C581.963 99.0666 588.083 94.124 588.877 90.9484Z" fill="#675B4C"/>
<path d="M614.948 100.527C614.794 100.527 598.506 100.015 592.667 100.143C588.724 100.22 586.419 99.5796 585.522 98.0943C584.524 96.4041 585.625 94.4833 586.598 92.7931C587.033 92.0248 587.494 91.231 587.648 90.6419C587.853 89.8224 587.955 88.2859 588.083 86.4932C588.442 81.6531 588.928 75.0202 591.771 70.6666C595.92 64.3411 609.979 64.5716 616.945 68.0545C623.091 71.1276 623.117 77.9653 623.142 83.9835C623.142 84.9311 623.143 85.853 623.168 86.7493C623.271 90.2834 624.064 92.409 624.679 94.0992C625.191 95.5077 625.652 96.7114 625.55 98.1455C625.499 98.8625 625.166 99.4772 624.577 99.9381C623.552 100.732 621.708 100.988 619.89 100.988C617.816 100.988 615.767 100.681 614.922 100.527H614.948ZM593.897 72.0495C591.413 75.8397 590.952 82.0884 590.619 86.6469C590.465 88.6444 590.363 90.2066 590.106 91.231C589.876 92.1529 589.338 93.1004 588.8 94.0224C588.339 94.8419 587.469 96.3528 587.699 96.7626C587.75 96.865 588.288 97.6845 592.591 97.5565C598.506 97.454 614.333 97.9406 615.178 97.9662C618.686 98.5808 622.502 98.5296 622.989 97.9662C623.04 97.0699 622.733 96.1736 622.272 94.9699C621.606 93.2029 620.71 90.77 620.607 86.8261C620.582 85.9042 620.582 84.9567 620.582 83.9835C620.556 78.1702 620.53 72.6898 615.793 70.3081C613.104 68.9508 608.955 68.1313 604.96 68.1313C600.222 68.1313 595.689 69.2837 593.871 72.0239L593.897 72.0495Z" fill="#231815"/>
<path d="M593.41 101.525H617.15V75.1221H593.41V101.525Z" fill="#F9E0C0"/>
<path d="M592.155 101.526V75.1223C592.155 74.4052 592.719 73.8418 593.436 73.8418H617.176C617.893 73.8418 618.456 74.4052 618.456 75.1223V101.526C618.456 102.243 617.893 102.806 617.176 102.806H593.436C592.719 102.806 592.155 102.243 592.155 101.526ZM615.895 76.4027H594.716V100.271H615.895V76.4027Z" fill="#231815"/>
<path d="M609.851 92.9209H612.514V87.9783H609.851V92.9209Z" fill="#231815"/>
<path d="M611.874 89.7715H613.59V86.5703H611.874V89.7715Z" fill="#231815"/>
<path d="M599.019 92.9209H601.682V87.9783H599.019V92.9209Z" fill="#231815"/>
<path d="M601.042 89.7715H602.757V86.5703H601.042V89.7715Z" fill="#231815"/>
<path d="M605.625 98.837C607.905 98.837 609.492 97.7102 610.133 96.8139C610.542 96.2505 610.44 95.4566 609.876 95.0212C609.313 94.6115 608.519 94.7139 608.109 95.2773C607.93 95.5078 606.291 97.3773 602.603 95.4053C601.989 95.098 601.195 95.3029 600.888 95.9431C600.555 96.5578 600.785 97.326 601.425 97.659C603.013 98.5041 604.447 98.8114 605.651 98.8114L605.625 98.837Z" fill="#231815"/>
<path d="M638.482 78.8878C638.482 78.8878 648.265 91.0522 648.88 92.3839C649.494 93.7156 646.805 96.0973 645.32 95.6363C643.835 95.1753 633.156 82.1402 633.309 81.2438C633.463 80.3475 636.562 77.3768 638.508 78.8622L638.482 78.8878Z" fill="#807F81"/>
<path d="M644.936 96.8652C643.348 96.3786 631.696 82.9593 632.029 81.0386C632.234 79.8606 633.949 78.196 635.64 77.5301C636.971 76.9923 638.277 77.1204 639.251 77.8887C639.327 77.9399 639.404 78.0167 639.455 78.0935C641.786 80.9874 649.392 90.4885 650.007 91.8714C650.442 92.8701 650.135 94.0482 649.161 95.175C648.291 96.1481 646.959 96.9932 645.704 96.9932C645.448 96.9932 645.192 96.9676 644.936 96.8908V96.8652ZM636.895 79.7838C635.998 80.0142 635.051 80.8593 634.692 81.2691C636.075 83.5995 644.296 93.5872 645.679 94.4067C645.781 94.4579 646.242 94.3555 646.805 93.9201C647.42 93.4592 647.676 92.947 647.727 92.8957C647.292 91.9994 642.221 85.5202 637.637 79.8094C637.509 79.7581 637.304 79.6813 636.92 79.7838H636.895Z" fill="#231815"/>
<path d="M634.564 84.0598C637.223 84.0598 639.379 81.9042 639.379 79.2452C639.379 76.5862 637.223 74.4307 634.564 74.4307C631.905 74.4307 629.75 76.5862 629.75 79.2452C629.75 81.9042 631.905 84.0598 634.564 84.0598Z" fill="#A6A6A6"/>
<path d="M628.469 79.2449C628.469 75.8901 631.209 73.1499 634.564 73.1499C637.919 73.1499 640.659 75.8901 640.659 79.2449C640.659 82.5998 637.919 85.34 634.564 85.34C631.209 85.34 628.469 82.5998 628.469 79.2449ZM631.004 79.2449C631.004 81.1912 632.592 82.779 634.538 82.779C636.485 82.779 638.073 81.1912 638.073 79.2449C638.073 77.2986 636.485 75.6852 634.538 75.6852C632.592 75.6852 631.004 77.273 631.004 79.2449Z" fill="#231815"/>
<path d="M619.454 83.7789C619.454 83.7789 618.2 87.2874 616.048 85.6484C613.897 84.0094 605.907 76.3266 605.907 76.3266C605.907 76.3266 597.533 84.8033 595.151 86.4679C592.769 88.1325 591.002 88.5423 591.002 87.2874C591.002 86.0326 589.44 76.1986 593.794 73.3047C598.147 70.4108 611.183 71.1279 614.384 72.1779C617.585 73.2279 618.737 73.4327 619.454 75.2766C620.172 77.1205 619.454 83.7533 619.454 83.7533V83.7789Z" fill="#675B4C"/>
<path d="M593.23 89.2596C593.384 89.2596 593.538 89.234 593.691 89.1572C595.151 88.5682 597.123 86.5963 600.35 83.3183C601.912 81.7561 603.705 79.9378 605.779 77.9659C608.647 82.2683 615.101 87.006 615.408 87.2365C615.997 87.6462 616.663 88.056 617.483 87.8767C618.328 87.7231 618.737 87.0572 619.122 86.4426C619.25 86.2377 619.378 86.0072 619.557 85.7768C619.967 85.2133 619.839 84.3939 619.25 84.0097C618.686 83.6 617.867 83.728 617.483 84.317C617.278 84.6243 617.098 84.8804 616.945 85.1365C616.945 85.1621 616.894 85.1877 616.894 85.239C614.717 83.6512 608.724 78.7598 607.213 75.4562C607.034 75.072 606.701 74.8159 606.291 74.7391C605.907 74.6367 605.472 74.7903 605.164 75.0464C602.578 77.4793 600.35 79.7073 598.506 81.6024C595.919 84.2146 593.666 86.4682 592.693 86.878C592.027 87.1341 591.72 87.8767 591.976 88.5426C592.18 89.0291 592.641 89.3365 593.154 89.3365L593.23 89.2596Z" fill="#231815"/>
<g filter="url(#filter0_d_2093_203)">
<path d="M560.937 148.577C561.372 148.295 561.782 147.988 562.141 147.604C563.498 146.221 564.266 144.377 564.266 142.43L564.215 135.081C564.215 132.52 562.858 130.292 560.835 129.011C560.86 129.011 560.911 128.986 560.937 128.96C562.986 127.628 564.215 125.323 564.215 122.891V115.208C564.215 112.314 562.499 109.702 559.861 108.549L557.736 107.627L563.191 97.2812C564.369 95.0275 564.292 92.3129 562.986 90.1361C561.68 87.9593 559.324 86.6277 556.763 86.6277H553.92H542.934H528.49C528.106 86.6277 527.722 86.6789 527.338 86.7301C526.979 86.6789 526.646 86.6021 526.288 86.6021H520.833H514.123H510.538H506.466H499.5C496.017 86.6021 493.021 89.0862 492.355 92.5178L491.023 99.586C490.255 99.3043 489.436 99.1762 488.616 99.1762C488.258 99.1762 487.899 99.2019 487.541 99.2531L475.914 101.02V93.9007C475.914 89.9057 472.662 86.6533 468.641 86.6533H454.837C453.916 86.6533 453.045 86.8325 452.2 87.1655C451.38 86.8581 450.535 86.6533 449.664 86.6533H436.399C433.223 86.6533 430.406 88.7276 429.459 91.7751L427.922 96.7434C427.128 93.5934 424.285 91.263 420.905 91.263H403.9C403.542 90.4178 403.004 89.624 402.338 88.9581C400.981 87.6008 399.137 86.8325 397.216 86.8325H382.85C379.828 86.8325 377.267 88.6764 376.166 91.2886H359.315C358.93 90.341 358.393 89.4447 357.624 88.702C356.267 87.3703 354.449 86.6533 352.554 86.6533C352.502 86.6533 352.451 86.6533 352.4 86.6533L313.499 87.4728C312.91 87.4728 312.347 87.5752 311.809 87.7289C310.682 87.063 309.402 86.6533 308.07 86.6533H295.368C291.578 86.6533 288.479 89.5983 288.172 93.3117C286.866 91.98 285.047 91.1605 283.024 91.1605H267.095C266.02 88.4971 263.408 86.6533 260.386 86.6533H247.12C245.174 86.6533 243.304 87.4216 241.947 88.8045C241.281 89.4959 240.743 90.2898 240.41 91.1605H224.046C222.919 91.1605 221.818 91.4422 220.819 91.9544C219.667 89.4959 217.157 87.7801 214.263 87.7801H214.238L199.871 87.8313L168.935 87.9337L155.669 87.985H154.568C152.647 87.985 150.803 88.7788 149.446 90.1361C148.319 91.2886 147.628 92.7739 147.423 94.3617H135.31C134.72 94.3617 134.157 94.4385 133.594 94.5666V93.9007C133.594 89.9057 130.341 86.6789 126.346 86.6533H113.081C111.16 86.6533 109.29 87.4216 107.933 88.7789C106.576 90.1361 105.808 92.0056 105.808 93.9263V94.4641C105.321 94.3617 104.834 94.3105 104.322 94.3105H91.0565C89.1358 94.3105 87.292 95.0787 85.9347 96.436C84.5774 97.7933 83.8091 99.6372 83.8091 101.584V154.544C83.8091 158.539 87.0359 161.791 91.0565 161.791H104.322H113.311H126.577H135.361H148.626C150.214 161.791 151.699 161.253 152.954 160.331C153.62 160.536 154.312 160.664 155.054 160.664H156.54L169.447 160.613L200.383 160.511L214.058 160.459H214.75C215.288 160.459 215.825 160.383 216.363 160.255C217.618 161.228 219.155 161.766 220.768 161.766H232.215C232.779 161.766 233.342 161.689 233.88 161.561C234.418 161.689 234.981 161.766 235.57 161.766H245.507C246.429 161.766 247.299 161.586 248.093 161.279C248.887 161.586 249.758 161.766 250.68 161.766H251.243H262.844H281.104C283.024 161.766 284.894 160.997 286.251 159.64C286.533 159.358 286.763 159.051 286.968 158.744C288.3 160.562 290.425 161.766 292.833 161.766H295.598H306.995H308.301C309.197 161.766 310.093 161.586 310.913 161.253C311.732 161.561 312.577 161.766 313.474 161.766H325.92C327.457 161.766 328.916 161.279 330.094 160.434C331.298 161.279 332.758 161.766 334.269 161.766H346.971C348.072 161.766 349.122 161.509 350.044 161.074L351.094 161.407C351.811 161.637 352.554 161.74 353.296 161.74C354.73 161.74 356.165 161.305 357.368 160.485C358.495 161.202 359.827 161.612 361.235 161.612H377.497C379.648 161.612 381.697 160.639 383.054 159L389.431 151.368L396.32 159.153C397.703 160.716 399.675 161.612 401.749 161.612H419.138C421.904 161.612 424.388 160.024 425.617 157.566C426.77 160.05 429.279 161.791 432.199 161.791H444.901C446.771 161.791 448.563 161.048 449.895 159.768C451.201 161.023 452.968 161.791 454.914 161.791H465.491H468.743H488.924C490.281 161.791 491.561 161.407 492.714 160.716C493.815 161.381 495.095 161.766 496.453 161.766H508.054C510.077 161.766 511.946 160.92 513.304 159.512C514.635 160.895 516.479 161.766 518.554 161.766H533.484C535.405 161.766 537.248 160.997 538.631 159.64C538.785 159.486 538.887 159.307 539.015 159.153C540.373 160.767 542.37 161.766 544.521 161.791H556.122C558.709 161.791 561.116 160.408 562.397 158.18C563.703 155.927 563.703 153.161 562.397 150.933L561.039 148.577H560.937Z" fill="white"/>
<path d="M185.632 145.555C197.471 145.555 207.067 136.406 207.067 125.119C207.067 113.832 197.471 104.683 185.632 104.683C173.794 104.683 164.197 113.832 164.197 125.119C164.197 136.406 173.794 145.555 185.632 145.555Z" fill="#F3D837"/>
<path d="M315.165 110.752H325.127L323.974 103.402H314.012L315.165 110.752Z" fill="#138B3B"/>
<path d="M352.554 100.944L352.529 93.8755L313.628 94.695L313.654 101.763L352.554 100.944Z" fill="#138B3B"/>
<path d="M328.43 110.751H338.392L337.24 103.376L327.278 103.402L328.43 110.751Z" fill="#138B3B"/>
<path d="M350.531 110.751L351.862 103.376H341.926L340.594 110.751H350.531Z" fill="#138B3B"/>
<path d="M351.76 130.266H339.058H329.736L330.043 128.627H353.041L353.143 121.38H331.17L331.426 119.536H351.863L352.016 112.493H313.884L313.73 119.561H318.98L318.724 121.405H312.783L312.68 128.653H317.572L313.32 154.569H325.741L327.073 146.272L335.242 148.91L334.09 154.569H346.792L347.15 152.649L353.143 154.569V147.655L348.38 146.144L351.683 130.317L351.76 130.266ZM336.548 142.354L328.174 139.639L328.481 137.974H337.598L336.574 142.354H336.548Z" fill="#138B3B"/>
<path d="M311.476 121.303L308.147 121.994L308.07 110.7H311.374L311.348 101.455H308.045V93.875H295.343L295.317 101.455H290.912L290.938 110.7H295.368V124.427L291.015 125.323L291.04 134.619L295.419 133.698L295.445 148.449H292.679L292.705 154.518H295.471H306.867H308.173L308.096 131.265L311.502 130.573L311.476 121.303Z" fill="#138B3B"/>
<path d="M420.905 110.24L420.88 98.4592L397.191 98.4848V94.0288L382.824 94.0544V98.4848L359.289 98.5104L359.315 110.291L393.862 110.265H397.959L389.278 120.663L383.029 113.569L365.64 113.594L380.827 130.778L361.133 154.364L377.395 154.339L389.201 140.228L401.673 154.339L419.036 154.313L397.627 130.112L414.221 110.24H420.905Z" fill="#138B3B"/>
<path d="M436.373 93.875L426.975 124.299H431.994L432.122 154.518H444.824L444.645 109.932L449.639 93.875H436.373Z" fill="#138B3B"/>
<path d="M468.692 143.353L468.666 118.998L488.718 115.951L488.616 106.424L468.641 109.446V93.8755H454.812L454.837 154.518H465.414H468.641H488.821L488.77 143.353H468.692Z" fill="#138B3B"/>
<path d="M556.993 142.481L556.968 135.131L494.942 135.08L494.993 142.43L518.4 142.456L518.426 154.518H533.356L533.305 142.456L556.993 142.481Z" fill="#138B3B"/>
<path d="M499.167 132.162L553.587 132.213L553.536 124.633L499.116 124.582L499.167 132.162Z" fill="#138B3B"/>
<path d="M538.632 144.479L544.394 154.543H555.995L550.233 144.505L538.632 144.479Z" fill="#138B3B"/>
<path d="M541.423 122.891L544.317 117.436L556.942 122.917V115.234L547.646 111.187L556.763 93.9011H553.92H542.959L528.516 93.8755L528.541 99.9449H539.733L536.352 106.322L528.106 102.762L528.132 110.445L533.023 112.596L527.594 122.891H541.423Z" fill="#138B3B"/>
<path d="M506.261 116.59L509.795 117.82L508.873 122.967H521.038L526.288 93.875H520.833H514.123H510.538H506.466H499.5L494.865 118.537H505.928L506.287 116.616L506.261 116.59ZM509.411 99.9188H513.073L512.459 103.069L509.001 101.942L509.437 99.9188H509.411ZM507.875 108.114L511.383 109.138L510.922 111.776L507.388 110.572L507.849 108.139L507.875 108.114Z" fill="#138B3B"/>
<path d="M496.325 154.492H507.926L513.355 144.454H501.729L496.325 154.492Z" fill="#138B3B"/>
<path d="M261.435 143.48L258.849 114.696L247.99 114.67L250.551 154.518H251.115H262.716H280.975L280.924 143.48H261.435Z" fill="#138B3B"/>
<path d="M282.973 98.4079L260.385 98.3823L260.334 93.875H247.069L247.145 98.3823H223.994V129.19L220.64 154.492H232.087L234.93 129.523V107.806H283.024L282.973 98.4079Z" fill="#138B3B"/>
<path d="M235.442 154.517H245.379L247.939 122.07H238.003L235.442 154.517Z" fill="#138B3B"/>
<path d="M273.754 133.031L269.118 110.854H259.899L264.509 133.031H273.754Z" fill="#138B3B"/>
<path d="M271.013 110.88L275.623 133.032H284.868L280.233 110.88H271.013Z" fill="#138B3B"/>
<path d="M199.845 95.0283L168.909 95.1307L155.644 95.1819H154.542L154.927 153.392H156.386L169.293 153.341L200.23 153.238L213.905 153.187H214.596L214.212 94.9771L199.845 95.0283ZM167.219 126.169V124.991C167.091 116.284 174.236 109.139 183.123 109.037H186.913C195.799 108.909 203.098 115.9 203.2 124.633V125.811C203.328 134.518 196.183 141.663 187.297 141.765H183.507C174.62 141.893 167.322 134.902 167.219 126.169Z" fill="#138B3B"/>
<path d="M183.993 109.779C183.993 109.779 181.97 105.784 186.17 101.763C190.37 97.7426 194.98 97.6401 194.98 97.6401C194.98 97.6401 195.159 103.991 192.393 106.834C189.627 109.677 183.968 109.779 183.968 109.779H183.993Z" fill="#7BBA7B"/>
<path d="M135.258 141.175H126.423L126.244 93.875H113.004L113.157 141.175L104.245 141.15L104.22 101.532H90.9797L90.9541 154.492H104.22H113.209L126.449 154.518H135.233L148.498 154.544V101.583L135.233 101.558L135.258 141.175Z" fill="#138B3B"/>
<path d="M275.086 27.6236C275.239 28.5711 275.265 28.6479 276.264 32.3101C277.672 31.9259 278.364 31.7723 279.337 31.593C279.251 29.1345 279.158 27.6577 279.055 27.1626H284.356C284.288 27.6748 284.237 28.9467 284.203 30.9784H284.817C287.045 30.9784 288.71 31.6186 289.939 32.8991C290.938 33.9747 291.45 35.4088 291.45 37.2527C291.45 39.3527 290.477 41.3502 288.889 42.5282C287.532 43.5526 285.611 44.116 283.511 44.116C282.615 44.116 281.462 43.9879 280.105 43.7319C279.951 41.5807 279.772 40.71 279.158 38.6868C280.95 39.2246 281.846 39.3783 282.948 39.3783C284.971 39.3783 286.123 38.61 286.123 37.3039C286.123 36.2027 285.278 35.6137 283.742 35.6137C282.41 35.6137 280.566 35.9722 277.519 36.7917C278.389 40.0697 279.217 43.305 280.003 46.4977C280.412 48.1111 280.643 48.9562 280.668 49.033C280.771 49.3915 280.873 49.622 281.104 50.1598L275.521 51.4659C275.47 50.5696 275.342 49.9037 274.753 47.0611C274.377 45.2343 273.677 42.2892 272.653 38.2258C270.937 38.7892 269.528 39.3527 268.632 39.7624L267.121 34.8198C267.864 34.7174 268.171 34.6405 269.554 34.2052C270.186 34.0174 270.792 33.8381 271.372 33.6674C270.63 31.0808 270.297 30.0052 269.81 29.0321L275.086 27.6236Z" fill="#231815"/>
<path d="M294.907 29.313C296.572 29.6715 299.082 29.8251 302.77 29.8251C302.77 29.8251 303.256 29.8251 303.563 29.8508C303.563 28.4166 303.563 28.0069 303.384 27.3154H308.736C308.583 28.1093 308.557 28.3654 308.506 29.6715C311.784 29.4922 313.525 29.2874 315.497 28.8264L315.625 33.4361C315.113 33.4531 314.328 33.53 313.269 33.6666C312.04 33.8202 310.171 33.9739 308.506 34.0763V35.1007C311.579 34.8958 312.988 34.7421 314.78 34.4092L314.857 38.9677C312.399 39.1726 310.043 39.3262 308.557 39.403C308.557 40.1543 308.574 40.7262 308.608 41.1189C309.863 41.4774 310.632 41.7847 311.912 42.4506C313.193 43.142 313.474 43.3213 315.318 44.5505C315.523 44.7042 315.805 44.8834 316.291 45.1908L313.474 50.0309C312.911 49.3651 312.501 48.9553 311.502 48.1358C310.401 47.2139 309.786 46.8298 308.762 46.3432C308.711 47.5724 308.506 48.2127 307.943 48.8785C306.969 50.0822 304.972 50.748 302.36 50.748C299.748 50.748 297.801 50.1334 296.674 49.0578C295.804 48.1871 295.317 47.009 295.317 45.6773C295.317 43.2701 296.931 41.503 299.773 40.7603C300.746 40.5042 301.873 40.4274 303.743 40.4274V39.5311H302.437C300.772 39.5311 299.543 39.5311 297.904 39.4543C297.323 39.4201 296.623 39.403 295.804 39.403L295.855 34.8958C296.905 35.1263 299.696 35.2799 302.334 35.2799H303.666V34.2043H303.205C302.36 34.2043 300.388 34.2043 299.594 34.1275C297.921 34.0592 296.743 34.0165 296.06 33.9995C295.676 33.9739 295.394 33.9739 295.317 33.9739H294.856L294.907 29.313ZM302.437 44.7298C301.207 44.7298 300.567 45.0371 300.567 45.6261C300.567 46.1127 301.079 46.3688 302.052 46.3688C303.154 46.3688 303.717 45.9847 303.717 45.2164C303.717 45.0883 303.717 44.8835 303.717 44.8835C303.23 44.7554 302.974 44.7298 302.462 44.7298H302.437Z" fill="#231815"/>
<path d="M333.936 37.1496C333.27 35.2802 332.912 34.3326 332.476 33.5899C331.58 34.3582 330.453 35.2545 329.327 36.1509C329.002 36.3899 328.405 36.8423 327.534 37.5082C327.363 37.6106 327.141 37.7728 326.868 37.9947C326.51 38.2508 326.433 38.3533 326.433 38.5582C326.433 38.7374 326.663 38.9679 327.431 39.5313C330.402 41.7081 334.295 44.7812 336.395 46.6251C336.472 46.7019 336.548 46.7532 337.137 47.2653L332.937 51.6701C332.297 50.7738 331.734 50.1336 330.402 48.8531C328.2 46.7531 327.508 46.1641 323.103 42.6813C320.952 40.991 320.338 40.0435 320.338 38.4813C320.338 37.457 320.696 36.5094 321.362 35.6899C321.823 35.1777 322.386 34.6655 323.897 33.5131C326.612 31.4388 327.944 30.3632 329.557 28.8522C330.684 27.8022 331.017 27.4181 331.683 26.5474L336.676 30.0302C336.437 30.201 335.925 30.6107 335.14 31.2595C334.901 31.4644 334.431 31.8741 333.731 32.4887C333.526 32.6595 333.347 32.8131 333.194 32.9497L335.268 32.3863C335.934 33.4875 336.497 34.8448 336.932 36.2277L333.911 37.1496H333.936ZM337.624 36.074C337.112 34.6143 336.6 33.3338 335.934 32.2326L338.853 31.3875C339.673 32.6936 340.185 33.8973 340.543 35.1521L337.624 36.074Z" fill="#231815"/>
<path d="M344.026 30.2607C345.102 30.5168 346.587 30.6449 349.481 30.6961C349.865 28.9034 349.967 28.1352 350.019 27.0596L355.525 27.4693C355.473 27.64 355.397 27.8705 355.294 28.1608C355.141 28.6473 355.038 29.0571 354.654 30.6193C357.266 30.5168 359.187 30.3632 362.209 29.9534C362.951 29.851 363.156 29.8254 363.899 29.5949L364.078 34.7424C363.336 34.768 363.105 34.7936 362.055 34.896C359.033 35.1777 355.96 35.3826 353.45 35.4338C352.708 37.7131 352.682 37.7899 352.349 38.4301C353.783 37.8667 355.499 37.5594 357.317 37.5594C359.136 37.5594 360.698 37.8411 361.85 38.3533C363.976 39.2752 365.179 41.1703 365.179 43.552C365.179 47.9824 361.184 50.5946 354.449 50.5946C352.452 50.5946 350.608 50.3641 348.2 49.8263C348.2 47.6239 348.072 46.7788 347.637 44.6276C350.3 45.4215 352.656 45.8056 354.731 45.8056C356.319 45.8056 357.753 45.5239 358.7 45.0373C359.34 44.7044 359.725 44.0898 359.725 43.5008C359.725 42.5276 358.521 41.9898 356.319 41.9898C354.654 41.9898 353.117 42.3484 351.632 43.1166C350.864 43.5008 350.608 43.7313 350.172 44.3715L345.153 42.7837C346.1 41.324 347.714 37.5338 348.328 35.357C347.458 35.3058 346.024 35.2546 345.153 35.1777C344.794 35.1777 344.513 35.1777 344.308 35.1777H343.975L344.026 30.2863V30.2607Z" fill="#231815"/>
<path d="M260.053 69.5715C257.722 72.7215 254.393 75.5897 250.091 78.0738C249.015 75.9995 248.477 75.2824 246.608 73.4385C248.964 72.3629 250.449 71.4666 252.216 70.0069C254.086 68.4959 255.571 66.9081 256.544 65.3716H251.883C249.681 65.3716 249.246 65.3716 248.273 65.4996V60.4034C249.297 60.5826 249.86 60.6082 251.96 60.6082H259.95V59.379C259.95 58.44 259.899 57.4839 259.797 56.5107H265.328C265.252 57.3815 265.226 57.7656 265.226 58.2266V59.3534V60.6082H266.532C268.632 60.6082 269.17 60.6082 270.22 60.4034V65.4996C269.272 65.3972 268.811 65.3716 266.609 65.3716H265.277L265.38 76.3324C265.448 78.1421 265.508 79.2945 265.559 79.7897H259.899C260.027 79.047 260.104 78.0994 260.104 76.7677V76.3836L260.027 69.5715H260.053Z" fill="#231815"/>
<path d="M273.37 65.2178C275.034 65.4226 275.674 65.4483 279.209 65.4483H290.4C293.96 65.4483 294.574 65.4226 296.239 65.2178V70.9799C294.728 70.8262 294.523 70.8262 290.374 70.8262H279.234C275.085 70.8262 274.855 70.8262 273.37 70.9799V65.2178Z" fill="#231815"/>
<path d="M308.557 57.2527C308.489 57.8844 308.395 59.899 308.275 63.2966C308.096 68.905 307.584 71.8757 306.38 74.6927C305.51 76.7671 304.536 78.2268 302.974 79.9682C301.233 77.7402 300.567 77.0744 298.723 75.6915C299.85 74.6927 300.362 74.0525 301.079 72.7208C302.539 69.9038 303.102 66.5233 303.102 60.1466C303.102 58.2771 303.102 57.7649 302.974 56.9454L308.557 57.2527ZM315.933 56.8686C315.805 57.7649 315.779 58.2515 315.753 59.6088L315.6 72.772C316.727 71.9781 317.392 71.2611 318.135 70.0062C318.878 68.7257 319.339 67.5733 319.748 65.8575C321.234 67.6758 321.772 68.2135 323.718 69.8269C322.284 73.5403 320.414 76.0244 317.597 77.8171C316.598 78.4573 315.702 78.867 314.242 79.3536C313.986 79.4561 313.73 79.5329 313.423 79.6353C312.988 79.8146 312.86 79.8658 312.578 80.0707L310.068 77.4073C310.324 76.8439 310.375 76.4854 310.375 75.6147L310.503 59.532V58.3283C310.503 57.7649 310.503 57.432 310.401 56.8174L315.933 56.8686Z" fill="#231815"/>
<path d="M328.712 79.5334C328.84 78.3041 328.865 77.6895 328.865 76.409V59.1996C328.865 58.0471 328.865 57.4069 328.712 56.5874H334.371C334.32 57.2789 334.295 57.6374 334.295 58.1752V63.7324C339.058 65.269 342.029 66.6519 345.819 69.0336L343.027 74.1554C340.953 72.6957 340.313 72.2859 338.853 71.5177C337.419 70.7494 336.42 70.2628 335.473 69.8787C335.396 69.8787 335.14 69.7506 335.063 69.725C334.943 69.6738 334.824 69.6226 334.704 69.5713C334.704 69.5713 334.551 69.5201 334.423 69.4689L334.295 69.4177V76.5115C334.295 77.6383 334.295 78.5602 334.397 79.5334H328.712Z" fill="#231815"/>
<path d="M354.091 78.1502C351.76 78.1502 351.325 78.1501 350.326 78.2782V73.2075C351.402 73.3868 351.939 73.4124 354.167 73.4124H365.103V70.1088H355.371C353.041 70.1088 352.605 70.1088 351.606 70.2625V65.243C352.682 65.4223 353.245 65.4479 355.448 65.4479H365.103V62.4516H354.372C352.042 62.4516 351.581 62.4516 350.608 62.5541V57.4834C351.683 57.6627 352.221 57.6883 354.449 57.6883H367.971C369.507 57.6883 369.738 57.6883 370.455 57.5602C370.421 58.0041 370.404 58.8151 370.404 59.9931V76.1782C370.404 78.4319 370.404 78.7136 370.506 79.4818H365.103V78.1502H354.091Z" fill="#231815"/>
<path d="M387.305 56.7661C387.075 57.1502 386.896 57.5087 386.409 58.7124L393.324 58.6356C393.862 58.6356 394.066 58.5587 394.476 58.277L397.037 60.8892C396.679 61.2221 396.627 61.3245 396.422 61.9904C396.115 63.0148 395.296 65.3196 394.783 66.5488C392.043 73.0792 387.971 77.228 381.185 80.3523C380.058 78.3804 379.571 77.7401 377.651 75.7682C379.776 75.0255 380.852 74.539 382.209 73.7707C383.771 72.8744 384.668 72.2085 385.871 71.0561C384.437 69.9037 383.387 69.2122 381.518 68.1879L384.668 64.3464C387.075 65.6525 387.536 65.9342 388.944 66.9074C389.79 65.5757 390.174 64.705 390.737 62.9891H384.386C382.978 65.6013 381.262 67.7269 378.675 70.1342C377.113 68.4695 376.422 67.9318 374.347 66.7281C377.446 64.1416 378.957 62.3489 380.57 59.3526C381.313 57.9953 381.646 57.1246 382.03 55.7417L387.331 56.7661H387.305Z" fill="#231815"/>
<path d="M275.086 27.6236C275.239 28.5711 275.265 28.6479 276.264 32.3101C277.672 31.9259 278.364 31.7723 279.337 31.593C279.251 29.1345 279.158 27.6577 279.055 27.1626H284.356C284.288 27.6748 284.237 28.9467 284.203 30.9784H284.817C287.045 30.9784 288.71 31.6186 289.939 32.8991C290.938 33.9747 291.45 35.4088 291.45 37.2527C291.45 39.3527 290.477 41.3502 288.889 42.5282C287.532 43.5526 285.611 44.116 283.511 44.116C282.615 44.116 281.462 43.9879 280.105 43.7319C279.951 41.5807 279.772 40.71 279.158 38.6868C280.95 39.2246 281.846 39.3783 282.948 39.3783C284.971 39.3783 286.123 38.61 286.123 37.3039C286.123 36.2027 285.278 35.6137 283.742 35.6137C282.41 35.6137 280.566 35.9722 277.519 36.7917C278.389 40.0697 279.217 43.305 280.003 46.4977C280.412 48.1111 280.643 48.9562 280.668 49.033C280.771 49.3915 280.873 49.622 281.104 50.1598L275.521 51.4659C275.47 50.5696 275.342 49.9037 274.753 47.0611C274.377 45.2343 273.677 42.2892 272.653 38.2258C270.937 38.7892 269.528 39.3527 268.632 39.7624L267.121 34.8198C267.864 34.7174 268.171 34.6405 269.554 34.2052C270.186 34.0174 270.792 33.8381 271.372 33.6674C270.63 31.0808 270.297 30.0052 269.81 29.0321L275.086 27.6236Z" stroke="white" stroke-width="7.24745" stroke-linecap="round" stroke-linejoin="round"/>
<path d="M294.907 29.313C296.572 29.6715 299.082 29.8251 302.77 29.8251C302.77 29.8251 303.256 29.8251 303.563 29.8508C303.563 28.4166 303.563 28.0069 303.384 27.3154H308.736C308.583 28.1093 308.557 28.3654 308.506 29.6715C311.784 29.4922 313.525 29.2874 315.497 28.8264L315.625 33.4361C315.113 33.4531 314.328 33.53 313.269 33.6666C312.04 33.8202 310.171 33.9739 308.506 34.0763V35.1007C311.579 34.8958 312.988 34.7421 314.78 34.4092L314.857 38.9677C312.399 39.1726 310.043 39.3262 308.557 39.403C308.557 40.1543 308.574 40.7262 308.608 41.1189C309.863 41.4774 310.632 41.7847 311.912 42.4506C313.193 43.142 313.474 43.3213 315.318 44.5505C315.523 44.7042 315.805 44.8834 316.291 45.1908L313.474 50.0309C312.911 49.3651 312.501 48.9553 311.502 48.1358C310.401 47.2139 309.786 46.8298 308.762 46.3432C308.711 47.5724 308.506 48.2127 307.943 48.8785C306.969 50.0822 304.972 50.748 302.36 50.748C299.748 50.748 297.801 50.1334 296.674 49.0578C295.804 48.1871 295.317 47.009 295.317 45.6773C295.317 43.2701 296.931 41.503 299.773 40.7603C300.746 40.5042 301.873 40.4274 303.743 40.4274V39.5311H302.437C300.772 39.5311 299.543 39.5311 297.904 39.4543C297.323 39.4201 296.623 39.403 295.804 39.403L295.855 34.8958C296.905 35.1263 299.696 35.2799 302.334 35.2799H303.666V34.2043H303.205C302.36 34.2043 300.388 34.2043 299.594 34.1275C297.921 34.0592 296.743 34.0165 296.06 33.9995C295.676 33.9739 295.394 33.9739 295.317 33.9739H294.856L294.907 29.313ZM302.437 44.7298C301.207 44.7298 300.567 45.0371 300.567 45.6261C300.567 46.1127 301.079 46.3688 302.052 46.3688C303.154 46.3688 303.717 45.9847 303.717 45.2164C303.717 45.0883 303.717 44.8835 303.717 44.8835C303.23 44.7554 302.974 44.7298 302.462 44.7298H302.437Z" stroke="white" stroke-width="7.24745" stroke-linecap="round" stroke-linejoin="round"/>
<path d="M333.936 37.1496C333.27 35.2802 332.912 34.3326 332.476 33.5899C331.58 34.3582 330.453 35.2545 329.327 36.1509C329.002 36.3899 328.405 36.8423 327.534 37.5082C327.363 37.6106 327.141 37.7728 326.868 37.9947C326.51 38.2508 326.433 38.3533 326.433 38.5582C326.433 38.7374 326.663 38.9679 327.431 39.5313C330.402 41.7081 334.295 44.7812 336.395 46.6251C336.472 46.7019 336.548 46.7532 337.137 47.2653L332.937 51.6701C332.297 50.7738 331.734 50.1336 330.402 48.8531C328.2 46.7531 327.508 46.1641 323.103 42.6813C320.952 40.991 320.338 40.0435 320.338 38.4813C320.338 37.457 320.696 36.5094 321.362 35.6899C321.823 35.1777 322.386 34.6655 323.897 33.5131C326.612 31.4388 327.944 30.3632 329.557 28.8522C330.684 27.8022 331.017 27.4181 331.683 26.5474L336.676 30.0302C336.437 30.201 335.925 30.6107 335.14 31.2595C334.901 31.4644 334.431 31.8741 333.731 32.4887C333.526 32.6595 333.347 32.8131 333.194 32.9497L335.268 32.3863C335.934 33.4875 336.497 34.8448 336.932 36.2277L333.911 37.1496H333.936ZM337.624 36.074C337.112 34.6143 336.6 33.3338 335.934 32.2326L338.853 31.3875C339.673 32.6936 340.185 33.8973 340.543 35.1521L337.624 36.074Z" stroke="white" stroke-width="7.24745" stroke-linecap="round" stroke-linejoin="round"/>
<path d="M344.026 30.2607C345.102 30.5168 346.587 30.6449 349.481 30.6961C349.865 28.9034 349.967 28.1352 350.019 27.0596L355.525 27.4693C355.473 27.64 355.397 27.8705 355.294 28.1608C355.141 28.6473 355.038 29.0571 354.654 30.6193C357.266 30.5168 359.187 30.3632 362.209 29.9534C362.951 29.851 363.156 29.8254 363.899 29.5949L364.078 34.7424C363.336 34.768 363.105 34.7936 362.055 34.896C359.033 35.1777 355.96 35.3826 353.45 35.4338C352.708 37.7131 352.682 37.7899 352.349 38.4301C353.783 37.8667 355.499 37.5594 357.317 37.5594C359.136 37.5594 360.698 37.8411 361.85 38.3533C363.976 39.2752 365.179 41.1703 365.179 43.552C365.179 47.9824 361.184 50.5946 354.449 50.5946C352.452 50.5946 350.608 50.3641 348.2 49.8263C348.2 47.6239 348.072 46.7788 347.637 44.6276C350.3 45.4215 352.656 45.8056 354.731 45.8056C356.319 45.8056 357.753 45.5239 358.7 45.0373C359.34 44.7044 359.725 44.0898 359.725 43.5008C359.725 42.5276 358.521 41.9898 356.319 41.9898C354.654 41.9898 353.117 42.3484 351.632 43.1166C350.864 43.5008 350.608 43.7313 350.172 44.3715L345.153 42.7837C346.1 41.324 347.714 37.5338 348.328 35.357C347.458 35.3058 346.024 35.2546 345.153 35.1777C344.794 35.1777 344.513 35.1777 344.308 35.1777H343.975L344.026 30.2863V30.2607Z" stroke="white" stroke-width="7.24745" stroke-linecap="round" stroke-linejoin="round"/>
<path d="M260.053 69.5715C257.722 72.7215 254.393 75.5897 250.091 78.0738C249.015 75.9995 248.477 75.2824 246.608 73.4385C248.964 72.3629 250.449 71.4666 252.216 70.0069C254.086 68.4959 255.571 66.9081 256.544 65.3716H251.883C249.681 65.3716 249.246 65.3716 248.273 65.4996V60.4034C249.297 60.5826 249.86 60.6082 251.96 60.6082H259.95V59.379C259.95 58.44 259.899 57.4839 259.797 56.5107H265.328C265.252 57.3815 265.226 57.7656 265.226 58.2266V59.3534V60.6082H266.532C268.632 60.6082 269.17 60.6082 270.22 60.4034V65.4996C269.272 65.3972 268.811 65.3716 266.609 65.3716H265.277L265.38 76.3324C265.448 78.1421 265.508 79.2945 265.559 79.7897H259.899C260.027 79.047 260.104 78.0994 260.104 76.7677V76.3836L260.027 69.5715H260.053Z" stroke="white" stroke-width="7.24745" stroke-linecap="round" stroke-linejoin="round"/>
<path d="M273.37 65.2178C275.034 65.4226 275.674 65.4483 279.209 65.4483H290.4C293.96 65.4483 294.574 65.4226 296.239 65.2178V70.9799C294.728 70.8262 294.523 70.8262 290.374 70.8262H279.234C275.085 70.8262 274.855 70.8262 273.37 70.9799V65.2178Z" stroke="white" stroke-width="7.24745" stroke-linecap="round" stroke-linejoin="round"/>
<path d="M308.557 57.2527C308.489 57.8844 308.395 59.899 308.275 63.2966C308.096 68.905 307.584 71.8757 306.38 74.6927C305.51 76.7671 304.536 78.2268 302.974 79.9682C301.233 77.7402 300.567 77.0744 298.723 75.6915C299.85 74.6927 300.362 74.0525 301.079 72.7208C302.539 69.9038 303.102 66.5233 303.102 60.1466C303.102 58.2771 303.102 57.7649 302.974 56.9454L308.557 57.2527ZM315.933 56.8686C315.805 57.7649 315.779 58.2515 315.753 59.6088L315.6 72.772C316.727 71.9781 317.392 71.2611 318.135 70.0062C318.878 68.7257 319.339 67.5733 319.748 65.8575C321.234 67.6758 321.772 68.2135 323.718 69.8269C322.284 73.5403 320.414 76.0244 317.597 77.8171C316.598 78.4573 315.702 78.867 314.242 79.3536C313.986 79.4561 313.73 79.5329 313.423 79.6353C312.988 79.8146 312.86 79.8658 312.578 80.0707L310.068 77.4073C310.324 76.8439 310.375 76.4854 310.375 75.6147L310.503 59.532V58.3283C310.503 57.7649 310.503 57.432 310.401 56.8174L315.933 56.8686Z" stroke="white" stroke-width="7.24745" stroke-linecap="round" stroke-linejoin="round"/>
<path d="M328.712 79.5334C328.84 78.3041 328.865 77.6895 328.865 76.409V59.1996C328.865 58.0471 328.865 57.4069 328.712 56.5874H334.371C334.32 57.2789 334.295 57.6374 334.295 58.1752V63.7324C339.058 65.269 342.029 66.6519 345.819 69.0336L343.027 74.1554C340.953 72.6957 340.313 72.2859 338.853 71.5177C337.419 70.7494 336.42 70.2628 335.473 69.8787C335.396 69.8787 335.14 69.7506 335.063 69.725C334.943 69.6738 334.824 69.6226 334.704 69.5713C334.704 69.5713 334.551 69.5201 334.423 69.4689L334.295 69.4177V76.5115C334.295 77.6383 334.295 78.5602 334.397 79.5334H328.712Z" stroke="white" stroke-width="7.24745" stroke-linecap="round" stroke-linejoin="round"/>
<path d="M354.091 78.1502C351.76 78.1502 351.325 78.1501 350.326 78.2782V73.2075C351.402 73.3868 351.939 73.4124 354.167 73.4124H365.103V70.1088H355.371C353.041 70.1088 352.605 70.1088 351.606 70.2625V65.243C352.682 65.4223 353.245 65.4479 355.448 65.4479H365.103V62.4516H354.372C352.042 62.4516 351.581 62.4516 350.608 62.5541V57.4834C351.683 57.6627 352.221 57.6883 354.449 57.6883H367.971C369.507 57.6883 369.738 57.6883 370.455 57.5602C370.421 58.0041 370.404 58.8151 370.404 59.9931V76.1782C370.404 78.4319 370.404 78.7136 370.506 79.4818H365.103V78.1502H354.091Z" stroke="white" stroke-width="7.24745" stroke-linecap="round" stroke-linejoin="round"/>
<path d="M387.305 56.7661C387.075 57.1502 386.896 57.5087 386.409 58.7124L393.324 58.6356C393.862 58.6356 394.066 58.5587 394.476 58.277L397.037 60.8892C396.679 61.2221 396.627 61.3245 396.422 61.9904C396.115 63.0148 395.296 65.3196 394.783 66.5488C392.043 73.0792 387.971 77.228 381.185 80.3523C380.058 78.3804 379.571 77.7401 377.651 75.7682C379.776 75.0255 380.852 74.539 382.209 73.7707C383.771 72.8744 384.668 72.2085 385.871 71.0561C384.437 69.9037 383.387 69.2122 381.518 68.1879L384.668 64.3464C387.075 65.6525 387.536 65.9342 388.944 66.9074C389.79 65.5757 390.174 64.705 390.737 62.9891H384.386C382.978 65.6013 381.262 67.7269 378.675 70.1342C377.113 68.4695 376.422 67.9318 374.347 66.7281C377.446 64.1416 378.957 62.3489 380.57 59.3526C381.313 57.9953 381.646 57.1246 382.03 55.7417L387.331 56.7661H387.305Z" stroke="white" stroke-width="7.24745" stroke-linecap="round" stroke-linejoin="round"/>
<path d="M275.086 27.6236C275.239 28.5711 275.265 28.6479 276.264 32.3101C277.672 31.9259 278.364 31.7723 279.337 31.593C279.251 29.1345 279.158 27.6577 279.055 27.1626H284.356C284.288 27.6748 284.237 28.9467 284.203 30.9784H284.817C287.045 30.9784 288.71 31.6186 289.939 32.8991C290.938 33.9747 291.45 35.4088 291.45 37.2527C291.45 39.3527 290.477 41.3502 288.889 42.5282C287.532 43.5526 285.611 44.116 283.511 44.116C282.615 44.116 281.462 43.9879 280.105 43.7319C279.951 41.5807 279.772 40.71 279.158 38.6868C280.95 39.2246 281.846 39.3783 282.948 39.3783C284.971 39.3783 286.123 38.61 286.123 37.3039C286.123 36.2027 285.278 35.6137 283.742 35.6137C282.41 35.6137 280.566 35.9722 277.519 36.7917C278.389 40.0697 279.217 43.305 280.003 46.4977C280.412 48.1111 280.643 48.9562 280.668 49.033C280.771 49.3915 280.873 49.622 281.104 50.1598L275.521 51.4659C275.47 50.5696 275.342 49.9037 274.753 47.0611C274.377 45.2343 273.677 42.2892 272.653 38.2258C270.937 38.7892 269.528 39.3527 268.632 39.7624L267.121 34.8198C267.864 34.7174 268.171 34.6405 269.554 34.2052C270.186 34.0174 270.792 33.8381 271.372 33.6674C270.63 31.0808 270.297 30.0052 269.81 29.0321L275.086 27.6236Z" fill="#231815"/>
<path d="M294.907 29.313C296.572 29.6715 299.082 29.8251 302.77 29.8251C302.77 29.8251 303.256 29.8251 303.563 29.8508C303.563 28.4166 303.563 28.0069 303.384 27.3154H308.736C308.583 28.1093 308.557 28.3654 308.506 29.6715C311.784 29.4922 313.525 29.2874 315.497 28.8264L315.625 33.4361C315.113 33.4531 314.328 33.53 313.269 33.6666C312.04 33.8202 310.171 33.9739 308.506 34.0763V35.1007C311.579 34.8958 312.988 34.7421 314.78 34.4092L314.857 38.9677C312.399 39.1726 310.043 39.3262 308.557 39.403C308.557 40.1543 308.574 40.7262 308.608 41.1189C309.863 41.4774 310.632 41.7847 311.912 42.4506C313.193 43.142 313.474 43.3213 315.318 44.5505C315.523 44.7042 315.805 44.8834 316.291 45.1908L313.474 50.0309C312.911 49.3651 312.501 48.9553 311.502 48.1358C310.401 47.2139 309.786 46.8298 308.762 46.3432C308.711 47.5724 308.506 48.2127 307.943 48.8785C306.969 50.0822 304.972 50.748 302.36 50.748C299.748 50.748 297.801 50.1334 296.674 49.0578C295.804 48.1871 295.317 47.009 295.317 45.6773C295.317 43.2701 296.931 41.503 299.773 40.7603C300.746 40.5042 301.873 40.4274 303.743 40.4274V39.5311H302.437C300.772 39.5311 299.543 39.5311 297.904 39.4543C297.323 39.4201 296.623 39.403 295.804 39.403L295.855 34.8958C296.905 35.1263 299.696 35.2799 302.334 35.2799H303.666V34.2043H303.205C302.36 34.2043 300.388 34.2043 299.594 34.1275C297.921 34.0592 296.743 34.0165 296.06 33.9995C295.676 33.9739 295.394 33.9739 295.317 33.9739H294.856L294.907 29.313ZM302.437 44.7298C301.207 44.7298 300.567 45.0371 300.567 45.6261C300.567 46.1127 301.079 46.3688 302.052 46.3688C303.154 46.3688 303.717 45.9847 303.717 45.2164C303.717 45.0883 303.717 44.8835 303.717 44.8835C303.23 44.7554 302.974 44.7298 302.462 44.7298H302.437Z" fill="#231815"/>
<path d="M333.936 37.1496C333.27 35.2802 332.912 34.3326 332.476 33.5899C331.58 34.3582 330.453 35.2545 329.327 36.1509C329.002 36.3899 328.405 36.8423 327.534 37.5082C327.363 37.6106 327.141 37.7728 326.868 37.9947C326.51 38.2508 326.433 38.3533 326.433 38.5582C326.433 38.7374 326.663 38.9679 327.431 39.5313C330.402 41.7081 334.295 44.7812 336.395 46.6251C336.472 46.7019 336.548 46.7532 337.137 47.2653L332.937 51.6701C332.297 50.7738 331.734 50.1336 330.402 48.8531C328.2 46.7531 327.508 46.1641 323.103 42.6813C320.952 40.991 320.338 40.0435 320.338 38.4813C320.338 37.457 320.696 36.5094 321.362 35.6899C321.823 35.1777 322.386 34.6655 323.897 33.5131C326.612 31.4388 327.944 30.3632 329.557 28.8522C330.684 27.8022 331.017 27.4181 331.683 26.5474L336.676 30.0302C336.437 30.201 335.925 30.6107 335.14 31.2595C334.901 31.4644 334.431 31.8741 333.731 32.4887C333.526 32.6595 333.347 32.8131 333.194 32.9497L335.268 32.3863C335.934 33.4875 336.497 34.8448 336.932 36.2277L333.911 37.1496H333.936ZM337.624 36.074C337.112 34.6143 336.6 33.3338 335.934 32.2326L338.853 31.3875C339.673 32.6936 340.185 33.8973 340.543 35.1521L337.624 36.074Z" fill="#231815"/>
<path d="M344.026 30.2607C345.102 30.5168 346.587 30.6449 349.481 30.6961C349.865 28.9034 349.967 28.1352 350.019 27.0596L355.525 27.4693C355.473 27.64 355.397 27.8705 355.294 28.1608C355.141 28.6473 355.038 29.0571 354.654 30.6193C357.266 30.5168 359.187 30.3632 362.209 29.9534C362.951 29.851 363.156 29.8254 363.899 29.5949L364.078 34.7424C363.336 34.768 363.105 34.7936 362.055 34.896C359.033 35.1777 355.96 35.3826 353.45 35.4338C352.708 37.7131 352.682 37.7899 352.349 38.4301C353.783 37.8667 355.499 37.5594 357.317 37.5594C359.136 37.5594 360.698 37.8411 361.85 38.3533C363.976 39.2752 365.179 41.1703 365.179 43.552C365.179 47.9824 361.184 50.5946 354.449 50.5946C352.452 50.5946 350.608 50.3641 348.2 49.8263C348.2 47.6239 348.072 46.7788 347.637 44.6276C350.3 45.4215 352.656 45.8056 354.731 45.8056C356.319 45.8056 357.753 45.5239 358.7 45.0373C359.34 44.7044 359.725 44.0898 359.725 43.5008C359.725 42.5276 358.521 41.9898 356.319 41.9898C354.654 41.9898 353.117 42.3484 351.632 43.1166C350.864 43.5008 350.608 43.7313 350.172 44.3715L345.153 42.7837C346.1 41.324 347.714 37.5338 348.328 35.357C347.458 35.3058 346.024 35.2546 345.153 35.1777C344.794 35.1777 344.513 35.1777 344.308 35.1777H343.975L344.026 30.2863V30.2607Z" fill="#231815"/>
<path d="M260.053 69.5715C257.722 72.7215 254.393 75.5897 250.091 78.0738C249.015 75.9995 248.477 75.2824 246.608 73.4385C248.964 72.3629 250.449 71.4666 252.216 70.0069C254.086 68.4959 255.571 66.9081 256.544 65.3716H251.883C249.681 65.3716 249.246 65.3716 248.273 65.4996V60.4034C249.297 60.5826 249.86 60.6082 251.96 60.6082H259.95V59.379C259.95 58.44 259.899 57.4839 259.797 56.5107H265.328C265.252 57.3815 265.226 57.7656 265.226 58.2266V59.3534V60.6082H266.532C268.632 60.6082 269.17 60.6082 270.22 60.4034V65.4996C269.272 65.3972 268.811 65.3716 266.609 65.3716H265.277L265.38 76.3324C265.448 78.1421 265.508 79.2945 265.559 79.7897H259.899C260.027 79.047 260.104 78.0994 260.104 76.7677V76.3836L260.027 69.5715H260.053Z" fill="#231815"/>
<path d="M273.37 65.2178C275.034 65.4226 275.674 65.4483 279.209 65.4483H290.4C293.96 65.4483 294.574 65.4226 296.239 65.2178V70.9799C294.728 70.8262 294.523 70.8262 290.374 70.8262H279.234C275.085 70.8262 274.855 70.8262 273.37 70.9799V65.2178Z" fill="#231815"/>
<path d="M308.557 57.2527C308.489 57.8844 308.395 59.899 308.275 63.2966C308.096 68.905 307.584 71.8757 306.38 74.6927C305.51 76.7671 304.536 78.2268 302.974 79.9682C301.233 77.7402 300.567 77.0744 298.723 75.6915C299.85 74.6927 300.362 74.0525 301.079 72.7208C302.539 69.9038 303.102 66.5233 303.102 60.1466C303.102 58.2771 303.102 57.7649 302.974 56.9454L308.557 57.2527ZM315.933 56.8686C315.805 57.7649 315.779 58.2515 315.753 59.6088L315.6 72.772C316.727 71.9781 317.392 71.2611 318.135 70.0062C318.878 68.7257 319.339 67.5733 319.748 65.8575C321.234 67.6758 321.772 68.2135 323.718 69.8269C322.284 73.5403 320.414 76.0244 317.597 77.8171C316.598 78.4573 315.702 78.867 314.242 79.3536C313.986 79.4561 313.73 79.5329 313.423 79.6353C312.988 79.8146 312.86 79.8658 312.578 80.0707L310.068 77.4073C310.324 76.8439 310.375 76.4854 310.375 75.6147L310.503 59.532V58.3283C310.503 57.7649 310.503 57.432 310.401 56.8174L315.933 56.8686Z" fill="#231815"/>
<path d="M328.712 79.5334C328.84 78.3041 328.865 77.6895 328.865 76.409V59.1996C328.865 58.0471 328.865 57.4069 328.712 56.5874H334.371C334.32 57.2789 334.295 57.6374 334.295 58.1752V63.7324C339.058 65.269 342.029 66.6519 345.819 69.0336L343.027 74.1554C340.953 72.6957 340.313 72.2859 338.853 71.5177C337.419 70.7494 336.42 70.2628 335.473 69.8787C335.396 69.8787 335.14 69.7506 335.063 69.725C334.943 69.6738 334.824 69.6226 334.704 69.5713C334.704 69.5713 334.551 69.5201 334.423 69.4689L334.295 69.4177V76.5115C334.295 77.6383 334.295 78.5602 334.397 79.5334H328.712Z" fill="#231815"/>
<path d="M354.091 78.1502C351.76 78.1502 351.325 78.1501 350.326 78.2782V73.2075C351.402 73.3868 351.939 73.4124 354.167 73.4124H365.103V70.1088H355.371C353.041 70.1088 352.605 70.1088 351.606 70.2625V65.243C352.682 65.4223 353.245 65.4479 355.448 65.4479H365.103V62.4516H354.372C352.042 62.4516 351.581 62.4516 350.608 62.5541V57.4834C351.683 57.6627 352.221 57.6883 354.449 57.6883H367.971C369.507 57.6883 369.738 57.6883 370.455 57.5602C370.421 58.0041 370.404 58.8151 370.404 59.9931V76.1782C370.404 78.4319 370.404 78.7136 370.506 79.4818H365.103V78.1502H354.091Z" fill="#231815"/>
<path d="M387.305 56.7661C387.075 57.1502 386.896 57.5087 386.409 58.7124L393.324 58.6356C393.862 58.6356 394.066 58.5587 394.476 58.277L397.037 60.8892C396.679 61.2221 396.627 61.3245 396.422 61.9904C396.115 63.0148 395.296 65.3196 394.783 66.5488C392.043 73.0792 387.971 77.228 381.185 80.3523C380.058 78.3804 379.571 77.7401 377.651 75.7682C379.776 75.0255 380.852 74.539 382.209 73.7707C383.771 72.8744 384.668 72.2085 385.871 71.0561C384.437 69.9037 383.387 69.2122 381.518 68.1879L384.668 64.3464C387.075 65.6525 387.536 65.9342 388.944 66.9074C389.79 65.5757 390.174 64.705 390.737 62.9891H384.386C382.978 65.6013 381.262 67.7269 378.675 70.1342C377.113 68.4695 376.422 67.9318 374.347 66.7281C377.446 64.1416 378.957 62.3489 380.57 59.3526C381.313 57.9953 381.646 57.1246 382.03 55.7417L387.331 56.7661H387.305Z" fill="#231815"/>
</g>
<path d="M57.5584 103.107C57.5584 103.107 65.1132 102.364 67.6485 111.277C70.1582 120.189 69.2875 118.242 69.2875 118.242L72.2582 114.99C72.2582 114.99 70.6192 109.945 73.5899 108.895C76.5606 107.845 82.63 112.608 81.6056 118.089C80.5812 123.569 77.3032 120.47 77.3032 120.47L70.5936 126.028C67.9558 128.614 64.0888 128.614 63.0388 126.104L58.7364 114.964L57.5584 103.082V103.107Z" fill="#F9E0C0"/>
<path d="M71.413 127.027L77.3544 122.084C78.0458 122.494 79.0446 122.827 80.1202 122.494C81.5031 122.059 82.3994 120.65 82.8348 118.345C83.4238 115.246 82.1433 111.994 79.4031 109.638C77.3031 107.82 74.8958 107.103 73.1288 107.717C70.1837 108.767 70.2094 112.301 70.7984 114.683L70.0813 115.451C69.774 114.325 69.3642 112.865 68.8264 110.944C66.035 101.136 57.4815 101.827 57.379 101.853C57.0461 101.878 56.7388 102.058 56.5083 102.314C56.3035 102.57 56.201 102.903 56.2266 103.236L57.4046 115.093C57.4046 115.093 57.4302 115.323 57.4815 115.426L61.8095 126.591C62.3729 127.923 63.4997 128.845 65.0106 129.152C65.3948 129.229 65.7533 129.255 66.163 129.255C67.9813 129.255 69.9276 128.435 71.3617 127.001L71.413 127.027ZM58.9668 104.439C60.99 104.695 64.8058 105.95 66.4191 111.636C67.4947 115.451 67.9045 117.142 68.0581 117.859C67.9557 118.166 67.9813 118.499 68.1094 118.781C68.3911 119.395 69.2362 119.831 69.8508 119.626C70.3886 119.421 70.6959 119.267 70.7215 118.576L73.2056 115.861C73.5129 115.528 73.6154 115.042 73.4873 114.606C73.4873 114.581 72.3349 110.714 74.0251 110.125C74.7678 109.869 76.2788 110.278 77.7897 111.584C79.3519 112.942 80.8628 115.298 80.3762 117.884C80.0177 119.831 79.4543 120.061 79.3775 120.087C79.0958 120.138 78.5068 119.856 78.1995 119.574C77.7385 119.139 76.9958 119.114 76.5092 119.523L69.7227 125.157C68.5191 126.335 66.8801 126.924 65.5996 126.694C64.9338 126.566 64.4728 126.207 64.268 125.695L60.0168 114.734L58.9924 104.491L58.9668 104.439Z" fill="#231815"/>
<path d="M32.7942 104.44C32.7942 104.44 16.6091 97.4738 13.3567 86.9228C13.3567 86.9228 15.5847 79.368 7.56899 80.3924C2.24225 81.0838 0.014228 92.9922 6.08365 93.1458C8.90068 97.1409 17.6591 110.791 31.0015 113.326L32.7942 104.414V104.44Z" fill="#F9E0C0"/>
<path d="M32.2563 113.607L34.0234 104.695C34.1514 104.106 33.8185 103.517 33.2807 103.261C33.127 103.21 17.9663 96.5515 14.6627 86.8711C14.8932 85.7955 15.3285 82.8505 13.6127 80.8529C12.3322 79.342 10.2323 78.7786 7.36402 79.1371C3.42018 79.6493 0.910444 84.7199 1.14093 88.9455C1.29458 91.993 2.88236 94.0161 5.34086 94.3747L5.54574 94.6564C8.84935 99.4197 17.6334 112.096 30.7453 114.58C30.8222 114.58 30.899 114.58 30.9759 114.58C31.5649 114.58 32.1026 114.171 32.2307 113.556L32.2563 113.607ZM11.692 82.5175C12.6908 83.67 12.3322 85.8467 12.1274 86.5894C12.0505 86.8199 12.0505 87.076 12.1274 87.3321C15.0981 96.91 27.7235 103.492 31.3344 105.207L30.0027 111.84C18.6065 108.998 10.6932 97.6271 7.67132 93.2479L7.10791 92.454C6.87743 92.121 6.49329 91.9162 6.10915 91.9162C4.26528 91.865 3.77872 90.226 3.7275 88.843C3.57384 85.8724 5.31526 82.0053 7.74815 81.698C8.20912 81.6468 8.64448 81.6212 9.02862 81.6212C10.2835 81.6212 11.2054 81.9285 11.7176 82.5431L11.692 82.5175Z" fill="#231815"/>
<path d="M40.1017 168.651L28.7344 166.466L32.877 144.914L44.2443 147.098L40.1017 168.651Z" fill="#F9E0C0"/>
<path d="M41.348 168.95L45.4967 147.387C45.5479 147.054 45.4967 146.721 45.2918 146.439C45.0869 146.157 44.8052 145.978 44.4723 145.901L33.1017 143.725C32.3591 143.596 31.7444 144.057 31.6164 144.723L27.4677 166.286C27.4164 166.619 27.4677 166.952 27.6725 167.234C27.8774 167.516 28.1591 167.695 28.4921 167.772L39.8626 169.949C39.8626 169.949 40.0163 169.949 40.0931 169.949C40.7077 169.949 41.2199 169.513 41.348 168.924V168.95ZM33.8956 146.439L42.7564 148.129L39.0943 167.183L30.2335 165.492L33.8956 146.439Z" fill="#231815"/>
<path d="M40.1044 168.66L28.7371 166.475L30.6609 156.465L42.0283 158.65L40.1044 168.66Z" fill="#746858"/>
<path d="M41.3475 168.95L43.2682 158.962C43.3963 158.271 42.9609 157.605 42.2694 157.477L30.8989 155.3C30.566 155.249 30.233 155.3 29.9513 155.505C29.6696 155.71 29.4904 155.992 29.4136 156.325L27.4929 166.338C27.4416 166.671 27.4929 167.004 27.6977 167.285C27.9026 167.567 28.1843 167.746 28.5172 167.823L39.8878 170C39.8878 170 40.0414 170 40.1182 170C40.7329 170 41.2451 169.565 41.3731 168.976L41.3475 168.95ZM31.6672 158.015L40.528 159.731L39.0939 167.234L30.233 165.544L31.6672 158.04V158.015Z" fill="#231815"/>
<path d="M75.6909 148.875L73.96 160.32L52.2595 157.038L53.9904 145.593L75.6909 148.875Z" fill="#F9E0C0"/>
<path d="M74.6912 161.343C74.9729 161.139 75.1522 160.857 75.2034 160.498L76.9449 149.051C77.0473 148.36 76.5607 147.719 75.8693 147.591L54.1526 144.313C53.8196 144.262 53.4867 144.339 53.205 144.544C52.9233 144.749 52.744 145.03 52.6928 145.389L50.9514 156.836C50.8489 157.528 51.3355 158.168 52.027 158.296L73.7437 161.574C73.7437 161.574 73.8717 161.574 73.9229 161.574C74.2046 161.574 74.4608 161.497 74.6656 161.318L74.6912 161.343ZM55.0233 147.053L74.2303 149.947L72.873 158.859L53.666 155.965L55.0233 147.053Z" fill="#231815"/>
<path d="M75.6877 148.9L73.9568 160.346L63.8789 158.822L65.6098 147.376L75.6877 148.9Z" fill="#746858"/>
<path d="M74.6912 161.344C74.9729 161.139 75.1522 160.858 75.2034 160.499L76.9449 149.052C77.0473 148.36 76.5607 147.72 75.8693 147.592L65.8048 146.081C65.1389 146.004 64.4731 146.465 64.3451 147.157L62.6036 158.604C62.5524 158.937 62.6293 159.27 62.8341 159.552C63.039 159.833 63.3207 160.013 63.6792 160.064L73.7437 161.575C73.7437 161.575 73.8717 161.575 73.9229 161.575C74.2046 161.575 74.4608 161.498 74.6656 161.319L74.6912 161.344ZM66.6755 148.821L74.2303 149.974L72.873 158.886L65.3182 157.733L66.6755 148.821Z" fill="#231815"/>
<path d="M63.9348 151.485H26.2634L31.4365 116.605H59.3508L63.9348 151.485Z" fill="#C64E65"/>
<path d="M64.9083 152.33C65.1388 152.048 65.2668 151.689 65.2156 151.331L60.6059 116.451C60.5291 115.811 59.9913 115.35 59.3511 115.35H31.4625C30.8222 115.35 30.2844 115.811 30.2076 116.425L25.0089 151.305C24.9577 151.664 25.0601 152.048 25.3162 152.33C25.5467 152.611 25.9052 152.765 26.2894 152.765H63.9864C64.3449 152.765 64.7034 152.611 64.9339 152.33H64.9083ZM32.5381 117.885H58.2243L62.501 150.204H27.7491L32.5637 117.885H32.5381Z" fill="#231815"/>
<path d="M63.9348 137.989H26.2634L31.4365 103.109H59.3508L63.9348 137.989Z" fill="#E1716F"/>
<path d="M64.9083 138.833C65.1388 138.552 65.2668 138.193 65.2156 137.835L60.6059 102.955C60.5291 102.314 59.9913 101.854 59.3511 101.854H31.4625C30.8222 101.854 30.2844 102.314 30.2076 102.929L25.0089 137.809C24.9577 138.168 25.0601 138.552 25.3162 138.833C25.5467 139.115 25.9052 139.269 26.2894 139.269H63.9864C64.3449 139.269 64.7034 139.115 64.9339 138.833H64.9083ZM32.5381 104.389H58.2243L62.501 136.708H27.7491L32.5637 104.389H32.5381Z" fill="#231815"/>
<path d="M52.9485 104.593H37.6597V100.291H52.9485V104.593Z" fill="#E5D0B3"/>
<path d="M54.2288 104.593V100.29C54.2288 99.5732 53.6654 99.0098 52.9483 99.0098H37.6595C36.9424 99.0098 36.379 99.5732 36.379 100.29V104.593C36.379 105.31 36.9424 105.873 37.6595 105.873H52.9483C53.6654 105.873 54.2288 105.31 54.2288 104.593ZM38.9656 101.571H51.6934V103.312H38.9656V101.571Z" fill="#231815"/>
<path d="M61.3228 91.1476C60.5289 87.9721 61.118 77.293 57.3534 71.5565C53.5888 65.82 40.1439 66.2041 33.8184 69.3797C27.4929 72.5552 28.466 80.4685 28.2868 86.9989C28.0819 93.5293 25.7258 95.5012 25.9051 98.267C26.1099 101.033 35.2013 99.445 35.2013 99.445C35.2013 99.445 51.6169 98.9329 57.5582 99.0609C68.2373 99.2658 62.1167 94.3232 61.3228 91.1476Z" fill="#675B4C"/>
<path d="M35.2524 100.726C35.4061 100.726 51.6936 100.214 57.5326 100.342C61.4764 100.419 63.7812 99.7788 64.6776 98.2935C65.6763 96.6033 64.5751 94.6826 63.602 92.9923C63.1666 92.2241 62.7057 91.4302 62.552 90.8412C62.3472 90.0217 62.2447 88.4851 62.1166 86.6924C61.7581 81.8523 61.2716 75.2195 58.4289 70.8659C54.2802 64.5404 40.2207 64.7708 33.2549 68.2537C27.1087 71.3268 27.0831 78.1645 27.0575 84.1827C27.0575 85.1303 27.0574 86.0522 27.0318 86.9485C26.9294 90.4826 26.1355 92.6082 25.5209 94.2984C25.0087 95.7069 24.5477 96.9106 24.6502 98.3447C24.7014 99.0618 25.0343 99.6764 25.6233 100.137C26.6477 100.931 28.4915 101.187 30.3098 101.187C32.3842 101.187 34.4329 100.88 35.278 100.726H35.2524ZM56.3033 72.2488C58.7874 76.039 59.2484 82.2876 59.5813 86.8461C59.735 88.8436 59.8374 90.4058 60.0935 91.4302C60.324 92.3521 60.8618 93.2997 61.3996 94.2216C61.8605 95.0411 62.7313 96.5521 62.5008 96.9618C62.4496 97.0642 61.9118 97.8837 57.6094 97.7557C51.6936 97.6532 35.8671 98.1398 35.022 98.1654C31.5135 98.7801 27.6977 98.7288 27.2111 98.1654C27.1599 97.2691 27.4672 96.3728 27.9282 95.1691C28.594 93.4021 29.4903 90.9692 29.5928 87.0254C29.6184 86.1034 29.6184 85.1559 29.6184 84.1827C29.644 78.3694 29.6696 72.889 34.4073 70.5073C37.0963 69.15 41.245 68.3305 45.2401 68.3305C49.9778 68.3305 54.5107 69.483 56.3289 72.2232L56.3033 72.2488Z" fill="#231815"/>
<path d="M56.7897 101.725H33.0498V75.3214H56.7897V101.725Z" fill="#F9E0C0"/>
<path d="M58.0447 101.725V75.3215C58.0447 74.6044 57.4813 74.041 56.7642 74.041H33.0244C32.3073 74.041 31.7439 74.6044 31.7439 75.3215V101.725C31.7439 102.442 32.3073 103.005 33.0244 103.005H56.7642C57.4813 103.005 58.0447 102.442 58.0447 101.725ZM34.3048 76.602H55.4837V100.47H34.3048V76.602Z" fill="#231815"/>
<path d="M40.3489 93.1201H37.6855V88.1775H40.3489V93.1201Z" fill="#231815"/>
<path d="M38.3257 89.9707H36.6099V86.7695H38.3257V89.9707Z" fill="#231815"/>
<path d="M51.1812 93.1201H48.5178V88.1775H51.1812V93.1201Z" fill="#231815"/>
<path d="M49.1584 89.9707H47.4426V86.7695H49.1584V89.9707Z" fill="#231815"/>
<path d="M44.5746 99.0362C42.2954 99.0362 40.7076 97.9094 40.0674 97.0131C39.6576 96.4497 39.7601 95.6558 40.3235 95.2204C40.8869 94.8107 41.6808 94.9131 42.0905 95.4765C42.2698 95.707 43.9088 97.5765 47.5965 95.6046C48.2111 95.2972 49.005 95.5021 49.3123 96.1424C49.6453 96.757 49.4148 97.5253 48.7746 97.8582C47.1868 98.7033 45.7527 99.0106 44.549 99.0106L44.5746 99.0362Z" fill="#231815"/>
<path d="M11.7176 79.087C11.7176 79.087 1.93482 91.2514 1.3202 92.5831C0.705572 93.9148 3.39455 96.2965 4.8799 95.8355C6.36524 95.3745 17.0443 82.3394 16.8907 81.443C16.737 80.5467 13.6383 77.576 11.692 79.0614L11.7176 79.087Z" fill="#807F81"/>
<path d="M5.26409 97.0644C6.85187 96.5778 18.5041 83.1585 18.1712 81.2378C17.9664 80.0598 16.2505 78.3952 14.5603 77.7293C13.2286 77.1915 11.9225 77.3196 10.9494 78.0879C10.8725 78.1391 10.7957 78.2159 10.7445 78.2928C8.41404 81.1866 0.80807 90.6877 0.193445 92.0706C-0.241914 93.0694 0.065364 94.2474 1.03852 95.3742C1.90924 96.3473 3.24094 97.1925 4.4958 97.1925C4.75189 97.1925 5.00799 97.1669 5.26409 97.09V97.0644ZM13.3054 79.983C14.2018 80.2135 15.1493 81.0586 15.5078 81.4683C14.1249 83.7988 5.90434 93.7864 4.52143 94.6059C4.419 94.6571 3.95802 94.5547 3.39462 94.1193C2.77999 93.6584 2.52393 93.1462 2.47272 93.095C2.90807 92.1986 7.9787 85.7195 12.5628 80.0086C12.6908 79.9574 12.8957 79.8805 13.2798 79.983H13.3054Z" fill="#231815"/>
<path d="M15.6359 84.259C12.9769 84.259 10.8213 82.1035 10.8213 79.4444C10.8213 76.7854 12.9769 74.6299 15.6359 74.6299C18.2949 74.6299 20.4504 76.7854 20.4504 79.4444C20.4504 82.1035 18.2949 84.259 15.6359 84.259Z" fill="#A6A6A6"/>
<path d="M21.731 79.4442C21.731 76.0893 18.9907 73.3491 15.6359 73.3491C12.2811 73.3491 9.54088 76.0893 9.54088 79.4442C9.54088 82.799 12.2811 85.5392 15.6359 85.5392C18.9907 85.5392 21.731 82.799 21.731 79.4442ZM19.1956 79.4442C19.1956 81.3905 17.6078 82.9782 15.6615 82.9782C13.7152 82.9782 12.1274 81.3905 12.1274 79.4442C12.1274 77.4978 13.7152 75.8845 15.6615 75.8845C17.6078 75.8845 19.1956 77.4722 19.1956 79.4442Z" fill="#231815"/>
<path d="M30.7455 83.9782C30.7455 83.9782 32.0004 87.4866 34.1516 85.8476C36.3027 84.2086 44.2929 76.5258 44.2929 76.5258C44.2929 76.5258 52.6671 85.0025 55.0488 86.6671C57.4305 88.3317 59.1975 88.7415 59.1975 87.4866C59.1975 86.2318 60.7597 76.3978 56.4061 73.5039C52.0525 70.6101 39.0174 71.3271 35.8162 72.3771C32.615 73.4271 31.4626 73.632 30.7455 75.4758C30.0285 77.3197 30.7455 83.9525 30.7455 83.9525V83.9782Z" fill="#675B4C"/>
<path d="M56.9695 89.4588C56.8158 89.4588 56.6622 89.4332 56.5085 89.3564C55.0488 88.7674 53.0768 86.7955 49.8501 83.5175C48.2879 81.9553 46.4953 80.137 44.4209 78.1651C41.5526 82.4675 35.0991 87.2052 34.7917 87.4357C34.2027 87.8455 33.5369 88.2552 32.7174 88.0759C31.8723 87.9223 31.4625 87.2564 31.0784 86.6418C30.9504 86.4369 30.8223 86.2065 30.643 85.976C30.2333 85.4126 30.3613 84.5931 30.9503 84.2089C31.5138 83.7992 32.3333 83.9272 32.7174 84.5162C32.9223 84.8236 33.1016 85.0796 33.2552 85.3357C33.2552 85.3613 33.3064 85.387 33.3064 85.4382C35.4832 83.8504 41.4758 78.959 42.9868 75.6554C43.166 75.2713 43.499 75.0152 43.9087 74.9383C44.2929 74.8359 44.7282 74.9896 45.0355 75.2457C47.622 77.6785 49.8501 79.9066 51.6939 81.8016C54.2805 84.4138 56.5341 86.6674 57.5073 87.0772C58.1731 87.3333 58.4804 88.0759 58.2243 88.7418C58.0195 89.2284 57.5585 89.5357 57.0463 89.5357L56.9695 89.4588Z" fill="#231815"/>
</g>
<defs>
<filter id="filter0_d_2093_203" x="83.7835" y="22.8977" width="495.003" height="153.414" filterUnits="userSpaceOnUse" color-interpolation-filters="sRGB">
<feFlood flood-opacity="0" result="BackgroundImageFix"/>
<feColorMatrix in="SourceAlpha" type="matrix" values="0 0 0 0 0 0 0 0 0 0 0 0 0 0 0 0 0 0 127 0" result="hardAlpha"/>
<feOffset dx="7.24745" dy="7.24745"/>
<feGaussianBlur stdDeviation="3.63653"/>
<feColorMatrix type="matrix" values="0 0 0 0 0.137255 0 0 0 0 0.0941176 0 0 0 0 0.0823529 0 0 0 0.35 0"/>
<feBlend mode="normal" in2="BackgroundImageFix" result="effect1_dropShadow_2093_203"/>
<feBlend mode="normal" in="SourceGraphic" in2="effect1_dropShadow_2093_203" result="shape"/>
</filter>
<clipPath id="clip0_2093_203">
<rect width="650" height="175" fill="white"/>
</clipPath>
</defs>
</svg>
